<?xml version="1.0" encoding="UTF-8" standalone="no"?>
<!-- Created with Inkscape (http://www.inkscape.org/) -->

<svg
   xmlns:dc="http://purl.org/dc/elements/1.1/"
   xmlns:cc="http://creativecommons.org/ns#"
   xmlns:rdf="http://www.w3.org/1999/02/22-rdf-syntax-ns#"
   xmlns:svg="http://www.w3.org/2000/svg"
   xmlns="http://www.w3.org/2000/svg"
   xmlns:sodipodi="http://sodipodi.sourceforge.net/DTD/sodipodi-0.dtd"
   xmlns:inkscape="http://www.inkscape.org/namespaces/inkscape"
   width="16"
   height="16"
   viewBox="0 0 16 16"
   id="svg2"
   version="1.1"
   inkscape:version="0.91 r13725"
   sodipodi:docname="ada-ladybird.svg">
  <defs
     id="defs4" />
  <sodipodi:namedview
     id="base"
     pagecolor="#ffffff"
     bordercolor="#666666"
     borderopacity="1.0"
     inkscape:pageopacity="0.0"
     inkscape:pageshadow="2"
     inkscape:zoom="9.4897222"
     inkscape:cx="14.48936"
     inkscape:cy="28.346457"
     inkscape:document-units="px"
     inkscape:current-layer="layer1"
     showgrid="false"
     units="px"
     inkscape:window-width="1366"
     inkscape:window-height="705"
     inkscape:window-x="-8"
     inkscape:window-y="-8"
     inkscape:window-maximized="1" />
  <metadata
     id="metadata7">
    <rdf:RDF>
      <cc:Work
         rdf:about="">
        <dc:format>image/svg+xml</dc:format>
        <dc:type
           rdf:resource="http://purl.org/dc/dcmitype/StillImage" />
        <dc:title></dc:title>
      </cc:Work>
    </rdf:RDF>
  </metadata>
  <g
     inkscape:label="Camada 1"
     inkscape:groupmode="layer"
     id="layer1"
     transform="translate(0,-1036.3622)">
    <path
       style="fill:#000000"
       d="m 11.577519,1036.3623 c -0.052,0 -0.108795,0.1962 -0.166793,0.5792 -0.054,0.3552 -0.065,0.4954 -0.065,0.8193 -3e-4,0.5054 0.052,0.8898 0.188392,1.3904 0.274189,1.0044 0.904263,2.1061 1.854724,3.2426 0.319186,0.3817 0.417882,0.4896 0.510579,0.558 0.120895,0.089 0.341186,0.3104 0.420182,0.4219 0.25129,0.3549 0.377385,0.7475 0.431383,1.3442 0.015,0.1619 0.018,0.7918 0.01,1.1159 0,0.117 -0.01,0.2105 0,0.2078 0.01,-0.01 0.106496,-0.5251 0.146994,-0.7604 0.041,-0.2385 0.077,-0.4994 0.104196,-0.751 0.027,-0.2493 0.032,-0.7785 0.011,-0.9727 -0.093,-0.8303 -0.409083,-1.4842 -1.096855,-2.2699 -0.151893,-0.1735 -0.639573,-0.6584 -0.884163,-0.8791 -0.23519,-0.2122 -0.299288,-0.2832 -0.424583,-0.4708 -0.409383,-0.6131 -0.754469,-1.7814 -0.890263,-3.0142 -0.042,-0.3771 -0.09,-0.5642 -0.142094,-0.5612 z m -0.751769,1.6944 c 0,10e-5 -0.01,7e-4 -0.01,0 -0.089,0.034 -0.085,0.5376 0.01,1.2908 0.049,0.3883 0.098,0.5764 0.232591,0.888 0.119795,0.2777 0.386684,0.7016 0.613374,0.9743 0.183293,0.2205 0.207792,0.2451 0.279889,0.2814 0.334886,0.1687 0.796567,0.6158 1.20495,1.1668 0.058,0.078 0.115995,0.1581 0.129995,0.1787 0.028,0.042 0.032,0.043 0.116695,0.022 0.076,-0.018 0.180593,-0.019 0.23099,-6e-4 l 0.038,0.014 -0.033,-0.044 c -0.103095,-0.1364 -0.682472,-0.868 -0.803367,-1.0145 -0.078,-0.095 -0.257089,-0.305 -0.397183,-0.4668 -0.462881,-0.535 -0.564277,-0.6735 -0.787068,-1.0756 -0.286088,-0.5163 -0.556077,-1.2431 -0.698271,-1.88 -0.054,-0.2404 -0.091,-0.338 -0.129295,-0.3361 z m -9.6923004,1.0843 c -0.057,0 -0.105096,0.1902 -0.14699398,0.5836 -0.052,0.4857 -0.015,0.949 0.11739498,1.492 0.107296,0.4391 0.265389,0.8432 0.415783,1.0628 0.024,0.035 0.06,0.096 0.08,0.1354 0.144094,0.2861 0.370785,0.6238 0.619774,0.9229 0.133795,0.1609 0.50578,0.5313 0.671373,0.6688 0.838965,0.6965 1.751128,1.0858 2.821384,1.204 0.162393,0.018 0.651273,0.024 0.838565,0.011 0.269689,-0.019 0.592176,-0.064 0.749869,-0.1029 0.165993,-0.041 0.274089,-0.054 0.476981,-0.054 0.215891,-3e-4 0.309887,0.012 0.513778,0.065 0.270689,0.071 0.515179,0.185 0.795368,0.3708 0.172993,0.1149 0.311787,0.2277 0.492879,0.4012 0.183693,0.1758 0.24109,0.2252 0.333587,0.2869 0.075,0.05 0.1555924,0.085 0.2290894,0.098 0.087,0.016 0.199392,-0.01 0.317487,-0.068 l 0.07,-0.035 -0.124095,-0.1238 c -0.5236774,-0.5216 -0.7058704,-0.9237 -0.6340734,-1.3996 0.05,-0.3294 0.169993,-0.6028 0.3482854,-0.7913 l 0.07,-0.074 -0.018,-0.053 c -0.026,-0.077 -0.083,-0.1808 -0.142394,-0.2594 -0.3242864,-0.4314 -1.1399524,-0.6544 -2.1252124,-0.5808 -0.444681,0.033 -0.654973,0.08 -1.45134,0.3196 -0.442582,0.1334 -0.708271,0.2022 -0.906863,0.2347 -0.142694,0.023 -0.193092,0.022 -0.431882,-0.012 -1.917821,-0.2748 -3.295764,-1.643 -3.775944,-3.7491 -0.097,-0.4238 -0.144494,-0.5531 -0.204592,-0.5531 z m 9.5224074,0.6594 c -0.022,0 -0.038,0.055 -0.053,0.1507 -0.046,0.2833 0.086,0.8399 0.26049,1.0938 0.043,0.063 0.120695,0.1354 0.174092,0.1625 0.03,0.016 0.094,0.032 0.177593,0.045 0.146894,0.023 0.321287,0.061 0.418983,0.09 0.088,0.026 0.087,0.026 0.054,-0.013 -0.016,-0.019 -0.103996,-0.1225 -0.196192,-0.2309 -0.306988,-0.3608 -0.446482,-0.5391 -0.568277,-0.7262 -0.06,-0.092 -0.078,-0.1313 -0.122695,-0.2664 -0.07,-0.2131 -0.113495,-0.3109 -0.144794,-0.3059 z m 0.23459,1.5456 c -0.038,7e-4 -0.077,0 -0.114895,0.01 -0.553377,0.051 -0.9449604,0.2243 -1.1253534,0.4984 -0.04,0.061 -0.087,0.1664 -0.087,0.1963 0,0.01 0.031,-0.017 0.069,-0.054 0.353086,-0.3454 0.9875594,-0.1562 1.6212324,0.4834 0.321487,0.3245 0.661673,0.5049 1.040258,0.5518 0.22549,0.028 0.519878,-0.021 0.73237,-0.1207 0.127094,-0.06 0.123094,-0.048 0.049,-0.1445 -0.475881,-0.618 -0.877964,-0.9774 -1.354445,-1.2109 -0.291788,-0.1428 -0.561577,-0.21 -0.829666,-0.2056 z m -2.9707764,0.5011 c -0.185093,0 -0.371885,0 -0.467181,0.012 -0.598275,0.051 -1.141953,0.1688 -1.718429,0.3714 -0.181693,0.064 -0.393484,0.147 -0.407784,0.1601 -0.01,0.01 0,0.01 0,0 0.037,-0.012 0.450882,-0.1003 0.649574,-0.1378 0.613174,-0.1156 1.114654,-0.1658 1.659431,-0.1662 0.427983,-4e-4 0.722871,0.025 1.085856,0.095 0.22669,0.043 0.534578,0.1303 0.71547,0.2018 l 0,10e-5 c 0.042,0.017 0.082,0.03 0.089,0.031 0.01,3e-4 -0.02,-0.039 -0.059,-0.088 -0.039,-0.049 -0.08,-0.1059 -0.091,-0.1268 l -0.02,-0.038 0.033,-1e-4 c 0.018,0 0.048,-0.01 0.066,-0.02 0.033,-0.02 0.071,-0.068 0.061,-0.078 -0.013,-0.013 -0.360585,-0.095 -0.555577,-0.1305 -0.157294,-0.029 -0.390484,-0.06 -0.588676,-0.078 -0.088,-0.01 -0.271289,-0.012 -0.456281,-0.012 z m 2.1452104,0.075 c -0.063,0 -0.1267934,0.01 -0.1750914,0.034 -0.068,0.035 -0.133695,0.095 -0.189393,0.1735 -0.038,0.054 -0.086,0.1381 -0.086,0.1512 0,0.011 0.065,0.05 0.114395,0.068 0.04,0.015 0.07,0.019 0.121695,0.015 0.09,-0.01 0.1551934,-0.041 0.2409894,-0.1284 0.079,-0.08 0.177993,-0.2393 0.161494,-0.2592 -0.01,-0.01 -0.041,-0.023 -0.077,-0.035 -0.035,-0.011 -0.073,-0.018 -0.110696,-0.019 z m -0.2391894,0.1721 c 0.025,0 0.037,0.01 0.053,0.033 0.024,0.038 0.019,0.075 -0.012,0.1015 -0.029,0.024 -0.056,0.022 -0.085,-0.01 -0.05,-0.05 -0.024,-0.1273 0.045,-0.1273 z m 0.6638724,0.031 c -0.039,10e-4 -0.078,0.01 -0.115695,0.019 -0.081,0.025 -0.145994,0.069 -0.237591,0.1602 -0.121395,0.1207 -0.2087904,0.1511 -0.4064824,0.1412 -0.066,0 -0.136094,-0.01 -0.154993,-0.013 l -0.034,-0.01 0,0.1155 c 0.01,0.1401 0.04,0.2495 0.114995,0.3704 0.094,0.1505 0.210992,0.2571 0.4461814,0.4059 0.148594,0.094 0.24309,0.1761 0.254389,0.2211 0.01,0.039 0,0.072 -0.031,0.087 -0.014,0.01 -0.023,0.017 -0.02,0.022 0.01,0.012 0.079,10e-5 0.159393,-0.027 0.190892,-0.065 0.465881,-0.2836 0.592676,-0.4717 0.087,-0.129 0.127394,-0.2474 0.127394,-0.3747 2e-4,-0.1549 -0.036,-0.2349 -0.170993,-0.3761 -0.176792,-0.185 -0.359085,-0.2785 -0.529278,-0.2735 z m 0.825766,0.5474 c 0,0 -0.01,0.041 -0.01,0.09 -0.01,0.1038 -0.049,0.2431 -0.104395,0.3443 -0.136895,0.2498 -0.379885,0.4409 -0.719471,0.5659 -0.106295,0.039 -0.105595,0.043 0,0.015 0.130095,-0.033 0.24179,-0.044 0.433082,-0.044 0.26269,-10e-5 0.460381,0.033 0.720571,0.1217 0.257889,0.088 0.594675,0.2756 0.811966,0.4533 0.045,0.036 0.084,0.067 0.088,0.067 0,3e-4 0.01,-0.021 0.013,-0.048 0.022,-0.1543 0.112796,-0.4576 0.191892,-0.6394 0.098,-0.226 0.228091,-0.4249 0.370285,-0.567 0.047,-0.047 0.083,-0.085 0.08,-0.085 0,0 -0.048,0.02 -0.101696,0.045 -0.544078,0.2525 -1.123454,0.1736 -1.649032,-0.2246 -0.069,-0.052 -0.126095,-0.095 -0.127895,-0.095 z m 2.254107,0.2892 c -0.05,0 -0.099,10e-5 -0.099,0.01 0,0.01 -0.011,0.01 -0.025,0 -0.014,0 -0.033,0 -0.043,0.01 -0.01,0.01 -0.03,0.014 -0.045,0.014 -0.015,2e-4 -0.031,0.01 -0.036,0.016 0,0.01 -0.02,0.018 -0.033,0.02 -0.014,0 -0.031,0.013 -0.038,0.022 -0.01,0.01 -0.02,0.018 -0.03,0.02 -0.01,0 -0.024,0.011 -0.033,0.022 -0.01,0.011 -0.024,0.022 -0.034,0.026 -0.01,0 -0.022,0.017 -0.027,0.03 -0.01,0.013 -0.019,0.027 -0.03,0.03 -0.012,0 -0.021,0.012 -0.021,0.02 0,0.01 -0.011,0.023 -0.025,0.032 -0.014,0.01 -0.025,0.025 -0.025,0.036 0,0.011 -0.01,0.025 -0.02,0.031 -0.011,0.01 -0.02,0.019 -0.02,0.03 0,0.01 -0.012,0.027 -0.026,0.036 -0.015,0.01 -0.024,0.023 -0.021,0.032 0,0.01 0,0.02 -0.014,0.027 -0.011,0.01 -0.02,0.022 -0.02,0.033 0,0.011 -0.01,0.029 -0.02,0.038 -0.011,0.01 -0.02,0.026 -0.02,0.037 0,0.01 -0.01,0.025 -0.015,0.032 -0.01,0.01 -0.015,0.022 -0.015,0.034 0,0.012 -0.01,0.03 -0.021,0.04 -0.012,0.01 -0.019,0.025 -0.015,0.034 0,0.01 0,0.027 -0.014,0.041 -0.011,0.014 -0.017,0.031 -0.015,0.038 0,0.01 0,0.019 -0.011,0.026 -0.01,0.01 -0.016,0.024 -0.016,0.038 0,0.014 -0.01,0.036 -0.017,0.05 -0.01,0.014 -0.014,0.028 -0.01,0.032 0,0 -7e-4,0.018 -0.01,0.031 -0.01,0.014 -0.014,0.031 -0.011,0.038 0,0.01 0,0.022 -0.01,0.032 -0.01,0.01 -0.014,0.031 -0.014,0.046 -2e-4,0.015 0,0.03 -0.011,0.034 -0.01,0 -0.01,0.022 -0.01,0.041 0,0.019 0,0.035 -0.011,0.035 -0.01,0 -0.01,0.016 -0.01,0.035 0,0.019 0,0.041 -0.01,0.05 -0.01,0.01 -0.01,0.026 -0.01,0.042 0,0.016 0,0.026 0,0.026 -0.01,0 -0.011,0.011 -0.011,0.025 0,0.034 0.018,0.033 0.027,-0 0,-0.015 0.015,-0.035 0.026,-0.046 0.011,-0.011 0.016,-0.024 0.013,-0.03 0,-0.01 0,-0.019 0.015,-0.031 0.012,-0.011 0.021,-0.029 0.021,-0.04 0,-0.011 0.01,-0.023 0.015,-0.026 0.01,0 0.015,-0.014 0.015,-0.024 0,-0.01 0.021,-0.04 0.047,-0.067 0.026,-0.027 0.058,-0.065 0.071,-0.085 0.013,-0.019 0.038,-0.054 0.054,-0.076 0.017,-0.022 0.039,-0.052 0.048,-0.066 0.039,-0.056 0.072,-0.084 0.137294,-0.1174 0.06,-0.03 0.078,-0.035 0.143294,-0.035 0.056,0 0.081,0 0.099,0.018 0.013,0.01 0.036,0.023 0.05,0.029 0.014,0.01 0.037,0.029 0.052,0.05 0.08,0.121 0.099,0.1532 0.105995,0.1762 0,0.014 0.018,0.039 0.031,0.056 0.025,0.034 0.055,0.1098 0.055,0.1433 0,0.012 0.01,0.027 0.015,0.034 0.01,0.01 0.014,0.026 0.014,0.044 -5e-4,0.018 0,0.034 0.011,0.036 0.01,0 0.012,0.017 0.012,0.033 0,0.016 0,0.032 0.01,0.035 0.01,0 0.01,0.022 0.01,0.041 0,0.019 0,0.037 0.01,0.041 0.01,0 0.01,0.02 0.01,0.036 0,0.016 0,0.032 0.01,0.035 0.01,0 0.01,0.022 0.01,0.041 0,0.019 0,0.037 0.011,0.041 0.01,0 0.01,0.017 0.01,0.029 0,0.012 8e-4,0.031 0.01,0.042 0.01,0.011 0.012,0.029 0.01,0.041 0,0.012 -4e-4,0.025 0.01,0.029 0.01,0 0.011,0.025 0.011,0.046 0,0.022 0,0.042 0.01,0.046 0.01,0 0.01,0.017 0,0.031 0,0.014 0,0.031 0,0.038 0.01,0.01 0.011,0.024 0.011,0.038 2e-4,0.014 0.01,0.048 0.012,0.076 0.01,0.028 0.011,0.065 0.011,0.083 -4e-4,0.018 0,0.035 0.01,0.039 0.01,0 0.01,0.017 0,0.031 0,0.013 0,0.03 0,0.037 0,0.01 0.01,0.027 0.011,0.044 0,0.017 0,0.049 0.01,0.071 0.01,0.065 0.016,0.1195 0.018,0.1523 0,0.017 0.01,0.036 0.011,0.043 0,0.01 0.01,0.026 0,0.042 0,0.017 0,0.032 0,0.036 0.01,0 0.01,0.02 0,0.04 0,0.021 0,0.036 0.01,0.041 0.01,0 0.01,0.019 0.01,0.036 0,0.016 0,0.035 0,0.042 0.01,0.013 0.017,0.1248 0.015,0.1937 -4e-4,0.021 0,0.038 0.01,0.038 0.01,0 0.014,0.095 0.013,0.1903 -10e-5,0.024 0,0.043 0.01,0.043 0,0 0.01,0.034 0.01,0.076 0,0.042 3e-4,0.078 0,0.081 0,0 0.01,0.037 0.01,0.076 0,0.039 9e-4,0.074 0.01,0.076 0,0 0.01,0.055 0.01,0.1173 -10e-4,0.062 0,0.1143 0,0.1166 0,0 0.01,0.072 0,0.1543 -10e-4,0.086 0,0.1557 0.01,0.163 0.01,0.01 0.01,0.018 0,0.029 -0.011,0.013 -0.011,0.02 -3e-4,0.037 0.011,0.017 0.011,0.026 4e-4,0.045 -0.01,0.019 -0.01,0.027 0,0.039 0.01,0.01 0.01,0.021 0,0.028 0,0.01 -0.01,0.044 -0.01,0.082 l -2e-4,0 c 0,0.038 0,0.069 0.01,0.069 0.013,0 0.032,-0.024 0.032,-0.04 0,-0.01 0.01,-0.021 0.02,-0.028 0.011,-0.01 0.02,-0.021 0.02,-0.031 0,-0.01 0.01,-0.024 0.02,-0.03 0.011,-0.01 0.02,-0.022 0.02,-0.033 0,-0.011 0.01,-0.025 0.02,-0.031 0.012,-0.01 0.02,-0.021 0.02,-0.035 0,-0.014 0.01,-0.029 0.02,-0.035 0.011,-0.01 0.02,-0.019 0.02,-0.029 0,-0.01 0.01,-0.025 0.02,-0.035 0.011,-0.01 0.02,-0.026 0.02,-0.035 0,-0.01 0.01,-0.026 0.021,-0.036 0.012,-0.01 0.019,-0.024 0.016,-0.032 0,-0.01 0,-0.022 0.014,-0.031 0.011,-0.01 0.02,-0.025 0.02,-0.035 0,-0.01 0.01,-0.025 0.02,-0.035 0.011,-0.01 0.02,-0.029 0.02,-0.041 0,-0.013 0.01,-0.025 0.015,-0.029 0.01,0 0.015,-0.016 0.015,-0.028 0,-0.012 0.01,-0.03 0.015,-0.04 0.01,-0.01 0.017,-0.027 0.02,-0.039 0,-0.012 0.012,-0.029 0.021,-0.038 0.01,-0.01 0.014,-0.023 0.011,-0.03 0,-0.01 0,-0.021 0.011,-0.03 0.01,-0.01 0.017,-0.028 0.019,-0.042 0,-0.014 0.011,-0.034 0.02,-0.044 0.01,-0.01 0.014,-0.024 0.01,-0.03 0,-0.01 0,-0.022 0.013,-0.036 0.011,-0.014 0.018,-0.034 0.015,-0.044 0,-0.01 0,-0.024 0.011,-0.032 0.01,-0.01 0.016,-0.026 0.016,-0.042 0,-0.016 0,-0.029 0.01,-0.029 0.01,0 0.01,-0.016 0.01,-0.035 0,-0.019 0,-0.038 0.01,-0.041 0.01,0 0.01,-0.019 0.01,-0.034 -2e-4,-0.015 0,-0.052 0.01,-0.083 0.015,-0.083 0.021,-0.1239 0.021,-0.1523 10e-5,-0.014 0,-0.032 0.01,-0.041 0.01,-0.018 0.011,-0.049 0.015,-0.1473 0,-0.039 0.01,-0.077 0.011,-0.084 0,-0.01 0,-0.026 0,-0.042 0,-0.016 0,-0.032 0,-0.035 0.01,0 0.01,-0.039 0.01,-0.08 0,-0.04 0,-0.079 0.01,-0.085 0.01,-0.01 0.01,-0.02 0,-0.033 -0.01,-0.012 -0.01,-0.027 0,-0.034 0.011,-0.017 0.012,-0.3447 7e-4,-0.3593 -0.01,-0.01 0,-0.02 0,-0.032 0.01,-0.016 0.01,-0.023 0,-0.035 -0.01,-0.01 -0.01,-0.028 -0.01,-0.05 0,-0.019 0,-0.038 0,-0.041 -0.01,0 -0.01,-0.034 -0.01,-0.07 0,-0.035 0,-0.07 -0.01,-0.077 -0.01,-0.01 -0.01,-0.024 0,-0.038 0,-0.014 0,-0.031 0,-0.038 0,-0.01 -0.01,-0.026 -0.01,-0.043 -10e-4,-0.017 -0.01,-0.053 -0.013,-0.081 -0.01,-0.028 -0.011,-0.062 -0.011,-0.075 2e-4,-0.013 0,-0.031 -0.011,-0.038 -0.01,-0.01 -0.01,-0.02 -0.01,-0.028 0,-0.01 -8e-4,-0.026 -0.01,-0.041 -0.01,-0.015 -0.011,-0.034 -0.01,-0.042 0,-0.01 0,-0.026 -0.01,-0.04 -0.01,-0.014 -0.014,-0.032 -0.01,-0.041 0,-0.01 0,-0.025 -0.011,-0.035 -0.01,-0.011 -0.014,-0.024 -0.01,-0.03 0,-0.01 -3e-4,-0.022 -0.01,-0.036 -0.01,-0.014 -0.016,-0.035 -0.016,-0.048 0,-0.013 0,-0.029 -0.011,-0.035 -0.01,-0.01 -0.012,-0.024 -0.014,-0.04 0,-0.016 -0.01,-0.03 -0.014,-0.033 -0.01,0 -0.011,-0.017 -0.011,-0.034 0,-0.017 -0.01,-0.032 -0.015,-0.036 -0.01,0 -0.015,-0.018 -0.015,-0.034 0,-0.015 -0.01,-0.034 -0.015,-0.041 -0.01,-0.01 -0.015,-0.021 -0.015,-0.032 0,-0.01 -0.01,-0.027 -0.02,-0.037 -0.011,-0.01 -0.02,-0.028 -0.02,-0.041 0,-0.013 -0.01,-0.026 -0.015,-0.029 -0.01,0 -0.015,-0.017 -0.015,-0.03 0,-0.013 -0.01,-0.03 -0.02,-0.037 -0.011,-0.01 -0.02,-0.02 -0.02,-0.03 0,-0.01 -0.01,-0.024 -0.021,-0.032 -0.011,-0.01 -0.023,-0.025 -0.025,-0.039 0,-0.013 -0.014,-0.031 -0.025,-0.038 -0.011,-0.01 -0.021,-0.02 -0.021,-0.028 0,-0.01 -0.011,-0.021 -0.025,-0.03 -0.014,-0.01 -0.025,-0.023 -0.025,-0.03 0,-0.01 -0.011,-0.021 -0.025,-0.03 -0.014,-0.01 -0.025,-0.023 -0.025,-0.032 0,-0.01 -0.01,-0.018 -0.021,-0.021 -0.012,0 -0.025,-0.017 -0.031,-0.03 -0.01,-0.014 -0.018,-0.027 -0.029,-0.03 -0.011,0 -0.027,-0.016 -0.036,-0.03 -0.01,-0.013 -0.022,-0.024 -0.03,-0.024 -0.01,0 -0.021,-0.011 -0.03,-0.025 -0.01,-0.014 -0.02,-0.025 -0.024,-0.024 -0.021,0 -0.033,0 -0.033,-0.016 0,-0.01 -0.013,-0.018 -0.028,-0.022 -0.015,0 -0.034,-0.015 -0.041,-0.026 -0.01,-0.01 -0.022,-0.019 -0.034,-0.019 -0.011,0 -0.027,-0.01 -0.036,-0.015 -0.01,-0.01 -0.026,-0.015 -0.039,-0.015 -0.013,0 -0.025,0 -0.028,-0.011 0,-0.01 -0.053,-0.013 -0.102296,-0.014 z m -11.9062094,0.5466 c -0.05,-10e-4 -0.071,0.055 -0.063,0.169 0.019,0.2781 0.223091,0.7312 0.511879,1.1337 0.556777,0.7761 1.375843,1.3746 2.448399,1.7891 0.560577,0.2168 1.228649,0.3795 1.664431,0.4055 0.191993,0.011 0.200192,0.011 0.414483,3e-4 0.530979,-0.028 1.050057,-0.1231 1.646133,-0.303 0.389584,-0.1175 0.876964,-0.3076 1.263148,-0.4927 l 0.142094,-0.068 -0.031,-0.027 c -0.09,-0.078 -0.270489,-0.227 -0.323887,-0.2669 -0.445081,-0.3326 -0.904362,-0.5365 -1.337245,-0.5935 -0.170893,-0.023 -0.46858,-0.015 -0.609774,0.015 -0.115496,0.025 -0.25919,0.071 -0.328787,0.1062 -0.101396,0.051 -0.392284,0.1342 -0.596375,0.1702 -0.929162,0.1639 -1.94822,-0.024 -3.034575,-0.5596 -0.206692,-0.1019 -0.327687,-0.1672 -0.651374,-0.3513 -0.100396,-0.057 -0.262589,-0.1904 -0.404783,-0.3328 -0.166893,-0.1671 -0.271889,-0.2936 -0.424583,-0.5124 -0.121195,-0.1736 -0.167093,-0.2267 -0.22539,-0.2609 -0.023,-0.013 -0.042,-0.02 -0.059,-0.021 z m 9.1991214,0.2302 c -0.01,0 -0.013,0 -0.021,0.01 -0.016,0.01 -0.025,0.01 -0.036,0 -0.01,-0.01 -0.022,-0.01 -0.032,0 -0.016,0.01 -0.06,0.012 -0.133494,0.014 -0.013,3e-4 -0.03,0.01 -0.037,0.012 -0.01,0.01 -0.022,0.01 -0.033,0 -0.012,0 -0.026,10e-5 -0.035,0.01 -0.01,0.01 -0.029,0.016 -0.046,0.016 -0.017,0 -0.032,0 -0.034,0.011 0,0.01 -0.017,0.012 -0.033,0.014 -0.016,0 -0.033,0.011 -0.038,0.02 -0.01,0.01 -0.02,0.016 -0.034,0.016 -0.014,0 -0.029,0.01 -0.035,0.02 -0.01,0.011 -0.02,0.02 -0.031,0.02 -0.011,0 -0.024,0.01 -0.03,0.02 -0.01,0.011 -0.02,0.02 -0.031,0.02 -0.013,0 -0.022,0.01 -0.026,0.025 0,0.014 -0.017,0.032 -0.031,0.041 -0.013,0.01 -0.024,0.024 -0.024,0.034 0,0.01 -0.01,0.023 -0.02,0.03 -0.011,0.01 -0.02,0.022 -0.02,0.032 0,0.011 -0.01,0.025 -0.02,0.031 -0.011,0.01 -0.02,0.019 -0.02,0.029 0,0.01 -0.01,0.027 -0.02,0.037 -0.011,0.01 -0.02,0.027 -0.02,0.037 0,0.01 -0.01,0.028 -0.021,0.039 -0.011,0.011 -0.018,0.025 -0.015,0.031 0,0 0,0.021 -0.014,0.035 -0.011,0.015 -0.018,0.034 -0.015,0.045 0,0.013 -8e-4,0.022 -0.011,0.026 -0.011,0 -0.016,0.018 -0.016,0.041 0,0.019 0,0.034 -0.01,0.034 -0.01,0 -0.01,0.016 -0.01,0.035 0,0.019 -0.01,0.038 -0.011,0.042 -0.01,0 -0.01,0.019 -0.01,0.035 0,0.015 0,0.032 0,0.037 -0.01,0.01 -0.011,0.041 -0.013,0.08 0,0.039 -0.01,0.078 -0.011,0.088 0,0.01 0,0.024 0,0.031 0.01,0.01 0.01,0.042 0.01,0.079 0,0.036 0,0.072 0.01,0.079 0.01,0.01 0.01,0.023 0,0.036 0,0.014 4e-4,0.033 0.01,0.045 0.01,0.012 0.012,0.028 0.01,0.037 0,0.01 8e-4,0.025 0.01,0.037 0.01,0.012 0.013,0.03 0.01,0.039 0,0.01 0,0.026 0.012,0.035 0.01,0.01 0.015,0.023 0.012,0.031 0,0.01 0,0.026 0.014,0.042 0.01,0.016 0.016,0.033 0.013,0.038 0,0 0,0.02 0.017,0.033 0.012,0.013 0.02,0.029 0.016,0.034 0,0.01 0,0.02 0.014,0.031 0.011,0.011 0.021,0.03 0.021,0.041 0,0.011 0.01,0.026 0.02,0.033 0.011,0.01 0.02,0.023 0.02,0.035 0,0.012 0.01,0.027 0.02,0.034 0.011,0.01 0.02,0.02 0.02,0.031 0,0.011 0.011,0.027 0.025,0.036 0.014,0.01 0.023,0.021 0.02,0.026 0,0.01 0.01,0.02 0.02,0.033 0.014,0.013 0.026,0.029 0.026,0.035 0,0.01 0.011,0.019 0.025,0.028 0.014,0.01 0.025,0.023 0.025,0.031 0,0.01 0.011,0.021 0.025,0.031 0.014,0.01 0.025,0.023 0.025,0.032 0,0.01 0.01,0.017 0.021,0.02 0.012,0 0.025,0.017 0.031,0.031 0.01,0.014 0.019,0.027 0.03,0.031 0.012,0 0.025,0.016 0.03,0.029 0,0.013 0.016,0.024 0.025,0.024 0.01,0 0.02,0.012 0.026,0.026 0.01,0.014 0.019,0.029 0.03,0.031 0.011,0 0.027,0.016 0.036,0.03 0.01,0.013 0.022,0.024 0.03,0.024 0.01,0 0.021,0.011 0.03,0.025 0.01,0.014 0.023,0.025 0.031,0.025 0.01,0 0.021,0.012 0.031,0.026 0.01,0.014 0.021,0.023 0.026,0.02 0.01,0 0.016,0.01 0.025,0.019 0.01,0.014 0.027,0.028 0.041,0.031 0.014,0 0.025,0.013 0.025,0.02 0,0.01 0.014,0.019 0.03,0.025 0.017,0.01 0.03,0.015 0.03,0.021 0,0 0.01,0.013 0.023,0.017 0.013,0 0.03,0.016 0.038,0.027 0.01,0.011 0.024,0.021 0.033,0.022 0.01,0 0.027,0.012 0.038,0.025 0.011,0.012 0.029,0.022 0.038,0.022 0.01,0 0.023,0.01 0.03,0.02 0.01,0.011 0.021,0.02 0.031,0.02 0.01,0 0.026,0.01 0.035,0.02 0.01,0.011 0.024,0.02 0.033,0.02 0.01,0 0.024,0.01 0.036,0.02 0.011,0.011 0.028,0.02 0.037,0.02 0.01,0 0.022,0.01 0.028,0.015 0.01,0.01 0.022,0.017 0.036,0.02 0.014,0 0.029,0.012 0.034,0.02 0,0.01 0.019,0.015 0.031,0.015 0.012,0 0.031,0.01 0.041,0.021 0.01,0.012 0.024,0.019 0.032,0.016 0.01,0 0.022,0 0.031,0.014 0.01,0.011 0.024,0.02 0.032,0.02 0.01,0 0.026,0.01 0.04,0.02 0.014,0.011 0.03,0.017 0.035,0.014 0.01,0 0.019,0 0.03,0.015 0.011,0.012 0.031,0.021 0.044,0.021 0.013,0 0.026,0.01 0.03,0.015 0,0.01 0.018,0.015 0.035,0.015 0.017,0 0.032,0.01 0.035,0.015 0,0.01 0.017,0.015 0.03,0.015 0.013,0 0.03,0.01 0.037,0.015 0.01,0.01 0.023,0.015 0.035,0.015 0.013,0 0.029,0.01 0.036,0.015 0.01,0.01 0.023,0.015 0.035,0.015 0.013,0 0.029,0.01 0.036,0.015 0.01,0.01 0.025,0.015 0.041,0.015 0.015,0 0.034,0.01 0.041,0.015 0.01,0.01 0.023,0.015 0.035,0.015 0.013,0 0.029,0.01 0.036,0.015 0.01,0.01 0.024,0.015 0.038,0.015 0.014,0 0.032,0.01 0.04,0.016 0.01,0.01 0.024,0.013 0.033,0.01 0.01,0 0.024,0 0.031,0.01 0.01,0.01 0.025,0.015 0.041,0.015 0.016,0 0.03,0 0.032,0.012 0,0.01 0.02,0.013 0.039,0.014 0.019,10e-4 0.036,0.01 0.038,0.013 0,0.01 0.017,0.011 0.034,0.011 0.017,0 0.037,0.01 0.046,0.016 0.01,0.01 0.024,0.013 0.033,0.01 0.01,0 0.024,10e-4 0.031,0.01 0.01,0.01 0.025,0.016 0.04,0.016 0.015,10e-5 0.035,0.01 0.045,0.014 0.01,0.01 0.025,0.012 0.032,0.01 0.01,0 0.025,0 0.039,0.012 0.014,0.01 0.03,0.014 0.036,0.011 0.01,0 0.022,0 0.036,0.01 0.014,0.01 0.032,0.014 0.04,0.011 0.01,0 0.024,10e-4 0.036,0.01 0.012,0.01 0.028,0.013 0.036,0.01 0.01,0 0.022,10e-4 0.033,0.01 0.01,0.01 0.031,0.014 0.046,0.014 0.015,10e-5 0.03,0 0.034,0.011 0,0.01 0.019,0.01 0.035,0.01 0.016,0 0.036,0 0.045,0.011 0.01,0.01 0.023,0.011 0.03,0.01 0.01,0 0.024,0 0.036,0.01 0.012,0.01 0.031,0.013 0.041,0.01 0.011,0 0.029,0 0.041,0.01 0.012,0.01 0.028,0.012 0.037,0.01 0.01,0 0.025,7e-4 0.037,0.01 0.012,0.01 0.031,0.012 0.044,0.01 0.012,0 0.025,-7e-4 0.029,0.01 0,0.01 0.022,0.011 0.041,0.011 0.019,0 0.037,0 0.041,0.01 0,0.01 0.019,0.01 0.035,0.01 0.016,-10e-4 0.036,0 0.044,0.011 0.01,0.01 0.026,0.01 0.042,0.01 0.016,0 0.026,0 0.026,0.01 0,0.01 0.018,0.011 0.041,0.011 0.022,0 0.041,0.01 0.041,0.01 0,0.012 0.037,0.013 0.045,0 0.01,-0.012 -0.031,-0.046 -0.043,-0.038 -0.01,0 -0.019,-0.01 -0.031,-0.019 -0.012,-0.014 -0.028,-0.025 -0.037,-0.025 -0.01,0 -0.02,-0.01 -0.026,-0.02 -0.01,-0.011 -0.02,-0.02 -0.032,-0.02 -0.012,0 -0.023,-0.01 -0.026,-0.02 0,-0.011 -0.018,-0.024 -0.035,-0.03 -0.016,-0.01 -0.029,-0.017 -0.029,-0.026 0,-0.01 -0.012,-0.019 -0.026,-0.022 -0.014,0 -0.03,-0.017 -0.035,-0.031 -0.01,-0.014 -0.017,-0.024 -0.03,-0.024 -0.013,0 -0.024,-0.01 -0.03,-0.025 -0.01,-0.016 -0.018,-0.025 -0.03,-0.025 -0.013,0 -0.024,-0.01 -0.03,-0.025 -0.01,-0.014 -0.017,-0.025 -0.025,-0.025 -0.01,0 -0.02,-0.011 -0.025,-0.025 -0.01,-0.014 -0.016,-0.025 -0.024,-0.025 -0.01,0 -0.024,-0.014 -0.036,-0.031 -0.012,-0.017 -0.028,-0.031 -0.035,-0.031 -0.01,0 -0.016,-0.01 -0.019,-0.02 0,-0.011 -0.013,-0.023 -0.023,-0.027 -0.023,-0.01 -0.364185,-0.3496 -0.372885,-0.3721 0,-0.01 -0.013,-0.017 -0.022,-0.017 -0.01,0 -0.021,-0.012 -0.029,-0.028 -0.01,-0.015 -0.019,-0.027 -0.026,-0.025 -0.01,10e-4 -0.017,-0.01 -0.022,-0.023 -0.01,-0.014 -0.017,-0.028 -0.026,-0.032 -0.01,0 -0.02,-0.017 -0.025,-0.03 -0.01,-0.013 -0.021,-0.029 -0.035,-0.034 -0.014,0 -0.026,-0.016 -0.026,-0.025 0,-0.01 -0.01,-0.02 -0.021,-0.026 -0.011,-0.01 -0.025,-0.022 -0.03,-0.036 -0.01,-0.014 -0.016,-0.025 -0.024,-0.025 -0.01,0 -0.019,-0.014 -0.025,-0.03 -0.01,-0.017 -0.018,-0.031 -0.027,-0.031 -0.01,0 -0.02,-0.011 -0.025,-0.025 -0.01,-0.014 -0.019,-0.03 -0.03,-0.036 -0.011,-0.01 -0.021,-0.018 -0.021,-0.026 0,-0.01 -0.011,-0.022 -0.025,-0.031 -0.014,-0.01 -0.025,-0.022 -0.025,-0.029 0,-0.01 -0.012,-0.02 -0.025,-0.03 -0.014,-0.01 -0.025,-0.023 -0.025,-0.03 0,-0.01 -0.011,-0.021 -0.025,-0.031 -0.014,-0.01 -0.025,-0.023 -0.025,-0.03 0,-0.01 -0.012,-0.021 -0.026,-0.031 -0.014,-0.01 -0.023,-0.021 -0.02,-0.026 0,-0.01 -0.01,-0.017 -0.019,-0.026 -0.014,-0.01 -0.027,-0.027 -0.031,-0.041 0,-0.014 -0.013,-0.025 -0.02,-0.025 -0.01,0 -0.019,-0.013 -0.024,-0.03 -0.01,-0.016 -0.02,-0.035 -0.032,-0.041 -0.012,-0.01 -0.019,-0.016 -0.015,-0.021 0,0 -0.01,-0.02 -0.019,-0.033 -0.014,-0.013 -0.028,-0.033 -0.032,-0.046 0,-0.013 -0.014,-0.023 -0.022,-0.023 -0.01,0 -0.014,-0.01 -0.014,-0.018 0,-0.01 -0.012,-0.028 -0.025,-0.04 -0.014,-0.012 -0.025,-0.028 -0.025,-0.036 0,-0.01 -0.01,-0.022 -0.02,-0.032 -0.011,-0.01 -0.02,-0.025 -0.02,-0.032 0,-0.01 -0.01,-0.022 -0.02,-0.031 -0.011,-0.01 -0.02,-0.025 -0.02,-0.035 0,-0.01 -0.01,-0.024 -0.02,-0.031 -0.011,-0.01 -0.02,-0.021 -0.02,-0.031 0,-0.01 -0.01,-0.026 -0.02,-0.035 -0.011,-0.01 -0.02,-0.025 -0.02,-0.035 0,-0.01 -0.01,-0.027 -0.021,-0.038 -0.012,-0.011 -0.018,-0.025 -0.015,-0.03 0,-0.01 0,-0.02 -0.014,-0.031 -0.011,-0.011 -0.021,-0.029 -0.021,-0.04 0,-0.01 -0.01,-0.025 -0.015,-0.032 -0.01,-0.01 -0.015,-0.023 -0.015,-0.036 0,-0.013 -0.01,-0.03 -0.015,-0.039 -0.01,-0.01 -0.016,-0.026 -0.016,-0.039 -2e-4,-0.013 -0.01,-0.032 -0.014,-0.042 -0.01,-0.01 -0.012,-0.026 -0.01,-0.036 0,-0.01 0,-0.024 -0.011,-0.031 -0.01,-0.01 -0.014,-0.023 -0.01,-0.041 0,-0.016 0,-0.031 0,-0.035 -0.016,-0.01 0,-0.1782 0.014,-0.1966 0.01,-0.01 0.013,-0.021 0.01,-0.029 0,-0.01 0.01,-0.02 0.02,-0.029 0.014,-0.01 0.025,-0.023 0.025,-0.032 0,-0.01 0.013,-0.02 0.03,-0.026 0.016,-0.01 0.032,-0.017 0.035,-0.025 0,-0.01 0.016,-0.015 0.029,-0.015 0.013,-2e-4 0.032,-0.01 0.042,-0.015 0.01,-0.01 0.025,-0.012 0.033,-0.01 0.01,0 0.021,0 0.029,-0.01 0.01,-0.01 0.027,-0.01 0.045,-0.01 0.016,0 0.032,0 0.035,0 0,-0.01 0.185692,-0.01 0.199491,0 0,0 0.021,0 0.041,0.01 0.02,0 0.054,0.01 0.076,0.01 0.022,0 0.054,0.01 0.071,0.01 0.017,0 0.036,0.01 0.043,0.01 0.01,0 0.022,0 0.033,0 0.011,0 0.029,2e-4 0.041,0.01 0.012,0.01 0.03,0.012 0.041,0.01 0.011,0 0.026,5e-4 0.035,0.01 0.01,0.01 0.024,0.01 0.035,0.01 0.011,0 0.029,0 0.041,0.01 0.022,0.015 0.046,0.01 0.035,-0.01 0,-0.01 -0.017,-0.014 -0.031,-0.019 -0.013,0 -0.024,-0.016 -0.024,-0.025 0,-0.01 -0.011,-0.018 -0.025,-0.021 -0.014,0 -0.032,-0.017 -0.041,-0.031 -0.01,-0.013 -0.022,-0.024 -0.03,-0.024 -0.01,0 -0.021,-0.011 -0.031,-0.025 -0.01,-0.014 -0.024,-0.025 -0.034,-0.025 -0.01,0 -0.023,-0.01 -0.03,-0.02 -0.01,-0.011 -0.022,-0.02 -0.033,-0.02 -0.011,0 -0.025,-0.01 -0.031,-0.02 -0.01,-0.011 -0.019,-0.02 -0.03,-0.02 -0.01,0 -0.025,-0.01 -0.033,-0.02 -0.01,-0.011 -0.025,-0.023 -0.039,-0.025 -0.014,0 -0.029,-0.012 -0.034,-0.02 0,-0.01 -0.017,-0.015 -0.027,-0.015 -0.01,0 -0.026,-0.01 -0.037,-0.02 -0.01,-0.011 -0.027,-0.02 -0.037,-0.02 -0.01,0 -0.028,-0.01 -0.039,-0.021 -0.011,-0.011 -0.025,-0.018 -0.031,-0.014 -0.01,0 -0.019,0 -0.03,-0.015 -0.011,-0.012 -0.029,-0.021 -0.041,-0.021 -0.011,0 -0.027,-0.01 -0.036,-0.015 -0.01,-0.01 -0.024,-0.015 -0.035,-0.015 -0.011,0 -0.027,-0.01 -0.036,-0.015 -0.01,-0.01 -0.025,-0.015 -0.037,-0.016 -0.012,-2e-4 -0.031,-0.01 -0.041,-0.015 -0.01,-0.01 -0.025,-0.012 -0.033,-0.01 -0.01,0 -0.023,0 -0.034,-0.012 -0.011,-0.01 -0.026,-0.015 -0.034,-0.012 -0.01,0 -0.023,-7e-4 -0.033,-0.01 -0.01,-0.01 -0.031,-0.014 -0.046,-0.014 -0.015,-2e-4 -0.03,0 -0.034,-0.011 0,-0.01 -0.019,-0.01 -0.034,-0.01 -0.015,0 -0.037,0 -0.049,-0.01 -0.012,-0.01 -0.029,-0.01 -0.038,-0.01 -0.01,0 -0.023,7e-4 -0.031,-0.01 -0.01,-0.01 -0.027,-0.01 -0.045,-0.01 -0.016,0 -0.032,0 -0.035,0 0,0 -0.055,-0.01 -0.115195,-0.01 -0.063,10e-4 -0.115295,0 -0.123095,-0.01 -0.01,-0.01 -0.019,-0.01 -0.033,0 -0.015,0.01 -0.024,0.01 -0.04,-5e-4 -0.01,0 -0.014,-0.01 -0.02,-0.01 z m 2.309405,0.1942 c -0.035,-10e-4 -0.071,0 -0.107196,0.019 -0.034,0.014 -0.063,0.032 -0.066,0.042 0,0.01 -0.016,0.024 -0.029,0.031 -0.039,0.022 -0.121095,0.1235 -0.122495,0.152 -2e-4,0 -0.011,0.015 -0.023,0.023 -0.013,0.01 -0.023,0.024 -0.023,0.034 0,0.01 -0.01,0.025 -0.02,0.035 -0.011,0.01 -0.02,0.025 -0.02,0.035 0,0.01 -0.01,0.024 -0.02,0.031 -0.011,0.01 -0.02,0.023 -0.02,0.036 0,0.013 -0.01,0.029 -0.021,0.036 -0.012,0.01 -0.019,0.019 -0.015,0.028 0,0.01 0,0.023 -0.014,0.032 -0.011,0.01 -0.02,0.027 -0.02,0.039 0,0.018 -0.01,0.022 -0.031,0.02 -0.017,-10e-4 -0.036,-0.01 -0.043,-0.014 -0.01,-0.01 -0.027,-0.012 -0.045,-0.012 -0.018,0 -0.033,-0.01 -0.033,-0.01 0,-0.01 -0.016,-0.01 -0.035,-0.01 -0.019,0 -0.038,0 -0.041,-0.01 0,-0.01 -0.019,-0.01 -0.034,-0.01 -0.015,0 -0.037,0 -0.049,-0.01 -0.012,-0.01 -0.028,-0.01 -0.036,-0.01 -0.01,0 -0.026,10e-4 -0.04,0 -0.018,-0.01 -0.029,-0.01 -0.037,10e-4 -0.01,0.01 -0.018,0.01 -0.036,0 -0.014,-0.01 -0.03,-0.01 -0.038,-0.01 -0.012,0.01 -0.05,0.012 -0.119095,0.014 -0.013,3e-4 -0.03,0.01 -0.038,0.012 -0.01,0.01 -0.026,0.012 -0.041,0.014 -0.015,0 -0.031,0.01 -0.036,0.019 -0.01,0.01 -0.018,0.016 -0.029,0.016 -0.012,0 -0.024,0.01 -0.03,0.025 -0.01,0.014 -0.016,0.025 -0.024,0.025 -0.017,0 -0.026,0.011 -0.031,0.042 0,0.012 -0.012,0.027 -0.021,0.034 -0.01,0.01 -0.015,0.019 -0.011,0.029 0,0.01 -2e-4,0.029 -0.01,0.044 -0.01,0.016 -0.011,0.032 -0.01,0.037 0.01,0 0,0.019 0,0.034 -0.01,0.019 -0.01,0.03 0,0.045 0.01,0.014 0.01,0.024 0,0.033 -0.01,0.01 -0.01,0.021 0,0.039 0.01,0.014 0.012,0.037 0.01,0.051 0,0.014 0,0.03 0.01,0.037 0.01,0.01 0.013,0.021 0.01,0.033 0,0.011 0,0.028 0.01,0.038 0.01,0.01 0.015,0.028 0.016,0.042 7e-4,0.014 0.01,0.028 0.013,0.032 0.01,0 0.013,0.019 0.014,0.034 0,0.015 0.011,0.033 0.021,0.04 0.01,0.01 0.015,0.018 0.011,0.025 0,0.01 0,0.021 0.014,0.032 0.011,0.011 0.021,0.03 0.021,0.041 0,0.011 0.01,0.028 0.02,0.038 0.011,0.01 0.02,0.025 0.02,0.034 0,0.01 0.01,0.025 0.02,0.035 0.011,0.01 0.02,0.027 0.02,0.037 0,0.01 0.01,0.024 0.021,0.03 0.012,0.01 0.019,0.017 0.016,0.025 0,0.01 0.01,0.024 0.018,0.037 0.013,0.013 0.027,0.034 0.031,0.046 0,0.013 0.012,0.023 0.017,0.023 0.01,0 0.015,0.014 0.021,0.03 0.01,0.017 0.016,0.03 0.024,0.03 0.01,0 0.018,0.014 0.024,0.031 0.01,0.017 0.018,0.033 0.026,0.037 0.01,0 0.016,0.014 0.016,0.025 0,0.01 0.011,0.027 0.025,0.036 0.014,0.01 0.025,0.023 0.025,0.03 0,0.01 0.011,0.021 0.024,0.03 0.013,0.01 0.027,0.027 0.03,0.04 0,0.013 0.016,0.026 0.028,0.029 0.012,0 0.019,0.01 0.016,0.013 -0.01,0.01 0.011,0.045 0.026,0.045 0.01,0 0.018,0.014 0.024,0.031 0.01,0.017 0.018,0.03 0.026,0.03 0.01,0 0.018,0.011 0.021,0.025 0,0.014 0.015,0.028 0.026,0.031 0.011,0 0.02,0.013 0.02,0.02 0,0.01 0.014,0.024 0.03,0.035 0.017,0.012 0.029,0.027 0.028,0.033 0,0.01 0.01,0.018 0.026,0.025 0.015,0.01 0.028,0.02 0.028,0.028 0,0.01 0.011,0.022 0.025,0.031 0.014,0.01 0.025,0.023 0.025,0.031 0,0.01 0.011,0.019 0.025,0.024 0.014,0.01 0.025,0.016 0.025,0.025 0,0.01 0.011,0.023 0.025,0.032 0.014,0.01 0.028,0.025 0.031,0.035 0,0.01 0.015,0.022 0.026,0.025 0.011,0 0.024,0.018 0.03,0.031 0.01,0.014 0.016,0.024 0.024,0.024 0.01,0 0.021,0.013 0.029,0.028 0.01,0.015 0.019,0.027 0.026,0.025 0.01,0 0.017,0.01 0.022,0.023 0.01,0.014 0.021,0.03 0.035,0.035 0.014,0 0.026,0.017 0.026,0.026 0,0.01 0.01,0.019 0.021,0.022 0.012,0 0.025,0.017 0.031,0.03 0.01,0.014 0.019,0.028 0.03,0.031 0.012,0 0.025,0.016 0.03,0.03 0.01,0.013 0.016,0.024 0.024,0.024 0.01,0 0.022,0.011 0.031,0.025 0.01,0.014 0.024,0.025 0.032,0.025 0.01,0 0.02,0.012 0.025,0.026 0.01,0.014 0.021,0.03 0.035,0.035 0.014,0.01 0.024,0.015 0.023,0.022 0,0.01 0.01,0.018 0.021,0.024 0.013,0.01 0.03,0.022 0.039,0.034 0.01,0.012 0.022,0.022 0.03,0.022 0.01,0 0.019,0.011 0.024,0.025 0.01,0.014 0.016,0.025 0.023,0.025 0.01,0 0.024,0.014 0.036,0.031 0.013,0.017 0.027,0.028 0.032,0.025 0.01,0 0.014,0.01 0.02,0.021 0.01,0.015 0.019,0.029 0.03,0.032 0.011,0 0.027,0.016 0.036,0.03 0.01,0.013 0.023,0.024 0.031,0.024 0.01,0 0.02,0.011 0.025,0.025 0.01,0.015 0.018,0.025 0.029,0.025 0.011,0 0.022,0.01 0.025,0.021 0,0.012 0.015,0.024 0.026,0.026 0.011,0 0.028,0.016 0.036,0.03 0.01,0.013 0.023,0.024 0.031,0.024 0.01,0 0.02,0.01 0.026,0.021 0.01,0.011 0.022,0.025 0.036,0.03 0.014,0.01 0.025,0.016 0.025,0.025 0,0.01 0.012,0.018 0.026,0.022 0.014,0 0.03,0.017 0.035,0.031 l -4e-4,0 c 0.01,0.027 0.032,0.031 0.05,0.01 0.01,-0.01 0.01,-0.021 0,-0.033 -0.01,-0.01 -0.01,-0.049 -0.01,-0.087 0,-0.038 -0.001,-0.071 -0.01,-0.073 0,0 -0.01,-0.039 0,-0.081 0,-0.042 -2e-4,-0.078 0,-0.081 0,0 -0.01,-0.036 -0.01,-0.074 0,-0.038 0,-0.076 -0.01,-0.085 -0.01,-0.01 0,-0.021 0,-0.028 0.01,-0.01 0.01,-0.018 -5e-4,-0.038 -0.01,-0.014 -0.01,-0.038 -0.01,-0.051 0,-0.014 7e-4,-0.032 -0.01,-0.04 -0.01,-0.012 -0.01,-0.018 -4e-4,-0.03 0.01,-0.011 0.01,-0.02 0,-0.035 -0.01,-0.011 -0.01,-0.034 0,-0.05 0,-0.016 0,-0.033 0,-0.036 -0.01,0 -0.01,-0.038 -0.01,-0.077 0,-0.039 0,-0.074 -0.01,-0.078 -0.01,0 -0.01,-0.019 0,-0.035 0,-0.016 0,-0.038 0,-0.048 -0.01,-0.013 -0.01,-0.023 3e-4,-0.03 0.01,-0.01 0.01,-0.017 -7e-4,-0.032 -0.01,-0.012 -0.01,-0.033 0,-0.047 0,-0.014 0,-0.032 -0.01,-0.04 -0.01,-0.01 -0.01,-0.025 -0.01,-0.039 0,-0.014 0,-0.035 0,-0.046 -0.01,-0.013 -0.01,-0.023 0,-0.027 0.01,0 0.01,-0.015 4e-4,-0.031 -0.01,-0.014 -0.01,-0.038 0,-0.054 0,-0.017 0.001,-0.032 -0.01,-0.036 -0.01,0 -0.01,-0.02 -0.01,-0.041 0,-0.019 0,-0.036 0,-0.04 -0.01,0 -0.01,-0.022 0,-0.042 0,-0.021 0,-0.035 0,-0.035 -0.01,0 -0.01,-0.017 -0.01,-0.038 10e-5,-0.021 0,-0.056 0,-0.079 0,-0.022 -0.01,-0.072 -0.012,-0.1103 0,-0.038 -0.011,-0.078 -0.017,-0.088 -0.01,-0.012 -0.01,-0.021 4e-4,-0.025 0.01,0 0,-0.019 0,-0.04 -0.01,-0.019 -0.01,-0.038 -0.01,-0.043 0,0 0,-0.02 0,-0.034 -0.01,-0.014 -0.01,-0.038 -0.01,-0.052 0,-0.015 0,-0.03 -0.01,-0.034 -0.01,0 -0.01,-0.018 0,-0.032 0,-0.014 10e-4,-0.031 -0.01,-0.039 -0.01,-0.01 -0.01,-0.026 -0.01,-0.041 0,-0.016 0,-0.033 -0.01,-0.042 -0.01,-0.01 -0.01,-0.022 -0.01,-0.031 0,-0.01 10e-5,-0.028 -0.01,-0.043 -0.01,-0.015 -0.011,-0.035 -0.01,-0.045 0,-0.01 0,-0.025 -0.01,-0.033 -0.01,-0.01 -0.01,-0.024 -0.01,-0.035 0,-0.012 2e-4,-0.03 -0.01,-0.042 -0.01,-0.012 -0.013,-0.03 -0.01,-0.041 0,-0.011 -3e-4,-0.026 -0.01,-0.034 -0.01,-0.01 -0.01,-0.023 -0.01,-0.034 0,-0.01 -6e-4,-0.028 -0.01,-0.039 -0.01,-0.011 -0.012,-0.031 -0.01,-0.046 0,-0.015 3e-4,-0.03 -0.01,-0.034 -0.01,0 -0.011,-0.023 -0.011,-0.042 0,-0.019 -0.01,-0.035 -0.011,-0.035 -0.01,0 -0.01,-0.01 -0.01,-0.025 0,-0.014 0,-0.033 -0.01,-0.043 -0.01,-0.01 -0.014,-0.03 -0.014,-0.045 -2e-4,-0.015 0,-0.03 -0.01,-0.034 -0.01,0 -0.01,-0.019 -0.01,-0.035 0,-0.016 -0.01,-0.034 -0.015,-0.041 -0.01,-0.01 -0.013,-0.02 -0.01,-0.03 0,-0.01 0,-0.026 -0.01,-0.037 -0.01,-0.011 -0.015,-0.03 -0.015,-0.042 -2e-4,-0.012 -0.01,-0.029 -0.016,-0.037 -0.01,-0.01 -0.015,-0.024 -0.015,-0.035 0,-0.011 -0.01,-0.027 -0.015,-0.035 -0.01,-0.01 -0.015,-0.018 -0.015,-0.022 0,-0.014 -0.111895,-0.1741 -0.138894,-0.1993 -0.046,-0.043 -0.101596,-0.066 -0.160093,-0.068 z m 1.556635,2.225 c 0,-10e-5 -0.038,0.077 -0.079,0.1785 -0.214391,0.5361 -0.436882,0.9528 -0.606375,1.1359 -0.036,0.038 -0.065,0.072 -0.065,0.075 0,0 0.021,0.017 0.046,0.032 0.097,0.057 0.190593,0.2201 0.237191,0.4131 0.014,0.06 0.029,0.1034 0.033,0.097 0.05,-0.091 0.189593,-0.6112 0.273489,-1.0219 0.053,-0.2589 0.161693,-0.8729 0.161093,-0.9083 0,-7e-4 -2e-4,0 -5e-4,0 z m -4.12243,0.084 c -0.011,0 -0.024,0 -0.053,0.024 -0.123695,0.085 -0.268489,0.1268 -0.410883,0.1186 -0.047,0 -0.095,-0.01 -0.104895,-0.013 -0.015,-0.01 -0.011,0.01 0.019,0.068 0.23859,0.4747 0.49098,0.7454 0.925662,0.9924 0.126694,0.072 0.437282,0.2217 0.71937,0.3466 0.455181,0.2015 0.73467,0.3537 0.863165,0.4702 0.103995,0.094 0.141494,0.2256 0.094,0.3297 -0.011,0.024 -0.02,0.048 -0.02,0.053 0,0.012 0.143895,-0.073 0.309388,-0.1819 0.364685,-0.2398 0.688771,-0.5264 0.874464,-0.7731 0.04,-0.053 0.072,-0.097 0.071,-0.098 -0.001,0 -0.061,-0.014 -0.133495,-0.029 -0.216091,-0.044 -0.71427,-0.1718 -0.96386,-0.247 -0.858665,-0.2586 -1.612234,-0.6126 -2.074915,-0.9745 -0.047,-0.037 -0.094,-0.073 -0.103895,-0.08 0,0 -0.01,-0.01 -0.011,-0.01 z m -0.8201654,0.046 -0.139094,0.066 c -0.332087,0.1579 -0.688972,0.321 -0.839366,0.3837 -0.740169,0.3081 -1.376343,0.4662 -2.126212,0.5283 -0.25099,0.021 -0.780868,0.021 -1.055957,4e-4 -0.269789,-0.02 -0.674572,-0.1022 -0.989059,-0.2003 -0.260389,-0.081 -0.456581,-0.1638 -0.660373,-0.2778 -0.341586,-0.191 -0.429382,-0.1506 -0.25409,0.117 0.134595,0.2054 0.391484,0.4353 0.684872,0.6132 0.478981,0.2904 1.108855,0.4836 1.853424,0.5683 0.134594,0.015 0.537478,0.045 0.674972,0.049 0.110696,0 0.364685,-0.01 0.48198,-0.022 0.665473,-0.081 1.316746,-0.3297 1.784527,-0.6824 0.202792,-0.1529 0.407283,-0.3938 0.497979,-0.5867 0.073,-0.1559 0.113496,-0.3754 0.093,-0.5098 l -0.01,-0.047 z m 0.154794,0.1682 -0.01,0.049 c -0.05,0.3831 -0.219691,0.7012 -0.535678,1.0043 -0.207491,0.1991 -0.433882,0.3498 -0.783868,0.5218 -0.333986,0.1642 -0.423782,0.2372 -0.337686,0.2745 0.034,0.015 0.218691,0 0.352886,-0.021 0.23629,-0.043 0.510179,-0.1223 0.72217,-0.2086 0.465281,-0.1893 0.7561684,-0.4632 0.8411644,-0.792 0.067,-0.2594 -0.027,-0.6102 -0.2118904,-0.7895 l -0.041,-0.039 z m 3.8001424,0.9501 c -0.01,0 -0.016,0.01 -0.011,0.017 0,0.01 0.01,0.01 0.015,0.01 0.011,0 0.013,-0.014 0,-0.023 0,0 -0.01,0 -0.01,0 z m 0.200992,0.2876 c -0.01,0 -0.013,0.024 -0.019,0.064 -0.011,0.068 -0.073,0.2668 -0.113296,0.3653 -0.091,0.2207 -0.210491,0.4292 -0.362885,0.634 -0.673872,0.9062 -1.871723,1.5899 -3.279565,1.8718 -0.7554684,0.1513 -1.4908374,0.185 -1.9885174,0.091 -0.092,-0.017 -0.280288,-0.073 -0.351785,-0.1047 -0.014,-0.01 -0.013,0 0.01,0.059 0.089,0.2443 0.285988,0.4947 0.501679,0.6372 0.282089,0.1864 0.644374,0.2947 1.080256,0.3232 0.273089,0.018 0.568677,0 0.8225654,-0.061 1.154553,-0.2597 1.981519,-0.7086 2.750687,-1.4931 0.570676,-0.5822 0.890463,-1.1759 0.97456,-1.8097 0.023,-0.1745 0.018,-0.4157 -0.012,-0.5581 0,-0.014 -0.01,-0.02 -0.01,-0.019 z m 0.142594,0.056 3e-4,0.2499 c 2e-4,0.2639 -0.01,0.3507 -0.052,0.5386 -0.095,0.4084 -0.290888,0.8062 -0.608275,1.2349 -0.171693,0.2318 -0.465281,0.564 -0.659073,0.7456 -0.584676,0.548 -1.664431,1.0743 -2.643891,1.2888 -0.3483854,0.076 -0.6410734,0.1058 -0.9762594,0.098 -0.268489,-0.01 -0.257889,-0.015 -0.102996,0.088 0.315388,0.2101 0.666073,0.3224 1.1400534,0.3648 l 2e-4,0 c 0.088,0.01 0.422082,0 0.547777,-0.02 0.505779,-0.062 1.148453,-0.2882 1.643032,-0.5775 0.941462,-0.5508 1.610034,-1.501 1.821725,-2.5893 0.113996,-0.5863 0.077,-1.1759 -0.087,-1.3911 l -0.024,-0.032 z m -0.330586,0.16 c -0.014,0 -0.061,0.047 -0.157694,0.1417 -0.657373,0.6493 -1.530637,1.1785 -2.450799,1.4856 -0.224691,0.075 -0.422083,0.1283 -0.72417,0.1954 -0.6269734,0.1394 -1.0903544,0.2079 -1.4233414,0.2106 -0.096,8e-4 -0.175092,0 -0.175092,0.01 0,0 0.012,0.025 0.027,0.051 0.170093,0.292 0.470281,0.4798 0.826566,0.5171 0.121395,0.013 0.162194,0.013 0.309488,0 0.8724634,-0.068 1.9552184,-0.542 2.7594854,-1.2087 0.143894,-0.1192 0.452181,-0.4305 0.556977,-0.5624 0.181093,-0.2277 0.316987,-0.4574 0.406783,-0.6873 0.039,-0.099 0.059,-0.1488 0.045,-0.1498 z"
       id="path3466"
       inkscape:connector-curvature="0" />
  </g>
</svg>
