<svg xmlns="http://www.w3.org/2000/svg" viewBox="0 0 16 16">
 <path d="m11.578 0.00005613c-0.052 0-0.1088 0.1962-0.16679 0.5792-0.054 0.3552-0.065 0.4954-0.065 0.8193-0.0003 0.5054 0.052 0.8898 0.18839 1.3904 0.27419 1.0044 0.90426 2.1061 1.8547 3.2426 0.31919 0.3817 0.41788 0.4896 0.51058 0.558 0.1209 0.089 0.34119 0.3104 0.42018 0.4219 0.25129 0.3549 0.37738 0.7475 0.43138 1.3442 0.015 0.1619 0.018 0.7918 0.01 1.1159 0 0.117-0.01 0.2105 0 0.2078 0.01-0.01 0.1065-0.5251 0.14699-0.7604 0.041-0.2385 0.077-0.4994 0.1042-0.751 0.027-0.2493 0.032-0.7785 0.011-0.9727-0.093-0.8303-0.40908-1.4842-1.0969-2.2699-0.15189-0.1735-0.63957-0.6584-0.88416-0.8791-0.23519-0.2122-0.29929-0.2832-0.42458-0.4708-0.40938-0.6131-0.75447-1.7814-0.89026-3.0142-0.042-0.3771-0.09-0.5642-0.14209-0.5612zm-0.752 1.6944c0 0.0001-0.01 0.0007-0.01 0-0.089 0.034-0.085 0.5376 0.01 1.2908 0.049 0.3883 0.098 0.5764 0.23259 0.888 0.1198 0.2777 0.38668 0.7016 0.61337 0.9743 0.18329 0.2205 0.20779 0.2451 0.27989 0.2814 0.33489 0.1687 0.79657 0.6158 1.205 1.1668 0.058 0.078 0.116 0.1581 0.13 0.1787 0.028 0.042 0.032 0.043 0.1167 0.022 0.076-0.018 0.18059-0.019 0.23099-0.0006l0.038 0.014-0.033-0.044c-0.1031-0.1364-0.68247-0.868-0.80337-1.0145-0.078-0.095-0.25709-0.305-0.39718-0.4668-0.46288-0.535-0.56428-0.6735-0.78707-1.0756-0.28609-0.5163-0.55608-1.2431-0.69827-1.88-0.054-0.2404-0.091-0.338-0.1293-0.3361zm-9.6923 1.0843c-0.057 0-0.1051 0.1902-0.14699 0.5836-0.052 0.4857-0.015 0.949 0.11739 1.492 0.1073 0.4391 0.26539 0.8432 0.41578 1.0628 0.024 0.035 0.06 0.096 0.08 0.1354 0.14409 0.2861 0.37078 0.6238 0.61977 0.9229 0.1338 0.1609 0.50578 0.5313 0.67137 0.6688 0.83896 0.6965 1.7511 1.0858 2.8214 1.204 0.16239 0.018 0.65127 0.024 0.83856 0.011 0.26969-0.019 0.59218-0.064 0.74987-0.1029 0.16599-0.041 0.27409-0.054 0.47698-0.054 0.21589-0.0003 0.30989 0.012 0.51378 0.065 0.27069 0.071 0.51518 0.185 0.79537 0.3708 0.17299 0.1149 0.31179 0.2277 0.49288 0.4012 0.18369 0.1758 0.24109 0.2252 0.33359 0.2869 0.075 0.05 0.15559 0.085 0.22909 0.098 0.087 0.016 0.19939-0.01 0.31749-0.068l0.07-0.035-0.1241-0.1238c-0.52368-0.5216-0.70587-0.9237-0.63407-1.3996 0.05-0.3294 0.16999-0.6028 0.34829-0.7913l0.07-0.074-0.018-0.053c-0.026-0.077-0.083-0.1808-0.14239-0.2594-0.32429-0.4314-1.14-0.6544-2.1252-0.5808-0.44468 0.033-0.65497 0.08-1.4513 0.3196-0.44258 0.1334-0.70827 0.2022-0.90686 0.2347-0.14269 0.023-0.19309 0.022-0.43188-0.012-1.9178-0.2748-3.2958-1.643-3.7759-3.7491-0.097-0.4238-0.14449-0.5531-0.20459-0.5531zm9.5224 0.6594c-0.022 0-0.038 0.055-0.053 0.1507-0.046 0.2833 0.086 0.8399 0.26049 1.0938 0.043 0.063 0.1207 0.1354 0.17409 0.1625 0.03 0.016 0.094 0.032 0.17759 0.045 0.14689 0.023 0.32129 0.061 0.41898 0.09 0.088 0.026 0.087 0.026 0.054-0.013-0.016-0.019-0.104-0.1225-0.19619-0.2309-0.30699-0.3608-0.44648-0.5391-0.56828-0.7262-0.06-0.092-0.078-0.1313-0.1227-0.2664-0.07-0.2131-0.1135-0.3109-0.14479-0.3059zm0.23459 1.5456c-0.038 0.0007-0.077 0-0.1149 0.01-0.55338 0.051-0.94496 0.2243-1.1254 0.4984-0.04 0.061-0.087 0.1664-0.087 0.1963 0 0.01 0.031-0.017 0.069-0.054 0.35309-0.3454 0.98756-0.1562 1.6212 0.4834 0.32149 0.3245 0.66167 0.5049 1.0403 0.5518 0.22549 0.028 0.51988-0.021 0.73237-0.1207 0.12709-0.06 0.12309-0.048 0.049-0.1445-0.47588-0.618-0.87796-0.9774-1.3544-1.2109-0.29179-0.1428-0.56158-0.21-0.82967-0.2056zm-2.9708 0.5011c-0.18509 0-0.37188 0-0.46718 0.012-0.59828 0.051-1.142 0.1688-1.7184 0.3714-0.18169 0.064-0.39348 0.147-0.40778 0.1601-0.01 0.01 0 0.01 0 0 0.037-0.012 0.45088-0.1003 0.64957-0.1378 0.61317-0.1156 1.1147-0.1658 1.6594-0.1662 0.42798-0.0004 0.72287 0.025 1.0859 0.095 0.22669 0.043 0.53458 0.1303 0.71547 0.2018v0.0001c0.042 0.017 0.082 0.03 0.089 0.031 0.01 0.0003-0.02-0.039-0.059-0.088s-0.08-0.1059-0.091-0.1268l-0.02-0.038 0.033-0.0001c0.018 0 0.048-0.01 0.066-0.02 0.033-0.02 0.071-0.068 0.061-0.078-0.013-0.013-0.36058-0.095-0.55558-0.1305-0.15729-0.029-0.39048-0.06-0.58868-0.078-0.088-0.01-0.27129-0.012-0.45628-0.012zm2.1452 0.075c-0.063 0-0.12679 0.01-0.17509 0.034-0.068 0.035-0.1337 0.095-0.18939 0.1735-0.038 0.054-0.086 0.1381-0.086 0.1512 0 0.011 0.065 0.05 0.1144 0.068 0.04 0.015 0.07 0.019 0.1217 0.015 0.09-0.01 0.15519-0.041 0.24099-0.1284 0.079-0.08 0.17799-0.2393 0.16149-0.2592-0.01-0.01-0.041-0.023-0.077-0.035-0.035-0.011-0.073-0.018-0.1107-0.019zm-0.23919 0.1721c0.025 0 0.037 0.01 0.053 0.033 0.024 0.038 0.019 0.075-0.012 0.1015-0.029 0.024-0.056 0.022-0.085-0.01-0.05-0.05-0.024-0.1273 0.045-0.1273zm0.66387 0.031c-0.039 0.001-0.078 0.01-0.1157 0.019-0.081 0.025-0.14599 0.069-0.23759 0.1602-0.1214 0.1207-0.20879 0.1511-0.40648 0.1412-0.066 0-0.13609-0.01-0.15499-0.013l-0.034-0.01v0.1155c0.01 0.1401 0.04 0.2495 0.115 0.3704 0.094 0.1505 0.21099 0.2571 0.44618 0.4059 0.14859 0.094 0.24309 0.1761 0.25439 0.2211 0.01 0.039 0 0.072-0.031 0.087-0.014 0.01-0.023 0.017-0.02 0.022 0.01 0.012 0.079 0.0001 0.15939-0.027 0.19089-0.065 0.46588-0.2836 0.59268-0.4717 0.087-0.129 0.12739-0.2474 0.12739-0.3747 0.0002-0.1549-0.036-0.2349-0.17099-0.3761-0.17679-0.185-0.35908-0.2785-0.52928-0.2735zm0.82577 0.5474s-0.01 0.041-0.01 0.09c-0.01 0.1038-0.049 0.2431-0.1044 0.3443-0.1369 0.2498-0.37988 0.4409-0.71947 0.5659-0.1063 0.039-0.1056 0.043 0 0.015 0.1301-0.033 0.24179-0.044 0.43308-0.044 0.26269-0.0001 0.46038 0.033 0.72057 0.1217 0.25789 0.088 0.59468 0.2756 0.81197 0.4533 0.045 0.036 0.084 0.067 0.088 0.067 0 0.0003 0.01-0.021 0.013-0.048 0.022-0.1543 0.1128-0.4576 0.19189-0.6394 0.098-0.226 0.22809-0.4249 0.37028-0.567 0.047-0.047 0.083-0.085 0.08-0.085 0 0-0.048 0.02-0.1017 0.045-0.54408 0.2525-1.1235 0.1736-1.649-0.2246-0.069-0.052-0.1261-0.095-0.1279-0.095zm2.2541 0.2892c-0.05 0-0.099 0.0001-0.099 0.01 0 0.01-0.011 0.01-0.025 0-0.014 0-0.033 0-0.043 0.01s-0.03 0.014-0.045 0.014c-0.015 0.0002-0.031 0.01-0.036 0.016 0 0.01-0.02 0.018-0.033 0.02-0.014 0-0.031 0.013-0.038 0.022-0.01 0.01-0.02 0.018-0.03 0.02-0.01 0-0.024 0.011-0.033 0.022-0.01 0.011-0.024 0.022-0.034 0.026-0.01 0-0.022 0.017-0.027 0.03-0.01 0.013-0.019 0.027-0.03 0.03-0.012 0-0.021 0.012-0.021 0.02 0 0.01-0.011 0.023-0.025 0.032-0.014 0.01-0.025 0.025-0.025 0.036s-0.01 0.025-0.02 0.031c-0.011 0.01-0.02 0.019-0.02 0.03 0 0.01-0.012 0.027-0.026 0.036-0.015 0.01-0.024 0.023-0.021 0.032 0 0.01 0 0.02-0.014 0.027-0.011 0.01-0.02 0.022-0.02 0.033s-0.01 0.029-0.02 0.038c-0.011 0.01-0.02 0.026-0.02 0.037 0 0.01-0.01 0.025-0.015 0.032-0.01 0.01-0.015 0.022-0.015 0.034s-0.01 0.03-0.021 0.04c-0.012 0.01-0.019 0.025-0.015 0.034 0 0.01 0 0.027-0.014 0.041-0.011 0.014-0.017 0.031-0.015 0.038 0 0.01 0 0.019-0.011 0.026-0.01 0.01-0.016 0.024-0.016 0.038s-0.01 0.036-0.017 0.05c-0.01 0.014-0.014 0.028-0.01 0.032 0 0-0.0007 0.018-0.01 0.031-0.01 0.014-0.014 0.031-0.011 0.038 0 0.01 0 0.022-0.01 0.032s-0.014 0.031-0.014 0.046c-0.0002 0.015 0 0.03-0.011 0.034-0.01 0-0.01 0.022-0.01 0.041s0 0.035-0.011 0.035c-0.01 0-0.01 0.016-0.01 0.035s0 0.041-0.01 0.05c-0.01 0.01-0.01 0.026-0.01 0.042v0.026c-0.01 0-0.011 0.011-0.011 0.025 0 0.034 0.018 0.033 0.027 0 0-0.015 0.015-0.035 0.026-0.046s0.016-0.024 0.013-0.03c0-0.01 0-0.019 0.015-0.031 0.012-0.011 0.021-0.029 0.021-0.04s0.01-0.023 0.015-0.026c0.01 0 0.015-0.014 0.015-0.024s0.021-0.04 0.047-0.067 0.058-0.065 0.071-0.085c0.013-0.019 0.038-0.054 0.054-0.076 0.017-0.022 0.039-0.052 0.048-0.066 0.039-0.056 0.072-0.084 0.13729-0.1174 0.06-0.03 0.078-0.035 0.14329-0.035 0.056 0 0.081 0 0.099 0.018 0.013 0.01 0.036 0.023 0.05 0.029 0.014 0.01 0.037 0.029 0.052 0.05 0.08 0.121 0.099 0.1532 0.106 0.1762 0 0.014 0.018 0.039 0.031 0.056 0.025 0.034 0.055 0.1098 0.055 0.1433 0 0.012 0.01 0.027 0.015 0.034 0.01 0.01 0.014 0.026 0.014 0.044-0.0005 0.018 0 0.034 0.011 0.036 0.01 0 0.012 0.017 0.012 0.033s0 0.032 0.01 0.035c0.01 0 0.01 0.022 0.01 0.041s0 0.037 0.01 0.041c0.01 0 0.01 0.02 0.01 0.036s0 0.032 0.01 0.035c0.01 0 0.01 0.022 0.01 0.041s0 0.037 0.011 0.041c0.01 0 0.01 0.017 0.01 0.029s0.0008 0.031 0.01 0.042c0.01 0.011 0.012 0.029 0.01 0.041 0 0.012-0.0004 0.025 0.01 0.029 0.01 0 0.011 0.025 0.011 0.046 0 0.022 0 0.042 0.01 0.046 0.01 0 0.01 0.017 0 0.031v0.038c0.01 0.01 0.011 0.024 0.011 0.038 0.0002 0.014 0.01 0.048 0.012 0.076 0.01 0.028 0.011 0.065 0.011 0.083-0.0004 0.018 0 0.035 0.01 0.039 0.01 0 0.01 0.017 0 0.031v0.037c0 0.01 0.01 0.027 0.011 0.044 0 0.017 0 0.049 0.01 0.071 0.01 0.065 0.016 0.1195 0.018 0.1523 0 0.017 0.01 0.036 0.011 0.043 0 0.01 0.01 0.026 0 0.042v0.036c0.01 0 0.01 0.02 0 0.04 0 0.021 0 0.036 0.01 0.041 0.01 0 0.01 0.019 0.01 0.036v0.042c0.01 0.013 0.017 0.1248 0.015 0.1937-0.0004 0.021 0 0.038 0.01 0.038s0.014 0.095 0.013 0.1903c-0.0001 0.024 0 0.043 0.01 0.043 0 0 0.01 0.034 0.01 0.076s0.0003 0.078 0 0.081c0 0 0.01 0.037 0.01 0.076s0.0009 0.074 0.01 0.076c0 0 0.01 0.055 0.01 0.1173-0.001 0.062 0 0.1143 0 0.1166 0 0 0.01 0.072 0 0.1543-0.001 0.086 0 0.1557 0.01 0.163 0.01 0.01 0.01 0.018 0 0.029-0.011 0.013-0.011 0.02-0.0003 0.037 0.011 0.017 0.011 0.026 0.0004 0.045-0.01 0.019-0.01 0.027 0 0.039 0.01 0.01 0.01 0.021 0 0.028 0 0.01-0.01 0.044-0.01 0.082h-0.0002c0 0.038 0 0.069 0.01 0.069 0.013 0 0.032-0.024 0.032-0.04 0-0.01 0.01-0.021 0.02-0.028 0.011-0.01 0.02-0.021 0.02-0.031s0.01-0.024 0.02-0.03c0.011-0.01 0.02-0.022 0.02-0.033s0.01-0.025 0.02-0.031c0.012-0.01 0.02-0.021 0.02-0.035s0.01-0.029 0.02-0.035c0.011-0.01 0.02-0.019 0.02-0.029s0.01-0.025 0.02-0.035c0.011-0.01 0.02-0.026 0.02-0.035 0-0.01 0.01-0.026 0.021-0.036 0.012-0.01 0.019-0.024 0.016-0.032 0-0.01 0-0.022 0.014-0.031 0.011-0.01 0.02-0.025 0.02-0.035s0.01-0.025 0.02-0.035c0.011-0.01 0.02-0.029 0.02-0.041 0-0.013 0.01-0.025 0.015-0.029 0.01 0 0.015-0.016 0.015-0.028s0.01-0.03 0.015-0.04c0.01-0.01 0.017-0.027 0.02-0.039 0-0.012 0.012-0.029 0.021-0.038 0.01-0.01 0.014-0.023 0.011-0.03 0-0.01 0-0.021 0.011-0.03 0.01-0.01 0.017-0.028 0.019-0.042 0-0.014 0.011-0.034 0.02-0.044 0.01-0.01 0.014-0.024 0.01-0.03 0-0.01 0-0.022 0.013-0.036 0.011-0.014 0.018-0.034 0.015-0.044 0-0.01 0-0.024 0.011-0.032 0.01-0.01 0.016-0.026 0.016-0.042s0-0.029 0.01-0.029 0.01-0.016 0.01-0.035 0-0.038 0.01-0.041c0.01 0 0.01-0.019 0.01-0.034-0.0002-0.015 0-0.052 0.01-0.083 0.015-0.083 0.021-0.1239 0.021-0.1523 0.0001-0.014 0-0.032 0.01-0.041 0.01-0.018 0.011-0.049 0.015-0.1473 0-0.039 0.01-0.077 0.011-0.084v-0.042-0.035c0.01 0 0.01-0.039 0.01-0.08 0-0.04 0-0.079 0.01-0.085 0.01-0.01 0.01-0.02 0-0.033-0.01-0.012-0.01-0.027 0-0.034 0.011-0.017 0.012-0.3447 0.0007-0.3593-0.01-0.01 0-0.02 0-0.032 0.01-0.016 0.01-0.023 0-0.035-0.01-0.01-0.01-0.028-0.01-0.05v-0.041c-0.01 0-0.01-0.034-0.01-0.07 0-0.035 0-0.07-0.01-0.077-0.01-0.01-0.01-0.024 0-0.038v-0.038c0-0.01-0.01-0.026-0.01-0.043-0.001-0.017-0.01-0.053-0.013-0.081-0.01-0.028-0.011-0.062-0.011-0.075 0.0002-0.013 0-0.031-0.011-0.038-0.01-0.01-0.01-0.02-0.01-0.028 0-0.01-0.0008-0.026-0.01-0.041-0.01-0.015-0.011-0.034-0.01-0.042 0-0.01 0-0.026-0.01-0.04s-0.014-0.032-0.01-0.041c0-0.01 0-0.025-0.011-0.035-0.01-0.011-0.014-0.024-0.01-0.03 0-0.01-0.0003-0.022-0.01-0.036-0.01-0.014-0.016-0.035-0.016-0.048s0-0.029-0.011-0.035c-0.01-0.01-0.012-0.024-0.014-0.04 0-0.016-0.01-0.03-0.014-0.033-0.01 0-0.011-0.017-0.011-0.034s-0.01-0.032-0.015-0.036c-0.01 0-0.015-0.018-0.015-0.034 0-0.015-0.01-0.034-0.015-0.041-0.01-0.01-0.015-0.021-0.015-0.032 0-0.01-0.01-0.027-0.02-0.037-0.011-0.01-0.02-0.028-0.02-0.041s-0.01-0.026-0.015-0.029c-0.01 0-0.015-0.017-0.015-0.03s-0.01-0.03-0.02-0.037c-0.011-0.01-0.02-0.02-0.02-0.03s-0.01-0.024-0.021-0.032c-0.011-0.01-0.023-0.025-0.025-0.039 0-0.013-0.014-0.031-0.025-0.038-0.011-0.01-0.021-0.02-0.021-0.028 0-0.01-0.011-0.021-0.025-0.03-0.014-0.01-0.025-0.023-0.025-0.03 0-0.01-0.011-0.021-0.025-0.03-0.014-0.01-0.025-0.023-0.025-0.032 0-0.01-0.01-0.018-0.021-0.021-0.012 0-0.025-0.017-0.031-0.03-0.01-0.014-0.018-0.027-0.029-0.03-0.011 0-0.027-0.016-0.036-0.03-0.01-0.013-0.022-0.024-0.03-0.024-0.01 0-0.021-0.011-0.03-0.025-0.01-0.014-0.02-0.025-0.024-0.024-0.021 0-0.033 0-0.033-0.016 0-0.01-0.013-0.018-0.028-0.022-0.015 0-0.034-0.015-0.041-0.026-0.01-0.01-0.022-0.019-0.034-0.019-0.011 0-0.027-0.01-0.036-0.015-0.01-0.01-0.026-0.015-0.039-0.015s-0.025 0-0.028-0.011c0-0.01-0.053-0.013-0.1023-0.014zm-11.906 0.5466c-0.05-0.001-0.071 0.055-0.063 0.169 0.019 0.2781 0.22309 0.7312 0.51188 1.1337 0.55678 0.7761 1.3758 1.3746 2.4484 1.7891 0.56058 0.2168 1.2286 0.3795 1.6644 0.4055 0.19199 0.011 0.20019 0.011 0.41448 0.0003 0.53098-0.028 1.0501-0.1231 1.6461-0.303 0.38958-0.1175 0.87696-0.3076 1.2631-0.4927l0.14209-0.068-0.031-0.027c-0.09-0.078-0.27049-0.227-0.32389-0.2669-0.44508-0.3326-0.90436-0.5365-1.3372-0.5935-0.17089-0.023-0.46858-0.015-0.60977 0.015-0.1155 0.025-0.25919 0.071-0.32879 0.1062-0.1014 0.051-0.39228 0.1342-0.59638 0.1702-0.92916 0.1639-1.9482-0.024-3.0346-0.5596-0.20669-0.1019-0.32769-0.1672-0.65137-0.3513-0.1004-0.057-0.26259-0.1904-0.40478-0.3328-0.16689-0.1671-0.27189-0.2936-0.42458-0.5124-0.1212-0.1736-0.16709-0.2267-0.22539-0.2609-0.023-0.013-0.042-0.02-0.059-0.021zm9.1991 0.2302c-0.01 0-0.013 0-0.021 0.01-0.016 0.01-0.025 0.01-0.036 0-0.01-0.01-0.022-0.01-0.032 0-0.016 0.01-0.06 0.012-0.13349 0.014-0.013 0.0003-0.03 0.01-0.037 0.012-0.01 0.01-0.022 0.01-0.033 0-0.012 0-0.026 0.0001-0.035 0.01-0.01 0.01-0.029 0.016-0.046 0.016s-0.032 0-0.034 0.011c0 0.01-0.017 0.012-0.033 0.014-0.016 0-0.033 0.011-0.038 0.02-0.01 0.01-0.02 0.016-0.034 0.016s-0.029 0.01-0.035 0.02c-0.01 0.011-0.02 0.02-0.031 0.02s-0.024 0.01-0.03 0.02c-0.01 0.011-0.02 0.02-0.031 0.02-0.013 0-0.022 0.01-0.026 0.025 0 0.014-0.017 0.032-0.031 0.041-0.013 0.01-0.024 0.024-0.024 0.034s-0.01 0.023-0.02 0.03c-0.011 0.01-0.02 0.022-0.02 0.032 0 0.011-0.01 0.025-0.02 0.031-0.011 0.01-0.02 0.019-0.02 0.029s-0.01 0.027-0.02 0.037c-0.011 0.01-0.02 0.027-0.02 0.037s-0.01 0.028-0.021 0.039-0.018 0.025-0.015 0.031c0 0 0 0.021-0.014 0.035-0.011 0.015-0.018 0.034-0.015 0.045 0 0.013-0.0008 0.022-0.011 0.026-0.011 0-0.016 0.018-0.016 0.041 0 0.019 0 0.034-0.01 0.034s-0.01 0.016-0.01 0.035-0.01 0.038-0.011 0.042c-0.01 0-0.01 0.019-0.01 0.035v0.037c-0.01 0.01-0.011 0.041-0.013 0.08 0 0.039-0.01 0.078-0.011 0.088v0.031c0.01 0.01 0.01 0.042 0.01 0.079 0 0.036 0 0.072 0.01 0.079 0.01 0.01 0.01 0.023 0 0.036 0 0.014 0.0004 0.033 0.01 0.045 0.01 0.012 0.012 0.028 0.01 0.037 0 0.01 0.0008 0.025 0.01 0.037 0.01 0.012 0.013 0.03 0.01 0.039 0 0.01 0 0.026 0.012 0.035 0.01 0.01 0.015 0.023 0.012 0.031 0 0.01 0 0.026 0.014 0.042 0.01 0.016 0.016 0.033 0.013 0.038 0 0 0 0.02 0.017 0.033 0.012 0.013 0.02 0.029 0.016 0.034 0 0.01 0 0.02 0.014 0.031 0.011 0.011 0.021 0.03 0.021 0.041s0.01 0.026 0.02 0.033c0.011 0.01 0.02 0.023 0.02 0.035s0.01 0.027 0.02 0.034c0.011 0.01 0.02 0.02 0.02 0.031s0.011 0.027 0.025 0.036c0.014 0.01 0.023 0.021 0.02 0.026 0 0.01 0.01 0.02 0.02 0.033 0.014 0.013 0.026 0.029 0.026 0.035 0 0.01 0.011 0.019 0.025 0.028 0.014 0.01 0.025 0.023 0.025 0.031 0 0.01 0.011 0.021 0.025 0.031s0.025 0.023 0.025 0.032c0 0.01 0.01 0.017 0.021 0.02 0.012 0 0.025 0.017 0.031 0.031 0.01 0.014 0.019 0.027 0.03 0.031 0.012 0 0.025 0.016 0.03 0.029 0 0.013 0.016 0.024 0.025 0.024 0.01 0 0.02 0.012 0.026 0.026 0.01 0.014 0.019 0.029 0.03 0.031 0.011 0 0.027 0.016 0.036 0.03 0.01 0.013 0.022 0.024 0.03 0.024 0.01 0 0.021 0.011 0.03 0.025 0.01 0.014 0.023 0.025 0.031 0.025 0.01 0 0.021 0.012 0.031 0.026s0.021 0.023 0.026 0.02c0.01 0 0.016 0.01 0.025 0.019 0.01 0.014 0.027 0.028 0.041 0.031 0.014 0 0.025 0.013 0.025 0.02 0 0.01 0.014 0.019 0.03 0.025 0.017 0.01 0.03 0.015 0.03 0.021 0 0 0.01 0.013 0.023 0.017 0.013 0 0.03 0.016 0.038 0.027 0.01 0.011 0.024 0.021 0.033 0.022 0.01 0 0.027 0.012 0.038 0.025 0.011 0.012 0.029 0.022 0.038 0.022 0.01 0 0.023 0.01 0.03 0.02 0.01 0.011 0.021 0.02 0.031 0.02s0.026 0.01 0.035 0.02c0.01 0.011 0.024 0.02 0.033 0.02 0.01 0 0.024 0.01 0.036 0.02 0.011 0.011 0.028 0.02 0.037 0.02 0.01 0 0.022 0.01 0.028 0.015 0.01 0.01 0.022 0.017 0.036 0.02 0.014 0 0.029 0.012 0.034 0.02 0 0.01 0.019 0.015 0.031 0.015s0.031 0.01 0.041 0.021c0.01 0.012 0.024 0.019 0.032 0.016 0.01 0 0.022 0 0.031 0.014 0.01 0.011 0.024 0.02 0.032 0.02 0.01 0 0.026 0.01 0.04 0.02 0.014 0.011 0.03 0.017 0.035 0.014 0.01 0 0.019 0 0.03 0.015 0.011 0.012 0.031 0.021 0.044 0.021s0.026 0.01 0.03 0.015c0 0.01 0.018 0.015 0.035 0.015s0.032 0.01 0.035 0.015c0 0.01 0.017 0.015 0.03 0.015s0.03 0.01 0.037 0.015c0.01 0.01 0.023 0.015 0.035 0.015 0.013 0 0.029 0.01 0.036 0.015 0.01 0.01 0.023 0.015 0.035 0.015 0.013 0 0.029 0.01 0.036 0.015 0.01 0.01 0.025 0.015 0.041 0.015 0.015 0 0.034 0.01 0.041 0.015 0.01 0.01 0.023 0.015 0.035 0.015 0.013 0 0.029 0.01 0.036 0.015 0.01 0.01 0.024 0.015 0.038 0.015s0.032 0.01 0.04 0.016c0.01 0.01 0.024 0.013 0.033 0.01 0.01 0 0.024 0 0.031 0.01 0.01 0.01 0.025 0.015 0.041 0.015s0.03 0 0.032 0.012c0 0.01 0.02 0.013 0.039 0.014s0.036 0.01 0.038 0.013c0 0.01 0.017 0.011 0.034 0.011s0.037 0.01 0.046 0.016c0.01 0.01 0.024 0.013 0.033 0.01 0.01 0 0.024 0.001 0.031 0.01 0.01 0.01 0.025 0.016 0.04 0.016 0.015 0.0001 0.035 0.01 0.045 0.014 0.01 0.01 0.025 0.012 0.032 0.01 0.01 0 0.025 0 0.039 0.012 0.014 0.01 0.03 0.014 0.036 0.011 0.01 0 0.022 0 0.036 0.01s0.032 0.014 0.04 0.011c0.01 0 0.024 0.001 0.036 0.01 0.012 0.01 0.028 0.013 0.036 0.01 0.01 0 0.022 0.001 0.033 0.01 0.01 0.01 0.031 0.014 0.046 0.014 0.015 0.0001 0.03 0 0.034 0.011 0 0.01 0.019 0.01 0.035 0.01s0.036 0 0.045 0.011c0.01 0.01 0.023 0.011 0.03 0.01 0.01 0 0.024 0 0.036 0.01s0.031 0.013 0.041 0.01c0.011 0 0.029 0 0.041 0.01s0.028 0.012 0.037 0.01c0.01 0 0.025 0.0007 0.037 0.01 0.012 0.01 0.031 0.012 0.044 0.01 0.012 0 0.025-0.0007 0.029 0.01 0 0.01 0.022 0.011 0.041 0.011s0.037 0 0.041 0.01c0 0.01 0.019 0.01 0.035 0.01s0.036 0 0.044 0.011c0.01 0.01 0.026 0.01 0.042 0.01s0.026 0 0.026 0.01 0.018 0.011 0.041 0.011c0.022 0 0.041 0.01 0.041 0.01 0 0.012 0.037 0.013 0.045 0 0.01-0.012-0.031-0.046-0.043-0.038-0.01 0-0.019-0.01-0.031-0.019-0.012-0.014-0.028-0.025-0.037-0.025-0.01 0-0.02-0.01-0.026-0.02-0.01-0.011-0.02-0.02-0.032-0.02s-0.023-0.01-0.026-0.02c0-0.011-0.018-0.024-0.035-0.03-0.016-0.01-0.029-0.017-0.029-0.026 0-0.01-0.012-0.019-0.026-0.022-0.014 0-0.03-0.017-0.035-0.031-0.01-0.014-0.017-0.024-0.03-0.024s-0.024-0.01-0.03-0.025c-0.01-0.016-0.018-0.025-0.03-0.025-0.013 0-0.024-0.01-0.03-0.025-0.01-0.014-0.017-0.025-0.025-0.025-0.01 0-0.02-0.011-0.025-0.025-0.01-0.014-0.016-0.025-0.024-0.025-0.01 0-0.024-0.014-0.036-0.031s-0.028-0.031-0.035-0.031c-0.01 0-0.016-0.01-0.019-0.02 0-0.011-0.013-0.023-0.023-0.027-0.023-0.01-0.36418-0.3496-0.37288-0.3721 0-0.01-0.013-0.017-0.022-0.017-0.01 0-0.021-0.012-0.029-0.028-0.01-0.015-0.019-0.027-0.026-0.025-0.01 0.001-0.017-0.01-0.022-0.023-0.01-0.014-0.017-0.028-0.026-0.032-0.01 0-0.02-0.017-0.025-0.03-0.01-0.013-0.021-0.029-0.035-0.034-0.014 0-0.026-0.016-0.026-0.025 0-0.01-0.01-0.02-0.021-0.026-0.011-0.01-0.025-0.022-0.03-0.036-0.01-0.014-0.016-0.025-0.024-0.025-0.01 0-0.019-0.014-0.025-0.03-0.01-0.017-0.018-0.031-0.027-0.031-0.01 0-0.02-0.011-0.025-0.025-0.01-0.014-0.019-0.03-0.03-0.036-0.011-0.01-0.021-0.018-0.021-0.026 0-0.01-0.011-0.022-0.025-0.031-0.014-0.01-0.025-0.022-0.025-0.029 0-0.01-0.012-0.02-0.025-0.03-0.014-0.01-0.025-0.023-0.025-0.03 0-0.01-0.011-0.021-0.025-0.031s-0.025-0.023-0.025-0.03c0-0.01-0.012-0.021-0.026-0.031s-0.023-0.021-0.02-0.026c0-0.01-0.01-0.017-0.019-0.026-0.014-0.01-0.027-0.027-0.031-0.041 0-0.014-0.013-0.025-0.02-0.025-0.01 0-0.019-0.013-0.024-0.03-0.01-0.016-0.02-0.035-0.032-0.041-0.012-0.01-0.019-0.016-0.015-0.021 0 0-0.01-0.02-0.019-0.033-0.014-0.013-0.028-0.033-0.032-0.046 0-0.013-0.014-0.023-0.022-0.023-0.01 0-0.014-0.01-0.014-0.018 0-0.01-0.012-0.028-0.025-0.04-0.014-0.012-0.025-0.028-0.025-0.036 0-0.01-0.01-0.022-0.02-0.032-0.011-0.01-0.02-0.025-0.02-0.032 0-0.01-0.01-0.022-0.02-0.031-0.011-0.01-0.02-0.025-0.02-0.035s-0.01-0.024-0.02-0.031c-0.011-0.01-0.02-0.021-0.02-0.031s-0.01-0.026-0.02-0.035c-0.011-0.01-0.02-0.025-0.02-0.035s-0.01-0.027-0.021-0.038c-0.012-0.011-0.018-0.025-0.015-0.03 0-0.01 0-0.02-0.014-0.031-0.011-0.011-0.021-0.029-0.021-0.04 0-0.01-0.01-0.025-0.015-0.032-0.01-0.01-0.015-0.023-0.015-0.036s-0.01-0.03-0.015-0.039c-0.01-0.01-0.016-0.026-0.016-0.039-0.0002-0.013-0.01-0.032-0.014-0.042-0.01-0.01-0.012-0.026-0.01-0.036 0-0.01 0-0.024-0.011-0.031-0.01-0.01-0.014-0.023-0.01-0.041v-0.035c-0.016-0.01 0-0.1782 0.014-0.1966 0.01-0.01 0.013-0.021 0.01-0.029 0-0.01 0.01-0.02 0.02-0.029 0.014-0.01 0.025-0.023 0.025-0.032 0-0.01 0.013-0.02 0.03-0.026 0.016-0.01 0.032-0.017 0.035-0.025 0-0.01 0.016-0.015 0.029-0.015 0.013-0.0002 0.032-0.01 0.042-0.015 0.01-0.01 0.025-0.012 0.033-0.01 0.01 0 0.021 0 0.029-0.01 0.01-0.01 0.027-0.01 0.045-0.01h0.035c0-0.01 0.18569-0.01 0.19949 0 0 0 0.021 0 0.041 0.01 0.02 0 0.054 0.01 0.076 0.01s0.054 0.01 0.071 0.01 0.036 0.01 0.043 0.01h0.033c0.011 0 0.029 0.0002 0.041 0.01 0.012 0.01 0.03 0.012 0.041 0.01 0.011 0 0.026 0.0005 0.035 0.01 0.01 0.01 0.024 0.01 0.035 0.01s0.029 0 0.041 0.01c0.022 0.015 0.046 0.01 0.035-0.01 0-0.01-0.017-0.014-0.031-0.019-0.013 0-0.024-0.016-0.024-0.025 0-0.01-0.011-0.018-0.025-0.021-0.014 0-0.032-0.017-0.041-0.031-0.01-0.013-0.022-0.024-0.03-0.024-0.01 0-0.021-0.011-0.031-0.025s-0.024-0.025-0.034-0.025-0.023-0.01-0.03-0.02c-0.01-0.011-0.022-0.02-0.033-0.02s-0.025-0.01-0.031-0.02c-0.01-0.011-0.019-0.02-0.03-0.02-0.01 0-0.025-0.01-0.033-0.02-0.01-0.011-0.025-0.023-0.039-0.025-0.014 0-0.029-0.012-0.034-0.02 0-0.01-0.017-0.015-0.027-0.015s-0.026-0.01-0.037-0.02c-0.01-0.011-0.027-0.02-0.037-0.02s-0.028-0.01-0.039-0.021-0.025-0.018-0.031-0.014c-0.01 0-0.019 0-0.03-0.015-0.011-0.012-0.029-0.021-0.041-0.021-0.011 0-0.027-0.01-0.036-0.015-0.01-0.01-0.024-0.015-0.035-0.015s-0.027-0.01-0.036-0.015c-0.01-0.01-0.025-0.015-0.037-0.016-0.012-0.0002-0.031-0.01-0.041-0.015-0.01-0.01-0.025-0.012-0.033-0.01-0.01 0-0.023 0-0.034-0.012-0.011-0.01-0.026-0.015-0.034-0.012-0.01 0-0.023-0.0007-0.033-0.01-0.01-0.01-0.031-0.014-0.046-0.014-0.015-0.0002-0.03 0-0.034-0.011 0-0.01-0.019-0.01-0.034-0.01s-0.037 0-0.049-0.01-0.029-0.01-0.038-0.01c-0.01 0-0.023 0.0007-0.031-0.01-0.01-0.01-0.027-0.01-0.045-0.01h-0.035s-0.055-0.01-0.1152-0.01c-0.063 0.001-0.1153 0-0.1231-0.01-0.01-0.01-0.019-0.01-0.033 0-0.015 0.01-0.024 0.01-0.04-0.0005-0.01 0-0.014-0.01-0.02-0.01zm2.3094 0.1942c-0.035-0.001-0.071 0-0.1072 0.019-0.034 0.014-0.063 0.032-0.066 0.042 0 0.01-0.016 0.024-0.029 0.031-0.039 0.022-0.1211 0.1235-0.1225 0.152-0.0002 0-0.011 0.015-0.023 0.023-0.013 0.01-0.023 0.024-0.023 0.034s-0.01 0.025-0.02 0.035c-0.011 0.01-0.02 0.025-0.02 0.035s-0.01 0.024-0.02 0.031c-0.011 0.01-0.02 0.023-0.02 0.036s-0.01 0.029-0.021 0.036c-0.012 0.01-0.019 0.019-0.015 0.028 0 0.01 0 0.023-0.014 0.032-0.011 0.01-0.02 0.027-0.02 0.039 0 0.018-0.01 0.022-0.031 0.02-0.017-0.001-0.036-0.01-0.043-0.014-0.01-0.01-0.027-0.012-0.045-0.012s-0.033-0.01-0.033-0.01c0-0.01-0.016-0.01-0.035-0.01s-0.038 0-0.041-0.01c0-0.01-0.019-0.01-0.034-0.01s-0.037 0-0.049-0.01-0.028-0.01-0.036-0.01c-0.01 0-0.026 0.001-0.04 0-0.018-0.01-0.029-0.01-0.037 0.001-0.01 0.01-0.018 0.01-0.036 0-0.014-0.01-0.03-0.01-0.038-0.01-0.012 0.01-0.05 0.012-0.1191 0.014-0.013 0.0003-0.03 0.01-0.038 0.012-0.01 0.01-0.026 0.012-0.041 0.014-0.015 0-0.031 0.01-0.036 0.019-0.01 0.01-0.018 0.016-0.029 0.016-0.012 0-0.024 0.01-0.03 0.025-0.01 0.014-0.016 0.025-0.024 0.025-0.017 0-0.026 0.011-0.031 0.042 0 0.012-0.012 0.027-0.021 0.034-0.01 0.01-0.015 0.019-0.011 0.029 0 0.01-0.0002 0.029-0.01 0.044-0.01 0.016-0.011 0.032-0.01 0.037 0.01 0 0 0.019 0 0.034-0.01 0.019-0.01 0.03 0 0.045 0.01 0.014 0.01 0.024 0 0.033-0.01 0.01-0.01 0.021 0 0.039 0.01 0.014 0.012 0.037 0.01 0.051 0 0.014 0 0.03 0.01 0.037 0.01 0.01 0.013 0.021 0.01 0.033 0 0.011 0 0.028 0.01 0.038s0.015 0.028 0.016 0.042c0.0007 0.014 0.01 0.028 0.013 0.032 0.01 0 0.013 0.019 0.014 0.034 0 0.015 0.011 0.033 0.021 0.04 0.01 0.01 0.015 0.018 0.011 0.025 0 0.01 0 0.021 0.014 0.032 0.011 0.011 0.021 0.03 0.021 0.041s0.01 0.028 0.02 0.038c0.011 0.01 0.02 0.025 0.02 0.034 0 0.01 0.01 0.025 0.02 0.035 0.011 0.01 0.02 0.027 0.02 0.037s0.01 0.024 0.021 0.03c0.012 0.01 0.019 0.017 0.016 0.025 0 0.01 0.01 0.024 0.018 0.037 0.013 0.013 0.027 0.034 0.031 0.046 0 0.013 0.012 0.023 0.017 0.023 0.01 0 0.015 0.014 0.021 0.03 0.01 0.017 0.016 0.03 0.024 0.03 0.01 0 0.018 0.014 0.024 0.031 0.01 0.017 0.018 0.033 0.026 0.037 0.01 0 0.016 0.014 0.016 0.025 0 0.01 0.011 0.027 0.025 0.036 0.014 0.01 0.025 0.023 0.025 0.03 0 0.01 0.011 0.021 0.024 0.03 0.013 0.01 0.027 0.027 0.03 0.04 0 0.013 0.016 0.026 0.028 0.029 0.012 0 0.019 0.01 0.016 0.013-0.01 0.01 0.011 0.045 0.026 0.045 0.01 0 0.018 0.014 0.024 0.031 0.01 0.017 0.018 0.03 0.026 0.03 0.01 0 0.018 0.011 0.021 0.025 0 0.014 0.015 0.028 0.026 0.031 0.011 0 0.02 0.013 0.02 0.02 0 0.01 0.014 0.024 0.03 0.035 0.017 0.012 0.029 0.027 0.028 0.033 0 0.01 0.01 0.018 0.026 0.025 0.015 0.01 0.028 0.02 0.028 0.028 0 0.01 0.011 0.022 0.025 0.031 0.014 0.01 0.025 0.023 0.025 0.031 0 0.01 0.011 0.019 0.025 0.024 0.014 0.01 0.025 0.016 0.025 0.025 0 0.01 0.011 0.023 0.025 0.032 0.014 0.01 0.028 0.025 0.031 0.035 0 0.01 0.015 0.022 0.026 0.025 0.011 0 0.024 0.018 0.03 0.031 0.01 0.014 0.016 0.024 0.024 0.024 0.01 0 0.021 0.013 0.029 0.028 0.01 0.015 0.019 0.027 0.026 0.025 0.01 0 0.017 0.01 0.022 0.023 0.01 0.014 0.021 0.03 0.035 0.035 0.014 0 0.026 0.017 0.026 0.026 0 0.01 0.01 0.019 0.021 0.022 0.012 0 0.025 0.017 0.031 0.03 0.01 0.014 0.019 0.028 0.03 0.031 0.012 0 0.025 0.016 0.03 0.03 0.01 0.013 0.016 0.024 0.024 0.024 0.01 0 0.022 0.011 0.031 0.025 0.01 0.014 0.024 0.025 0.032 0.025 0.01 0 0.02 0.012 0.025 0.026 0.01 0.014 0.021 0.03 0.035 0.035 0.014 0.01 0.024 0.015 0.023 0.022 0 0.01 0.01 0.018 0.021 0.024 0.013 0.01 0.03 0.022 0.039 0.034 0.01 0.012 0.022 0.022 0.03 0.022 0.01 0 0.019 0.011 0.024 0.025 0.01 0.014 0.016 0.025 0.023 0.025 0.01 0 0.024 0.014 0.036 0.031 0.013 0.017 0.027 0.028 0.032 0.025 0.01 0 0.014 0.01 0.02 0.021 0.01 0.015 0.019 0.029 0.03 0.032 0.011 0 0.027 0.016 0.036 0.03 0.01 0.013 0.023 0.024 0.031 0.024 0.01 0 0.02 0.011 0.025 0.025 0.01 0.015 0.018 0.025 0.029 0.025s0.022 0.01 0.025 0.021c0 0.012 0.015 0.024 0.026 0.026 0.011 0 0.028 0.016 0.036 0.03 0.01 0.013 0.023 0.024 0.031 0.024 0.01 0 0.02 0.01 0.026 0.021 0.01 0.011 0.022 0.025 0.036 0.03 0.014 0.01 0.025 0.016 0.025 0.025 0 0.01 0.012 0.018 0.026 0.022 0.014 0 0.03 0.017 0.035 0.031h-0.0004c0.01 0.027 0.032 0.031 0.05 0.01 0.01-0.01 0.01-0.021 0-0.033-0.01-0.01-0.01-0.049-0.01-0.087s-0.001-0.071-0.01-0.073c0 0-0.01-0.039 0-0.081 0-0.042-0.0002-0.078 0-0.081 0 0-0.01-0.036-0.01-0.074s0-0.076-0.01-0.085c-0.01-0.01 0-0.021 0-0.028 0.01-0.01 0.01-0.018-0.0005-0.038-0.01-0.014-0.01-0.038-0.01-0.051 0-0.014 0.0007-0.032-0.01-0.04-0.01-0.012-0.01-0.018-0.0004-0.03 0.01-0.011 0.01-0.02 0-0.035-0.01-0.011-0.01-0.034 0-0.05v-0.036c-0.01 0-0.01-0.038-0.01-0.077s0-0.074-0.01-0.078c-0.01 0-0.01-0.019 0-0.035v-0.048c-0.01-0.013-0.01-0.023 0.0003-0.03 0.01-0.01 0.01-0.017-0.0007-0.032-0.01-0.012-0.01-0.033 0-0.047 0-0.014 0-0.032-0.01-0.04-0.01-0.01-0.01-0.025-0.01-0.039v-0.046c-0.01-0.013-0.01-0.023 0-0.027 0.01 0 0.01-0.015 0.0004-0.031-0.01-0.014-0.01-0.038 0-0.054 0-0.017 0.001-0.032-0.01-0.036-0.01 0-0.01-0.02-0.01-0.041v-0.04c-0.01 0-0.01-0.022 0-0.042v-0.035c-0.01 0-0.01-0.017-0.01-0.038 0.0001-0.021 0-0.056 0-0.079 0-0.022-0.01-0.072-0.012-0.1103 0-0.038-0.011-0.078-0.017-0.088-0.01-0.012-0.01-0.021 0.0004-0.025 0.01 0 0-0.019 0-0.04-0.01-0.019-0.01-0.038-0.01-0.043v-0.034c-0.01-0.014-0.01-0.038-0.01-0.052 0-0.015 0-0.03-0.01-0.034-0.01 0-0.01-0.018 0-0.032 0-0.014 0.001-0.031-0.01-0.039-0.01-0.01-0.01-0.026-0.01-0.041 0-0.016 0-0.033-0.01-0.042-0.01-0.01-0.01-0.022-0.01-0.031 0-0.01 0.0001-0.028-0.01-0.043-0.01-0.015-0.011-0.035-0.01-0.045 0-0.01 0-0.025-0.01-0.033-0.01-0.01-0.01-0.024-0.01-0.035 0-0.012 0.0002-0.03-0.01-0.042-0.01-0.012-0.013-0.03-0.01-0.041 0-0.011-0.0003-0.026-0.01-0.034-0.01-0.01-0.01-0.023-0.01-0.034 0-0.01-0.0006-0.028-0.01-0.039-0.01-0.011-0.012-0.031-0.01-0.046 0-0.015 0.0003-0.03-0.01-0.034-0.01 0-0.011-0.023-0.011-0.042s-0.01-0.035-0.011-0.035c-0.01 0-0.01-0.01-0.01-0.025 0-0.014 0-0.033-0.01-0.043s-0.014-0.03-0.014-0.045c-0.0002-0.015 0-0.03-0.01-0.034-0.01 0-0.01-0.019-0.01-0.035s-0.01-0.034-0.015-0.041c-0.01-0.01-0.013-0.02-0.01-0.03 0-0.01 0-0.026-0.01-0.037s-0.015-0.03-0.015-0.042c-0.0002-0.012-0.01-0.029-0.016-0.037-0.01-0.01-0.015-0.024-0.015-0.035s-0.01-0.027-0.015-0.035c-0.01-0.01-0.015-0.018-0.015-0.022 0-0.014-0.1119-0.1741-0.13889-0.1993-0.046-0.043-0.1016-0.066-0.16009-0.068zm1.5566 2.225c0-0.0001-0.038 0.077-0.079 0.1785-0.21439 0.5361-0.43688 0.9528-0.60638 1.1359-0.036 0.038-0.065 0.072-0.065 0.075 0 0 0.021 0.017 0.046 0.032 0.097 0.057 0.19059 0.2201 0.23719 0.4131 0.014 0.06 0.029 0.1034 0.033 0.097 0.05-0.091 0.18959-0.6112 0.27349-1.0219 0.053-0.2589 0.16169-0.8729 0.16109-0.9083 0-0.0007-0.0002 0-0.0005 0zm-4.1224 0.084c-0.011 0-0.024 0-0.053 0.024-0.1237 0.085-0.26849 0.1268-0.41088 0.1186-0.047 0-0.095-0.01-0.1049-0.013-0.015-0.01-0.011 0.01 0.019 0.068 0.23859 0.4747 0.49098 0.7454 0.92566 0.9924 0.12669 0.072 0.43728 0.2217 0.71937 0.3466 0.45518 0.2015 0.73467 0.3537 0.86316 0.4702 0.104 0.094 0.14149 0.2256 0.094 0.3297-0.011 0.024-0.02 0.048-0.02 0.053 0 0.012 0.1439-0.073 0.30939-0.1819 0.36468-0.2398 0.68877-0.5264 0.87446-0.7731 0.04-0.053 0.072-0.097 0.071-0.098-0.001 0-0.061-0.014-0.1335-0.029-0.21609-0.044-0.71427-0.1718-0.96386-0.247-0.85866-0.2586-1.6122-0.6126-2.0749-0.9745-0.047-0.037-0.094-0.073-0.1039-0.08 0 0-0.01-0.01-0.011-0.01zm-0.82017 0.046-0.13909 0.066c-0.33209 0.1579-0.68897 0.321-0.83937 0.3837-0.74017 0.3081-1.3763 0.4662-2.1262 0.5283-0.25099 0.021-0.78087 0.021-1.056 0.0004-0.26979-0.02-0.67457-0.1022-0.98906-0.2003-0.26039-0.081-0.45658-0.1638-0.66037-0.2778-0.34159-0.191-0.42938-0.1506-0.25409 0.117 0.1346 0.2054 0.39148 0.4353 0.68487 0.6132 0.47898 0.2904 1.1089 0.4836 1.8534 0.5683 0.13459 0.015 0.53748 0.045 0.67497 0.049 0.1107 0 0.36468-0.01 0.48198-0.022 0.66547-0.081 1.3167-0.3297 1.7845-0.6824 0.20279-0.1529 0.40728-0.3938 0.49798-0.5867 0.073-0.1559 0.1135-0.3754 0.093-0.5098l-0.01-0.047zm0.15479 0.1682-0.01 0.049c-0.05 0.3831-0.21969 0.7012-0.53568 1.0043-0.20749 0.1991-0.43388 0.3498-0.78387 0.5218-0.33399 0.1642-0.42378 0.2372-0.33769 0.2745 0.034 0.015 0.21869 0 0.35289-0.021 0.23629-0.043 0.51018-0.1223 0.72217-0.2086 0.46528-0.1893 0.75617-0.4632 0.84116-0.792 0.067-0.2594-0.027-0.6102-0.21189-0.7895l-0.041-0.039zm3.8001 0.9501c-0.01 0-0.016 0.01-0.011 0.017 0 0.01 0.01 0.01 0.015 0.01 0.011 0 0.013-0.014 0-0.023h-0.01zm0.20099 0.2876c-0.01 0-0.013 0.024-0.019 0.064-0.011 0.068-0.073 0.2668-0.1133 0.3653-0.091 0.2207-0.21049 0.4292-0.36288 0.634-0.67387 0.9062-1.8717 1.5899-3.2796 1.8718-0.75547 0.1513-1.4908 0.185-1.9885 0.091-0.092-0.017-0.28029-0.073-0.35178-0.1047-0.014-0.01-0.013 0 0.01 0.059 0.089 0.2443 0.28599 0.4947 0.50168 0.6372 0.28209 0.1864 0.64437 0.2947 1.0803 0.3232 0.27309 0.018 0.56868 0 0.82257-0.061 1.1546-0.2597 1.9815-0.7086 2.7507-1.4931 0.57068-0.5822 0.89046-1.1759 0.97456-1.8097 0.023-0.1745 0.018-0.4157-0.012-0.5581 0-0.014-0.01-0.02-0.01-0.019zm0.14259 0.056 0.0003 0.2499c0.0002 0.2639-0.01 0.3507-0.052 0.5386-0.095 0.4084-0.29089 0.8062-0.60828 1.2349-0.17169 0.2318-0.46528 0.564-0.65907 0.7456-0.58468 0.548-1.6644 1.0743-2.6439 1.2888-0.34839 0.076-0.64107 0.1058-0.97626 0.098-0.26849-0.01-0.25789-0.015-0.103 0.088 0.31539 0.2101 0.66607 0.3224 1.1401 0.3648h0.0002c0.088 0.01 0.42208 0 0.54778-0.02 0.50578-0.062 1.1485-0.2882 1.643-0.5775 0.94146-0.5508 1.61-1.501 1.8217-2.5893 0.114-0.5863 0.077-1.1759-0.087-1.3911l-0.024-0.032zm-0.33059 0.16c-0.014 0-0.061 0.047-0.15769 0.1417-0.65737 0.6493-1.5306 1.1785-2.4508 1.4856-0.22469 0.075-0.42208 0.1283-0.72417 0.1954-0.62697 0.1394-1.0904 0.2079-1.4233 0.2106-0.096 0.0008-0.17509 0-0.17509 0.01 0 0 0.012 0.025 0.027 0.051 0.17009 0.292 0.47028 0.4798 0.82657 0.5171 0.1214 0.013 0.16219 0.013 0.30949 0 0.87246-0.068 1.9552-0.542 2.7595-1.2087 0.14389-0.1192 0.45218-0.4305 0.55698-0.5624 0.18109-0.2277 0.31699-0.4574 0.40678-0.6873 0.039-0.099 0.059-0.1488 0.045-0.1498z"/>
</svg>