<svg xmlns="http://www.w3.org/2000/svg" viewBox="0 0 16 16">
 <path d="m3.9325 4.2024c-2.1797 0-3.9325 1.708-3.9325 3.7978 9.5367e-7 2.0898 1.7753 3.7978 3.9325 3.7978 0.20224 0 0.40475-0.0223 0.607-0.0448 1.6854-0.24718 2.809-1.4606 3.4607-2.3819 0.6292 0.9438 1.7524 2.1572 3.4603 2.3819 0.20224 0.0225 0.40475 0.0448 0.607 0.0448 2.1573 0 3.9325-1.685 3.9325-3.7973 0-2.0898-1.7753-3.7978-3.9325-3.7978-0.20224 0-0.40475 0.0223-0.607 0.0448-1.6859 0.2467-2.8091 1.4601-3.4608 2.3814-0.6292-0.9213-1.7753-2.1571-3.4607-2.3819-0.2022-0.0225-0.4047-0.0448-0.607-0.0448zm0 1.3483c0.13483 0 0.26975 0.0224 0.42705 0.0224 1.5955 0.22471 2.5618 1.7979 2.8989 2.4271-0.33707 0.6292-1.3034 2.202-2.8989 2.4267-0.13483 0.0225-0.26975 0.0224-0.42705 0.0224-1.4382 0-2.5842-1.1008-2.5842-2.449 0-1.3483 1.1685-2.4495 2.5842-2.4495zm8.135 0c1.4382 0 2.5842 1.1012 2.5842 2.4495s-1.1685 2.449-2.5842 2.449c-0.13483 0-0.26975 0.00009-0.42705-0.0224-1.5955-0.22471-2.5618-1.7975-2.8989-2.4267 0.33707-0.6292 1.3034-2.2024 2.8989-2.4271 0.13483-0.0225 0.26975-0.0224 0.42705-0.0224zm-0.29231 1.2807v0.80889h-0.7865v0.76412h0.7865v0.7865h0.76412v-0.7865h0.80889v-0.76412h-0.80889v-0.80889h-0.76412zm-8.6963 0.80889v0.76412h2.3595v-0.76412h-2.3595z"/>
</svg>