<svg xmlns="http://www.w3.org/2000/svg" viewBox="0 0 16 16">
 <path d="m2.5846 0c-1.4274 0-2.5846 1.1524-2.5846 2.574v10.852c0 1.4216 1.1572 2.574 2.5846 2.574h10.831c1.427 0 2.584-1.152 2.584-2.574v-10.852c0-1.4212-1.157-2.5736-2.585-2.5736h-10.831zm1.5084 3.051h3.8931c1.3965 0 2.4068 0.208 3.031 0.624 0.62863 0.4161 0.94295 1.0821 0.94295 1.9982-0 0.4824-0.1145 0.894-0.3435 1.2347-0.22901 0.3364-0.5613 0.5865-0.99684 0.7502 0.55679 0.1593 0.98785 0.4536 1.2932 0.8829 0.30533 0.4293 0.45801 0.956 0.45802 1.58-0 0.9559-0.32781 1.6684-0.98339 2.1376-0.65559 0.4691-1.6525 0.7036-2.9905 0.7036h-4.3039v-9.9112zm2.5931 1.7393v2.0977h1.4347c0.4086 0 0.7185-0.088 0.9295-0.2655 0.2111-0.177 0.3166-0.4381 0.3166-0.7833 0-0.3408-0.1055-0.5997-0.3166-0.7767-0.211-0.1815-0.5208-0.2722-0.9295-0.2722h-1.4347zm0 3.837v2.5957h1.5222c0.52087 0 0.91152-0.1085 1.172-0.3253 0.26492-0.2169 0.39738-0.5444 0.39739-0.9825 0-0.4293-0.13023-0.7502-0.39066-0.9626-0.2604-0.2165-0.6532-0.3249-1.1786-0.3249h-1.5222z"/>
</svg>