<?xml version="1.0" encoding="UTF-8" standalone="no"?>
<!-- Generator: Adobe Illustrator 15.1.0, SVG Export Plug-In . SVG Version: 6.00 Build 0)  -->

<svg
   xmlns:dc="http://purl.org/dc/elements/1.1/"
   xmlns:cc="http://creativecommons.org/ns#"
   xmlns:rdf="http://www.w3.org/1999/02/22-rdf-syntax-ns#"
   xmlns:svg="http://www.w3.org/2000/svg"
   xmlns="http://www.w3.org/2000/svg"
   xmlns:sodipodi="http://sodipodi.sourceforge.net/DTD/sodipodi-0.dtd"
   xmlns:inkscape="http://www.inkscape.org/namespaces/inkscape"
   version="1.1"
   id="svg2"
   inkscape:version="0.91 r13725"
   sodipodi:docname="bootstrap.svg"
   x="0px"
   y="0px"
   width="16"
   height="16"
   viewBox="0 0 16 16"
   enable-background="new 0 0 2000 2008.275"
   xml:space="preserve"><metadata
     id="metadata14"><rdf:RDF><cc:Work
         rdf:about=""><dc:format>image/svg+xml</dc:format><dc:type
           rdf:resource="http://purl.org/dc/dcmitype/StillImage" /><dc:title></dc:title></cc:Work></rdf:RDF></metadata><defs
     id="defs12" /><sodipodi:namedview
     id="namedview2996"
     bordercolor="#666666"
     inkscape:cx="1000"
     pagecolor="#ffffff"
     inkscape:zoom="0.2678916"
     fit-margin-top="0"
     fit-margin-left="0"
     showgrid="false"
     borderopacity="1"
     gridtolerance="10"
     objecttolerance="10"
     inkscape:cy="1004.1375"
     guidetolerance="10"
     inkscape:window-maximized="1"
     inkscape:current-layer="svg2"
     inkscape:window-y="-8"
     inkscape:window-x="-8"
     fit-margin-bottom="0"
     fit-margin-right="0"
     inkscape:window-height="705"
     inkscape:window-width="1366"
     inkscape:pageshadow="2"
     inkscape:pageopacity="0" /><g
     id="g4"
     transform="translate(0,-1992.275)"><path
       d="M 2.5846094,1992.2754 C 1.1571614,1992.2754 0,1993.4278 0,1994.8494 l 0,10.852 c 0,1.4216 1.1571614,2.574 2.5846094,2.574 l 10.8307806,0 c 1.427448,0 2.58461,-1.1524 2.58461,-2.574 l 0,-10.852 c 0,-1.4216 -1.15717,-2.574 -2.58461,-2.574 l -10.8307806,0 z m 1.5084219,3.051 3.8930937,0 c 1.3964798,0 2.406793,0.208 3.030953,0.624 0.628632,0.4161 0.942953,1.0821 0.942953,1.9982 -8e-6,0.4824 -0.1145,0.894 -0.3435,1.2347 -0.229008,0.3364 -0.5613,0.5865 -0.996844,0.7502 0.556792,0.1593 0.987851,0.4536 1.293203,0.8829 0.305328,0.4293 0.458008,0.956 0.458016,1.58 -1.6e-5,0.9559 -0.327806,1.6684 -0.98339,2.1376 -0.655592,0.4691 -1.6524512,0.7036 -2.9905472,0.7036 l -4.3039375,0 0,-9.9112 z m 2.5931405,1.7393 0,2.0977 1.4346562,0 c 0.408608,1e-4 0.718444,-0.088 0.9295,-0.2655 0.21104,-0.177 0.3165544,-0.4381 0.3165624,-0.7833 -8e-6,-0.3408 -0.1055224,-0.5997 -0.3165624,-0.7767 -0.211048,-0.1815 -0.520876,-0.2722 -0.9295,-0.2722 l -1.4346562,0 z m 0,3.837 0,2.5957 1.5222186,0 c 0.520872,0 0.9115208,-0.1085 1.1719688,-0.3253 0.26492,-0.2169 0.3973824,-0.5444 0.3973912,-0.9825 0,-0.4293 -0.1302328,-0.7502 -0.3906568,-0.9626 -0.260448,-0.2169 -0.6533432,-0.3253 -1.1787032,-0.3253 l -1.5222186,0 z"
       id="path6"
       inkscape:connector-curvature="0" /></g></svg>