<svg xmlns="http://www.w3.org/2000/svg" viewBox="0 0 16 16">
 <path d="m7.9835 0c-0.2511 0-0.5017 0.0806-0.7551 0.2302-0.7544 0.44487-4.5311 2.6087-5.6565 3.2605-0.46348 0.26831-0.68896 0.67896-0.68907 1.2127-0 2.1976-0 4.3953-0 6.593 0 0.26313 0.055214 0.49626 0.16645 0.69723 0.11435 0.2067 0.28784 0.37948 0.52273 0.51544 1.1255 0.65186 4.9028 2.8154 5.6569 3.2604 0.5072 0.29927 1.0024 0.31 1.5134 0.015 1.8946-1.094 3.7918-2.1833 5.6873-3.2761 0.23489-0.13591 0.40849-0.30891 0.52284-0.51544 0.11107-0.20097 0.16623-0.43405 0.16634-0.69723 0 0-0-4.3941-0-6.5918-0-0.26903-0.0576-0.5068-0.17395-0.71083-0.1143-0.20063-0.28552-0.36878-0.51512-0.50174-1.8952-1.0928-3.7922-2.1822-5.6867-3.2761-0.25538-0.14743-0.50691-0.21851-0.75793-0.21529zm0.0165 3.2724c1.7489 0 3.2758 0.94982 4.0936 2.3616l-2.0576 1.1848c-0.40778-0.70115-1.1666-1.173-2.036-1.173-1.3001 0-2.3541 1.0539-2.3541 2.354 0 0.42516 0.11336 0.82373 0.31048 1.168 0.40578 0.70839 1.1686 1.1861 2.0436 1.1861 0.88045 0 1.6476-0.48387 2.0513-1.1998l2.0546 1.1904c-0.81461 1.4234-2.3483 2.3829-4.1059 2.3829-1.7544 0-3.2857-0.95563-4.1015-2.3749-0.3983-0.6933-0.6261-1.4965-0.6261-2.3531 0-2.6109 2.1165-4.7274 4.7275-4.7274z"/>
</svg>