<?xml version="1.0" encoding="UTF-8" standalone="no"?>
<svg
   xmlns:dc="http://purl.org/dc/elements/1.1/"
   xmlns:cc="http://creativecommons.org/ns#"
   xmlns:rdf="http://www.w3.org/1999/02/22-rdf-syntax-ns#"
   xmlns:svg="http://www.w3.org/2000/svg"
   xmlns="http://www.w3.org/2000/svg"
   xmlns:sodipodi="http://sodipodi.sourceforge.net/DTD/sodipodi-0.dtd"
   xmlns:inkscape="http://www.inkscape.org/namespaces/inkscape"
   width="16"
   height="16"
   viewBox="0 0 16 16"
   version="1.1"
   preserveAspectRatio="xMinYMin meet"
   id="svg2"
   inkscape:version="0.91 r13725"
   sodipodi:docname="c.svg">
  <metadata
     id="metadata24">
    <rdf:RDF>
      <cc:Work
         rdf:about="">
        <dc:format>image/svg+xml</dc:format>
        <dc:type
           rdf:resource="http://purl.org/dc/dcmitype/StillImage" />
        <dc:title></dc:title>
      </cc:Work>
    </rdf:RDF>
  </metadata>
  <defs
     id="defs22" />
  <sodipodi:namedview
     pagecolor="#ffffff"
     bordercolor="#666666"
     borderopacity="1"
     objecttolerance="10"
     gridtolerance="10"
     guidetolerance="10"
     inkscape:pageopacity="0"
     inkscape:pageshadow="2"
     inkscape:window-width="1366"
     inkscape:window-height="705"
     id="namedview20"
     showgrid="false"
     inkscape:zoom="33.625"
     inkscape:cx="8"
     inkscape:cy="8"
     inkscape:window-x="-8"
     inkscape:window-y="-8"
     inkscape:window-maximized="1"
     inkscape:current-layer="svg2" />
  <path
     style="fill:#000000"
     d="M 7.9834643,1.0948587e-4 C 7.7324379,0.00310949 7.4818493,0.08070949 7.2283582,0.23030949 6.4740118,0.67517949 2.697282,2.8389695 1.5718616,3.4908295 c -0.4634805,0.26831 -0.68895968,0.67896 -0.68907108,1.21267 -7.241e-4,2.19765 -3.742e-5,4.39526 -7.6152e-4,6.5929595 1.114e-4,0.26313 0.0552145,0.49626 0.1664475,0.69723 0.1143523,0.2067 0.287845,0.37948 0.5227323,0.51544 1.1254761,0.65186 4.9027524,2.81543 5.6569316,3.26042 0.507205,0.29927 1.0024306,0.31 1.5133676,0.015 1.894639,-1.09395 3.791809,-2.1833 5.687283,-3.27608 0.234888,-0.13591 0.408489,-0.30891 0.522842,-0.51544 0.111066,-0.20097 0.166227,-0.43405 0.166338,-0.69723 0,0 -3.7e-5,-4.3940595 -7.61e-4,-6.5917595 -1.11e-4,-0.26903 -0.0576,-0.5068 -0.173954,-0.71083 -0.114297,-0.20063 -0.285521,-0.36878 -0.515117,-0.50174 -1.895195,-1.09278 -3.792157,-2.18218 -5.6867402,-3.27608001 -0.2553849,-0.14743 -0.5069081,-0.21851 -0.7579345,-0.215290004133 z M 8.0000003,3.2724895 c 1.7488715,0 3.2757857,0.94982 4.0936307,2.3616 l -2.05764,1.18482 c -0.4077806,-0.70115 -1.166568,-1.17296 -2.0359907,-1.17296 -1.3000958,0 -2.3540906,1.05388 -2.3540906,2.35398 0,0.42516 0.1133619,0.82373 0.3104844,1.16796 0.4057752,0.70839 1.1685578,1.1861295 2.0436062,1.1861295 0.8804514,0 1.6476154,-0.4838695 2.0513297,-1.1998395 l 2.054594,1.1903695 c -0.814614,1.42342 -2.3483073,2.38292 -4.1059237,2.38292 -1.7543864,0 -3.2856799,-0.95563 -4.1014634,-2.37487 C 3.5002812,9.6597495 3.2724548,8.8564795 3.2724548,7.9999295 c 0,-2.61089 2.1165474,-4.72744 4.7275455,-4.72744 z"
     id="path6"
     inkscape:connector-curvature="0"
     sodipodi:nodetypes="cccccccsccccccccccsccsscsccssss" />
</svg>
