<svg xmlns="http://www.w3.org/2000/svg" viewBox="0 0 16 16">
 <path d="m 13.441192,2.4085 c -0.0242,0 -0.0555,0.017 -0.0962,0.048 -0.3926,0.2944 -0.26326,1.0087 -0.18996,1.3011 0.0509,0.2247 0.28362,0.857 0.74615,1.308 0.12122,0.1182 0.92369,0.9941 0.81438,1.4438 -0.004,0.016 -0.0157,0.2193 -0.18759,0.3038 -0.0123,0.01 -0.0253,0.011 -0.0393,0.016 -0.014,0 -0.0288,0.01 -0.0446,0.012 -0.58085,0.1162 -0.76968,-0.5954 -0.76968,-0.5954 -0.43561,-1.8589 -1.1383,-2.5086 -1.1383,-2.5086 -1.2894,-0.049 -2.2449,0.07 -3.3992005,0.2927 -4.3481,-0.1627 -7.6199,1.173 -7.6199,1.173 C 0.56010154,6.5751 4.9154088e-4,9.121 4.9154088e-4,9.121 c 0,0 -0.003000001,0.012 0.007999999,0.014 0.0219,0 0.0335,-0.016 0.0335,-0.016 0.59869,-0.7494 1.21079996,-1.2224 1.21079996,-1.2224 -0.0907,3.5399 0.71145,5.6949 0.71145,5.6949 l 1.5186,0 c 0.003,-0.04 0.007,-0.08 0.0125,-0.1199 0.15604,-1.242 1.097,-2.5665 1.097,-2.5665 0.56449,0.4281 1.8396,0.3017 1.8396,0.3017 0.112,0.4283 0.28239,1.0244 0.42474,1.5135 0.14235,0.4891 0.25661,0.8712 0.2566,0.8712 l 1.8299,0 c 0.0104,-0.083 0.0219,-0.1647 0.0342,-0.246 0.185,-1.2203 0.58016,-2.3008 0.96135,-3.124 0,0 0.4533805,-1.0277 0.4679905,-1.3327 0.029,-0.5372 0.53724,-0.6971 0.81319,-0.6971 0.27582,0 1.5302,0.7009 2.4688,0.6535 1.6334,-0.082 2.278,-0.8379 2.309,-1.699 0.0215,-0.5941 -0.11785,-1.1691 -0.36769,-1.5263 -0.4455,-0.6369 -1.461,-1.1634 -1.698,-1.8862 -0.0606,-0.1847 -0.071,-0.5642 0.0461,-0.7415 0.10594,-0.1602 -0.0678,-0.1221 -0.0678,-0.1221 -0.25254,0.098 -0.36177,-0.1813 -0.36177,-0.1813 -0.0309,-0.08 -0.003,-0.2906 -0.10767,-0.2796 z M 9.8623915,4.9671 c -0.14505,0.1015 -0.27582,0.2165 -0.38977,0.3424 -0.11328,0.1259 -0.20849,0.2639 -0.27317,0.4118 -0.0164,0.037 -0.0308,0.074 -0.043,0.1121 l -0.0389,0.1221 c -0.0249,0.082 -0.05,0.1643 -0.0711,0.2461 -0.021,0.082 -0.0408,0.1628 -0.0521,0.2416 -0.006,0.039 -0.0104,0.078 -0.0114,0.114 -0.001,0.036 10e-4,0.07 0.008,0.095 0.006,0.026 0.0141,0.038 0.02,0.043 0.002,0.001 0.003,0 0.006,0 0.008,0 0.0103,0.01 0.0183,0.01 0.0143,0.01 0.0316,0.014 0.0496,0.02 0.0729,0.027 0.15807,0.05 0.24267,0.077 0.0851,0.027 0.1726,0.055 0.25976,0.095 0.0867,0.04 0.17789,0.087 0.25516,0.1771 0.0313,0.039 0.0549,0.073 0.081,0.1085 0.0256,0.035 0.0511,0.069 0.076601,0.1021 0.0256,0.033 0.0525,0.065 0.0798,0.094 0.0272,0.029 0.056,0.055 0.0848,0.074 0.0293,0.019 0.054,0.027 0.077,0.021 0.0244,-0.01 0.0525,-0.031 0.0744,-0.064 0.0221,-0.033 0.0403,-0.072 0.056,-0.1126 0.0165,-0.04 0.0295,-0.082 0.043,-0.1246 0.002,0.089 -3.8e-4,0.1786 -0.0319,0.2699 -0.008,0.023 -0.0184,0.046 -0.0339,0.068 -0.0153,0.022 -0.0362,0.044 -0.0643,0.059 -0.0279,0.016 -0.0619,0.022 -0.0926,0.02 -0.0309,-0.001 -0.0587,-0.01 -0.084,-0.019 -0.0996,-0.041 -0.170101,-0.1046 -0.237941,-0.167 -0.0337,-0.031 -0.0652,-0.064 -0.096,-0.096 -0.0304,-0.032 -0.0617,-0.065 -0.0885,-0.092 -0.0425,-0.04 -0.11316,-0.073 -0.18746,-0.099 -0.0753,-0.026 -0.15612,-0.048 -0.23978,-0.069 -0.0839,-0.021 -0.16905,-0.041 -0.26173,-0.072 -0.0234,-0.01 -0.047,-0.017 -0.0727,-0.028 -0.0117,-0.01 -0.0287,-0.014 -0.0401,-0.02 -0.0167,-0.01 -0.0328,-0.021 -0.0477,-0.034 -0.0301,-0.026 -0.0539,-0.057 -0.071,-0.089 -0.017,-0.032 -0.028,-0.064 -0.0351,-0.094 -0.0138,-0.06 -0.0149,-0.115 -0.013,-0.1665 0.002,-0.052 0.008,-0.1001 0.0168,-0.1472 0.0176,-0.094 0.0414,-0.1831 0.0695,-0.2697 0.028,-0.087 0.0587,-0.171 0.0926,-0.2538 0.0169,-0.042 0.0331,-0.082 0.0519,-0.1245 0.0195,-0.044 0.0414,-0.086 0.0652,-0.1274 0.0965,-0.1641 0.22611,-0.3023 0.37163,-0.4121 0.073,-0.055 0.1499,-0.1035 0.22966,-0.1447 0.0799,-0.042 0.1627,-0.077 0.24832,-0.1007 z m 1.8342005,0.9774 c 0.061,0 0.12958,0.013 0.1914,0.054 0.12385,0.081 0.17361,0.2239 0.11122,0.3189 -0.0623,0.095 -0.21322,0.1059 -0.33693,0.025 -0.12377,-0.081 -0.17334,-0.2242 -0.11108,-0.3191 0.0312,-0.048 0.0844,-0.074 0.14539,-0.078 z m -1.2026,3.3212 c -0.007,-0.01 -0.42715,1.2637 -0.43381,1.2532 -0.3205805,0.7243 -0.5622905,1.4515 -0.7227505,2.1727 -0.0669,0.3008 0.13663,0.6008 0.0982,0.8991 l 1.9577005,0 c -0.51556,-1.4244 -0.63802,-3.4972 -0.8993,-4.325 z m -5.8300005,1.9536 c -0.25974,0.4073 -0.86095,1.4378 -0.94636,2.3714 l 1.5562,0 c -0.231,-0.793 -0.26631,-1.6611 -0.25608,-2.2437 -0.12465,-0.033 -0.24445,-0.075 -0.35375,-0.1277 z"/>
</svg>