<svg xmlns="http://www.w3.org/2000/svg" viewBox="0 0 16 16">
 <path d="m13.441 2.4084c-0.0242 0-0.055 0.017828-0.0957 0.048826-0.39258 0.29439-0.2647 1.0083-0.1914 1.3007 0.0509 0.22469 0.28355 0.85756 0.74606 1.3085 0.12122 0.1182 0.92373 0.99362 0.81442 1.4433-0.004 0.015999-0.01561 0.21823-0.18749 0.30272-0.02583 0.017927-0.05734 0.020004-0.08398 0.029296-0.58083 0.1162-0.7695-0.59568-0.7695-0.59568-0.435-1.8587-1.138-2.5095-1.138-2.5095-1.289-0.049-2.244 0.0703-3.3982 0.293-4.3479-0.1627-7.6189 1.1737-7.6189 1.1737-0.95681 1.3722-1.5175 3.9178-1.5175 3.9178s-0.0031874 0.011671 0.0078122 0.013671c0.021899 0 0.033202-0.015624 0.033202-0.015624 0.5987-0.7493 1.2109-1.2225 1.2109-1.2225-0.0907 3.5395 0.7129 5.6955 0.7129 5.6955h1.5175c0.003-0.04 0.00817-0.08119 0.013671-0.12109 0.15603-1.2419 1.0957-2.5663 1.0957-2.5663 0.56447 0.42808 1.8398 0.30272 1.8398 0.30272 0.112 0.42828 0.28342 1.0245 0.42576 1.5136 0.14234 0.48908 0.25586 0.87106 0.25585 0.87106h1.83c0.0104-0.083 0.020902-0.16479 0.033202-0.24608 0.18499-1.2202 0.58168-2.3017 0.96285-3.1249 0 0 0.45217-1.027 0.46678-1.332 0.029-0.53718 0.53848-0.69724 0.81442-0.69724 0.27581 0 1.5301 0.70167 2.4686 0.65427 1.6333-0.081997 2.2775-0.83808 2.3085-1.6991 0.021-0.5946-0.118-1.1706-0.367-1.5278-0.446-0.6368-1.463-1.1619-1.699-1.8847-0.061-0.1846-0.071-0.5648 0.046-0.7421 0.106-0.1602-0.068-0.123-0.068-0.123-0.253 0.0979-0.361-0.1797-0.361-0.1797-0.031-0.08-0.003-0.2903-0.108-0.2793v-0.00195zm-3.578 2.5565v0.00195c-0.3279 0.232-0.6246 0.547-0.7321 0.9434-0.0662 0.2238-0.1463 0.4498-0.1484 0.6856-0.017549 0.1163 0.10894 0.12929 0.18945 0.1582 0.22825 0.074315 0.48135 0.12809 0.65622 0.30468 0.11802 0.1358 0.20068 0.30888 0.35741 0.40623 0.11602 0.039671 0.1652-0.11469 0.19921-0.19726 0.01936-0.058267 0.03873-0.13116 0.03125-0.027343-0.0044 0.12409-0.02248 0.2842-0.15234 0.33983-0.148 0.0406-0.2788-0.073-0.3812-0.1641-0.1129-0.0962-0.1949-0.237-0.3437-0.2832-0.2212-0.0903-0.4705-0.1016-0.6797-0.2206-0.1612-0.115-0.1579-0.3403-0.125-0.5157 0.0537-0.264 0.1472-0.52 0.2696-0.7597 0.1856-0.3229 0.5045-0.5634 0.8593-0.6718zm1.8339 0.98043c0.061 0 0.12958 0.011734 0.1914 0.052732 0.12384 0.080997 0.17371 0.2253 0.11132 0.3203-0.0623 0.094996-0.21417 0.10433-0.33788 0.023436-0.12376-0.080997-0.17358-0.22345-0.11132-0.31835 0.0312-0.047998 0.08549-0.074122 0.14648-0.078122zm-1.2031 3.3202c-0.007-0.01-0.42692 1.2644-0.43358 1.2539-0.32057 0.72427-0.56217 1.4506-0.72263 2.1718-0.066897 0.30079 0.13608 0.60011 0.097652 0.8984h1.957c-0.515-1.425-0.637-3.497-0.898-4.3244zm-5.8297 1.9535c-0.25973 0.40728-0.86182 1.4374-0.94723 2.371h1.5566c-0.231-0.793-0.2661-1.66-0.2559-2.242-0.1246-0.033-0.2442-0.077-0.3535-0.129z"/>
</svg>