<?xml version="1.0" encoding="UTF-8" standalone="no"?>
<svg
   xmlns:dc="http://purl.org/dc/elements/1.1/"
   xmlns:cc="http://creativecommons.org/ns#"
   xmlns:rdf="http://www.w3.org/1999/02/22-rdf-syntax-ns#"
   xmlns:svg="http://www.w3.org/2000/svg"
   xmlns="http://www.w3.org/2000/svg"
   xmlns:sodipodi="http://sodipodi.sourceforge.net/DTD/sodipodi-0.dtd"
   xmlns:inkscape="http://www.inkscape.org/namespaces/inkscape"
   width="16"
   height="16"
   viewBox="0 0 16 16"
   version="1.1"
   preserveAspectRatio="xMidYMid"
   id="svg2"
   inkscape:version="0.91 r13725"
   sodipodi:docname="clojure.svg">
  <metadata
     id="metadata24">
    <rdf:RDF>
      <cc:Work
         rdf:about="">
        <dc:format>image/svg+xml</dc:format>
        <dc:type
           rdf:resource="http://purl.org/dc/dcmitype/StillImage" />
        <dc:title></dc:title>
      </cc:Work>
    </rdf:RDF>
  </metadata>
  <defs
     id="defs22" />
  <sodipodi:namedview
     pagecolor="#ffffff"
     bordercolor="#666666"
     borderopacity="1"
     objecttolerance="10"
     gridtolerance="10"
     guidetolerance="10"
     inkscape:pageopacity="0"
     inkscape:pageshadow="2"
     inkscape:window-width="1366"
     inkscape:window-height="705"
     id="namedview20"
     showgrid="false"
     inkscape:zoom="0.921875"
     inkscape:cx="128"
     inkscape:cy="128"
     inkscape:window-x="-8"
     inkscape:window-y="-8"
     inkscape:window-maximized="1"
     inkscape:current-layer="svg2" />
  <path
     style="fill:#000000"
     d="m 8.0006822,0 c -2.67935,0 -5.049425,1.31908 -6.501131,3.34161 0.755521,-0.47318 1.527044,-0.64391 2.200271,-0.63782 0.929861,0.003 1.660824,0.29105 2.011579,0.48829 0.08471,0.0488 0.165167,0.10132 0.243934,0.15534 0.625855,-0.27567 1.317423,-0.42981 2.045212,-0.42981 2.8069418,3.5e-4 5.0823588,2.27526 5.0827738,5.08232 l -4.05e-4,0 c 0,1.41525 -0.578848,2.69489 -1.51196,3.61636 0.229042,0.0257 0.47331,0.0416 0.722753,0.0404 0.885948,4.2e-4 1.843544,-0.19515 2.561445,-0.79896 0.468111,-0.39434 0.860356,-0.97171 1.077849,-1.83743 0.04253,-0.33438 0.06699,-0.67428 0.06699,-1.02021 C 15.999993,3.58212 12.41866,2e-5 8.0006782,2e-5 Z m -1.35e-4,3.77006 c -0.464308,9e-4 -0.910368,0.0775 -1.327996,0.21585 0.858839,0.97901 1.271831,2.37813 1.671341,3.90853 2.07e-4,6.9e-4 5.37e-4,10e-4 6.75e-4,0.002 7.61e-4,10e-4 0.127796,0.42493 0.345911,0.98712 0.216595,0.56142 0.52523,1.25648 0.86174,1.763 0.22095,0.33942 0.4639318,0.58339 0.6294198,0.65497 0.04938,0.0245 0.161335,0.0644 0.317142,0.1086 1.048185,-0.76952 1.72929,-2.00902 1.731987,-3.40996 l -4.05e-4,0 C 12.226462,5.66463 10.336542,3.77494 8.0005472,3.7703 Z m -4.23184,0.30149 c -1.491125,0.014 -3.06515595,0.83932 -3.72047095,3.06809 -0.06127,0.32442 -0.04673,0.56969 -0.04673,0.86043 0,4.41817 3.58154295,7.99993 7.99917895,7.99993 2.7054908,0 5.0955178,-1.3443 6.5428678,-3.40037 -0.782837,0.19509 -1.535615,0.2884 -2.18028,0.29041 -0.241629,0 -0.468427,-0.013 -0.678451,-0.0386 -0.560158,-0.0702 -1.022447,-0.15489 -1.426867,-0.29757 -0.6802108,0.33776 -1.4462828,0.52854 -2.2574048,0.52854 -2.806595,0 -5.081753,-2.2749 -5.082099,-5.08245 0,-1.52335 0.671127,-2.88897 1.732798,-3.82032 -0.283951,-0.0686 -0.580054,-0.10861 -0.882539,-0.10806 z m 1.801142,0.47101 c -1.085668,0.76516 -1.796149,2.02718 -1.798846,3.45737 0.0027,1.40882 0.691735,2.65458 1.750086,3.42293 0.259609,-1.08143 0.910387,-2.07172 1.886236,-4.05657 C 7.3493752,7.2071 7.2833762,7.03283 7.2094492,6.84977 6.9391222,6.1716 6.5489522,5.38399 6.2007552,5.02734 6.0232342,4.84103 5.8078122,4.68004 5.5698492,4.54256 Z m 2.098699,3.60163 c -0.07953,0.17234 -0.167246,0.36595 -0.258116,0.57204 -0.321226,0.72782 -0.676959,1.61354 -0.806901,2.18092 -0.04668,0.20208 -0.07565,0.45254 -0.0751,0.73021 0,0.10982 0.0059,0.22512 0.01526,0.34268 0.454142,0.16688 0.944619,0.25873 1.456852,0.25962 0.466314,-8.9e-4 0.914246,-0.0779 1.333534,-0.21733 -0.09855,-0.0901 -0.192492,-0.18623 -0.278106,-0.29447 -0.568456,-0.72492 -0.885637,-1.78732 -1.387427,-3.57367 z"
     id="path10"
     inkscape:connector-curvature="0" />
</svg>
