<svg xmlns="http://www.w3.org/2000/svg" viewBox="0 0 16 16">
 <path d="m8.0007 0c-2.6794 0-5.0494 1.3191-6.5011 3.3416 0.75552-0.47318 1.527-0.64391 2.2003-0.63782 0.92986 0.003 1.6608 0.29105 2.0116 0.48829 0.08471 0.0488 0.16517 0.10132 0.24393 0.15534 0.62586-0.27567 1.3174-0.42981 2.0452-0.42981 2.8069 0.00035 5.0824 2.2753 5.0828 5.0823h-0.000405c0 1.4152-0.57885 2.6949-1.512 3.6164 0.22904 0.0257 0.47331 0.0416 0.72275 0.0404 0.88595 0.00042 1.8435-0.19515 2.5614-0.79896 0.46811-0.39434 0.86036-0.97171 1.0778-1.8374 0.04253-0.33438 0.06699-0.67428 0.06699-1.0202 0-4.418-3.581-8.0001-7.9993-8.0001zm-0.000135 3.7701c-0.46431 0.0009-0.91037 0.0775-1.328 0.21585 0.85884 0.97901 1.2718 2.3781 1.6713 3.9085 0.000207 0.00069 0.000537 0.001 0.000675 0.002 0.000761 0.001 0.1278 0.42493 0.34591 0.98712 0.2166 0.56142 0.52523 1.2565 0.86174 1.763 0.22095 0.33942 0.46393 0.58339 0.62942 0.65497 0.04938 0.0245 0.16134 0.0644 0.31714 0.1086 1.0482-0.76952 1.7293-2.009 1.732-3.41h-0.000405c-0.005-2.3356-1.894-4.2253-4.2305-4.2299zm-4.2318 0.30149c-1.4911 0.014-3.0652 0.83932-3.7205 3.0681-0.06127 0.32442-0.04673 0.56969-0.04673 0.86043 0 4.4182 3.5815 7.9999 7.9992 7.9999 2.7055 0 5.0955-1.3443 6.5429-3.4004-0.78284 0.19509-1.5356 0.2884-2.1803 0.29041-0.24163 0-0.46843-0.013-0.67845-0.0386-0.56016-0.0702-1.0224-0.15489-1.4269-0.29757-0.68021 0.33776-1.4463 0.52854-2.2574 0.52854-2.8066 0-5.0818-2.2749-5.0821-5.0824 0-1.5234 0.67113-2.889 1.7328-3.8203-0.28395-0.0686-0.58005-0.10861-0.88254-0.10806zm1.8011 0.47101c-1.0857 0.76516-1.7961 2.0272-1.7988 3.4574 0.0027 1.4088 0.69174 2.6546 1.7501 3.4229 0.25961-1.0814 0.91039-2.0717 1.8862-4.0566-0.058-0.1592-0.124-0.3335-0.198-0.5165-0.2703-0.6782-0.6604-1.4658-1.0086-1.8225-0.1776-0.1863-0.393-0.3473-0.631-0.4847zm2.0987 3.6016c-0.07953 0.17234-0.16725 0.36595-0.25812 0.57204-0.32123 0.72782-0.67696 1.6135-0.8069 2.1809-0.04668 0.20208-0.07565 0.45254-0.0751 0.73021 0 0.10982 0.0059 0.22512 0.01526 0.34268 0.45414 0.16688 0.94462 0.25873 1.4569 0.25962 0.46631-0.00089 0.91425-0.0779 1.3335-0.21733-0.09855-0.0901-0.19249-0.18623-0.27811-0.29447-0.56846-0.72492-0.88564-1.7873-1.3874-3.5737z"/>
</svg>