<?xml version="1.0" encoding="UTF-8" standalone="no"?>
<!-- Created with Inkscape (http://www.inkscape.org/) -->

<svg
   xmlns:dc="http://purl.org/dc/elements/1.1/"
   xmlns:cc="http://creativecommons.org/ns#"
   xmlns:rdf="http://www.w3.org/1999/02/22-rdf-syntax-ns#"
   xmlns:svg="http://www.w3.org/2000/svg"
   xmlns="http://www.w3.org/2000/svg"
   xmlns:sodipodi="http://sodipodi.sourceforge.net/DTD/sodipodi-0.dtd"
   xmlns:inkscape="http://www.inkscape.org/namespaces/inkscape"
   width="16"
   height="16"
   viewBox="0 0 16 16"
   id="svg3347"
   version="1.1"
   inkscape:version="0.91 r13725"
   sodipodi:docname="coffeescript.svg">
  <defs
     id="defs3349" />
  <sodipodi:namedview
     id="base"
     pagecolor="#ffffff"
     bordercolor="#666666"
     borderopacity="1.0"
     inkscape:pageopacity="0.0"
     inkscape:pageshadow="2"
     inkscape:zoom="0.175"
     inkscape:cx="-376.42857"
     inkscape:cy="520"
     inkscape:document-units="px"
     inkscape:current-layer="layer1"
     showgrid="false"
     units="px"
     inkscape:window-width="1366"
     inkscape:window-height="705"
     inkscape:window-x="-8"
     inkscape:window-y="-8"
     inkscape:window-maximized="1" />
  <metadata
     id="metadata3352">
    <rdf:RDF>
      <cc:Work
         rdf:about="">
        <dc:format>image/svg+xml</dc:format>
        <dc:type
           rdf:resource="http://purl.org/dc/dcmitype/StillImage" />
        <dc:title></dc:title>
      </cc:Work>
    </rdf:RDF>
  </metadata>
  <g
     inkscape:label="Camada 1"
     inkscape:groupmode="layer"
     id="layer1"
     transform="translate(0,-1036.3622)">
    <path
       style="fill:#000000"
       d="m 10.025767,1037.9255 c -0.1940991,-7e-4 -0.4002991,0.01 -0.6185991,0.028 -2.2414,0.2038 -2.2268,1.2371 -3.7549,1.3681 -0.6258,0.058 -0.9751,-0.087 -1.0333,-0.3348 -0.044,-0.2474 0.2619,-0.3638 0.6258,-0.3929 0.3347,-0.029 0.7422,0.029 0.9314,0.131 0.1455,-0.073 0.1892,-0.1456 0.1746,-0.2329 -0.058,-0.2329 -0.5239,-0.3347 -1.106,-0.2911 -1.1352,0.1019 -1.1352,0.6113 -1.0916,0.8296 0.1165,0.5821 0.9897,0.9751 2.0666,0.8733 1.5137,-0.131 1.9502,-1.1062 3.7258,-1.2662 0.8731991,-0.073 1.4262991,0.1018 1.4844991,0.4075 0.058,0.291 -0.3784,0.4802 -0.9023,0.5239 -0.7276991,0.073 -1.0332991,-0.1892 -1.0915991,-0.4366 -0.5385,0.058 -0.6258,0.291 -0.5967,0.4512 0.058,0.3056 0.7132,0.6112 1.8337991,0.5093 1.2662,-0.1018 1.6882,-0.5967 1.5864,-1.1061 -0.1147,-0.573 -0.8755,-1.0569 -2.2339,-1.0617 z m -7.9390991,1.1782 c -0.8151,0.3201 -1.25170003,0.5821 -1.25170003,0.9896 0.044,0.4512 0.77130003,0.9024 2.25580003,1.2517 1.3972,0.3492 3.1873,0.5384 5.3412,0.5384 2.1976991,0 3.9440991,-0.1892 5.3412991,-0.5384 1.4844,-0.3493 2.1975,-0.815 2.1975,-1.2517 0,-0.3201 -0.3201,-0.6258 -0.9023,-0.8586 0.131,0.087 0.2329,0.2328 0.2329,0.3929 0,0.4512 -0.6695,0.815 -2.023,1.1206 -1.2516,0.2766 -2.8525,0.4658 -4.8026991,0.4658 -1.8775,0 -3.5511,-0.1892 -4.7591,-0.4512 -1.2953,-0.3202 -1.9793,-0.6695 -1.9793,-1.1206 0,-0.1892 0.087,-0.3494 0.3494,-0.5385 z m -1.13530003,2.3286 c 0.12070003,0.8147 0.32360003,1.6059 0.59020003,2.3615 -0.3164,0.1912 -0.60390003,0.4497 -0.86670003,0.7821 -0.4948,0.6258 -0.7131,1.3534 -0.6695,2.0666 0.044,0.7131 0.3929,1.2953 0.946,1.7465 0.58210003,0.4511 1.20790003,0.5821 1.92110003,0.4511 0.2765,-0.044 0.5822,-0.1892 0.8587,-0.2765 -0.5822,0 -1.077,-0.1892 -1.5719,-0.5821 -0.5384,-0.393 -0.9023,-0.946 -0.9896,-1.6155 -0.131,-0.6259 0,-1.208 0.3493,-1.7174 0.077,-0.097 0.1591,-0.1861 0.2457,-0.2668 0.1993,0.4907 0.4248,0.9641 0.6712,1.4166 0.5385,0.815 1.0769,1.5281 1.6154,2.2995 0.2329,0.4511 0.393,0.9023 0.4949,1.3535 0.3493,0.4948 0.8587,0.815 1.4845,0.9896 0.7713,0.2765 1.5718,0.393 2.3868,0.3493 l 0.087,0 c 0.815,0.044 1.6736991,-0.087 2.4595991,-0.3493 0.5821,-0.1892 1.0769,-0.4948 1.4408,-0.9896 l 0.044,0 c 0.087,-0.4513 0.2329,-0.9024 0.4512,-1.3535 0.5385,-0.7714 1.077,-1.4845 1.6155,-2.2995 0.7131,-1.2953 1.208,-2.7798 1.4845,-4.3661 -0.2911,0.4075 -0.9606,0.7568 -2.1685,1.0333 -1.3972,0.3202 -3.1873,0.5385 -5.3412991,0.5385 -2.1975,0 -3.9877,-0.2329 -5.3849,-0.5385 -1.2516,-0.3202 -1.921,-0.6695 -2.15390003,-1.0333 z"
       id="path3367"
       inkscape:connector-curvature="0" />
  </g>
</svg>
