<?xml version="1.0" encoding="UTF-8" standalone="no"?>
<svg
   xmlns:dc="http://purl.org/dc/elements/1.1/"
   xmlns:cc="http://creativecommons.org/ns#"
   xmlns:rdf="http://www.w3.org/1999/02/22-rdf-syntax-ns#"
   xmlns:svg="http://www.w3.org/2000/svg"
   xmlns="http://www.w3.org/2000/svg"
   xmlns:sodipodi="http://sodipodi.sourceforge.net/DTD/sodipodi-0.dtd"
   xmlns:inkscape="http://www.inkscape.org/namespaces/inkscape"
   width="16"
   height="16"
   viewBox="0 0 1.6384 1.638171"
   preserveAspectRatio="xMinYMin meet"
   id="svg2"
   version="1.1"
   inkscape:version="0.91 r13725"
   sodipodi:docname="coffeescript.svg">
  <metadata
     id="metadata10">
    <rdf:RDF>
      <cc:Work
         rdf:about="">
        <dc:format>image/svg+xml</dc:format>
        <dc:type
           rdf:resource="http://purl.org/dc/dcmitype/StillImage" />
        <dc:title></dc:title>
      </cc:Work>
    </rdf:RDF>
  </metadata>
  <defs
     id="defs8" />
  <sodipodi:namedview
     pagecolor="#ffffff"
     bordercolor="#666666"
     borderopacity="1"
     objecttolerance="10"
     gridtolerance="10"
     guidetolerance="10"
     inkscape:pageopacity="0"
     inkscape:pageshadow="2"
     inkscape:window-width="1366"
     inkscape:window-height="705"
     id="namedview6"
     showgrid="false"
     inkscape:zoom="33.625"
     inkscape:cx="8"
     inkscape:cy="8"
     inkscape:window-x="-8"
     inkscape:window-y="-8"
     inkscape:window-maximized="1"
     inkscape:current-layer="svg2" />
  <path
     d="m 1.0266407,0.16003154 c -0.019872,-7e-5 -0.0409915,8.7e-4 -0.0633459,0.003 -0.2295103,0.0209 -0.2280191,0.12668 -0.38449909,0.14009 -0.0640832,0.006 -0.0998528,-0.009 -0.10581118,-0.0343 -0.004474,-0.0253 0.0268224,-0.0373 0.0640832,-0.0402 0.034272,-0.003 0.0760064,0.003 0.0953792,0.0134 0.0148992,-0.007 0.0193728,-0.0149 0.0178816,-0.0238 -0.005958,-0.0239 -0.0536512,-0.0343 -0.11326078,-0.0298 -0.11624318,0.0104 -0.11624318,0.0626 -0.11177598,0.0849 0.0119232,0.0596 0.10134398,0.0999 0.21162236,0.0894 0.15499518,-0.0134 0.19969918,-0.11327 0.38151677,-0.12966 0.089421,-0.007 0.1460543,0.0104 0.1520127,0.0417 0.00596,0.0298 -0.038746,0.0492 -0.092397,0.0537 -0.074515,0.007 -0.10581126,-0.0194 -0.11177602,-0.0447 -0.0551424,0.006 -0.0640832,0.0298 -0.0611008,0.0462 0.005958,0.0313 0.073024,0.0626 0.18777602,0.0522 0.1296575,-0.0104 0.1728767,-0.0611 0.1624447,-0.11326 -0.011738,-0.0587 -0.08965,-0.10823 -0.22875,-0.10873 z m -0.81296499,0.12065 c -0.0834624,0.0328 -0.12817277,0.0596 -0.12817277,0.10134 0.0044736,0.0462 0.07898878,0.0924 0.23099515,0.12817 0.14307197,0.0358 0.32638074,0.0551 0.54694391,0.0551 0.2250368,0 0.4038719,-0.0194 0.5469439,-0.0551 0.1520063,-0.0358 0.2250303,-0.0835 0.2250303,-0.12817 0,-0.0328 -0.032787,-0.0641 -0.092397,-0.0879 0.013414,0.009 0.023846,0.0239 0.023846,0.0402 0,0.0462 -0.068557,0.0835 -0.2071551,0.11475 -0.1281663,0.0283 -0.292096,0.0477 -0.49179515,0.0477 -0.19225591,0 -0.36363509,-0.0194 -0.48733427,-0.0462 -0.13263357,-0.0328 -0.20268156,-0.0686 -0.20268156,-0.11475 0,-0.0194 0.008947,-0.0358 0.035776,-0.0551 z m -0.11624957,0.23845 c 0.01236034,0.0834 0.03313162,0.16445 0.06044031,0.24182 -0.032405,0.0196 -0.06184074,0.046 -0.08875391,0.0801 -0.05066878,0.0641 -0.07302398,0.13859 -0.0685567789,0.21161996 0.004473599,0.073 0.0402367889,0.13263 0.0968703789,0.17883 0.05960959,0.0462 0.12369277,0.0596 0.19672316,0.0462 0.0283136,-0.004 0.0596096,-0.0194 0.0879232,-0.0283 -0.0596096,0 -0.11027838,-0.0194 -0.16095357,-0.0596 -0.055136,-0.0402 -0.0923968,-0.0969 -0.10133757,-0.16543 -0.0134144,-0.0641 0,-0.12368996 0.0357696,-0.17584996 0.007913,-0.01 0.01629,-0.0191 0.0251597,-0.0273 0.0204068,0.0502 0.0434996,0.0987 0.0687283,0.14505 0.0551424,0.0835 0.11027838,0.15647996 0.16542076,0.23546996 0.0238464,0.0462 0.0402368,0.0924 0.0506688,0.1386 0.0357696,0.0507 0.087936,0.0834 0.15201277,0.10134 0.0789888,0.0283 0.16095355,0.0402 0.24441592,0.0358 l 0.008934,0 c 0.0834559,0.004 0.17139199,-0.009 0.25186559,-0.0358 0.05961,-0.0194 0.1102783,-0.0507 0.1475391,-0.10134 l 0.00447,0 c 0.00894,-0.0462 0.023846,-0.0924 0.046202,-0.1386 0.055142,-0.079 0.1102848,-0.15201 0.1654208,-0.23546996 0.073024,-0.13264 0.1236992,-0.28465 0.1520127,-0.44709 -0.029805,0.0417 -0.098361,0.0775 -0.2220543,0.10581 -0.143072,0.0328 -0.3263743,0.0551 -0.5469439,0.0551 -0.22503038,0 -0.40833914,-0.0238 -0.55141111,-0.0551 -0.12816637,-0.0328 -0.19671036,-0.0686 -0.22056315,-0.10581 z"
     id="path3344"
     inkscape:connector-curvature="0" />
</svg>
