<svg xmlns="http://www.w3.org/2000/svg" viewBox="0 0 16 16">
 <path d="m15.976 10.177-5.7909 5.7793c-0.02316 0.0232-0.05791 0.0347-0.08107 0.0232l-7.9105-2.119c-0.03475-0.0116-0.05791-0.0347-0.05791-0.0579l-2.1311-7.8983c-0.01158-0.0347 0-0.0579 0.02316-0.0811l5.7909-5.7793c0.02316-0.0232 0.05791-0.0347 0.08107-0.0232l7.9103 2.1195c0.03475 0.0116 0.05791 0.0348 0.05791 0.0579l2.1195 7.8988c0.02316 0.0348 0.01158 0.0579-0.01158 0.0811zm-7.76-6.2885-7.7714 2.0731c-0.01158 0-0.02316 0.0232-0.01158 0.0348l5.6866 5.6751c0.01158 0.0116 0.03475 0.0116 0.03475-0.0116l2.0847-7.7598c0.01158 0-0.01158-0.0232-0.02316-0.0116z"/>
</svg>