<svg xmlns="http://www.w3.org/2000/svg" viewBox="0 0 16 16">
 <path d="m8.04 0c-0.0397 0-0.0816 0.001-0.127 0.004v-0.00018c-0.3256 0.0175-0.3803 0.0426-1.1428 0.48051-0.3268 0.18776-0.6489 0.3696-0.7142 0.40584-0.0654 0.0362-0.2207 0.12533-0.3442 0.19803-0.1235 0.0726-0.2641 0.1564-0.3149 0.1851-0.0841 0.0474-0.5289 0.301-2.0487 1.1753-0.2906 0.1671-0.5636 0.3258-0.6072 0.3506-0.0435 0.0248-0.3108 0.1772-0.5941 0.3409-0.2833 0.1638-0.56 0.323-0.6169 0.3539-0.1684 0.0914-0.4182 0.3563-0.513 0.5455-0.17484 0.3478-0.16238 0.1281-0.16238 3.9383 0 3.3579 0.002 3.5687 0.0747 3.7597 0.12401 0.32397 0.2812 0.53068 0.53246 0.7013 0.0846 0.0573 0.15891 0.10707 0.16556 0.10707 0.007 0 0.14281 0.0744 0.3052 0.1688 0.16258 0.0944 0.30019 0.17209 0.30517 0.17209 0.005 0 0.0863 0.0481 0.17858 0.10392 0.0923 0.0559 0.22039 0.13197 0.28572 0.16881 0.15061 0.0851 0.62269 0.35424 0.72725 0.41558 0.0435 0.0256 0.19889 0.11452 0.34417 0.19803 0.14529 0.0834 0.29734 0.17247 0.3409 0.19807 0.0936 0.055 0.7415 0.42614 0.91232 0.52272 0.0653 0.0369 0.19346 0.11304 0.28572 0.16884 0.0923 0.0559 0.17356 0.10057 0.17855 0.10057 0.005 0 0.10691 0.0592 0.22729 0.12984 0.12035 0.0707 0.27232 0.15823 0.33764 0.19478 0.0653 0.0366 0.37597 0.21168 0.68832 0.39286 0.68015 0.39445 0.73735 0.42241 1.0032 0.48375 0.1875 0.0436 0.24822 0.0464 0.43829 0.0133 0.14828-0.0261 0.41649-0.11601 0.47401-0.15906 0.0278-0.0208 0.26959-0.16174 0.50973-0.29546 0.0783-0.0436 0.38884-0.22172 0.68834-0.3961 0.2995-0.17436 0.59697-0.34637 0.6623-0.38311 0.10489-0.059 1.0472-0.59961 1.2565-0.72079 0.14911-0.0864 0.60648-0.34906 0.724-0.41555 0.0647-0.0366 0.17652-0.10259 0.24999-0.14614 0.15676-0.0931 0.27492-0.15925 0.43832-0.24999 0.0653-0.0362 0.22065-0.12516 0.34414-0.19804 0.12351-0.0726 0.2902-0.17058 0.37016-0.2143 0.08-0.0437 0.2058-0.11702 0.28243-0.16556 0.0765-0.0485 0.14595-0.0876 0.1526-0.0876 0.0489 0 0.31937-0.20806 0.43507-0.33439 0.16672-0.18209 0.27222-0.39954 0.32791-0.66558 0.0607-0.28938 0.0639-6.8244 0.003-7.1168-0.051-0.2477-0.167-0.4815-0.321-0.6527-0.165-0.1831-0.252-0.2409-0.987-0.6558-0.066-0.0369-0.261-0.1486-0.435-0.25-0.266-0.1543-1.56-0.9005-1.825-1.0519-0.044-0.0248-0.222-0.1258-0.396-0.2273-0.174-0.1014-0.37-0.2168-0.435-0.2532s-0.405-0.228-0.7534-0.42857c-0.3487-0.20054-0.815-0.46749-1.0357-0.59416-0.4324-0.24816-0.5985-0.31555-0.8763-0.31549zm0.004 3.2512c0.51253-0.00005 1.0271 0.0775 1.5095 0.2364 0.98945 0.32606 1.8771 1.0021 2.4578 1.8701 0.0818 0.1224 0.14614 0.23028 0.14614 0.24025 0 0.01-0.0657 0.055-0.14929 0.10075-0.0836 0.0457-0.20155 0.11169-0.25973 0.1461-0.0582 0.0344-0.22487 0.13086-0.37016 0.21431-0.14528 0.0835-0.29734 0.17243-0.34089 0.19803-0.12999 0.0763-0.59827 0.34487-0.74024 0.42533-0.0726 0.0411-0.14545 0.0744-0.16241 0.0746-0.0169 0.00018-0.059-0.0394-0.0909-0.0909-0.1544-0.2497-0.5091-0.5835-0.7956-0.7468-0.1702-0.097-0.4267-0.1982-0.6559-0.2597-0.2574-0.0683-0.8654-0.0589-1.1428 0.0166-1.1418 0.309-1.8851 1.3327-1.8052 2.4935 0.0416 0.60366 0.30465 1.1644 0.73375 1.5649 0.24818 0.23162 0.411 0.34327 0.66233 0.4578 0.33647 0.15343 0.56983 0.201 0.99673 0.20128 0.38591 0.00017 0.47306-0.0116 0.80519-0.12334 0.4575-0.15393 0.91391-0.49816 1.1753-0.88635 0.0539-0.0799 0.10954-0.13647 0.13315-0.13314 0.0223 0.003 0.48245 0.26296 1.0227 0.57468l0.98377 0.56815-0.0682 0.12019c-0.0938 0.16241-0.32071 0.46182-0.49025 0.64938-0.63334 0.70068-1.5106 1.2333-2.3604 1.435-0.0726 0.0173-0.17315 0.0419-0.22402 0.0552-0.0509 0.0133-0.17424 0.0337-0.27597 0.0487-0.20919 0.0306-0.82978 0.0572-1.0292 0.0422-0.93308-0.0698-1.8748-0.4297-2.5909-0.99023-0.2553-0.199-0.6685-0.613-0.8319-0.831-0.0653-0.087-0.1265-0.165-0.1332-0.172-0.007-0.007-0.0683-0.098-0.1363-0.201-0.3463-0.528-0.6022-1.2072-0.6948-1.8445-0.2977-2.0499 0.7229-4.0062 2.5876-4.961 0.5366-0.2747 1.1518-0.4334 1.7792-0.4773v-0.003-0.00044c0.11764-0.008 0.23581-0.0124 0.35408-0.0124zm4.0875 3.5907h0.60716v0.30195h0.60388v-0.30195h0.60715v0.30195h0.30196v0.60713h-0.30196v0.60391h0.30196v0.60712h-0.30196v0.30196h-0.60715v-0.30196h-0.60388v0.30196h-0.60716v-0.30196h-0.30192v-0.60712h0.30192v-0.60391h-0.30192v-0.60713h0.30192v-0.30195zm0.60716 0.90908v0.60391h0.60388v-0.60391h-0.60388z"/>
</svg>