<?xml version="1.0" encoding="UTF-8" standalone="no"?>
<svg
   xmlns:dc="http://purl.org/dc/elements/1.1/"
   xmlns:cc="http://creativecommons.org/ns#"
   xmlns:rdf="http://www.w3.org/1999/02/22-rdf-syntax-ns#"
   xmlns:svg="http://www.w3.org/2000/svg"
   xmlns="http://www.w3.org/2000/svg"
   xmlns:sodipodi="http://sodipodi.sourceforge.net/DTD/sodipodi-0.dtd"
   xmlns:inkscape="http://www.inkscape.org/namespaces/inkscape"
   width="16"
   height="16"
   viewBox="0 0 16 16"
   version="1.1"
   id="svg2"
   inkscape:version="0.91 r13725"
   sodipodi:docname="css3.svg">
  <metadata
     id="metadata28">
    <rdf:RDF>
      <cc:Work
         rdf:about="">
        <dc:format>image/svg+xml</dc:format>
        <dc:type
           rdf:resource="http://purl.org/dc/dcmitype/StillImage" />
        <dc:title>Slice 1</dc:title>
      </cc:Work>
    </rdf:RDF>
  </metadata>
  <sodipodi:namedview
     pagecolor="#ffffff"
     bordercolor="#666666"
     borderopacity="1"
     objecttolerance="10"
     gridtolerance="10"
     guidetolerance="10"
     inkscape:pageopacity="0"
     inkscape:pageshadow="2"
     inkscape:window-width="1366"
     inkscape:window-height="705"
     id="namedview26"
     showgrid="false"
     inkscape:zoom="0.56190476"
     inkscape:cx="254.88983"
     inkscape:cy="210"
     inkscape:window-x="-8"
     inkscape:window-y="-8"
     inkscape:window-maximized="1"
     inkscape:current-layer="svg2" />
  <title
     id="title4">Slice 1</title>
  <description>Created with Sketch (http://www.bohemiancoding.com/sketch)</description>
  <defs
     id="defs6" />
  <path
     style="fill:#000000;fill-rule:evenodd;stroke:none;stroke-width:1"
     d="M 0.94599925,0 2.2300271,14.40055 7.9913388,16 13.768862,14.39823 15.054001,0 0.94599925,0 Z m 2.63586525,2.81993 4.4181822,0 0.00611,0 4.4226293,0 -0.04233,0.47384 -0.428071,4.79928 -0.306626,3.42568 -0.02649,0.29838 -3.6146577,1.00186 0,1.9e-4 -0.00815,0.002 -3.6178071,-1.00436 -0.2474308,-2.77306 0.8171423,0 0.9557257,0 0.1258,1.40853 1.9670328,0.53118 0.00157,-4.6e-4 0,-1.9e-4 1.9699052,-0.53173 0.2058366,-2.29052 -2.1801879,0 0,2.8e-4 -1.9364635,0 -0.00565,0 -0.035387,-0.39695 -0.080501,-0.89541 -0.042242,-0.47384 2.1002442,0 0,-1.8e-4 2.3371142,0 0.161372,-1.80863 -2.4923725,0 -0.00611,0 -4.2544019,0 -0.00565,0 L 3.7046136,4.18888 3.6241126,3.29346 3.5818705,2.81962 Z"
     id="path11"
     inkscape:connector-curvature="0" />
</svg>
