<svg xmlns="http://www.w3.org/2000/svg" viewBox="0 0 16 16">
 <path d="m0.946 0 1.284 14.401 5.7613 1.599 5.7777-1.602 1.285-14.398h-14.108zm2.6359 2.8199h4.4182 0.00611 4.4226l-0.04233 0.47384-0.42807 4.7993-0.30663 3.4257-0.02649 0.29838-3.6147 1.0019v0.00019l-0.00815 0.002-3.6178-1.0044-0.24743-2.7731h0.81714 0.95573l0.1258 1.4085 1.967 0.53118 0.00157-0.00046v-0.00019l1.9699-0.53173 0.20584-2.2905h-2.1802v0.00028h-1.9365-0.00565l-0.035387-0.39695-0.080501-0.89541-0.042242-0.47384h2.1002v-0.00018h2.3371l0.16137-1.8086h-2.4924-0.00611-4.2544-0.00565l-0.0358-0.3969-0.0805-0.8954-0.0422-0.4739z"/>
</svg>