<svg xmlns="http://www.w3.org/2000/svg" viewBox="0 0 16 16">
 <path d="m15.027,2.5891a0.90908,0.83332,0,0,0,-0.84453,0.83424,0.90908,0.83332,0,1,0,1.8178,0,0.90908,0.83332,0,0,0,-0.97328,-0.83424zm-10.608,0.2781-4.0167,0.0051c-0.017273,0.0000959-0.034797-0.00207-0.051496,0-0.19699,0.0244-0.34952,0.1805-0.35017,0.3708l0.010326,9.7169c-0.00080245,0.01387-0.00083196,0.03248,0,0.04635-0.0022126,0.02307-0.0023602,0.03874,0,0.06179-0.00002065,0.0024-0.00002656,0.008,0,0.01033,0.0020651,0.0093,0.0073755,0.02174,0.010326,0.0309-0.00001918,0.0024-0.00002655,0.0028,0,0.0052,0.0020651,0.0093,0.0023601,0.01659,0.0051628,0.02576-0.00002065,0.0024-0.00002655,0.008,0,0.01032,0.0045728,0.0094,0.010031,0.0167,0.015444,0.02574-0.00001918,0.0024-0.00002508,0.0028,0,0.0052,0.0069329,0.0096,0.017849,0.02199,0.02574,0.0309-0.00001918,0.0024-0.00002508,0.0028,0,0.0052,0.0045728,0.0094,0.010031,0.0167,0.015444,0.02574-0.00001917,0.0024-0.00002507,0.008,0,0.01032,0.0095881,0.0074,0.020651,0.01416,0.030903,0.02059-0.00002065,0.0024-0.00002655,0.008,0,0.01032,0.00708,0.0072,0.012833,0.0089,0.020592,0.01544,0.002508,0.0024,0.007818,0.008,0.010326,0.01032,0.00708,0.0072,0.012833,0.01401,0.020592,0.02059,0.002508,0.000017,0.002655,0.000025,0.005163,0,0.018409,0.01552,0.035491,0.02909,0.056644,0.0412,0.002508,0.000018,0.007818,0.000025,0.010326,0,0.009736,0.005,0.020784,0.01121,0.030903,0.01544,0.002508,0.000018,0.002655,0.000025,0.005163,0,0.009736,0.005,0.020784,0.006,0.030903,0.01033,0.014751,0.0031,0.03136,0.0037,0.046347,0.0052,0.024486,0.0044,0.047159,0.01018,0.072088,0.01032h0.041199l3.7231-0.013c1.0638-0.0019,1.7745-0.01845,2.1989-0.07209,0.00251,0.000018,0.00782,0.000025,0.010326,0,0.40606-0.05641,0.83517-0.16228,1.3028-0.31412,0.81303-0.2542,1.5378-0.63126,2.1576-1.1329,0.60694-0.48597,1.0753-1.0573,1.4058-1.7045,0.21573-0.42242,0.36272-0.86244,0.43772-1.3132a2.8292,2.5935,0,0,0,2.997,-2.5895,2.8292,2.5935,0,0,0,-4.7739,-1.8795c-0.436-0.361-0.932-0.663-1.4882-0.8961-1.0237-0.434-2.3608-0.6312-4.0167-0.6282zm-0.17,2.0031c0.80959-0.00143,1.383,0.022082,1.7096,0.06694,0.33119,0.045492,0.69214,0.14515,1.0763,0.29353,0.38072,0.14506,0.71384,0.31956,0.99902,0.54071-0.0000191,0.00236-0.000025,0.00797,0,0.010326,0.78457,0.6006,1.157,1.3203,1.1587,2.2761,0.00177,0.97872-0.35836,1.7449-1.1226,2.3843-0.2351,0.19405-0.4943,0.35818-0.78274,0.49436-0.27261,0.12696-0.62724,0.23529-1.0763,0.32958-0.42348,0.08471-1.0684,0.13239-1.9054,0.13389l-1.7818,0.0052-0.010326-6.5296,1.7354-0.00516z"/>
</svg>