<svg xmlns="http://www.w3.org/2000/svg" viewBox="0 0 16 16">
 <path d="m12.989 4.0498c-0.256-0.2135-0.788-0.5054-1.343-0.6869l-0.366-1.0525-1.9501-1.9321c-0.49523-0.39181-0.83162-0.42966-1.2363-0.33444l-0.05854 0.01327-4.8012 3.4443-2.8871 4.7646c-0.064781 0.22244-0.079221 0.62401 0.37659 1.081l1.6972 1.7292 0.76957 0.28137 0.0074 0.04527 0.01756 0.07337 0.02341 0.09912 0.04449 0.16 0.0047 0.0016c0.21034 0.65016 0.63376 1.4326 1.0193 1.735l2.5378 2.528 5.9646-0.0359 0.71728-2.2677 2.1553-0.70245 0.0047-6.1936-2.6974-2.7505zm-4.6917-3.3913c0.05854-0.01366 0.10576-0.02381 0.14986-0.02381 0.04137 0 0.16703 0 0.45542 0.22517l1.8174 1.8033 0.18771 0.53972-6.3802 0.0012 3.7698-2.5456zm-4.4957 10.47-0.0055-6.8157 2.1347 2.1604 6.8173 6.829-1.4693 0.67045-7.4569-2.7278-0.02029-0.1163zm8.534 4.1928-5.2262 0.032-2.3751-2.363c-0.20098-0.15883-0.44801-0.55142-0.63845-0.95767l7.2067 2.6361 1.4431-0.64196-0.41015 1.2945zm2.7013-2.7961-1.1871 0.38713 0.61894-1.4256-2.5448-7.3234c0.27044 0.1241 0.50654 0.25912 0.62869 0.3602l2.489 2.5397-0.0047 5.4619z"/>
</svg>