<svg xmlns="http://www.w3.org/2000/svg" viewBox="0 0 16 16">
 <path d="M7.4945-2.016E-8c-0.0664,0.0095-0.0595,0.08884-0.0546,0.16969v3.8181c-1.8788-0.39932-3.6276,0.20957-4.4968,1.0788-1.7144,1.7145-1.5424,5.5642,0.62422,6.7755,1.6827,0.94088,4.0348,0.68634,6.4907,0.28484v-12.127h-2.5636zm4.1574,0,0,2.6787,2.5636,0,0-2.6787-2.5636,0zm0.006,4.0302c0,1.3071-0.0061,3.0285-0.0061,4.5089,0,1.4993,0.04363,3.0412-0.28484,4.1029-0.37768,1.2208-1.3041,1.6748-2.2787,2.2787,0.4178,0.12618,0.78973,0.37932,1.1939,0.56968,0.30781,0.14496,0.98979,0.52533,1.2545,0.50908,0.2626-0.01612,0.72695-0.38696,0.96967-0.56968,0.28902-0.21763,0.63125-0.52683,0.79391-0.73937,0.82476-1.0778,0.80022-2.8686,0.90906-5.121,0.000184-2.292,0.0032-3.6526,0.0061-5.5392h-2.5575zm-5.1998,1.9151c0.29755-0.0053,0.62858,0.03788,0.98179,0.14545v4.218c-1.8603,0.431-3.0265-0.5195-3.0181-2.1093,0.0064-1.2347,0.7469-2.2314,2.0363-2.2544z"/>
</svg>