<?xml version="1.0" encoding="UTF-8" standalone="no"?>
<!-- Created with Inkscape (http://www.inkscape.org/) -->

<svg
   xmlns:dc="http://purl.org/dc/elements/1.1/"
   xmlns:cc="http://creativecommons.org/ns#"
   xmlns:rdf="http://www.w3.org/1999/02/22-rdf-syntax-ns#"
   xmlns:svg="http://www.w3.org/2000/svg"
   xmlns="http://www.w3.org/2000/svg"
   xmlns:sodipodi="http://sodipodi.sourceforge.net/DTD/sodipodi-0.dtd"
   xmlns:inkscape="http://www.inkscape.org/namespaces/inkscape"
   width="16"
   height="16"
   viewBox="0 0 16 16"
   id="svg3714"
   version="1.1"
   inkscape:version="0.91 r13725"
   sodipodi:docname="dotnet1.svg">
  <defs
     id="defs3716" />
  <sodipodi:namedview
     id="base"
     pagecolor="#ffffff"
     bordercolor="#666666"
     borderopacity="1.0"
     inkscape:pageopacity="0.0"
     inkscape:pageshadow="2"
     inkscape:zoom="33.625"
     inkscape:cx="8"
     inkscape:cy="8"
     inkscape:document-units="px"
     inkscape:current-layer="layer1"
     showgrid="false"
     units="px"
     inkscape:window-width="1366"
     inkscape:window-height="705"
     inkscape:window-x="-8"
     inkscape:window-y="-8"
     inkscape:window-maximized="1" />
  <metadata
     id="metadata3719">
    <rdf:RDF>
      <cc:Work
         rdf:about="">
        <dc:format>image/svg+xml</dc:format>
        <dc:type
           rdf:resource="http://purl.org/dc/dcmitype/StillImage" />
        <dc:title></dc:title>
      </cc:Work>
    </rdf:RDF>
  </metadata>
  <g
     inkscape:label="Camada 1"
     inkscape:groupmode="layer"
     id="layer1"
     transform="translate(0,-1036.3622)">
    <path
       style="fill:#000000"
       d="m 8.43499,1036.7972 a 7.5650118,7.5650118 0 0 0 -7.44142,6.2421 c 0.70481,0.026 1.27593,0.6123 1.27593,1.3229 0,0.7123 -0.5739,1.3002 -1.28107,1.3231 a 7.5650118,7.5650118 0 0 0 7.44656,6.2419 7.5650118,7.5650118 0 0 0 7.56501,-7.565 7.5650118,7.5650118 0 0 0 -7.56501,-7.565 z m 2.28955,5.2737 0,0 0,0.8357 -1.60328,0 0,1.0193 1.49171,0.01 0.004,0.8317 -1.49575,0 0,1.0505 1.71039,0.01 -8e-5,0.8279 -2.74159,-0.01 2.8e-4,-4.5708 2.63427,0 z m 4.07113,0 -0.004,0.8318 -1.30815,0 -0.004,3.7448 -1.02702,0 0,-3.7489 -1.30037,0 0,-0.8278 3.64379,0 z m -11.87561,0 1.10745,0 2.05678,3.122 -0.0168,-3.122 0.97211,0 0,4.5806 -1.03765,0 -2.12125,-3.2451 0,3.2411 -0.96064,0 0,-4.5766 z m -1.97443,1.3417 A 0.94562648,0.94562648 0 0 0 0,1044.3582 a 0.94562648,0.94562648 0 0 0 0.94563,0.9456 0.94562648,0.94562648 0 0 0 0.94562,-0.9456 0.94562648,0.94562648 0 0 0 -0.94562,-0.9456 z"
       id="path3977"
       inkscape:connector-curvature="0" />
  </g>
</svg>
