<svg xmlns="http://www.w3.org/2000/svg" viewBox="0 0 16 16">
 <path d="m8.435 0.4a7.565 7.565 0 0 0 -7.4414 6.2421c0.70481 0.026 1.2759 0.6123 1.2759 1.3229 0 0.7123-0.5739 1.3002-1.2811 1.3231a7.565 7.565 0 0 0 7.4466 6.2419 7.565 7.565 0 0 0 7.565 -7.565 7.565 7.565 0 0 0 -7.565 -7.565zm2.2896 5.2737v0.8357h-1.6033v1.0193l1.4917 0.01 0.004 0.8317h-1.4958v1.0505l1.7104 0.01-0.00008 0.8279-2.7416-0.01 0.00028-4.5708h2.6343zm4.0711 0-0.004 0.8318h-1.3082l-0.004 3.7448h-1.027v-3.7489h-1.3004v-0.8278h3.6438zm-11.876 0h1.1074l2.0568 3.122-0.0168-3.122h0.97211v4.5806h-1.0376l-2.1212-3.2451v3.2411h-0.96064v-4.5766zm-1.9744 1.3417a0.94563 0.94563 0 0 0 -0.9456 1 0.94563 0.94563 0 0 0 0.94563 0.9456 0.94563 0.94563 0 0 0 0.94562 -0.9456 0.94563 0.94563 0 0 0 -0.94562 -0.9456z"/>
</svg>