<?xml version="1.0" encoding="UTF-8" standalone="no"?>
<svg
   xmlns:dc="http://purl.org/dc/elements/1.1/"
   xmlns:cc="http://creativecommons.org/ns#"
   xmlns:rdf="http://www.w3.org/1999/02/22-rdf-syntax-ns#"
   xmlns:svg="http://www.w3.org/2000/svg"
   xmlns="http://www.w3.org/2000/svg"
   xmlns:sodipodi="http://sodipodi.sourceforge.net/DTD/sodipodi-0.dtd"
   xmlns:inkscape="http://www.inkscape.org/namespaces/inkscape"
   viewBox="0 0 16 16"
   id="svg2"
   version="1.1"
   inkscape:version="0.91 r13725"
   sodipodi:docname="dotnet.svg"
   width="16"
   height="16">
  <metadata
     id="metadata10">
    <rdf:RDF>
      <cc:Work
         rdf:about="">
        <dc:format>image/svg+xml</dc:format>
        <dc:type
           rdf:resource="http://purl.org/dc/dcmitype/StillImage" />
        <dc:title />
      </cc:Work>
    </rdf:RDF>
  </metadata>
  <defs
     id="defs8" />
  <sodipodi:namedview
     pagecolor="#ffffff"
     bordercolor="#666666"
     borderopacity="1"
     objecttolerance="10"
     gridtolerance="10"
     guidetolerance="10"
     inkscape:pageopacity="0"
     inkscape:pageshadow="2"
     inkscape:window-width="1366"
     inkscape:window-height="705"
     id="namedview6"
     showgrid="false"
     inkscape:zoom="1.84375"
     inkscape:cx="28.74576"
     inkscape:cy="64"
     inkscape:window-x="-8"
     inkscape:window-y="-8"
     inkscape:window-maximized="1"
     inkscape:current-layer="svg2" />
  <path
     d="m 10.307415,9.8392477 c 0.06105,-0.157009 0.130246,-0.311596 0.18186,-0.471664 0.291588,-0.904456 0.580372,-1.809678 0.867244,-2.715664 0.110237,-0.348044 0.231052,-0.690736 0.447959,-0.989842 0.343074,-0.472683 0.820982,-0.720303 1.38657,-0.806836 0.221877,-0.0339 0.448341,-0.04958 0.672894,-0.05174 0.671238,-0.0064 1.34273,-0.0019 2.014096,-0.0013 0.03568,0 0.07137,0.0037 0.121962,0.0066 -0.01644,0.03874 -0.02536,0.06691 -0.03964,0.09227 -0.249149,0.445282 -0.493456,0.893241 -0.749997,1.334064 -0.446684,0.767456 -0.894134,1.534658 -1.354837,2.293703 -0.295538,0.486701 -0.616055,0.958364 -0.979647,1.39855 -0.268266,0.3247223 -0.550678,0.6351713 -0.910702,0.8627833 -0.245326,0.155097 -0.507347,0.245835 -0.804797,0.244306 -1.054965,-0.0057 -2.1099306,-0.0015 -3.1648966,-0.0031 -0.31363,-4.19e-4 -0.5821505,-0.119832 -0.810017,-0.331641 C 6.8588323,10.396297 6.6638458,10.01002 6.5042883,9.6027147 6.2132105,8.8590897 6.0502121,8.0796537 5.863127,7.3069727 5.775447,6.9452917 5.6757871,6.5864147 5.5808428,6.2265187 c -0.00612,-0.02332 -0.018097,-0.04511 -0.031861,-0.07863 l -0.073534,0.06907 c -0.4113831,0.408707 -0.773701,0.859088 -1.0979137,1.337888 -0.088317,0.1305 -0.1180114,0.302547 -0.1673315,0.457644 -0.1814776,0.569667 -0.3468975,1.144813 -0.5434132,1.709127 -0.188232,0.5406093 -0.5256987,0.9705993 -1.0531816,1.2247183 -0.3084099,0.14847 -0.6377203,0.228759 -0.9799024,0.236405 -0.5072196,0.01121 -1.0146941,0.01249 -1.5220411,0.01708 -0.1213249,0.0011 -0.1269324,-0.0088 -0.095327,-0.126168 0.2175437,-0.807728 0.4932009,-1.5948113 0.8385691,-2.3566603 0.3560732,-0.785935 0.7754852,-1.535422 1.3038602,-2.219914 0.3597691,-0.466056 0.7571336,-0.896045 1.2544127,-1.22115 0.2522079,-0.164783 0.5203461,-0.295029 0.8254426,-0.32931 0.050212,-0.0057 0.1010616,-0.0093 0.1515286,-0.0093 1.0804542,-5.1e-4 2.1609085,0.01045 3.2412352,-0.005 0.5794793,-0.0083 0.9990187,0.236405 1.3131627,0.702843 0.195369,0.290058 0.335173,0.606752 0.452802,0.933896 0.23717,0.659895 0.384621,1.344132 0.551187,2.023526 0.09533,0.388826 0.2014856,0.774975 0.3031846,1.162272 0.0076,0.02906 0.02001,0.05684 0.03033,0.08513 l 0.02536,-7.64e-4 z"
     id="path4"
     style="clip-rule:evenodd;fill:#000000;fill-rule:evenodd"
     inkscape:connector-curvature="0" />
</svg>
