<svg xmlns="http://www.w3.org/2000/svg" viewBox="0 0 16 16">
 <path d="m12.893 9.122c-0.024-0.0825-0.672-2.1096-0.943-2.7932-0.259-0.6482-0.624-1.5321-0.542-2.7578 0.047-0.5893 0.342-2.7696 0.66-3.571 0 0-2.8992 0.87212-5.8574 4.0189-0.70713 0.75427-4.9028 4.2899-3.0171 8.7566 0.5657 1.3435 1.8503 2.8757 4.7142 3.1821 1.6264 0.17678 4.2664-0.0354 5.2681-3.901 0.11786-0.41249 0.27107-1.0253-0.28285-2.9346zm-6.8235 6.058c-1.0136-0.059-1.2728-1.014-1.2728-1.014 1.0253 0.45963 1.3435 0.80141 1.3435 0.80141 0.094284 0.10607 0.011785 0.21214-0.070713 0.21214z"/>
</svg>