<svg xmlns="http://www.w3.org/2000/svg" viewBox="0 0 16 16">
 <path d="m 0.43920357,0 3.48269873,3.4827 7.5700757,0 L 8.0092792,0 0.43920357,0 z M 8.8861398,0 16,7.11231 16,0 8.8861398,0 z M 0,0.4392 0,15.5608 7.5607966,8 0,0.4392 z m 4.5420454,3.66364 3.4579548,3.45796 3.4564088,-3.45796 -6.9143636,0 z M 12.223468,4.21419 8.4376573,8 12.206457,11.76725 15.990721,7.98299 12.223468,4.21419 z M 8,8.4392 0.43920357,16 15.560797,16 8,8.4392 z M 16,8.85212 12.645661,12.20646 16,15.5608 16,8.85212 z"/>
</svg>