<svg xmlns="http://www.w3.org/2000/svg" viewBox="0 0 16 16">
 <path d="m13.908 2.93-0.0041 0.003h0.0063c-0.000752-0.001-0.0015-0.002-0.0022-0.003zm0.0022 0.003c0.78514 1.0675 1.2166 2.4378 1.1559 4.0678 0.01243 0.14902 0.01243 0.29296 0 0.60257h-9.3107c-0.0054 2.7423 0.9735 4.8729 3.4651 4.8814 1.712-0.008 2.9501-1.2753 3.7966-2.6516l2.4105 1.2052c-0.43422 0.77146-0.91339 1.4461-1.4481 2.0189h2.0206v-10.124h-2.09zm0.0694 10.124h-0.0051l0.0046 0.00057c0.000171-0.00018 0.000319-0.00039 0.00049-0.00057zm-11.8-10.125-0.0016 0.00065h-2.1779v10.124h2.5075l0.0016-0.00017c-1.2418-1.3159-1.9685-3.1339-1.9666-5.303-0.0017-1.9183 0.60097-3.5671 1.6371-4.8218zm5.9561 0.2417c-1.1478 0.003-2.1267 0.83748-2.2298 2.0791h4.2486c-0.02829-1.2416-0.86316-2.0766-2.0188-2.0791z"/>
</svg>