<svg xmlns="http://www.w3.org/2000/svg" viewBox="0 0 16 16">
 <path d="m7.8145 0c-1.1521 0.091796-2.006 0.27098-2.7129 0.61523-0.2846 0.13769-0.5376 0.30336-0.7578 0.49607-0.3398-0.21106-0.6938-0.26305-1.0196-0.16208-0.303 0.09181-0.5646 0.30789-0.7207 0.58789-0.156 0.28-0.19144 0.60155-0.085937 0.87695 0.1056 0.2754 0.34834 0.4919 0.71094 0.625-0.1148 0.4635-0.17439 0.95439-0.18359 1.4961-0.00918 0.52785 0.013084 0.94959 0.095703 1.9043 0.059669 0.71144 0.082617 1.0369 0.091797 1.4316-0.3121-0.0137-0.6233 0.0705-0.8574 0.2403-0.082619 0.059697-0.17353 0.16464-0.21484 0.26562-0.059669 0.12851-0.037306 0.24365 0.082031 0.3125 0.01836 0.22032 0.14189 0.32109 0.33008 0.30273 0.1377-0.013799 0.30303-0.088479 0.44531-0.18945 0.03213-0.022899 0.063573-0.040888 0.095703-0.054687 0.013769-0.005 0.02334-0.00887 0.037109-0.013672 0 0 0.02793-0.00887 0.037109-0.013672 0.013769-0.005 0.02793-0.00818 0.037109-0.017578-0.00918 0.21573-0.029003 0.43906-0.070312 0.95312-0.045899 0.57833-0.066992 0.89661-0.076172 1.25-0.041309 1.3127 0.11386 2.2661 0.58203 3.0234 0.14688 0.23867 0.32598 0.44981 0.53711 0.64258-0.041309 0.0275-0.2164 0.15596-0.27148 0.19726-0.19278 0.14687-0.32627 0.27247-0.4043 0.41016-0.10098 0.17901-0.099124 0.35672 0.015625 0.54492l0.00391 0.0059 0.00391 0.0039c0.050489 0.0505 0.07851 0.06445 0.11523 0.06445h0.00391 0.00977c0.00459 0.009 0.00908 0.01434 0.013672 0.02344 0.013769 0.023 0.027247 0.04216 0.041016 0.06055 0.11475 0.1331 0.27647 0.16369 0.49219 0.03516 0.11475-0.0597 0.19667-0.12852 0.37109-0.27539l0.00977-0.0078c0.27998-0.23868 0.4165-0.32724 0.62305-0.35938l0.074219-0.01367c0.02754 0.0138 0.055762 0.02331 0.087891 0.03711 0.65177 0.26163 1.4093 0.4041 2.1758 0.43164 0.99142 0.0367 1.9461-0.0871 2.7539-0.38086 0.21573-0.078 0.4166-0.1705 0.60938-0.27148 0.11934 0.0459 0.22128 0.14229 0.41406 0.36719 0.0092 0.009 0.0091 0.01013 0.01367 0.01953 0.0092 0.009 0.0091 0.01298 0.01367 0.01758 0.0092 0.0138 0.02207 0.02331 0.03125 0.03711 0.15147 0.17901 0.25244 0.26593 0.36719 0.31641 0.15147 0.0643 0.29776 0.03219 0.44922-0.10547 0.26622-0.16524 0.28574-0.42304 0.11133-0.7168-0.12393-0.20655-0.33906-0.42089-0.54102-0.55859 0.23868-0.23408 0.44482-0.51533 0.60547-0.83203 0.44063-0.88126 0.61074-1.9087 0.60156-3.2305-0.0046-0.46817-0.02373-0.87599-0.07422-1.6562v-0.023437c0.02295 0.009 0.04541 0.022617 0.06836 0.041016 0.14229 0.096396 0.30761 0.17373 0.44531 0.1875 0.18819 0.018399 0.31172-0.08241 0.33008-0.30273 0.11475-0.073397 0.1378-0.18789 0.07813-0.31641-0.046-0.0967-0.132-0.2063-0.215-0.266-0.211-0.1514-0.482-0.2349-0.762-0.2441-0.009-0.2846-0.019-0.5955-0.019-0.9902v-0.35938c-0.005-1.1279-0.01803-1.6226-0.08203-2.2422-0.051-0.4865-0.12828-0.93708-0.23828-1.3594 0.372-0.1423 0.61394-0.37679 0.71094-0.67969 0.091-0.28 0.04663-0.595-0.10938-0.875-0.161-0.2754-0.4188-0.48379-0.7168-0.56641-0.322-0.08719-0.67086-0.021725-1.0059 0.20312-0.299-0.25238-0.642-0.44487-1.028-0.59174-0.6838-0.25245-1.478-0.34961-2.5566-0.34961v0.046875l-0.00391-0.046875v-0.0019531zm0.00391 0.091797c1.0695 0 1.8507 0.095916 2.5254 0.34375 0.80782 0.29835 1.4092 0.82177 1.8223 1.625 0.26621 0.65176 0.42129 1.3543 0.50391 2.1621 0.06426 0.61505 0.07744 1.1099 0.08203 2.2344v0.35938c0.0046 0.55538 0.01416 0.94584 0.03711 1.3359 0.0092 0.15147 0.01416 0.21552 0.03711 0.57812 0.05049 0.78028 0.06963 1.1843 0.07422 1.6523 0.0092 1.3173-0.15771 2.3317-0.59375 3.1992-0.39473 0.79405-1.091 1.3538-2.0273 1.6934-0.7989 0.289-1.7451 0.40809-2.7227 0.37109-1.6845-0.06-3.1442-0.64681-3.8281-1.7578-0.459-0.739-0.60966-1.6787-0.56836-2.9727 0.013769-0.35342 0.032226-0.6717 0.078125-1.25 0.05049-0.65177 0.064356-0.83903 0.078125-1.1328 0.00918-0.21114 0.0085-0.42675 0.00391-0.65625-0.0091-0.4041-0.032197-0.72657-0.091797-1.4473-0.0827-0.9547-0.1049-1.3712-0.095703-1.8945 0.0137-0.6884 0.10408-1.2954 0.29688-1.8691 0.3121-0.9318 0.88669-1.5602 1.7129-1.9687 0.6931-0.33961 1.5329-0.51367 2.6758-0.60547zm4.2852 0.70898h0.002c0.0932-0.001794 0.18566 0.011325 0.27539 0.035156 0.27539 0.073397 0.51328 0.2664 0.66016 0.52344s0.19004 0.5457 0.10742 0.80273c-0.087 0.2708-0.30834 0.48673-0.65234 0.61523-0.069-0.2478-0.15214-0.49246-0.24414-0.72656 0.134-0.1147 0.1978-0.25698 0.0918-0.45898-0.105-0.2019-0.28856-0.22376-0.47656-0.16406-0.119-0.156-0.25362-0.29338-0.39063-0.42188 0.20737-0.13218 0.42153-0.20085 0.62695-0.20508zm-2.4063 0.060547c-0.8233 0.0148-1.6694 0.61038-1.6074 1.625v0.00586c0.1515 0.8905 0.94567 1.3441 1.8223 1.1973 0.3993-0.0688 0.75819-0.26228 0.99219-0.54688 0.257-0.3167 0.34828-0.72459 0.23828-1.1836-0.179-0.7691-0.80541-1.1091-1.4453-1.0977zm-6.0688 0.14067c0.20997-0.004 0.428 0.055398 0.64258 0.18164-0.1789 0.1607-0.34082 0.34497-0.47852 0.54688-0.2387-0.1239-0.48144-0.14693-0.61914 0.10547-0.1423 0.2708 0.023712 0.43986 0.25781 0.56836-0.0321 0.078-0.064197 0.16154-0.091797 0.24414-0.032101 0.101-0.064197 0.2069-0.091797 0.3125-0.335-0.1285-0.55594-0.32642-0.65234-0.57422-0.0964-0.2479-0.064869-0.54183 0.082031-0.79883 0.1469-0.2571 0.38532-0.45842 0.66992-0.54102 0.0918-0.0273 0.18585-0.043122 0.28125-0.044922zm2.3242 0.0136c-0.0762 0.0002-0.1519 0.0064-0.2285 0.0156-0.4085 0.0552-0.7853 0.2383-1.0332 0.5274-0.2754 0.3213-0.3814 0.744-0.2852 1.2305 0.4316 1.6891 3.1401 1.2803 3.0391-0.4317-0.0275-0.4774-0.2391-0.85-0.5879-1.084-0.2536-0.1716-0.574-0.2584-0.9043-0.2578zm2.9414 0.90234a0.43604 0.48194 0 0 1 0.43555 0.48047 0.43604 0.48194 0 0 1 -0.43555 0.48242 0.43604 0.48194 0 0 1 -0.4375 -0.48242 0.43604 0.48194 0 0 1 0.4375 -0.48047zm-3.7207 0.1192a0.44522 0.48194 0 0 1 0.4453 0.4805 0.44522 0.48194 0 0 1 -0.4453 0.4824 0.44522 0.48194 0 0 1 -0.4453 -0.4824 0.44522 0.48194 0 0 1 0.4453 -0.4805zm3.9141 0.34766a0.10098 0.12393 0 0 0 -0.09375 0.125 0.10098 0.12393 0 0 0 0.10156 0.12305 0.10098 0.12393 0 0 0 0.10156 -0.12305 0.10098 0.12393 0 0 0 -0.10156 -0.125 0.10098 0.12393 0 0 0 -0.00781 0zm-3.7207 0.1191a0.10557 0.12393 0 0 0 -0.097656 0.125 0.10557 0.12393 0 0 0 0.1055 0.1231 0.10557 0.12393 0 0 0 0.1055 -0.1231 0.10557 0.12393 0 0 0 -0.1055 -0.125 0.10557 0.12393 0 0 0 -0.00781 0zm2.6016 0.7676c-0.34537-0.004-0.70849 0.1672-0.70898 0.50391-0.38432 0.066097-0.64893 0.51679-0.45898 0.86133 0.07803 0.1377 0.18388 0.20762 0.32617 0.2168 0.00715 0.00031 0.014275-0.00006 0.021484 0-0.043855 0.22717-0.00822 0.50172 0.095703 0.68359 0.14688 0.25703 0.38368 0.26052 0.62695-0.033203 0.068849 0.13311 0.19882 0.2251 0.3457 0.24805h0.013672l0.013672-0.00391c0.018359-0.009 0.036229-0.013644 0.068359-0.027344 0.00459 0 0.00518-0.0008594 0.00977-0.00586 0.13311-0.045898 0.18848-0.082688 0.23438-0.16992l0.00391-0.00391v-0.00977c0.013769-0.082596 0.017578-0.16924 0.017578-0.26562 0-0.068797-0.00449-0.1332-0.013672-0.26172-0.00525-0.078697-0.0058-0.11798-0.00781-0.16016 0.058352 0.019899 0.10169 0.030156 0.1543 0.035156 0.13311 0.009 0.24795-0.035629 0.35352-0.15039 0.179-0.1975 0.16841-0.41002 0.00781-0.60742-0.1118-0.1408-0.29856-0.26858-0.50586-0.36328 0.0129-0.0429 0.015353-0.090025 0.00195-0.14062-0.0621-0.2288-0.3251-0.3422-0.5995-0.3456zm0.5585 0.5664c0.1957 0.09 0.3685 0.2106 0.4727 0.3398 0.1377 0.1652 0.14094 0.33023-0.00586 0.48633-0.0872 0.0964-0.1737 0.1296-0.2793 0.125-0.0826-0.0049-0.1367-0.028-0.3203-0.1015-0.1836-0.078-0.285-0.1048-0.4043-0.1094-0.1147-0.0138-0.2118 0.009-0.455 0.0918-0.023 0.009-0.041 0.013-0.0547 0.0176-0.335 0.1147-0.4954 0.1062-0.6055-0.0957-0.1609-0.2905 0.0742-0.6803 0.4043-0.7305 0.1449 0.3204 1.0268 0.28126 1.248-0.023437zm4.3359 4.0762c0.25704 0.005 0.51034 0.082305 0.70312 0.22461 0.06885 0.050498 0.15078 0.14589 0.1875 0.22852 0.0459 0.077997 0.03702 0.14814-0.04101 0.18945-0.0046 0-0.0091-0.00586-0.01367-0.00586-0.08262-0.027499-0.11113-0.046026-0.13867-0.078125l-0.07227 0.054688c0.04131 0.055096 0.08204 0.079165 0.17383 0.11133-0.01836 0.16523-0.09736 0.22471-0.23047 0.21094-0.11934-0.009-0.27382-0.082708-0.40234-0.16992-0.03672-0.027499-0.07461-0.046054-0.11133-0.064453-0.0046 0-0.0091-0.00586-0.01367-0.00586-0.019-0.2525-0.01834-0.31612-0.02734-0.44922l-0.01367-0.24609zm-9.7344 0.052734c0.036575-0.0006899 0.072652 0.0000031 0.10938 0.00195 0 0.11474 0.00459 0.22968 0 0.33984 0 0.013799 0.0006838 0.021357-0.00391 0.035156-0.00459 0.064297-0.00518 0.092876-0.00977 0.125-0.013769 0.1331-0.02373 0.15088-0.074219 0.17383-0.00459 0-0.03125 0.00887-0.03125 0.013672-0.013769 0.005-0.027246 0.010132-0.041016 0.019531-0.036719 0.013799-0.074605 0.034901-0.11133 0.0625-0.1283 0.0917-0.2846 0.1607-0.404 0.1699-0.1377 0.0138-0.2147-0.0456-0.2285-0.2109 0.0964-0.0321 0.1371-0.0543 0.1738-0.1094l-0.072266-0.054687c-0.02754 0.036698-0.056049 0.050627-0.13867 0.078125-0.00459 0-0.00518-0.00109-0.00977 0.00391-0.0734-0.0412-0.086322-0.10547-0.044922-0.19727 0.0367-0.0826 0.1187-0.17802 0.1875-0.22852 0.1928-0.1405 0.44312-0.21786 0.69922-0.22266zm8.5859 6.5508c0.19278 0.14229 0.408 0.3534 0.52734 0.55078 0.14229 0.23868 0.13799 0.43134-0.04102 0.56445-0.01377-0.0276-0.02266-0.05959-0.04102-0.10547 0-0.005 0.000694-0.0038-0.0039-0.0078-0.06426-0.17441-0.10556-0.24941-0.18359-0.33203l-0.06445 0.06445c0.06885 0.0643 0.0998 0.13427 0.16406 0.29492 0 0.005 0.0013 0.0038 0.0059 0.0078 0.02295 0.0597 0.03701 0.09679 0.05078 0.12891-0.11934 0.10098-0.22578 0.1189-0.33594 0.06836-0.09639-0.0413-0.1871-0.12772-0.33398-0.29297-0.0092-0.009-0.02012-0.02331-0.0293-0.03711-0.0046-0.005-0.0091-0.0082-0.01367-0.01758-0.0092-0.009-0.0091-0.01013-0.01367-0.01953-0.16982-0.19736-0.27071-0.30166-0.38086-0.36133 0.25704-0.14688 0.48681-0.31308 0.69336-0.50586zm-7.4531 0.12891c0.24786 0.21114 0.53613 0.39542 0.85742 0.54688 0 0.005 0.00518 0.0089 0.00977 0.01367-0.18819 0.0459-0.33476 0.14102-0.5918 0.36133l-0.00977 0.0098c-0.16983 0.14687-0.25185 0.20596-0.35742 0.26562-0.17442 0.10556-0.29433 0.08342-0.37695-0.01758-0.013769-0.0138-0.02207-0.03308-0.03125-0.04687-0.00459-0.005-0.011036-0.01298-0.015625-0.01758v-0.0059c0.00918-0.0826 0.042377-0.141 0.125-0.26953 0.00459-0.005 0.00391-0.0058 0.00391-0.0098 0.050489-0.0734 0.074707-0.11357 0.097656-0.16406l-0.083984-0.03711c-0.01836 0.0413-0.040038 0.07693-0.085937 0.15039-0.00459 0.005-0.00586 0.0058-0.00586 0.0098-0.082618 0.11934-0.11836 0.19276-0.13672 0.27539h-0.00586-0.00391-0.00977c-0.00918-0.005-0.022657-0.0149-0.041016-0.0332-0.17901-0.28458-0.036728-0.52715 0.36719-0.83008 0.050489-0.0367 0.22168-0.15663 0.26758-0.19336 0.00918 0 0.018164-0.0038 0.027344-0.0078z"/>
</svg>