<svg xmlns="http://www.w3.org/2000/svg" viewBox="0 0 16 16">
 <path d="m7.8166-0.000011538c-1.1558 0.0928-2.0052 0.2692-2.7061 0.61269-0.8355 0.41312-1.4157 1.049-1.7314 1.9912-0.19495 0.5802-0.28778 1.193-0.3017 1.8892-0.00928 0.52915 0.013924 0.95151 0.097473 1.917 0.060342 0.72874 0.083548 1.0536 0.092832 1.4621 0.00464 0.23208 0.00464 0.45023-0.00464 0.66375-0.013925 0.29706-0.027849 0.48744-0.078907 1.1466-0.046416 0.58485-0.064982 0.9051-0.078907 1.2625-0.041775 1.3089 0.11139 2.2604 0.57556 3.0077 0.69161 1.1233 2.1677 1.7175 3.8712 1.7778 0.98867 0.0371 1.9448-0.0836 2.7525-0.37597 0.9469-0.34348 1.6525-0.90983 2.0517-1.7128 0.44096-0.87728 0.60805-1.903 0.59876-3.2352-0.0046-0.47344-0.02321-0.88197-0.07427-1.6711-0.02321-0.36669-0.02785-0.43166-0.03713-0.58483-0.02321-0.39455-0.03249-0.78907-0.03713-1.3507v-0.36205c-0.0046-1.1372-0.01857-1.6385-0.08355-2.2604-0.08355-0.81693-0.24136-1.5272-0.51057-2.1863-0.418-0.8124-1.026-1.3415-1.843-1.6432-0.6819-0.25064-1.4709-0.34811-2.5524-0.34811zm4.3334 0.71753c-0.20883 0.004-0.42382 0.0721-0.63444 0.20614 0.13925 0.12997 0.27385 0.26921 0.39454 0.42703 0.19031-0.0603 0.37597-0.0371 0.48272 0.1671 0.10676 0.20423 0.04178 0.34811-0.09283 0.46415 0.09283 0.23673 0.17638 0.48272 0.246 0.73337 0.34812-0.12996 0.57091-0.34811 0.6591-0.62197 0.08355-0.25993 0.04178-0.55234-0.10676-0.81228-0.14853-0.25993-0.38989-0.45487-0.66839-0.52914-0.09138-0.0247-0.18503-0.0362-0.27995-0.0344zm-2.4352 0.0598c0.64756-0.0116 1.2823 0.33257 1.463 1.1103 0.1114 0.46416 0.01857 0.87725-0.24136 1.1975-0.23672 0.28779-0.59876 0.48273-1.0026 0.55235-0.88656 0.14853-1.6896-0.31097-1.8428-1.2114v-0.005c-0.062662-1.0261 0.79116-1.6292 1.6237-1.6441zm-6.1352 0.14398c-0.096516 0.002-0.19167 0.0166-0.2845 0.0441-0.28778 0.0836-0.52914 0.28777-0.67767 0.5477-0.14853 0.25994-0.18102 0.55699-0.083549 0.80764 0.097475 0.25065 0.32026 0.45032 0.6591 0.58029 0.02785-0.10676 0.06034-0.2136 0.092832-0.31572 0.02785-0.0836 0.06034-0.1671 0.092832-0.24601-0.23672-0.12996-0.40382-0.30169-0.25993-0.57555 0.13925-0.25529 0.38525-0.23208 0.62661-0.10676 0.13925-0.20423 0.3017-0.38989 0.48272-0.55235-0.2166-0.1276-0.4357-0.1872-0.648-0.18334zm2.3505 0.0139c0.33401-0.0006 0.65785 0.0871 0.9143 0.26057 0.35277 0.23672 0.56627 0.61268 0.59412 1.0954 0.10212 1.7313-2.6365 2.1444-3.0728 0.43631-0.097475-0.49202 0.00937-0.91903 0.28787-1.244 0.25065-0.29242 0.63125-0.47817 1.0444-0.53387 0.077458-0.01 0.15509-0.0143 0.23217-0.0145zm2.9737 0.9107a0.44096 0.48737 0 0 0 -0.44095 0.48737 0.44096 0.48737 0 0 0 0.44095 0.48736 0.44096 0.48737 0 0 0 0.44104 -0.48736 0.44096 0.48737 0 0 0 -0.44104 -0.48737zm-3.7624 0.12041a0.45024 0.48737 0 0 0 -0.45023 0.48737 0.45024 0.48737 0 0 0 0.45023 0.48736 0.45024 0.48737 0 0 0 0.45023 -0.48736 0.45024 0.48737 0 0 0 -0.45023 -0.48737zm3.9666 0.35303a0.10212 0.12532 0 0 1 0.10212 0.12533 0.10212 0.12532 0 0 1 -0.10212 0.12532 0.10212 0.12532 0 0 1 -0.10211 -0.12532 0.10212 0.12532 0 0 1 0.10211 -0.12533zm-3.7624 0.12041a0.10676 0.12532 0 0 1 0.10676 0.12532 0.10676 0.12532 0 0 1 -0.10676 0.12533 0.10676 0.12532 0 0 1 -0.10676 -0.12533 0.10676 0.12532 0 0 1 0.10676 -0.12532zm2.6219 0.77624c0.27746 0.003 0.54391 0.11852 0.60686 0.35003 0.013579 0.0511 0.012144 0.0983-0.00091 0.1417 0.20962 0.0958 0.39843 0.22651 0.51148 0.36887 0.16246 0.19959 0.17174 0.4131-0.00928 0.61269-0.10676 0.11604-0.22279 0.16245-0.3574 0.15317-0.076797-0.007-0.13313-0.0244-0.24782-0.0694 0.00131 0.0505 0.00503 0.10402 0.012741 0.20423 0.00928 0.12532 0.013925 0.1903 0.013925 0.26457 0 0.0882-0.00464 0.1671-0.018566 0.24136-0.032491 0.0557-0.074263 0.0836-0.18566 0.12068-0.00464 0-0.00464 0-0.00928 0.005-0.02785 0.009-0.046415 0.0186-0.06034 0.0232-0.12532-0.0232-0.23208-0.10675-0.28314-0.22279-0.013925-0.12533-0.013925-0.25529-0.00464-0.42703 0.00464-0.0464 0.00464-0.0789 0.013924-0.16245 0.00741-0.0852 0.011066-0.14144 0.01256-0.19231-0.035855-0.003-0.073643-0.001-0.12004 0.008-0.00357 0.0456-0.00661 0.0856-0.013197 0.16137-0.00464 0.0836-0.00928 0.11604-0.013925 0.16245-0.00928 0.17174-0.00928 0.3017 0.00464 0.43167-0.21816 0.2785-0.38989 0.2785-0.50593 0.0696-0.096791-0.16938-0.1269-0.44029-0.078361-0.65155-0.041624 0.006-0.080274 0.008-0.11822 0.006-0.14389-0.009-0.25064-0.0789-0.32955-0.21815-0.19211-0.34849 0.075953-0.80429 0.4647-0.87107 0.0005331-0.34046 0.3662-0.51367 0.71544-0.50939zm0.56545 0.572c-0.22366 0.30809-1.1157 0.34778-1.2622 0.0238-0.33386 0.0507-0.57176 0.44458-0.4091 0.73828 0.1114 0.20423 0.27385 0.21352 0.61269 0.0975 0.013925-0.005 0.032491-0.009 0.055699-0.0186 0.24601-0.0836 0.34348-0.10676 0.45952-0.0928 0.12068 0.005 0.22279 0.0325 0.40846 0.11139 0.18567 0.0743 0.24136 0.0975 0.32491 0.10212 0.10676 0.005 0.19495-0.0279 0.28314-0.12532 0.14853-0.15782 0.14389-0.32491 0.00464-0.49201-0.10535-0.13064-0.27979-0.25328-0.47772-0.3443zm4.3848 4.1214 0.01393 0.25065c0.0093 0.13461 0.0093 0.19958 0.02785 0.45487 0.0046 0 0.0093 0.005 0.01393 0.005 0.03713 0.0186 0.07426 0.0371 0.1114 0.065 0.12997 0.0882 0.28778 0.16254 0.40846 0.17183 0.13461 0.0139 0.21351-0.0465 0.23208-0.21361-0.09283-0.0325-0.1346-0.0557-0.17638-0.1114l0.07427-0.0557c0.02785 0.0325 0.0557 0.0511 0.13925 0.0789 0.0046 0 0.0093 0.005 0.01393 0.005 0.07891-0.0418 0.08819-0.11139 0.04177-0.1903-0.03713-0.0835-0.12068-0.18102-0.1903-0.23208-0.19495-0.14389-0.45023-0.2228-0.71016-0.22744zm-9.8448 0.0533c-0.25892 0.005-0.51075 0.083-0.7057 0.22516-0.069625 0.0511-0.15317 0.14853-0.1903 0.23208-0.041775 0.0928-0.027851 0.15781 0.046416 0.19958 0.00464-0.005 0.00464-0.005 0.00928-0.005 0.08355-0.0279 0.1114-0.0418 0.13925-0.0789l0.074265 0.0557c-0.037133 0.0557-0.078905 0.0789-0.17638 0.11139 0.013925 0.1671 0.092829 0.22753 0.23208 0.21361 0.12068-0.009 0.27849-0.079 0.40846-0.17183 0.037133-0.0279 0.074265-0.0511 0.1114-0.065 0.013925-0.009 0.027849-0.0139 0.041774-0.0186 1e-7 -0.005 0.027849-0.0139 0.032491-0.0139 0.051058-0.0232 0.06034-0.0418 0.074265-0.17638 0.00464-0.0325 0.00464-0.0603 0.00928-0.12532 0.00464-0.0139 0.00464-0.0232 0.00464-0.0371 0.00464-0.1114 0-0.22744 0-0.34348-0.037133-0.002-0.074228-0.003-0.11122-0.002zm8.6844 6.626c-0.20887 0.19495-0.44095 0.36213-0.70088 0.51066 0.1114 0.0603 0.21351 0.1671 0.38525 0.36669 0.0046 0.009 0.0046 0.009 0.01393 0.0186 0.0046 0.009 0.0093 0.0139 0.01392 0.0186 0.0093 0.0139 0.01857 0.0279 0.02785 0.0371 0.14853 0.1671 0.24136 0.25529 0.33884 0.29706 0.1114 0.0511 0.21815 0.0325 0.33884-0.0696-0.01392-0.0325-0.02785-0.0696-0.05106-0.12996-0.0046-0.005-0.0046-0.005-0.0046-0.009-0.06498-0.16245-0.09747-0.23207-0.1671-0.29706l0.06498-0.065c0.07891 0.0836 0.12068 0.15781 0.18566 0.33419 0.0046 0.005 0.0046 0.005 0.0046 0.009 0.01857 0.0464 0.02785 0.0789 0.04177 0.10675 0.18102-0.1346 0.18567-0.32954 0.04178-0.57091-0.12068-0.19959-0.33883-0.41319-0.53378-0.55708zm-7.5381 0.12996c-0.00928 0.005-0.018566 0.009-0.02785 0.009-0.046417 0.0371-0.21815 0.1579-0.26921 0.19503-0.40847 0.30635-0.55235 0.55235-0.37133 0.84013 0.018567 0.0186 0.032491 0.0279 0.041774 0.0325h0.00928 0.00464 0.00464c0.018567-0.0836 0.055698-0.15781 0.13925-0.27849 0-0.005 0-0.005 0.00464-0.009 0.046417-0.0743 0.069623-0.11139 0.08819-0.15317l0.083549 0.0371c-0.023208 0.0511-0.046415 0.0928-0.097473 0.1671 0 0.005 0 0.005-0.00464 0.009-0.08355 0.12997-0.11604 0.19031-0.12532 0.27386v0.005c0.00464 0.005 0.00928 0.0139 0.013925 0.0186 0.00928 0.0139 0.018566 0.0325 0.032491 0.0464 0.08355 0.10212 0.20423 0.12532 0.38061 0.0186 0.10676-0.0603 0.1903-0.12068 0.36204-0.26921l0.00928-0.009c0.25993-0.2228 0.40855-0.32027 0.59886-0.36668-0.00464-0.005-0.00928-0.009-0.00928-0.0139-0.32492-0.15317-0.61742-0.33892-0.86807-0.55244z"/>
</svg>