<?xml version="1.0" encoding="UTF-8" standalone="no"?>
<svg
   xmlns:dc="http://purl.org/dc/elements/1.1/"
   xmlns:cc="http://creativecommons.org/ns#"
   xmlns:rdf="http://www.w3.org/1999/02/22-rdf-syntax-ns#"
   xmlns:svg="http://www.w3.org/2000/svg"
   xmlns="http://www.w3.org/2000/svg"
   xmlns:sodipodi="http://sodipodi.sourceforge.net/DTD/sodipodi-0.dtd"
   xmlns:inkscape="http://www.inkscape.org/namespaces/inkscape"
   id="Layer_1"
   data-name="Layer 1"
   viewBox="0 0 16 16"
   version="1.1"
   inkscape:version="0.91 r13725"
   sodipodi:docname="go.svg"
   width="16"
   height="16">
  <metadata
     id="metadata51">
    <rdf:RDF>
      <cc:Work
         rdf:about="">
        <dc:format>image/svg+xml</dc:format>
        <dc:type
           rdf:resource="http://purl.org/dc/dcmitype/StillImage" />
        <dc:title>go-mascot</dc:title>
      </cc:Work>
    </rdf:RDF>
  </metadata>
  <sodipodi:namedview
     pagecolor="#ffffff"
     bordercolor="#666666"
     borderopacity="1"
     objecttolerance="10"
     gridtolerance="10"
     guidetolerance="10"
     inkscape:pageopacity="0"
     inkscape:pageshadow="2"
     inkscape:window-width="1366"
     inkscape:window-height="705"
     id="namedview49"
     showgrid="false"
     inkscape:zoom="0.67968435"
     inkscape:cx="212.50727"
     inkscape:cy="266.29804"
     inkscape:window-x="-8"
     inkscape:window-y="-8"
     inkscape:window-maximized="1"
     inkscape:current-layer="Layer_1" />
  <defs
     id="defs3">
    <style
       id="style5">.cls-1{fill:#f6d2a2;}.cls-2{fill:#69d7e2;}.cls-3{fill:#fff;}.cls-4{fill:#231f20;}</style>
  </defs>
  <title
     id="title7">go-mascot</title>
  <path
     style="fill:#000000;stroke:none"
     d="M 7.815085,-1.2431379e-4 C 6.478875,0.10651569 5.210335,0.35273569 4.323395,1.1270157 c -1.43172,-0.92357001 -2.7526,1.29306 -1.07145,1.85175 -0.4198,1.63002 -0.0406,3.28917 -0.005,4.94817 l -1.00144,0.7324 c 0.0232,0.4757 0.49887,0.25403 0.71122,0.10613 0.20307,-0.14326 0.26335,-0.0232 0.28189,-0.30001 a 4.3758266,4.3758266 0 0 0 0.0102,-0.18482 c -9.8e-4,0.0846 -0.003,0.16929 -0.006,0.25392 -0.0691,1.6718803 -0.50998,3.9117303 0.42008,5.4125303 0.16248,0.26465 0.36425,0.49367 0.59367,0.69175 -0.019,0.002 -0.0381,0.005 -0.0577,0.009 -0.33104,0.2448 -0.9695,0.60509 -0.65561,1.09933 0.083,0.083 0.0784,0.0366 0.1294,0.0598 0.0278,0.0556 0.15718,0.3186 0.49425,0.12017 0.36024,-0.19659 0.60036,-0.58465 1.02969,-0.6491 l 0,-0.002 c -0.0186,-0.0242 -0.038,-0.0494 -0.0571,-0.0744 0.75744,0.35408 1.6316,0.50909 2.41201,0.53754 1.11496,0.0402 2.37725,-0.11551 3.38004,-0.65861 0.45985,0.14207 0.75503,1.14745 1.28044,0.6683 0.54941,-0.3329 -0.12012,-1.01625 -0.48501,-1.2425 l 0,4.6e-4 c -3.2e-4,5e-5 -6e-4,1.4e-4 -9e-4,1.9e-4 0.25692,-0.24584 0.47726,-0.53464 0.64728,-0.87367 0.75782,-1.50297 0.63338,-3.34163 0.52495,-5.0023303 0.0378,0.0134 0.0844,0.0321 0.14497,0.0748 0.21235,0.1479 0.68804,0.36947 0.71122,-0.10622 l -0.86905,-0.16961 c -0.006,-0.0927 -0.0124,-0.18741 -0.0178,-0.27872 -0.10617,-1.79645 0.0926,-3.62021 -0.37408,-5.35223 1.64857,-0.58191 0.36009,-2.84023001 -1.07624,-1.84342001 C 10.475205,0.14795569 9.177505,-4.3137944e-6 7.815335,-4.3137944e-6 Z M 9.708665,0.81034569 c 0.64427,-0.0115 1.27584,0.33101001 1.45576,1.10485001 l 4.6e-4,4.7e-4 c 0.11081,0.46178 0.0186,0.87308 -0.24015,1.1916 -0.23553,0.28607 -0.59575,0.48032 -0.99773,0.5494 -0.8823,0.1479 -1.68119,-0.30971 -1.83373,-1.20546 l 0,-0.005 c -0.0623,-1.02128 0.78705,-1.62142001 1.6154,-1.63623001 z m -3.7658,0.15702 c 0.33226,-6.3e-4 0.65468,0.0868 0.90971,0.25935001 0.35098,0.23553 0.56332,0.60967 0.59114,1.09 l -0.002,-9e-4 c 0.10153,1.72242 -2.62325,2.13364 -3.05721,0.43393 -0.0969,-0.4896 0.008,-0.91333 0.28651,-1.23788 0.25129,-0.28977 0.63059,-0.47901 1.04138,-0.53001001 0.077,-0.01 0.15415,-0.0143 0.23082,-0.0145 z m 2.95851,0.90609001 a 0.43860266,0.48496658 0 0 0 -0.43856,0.48501 0.43860266,0.48496658 0 0 0 0.43856,0.48492 0.43860266,0.48496658 0 0 0 0.43865,-0.48492 0.43860266,0.48496658 0 0 0 -0.43865,-0.48501 z m -3.74343,0.12007 a 0.44787544,0.48496658 0 0 0 -0.44789,0.48501 0.44787544,0.48496658 0 0 0 0.44789,0.48492 0.44787544,0.48496658 0 0 0 0.44788,-0.48492 0.44787544,0.48496658 0 0 0 -0.44788,-0.48501 z m 3.94654,0.35144 a 0.10153698,0.12471894 0 0 1 0.10151,0.12479 0.10153698,0.12471894 0 0 1 -0.10151,0.12469 0.10153698,0.12471894 0 0 1 -0.1016,-0.12469 0.10153698,0.12471894 0 0 1 0.1016,-0.12479 z m -3.74343,0.11963 a 0.10617337,0.12471894 0 0 1 0.10613,0.12469 0.10617337,0.12471894 0 0 1 -0.10613,0.12478 0.10617337,0.12471894 0 0 1 -0.10622,-0.12478 0.10617337,0.12471894 0 0 1 0.10622,-0.12469 z m 2.60851,0.77234 c 0.27103,0.003 0.53094,0.11399 0.59975,0.33595 0.24689,0.10374 0.47444,0.25002 0.62011,0.43313 0.0953,0.11701 0.15449,0.25115 0.1544,0.39228 -9e-5,0.14042 -0.0611,0.27793 -0.16717,0.39581 -0.11532,0.13853 -0.2906,0.21346 -0.47052,0.20022 l -10e-4,-9e-5 -0.002,-1.9e-4 c -0.0461,-0.004 -0.0881,-0.0135 -0.13366,-0.0264 3.2e-4,0.005 4.6e-4,0.007 8.2e-4,0.0122 l -9.1e-4,-4.6e-4 c 0.009,0.12935 0.014,0.19425 0.014,0.26333 a 1.6269099,1.6269099 0 0 1 -0.0186,0.26804 l 0,0.009 -0.005,0.005 c -0.0464,0.0881 -0.10155,0.12469 -0.23554,0.17106 -0.005,0.005 -0.005,0.005 -0.009,0.005 -0.032,0.0139 -0.0505,0.0185 -0.069,0.0278 l -0.0139,0.005 -0.0139,0 a 0.47244832,0.47244832 0 0 1 -0.34628,-0.24938 c -0.2448,0.2958 -0.48498,0.29112 -0.63288,0.0324 -0.0841,-0.14701 -0.1229,-0.35445 -0.1122,-0.54894 -0.004,-9e-5 -0.008,9e-5 -0.0121,-9e-5 l -4.6e-4,0 -4.6e-4,-9e-5 c -0.19,-0.01 -0.36002,-0.12186 -0.44408,-0.29231 -0.24453,-0.45346 0.10613,-1.0216 0.61106,-1.07398 0.0867,-0.24399 0.3938,-0.36708 0.68858,-0.36349 z m 0.60301,0.48944 c -0.12053,0.39904 -1.26125,0.45963 -1.31522,0.0388 -3.2e-4,-0.007 2.8e-4,-0.0141 2.8e-4,-0.0212 -0.38704,0.0665 -0.65369,0.52009 -0.46445,0.86688 a 0.3857478,0.3857478 0 0 0 0.3278,0.21697 c 0.10618,0.005 0.21704,-0.0185 0.38812,-0.0783 0.0139,-0.005 0.0324,-0.009 0.0556,-0.0186 0.23182,-0.0784 0.32455,-0.10156 0.41728,-0.0876 l 0.005,0 c 0.11081,0 0.20307,0.0324 0.37879,0.10151 0.1938,0.0784 0.25409,0.10157 0.35099,0.11084 a 0.4200571,0.4200571 0 0 0 0.35561,-0.1525 c 0.17989,-0.19843 0.17114,-0.41126 0.009,-0.6097 -0.11248,-0.14174 -0.30025,-0.27143 -0.50874,-0.36702 z m -0.32066,1.89721 -0.0283,0.0165 c 0.006,-0.002 0.0181,-0.007 0.0264,-0.0102 l 0.002,-0.006 z"
     id="path9"
     inkscape:connector-curvature="0" />
  <path
     d="M 254.2,-150.63"
     id="path19"
     inkscape:connector-curvature="0" />
</svg>
