<svg xmlns="http://www.w3.org/2000/svg" viewBox="0 0 16 16">
 <path d="m7.8151-0.00012431c-1.3362 0.10664-2.6048 0.35286-3.4917 1.1271-1.4317-0.92357-2.7526 1.2931-1.0714 1.8518-0.4198 1.63-0.0406 3.2892-0.005 4.9482l-1.0014 0.7324c0.0232 0.4757 0.49887 0.25403 0.71122 0.10613 0.20307-0.14326 0.26335-0.0232 0.28189-0.30001a4.3758 4.3758 0 0 0 0.0102 -0.18482c-0.00098 0.0846-0.003 0.16929-0.006 0.25392-0.0691 1.6719-0.50998 3.9117 0.42008 5.4125 0.16248 0.26465 0.36425 0.49367 0.59367 0.69175-0.019 0.002-0.0381 0.005-0.0577 0.009-0.33104 0.2448-0.9695 0.60509-0.65561 1.0993 0.083 0.083 0.0784 0.0366 0.1294 0.0598 0.0278 0.0556 0.15718 0.3186 0.49425 0.12017 0.36024-0.19659 0.60036-0.58465 1.0297-0.6491v-0.002c-0.0186-0.0242-0.038-0.0494-0.0571-0.0744 0.75744 0.35408 1.6316 0.50909 2.412 0.53754 1.115 0.0402 2.3772-0.11551 3.38-0.65861 0.45985 0.14207 0.75503 1.1474 1.2804 0.6683 0.54941-0.3329-0.12012-1.0162-0.48501-1.2425v0.00046c-0.00032 0.00005-0.0006 0.00014-0.0009 0.00019 0.25692-0.24584 0.47726-0.53464 0.64728-0.87367 0.75782-1.503 0.63338-3.3416 0.52495-5.0023 0.0378 0.0134 0.0844 0.0321 0.14497 0.0748 0.21235 0.1479 0.68804 0.36947 0.71122-0.10622l-0.86905-0.16961c-0.006-0.0927-0.0124-0.18741-0.0178-0.27872-0.10617-1.7964 0.0926-3.6202-0.37408-5.3522 1.6486-0.58191 0.36009-2.8402-1.0762-1.8434-0.942-0.80694-2.2395-0.9549-3.6017-0.9549zm1.8936 0.81047c0.64427-0.0115 1.2758 0.33101 1.4558 1.1049l0.00046 0.00047c0.11081 0.46178 0.0186 0.87308-0.24015 1.1916-0.23553 0.28607-0.59575 0.48032-0.99773 0.5494-0.8823 0.1479-1.6812-0.30971-1.8337-1.2055v-0.005c-0.0623-1.0213 0.78705-1.6214 1.6154-1.6362zm-3.7658 0.15702c0.33226-0.00063 0.65468 0.0868 0.90971 0.25935 0.35098 0.23553 0.56332 0.60967 0.59114 1.09l-0.002-0.0009c0.10153 1.7224-2.6232 2.1336-3.0572 0.43393-0.0969-0.4896 0.008-0.91333 0.28651-1.2379 0.25129-0.28977 0.63059-0.47901 1.0414-0.53001 0.077-0.01 0.15415-0.0143 0.23082-0.0145zm2.9585 0.90609a0.4386 0.48497 0 0 0 -0.43856 0.48501 0.4386 0.48497 0 0 0 0.43856 0.48492 0.4386 0.48497 0 0 0 0.43865 -0.48492 0.4386 0.48497 0 0 0 -0.43865 -0.48501zm-3.7434 0.12007a0.44788 0.48497 0 0 0 -0.44789 0.48501 0.44788 0.48497 0 0 0 0.44789 0.48492 0.44788 0.48497 0 0 0 0.44788 -0.48492 0.44788 0.48497 0 0 0 -0.44788 -0.48501zm3.9465 0.35144a0.10154 0.12472 0 0 1 0.10151 0.12479 0.10154 0.12472 0 0 1 -0.10151 0.12469 0.10154 0.12472 0 0 1 -0.1016 -0.12469 0.10154 0.12472 0 0 1 0.1016 -0.12479zm-3.7434 0.11963a0.10617 0.12472 0 0 1 0.10613 0.12469 0.10617 0.12472 0 0 1 -0.10613 0.12478 0.10617 0.12472 0 0 1 -0.10622 -0.12478 0.10617 0.12472 0 0 1 0.10622 -0.12469zm2.6085 0.77234c0.27103 0.003 0.53094 0.11399 0.59975 0.33595 0.24689 0.10374 0.47444 0.25002 0.62011 0.43313 0.0953 0.11701 0.15449 0.25115 0.1544 0.39228-0.00009 0.14042-0.0611 0.27793-0.16717 0.39581-0.11532 0.13853-0.2906 0.21346-0.47052 0.20022l-0.001-0.00009-0.002-0.00019c-0.0461-0.004-0.0881-0.0135-0.13366-0.0264 0.00032 0.005 0.00046 0.007 0.00082 0.0122l-0.00091-0.00046c0.009 0.12935 0.014 0.19425 0.014 0.26333a1.6269 1.6269 0 0 1 -0.0186 0.26804v0.009l-0.005 0.005c-0.0464 0.0881-0.10155 0.12469-0.23554 0.17106-0.005 0.005-0.005 0.005-0.009 0.005-0.032 0.0139-0.0505 0.0185-0.069 0.0278l-0.0139 0.005h-0.0139a0.47245 0.47245 0 0 1 -0.34628 -0.24938c-0.2448 0.2958-0.48498 0.29112-0.63288 0.0324-0.0841-0.14701-0.1229-0.35445-0.1122-0.54894-0.004-0.00009-0.008 0.00009-0.0121-0.00009h-0.00046l-0.00046-0.00009c-0.19-0.01-0.36002-0.12186-0.44408-0.29231-0.24453-0.45346 0.10613-1.0216 0.61106-1.074 0.0867-0.24399 0.3938-0.36708 0.68858-0.36349zm0.60301 0.48944c-0.12053 0.39904-1.2612 0.45963-1.3152 0.0388-0.00032-0.007 0.00028-0.0141 0.00028-0.0212-0.38704 0.0665-0.65369 0.52009-0.46445 0.86688a0.38575 0.38575 0 0 0 0.3278 0.21697c0.10618 0.005 0.21704-0.0185 0.38812-0.0783 0.0139-0.005 0.0324-0.009 0.0556-0.0186 0.23182-0.0784 0.32455-0.10156 0.41728-0.0876h0.005c0.11081 0 0.20307 0.0324 0.37879 0.10151 0.1938 0.0784 0.25409 0.10157 0.35099 0.11084a0.42006 0.42006 0 0 0 0.35561 -0.1525c0.17989-0.19843 0.17114-0.41126 0.009-0.6097-0.11248-0.14174-0.30025-0.27143-0.50874-0.36702zm-0.32066 1.8972-0.0283 0.0165c0.006-0.002 0.0181-0.007 0.0264-0.0102l0.002-0.006z"/>
</svg>