<svg xmlns="http://www.w3.org/2000/svg" viewBox="0 0 16 16">
 <path id="_Compound_Path_" d="m8 0a1.3984 1.3984 0 0 0 -1.3992 1.3983 1.3984 1.3984 0 0 0 0.2685 0.8203l-3.3482 1.8084a1.3984 1.3984 0 0 0 -1.2313 -0.7377 1.3984 1.3984 0 0 0 -1.3983 1.3983 1.3984 1.3984 0 0 0 1.166 1.3774v3.9381a1.3984 1.3984 0 0 0 -1.166 1.3792 1.3984 1.3984 0 0 0 1.3983 1.3983 1.3984 1.3984 0 0 0 1.225 -0.72319l3.3102 1.7885a1.3984 1.3984 0 0 0 -0.2242 0.756 1.3984 1.3984 0 0 0 1.3992 1.398 1.3984 1.3984 0 0 0 1.3982 -1.398 1.3984 1.3984 0 0 0 -0.2223 -0.756l3.3102-1.7885a1.3984 1.3984 0 0 0 1.2232 0.72319 1.3984 1.3984 0 0 0 1.3983 -1.3983 1.3984 1.3984 0 0 0 -1.166 -1.3774v-3.9381a1.3984 1.3984 0 0 0 1.166 -1.3792 1.3984 1.3984 0 0 0 -1.3983 -1.3983 1.3984 1.3984 0 0 0 -1.2313 0.73771l-3.3469-1.8095a1.3984 1.3984 0 0 0 0.26768 -0.82028 1.3984 1.3984 0 0 0 -1.3983 -1.3983zm0.5761 2.6704 4.3584 7.5486a1.3984 1.3984 0 0 0 -0.60251 0.93098h-8.6628a1.3984 1.3984 0 0 0 -0.604 -0.931l4.3582-7.5477a1.3984 1.3984 0 0 0 0.5771 0.12522 1.3984 1.3984 0 0 0 0.57619 -0.12613zm-1.7458 0.1017-4.1849 7.2599a1.3984 1.3984 0 0 0 -0.1234 -0.02722v-3.9381a1.3984 1.3984 0 0 0 1.166 -1.3792 1.3984 1.3984 0 0 0 -0.015426 -0.20144l3.1577-1.7142zm2.3411 0.000907 3.1559 1.7132a1.3984 1.3984 0 0 0 -0.01633 0.20144 1.3984 1.3984 0 0 0 1.166 1.3774v3.9381a1.3984 1.3984 0 0 0 -0.11615 0.02631l-4.1901-7.256zm-5.4906 8.8416h8.6193l-3.4617 1.8701a1.3984 1.3984 0 0 0 -0.8388 -0.282 1.3984 1.3984 0 0 0 -0.8403 0.283l-3.4789-1.871z"/>
</svg>