<svg xmlns="http://www.w3.org/2000/svg" viewBox="0 0 16 16">
 <path d="m7.9766 4.0469c-0.0303 0.006-0.0536 0.0392-0.084 0.0879-0.0684 0.1093-0.262 0.4183-0.4297 0.6855s-0.3047 0.5019-0.3047 0.5215c0 0.0576-0.6936 1.1677-0.832 1.332-0.0923 0.1095-0.1928 0.1364-0.3692 0.0977-0.1702-0.0374-0.2896-0.0081-0.4043 0.0957-0.0898 0.081-0.1895 0.121-0.2207 0.0898s-0.073-0.3791-0.0937-0.7734c-0.0337-0.6421-0.0609-0.734-0.25-0.8828-0.1162-0.0913-0.2751-0.166-0.3535-0.166-0.3767 0-1.2226 0.7993-1.7832 1.6836l-0.1328 0.2089-1.3594-0.0273c-0.74748-0.0151-1.3594-0.0114-1.3594 0.0098s0.23592 0.1239 0.52539 0.2265c1.2767 0.4528 2.0859 0.7841 2.0859 0.8575 0 0.0436 0.0963 0.1763 0.2149 0.2949 0.197 0.1971 0.204 0.2286 0.084 0.3613-0.1839 0.2031-0.171 0.2575 0.1816 0.793 0.3259 0.495 0.4152 0.537 0.8516 0.3847 0.1448-0.0505 0.3008-0.0802 0.3457-0.0644 0.0448 0.0157-0.202 0.4767-0.5469 1.0237-0.3445 0.545-0.6262 1.007-0.627 1.029 0 0.067 0.0578 0.048 1.4942-0.518 2.4768-0.976 3.3201-1.296 3.4179-1.296 0.0525 0 0.4755 0.151 0.9395 0.336 2.3532 0.933 3.8672 1.517 3.9292 1.517 0.039 0-0.101-0.263-0.308-0.584-0.208-0.321-0.377-0.602-0.377-0.625s0.13-0.084 0.289-0.137c0.159-0.052 0.42-0.242 0.582-0.421 0.361-0.3997 0.456-0.8848 0.313-1.6138-0.056-0.2802-0.089-0.5173-0.075-0.5273 0.015-0.01 0.624-0.2405 1.354-0.5117 0.729-0.2713 1.326-0.5109 1.326-0.5332 0-0.0222-0.657-0.0167-1.461 0.0117l-1.463 0.0508-0.094-0.2071c-0.073-0.1613-0.158-0.207-0.38-0.207-0.158 0-0.335 0.0584-0.395 0.1308-0.099 0.1194-0.117 0.1194-0.184 0-0.084-0.1514-0.409-0.1745-0.544-0.039-0.066 0.0654-0.14 0.0652-0.258 0.0019-0.208-0.1108-0.952-0.1046-1.094 0.0098-0.2032 0.1639-0.6092-0.3025-1.3633-1.5664-0.5478-0.9181-0.6963-1.1588-0.7871-1.1406zm-3.2735 1.4433c0.1556 0.0302 0.2066 0.2015 0.1934 0.5743-0.0335 0.9463-0.6994 1.7755-1.207 1.5039-0.1449-0.0776-0.1652-0.1511-0.1309-0.4551 0.0388-0.3439 0.3303-0.8848 0.4785-0.8848 0.1277 0 0.1518 0.3102 0.0391 0.5137-0.1326 0.2392-0.1513 0.5505-0.0371 0.6211 0.2335 0.1443 0.6757-0.8005 0.6757-1.4434 0-0.4122-0.2621-0.3672-0.7421 0.127-0.6555 0.6747-0.9116 1.3607-0.6758 1.8086 0.1313 0.2495 0.2347 0.3066 0.5527 0.3086 0.3662 0.0017 0.8024-0.4375 0.9473-0.9551 0.1096-0.3914 0.2558-0.5251 0.2558-0.2344 0 0.0854 0.0767 0.3772 0.17 0.6484 0.4021 1.1688 0.1851 1.574-1.0254 1.9219-0.2619 0.0753-0.5103 0.1367-0.5528 0.1367-0.075 0-0.5571-0.6761-0.5097-0.7148 0.013-0.0106 0.2316-0.0879 0.4863-0.1699 1.0233-0.3294 1.3481-0.5909 1.3477-1.0879v-0.3438l-0.1583 0.2539c-0.3733 0.6011-0.9003 0.8616-1.4453 0.7149-0.3205-0.0863-0.5019-0.3406-0.5019-0.7031 0-0.4635 1.2024-2.015 1.6484-2.127 0.0766-0.0192 0.1396-0.0237 0.1914-0.0137zm4.6992 1.416c0.1625 0.0135 0.3275 0.0764 0.4297 0.1856 0.396 0.4228 0.43 1.0101 0.0801 1.3906-0.3612 0.3914-1.0694 0.1811-1.2051-0.3594-0.0636-0.2536 0.1096-0.9299 0.2813-1.1015 0.093-0.093 0.2516-0.1287 0.414-0.1153zm-1.3945 0.0098c0.2112 0.0142 0.3677 0.143 0.4688 0.3848 0.1723 0.4125 0.0782 0.8866-0.2383 1.2031-0.474 0.474-1.0821 0.2622-1.0801-0.3769 0.0013-0.4101 0.3741-1.126 0.6191-1.1875 0.0825-0.0207 0.1601-0.0282 0.2305-0.0235zm4.5472 0.002c0.127 0.0412 0.235 0.3504 0.449 1.291 0.256 1.1255 0.121 1.7268-0.459 2.053-0.329 0.185-0.881 0.273-1.283 0.205l-0.233-0.039 0.17-0.215c0.094-0.119 0.17-0.3114 0.17-0.4259 0-0.1559 0.033-0.1945 0.133-0.1562 0.624 0.2394 1.162 0.1098 1.344-0.3243 0.174-0.418 0.154-0.6583-0.026-0.2988-0.181 0.3637-0.462 0.4305-0.638 0.1524-0.068-0.1071-0.163-0.508-0.213-0.8907-0.05-0.3826-0.153-0.8123-0.227-0.955-0.074-0.1428-0.113-0.2773-0.09-0.3008 0.098-0.0981 0.227 0.0935 0.352 0.5215 0.161 0.5527 0.366 0.8297 0.558 0.7558 0.281-0.1076 0.263-0.4896-0.058-1.2519-0.05-0.1173-0.037-0.1496 0.051-0.1211zm-3.1155 0.0683c-0.1421 0-0.1101 0.1804 0.0546 0.3067 0.1235 0.0946 0.1288 0.124 0.0293 0.1894-0.1603 0.1055-0.3424 0.0244-0.4296-0.1914-0.0594-0.1468-0.0742-0.1241-0.0782 0.1328-0.0039 0.2298 0.0434 0.3465 0.1817 0.4434 0.1029 0.0721 0.2463 0.1308 0.3183 0.1308 0.1828 0 0.5054-0.2394 0.5054-0.375 0-0.1389-0.4546-0.6367-0.5815-0.6367zm0.9295 0c0.037 0 0.131 0.2181 0.207 0.4844 0.168 0.5845 0.247 0.6953 0.504 0.6953 0.376 0 0.456-0.5015 0.139-0.8633-0.17-0.1928-0.267-0.1874-0.215 0.0118 0.065 0.25-0.12 0.2901-0.272 0.0585-0.285-0.4355 0.203-0.5408 0.598-0.1289 0.219 0.2281 0.249 0.3276 0.277 0.8887 0.026 0.5159 0.005 0.6607-0.117 0.7949-0.361 0.3996-0.713 0.0611-0.965-0.9297-0.1-0.3936-0.215-0.7579-0.257-0.8085-0.078-0.0932-0.023-0.2032 0.101-0.2032zm-3.5487 0.086c0.1565 0 0.0867 0.259-0.1289 0.4746-0.1178 0.1178-0.2606 0.1947-0.3164 0.1719-0.4454-0.1825-0.4264-0.1886-0.3652 0.1171 0.0806 0.4031 0.3179 0.6282 0.539 0.5098 0.154-0.0824 0.1745-0.0621 0.209 0.2227 0.0214 0.1765-0.0028 0.3402-0.0547 0.375-0.267 0.1791-0.7246-0.0805-0.7246-0.4122 0-0.2667-0.1942-0.9695-0.2969-1.0722-0.0968-0.097-0.096-0.1384 0.0059-0.2715 0.1163-0.152 0.1224-0.1514 0.1738 0.0313 0.0293 0.1041 0.0897 0.1894 0.1348 0.1894s0.1566-0.0852 0.248-0.1894c0.1152-0.1314 0.1807-0.1569 0.211-0.084 0.0519 0.125 0.2812 0.1426 0.2812 0.0214 0-0.0462 0.0377-0.0839 0.084-0.0839zm1.2168 0c-0.1442 0-0.1597 0.1801-0.0273 0.3125 0.0515 0.0515 0.0682 0.1332 0.0371 0.1836-0.0856 0.1384-0.3099 0.1109-0.4356-0.0547-0.1016-0.134-0.1113-0.1266-0.1133 0.084-0.0014 0.1273 0.0735 0.3077 0.1661 0.4003 0.0926 0.0927 0.2001 0.168 0.2402 0.168 0.1663 0 0.5176-0.363 0.5176-0.5351 0-0.2339-0.2245-0.5586-0.3848-0.5586z"/>
</svg>