<?xml version="1.0" encoding="UTF-8" standalone="no"?>
<svg
   xmlns:dc="http://purl.org/dc/elements/1.1/"
   xmlns:cc="http://creativecommons.org/ns#"
   xmlns:rdf="http://www.w3.org/1999/02/22-rdf-syntax-ns#"
   xmlns:svg="http://www.w3.org/2000/svg"
   xmlns="http://www.w3.org/2000/svg"
   xmlns:sodipodi="http://sodipodi.sourceforge.net/DTD/sodipodi-0.dtd"
   xmlns:inkscape="http://www.inkscape.org/namespaces/inkscape"
   width="16"
   height="16"
   viewBox="0 0 12.8 12.8"
   version="1.1"
   id="svg2"
   inkscape:version="0.91 r13725"
   sodipodi:docname="haskell.svg">
  <metadata
     id="metadata22">
    <rdf:RDF>
      <cc:Work
         rdf:about="">
        <dc:format>image/svg+xml</dc:format>
        <dc:type
           rdf:resource="http://purl.org/dc/dcmitype/StillImage" />
        <dc:title></dc:title>
      </cc:Work>
    </rdf:RDF>
  </metadata>
  <sodipodi:namedview
     pagecolor="#ffffff"
     bordercolor="#666666"
     borderopacity="1"
     objecttolerance="10"
     gridtolerance="10"
     guidetolerance="10"
     inkscape:pageopacity="0"
     inkscape:pageshadow="2"
     inkscape:window-width="1366"
     inkscape:window-height="705"
     id="namedview20"
     showgrid="false"
     inkscape:zoom="0.55503715"
     inkscape:cx="408.3811"
     inkscape:cy="212.59838"
     inkscape:window-x="-8"
     inkscape:window-y="-8"
     inkscape:window-maximized="1"
     inkscape:current-layer="svg2"
     units="px" />
  <defs
     id="defs4">
    <clipPath
       id="clip1">
      <path
         d="m 0,340.15625 481.89062,0 L 481.89062,0 0,0 0,340.15625 Z m 0,0"
         id="path7"
         inkscape:connector-curvature="0" />
    </clipPath>
  </defs>
  <path
     style="clip-rule:nonzero;fill:#000000;fill-opacity:1;fill-rule:nonzero;stroke:none"
     d="M 0,1.8828129 3.0125,6.4000005 0,10.917187 l 2.259375,0 L 5.2703125,6.4000005 2.259375,1.8828129 0,1.8828129 Z m 3.0125,0 3.0109375,4.5171876 -3.0109375,4.5171865 2.2578125,0 1.8828123,-2.8234361 1.8828132,2.8234361 2.257812,0 -6.0234375,-9.0343741 -2.2578125,0 z m 4.7671872,2.6343751 1.0046878,1.50625 4.015625,0 0,-1.50625 -5.0203128,0 z m 1.5062508,2.2593749 1.004687,1.5062504 2.509375,0 0,-1.5062504 -3.514062,0 z"
     id="path12"
     inkscape:connector-curvature="0" />
</svg>
