<?xml version="1.0" encoding="UTF-8" standalone="no"?>
<svg
   xmlns:dc="http://purl.org/dc/elements/1.1/"
   xmlns:cc="http://creativecommons.org/ns#"
   xmlns:rdf="http://www.w3.org/1999/02/22-rdf-syntax-ns#"
   xmlns:svg="http://www.w3.org/2000/svg"
   xmlns="http://www.w3.org/2000/svg"
   xmlns:sodipodi="http://sodipodi.sourceforge.net/DTD/sodipodi-0.dtd"
   xmlns:inkscape="http://www.inkscape.org/namespaces/inkscape"
   viewBox="0 0 16 16"
   id="svg2"
   version="1.1"
   inkscape:version="0.91 r13725"
   sodipodi:docname="html5.svg"
   width="16"
   height="16">
  <metadata
     id="metadata30">
    <rdf:RDF>
      <cc:Work
         rdf:about="">
        <dc:format>image/svg+xml</dc:format>
        <dc:type
           rdf:resource="http://purl.org/dc/dcmitype/StillImage" />
        <dc:title>HTML5 Logo</dc:title>
      </cc:Work>
    </rdf:RDF>
  </metadata>
  <defs
     id="defs28" />
  <sodipodi:namedview
     pagecolor="#ffffff"
     bordercolor="#666666"
     borderopacity="1"
     objecttolerance="10"
     gridtolerance="10"
     guidetolerance="10"
     inkscape:pageopacity="0"
     inkscape:pageshadow="2"
     inkscape:window-width="1366"
     inkscape:window-height="705"
     id="namedview26"
     showgrid="false"
     inkscape:zoom="0.4609375"
     inkscape:cx="385.08475"
     inkscape:cy="256"
     inkscape:window-x="-8"
     inkscape:window-y="-8"
     inkscape:window-maximized="1"
     inkscape:current-layer="svg2" />
  <title
     id="title4">HTML5 Logo</title>
  <path
     d="M 0.9460135,0 2.2299515,14.40058 7.9913395,16 13.768681,14.39831 15.053987,0 0.9460135,0 Z m 2.625304,2.94367 4.422605,0 0.0061,0 4.4181995,0 -0.04223,0.47386 -0.08052,0.89538 -0.0354,0.39699 -0.0057,0 -4.2543455,0 -0.0061,0 -2.492444,0 0.161423,1.80854 2.331021,0 0.0061,0 3.6233905,0 0.475913,0 -0.04307,0.47424 -0.415066,4.64982 -0.02651,0.29838 -3.6146555,1.00181 0,2.3e-4 -0.0081,0.002 -3.617846,-1.00431 -0.247489,-2.77321 0.817217,0 0.955775,0 0.12572,1.40867 1.967003,0.53106 0.0017,-4.5e-4 0,-8e-5 1.969814,-0.53167 0.2050255,-2.29061 -2.1687625,0 -0.0061,0 -3.946236,0 -0.434133,-4.86707 -0.04223,-0.47386 z"
     id="polygon6"
     inkscape:connector-curvature="0"
     style="fill:#000000" />
</svg>
