<svg xmlns="http://www.w3.org/2000/svg" viewBox="0 0 16 16">
 <path d="m0.94601 0 1.284 14.401 5.7613 1.599 5.7777-1.602 1.285-14.398h-14.108zm2.6253 2.9437h4.4226 0.0061 4.4182l-0.04223 0.47386-0.08052 0.89538-0.0354 0.39699h-0.0057-4.2543-0.0061-2.4924l0.16142 1.8085h2.331 0.0061 3.6234 0.47591l-0.04307 0.47424-0.41506 4.6498-0.02651 0.29838-3.6147 1.0018v0.00023l-0.0081 0.002-3.6178-1.0043-0.24749-2.7732h0.81722 0.95578l0.12572 1.4087 1.967 0.53106 0.0017-0.00045v-0.00008l1.9698-0.53167 0.20502-2.2906h-2.1688-0.0061-3.9462l-0.43413-4.8671-0.04223-0.47386z"/>
</svg>