<svg xmlns="http://www.w3.org/2000/svg" viewBox="0 0 16 16">
 <path d="m0 0v16h16v-16h-16zm12.178 7.2607c0.95594 0 1.6432 0.33266 2.1384 1.2038l-1.171 0.7518c-0.257-0.4623-0.535-0.6444-0.967-0.6444-0.44038 0-0.71949 0.2794-0.71949 0.64435 0 0.45105 0.27938 0.63363 0.92445 0.913l0.37584 0.16101c1.2775 0.54781 1.9988 1.1063 1.9988 2.3619 0 1.3536-1.0634 2.0952-2.4914 2.0952-1.3963 0-2.2984-0.66537-2.7398-1.5375l1.2218-0.70987c0.32228 0.52622 0.7416 0.91305 1.4832 0.91305 0.62298 0 1.021-0.3114 1.021-0.74162 0-0.51556-0.40893-0.69813-1.0946-0.99807l-0.376-0.161c-1.085-0.462-1.8061-1.041-1.8061-2.2653 0-1.1276 0.85916-1.986 2.2019-1.986zm-4.9679 0.0858h1.5035v5.1327c0 1.5568-0.91277 2.2654-2.2451 2.2654-1.2038 0-1.9009-0.62301-2.2555-1.3734l1.2239-0.74092c0.23619 0.41904 0.45104 0.77331 0.96761 0.77331 0.49397 0 0.80561-0.19325 0.80561-0.94474v-5.1124z"/>
</svg>