<svg xmlns="http://www.w3.org/2000/svg" viewBox="0 0 16 16">
 <path d="m9.6102 0.000009366c0.0817 0.39359 0.1245 0.80277 0.0349 1.2003-0.10908 0.54176-0.4247 1.0134-0.80689 1.407-0.68982 0.7171-1.5589 1.2354-2.2643 1.9409-0.25341 0.26502-0.5067 0.54954-0.61972 0.90425-0.11302 0.34683-0.04675 0.72863 0.10131 1.0561 0.21826 0.46773 0.54954 0.8654 0.90031 1.2396 0.33522 0.35461 0.69375 0.6898 1.0602 1.0133-0.0207-0.0446-0.04246-0.0886-0.06517-0.13208-0.34073-0.65214-0.89052-1.1898-1.1353-1.8986-0.15978-0.44046-0.10514-0.93924 0.12877-1.3446 0.27664-0.49894 0.70919-0.88079 1.1497-1.2355 0.37794-0.30401 0.7406-0.63136 1.0562-1.0016 0.39359-0.45995 0.7287-0.99392 0.84192-1.598 0.1049-0.5378-0.0158-1.1342-0.3819-1.5511zm1.9608 3.2697c-0.89637 0.25725-1.781 0.61181-2.5371 1.1692-0.47934 0.35855-0.92369 0.85738-0.98995 1.4771-0.06625 0.61963 0.25726 1.2043 0.64308 1.6641 0.18705 0.20665 0.34688 0.45999 0.35476 0.74834 0.0077 0.38592-0.21059 0.74453-0.49126 0.99784 0.0083-0.00097 0.01626-0.003 0.02399-0.005 0.05408-0.0168 0.09596-0.065 0.14376-0.0923 0.42096-0.26886 0.82612-0.6079 1.0329-1.0717 0.13625-0.31572 0.1052-0.68992-0.07417-0.98221-0.21048-0.343-0.48709-0.6471-0.65081-1.0212-0.08979-0.21048-0.12085-0.45591-0.04671-0.67811 0.09746-0.30007 0.30763-0.54569 0.52993-0.76001 0.61195-0.58075 1.3525-0.99379 2.0616-1.4459zm0.96264 5.3812c-0.0522 0.002-0.10426 0.006-0.15592 0.0129-0.23765 0.0312-0.49881 0.0818-0.66233 0.28059 0.04871-0.01 0.09705-0.0219 0.1455-0.0344 0.14536-0.0375 0.29071-0.0776 0.44282-0.063 0.4249 0.0233 0.84201 0.33516 0.91988 0.7638 0.07403 0.37026-0.10542 0.73667-0.33519 1.0172-0.37814 0.45217-0.8886 0.77554-1.4031 1.0523-0.0506 0.0312-0.09347 0.0702-0.13256 0.11315 0.67821-0.1715 1.3565-0.42886 1.906-0.86922 0.30381-0.25331 0.57287-0.58848 0.63124-0.98995 0.05464-0.34683-0.08962-0.70547-0.34687-0.93534-0.27281-0.24895-0.64409-0.36063-1.0095-0.34813zm-6.3729 0.15308c-0.78335-0.0116-1.5628 0.1872-2.2799 0.49505-0.15978 0.078-0.33918 0.14024-0.46775 0.27285-0.050702 0.0544-0.050746 0.14814 0.00773 0.1949 0.11696 0.10524 0.27287 0.15191 0.42104 0.19474 0.51055 0.13645 1.0367 0.17547 1.559 0.21052 0.46773 0.0312 0.93522 0.039 1.4069 0.035 1.2159-0.0194 2.4398-0.10126 3.6325-0.36628 0.11302-0.0273 0.23773-0.0467 0.33913-0.11694 0.19867-0.12857 0.41702-0.23 0.63124-0.3314-0.9703 0.15594-1.9448 0.2885-2.9268 0.35081-0.99403 0.0624-1.9958 0.10145-2.9935 0.0352-0.28451-0.0273-0.5769-0.0429-0.84192-0.15213-0.062316-0.0273-0.14789-0.0818-0.11678-0.16365 0.058478-0.10524 0.17534-0.15598 0.27664-0.21052 0.42874-0.20271 0.89643-0.31567 1.3524-0.44818zm-0.6745 1.824c-0.24159 0.0857-0.4833 0.17541-0.686 0.33519-0.085647 0.0662-0.17136 0.17146-0.14803 0.28832 0.035148 0.13645 0.16758 0.21832 0.28453 0.28074 0.28835 0.14807 0.61189 0.21432 0.92761 0.2727 0.69922 0.11268 1.4101 0.12967 2.1148 0.0956 0.10067-0.005 0.20122-0.0107 0.30158-0.0175 0.84961-0.0662 1.6953-0.20675 2.5179-0.44834-0.23391-0.10524-0.45603-0.22603-0.64308-0.40147-0.68215 0.1208-1.3683 0.23387-2.058 0.26891-0.75618 0.0507-1.5123 0.008-2.2605-0.0701-0.14433-0.0194-0.28852-0.0429-0.41709-0.10921-0.066154-0.039-0.13245-0.10125-0.12862-0.18306 0.00778-0.12857 0.11703-0.21831 0.1949-0.31183zm0.38616 1.7533c-0.21836 0.0623-0.44045 0.13652-0.61972 0.28075-0.089687 0.0702-0.1597 0.19092-0.11678 0.30394 0.054539 0.14423 0.19089 0.23001 0.31957 0.30394 0.33512 0.18332 0.71311 0.26894 1.0834 0.33519 0.83799 0.13251 1.6994 0.11304 2.5335-0.035 0.43304-0.0819 0.86608-0.1936 1.2756-0.35855 0.0585-0.0236 0.1166-0.0482 0.17407-0.074-0.29997-0.12483-0.59238-0.26495-0.87285-0.42877-0.48732 0.0858-0.97827 0.17531-1.4771 0.20642-0.65872 0.0507-1.3252-0.004-1.9838-0.0855-0.15594-0.0351-0.35083-0.0506-0.45607-0.18716-0.054641-0.11302 0.070099-0.19502 0.14029-0.26118zm-1.6761 1.1538c-0.37804 0.0116-0.74839 0.10913-1.107 0.22993-0.30785 0.11311-0.62343 0.23777-0.86906 0.4638-0.097363 0.0857-0.18699 0.24932-0.085691 0.36628 0.15594 0.16746 0.39751 0.21063 0.61183 0.26133 1.2005 0.20645 2.4165 0.32326 3.6325 0.36628 1.6136 0.0468 3.2389-0.0234 4.8251-0.33519 0.5457-0.11291 1.0952-0.24164 1.594-0.49505 0.15584-0.0896 0.34698-0.18712 0.39768-0.37417 0.02717-0.17927-0.16001-0.27273-0.29242-0.34687 0.08191 0.0935 0.13636 0.23006 0.05444 0.33914-0.13645 0.18331-0.37025 0.25316-0.5768 0.32335-0.647 0.18322-1.3173 0.25737-1.9838 0.33141-1.7656 0.15988-3.5427 0.19872-5.3081 0.0507-0.59246-0.0624-1.1966-0.12865-1.7618-0.33913-0.089586-0.0389-0.22598-0.0779-0.22598-0.19869 0.035047-0.10524 0.1364-0.16376 0.22598-0.21446 0.40531-0.20654 0.85744-0.3196 1.3095-0.34687-0.13251-0.078-0.28829-0.0857-0.44029-0.0817zm9.7129 0.97053c-0.29229 0.31179-0.71293 0.45613-1.1067 0.59258-0.73275 0.23381-1.4927 0.36245-2.2488 0.46759-1.3057 0.16382-2.623 0.21447-3.9364 0.17549-0.799-0.0311-1.5981-0.0857-2.3853-0.21825 0.18311 0.12463 0.40908 0.16366 0.61956 0.22204 0.88475 0.18715 1.7929 0.22212 2.6932 0.24949 1.3214 0.0232 2.6425-0.0274 3.9445-0.23403 0.61559-0.10908 1.2354-0.24137 1.7886-0.52993 0.28845-0.1519 0.5807-0.38592 0.6314-0.72498z"/>
</svg>