<?xml version="1.0" encoding="UTF-8" standalone="no"?>
<!-- Generator: Adobe Illustrator 13.0.0, SVG Export Plug-In . SVG Version: 6.00 Build 14948)  -->

<svg
   xmlns:dc="http://purl.org/dc/elements/1.1/"
   xmlns:cc="http://creativecommons.org/ns#"
   xmlns:rdf="http://www.w3.org/1999/02/22-rdf-syntax-ns#"
   xmlns:svg="http://www.w3.org/2000/svg"
   xmlns="http://www.w3.org/2000/svg"
   xmlns:sodipodi="http://sodipodi.sourceforge.net/DTD/sodipodi-0.dtd"
   xmlns:inkscape="http://www.inkscape.org/namespaces/inkscape"
   version="1.1"
   id="Layer_1"
   x="0px"
   y="0px"
   width="16"
   height="16"
   viewBox="0 0 16 15.999999"
   enable-background="new 0 0 225.938 407.407"
   xml:space="preserve"
   inkscape:version="0.91 r13725"
   sodipodi:docname="java-wave.svg"><metadata
     id="metadata44"><rdf:RDF><cc:Work
         rdf:about=""><dc:format>image/svg+xml</dc:format><dc:type
           rdf:resource="http://purl.org/dc/dcmitype/StillImage" /><dc:title></dc:title></cc:Work></rdf:RDF></metadata><defs
     id="defs42"><radialGradient
       id="radialGradient4179"
       cx="86.629898"
       cy="167.06931"
       r="54.7155"
       gradientUnits="userSpaceOnUse"><stop
         offset="0"
         style="stop-color:#FFFFFF"
         id="stop4181" /><stop
         offset="0.0604"
         style="stop-color:#FBC8B4"
         id="stop4183" /><stop
         offset="0.0712"
         style="stop-color:#FBC3B0"
         id="stop4185" /><stop
         offset="0.1829"
         style="stop-color:#F7978B"
         id="stop4187" /><stop
         offset="0.2995"
         style="stop-color:#F4716B"
         id="stop4189" /><stop
         offset="0.4199"
         style="stop-color:#F15251"
         id="stop4191" /><stop
         offset="0.5453"
         style="stop-color:#EF3A3D"
         id="stop4193" /><stop
         offset="0.6778"
         style="stop-color:#EE292F"
         id="stop4195" /><stop
         offset="0.822"
         style="stop-color:#ED1F27"
         id="stop4197" /><stop
         offset="1"
         style="stop-color:#ED1C24"
         id="stop4199" /></radialGradient></defs><sodipodi:namedview
     pagecolor="#ffffff"
     bordercolor="#666666"
     borderopacity="1"
     objecttolerance="10"
     gridtolerance="10"
     guidetolerance="10"
     inkscape:pageopacity="0"
     inkscape:pageshadow="2"
     inkscape:window-width="1366"
     inkscape:window-height="705"
     id="namedview40"
     showgrid="false"
     inkscape:zoom="0.57927329"
     inkscape:cx="255.38883"
     inkscape:cy="203.70351"
     inkscape:window-x="-8"
     inkscape:window-y="-8"
     inkscape:window-maximized="1"
     inkscape:current-layer="Layer_1" /><path
     d="M 10.219435,1.708866e-4 C 9.7964441,-0.00782911 9.8185029,0.27935089 9.8056901,0.64579089 9.7915521,1.0501409 9.8593711,1.3386209 10.043168,2.0342209 9.4182588,1.5620109 9.4635678,0.52986089 8.9178329,0.73063089 8.372098,0.93139089 8.5162367,1.4007709 8.711344,1.9125709 c 0.1951073,0.5118 0.4552696,1.00386 0.8992094,1.4478 -0.497665,0.082 -1.1649371,0.29974 -0.983968,0.81437 0.1809691,0.51463 0.596581,0.12721 0.983968,0.15548 0.3873869,0.0283 0.6645406,0.41569 1.0519276,0.44397 0.387387,0.0283 0.474984,0.78045 0.441052,1.37708 -0.03113,0.54742 -0.707052,0.93472 -1.060826,0.58656 -1.6046629,-2.67516 -3.690604,-4.54251 -4.5604774,-5.02884 0.2631093,0.55096 0.175493,3.72262 -0.066196,5.85196 -0.3388209,1.74867 -1.2595522,2.00277 -1.3080451,2.7921301 -0.050898,0.8285 0.2686235,0.90771 0.24883,1.674 -0.019794,0.76629 -0.7012301,1.07732 -0.7832317,1.49298 -0.082002,0.41566 0.3506252,0.54859 0.6022853,0.54859 0.073699,0 0.147293,-0.0951 0.2172277,-0.24645 -0.023919,0.26926 -0.043242,0.53442 -0.056071,0.79221 -0.039587,0.77477 0.079186,1.08015 0.5853335,1.08015 0.8935349,0 2.027413,-1.88325 3.4497172,-1.84083 1.4251315,0.0424 1.8775085,2.16033 2.5448315,2.14619 0.667324,-0.0141 1.204592,-0.246 1.210247,-2.30735 0.0059,-1.82715 -0.444829,-3.55154 -1.120886,-5.0951901 -0.176587,-0.60097 -0.09661,-1.3103 0.238705,-1.78445 0.361938,-0.51181 0.05655,-1.65139 0.24883,-2.15188 0.19228,-0.50049 0.639022,-0.35908 0.783232,-1.13669 0.14421,-0.7776 -0.469368,-1.31206 0.0057,-2.29891 0.475044,-0.98685001 -0.271441,-0.98117001 -0.599447,-0.74082001 -0.328007,0.24035 -0.410028,0.82567001 -0.545754,1.28657001 -0.446767,-0.48635 -0.197945,-1.67959001 -0.771956,-1.75876001 -0.05381,-0.007 -0.102365,-0.0114 -0.146123,-0.0123000034 z M 7.8985045,5.8364709 c 0.3757386,-0.006 0.7432304,0.11827 0.9693938,0.44719 0.1443276,0.20996 0.1696095,0.45712 0.1607731,0.70454 -0.058634,0.61371 -0.5477127,1.10679 -1.136687,1.24982 -0.6232594,0.15136 -1.3115018,-0.0886 -1.5354746,-0.72954 -0.1143624,-0.32722 -0.093011,-0.66293 0.103628,-0.95037 0.1658491,-0.24235 0.4332318,-0.43194 0.6981662,-0.55235 0.2221515,-0.10093 0.483116,-0.16544 0.7402005,-0.16929 z m 1.4519431,0.49567 c 0.8793964,1.37141 2.3667204,4.4846401 2.3243054,6.9220601 -0.04242,2.43743 -0.305374,2.28194 -0.704072,2.29608 -0.398697,0.0141 -1.0433944,-2.14901 -2.6805991,-2.16315 -1.6343773,-0.0141 -2.6324845,1.92846 -3.3337397,1.85211 -0.7012552,-0.0763 0.675815,-6.1076801 0.8963711,-7.1878401 0.101219,-0.0681 0.2068327,-0.14033 0.3128785,-0.21263 0.01562,0.0301 0.03196,0.0601 0.049475,0.0897 0.3401418,0.57562 1.0936103,0.76589 1.7108216,0.62192 0.8446009,-0.19695 1.4687244,-0.93565 1.413821,-1.81391 -0.013845,-0.14324 -0.047462,-0.27507 -0.097722,-0.39503 0.036222,-0.004 0.072394,-0.007 0.1084605,-0.009 z m -4.4372134,3.44442 c 0.048729,10e-4 0.075038,0.0697 0.057452,0.2371801 -1.16e-5,1.1e-4 1.15e-5,1.9e-4 0,3e-4 -0.097538,0.48144 -0.190819,0.98271 -0.2750631,1.49045 -0.1031295,-0.30133 -0.2482931,-0.55683 -0.2482931,-0.8347 0,-0.3455 0.3257166,-0.8969801 0.4659044,-0.8932301 z"
     id="path3"
     inkscape:connector-curvature="0" /></svg>