<svg xmlns="http://www.w3.org/2000/svg" viewBox="0 0 16 16">
 <path d="m10.219 0.00017089c-0.4226-0.008-0.4005 0.27918-0.4133 0.64562-0.0141 0.40431 0.0537 0.69281 0.2373 1.3884-0.6247-0.4722-0.5794-1.5043-1.1252-1.3036-0.5457 0.20079-0.4016 0.6702-0.2065 1.182 0.19511 0.5118 0.45527 1.0039 0.89921 1.4478-0.49766 0.082-1.1649 0.29974-0.98397 0.81437 0.18097 0.51463 0.59658 0.12721 0.98397 0.15548 0.38739 0.0283 0.66454 0.41569 1.0519 0.44397 0.38739 0.0283 0.47498 0.78045 0.44105 1.3771-0.03113 0.54742-0.70705 0.93472-1.0608 0.58656-1.6047-2.6752-3.6906-4.5425-4.5605-5.0288 0.26311 0.55096 0.17549 3.7226-0.066196 5.852-0.33882 1.7487-1.2596 2.0028-1.308 2.7921-0.050898 0.8285 0.26862 0.90771 0.24883 1.674-0.019794 0.76629-0.70123 1.0773-0.78323 1.493-0.082002 0.41566 0.35063 0.54859 0.60229 0.54859 0.073699 0 0.14729-0.0951 0.21723-0.24645-0.023919 0.26926-0.043242 0.53442-0.056071 0.79221-0.039587 0.77477 0.079186 1.0802 0.58533 1.0802 0.89353 0 2.0274-1.8832 3.4497-1.8408 1.4251 0.0424 1.8775 2.1603 2.5448 2.1462 0.66732-0.0141 1.2046-0.246 1.2102-2.3074 0.0059-1.8272-0.44483-3.5515-1.1209-5.0952-0.17659-0.60097-0.09661-1.3103 0.2387-1.7844 0.36194-0.51181 0.05655-1.6514 0.24883-2.1519 0.19228-0.50049 0.63902-0.35908 0.78323-1.1367 0.14421-0.7776-0.46937-1.3121 0.0057-2.2989 0.47504-0.98685-0.27144-0.98117-0.59945-0.74082s-0.41003 0.82567-0.54575 1.2866c-0.44677-0.48635-0.19794-1.6796-0.77196-1.7588-0.05381-0.007-0.10236-0.0114-0.14612-0.0123zm-2.3205 5.8363c0.37574-0.006 0.74323 0.11827 0.96939 0.44719 0.14433 0.20996 0.16961 0.45712 0.16077 0.70454-0.058634 0.61371-0.54771 1.1068-1.1367 1.2498-0.62326 0.15136-1.3115-0.0886-1.5355-0.72954-0.11436-0.32722-0.093011-0.66293 0.10363-0.95037 0.16585-0.24235 0.43323-0.43194 0.69817-0.55235 0.22215-0.10093 0.48312-0.16544 0.7402-0.16929zm1.4519 0.49567c0.8794 1.3714 2.3667 4.4846 2.3243 6.9221-0.04242 2.4374-0.30537 2.2819-0.70407 2.2961-0.3987 0.0141-1.0434-2.149-2.6806-2.1632-1.6344-0.0141-2.6325 1.9285-3.3337 1.8521-0.70126-0.0763 0.67582-6.1077 0.89637-7.1878 0.10122-0.0681 0.20683-0.14033 0.31288-0.21263 0.01562 0.0301 0.03196 0.0601 0.049475 0.0897 0.34014 0.57562 1.0936 0.76589 1.7108 0.62192 0.8446-0.19695 1.4687-0.93565 1.4138-1.8139-0.013845-0.14324-0.047462-0.27507-0.097722-0.39503 0.036222-0.004 0.072394-0.007 0.10846-0.009zm-4.4372 3.4444c0.048729 0.001 0.075038 0.0697 0.057452 0.23718-0.0000116 0.00011 0.0000115 0.00019 0 0.0003-0.097538 0.48144-0.19082 0.98271-0.27506 1.4904-0.10313-0.30133-0.24829-0.55683-0.24829-0.8347 0-0.3455 0.32572-0.89698 0.4659-0.89323z"/>
</svg>