<?xml version="1.0" encoding="UTF-8" standalone="no"?>
<svg
   xmlns:dc="http://purl.org/dc/elements/1.1/"
   xmlns:cc="http://creativecommons.org/ns#"
   xmlns:rdf="http://www.w3.org/1999/02/22-rdf-syntax-ns#"
   xmlns:svg="http://www.w3.org/2000/svg"
   xmlns="http://www.w3.org/2000/svg"
   xmlns:sodipodi="http://sodipodi.sourceforge.net/DTD/sodipodi-0.dtd"
   xmlns:inkscape="http://www.inkscape.org/namespaces/inkscape"
   viewBox="0 0 16 16"
   id="svg2"
   version="1.1"
   inkscape:version="0.91 r13725"
   sodipodi:docname="javascript.svg"
   width="16"
   height="16">
  <metadata
     id="metadata12">
    <rdf:RDF>
      <cc:Work
         rdf:about="">
        <dc:format>image/svg+xml</dc:format>
        <dc:type
           rdf:resource="http://purl.org/dc/dcmitype/StillImage" />
        <dc:title></dc:title>
      </cc:Work>
    </rdf:RDF>
  </metadata>
  <defs
     id="defs10" />
  <sodipodi:namedview
     pagecolor="#ffffff"
     bordercolor="#666666"
     borderopacity="1"
     objecttolerance="10"
     gridtolerance="10"
     guidetolerance="10"
     inkscape:pageopacity="0"
     inkscape:pageshadow="2"
     inkscape:window-width="1366"
     inkscape:window-height="705"
     id="namedview8"
     showgrid="false"
     inkscape:zoom="0.37460317"
     inkscape:cx="315"
     inkscape:cy="315"
     inkscape:window-x="-8"
     inkscape:window-y="-8"
     inkscape:window-maximized="1"
     inkscape:current-layer="svg2" />
  <path
     d="M 0,0 0,16 16,16 16,0 0,0 Z m 12.177778,7.26071 c 0.955936,0 1.643155,0.33266 2.138393,1.20377 L 13.145387,9.21627 C 12.887609,8.75405 12.609524,8.57192 12.177778,8.57192 c -0.440381,0 -0.719494,0.2794 -0.719494,0.64435 0,0.45105 0.279375,0.63363 0.924454,0.913 l 0.375843,0.16101 c 1.277461,0.54781 1.99876,1.10628 1.99876,2.3619 0,1.35365 -1.063355,2.09524 -2.491418,2.09524 -1.396318,0 -2.298435,-0.66537 -2.7398318,-1.5375 l 1.2218258,-0.70987 c 0.322285,0.52622 0.741597,0.91305 1.483184,0.91305 0.622984,0 1.020982,-0.3114 1.020982,-0.74162 0,-0.51556 -0.408928,-0.69813 -1.094642,-0.99807 L 11.781597,11.5121 C 10.696645,11.04988 9.9758928,10.47085 9.9758928,9.24673 c 0,-1.12762 0.8591552,-1.98602 2.2018852,-1.98602 z m -4.9678575,0.0858 1.5034723,0 0,5.13269 c 0,1.55682 -0.9127718,2.26542 -2.2450893,2.26542 -1.2038095,0 -1.9009166,-0.62301 -2.2554563,-1.37336 l 1.2238591,-0.74092 c 0.2361905,0.41904 0.4510377,0.77331 0.9676091,0.77331 0.4939683,0 0.8056054,-0.19325 0.8056051,-0.94474 l 0,-5.1124 z"
     id="rect4"
     style="fill:#000000"
     inkscape:connector-curvature="0" />
</svg>
