<?xml version="1.0" encoding="UTF-8" standalone="no"?>
<svg
   xmlns:dc="http://purl.org/dc/elements/1.1/"
   xmlns:cc="http://creativecommons.org/ns#"
   xmlns:rdf="http://www.w3.org/1999/02/22-rdf-syntax-ns#"
   xmlns:svg="http://www.w3.org/2000/svg"
   xmlns="http://www.w3.org/2000/svg"
   xmlns:sodipodi="http://sodipodi.sourceforge.net/DTD/sodipodi-0.dtd"
   xmlns:inkscape="http://www.inkscape.org/namespaces/inkscape"
   id="svg2"
   xml:space="preserve"
   height="16"
   width="16"
   version="1.1"
   viewBox="0 0 15.999808 15.999936"
   inkscape:version="0.91 r13725"
   sodipodi:docname="java.svg"><defs
     id="defs35" /><sodipodi:namedview
     pagecolor="#ffffff"
     bordercolor="#666666"
     borderopacity="1"
     objecttolerance="10"
     gridtolerance="10"
     guidetolerance="10"
     inkscape:pageopacity="0"
     inkscape:pageshadow="2"
     inkscape:window-width="1366"
     inkscape:window-height="705"
     id="namedview33"
     showgrid="false"
     inkscape:zoom="33.625"
     inkscape:cx="8"
     inkscape:cy="8"
     inkscape:window-x="-8"
     inkscape:window-y="-8"
     inkscape:window-maximized="1"
     inkscape:current-layer="svg2" /><metadata
     id="metadata8"><rdf:RDF><cc:Work
         rdf:about=""><dc:format>image/svg+xml</dc:format><dc:type
           rdf:resource="http://purl.org/dc/dcmitype/StillImage" /><dc:title></dc:title></cc:Work></rdf:RDF></metadata><path
     style="fill:#000000"
     d="M 9.6101845,9.366028e-6 C 9.6918945,0.39359937 9.7347485,0.80277937 9.6450645,1.2003094 c -0.10908,0.54176 -0.424705,1.01335 -0.806886,1.40704 -0.689825,0.7171 -1.5588886,1.23544 -2.2642671,1.94092 -0.253407,0.26502 -0.5067042,0.54954 -0.6197223,0.90425 -0.1130181,0.34683 -0.04675,0.72863 0.1013144,1.05607 0.2182593,0.46773 0.5495393,0.8654 0.9003096,1.2396 0.3352164,0.35461 0.6937464,0.6898 1.0601714,1.0133 -0.0207,-0.0446 -0.04246,-0.0886 -0.06517,-0.13208 -0.3407303,-0.65214 -0.8905247,-1.1898 -1.13529,-1.89862 -0.1597808,-0.44046 -0.1051407,-0.93924 0.1287735,-1.34455 0.2766368,-0.49894 0.7091925,-0.88079 1.1496505,-1.2355 0.377939,-0.30401 0.740604,-0.63136 1.056226,-1.00162 0.393594,-0.45995 0.7287,-0.99392 0.84192,-1.59799 C 10.097236,1.0133094 9.9763145,0.41692937 9.6101925,9.366028e-6 Z M 11.570667,3.2696794 c -0.896368,0.25725 -1.7810415,0.61181 -2.5371225,1.16922 -0.479342,0.35855 -0.92369,0.85738 -0.989946,1.47711 -0.06625,0.61963 0.257262,1.20426 0.643079,1.66411 0.18705,0.20665 0.34688,0.45999 0.354758,0.74834 0.0077,0.38592 -0.210588,0.74453 -0.491265,0.99784 0.0083,-9.7e-4 0.01626,-0.003 0.02399,-0.005 0.05408,-0.0168 0.09596,-0.065 0.143765,-0.0923 0.420965,-0.26886 0.826125,-0.6079 1.032871,-1.07169 0.136248,-0.31572 0.105203,-0.68992 -0.07417,-0.98221 -0.210483,-0.343 -0.487092,-0.6471 -0.650811,-1.0212 -0.08979,-0.21048 -0.120846,-0.45591 -0.04671,-0.67811 0.09746,-0.30007 0.307629,-0.54569 0.529928,-0.76001 0.6119545,-0.58075 1.3525225,-0.99379 2.0616385,-1.44587 z m 0.962645,5.38119 c -0.0522,0.002 -0.104256,0.006 -0.155918,0.0129 -0.237651,0.0312 -0.498812,0.0818 -0.66233,0.28059 0.04871,-0.01 0.09705,-0.0219 0.145501,-0.0344 0.145358,-0.0375 0.290712,-0.0776 0.442817,-0.063 0.424903,0.0233 0.842007,0.33516 0.919877,0.7638 0.07403,0.37026 -0.105416,0.7366696 -0.335189,1.0172496 -0.378141,0.45217 -0.888604,0.77554 -1.403094,1.05228 -0.0506,0.0312 -0.09347,0.0702 -0.132561,0.11315 0.678209,-0.1715 1.3565,-0.42886 1.906036,-0.86922 0.303806,-0.25331 0.572866,-0.58848 0.631243,-0.9899496 0.05464,-0.34683 -0.08962,-0.70547 -0.346868,-0.93534 -0.272811,-0.24895 -0.644093,-0.36063 -1.009514,-0.34813 z m -6.3728674,0.15308 c -0.7833499,-0.0116 -1.5627958,0.1872 -2.2798902,0.49505 -0.1597808,0.078 -0.3391787,0.14024 -0.4677507,0.27285 -0.050702,0.0544 -0.050746,0.14814 0.00773,0.1949 0.1169571,0.10524 0.2728729,0.15191 0.4210388,0.19474 0.510551,0.1364496 1.0367443,0.1754696 1.5590112,0.2105196 0.4677274,0.0312 0.9352154,0.039 1.4068818,0.035 1.215929,-0.0194 2.439785,-0.10126 3.6324855,-0.3662796 0.113017,-0.0273 0.237732,-0.0467 0.339134,-0.11694 0.198666,-0.12857 0.417024,-0.23 0.631243,-0.3314 -0.970299,0.15594 -1.9448415,0.2885 -2.9267565,0.35081 -0.9940336,0.0624 -1.995839,0.10145 -2.9935092,0.0352 -0.2845147,-0.0273 -0.5768978,-0.0429 -0.8419197,-0.15213 -0.062316,-0.0273 -0.1478876,-0.0818 -0.1167798,-0.16365 0.058478,-0.10524 0.1753398,-0.15598 0.276642,-0.21052 0.4287416,-0.20271 0.8964256,-0.31567 1.3524371,-0.44818 z M 5.4865932,10.628239 c -0.2415901,0.0857 -0.4832974,0.17541 -0.6860028,0.33519 -0.085647,0.0662 -0.1713573,0.17146 -0.1480264,0.28832 0.035148,0.13645 0.1675755,0.21832 0.2845326,0.28074 0.2883527,0.14807 0.6118873,0.21432 0.9276109,0.2727 0.6992175,0.11268 1.4101414,0.12967 2.11482,0.0956 0.100669,-0.005 0.201221,-0.0107 0.301576,-0.0175 0.849606,-0.0662 1.695332,-0.20675 2.5178695,-0.44834 -0.233914,-0.10524 -0.456028,-0.22603 -0.643079,-0.40147 -0.6821485,0.1208 -1.3682845,0.23387 -2.0580085,0.26891 -0.7561809,0.0507 -1.5122771,0.008 -2.2604793,-0.0701 -0.1443279,-0.0194 -0.2885215,-0.0429 -0.4170935,-0.10921 -0.066154,-0.039 -0.1324536,-0.10125 -0.1286156,-0.18306 0.00778,-0.12857 0.1170257,-0.21831 0.1948961,-0.31183 z m 0.3861626,1.75327 c -0.2183603,0.0623 -0.4404488,0.13652 -0.6197224,0.28075 -0.089687,0.0702 -0.1597045,0.19092 -0.1167798,0.30394 0.054539,0.14423 0.1908935,0.23001 0.3195665,0.30394 0.3351154,0.18332 0.7131068,0.26894 1.08337,0.33519 0.8379904,0.13251 1.6994404,0.11304 2.5334914,-0.035 0.433035,-0.0819 0.866076,-0.1936 1.2755835,-0.35855 0.0585,-0.0236 0.116598,-0.0482 0.174066,-0.074 -0.299968,-0.12483 -0.5923765,-0.26495 -0.8728515,-0.42877 -0.487321,0.0858 -0.978272,0.17531 -1.477107,0.20642 -0.658717,0.0507 -1.3252218,-0.004 -1.9838377,-0.0855 -0.1559428,-0.0351 -0.3508315,-0.0506 -0.4560727,-0.18716 -0.054641,-0.11302 0.070099,-0.19502 0.1402937,-0.26118 z m -1.6761067,1.15376 c -0.37804,0.0116 -0.7483933,0.10913 -1.1070415,0.22993 -0.3078457,0.11311 -0.6234331,0.23777 -0.8690632,0.4638 -0.097363,0.0857 -0.1869934,0.24932 -0.085691,0.36628 0.1559428,0.16746 0.3975115,0.21063 0.6118318,0.26133 1.2004766,0.20645 2.4164546,0.32326 3.6324851,0.36628 1.6135632,0.0468 3.2388672,-0.0234 4.8250597,-0.33519 0.545699,-0.11291 1.09521,-0.24164 1.594046,-0.49505 0.155842,-0.0896 0.346981,-0.18712 0.397682,-0.37417 0.02717,-0.17927 -0.160013,-0.27273 -0.292423,-0.34687 0.08191,0.0935 0.136356,0.23006 0.05444,0.33914 -0.13645,0.18331 -0.370254,0.25316 -0.576798,0.32335 -0.647,0.18322 -1.317343,0.25737 -1.983838,0.33141 -1.7655665,0.15988 -3.5426516,0.19872 -5.3081178,0.0507 -0.5924613,-0.0624 -1.1966063,-0.12865 -1.7617979,-0.33913 -0.089586,-0.0389 -0.2259848,-0.0779 -0.2259848,-0.19869 0.035047,-0.10524 0.1363986,-0.16376 0.2259848,-0.21446 0.4053099,-0.20654 0.8574402,-0.3196 1.3095126,-0.34687 -0.1325109,-0.078 -0.2882878,-0.0857 -0.4402916,-0.0817 z m 9.7129299,0.97053 c -0.292293,0.31179 -0.712931,0.45613 -1.106727,0.59258 -0.732749,0.23381 -1.492721,0.36245 -2.248801,0.46759 -1.3057185,0.16382 -2.6230355,0.21447 -3.936429,0.17549 -0.7990048,-0.0311 -1.5981199,-0.0857 -2.3853077,-0.21825 0.1831116,0.12463 0.4090822,0.16366 0.6195645,0.22204 0.8847531,0.18715 1.7928893,0.22212 2.6931963,0.24949 1.3213724,0.0232 2.6424969,-0.0274 3.9444769,-0.23403 0.61559,-0.10908 1.235352,-0.24137 1.788626,-0.52993 0.288454,-0.1519 0.580698,-0.38592 0.631401,-0.72498 z"
     id="path156"
     inkscape:connector-curvature="0" /></svg>