<?xml version="1.0" encoding="UTF-8" standalone="no"?>
<svg
   xmlns:dc="http://purl.org/dc/elements/1.1/"
   xmlns:cc="http://creativecommons.org/ns#"
   xmlns:rdf="http://www.w3.org/1999/02/22-rdf-syntax-ns#"
   xmlns:svg="http://www.w3.org/2000/svg"
   xmlns="http://www.w3.org/2000/svg"
   xmlns:sodipodi="http://sodipodi.sourceforge.net/DTD/sodipodi-0.dtd"
   xmlns:inkscape="http://www.inkscape.org/namespaces/inkscape"
   width="16"
   height="16"
   viewBox="0 0 16 16"
   id="svg2"
   version="1.1"
   inkscape:version="0.91 r13725"
   sodipodi:docname="jquery.svg">
  <metadata
     id="metadata10">
    <rdf:RDF>
      <cc:Work
         rdf:about="">
        <dc:format>image/svg+xml</dc:format>
        <dc:type
           rdf:resource="http://purl.org/dc/dcmitype/StillImage" />
        <dc:title></dc:title>
      </cc:Work>
    </rdf:RDF>
  </metadata>
  <defs
     id="defs8" />
  <sodipodi:namedview
     pagecolor="#ffffff"
     bordercolor="#666666"
     borderopacity="1"
     objecttolerance="10"
     gridtolerance="10"
     guidetolerance="10"
     inkscape:pageopacity="0"
     inkscape:pageshadow="2"
     inkscape:window-width="1366"
     inkscape:window-height="705"
     id="namedview6"
     showgrid="false"
     inkscape:zoom="0.4609375"
     inkscape:cx="-242.98305"
     inkscape:cy="256"
     inkscape:window-x="-8"
     inkscape:window-y="-8"
     inkscape:window-maximized="1"
     inkscape:current-layer="svg2" />
  <path
     d="M 9.997797,-2.004219e-6 C 9.732577,0.374538 9.490312,0.704918 9.262355,1.044698 c -0.09242,0.13829 -0.17057,0.29146 -0.226233,0.44798 -0.355325,0.99937 -0.175677,1.94965 0.363732,2.81978 0.752251,1.2136 1.85826,1.92763 3.293329,2.05952 0.809556,0.0745 1.590806,-0.083 2.219731,-0.6344 0.313978,-0.27514 0.553785,-0.63526 0.822037,-0.96138 0.09604,-0.11647 0.177175,-0.24536 0.265048,-0.36884 -0.008,-0.006 -0.01622,-0.0118 -0.02426,-0.0178 -0.141474,0.10609 -0.276425,0.22357 -0.426151,0.31688 -0.729682,0.45419 -1.535979,0.56029 -2.356818,0.39872 -1.38867,-0.27329 -2.442181,-1.04414 -3.073758,-2.31853 -0.427114,-0.86205 -0.535928,-1.76584 -0.122203,-2.67973 0.0072,-0.0159 9.87e-4,-0.0379 9.87e-4,-0.106880004219 z M 6.585142,0.823878 c -0.434609,0.5514 -0.850042,1.11171 -1.232315,1.69388 -0.387073,0.58953 -0.56991,1.25717 -0.590541,1.95716 -0.03175,1.06309 0.211936,2.08091 0.781577,2.97058 1.433174,2.23845 3.444854,3.45613 6.174488,3.2767 0.879913,-0.0578 1.688405,-0.34579 2.393414,-0.89652 0.776377,-0.60643 1.225351,-1.475 1.803202,-2.24506 -0.04771,0.0443 -0.09257,0.0914 -0.142845,0.13234 -0.211536,0.17295 -0.411036,0.3664 -0.64013,0.51225 -1.129807,0.71919 -2.374456,0.8432 -3.665778,0.65083 C 10.669542,8.757298 9.931203,8.460368 9.246237,8.038038 7.678494,7.071448 6.583248,5.753768 6.192134,3.917598 6.00666,3.046838 6.02319,2.188328 6.356031,1.351148 6.426811,1.173068 6.508469,0.999478 6.585142,0.823878 Z m -4.222109,1.24747 c -0.420462,0.57906 -0.845711,1.1547 -1.260194,1.73797 -0.70740797,0.99634 -1.07911497,2.10583 -1.10164097,3.32948 -0.01667,0.90502 0.141199,1.7832 0.437745,2.63467 0.92862897,2.66838 2.83067997,4.41807 5.35467197,5.5385 1.558774,0.69187 3.203672,0.84592 4.883456,0.53409 1.419785,-0.26358 2.637719,-0.90437 3.557884,-2.03047 0.523325,-0.64059 0.991634,-1.32635 1.483548,-1.99229 0.01082,-0.0145 0.01008,-0.0375 0.0082,-0.0297 -0.351535,0.28577 -0.692328,0.60968 -1.077464,0.86787 -1.432754,0.95974 -3.041923,1.18517 -4.719476,1.04643 -1.013218,-0.0837 -1.979303,-0.36453 -2.895469,-0.80918 -1.417848,-0.68784 -2.642372,-1.62313 -3.616601,-2.86436 -0.925176,-1.17884 -1.489298,-2.51774 -1.70534,-4.00198 -0.160673,-1.105 -0.07626,-2.18311 0.347696,-3.22375 0.09992,-0.24463 0.221283,-0.48061 0.332483,-0.72061 -0.0099,-0.006 -0.01967,-0.0112 -0.02952,-0.0167 z"
     id="path4142"
     inkscape:connector-curvature="0" />
</svg>
