<svg xmlns="http://www.w3.org/2000/svg" viewBox="0 0 16 16">
 <path d="m9.9978-0.0000020042c-0.2652 0.37454-0.5075 0.70492-0.7354 1.0447-0.09242 0.13829-0.17057 0.29146-0.22623 0.44798-0.35532 0.99937-0.17568 1.9496 0.36373 2.8198 0.75225 1.2136 1.8583 1.9276 3.2933 2.0595 0.80956 0.0745 1.5908-0.083 2.2197-0.6344 0.31398-0.27514 0.55378-0.63526 0.82204-0.96138 0.09604-0.11647 0.17718-0.24536 0.26505-0.36884-0.008-0.006-0.01622-0.0118-0.02426-0.0178-0.14147 0.10609-0.27642 0.22357-0.42615 0.31688-0.72968 0.45419-1.536 0.56029-2.3568 0.39872-1.3887-0.27329-2.4422-1.0441-3.0738-2.3185-0.42711-0.86205-0.53593-1.7658-0.1222-2.6797 0.0072-0.0159 0.000987-0.0379 0.000987-0.10688zm-3.4127 0.82388c-0.43461 0.5514-0.85004 1.1117-1.2323 1.6939-0.38707 0.58953-0.56991 1.2572-0.59054 1.9572-0.03175 1.0631 0.21194 2.0809 0.78158 2.9706 1.4332 2.2384 3.4449 3.4561 6.1745 3.2767 0.87991-0.0578 1.6884-0.34579 2.3934-0.89652 0.77638-0.60643 1.2254-1.475 1.8032-2.2451-0.04771 0.0443-0.09257 0.0914-0.14284 0.13234-0.21154 0.17295-0.41104 0.3664-0.64013 0.51225-1.1298 0.71919-2.3745 0.8432-3.6658 0.65083-0.796-0.1188-1.5348-0.4157-2.2198-0.8381-1.5677-0.9666-2.663-2.2842-3.0541-4.1204-0.1854-0.8708-0.1689-1.7293 0.1639-2.5665 0.0708-0.178 0.1525-0.35162 0.2291-0.52722zm-4.2221 1.2475c-0.42046 0.57906-0.84571 1.1547-1.2602 1.738-0.70741 0.99634-1.0791 2.1058-1.1016 3.3295-0.01667 0.90502 0.1412 1.7832 0.43774 2.6347 0.92863 2.6684 2.8307 4.4181 5.3547 5.5385 1.5588 0.69187 3.2037 0.84592 4.8835 0.53409 1.4198-0.26358 2.6377-0.90437 3.5579-2.0305 0.52332-0.64059 0.99163-1.3264 1.4835-1.9923 0.01082-0.0145 0.01008-0.0375 0.0082-0.0297-0.35154 0.28577-0.69233 0.60968-1.0775 0.86787-1.4328 0.95974-3.0419 1.1852-4.7195 1.0464-1.0132-0.0837-1.9793-0.36453-2.8955-0.80918-1.4178-0.68784-2.6424-1.6231-3.6166-2.8644-0.92518-1.1788-1.4893-2.5177-1.7053-4.002-0.16067-1.105-0.07626-2.1831 0.3477-3.2238 0.09992-0.24463 0.22128-0.48061 0.33248-0.72061-0.0099-0.006-0.01967-0.0112-0.02952-0.0167z"/>
</svg>