<svg xmlns="http://www.w3.org/2000/svg" viewBox="0 0 16 16">
 <path d="m7.9824 0v0.0019531c-4.081 0-7.9824 3.3774-7.9824 8.0078 0 2.5782 1.1128 4.5662 2.6699 5.9222 0.7964 0.694 1.7115 1.216 2.6485 1.564-0.0078-0.005-0.0157-0.011-0.0235-0.016-0.0341-0.022-0.0694-0.044-0.1035-0.068-0.0961-0.065-0.1913-0.132-0.2871-0.207-0.9571-0.748-1.8556-1.956-2.252-3.853-0.0164-0.079-0.0321-0.16-0.0468-0.241-0.0006-0.003-0.0014-0.004-0.002-0.007-0.0129-0.072-0.0236-0.145-0.0351-0.219-0.0022-0.014-0.0058-0.027-0.0079-0.041-0.0112-0.075-0.0214-0.151-0.0312-0.227-0.0015-0.011-0.0025-0.023-0.0039-0.035-0.0077-0.061-0.0148-0.123-0.0215-0.186-0.0032-0.03-0.0067-0.061-0.0098-0.091-0.007-0.072-0.0138-0.145-0.0195-0.219-0.0014-0.017-0.0026-0.035-0.0039-0.053-0.0054-0.0738-0.0096-0.1487-0.0137-0.2244-0.0011-0.0214-0.0028-0.043-0.0039-0.0645-0.0041-0.0867-0.0074-0.1746-0.0097-0.2636-0.0003-0.0094 0.0002-0.0184 0-0.0274-0.0024-0.0997-0.0039-0.2002-0.0039-0.3027 0-0.381 0.0258-0.7458 0.0761-1.0918 0.1175-0.8075 0.3646-1.5179 0.7051-2.1191 0.0973-0.1718 0.2028-0.3346 0.3145-0.4883 0.2234-0.3076 0.4731-0.5783 0.7441-0.8106 0.0673-0.0576 0.1373-0.1132 0.207-0.166 0.0697-0.0527 0.1391-0.1025 0.211-0.1504 0.0463-0.0309 0.0954-0.059 0.1425-0.0879 0.0268-0.0164 0.0512-0.0351 0.0782-0.0508 0.0576-0.0336 0.117-0.0632 0.1758-0.0937 0.016-0.0083 0.0326-0.0193 0.0488-0.0273 0.0753-0.038 0.1516-0.0727 0.2285-0.1055 0.0771-0.033 0.154-0.0639 0.2324-0.0918 0.793-0.2819 1.6474-0.3004 2.4453-0.0254a0.20515 0.20528 0 0 1 0.0039 0.002 0.20515 0.20528 0 0 1 0.0039 0.0019 0.20515 0.20528 0 0 0 0.002 0 0.20515 0.20528 0 0 1 0.0137 0.0059 0.20515 0.20528 0 0 0 0.0019 0.0019 0.20515 0.20528 0 0 0 0.002 0 0.20515 0.20528 0 0 1 0.0117 0.0059 0.20515 0.20528 0 0 1 0.0117 0.0078 0.20515 0.20528 0 0 0 0.002 0 0.20515 0.20528 0 0 0 0.0019 0.0019 0.20515 0.20528 0 0 1 0.0137 0.0118c0.0645 0.0261 0.1608 0.0635 0.3633 0.1855 0.2408 0.145 0.5559 0.3687 0.8691 0.6914 0.6265 0.647 1.2444 1.7009 1.2444 3.2774 0 2.3098-1.3649 3.4668-2.0901 3.9218 0.6725 0.143 1.4379 0.005 2.1521-0.381 0.064-0.034 0.129-0.071 0.192-0.109l0.002-0.002 0.005-0.004c0.062-0.038 0.122-0.076 0.182-0.117 0.004-0.002 0.008-0.005 0.012-0.008 0.058-0.04 0.116-0.083 0.174-0.127 0.006-0.005 0.012-0.011 0.019-0.016 0.055-0.042 0.111-0.085 0.164-0.131 0.007-0.005 0.013-0.011 0.02-0.017 0.218-0.188 0.423-0.402 0.613-0.641 0.015-0.018 0.031-0.036 0.045-0.054 0.031-0.04 0.06-0.082 0.09-0.123 0.022-0.03 0.043-0.06 0.064-0.09 0.028-0.041 0.055-0.083 0.082-0.125 0.022-0.0336 0.044-0.066 0.065-0.0999 0.024-0.0399 0.048-0.0821 0.072-0.123 0.023-0.0392 0.045-0.0772 0.066-0.1172 0.022-0.0394 0.042-0.079 0.063-0.1192 0.022-0.0424 0.044-0.0855 0.064-0.1289 0.02-0.0407 0.039-0.0815 0.057-0.123 0.021-0.0461 0.041-0.0934 0.061-0.1406 0.016-0.0399 0.031-0.0805 0.046-0.1211 0.02-0.0517 0.039-0.1035 0.057-0.1563 0.013-0.0384 0.028-0.0782 0.041-0.1172 0.018-0.0552 0.035-0.1115 0.051-0.1679 0.012-0.0413 0.024-0.0812 0.035-0.1231 0.014-0.0528 0.026-0.1063 0.039-0.1601 0.011-0.0468 0.021-0.0951 0.031-0.1426 0.012-0.0564 0.023-0.1125 0.034-0.1699 0.007-0.0442 0.016-0.0881 0.023-0.1329 0.01-0.0639 0.017-0.1301 0.025-0.1953 0.006-0.0417 0.012-0.0828 0.016-0.125 0.007-0.0721 0.013-0.1451 0.018-0.2187 0.002-0.0369 0.006-0.0741 0.007-0.1113 0.006-0.1114 0.01-0.2232 0.01-0.3379 0-0.134-0.003-0.2655-0.008-0.3946-0.001-0.0267-0.002-0.0537-0.004-0.0801-0.004-0.1218-0.01-0.2418-0.019-0.3593-0.002-0.0271-0.004-0.0533-0.006-0.0801-0.009-0.1074-0.019-0.2126-0.031-0.3164-0.002-0.0152-0.002-0.0319-0.004-0.0469-0.013-0.1116-0.029-0.2206-0.045-0.3281-0.005-0.0314-0.011-0.0609-0.016-0.0918-0.016-0.1001-0.033-0.2004-0.052-0.2969-0.007-0.0355-0.016-0.0705-0.024-0.1055-0.013-0.0638-0.026-0.1271-0.041-0.1894-0.01-0.0436-0.022-0.0861-0.033-0.1289-0.019-0.0762-0.039-0.1508-0.061-0.2246-0.015-0.0532-0.03-0.1063-0.046-0.1582-0.01-0.0307-0.02-0.0616-0.03-0.0918-0.036-0.1105-0.073-0.2175-0.113-0.3223v-0.0019-0.002c-0.423-1.1136-1.052-1.9074-1.715-2.4707-0.515-0.43781-1.0539-0.7352-1.535-0.92382h-0.002l-0.0019-0.00196c-0.0568-0.0222-0.113-0.04134-0.168-0.06054-0.0191-0.0066-0.0377-0.01353-0.0566-0.01953-0.0522-0.0174-0.1042-0.03433-0.1543-0.04883-0.0022 0-0.0036-0.00129-0.0059-0.00195h-0.002c-0.0752-0.0217-0.1467-0.040745-0.2168-0.056645-0.2932-0.0511-0.5737-0.078125-0.8281-0.078125zm2.7966 0.54102v0.00195c0.147 0.10324 0.295 0.21441 0.44 0.33789 0.881 0.74824 1.693 1.8832 2.107 3.5332 0.058 0.2317 0.107 0.4743 0.149 0.7265 0.003 0.0185 0.006 0.0361 0.009 0.0547 0.019 0.1186 0.036 0.2401 0.051 0.3633 0.002 0.0143 0.002 0.0287 0.004 0.043 0.013 0.1156 0.026 0.2337 0.035 0.3535 0.002 0.0174 0.003 0.0352 0.004 0.0527 0.01 0.1266 0.016 0.2556 0.022 0.3867 0.001 0.0255 0.003 0.0505 0.004 0.0762 0.004 0.1349 0.007 0.2704 0.007 0.4102 0 0.1258-0.003 0.2507-0.009 0.373-0.001 0.0104-0.004 0.0208-0.004 0.0313-0.011 0.1903-0.031 0.3749-0.057 0.5566-0.006 0.0412-0.009 0.0843-0.016 0.125-0.029 0.1798-0.066 0.3547-0.109 0.5254-0.012 0.048-0.024 0.0972-0.037 0.1445-0.03 0.1073-0.061 0.2111-0.096 0.3145-0.016 0.0485-0.035 0.0968-0.053 0.1445-0.019 0.0541-0.037 0.1092-0.058 0.1621-0.04 0.0993-0.081 0.1958-0.125 0.291l-0.002 0.002c-0.044 0.0951-0.089 0.1883-0.137 0.2793h-0.002c-0.048 0.0908-0.098 0.1809-0.15 0.2679-0.052 0.086-0.106 0.171-0.162 0.254l-0.002 0.002c-0.056 0.082-0.113 0.162-0.172 0.24l-0.002 0.002c-0.059 0.077-0.119 0.153-0.182 0.226-0.037 0.044-0.078 0.085-0.117 0.127-0.026 0.029-0.05 0.058-0.076 0.086l-0.002 0.002c-0.111 0.116-0.228 0.226-0.346 0.328-0.021 0.019-0.042 0.039-0.064 0.057l-0.002 0.002c-0.141 0.118-0.287 0.226-0.436 0.324-0.074 0.049-0.15 0.096-0.226 0.141-0.075 0.043-0.15 0.086-0.227 0.125-0.001 0.001-0.002 0.001-0.004 0.002-0.155 0.078-0.313 0.144-0.472 0.201-0.237 0.084-0.4767 0.146-0.7152 0.181-0.0019 0.001-0.0039 0-0.0058 0-0.4807 0.071-0.956 0.039-1.4004-0.107-0.0754-0.025-0.1513-0.053-0.2246-0.084-0.0018-0.001-0.0024-0.001-0.0039-0.002a0.20515 0.20528 0 0 1 -0.0176 -0.008c-0.0576-0.022-0.185-0.078-0.4024-0.209-0.2407-0.145-0.5559-0.368-0.8691-0.691-0.6265-0.647-1.2441-1.701-1.2441-3.2775 0-2.2827 1.3253-3.4432 2.0546-3.9121-0.1242-0.0223-0.2495-0.0369-0.375-0.0449-0.0513-0.003-0.1028-0.0033-0.1543-0.0039-0.0156-0.0002-0.0312 0-0.0468 0-0.0484 0-0.0962 0.0019-0.1446 0.0039l-0.0527 0.002c-0.0474 0.0028-0.0933 0.0067-0.1406 0.0117-0.0194 0.002-0.0392 0.0058-0.0586 0.0078-0.047 0.0058-0.0938 0.0115-0.1406 0.0195-0.0172 0.003-0.0336 0.0068-0.0508 0.0098-0.0478 0.0087-0.097 0.0184-0.1445 0.0293-0.0165 0.0034-0.0324 0.0077-0.0489 0.0117-0.0956 0.0233-0.1909 0.0502-0.2851 0.082-0.0139 0.0044-0.0272 0.0087-0.041 0.0137-0.031 0.0109-0.063 0.0234-0.0938 0.0352-0.0364 0.014-0.0713 0.0277-0.1074 0.0429-0.027 0.0114-0.0552 0.025-0.082 0.0371-0.0382 0.0172-0.0756 0.0342-0.1133 0.0528-0.0268 0.0132-0.0536 0.0272-0.0801 0.041-0.0381 0.0199-0.0757 0.0411-0.1133 0.0625-0.0246 0.014-0.0498 0.0264-0.0742 0.041-0.04 0.0239-0.0797 0.0506-0.1191 0.0762-0.0224 0.0145-0.0443 0.0279-0.0665 0.0429-0.0441 0.03-0.0875 0.0618-0.1308 0.0938-0.0157 0.0116-0.0313 0.0213-0.0469 0.0332-0.06 0.0457-0.1195 0.0947-0.1777 0.1445-0.123 0.1055-0.2417 0.2202-0.3555 0.3418-0.0568 0.0617-0.1138 0.1253-0.168 0.1914-0.1084 0.1323-0.2101 0.274-0.3066 0.4239-0.1447 0.2247-0.2757 0.4689-0.3887 0.7324-0.0753 0.1755-0.1421 0.3584-0.2011 0.5508v0.0019c-0.1477 0.4811-0.2423 1.0143-0.2696 1.5977-0.0054 0.1166-0.0078 0.2348-0.0078 0.3554 0 0.0995 0.0017 0.1964 0.0039 0.293 0.0001 0.002-0.0001 0.0068 0 0.0098 0.0022 0.0929 0.0056 0.1831 0.0098 0.2734 0.0005 0.0113 0.0014 0.022 0.0019 0.0332 0.0042 0.083 0.0079 0.1654 0.0137 0.2462 0.0062 0.086 0.0135 0.172 0.0215 0.256 0.0042 0.044 0.0089 0.087 0.0137 0.131 0.0047 0.043 0.0104 0.088 0.0156 0.13 0.0041 0.034 0.0073 0.067 0.0117 0.1 0.0068 0.051 0.014 0.104 0.0215 0.154 0.004 0.027 0.0095 0.052 0.0137 0.079 0.0088 0.055 0.0177 0.111 0.0273 0.166 0.003 0.017 0.0047 0.033 0.0078 0.05 0.012 0.066 0.0259 0.132 0.0391 0.196v0.002c0.0159 0.077 0.0331 0.153 0.0508 0.228 0.0174 0.074 0.0357 0.146 0.0546 0.217 0.0015 0.005 0.0025 0.012 0.004 0.017 0.0183 0.069 0.0369 0.136 0.0566 0.202 0.0418 0.14 0.0871 0.273 0.1348 0.404 0.2623 0.718 0.6096 1.294 0.9961 1.758 0.281 0.337 0.5828 0.615 0.8886 0.845 0.1529 0.115 0.3059 0.219 0.459 0.311 0.0726 0.044 0.1449 0.084 0.2168 0.123 0.0117 0.006 0.0235 0.012 0.0352 0.018 0.0561 0.029 0.1125 0.059 0.1679 0.086 0.0333 0.016 0.0667 0.031 0.0996 0.046 0.0332 0.016 0.0649 0.031 0.0977 0.045 0.0475 0.021 0.096 0.04 0.1426 0.059 0.0195 0.008 0.0392 0.015 0.0586 0.023 0.061 0.024 0.1206 0.048 0.1797 0.069h0.0019c0.3376 0.119 0.639 0.19 0.8711 0.23 0.0739 0.013 0.1346 0.023 0.1934 0.03 0.0249 0.003 0.0522 0.005 0.0742 0.007 0.054 0.006 0.1031 0.011 0.1367 0.012h0.002 0.0039c0.0113 0 0.0328 0.002 0.041 0.002 4.0814 0 7.9824-3.379 7.9824-8.0098 0-2.578-1.113-4.5638-2.67-5.9199-0.769-0.6697-1.648-1.1815-2.551-1.5293z"/>
</svg>