<?xml version="1.0" encoding="UTF-8" standalone="no"?>
<svg
   xmlns:dc="http://purl.org/dc/elements/1.1/"
   xmlns:cc="http://creativecommons.org/ns#"
   xmlns:rdf="http://www.w3.org/1999/02/22-rdf-syntax-ns#"
   xmlns:svg="http://www.w3.org/2000/svg"
   xmlns="http://www.w3.org/2000/svg"
   xmlns:xlink="http://www.w3.org/1999/xlink"
   xmlns:sodipodi="http://sodipodi.sourceforge.net/DTD/sodipodi-0.dtd"
   xmlns:inkscape="http://www.inkscape.org/namespaces/inkscape"
   id="svg-001"
   viewBox="0 0 16 16"
   version="1.1"
   inkscape:version="0.91 r13725"
   sodipodi:docname="json.svg"
   width="16"
   height="16">
  <sodipodi:namedview
     pagecolor="#ffffff"
     bordercolor="#666666"
     borderopacity="1"
     objecttolerance="10"
     gridtolerance="10"
     guidetolerance="10"
     inkscape:pageopacity="0"
     inkscape:pageshadow="2"
     inkscape:window-width="1366"
     inkscape:window-height="705"
     id="namedview15"
     showgrid="false"
     inkscape:zoom="2.085965"
     inkscape:cx="114.33768"
     inkscape:cy="72.764623"
     inkscape:window-x="-8"
     inkscape:window-y="-8"
     inkscape:window-maximized="1"
     inkscape:current-layer="svg-001" />
  <title
     id="title-001">JSON logo</title>
  <defs
     id="gradients-001">
    <linearGradient
       id="linearGradient8385">
      <stop
         id="stop8387"
         stop-color="#165a71"
         offset="0" />
      <stop
         id="stop8389"
         stop-color="#fff"
         offset="1" />
    </linearGradient>
    <linearGradient
       id="linearGradient3001"
       x1="-564.26001"
       xlink:href="#linearGradient8385"
       gradientUnits="userSpaceOnUse"
       y1="535.62"
       gradientTransform="matrix(0.99884,0,0,0.9987,689.01,-388.848)"
       x2="-578.35999"
       y2="376.51999" />
    <linearGradient
       id="linearGradient3004"
       x1="-642.33002"
       xlink:href="#linearGradient8385"
       gradientUnits="userSpaceOnUse"
       y1="395.76001"
       gradientTransform="matrix(0.99884,0,0,0.9987,689.01,-388.848)"
       x2="-570.35999"
       y2="537.69" />
  </defs>
  <path
     style="color:#000000;font-style:normal;font-variant:normal;font-weight:normal;font-stretch:normal;font-size:medium;line-height:normal;font-family:sans-serif;text-indent:0;text-align:start;text-decoration:none;text-decoration-line:none;text-decoration-style:solid;text-decoration-color:#000000;letter-spacing:normal;word-spacing:normal;text-transform:none;direction:ltr;block-progression:tb;writing-mode:lr-tb;baseline-shift:baseline;text-anchor:start;white-space:normal;clip-rule:nonzero;display:inline;overflow:visible;visibility:visible;opacity:1;isolation:auto;mix-blend-mode:normal;color-interpolation:sRGB;color-interpolation-filters:linearRGB;solid-color:#000000;solid-opacity:1;fill:#000000;fill-opacity:1;fill-rule:evenodd;stroke:none;stroke-width:4;stroke-linecap:butt;stroke-linejoin:round;stroke-miterlimit:4;stroke-dasharray:none;stroke-dashoffset:0;stroke-opacity:1;color-rendering:auto;image-rendering:auto;shape-rendering:auto;text-rendering:auto;enable-background:accumulate"
     d="m 7.9830171,0 c 0.2543551,0 0.5340861,0.028 0.8273131,0.0791 0.07001,0.0159 0.141685,0.0336 0.216945,0.0553 5.43e-4,1.6e-4 0.0011,2.4e-4 0.0016,4e-4 0.0023,6.6e-4 0.0046,0.002 0.0068,0.002 0.0501,0.0145 0.101694,0.0309 0.153844,0.0483 0.0189,0.006 0.03815,0.013 0.05729,0.0196 0.05499,0.0192 0.110331,0.0393 0.167065,0.0615 10e-4,3.9e-4 0.002,6.1e-4 0.003,0.001 4.21e-4,1.6e-4 7.8e-4,4.4e-4 0.0012,6e-4 0.481182,0.18862 1.0200898,0.48486 1.5354368,0.92268 0.663065,0.5633 1.2911,1.35901 1.71372,2.47256 5.4e-5,1.4e-4 1.03e-4,2.6e-4 2.05e-4,4e-4 2.06e-4,5.3e-4 4.11e-4,10e-4 6.16e-4,0.002 0.03974,0.10482 0.07722,0.21301 0.113179,0.32354 0.0098,0.0302 0.01974,0.0603 0.02925,0.091 0.01615,0.0519 0.03199,0.10419 0.04727,0.15735 0.02114,0.0738 0.0415,0.14867 0.0609,0.22491 0.01094,0.0428 0.02128,0.0867 0.03165,0.13029 0.01476,0.0623 0.0289,0.12533 0.04247,0.18922 0.0075,0.035 0.01534,0.0695 0.02244,0.10504 5.4e-5,2.7e-4 1.03e-4,5.3e-4 2.05e-4,8e-4 0.01921,0.0965 0.03667,0.19516 0.05308,0.29527 0.0051,0.0309 0.01002,0.0619 0.01482,0.0933 0.01648,0.10746 0.03173,0.21631 0.04487,0.32794 0.0018,0.015 0.0031,0.0305 0.0048,0.0457 0.01173,0.10376 0.02192,0.20972 0.03065,0.31711 0.0022,0.0268 0.0046,0.0533 0.0066,0.0804 0.0086,0.11754 0.0153,0.23731 0.02023,0.35921 0.0011,0.0264 0.0019,0.0531 0.0028,0.0798 0.0043,0.12905 0.0072,0.25971 0.0072,0.39368 0,0.11473 -0.0032,0.22757 -0.0088,0.33896 -0.0019,0.0372 -0.0057,0.0734 -0.0082,0.11024 -0.005,0.0736 -0.0098,0.14739 -0.01723,0.2195 -0.0043,0.0422 -0.01029,0.0834 -0.01542,0.12508 -0.008,0.0652 -0.01609,0.13049 -0.02604,0.19444 -0.007,0.0448 -0.01533,0.0889 -0.02324,0.1331 -0.01028,0.0574 -0.02065,0.115 -0.03245,0.17138 -0.0099,0.0475 -0.02105,0.0942 -0.03205,0.14092 -0.01267,0.0538 -0.02544,0.10757 -0.03946,0.16036 -0.01115,0.0419 -0.02307,0.0832 -0.03506,0.12449 -0.01639,0.0564 -0.03336,0.11254 -0.05128,0.16777 -0.01266,0.039 -0.02586,0.0777 -0.03926,0.11607 -0.01844,0.0528 -0.03749,0.10513 -0.05729,0.15675 -0.0156,0.0406 -0.03145,0.081 -0.04788,0.12087 -0.01943,0.0472 -0.03955,0.0938 -0.06009,0.13991 -0.01851,0.0415 -0.03711,0.083 -0.05649,0.12368 -0.02067,0.0434 -0.04227,0.0859 -0.0639,0.12829 -0.02054,0.0402 -0.04112,0.0805 -0.0625,0.11987 -0.02177,0.04 -0.04429,0.0791 -0.06691,0.11827 -0.02368,0.0409 -0.04714,0.0822 -0.07171,0.12207 -0.02088,0.0339 -0.0428,0.0666 -0.0643,0.0999 -0.02723,0.042 -0.05414,0.0844 -0.08233,0.12508 -0.02118,0.0306 -0.04341,0.0598 -0.0651,0.0898 -0.02994,0.0413 -0.05945,0.0832 -0.09034,0.12308 -0.01431,0.0185 -0.02937,0.0359 -0.04387,0.0541 -0.189869,0.23838 -0.395859,0.45259 -0.613774,0.64024 -0.0066,0.006 -0.01317,0.0118 -0.01983,0.0174 -0.05373,0.0457 -0.108249,0.0896 -0.163258,0.1321 -0.0067,0.005 -0.01314,0.0107 -0.01983,0.0158 -0.05735,0.0438 -0.115534,0.0859 -0.174077,0.12628 -0.0039,0.003 -0.0077,0.006 -0.01162,0.008 -0.06007,0.0412 -0.120758,0.0803 -0.181889,0.11787 -0.0016,10e-4 -0.0032,0.002 -0.0048,0.003 -10e-4,6.2e-4 -0.002,10e-4 -0.003,0.002 -0.06302,0.0384 -0.126569,0.075 -0.190503,0.10944 -0.7144898,0.38575 -1.4795018,0.52346 -2.1520158,0.38067 0.72519,-0.45467 2.0893168,-1.61233 2.0893168,-3.92244 0,-1.57646 -0.6186888,-2.63041 -1.2451768,-3.27737 C 9.0355652,4.43349 8.7211562,4.20984 8.4804302,4.06481 8.2779132,3.9428 8.1815572,3.90551 8.1170532,3.87939 a 0.20514615,0.20528241 0 0 0 -0.01442,-0.0114 0.20514615,0.20528241 0 0 0 -0.0016,-10e-4 0.20514615,0.20528241 0 0 0 -0.0022,-10e-4 0.20514615,0.20528241 0 0 0 -0.01082,-0.007 0.20514615,0.20528241 0 0 0 -0.01082,-0.006 0.20514615,0.20528241 0 0 0 -0.0026,-0.001 0.20514615,0.20528241 0 0 0 -0.0028,-10e-4 0.20514615,0.20528241 0 0 0 -0.01342,-0.006 0.20514615,0.20528241 0 0 0 -0.0024,-0.001 0.20514615,0.20528241 0 0 0 -0.0026,-10e-4 0.20514615,0.20528241 0 0 0 -0.0044,-0.002 c -6.2e-5,-2e-5 -1.33e-4,2e-5 -2.05e-4,0 -2.05e-4,-6e-5 -4e-4,-1.3e-4 -6.05e-4,-2e-4 C 7.2502704,3.5658 6.3967441,3.58531 5.6036826,3.86719 c -0.078421,0.0279 -0.1562461,0.0582 -0.2333704,0.0912 -0.076844,0.0328 -0.1530294,0.0681 -0.2283626,0.10603 -0.01613,0.008 -0.031821,0.0175 -0.047876,0.0258 -0.058755,0.0305 -0.1174015,0.0613 -0.1750779,0.0949 -0.026998,0.0157 -0.053182,0.0333 -0.079927,0.0497 -0.047153,0.0289 -0.094505,0.0571 -0.1408236,0.088 -0.07188,0.0479 -0.1428539,0.0984 -0.2125373,0.15114 C 4.4160068,4.52676 4.3474623,4.58208 4.2801814,4.63974 4.0091605,4.87199 3.7586017,5.14284 3.5351988,5.45036 3.4234973,5.60412 3.3185803,5.76708 3.2213005,5.93886 2.8808212,6.5401 2.6337424,7.25006 2.5161811,8.05763 c -9.6e-6,7e-5 9.5e-6,1.3e-4 0,2e-4 -0.050365,0.34605 -0.076922,0.71009 -0.076922,1.09106 0,0.10247 0.00125,0.2034 0.00361,0.30308 2.256e-4,0.009 7.59e-4,0.0186 0.00101,0.028 0.00231,0.089 0.00528,0.17724 0.00942,0.264 0.00103,0.0215 0.00267,0.0423 0.00381,0.0637 0.00402,0.0757 0.00824,0.15092 0.013622,0.22491 0.00128,0.0175 0.00305,0.0345 0.00441,0.0519 0.0057,0.0736 0.011607,0.14695 0.01863,0.2189 0.00302,0.0308 0.00676,0.0608 0.010016,0.0914 0.00668,0.0627 0.013367,0.12553 0.021033,0.18702 0.00145,0.0115 0.00313,0.0227 0.00461,0.0342 0.00978,0.0763 0.019979,0.15193 0.03125,0.22631 0.0021,0.0139 0.00466,0.0273 0.00681,0.0411 0.011523,0.0738 0.023503,0.1471 0.036458,0.21909 5.744e-4,0.003 0.00123,0.006 0.0018,0.009 0.014694,0.0811 0.030218,0.16116 0.046674,0.23993 0.3963769,1.89731 1.2944755,3.10555 2.2515744,3.85367 0.095774,0.0748 0.1917744,0.14194 0.2878569,0.20667 0.034087,0.0234 0.068081,0.046 0.1021622,0.0683 0.0078,0.005 0.01564,0.0106 0.023437,0.0156 C 4.3804921,15.14769 3.466447,14.62473 2.6700498,13.93114 1.1128931,12.57502 0,10.5876 0,8.00962 0,3.37921 3.9020917,8e-4 7.9830733,8e-4 Z"
     id="path4183"
     inkscape:connector-curvature="0" />
  <path
     style="color:#000000;font-style:normal;font-variant:normal;font-weight:normal;font-stretch:normal;font-size:medium;line-height:normal;font-family:sans-serif;text-indent:0;text-align:start;text-decoration:none;text-decoration-line:none;text-decoration-style:solid;text-decoration-color:#000000;letter-spacing:normal;word-spacing:normal;text-transform:none;direction:ltr;block-progression:tb;writing-mode:lr-tb;baseline-shift:baseline;text-anchor:start;white-space:normal;clip-rule:nonzero;display:inline;overflow:visible;visibility:visible;opacity:1;isolation:auto;mix-blend-mode:normal;color-interpolation:sRGB;color-interpolation-filters:linearRGB;solid-color:#000000;solid-opacity:1;fill:#000000;fill-opacity:1;fill-rule:evenodd;stroke:none;stroke-width:4;stroke-linecap:butt;stroke-linejoin:round;stroke-miterlimit:4;stroke-dasharray:none;stroke-dashoffset:0;stroke-opacity:1;color-rendering:auto;image-rendering:auto;shape-rendering:auto;text-rendering:auto;enable-background:accumulate"
     d="m 10.779056,0.54061 c 0.903087,0.34778 1.78205,0.85932 2.551049,1.52904 1.557148,1.35612 2.669839,3.34354 2.669839,5.92152 0,4.63042 -3.902094,8.00883 -7.9830728,8.00883 -0.0082,0 -0.028574,-0.002 -0.039864,-0.002 -0.00108,-3e-5 -0.0027,-2e-4 -0.00381,-2e-4 -5.846e-4,-2e-5 -0.00181,-2.1e-4 -0.0024,-2.1e-4 -0.033626,-0.001 -0.082784,-0.005 -0.1368173,-0.0108 -0.021949,-0.002 -0.048759,-0.006 -0.073717,-0.009 -0.058718,-0.007 -0.1195823,-0.015 -0.1935073,-0.0279 -0.2320842,-0.0405 -0.5337705,-0.11154 -0.8713832,-0.23092 -5.949e-4,-2.1e-4 -0.00121,-4.1e-4 -0.0018,-6.2e-4 -0.059023,-0.0209 -0.1194513,-0.0438 -0.1804864,-0.0677 -0.019328,-0.008 -0.038789,-0.0155 -0.058293,-0.0234 -0.046615,-0.0189 -0.093702,-0.0389 -0.1412243,-0.0597 -0.032786,-0.0144 -0.065804,-0.0293 -0.098957,-0.0447 -0.032941,-0.0152 -0.066103,-0.0308 -0.099358,-0.0469 -0.055437,-0.027 -0.1111287,-0.0552 -0.1672656,-0.0849 -0.011703,-0.006 -0.023329,-0.0123 -0.035056,-0.0186 -0.071882,-0.0388 -0.1442024,-0.0795 -0.2167441,-0.12307 -0.1531258,-0.092 -0.30724,-0.1949 -0.4601305,-0.30989 -0.305781,-0.23 -0.6077343,-0.50784 -0.888811,-0.84511 -0.3864803,-0.46374 -0.73345,-1.03971 -0.9957808,-1.75755 -0.047696,-0.13053 -0.092573,-0.26584 -0.1344134,-0.40592 -0.019701,-0.0659 -0.038575,-0.13312 -0.05689,-0.20125 -0.00147,-0.005 -0.00315,-0.0108 -0.00461,-0.0162 -0.018994,-0.0712 -0.037069,-0.14378 -0.054486,-0.21749 -0.017613,-0.0746 -0.034345,-0.15046 -0.05028,-0.22751 -1.23e-4,-6.1e-4 -2.769e-4,-10e-4 -4e-4,-0.002 -0.013223,-0.064 -0.025637,-0.12928 -0.03766,-0.19504 -0.00312,-0.0171 -0.00638,-0.0337 -0.00942,-0.0509 -0.00963,-0.0545 -0.018452,-0.11025 -0.027243,-0.16598 -0.0042,-0.0266 -0.00882,-0.0528 -0.01282,-0.0798 -0.0075,-0.0503 -0.014036,-0.102 -0.020833,-0.15335 -0.00442,-0.0334 -0.0093,-0.0663 -0.013421,-0.10023 -0.00521,-0.0427 -0.0095,-0.0866 -0.014223,-0.13008 -0.00474,-0.0436 -0.00999,-0.0868 -0.014223,-0.1311 -0.00803,-0.0839 -0.015045,-0.16897 -0.021234,-0.25538 -0.00579,-0.0807 -0.010493,-0.16312 -0.014623,-0.24615 -5.538e-4,-0.0112 -0.00128,-0.022 -0.0018,-0.0333 -0.00423,-0.0903 -0.0076,-0.18187 -0.00982,-0.27481 -6.78e-5,-0.003 -1.333e-4,-0.006 -2.051e-4,-0.008 -0.00224,-0.0966 -0.00341,-0.19461 -0.00341,-0.29406 0,-0.12067 0.00275,-0.23933 0.00821,-0.356 0.027291,-0.58333 0.1216059,-1.11668 0.2692274,-1.59779 1.88e-5,-7e-5 -1.88e-5,-1.5e-4 0,-2.1e-4 0.05905,-0.19239 0.1266316,-0.37648 0.2019206,-0.55204 2.42e-5,-6e-5 -2.42e-5,-1.5e-4 0,-2.1e-4 0.1129674,-0.26345 0.243319,-0.50767 0.388016,-0.73245 0.096464,-0.14985 0.1992719,-0.29083 0.3076884,-0.42315 3.23e-5,-4e-5 -3.23e-5,-1.7e-4 0,-2.1e-4 0.054177,-0.0661 0.1098244,-0.12993 0.1666646,-0.19163 3.26e-5,-4e-5 -3.26e-5,-1.7e-4 0,-2.1e-4 C 4.3048965,5.17098 4.4238568,5.0565 4.546943,4.95102 4.605131,4.90122 4.6644326,4.85362 4.7244248,4.80789 c 0.015548,-0.0119 0.031412,-0.0229 0.047075,-0.0345 0.043288,-0.032 0.086888,-0.0634 0.131008,-0.0934 0.022172,-0.015 0.044536,-0.0294 0.066906,-0.0439 0.039423,-0.0256 0.078982,-0.0506 0.1189889,-0.0745 0.024437,-0.0146 0.049075,-0.0287 0.073717,-0.0427 0.037639,-0.0214 0.075491,-0.042 0.1135803,-0.0619 0.026531,-0.0138 0.053191,-0.0275 0.079927,-0.0407 0.037758,-0.0186 0.075842,-0.0361 0.113981,-0.0533 0.026836,-0.0121 0.053517,-0.0245 0.080528,-0.0359 0.036127,-0.0152 0.072557,-0.0289 0.108973,-0.0429 0.03079,-0.0118 0.061368,-0.0244 0.092347,-0.0353 0.013813,-0.005 0.027818,-0.009 0.041666,-0.0134 0.094276,-0.0318 0.1894066,-0.0592 0.2850524,-0.0825 0.016454,-0.004 0.032792,-0.009 0.049278,-0.0124 0.047579,-0.0109 0.095414,-0.0199 0.1432274,-0.0286 0.01717,-0.003 0.034286,-0.007 0.051482,-0.01 0.046814,-0.008 0.093658,-0.0142 0.1406232,-0.02 0.01936,-0.002 0.038713,-0.005 0.058092,-0.007 0.047281,-0.005 0.094665,-0.009 0.1420254,-0.0118 0.017282,-10e-4 0.034595,-0.002 0.051882,-0.003 0.04833,-0.002 0.096694,-0.004 0.1450302,-0.004 0.015635,-4e-5 0.031242,4.1e-4 0.046875,6e-4 0.051452,6.4e-4 0.1028725,0.002 0.1542448,0.005 0.1254274,0.008 0.2505385,0.0224 0.3747951,0.0447 -0.729295,0.46888 -2.0554632,1.62866 -2.0554632,3.9114 0,1.57647 0.6186796,2.63043 1.2451768,3.27738 0.3132486,0.32347 0.6276496,0.54712 0.8683786,0.69215 0.2173303,0.13093 0.3454362,0.18516 0.4030397,0.20766 a 0.20514615,0.20528241 0 0 0 0.018029,0.008 c -0.033021,-0.0127 -0.00769,-0.003 -0.00581,-0.002 0.00109,5.2e-4 0.0053,0.002 0.00962,0.004 0.073325,0.0312 0.1477988,0.0588 0.2231548,0.0836 0.44439,0.1457 0.921513,0.17857 1.402226,0.10844 0.0019,-3.1e-4 0.0039,-7.2e-4 0.0058,-10e-4 0.238469,-0.0352 0.4777928,-0.0956 0.7143348,-0.1802 0.158987,-0.0568 0.316738,-0.12457 0.472149,-0.20286 0.0012,-6.2e-4 0.0024,-10e-4 0.0036,-0.002 0.07649,-0.0386 0.152335,-0.0797 0.227561,-0.12347 0.07637,-0.0443 0.151961,-0.0913 0.226759,-0.14072 0.148959,-0.0985 0.294584,-0.2069 0.435692,-0.32513 6.16e-4,-5.1e-4 0.0014,-10e-4 0.002,-0.002 0.02181,-0.0183 0.04271,-0.0384 0.0643,-0.0571 0.118135,-0.10261 0.233689,-0.21057 0.344547,-0.32674 5.12e-4,-5.1e-4 0.0011,-10e-4 0.0016,-0.002 0.02642,-0.0277 0.05156,-0.0575 0.07752,-0.0859 0.03871,-0.0424 0.07795,-0.084 0.115583,-0.12809 0.06244,-0.0731 0.123412,-0.14845 0.18269,-0.22611 4.1e-4,-5.1e-4 8.2e-4,-10e-4 0.0012,-0.002 0.05928,-0.0777 0.116821,-0.15778 0.172674,-0.23994 3.07e-4,-5.1e-4 6.15e-4,-10e-4 10e-4,-0.002 0.05589,-0.0823 0.110079,-0.16657 0.162258,-0.25317 3.07e-4,-4.1e-4 5.12e-4,-9.2e-4 8.2e-4,-0.001 0.05216,-0.0867 0.102454,-0.17553 0.150639,-0.2664 2.05e-4,-4.7e-4 5.13e-4,-9.3e-4 8.21e-4,-10e-4 0.04821,-0.091 0.09427,-0.18409 0.13822,-0.27922 2.05e-4,-4e-4 4.1e-4,-8e-4 6.15e-4,-0.001 0.04395,-0.0952 0.08577,-0.1924 0.125198,-0.29166 2.06e-4,-3.9e-4 2.06e-4,-8.1e-4 4.11e-4,-0.001 0.02103,-0.0529 0.03961,-0.10805 0.05929,-0.16216 0.01734,-0.0477 0.03602,-0.0944 0.05228,-0.14292 0.03461,-0.10335 0.06661,-0.20868 0.09615,-0.31592 0.01302,-0.0473 0.02366,-0.0963 0.03566,-0.14432 0.04264,-0.17067 0.08073,-0.34473 0.109774,-0.52458 3.1e-5,-1.9e-4 -3.1e-5,-4.1e-4 0,-6e-4 0.0066,-0.0407 0.01078,-0.0829 0.01663,-0.12409 0.02577,-0.18165 0.04575,-0.36688 0.05669,-0.55725 6.17e-4,-0.0105 0.0018,-0.0206 0.0024,-0.031 3e-6,-7e-5 -4e-6,-1.4e-4 0,-2.1e-4 0.0065,-0.12234 0.0098,-0.24643 0.0098,-0.37223 0,-0.13978 -0.0032,-0.27625 -0.0078,-0.41113 -9.24e-4,-0.0257 -0.0018,-0.0516 -0.0028,-0.0771 -0.0054,-0.13117 -0.01263,-0.26012 -0.02223,-0.38667 -0.0013,-0.0175 -0.003,-0.0347 -0.0044,-0.0521 -0.0097,-0.1198 -0.02113,-0.23771 -0.03446,-0.35339 -0.0017,-0.0143 -0.0029,-0.029 -0.0046,-0.0433 -0.01473,-0.12317 -0.03199,-0.24346 -0.05068,-0.36201 -0.0029,-0.0186 -0.006,-0.0372 -0.009,-0.0557 C 13.433457,4.88644 13.383557,4.64436 13.32554,4.4127 12.912362,2.76273 12.099656,1.62631 11.218997,0.87814 11.073594,0.75462 10.926384,0.64422 10.779099,0.54098 Z"
     id="path4181"
     inkscape:connector-curvature="0" />
  <metadata
     id="metadata13">
    <rdf:RDF>
      <cc:Work>
        <dc:format>image/svg+xml</dc:format>
        <dc:type
           rdf:resource="http://purl.org/dc/dcmitype/StillImage" />
        <cc:license
           rdf:resource="http://creativecommons.org/publicdomain/zero/1.0/" />
        <dc:publisher>
          <cc:Agent
             rdf:about="http://openclipart.org/">
            <dc:title>Openclipart</dc:title>
          </cc:Agent>
        </dc:publisher>
        <dc:title>Developers, Openclipart has a JSON API</dc:title>
        <dc:date>2013-11-08T00:59:52</dc:date>
        <dc:description>Recently updated with an amount field, please visit http://openclipart.org/developers to see what other ways you can build software and apps on top of Openclipart. Note, this graphic is released into the public domain: https://commons.wikimedia.org/wiki/File:JSON_vector_logo.svg </dc:description>
        <dc:source>http://openclipart.org/detail/188447/developers,-openclipart-has-a-json-api-by-openclipart-188447</dc:source>
        <dc:creator>
          <cc:Agent>
            <dc:title>openclipart</dc:title>
          </cc:Agent>
        </dc:creator>
        <dc:subject>
          <rdf:Bag>
            <rdf:li>upload2openclipart</rdf:li>
            <rdf:li>updates</rdf:li>
            <rdf:li>json</rdf:li>
            <rdf:li>api</rdf:li>
            <rdf:li>developers</rdf:li>
            <rdf:li>news</rdf:li>
          </rdf:Bag>
        </dc:subject>
      </cc:Work>
      <cc:License
         rdf:about="http://creativecommons.org/publicdomain/zero/1.0/">
        <cc:permits
           rdf:resource="http://creativecommons.org/ns#Reproduction" />
        <cc:permits
           rdf:resource="http://creativecommons.org/ns#Distribution" />
        <cc:permits
           rdf:resource="http://creativecommons.org/ns#DerivativeWorks" />
      </cc:License>
    </rdf:RDF>
  </metadata>
</svg>
