<svg xmlns="http://www.w3.org/2000/svg" viewBox="0 0 16 16">
 <path d="m8 0.6228c-2.0067 0-3.6405 1.6334-3.6405 3.6402 0 2.0067 1.6338 3.6405 3.6405 3.6405s3.6402-1.6338 3.6402-3.6405-1.6334-3.6402-3.6402-3.6402zm-4.3596 7.4737c-2.0068 0-3.6406 1.6335-3.6406 3.6405 0 2.0067 1.6338 3.6405 3.6405 3.6405s3.6402-1.6338 3.6402-3.6405-1.6334-3.6402-3.6402-3.6402zm8.7193 0c-2.0067 0-3.6405 1.6334-3.6405 3.6402 0 2.0067 1.6338 3.6405 3.6405 3.6405s3.6402-1.6338 3.6402-3.6405-1.6334-3.6402-3.6402-3.6402z"/>
</svg>