<svg xmlns="http://www.w3.org/2000/svg" viewBox="0 0 16 16">
 <path d="m12.22 2.6674c-0.51778 0-0.93934 0.42147-0.93934 0.93925s0.42155 0.93934 0.93934 0.93934c0.51778 0 0.93925-0.42155 0.93925-0.93934 0-0.51778-0.42147-0.93925-0.93925-0.93925zm-9.818 1.9283c-0.51778 0-0.93934 0.42147-0.93934 0.93925s0.42155 0.93933 0.93934 0.93933c0.51778 0 0.93925-0.42155 0.93925-0.93933s-0.42147-0.93925-0.93925-0.93925zm8.6932 0c-0.51778 0-0.93934 0.42147-0.93934 0.93925s0.42155 0.93933 0.93934 0.93933c0.51778 0 0.93925-0.42155 0.93925-0.93933s-0.42147-0.93925-0.93925-0.93925zm2.2498 0c-0.51778 0-0.93934 0.42147-0.93934 0.93925s0.42155 0.93933 0.93934 0.93933c0.51778 0 0.93925-0.42155 0.93925-0.93933s-0.42147-0.93925-0.93925-0.93925zm-3.5884 0.059588-1.3774 0.38233v6.3896h1.3774v-6.772zm-6.6436 2.0814-1.3897 0.3823v4.9879c-3e-7 0.26295-0.020228 0.43995-0.06068 0.53098-0.040454 0.09102-0.09907 0.13651-0.17593 0.13651-0.036409-0.000001-0.076863-0.01412-0.12136-0.04243-0.0444-0.028-0.0991-0.085-0.1638-0.17-0.0567-0.077-0.1285-0.155-0.21546-0.234-0.08698-0.079-0.20322-0.118-0.34885-0.118-0.19418 0.000001-0.34898 0.04854-0.46427 0.14564-0.11529 0.097-0.17292 0.216-0.17292 0.358 0.000001125 0.16991 0.1032 0.31554 0.30951 0.4369s0.50361 0.18204 0.89196 0.18204c0.28722-0.000001 0.54819-0.02328 0.78282-0.0698 0.23463-0.04653 0.43582-0.1385 0.60371-0.27603 0.16788-0.13754 0.29733-0.33073 0.38836-0.57952 0.091019-0.24879 0.13659-0.57547 0.13659-0.98001v-4.6906zm8.5781 0-1.3835 0.38225v4.3083h1.3835v-4.6906zm2.4278 0.024273c-0.267 0.0000047-0.51979 0.028322-0.75846 0.084952-0.23868 0.056639-0.44904 0.1335-0.63108 0.23059-0.18204 0.097094-0.32669 0.21333-0.43389 0.34885s-0.16078 0.28223-0.16078 0.44c0 0.16991 0.06067 0.31042 0.18204 0.42167 0.12136 0.11125 0.27913 0.16689 0.47331 0.16689 0.1254 0.000003 0.22951-0.01816 0.31244-0.054571 0.08292-0.036405 0.14666-0.08495 0.19116-0.14563 0.0445-0.060678 0.07587-0.13151 0.09408-0.21242 0.0182-0.080904 0.02729-0.16379 0.02729-0.24875-0.000002-0.14968 0.04251-0.27715 0.12747-0.38233 0.08495-0.10518 0.23661-0.15777 0.45506-0.15777 0.18608 0.0000042 0.33477 0.060685 0.44602 0.18204 0.11124 0.12136 0.16689 0.32768 0.16689 0.61894v0.44904l-0.15174 0.036409c-0.18609 0.056628-0.37415 0.11632-0.56429 0.17903-0.19013 0.062703-0.37325 0.13147-0.54922 0.20631-0.17598 0.074841-0.34076 0.15674-0.49448 0.24574-0.15373 0.089-0.2883 0.19013-0.40359 0.3034s-0.20627 0.24074-0.27302 0.38233-0.1001 0.29936-0.1001 0.47331c0 0.16991 0.03129 0.3266 0.09399 0.47021s0.15278 0.26803 0.27009 0.37321 0.25989 0.18815 0.42778 0.24883c0.16788 0.06068 0.35702 0.09098 0.56738 0.09098 0.15372 0 0.28722-0.01115 0.40049-0.0334 0.11326-0.02225 0.21539-0.05354 0.30642-0.09399s0.17292-0.08801 0.24574-0.14262c0.07281-0.05461 0.1477-0.1143 0.22456-0.17903v0.36408h1.3895v-3.4163c0-0.1899-0.036-0.3619-0.109-0.5156s-0.186-0.2852-0.34-0.3944-0.349-0.1932-0.586-0.2518c-0.236-0.0587-0.518-0.088-0.846-0.088zm-10.459 0.10914v3.21c-3e-7 0.19822 0.041444 0.38431 0.12437 0.55826 0.082929 0.17395 0.19719 0.32561 0.34282 0.45506s0.31554 0.23166 0.50972 0.3065 0.40453 0.11224 0.63108 0.11224c0.19418-0.000001 0.39447-0.04656 0.60078-0.13961 0.20631-0.09304 0.40049-0.21638 0.58253-0.37011v0.42476h1.3835v-4.5572h-1.3835v3.2889c-0.10518 0.16182-0.22861 0.29639-0.37019 0.40359-0.14159 0.1072-0.26493 0.16078-0.37011 0.16078-0.093041 0.000001-0.18006-0.01717-0.26097-0.05156s-0.15166-0.07996-0.21234-0.13659c-0.060683-0.05663-0.10824-0.12433-0.14262-0.20322-0.034388-0.07888-0.05156-0.16284-0.051558-0.25184v-3.21h-1.3835zm10.951 2.2027v1.3168c-0.14159 0.10518-0.27005 0.19212-0.38534 0.26088-0.1153 0.06877-0.22956 0.1032-0.34282 0.1032-0.05664 0.000001-0.10922-0.01726-0.15777-0.05164-0.04855-0.03439-0.09305-0.07988-0.1335-0.13651s-0.07183-0.12442-0.09408-0.2033-0.0334-0.16078-0.0334-0.24574c-0.000001-0.10922 0.03443-0.2144 0.1032-0.31554 0.06877-0.10113 0.15876-0.19615 0.27001-0.28516 0.11125-0.088996 0.23459-0.17098 0.37011-0.24582 0.13552-0.074838 0.27009-0.14055 0.40359-0.19719z"/>
</svg>