<svg xmlns="http://www.w3.org/2000/svg" viewBox="0 0 16 16">
 <path d="m15.936 7.6419c-0.10586-0.11963-1.5705-1.9533-1.8286-2.2643-0.25812-0.31105-0.38355-0.25522-0.54234-0.23275-0.15879 0.0225-2.0128 0.33498-2.2266 0.37051-0.21389 0.0355-0.35093 0.12326-0.21752 0.30815 0.11746 0.16386 1.3363 1.8917 1.6038 2.2716l-4.8425 1.1601-3.8523-6.4414c-0.15371-0.22476-0.18561-0.3038-0.53509-0.29002-0.34948 0.0138-3.0213 0.23999-3.2098 0.25667-0.18851 0.0167-0.40168 0.0993-0.21027 0.54959 0.19141 0.45026 3.2258 6.9895 3.3099 7.178 0.084106 0.18851 0.30815 0.49883 0.82004 0.37775 0.52711-0.12688 2.3579-0.6047 3.3577-0.86572 0.52784 0.95635 1.6053 2.9002 1.8054 3.1758 0.26464 0.37195 0.44953 0.30959 0.85701 0.18633 0.31902-0.0971 4.9898-1.7771 5.2001-1.8634 0.21027-0.0863 0.34005-0.14863 0.19794-0.36252-0.10441-0.14937-1.3356-1.8025-1.9823-2.6653l2.1824-0.58004c0.19432-0.0537 0.22114-0.14936 0.11601-0.26755zm-8.8051 1.8003c-0.058004 0.0123-2.7704 0.66125-2.9154 0.69387-0.14501 0.0326-0.14501 0.016-0.16169-0.0334-0.016676-0.0493-3.2258-6.6661-3.2693-6.7488-0.043503-0.0827-0.042053-0.14864 0-0.14864s2.5616-0.22549 2.6515-0.22984c0.089907-0.004 0.079756 0.0138 0.11238 0.0725 0 0 3.5528 6.134 3.6158 6.2413 0.06308 0.10731 0.023927 0.14501-0.034077 0.15516zm7.6479 1.4327c0.04278 0.0682 0.08701 0.11166-0.0493 0.16169-0.13631 0.05-4.591 1.5531-4.6781 1.59-0.087009 0.037-0.15371 0.05-0.26464-0.11166-0.11093-0.16169-1.561-2.6682-1.561-2.6682l4.7223-1.2326c0.11746-0.0362 0.15371-0.0609 0.22912 0.0566 0.0754 0.11746 1.5589 2.1338 1.6016 2.2027zm0.30235-3.3519c-0.10513 0.0232-1.8402 0.45315-1.8402 0.45315l-1.417-1.9461c-0.0406-0.0558-0.07251-0.11239 0.0261-0.12544 0.09861-0.013 1.7104-0.30525 1.7836-0.32047 0.07323-0.0152 0.13631-0.037 0.22477 0.0863 0.08846 0.12326 1.316 1.6734 1.3631 1.7336 0.04713 0.0602-0.03335 0.0964-0.13921 0.11891z"/>
</svg>