<?xml version="1.0" encoding="UTF-8" standalone="no"?>
<!-- Created with Inkscape (http://www.inkscape.org/) -->

<svg
   xmlns:dc="http://purl.org/dc/elements/1.1/"
   xmlns:cc="http://creativecommons.org/ns#"
   xmlns:rdf="http://www.w3.org/1999/02/22-rdf-syntax-ns#"
   xmlns:svg="http://www.w3.org/2000/svg"
   xmlns="http://www.w3.org/2000/svg"
   xmlns:xlink="http://www.w3.org/1999/xlink"
   xmlns:sodipodi="http://sodipodi.sourceforge.net/DTD/sodipodi-0.dtd"
   xmlns:inkscape="http://www.inkscape.org/namespaces/inkscape"
   version="1.1"
   width="16"
   height="16"
   id="svg3059"
   inkscape:version="0.91 r13725"
   sodipodi:docname="less-light.svg">
  <sodipodi:namedview
     pagecolor="#ffffff"
     bordercolor="#666666"
     borderopacity="1"
     objecttolerance="10"
     gridtolerance="10"
     guidetolerance="10"
     inkscape:pageopacity="0"
     inkscape:pageshadow="2"
     inkscape:window-width="1366"
     inkscape:window-height="705"
     id="namedview18"
     showgrid="false"
     inkscape:zoom="0.44117838"
     inkscape:cx="667.53044"
     inkscape:cy="214.5"
     inkscape:window-x="-8"
     inkscape:window-y="-8"
     inkscape:window-maximized="1"
     inkscape:current-layer="svg3059" />
  <defs
     id="defs3061">
    <linearGradient
       x1="464.315"
       y1="532.26703"
       x2="464.315"
       y2="108.459"
       id="SVGID_1_"
       gradientUnits="userSpaceOnUse"
       gradientTransform="matrix(1,0,0,-1,0.14,777.638)">
      <stop
         id="stop13"
         style="stop-color:#2a4f84;stop-opacity:1"
         offset="0.1497" />
      <stop
         id="stop15"
         style="stop-color:#294e82;stop-opacity:1"
         offset="0.38839999" />
      <stop
         id="stop17"
         style="stop-color:#172e4e;stop-opacity:1"
         offset="1" />
    </linearGradient>
    <linearGradient
       x1="464.315"
       y1="532.26703"
       x2="464.315"
       y2="108.459"
       id="linearGradient3057"
       xlink:href="#SVGID_1_"
       gradientUnits="userSpaceOnUse"
       gradientTransform="matrix(1,0,0,-1,19.71175,534.89105)" />
  </defs>
  <metadata
     id="metadata3064">
    <rdf:RDF>
      <cc:Work
         rdf:about="">
        <dc:format>image/svg+xml</dc:format>
        <dc:type
           rdf:resource="http://purl.org/dc/dcmitype/StillImage" />
        <dc:title></dc:title>
      </cc:Work>
    </rdf:RDF>
  </metadata>
  <path
     style="fill:#000000;stroke:none"
     d="m 2.7878613,4.45105 0,0.004 -3.922e-4,0.57484 0,4.05318 c 0,0.32233 0.072399,0.55816 0.2012136,0.70828 0.1289651,0.14985 0.3468452,0.22465 0.654018,0.22465 0.2124199,0 0.4541195,-0.0224 0.7250883,-0.0672 0.013574,-0.0453 0.020367,-0.14212 0.020367,-0.29079 0,-0.14906 -0.027155,-0.29774 -0.081336,-0.44708 l -0.182972,0 c -0.1989627,0 -0.2739186,-0.10461 -0.2739186,-0.31475 l 0,-3.86216 c 0,-0.23224 -0.067064,-0.3953 -0.1529289,-0.48925 C 3.6111525,4.45107 3.462105,4.45207 3.249819,4.45207 l -0.413248,0 -0.04871,-9.5e-4 z m 10.8916897,0.004 0,0.54833 c 0.20775,0.0451 0.295044,0.10487 0.370096,0.17967 0.115391,0.1146 0.209223,0.31542 0.209223,0.6021 l 0,0.86792 c 0,0.27923 0.0015,0.50122 0.07709,0.66572 0.128563,0.27696 0.380793,0.50149 0.756374,0.67343 -0.340046,0.13749 -0.568849,0.29666 -0.686382,0.47873 -0.117115,0.18208 -0.14186,0.43417 -0.146914,0.75585 l 0,0.94641 c 0,0.27669 -0.103806,0.47594 -0.239299,0.59838 -0.0748,0.0724 -0.15199,0.13615 -0.339922,0.19098 l 0,0.58412 0.213211,0.002 c 0.359747,-0.01 0.674914,-0.11044 0.94523,-0.31394 0.270568,-0.20376 0.390365,-0.50016 0.390365,-0.88985 l 0,-1.17227 c 0,-0.31477 0.11114,-0.55554 0.302654,-0.72283 0.11606,-0.10249 0.25207,-0.18368 0.468725,-0.24358 l 0,-0.45343 C 15.755512,7.67039 15.613114,7.57909 15.512218,7.47927 15.333207,7.30719 15.228459,7.04366 15.228459,6.68912 l 0,-1.00378 c 0,-0.12722 -0.0061,-0.26088 -0.04897,-0.40076 -0.07534,-0.24208 -0.203888,-0.4344 -0.384774,-0.57667 -0.16609,-0.12975 -0.356959,-0.25433 -0.584811,-0.25247 -0.147996,-2.5e-4 -0.276267,0.003 -0.530348,0 z m -11.6255392,2.3e-4 0,6e-5 -3.26e-5,0 0,7.9e-4 C 1.9811861,4.45573 1.9152962,4.45547 1.8626055,4.4556 1.6346194,4.4536 1.4437502,4.57819 1.2777945,4.70808 1.0966576,4.85035 0.94162635,5.03601 0.89305315,5.28475 c -0.027684,0.14587 -0.021838,0.27335 -0.021838,0.40073 l 0,1.00381 c 0,0.35442 -0.1318842,0.61781 -0.3107615,0.79018 -0.1007617,0.0998 -0.3158325,0.19094 -0.560456,0.27333 l 0,0.45342 c 0.2168052,0.0598 0.4254907,0.1407 0.5412664,0.24345 0.1916482,0.16743 0.3297877,0.40832 0.3297877,0.72306 l 0,1.17227 c 0,0.38944 0.092931,0.68611 0.36323065,0.88959 0.2703161,0.20337 0.5853203,0.30452 0.9450666,0.31436 l 0.24077,-0.002 0,-0.58455 C 2.2323204,10.9074 2.1279722,10.84369 2.0527691,10.77155 1.9174102,10.64896 1.8407675,10.44986 1.8407675,10.1733 l 0,-0.94654 C 1.8355775,8.90483 1.7836745,8.65299 1.6664259,8.47078 1.5491774,8.28898 1.3203933,8.12954 0.97994575,7.99218 1.3556767,7.8201 1.6077561,7.59571 1.7363194,7.31888 1.8120584,7.15425 1.8407675,6.93225 1.8407675,6.65303 l 0,-0.86789 c 0,-0.28668 0.066554,-0.48751 0.1818278,-0.60223 0.062549,-0.0623 0.1738089,-0.11355 0.3283494,-0.15506 l 0.2443331,0.002 0,-0.57467 -0.5412664,0 z m 7.3079296,2.00537 c -0.401942,0 -0.721494,0.17142 -0.958535,0.37052 -0.237427,0.19938 -0.356006,0.46889 -0.356006,0.80894 0,0.4657 0.282423,0.80096 0.847124,1.00672 l 0.372907,0.14093 c 0.20775,0.0671 0.311971,0.16771 0.311971,0.30226 0,0.0716 -0.03404,0.12856 -0.1018,0.17101 -0.06762,0.0426 -0.165173,0.0638 -0.291343,0.0638 -0.266583,0 -0.58067,-0.094 -0.942157,-0.28163 -0.07681,0.0804 -0.143335,0.19046 -0.199775,0.329 -0.05656,0.13854 -0.08732,0.26616 -0.09157,0.38248 0.3927531,0.21935 0.819849,0.35297 1.2806081,0.35297 0.4610269,0 0.8154545,-0.12232 1.0640615,-0.31942 0.248206,-0.19698 0.372777,-0.46328 0.372777,-0.79881 0,-0.50975 -0.300255,-0.87003 -0.9012936,-1.08031 L 9.3483724,7.76099 c -0.17183,-0.0627 -0.257671,-0.14759 -0.257671,-0.255 0,-0.0627 0.02356,-0.11406 0.07081,-0.1544 0.04765,-0.0405 0.1162039,-0.0605 0.206706,-0.0605 0.2532599,0 0.569206,0.085 0.9490546,0.25512 C 10.403252,7.48351 10.47551,7.3773 10.53421,7.22731 10.59263,7.07746 10.6178,6.93985 10.60875,6.81449 10.455046,6.73869 10.258702,6.60063 10.019133,6.54459 9.7801004,6.48869 9.5606564,6.46079 9.3619444,6.46079 Z m 3.0018916,0 c -0.401942,0 -0.721622,0.17142 -0.958797,0.37052 -0.237175,0.19938 -0.355777,0.46889 -0.355777,0.80894 0,0.4657 0.282328,0.80096 0.846895,1.00672 l 0.373169,0.14093 c 0.20775,0.0671 0.311971,0.16771 0.311971,0.30226 0,0.0716 -0.03383,0.12856 -0.101832,0.17101 -0.06789,0.0426 -0.165422,0.0638 -0.291474,0.0638 -0.266718,0 -0.580941,-0.094 -0.942027,-0.28163 -0.07654,0.0804 -0.143335,0.19046 -0.199775,0.329 -0.05644,0.13854 -0.08718,0.26616 -0.09144,0.38248 0.392887,0.21935 0.819447,0.35297 1.280608,0.35297 0.461161,0 0.815445,-0.12232 1.063801,-0.31942 0.248607,-0.19698 0.373201,-0.46328 0.373201,-0.79881 0,-0.50975 -0.300385,-0.87003 -0.901424,-1.08031 L 12.350263,7.76099 c -0.171814,-0.0627 -0.25754,-0.14759 -0.25754,-0.255 0,-0.0627 0.02329,-0.11406 0.07068,-0.1544 0.04792,-0.0405 0.116201,-0.0605 0.206837,-0.0605 0.253143,0 0.569095,0.085 0.948793,0.25512 0.08612,-0.0627 0.158235,-0.16891 0.217069,-0.3189 0.05841,-0.14985 0.08359,-0.28746 0.07454,-0.41282 -0.153587,-0.0758 -0.350185,-0.21386 -0.589486,-0.2699 -0.239552,-0.0559 -0.458474,-0.0838 -0.65732,-0.0838 z m -6.1934573,8.8e-4 c -0.2575451,0 -0.4823377,0.11659 -0.6742536,0.20615 -0.1919162,0.0894 -0.350039,0.21243 -0.474217,0.36908 -0.1244459,0.15677 -0.2170786,0.34125 -0.2780378,0.55379 -0.060959,0.21255 -0.091437,0.44411 -0.091437,0.69459 0,0.25927 0.024757,0.49909 0.074536,0.71829 0.049644,0.21893 0.1343995,0.40901 0.254075,0.57032 0.119776,0.16104 0.2756289,0.28626 0.4676788,0.37556 0.19205,0.0894 0.4304269,0.15813 0.7149869,0.15813 0.523978,0 0.9666378,-0.15172 1.3281083,-0.40658 C 7.4560153,9.44159 7.3636461,9.23542 7.2152485,9.08329 7.0306468,9.15259 6.8673343,9.20226 6.7257322,9.23275 6.5839962,9.26285 6.4590179,9.27805 6.3510923,9.27805 6.1350738,9.27805 5.9796281,9.22305 5.8852769,9.11208 5.7910259,9.00147 5.7393133,8.87067 5.7301577,8.67196 l 1.7619186,0 c 0.0582,-0.18819 0.08761,-0.44253 0.08761,-0.71551 0,-0.20576 -0.03276,-0.39593 -0.09824,-0.57056 C 7.4161013,7.21128 7.3222865,7.06153 7.200368,6.93616 7.0783157,6.81079 6.9304416,6.71243 6.7566192,6.64083 6.5825289,6.56933 6.3871751,6.46155 6.1703699,6.46155 Z m -0.00307,0.81695 c 0.1478788,0 0.2588659,0.0535 0.3327299,0.16091 0.074015,0.1074 0.1109863,0.32383 0.1109863,0.48938 l 1.634e-4,0.0741 -0.8877266,0 C 5.7368828,7.77448 5.7785688,7.53015 5.8479137,7.42954 5.9173927,7.32879 6.0237118,7.27847 6.1673058,7.27847 Z"
     id="path21"
     inkscape:connector-curvature="0" />
</svg>
