<svg xmlns="http://www.w3.org/2000/svg" viewBox="0 0 16 16">
 <path d="m2.7879 4.451v0.004l-0.0003922 0.57484v4.0532c0 0.32233 0.072399 0.55816 0.20121 0.70828 0.12897 0.14985 0.34685 0.22465 0.65402 0.22465 0.21242 0 0.45412-0.0224 0.72509-0.0672 0.013574-0.0453 0.020367-0.14212 0.020367-0.29079 0-0.14906-0.027155-0.29774-0.081336-0.44708h-0.18297c-0.19896 0-0.27392-0.10461-0.27392-0.31475v-3.8622c0-0.23224-0.067064-0.3953-0.15293-0.48925-0.0859-0.0937-0.235-0.0927-0.4473-0.0927h-0.41325l-0.04871-0.00095zm10.892 0.004v0.54833c0.20775 0.0451 0.29504 0.10487 0.3701 0.17967 0.11539 0.1146 0.20922 0.31542 0.20922 0.6021v0.86792c0 0.27923 0.0015 0.50122 0.07709 0.66572 0.12856 0.27696 0.38079 0.50149 0.75637 0.67343-0.34005 0.13749-0.56885 0.29666-0.68638 0.47873-0.11712 0.18208-0.14186 0.43417-0.14691 0.75585v0.94641c0 0.27669-0.10381 0.47594-0.2393 0.59838-0.0748 0.0724-0.15199 0.13615-0.33992 0.19098v0.58412l0.21321 0.002c0.35975-0.01 0.67491-0.11044 0.94523-0.31394 0.27057-0.20376 0.39036-0.50016 0.39036-0.88985v-1.1723c0-0.31477 0.11114-0.55554 0.30265-0.72283 0.11606-0.10249 0.25207-0.18368 0.46872-0.24358v-0.45343c-0.244-0.0815-0.387-0.1728-0.488-0.2726-0.179-0.1721-0.284-0.4356-0.284-0.7902v-1.0038c0-0.12722-0.0061-0.26088-0.04897-0.40076-0.07534-0.24208-0.20389-0.4344-0.38477-0.57667-0.16609-0.12975-0.35696-0.25433-0.58481-0.25247-0.148-0.00025-0.27627 0.003-0.53035 0zm-11.626 0.00023v0.00006h-0.0000326v0.00079c-0.0728-0.0004-0.1387-0.0006-0.1914-0.0005-0.228-0.002-0.4188 0.1226-0.5848 0.2525-0.1811 0.1423-0.33617 0.3279-0.38475 0.5767-0.027684 0.14587-0.021838 0.27335-0.021838 0.40073v1.0038c0 0.35442-0.13188 0.61781-0.31076 0.79018-0.10076 0.0998-0.31583 0.19094-0.56046 0.27333v0.45342c0.21681 0.0598 0.42549 0.1407 0.54127 0.24345 0.19165 0.16743 0.32979 0.40832 0.32979 0.72306v1.1723c0 0.38944 0.092931 0.68611 0.36323 0.88959 0.27032 0.20337 0.58532 0.30452 0.94507 0.31436l0.24077-0.002v-0.58455c-0.1879-0.055-0.2922-0.118-0.3674-0.19-0.1354-0.123-0.212-0.322-0.212-0.599v-0.94654c-0.0052-0.3217-0.0571-0.5735-0.1744-0.7557-0.1172-0.1818-0.346-0.3413-0.68645-0.4786 0.37575-0.1721 0.62785-0.3965 0.75635-0.6733 0.0758-0.1647 0.1045-0.3867 0.1045-0.6659v-0.86789c0-0.28668 0.066554-0.48751 0.18183-0.60223 0.062549-0.0623 0.17381-0.11355 0.32835-0.15506l0.24433 0.002v-0.57467h-0.54127zm7.3079 2.0054c-0.40194 0-0.72149 0.17142-0.95854 0.37052-0.23743 0.19938-0.35601 0.46889-0.35601 0.80894 0 0.4657 0.28242 0.80096 0.84712 1.0067l0.37291 0.14093c0.20775 0.0671 0.31197 0.16771 0.31197 0.30226 0 0.0716-0.03404 0.12856-0.1018 0.17101-0.06762 0.0426-0.16517 0.0638-0.29134 0.0638-0.26658 0-0.58067-0.094-0.94216-0.28163-0.07681 0.0804-0.14334 0.19046-0.19978 0.329-0.05656 0.13854-0.08732 0.26616-0.09157 0.38248 0.39275 0.21935 0.81985 0.35297 1.2806 0.35297 0.46103 0 0.81545-0.12232 1.0641-0.31942 0.24821-0.19698 0.37278-0.46328 0.37278-0.79881 0-0.50975-0.30026-0.87003-0.90129-1.0803l-0.4204-0.1481c-0.17183-0.0627-0.25767-0.14759-0.25767-0.255 0-0.0627 0.02356-0.11406 0.07081-0.1544 0.04765-0.0405 0.1162-0.0605 0.20671-0.0605 0.25326 0 0.56921 0.085 0.94905 0.25512 0.086-0.0627 0.159-0.1689 0.217-0.3189 0.059-0.1498 0.084-0.2875 0.075-0.4128-0.154-0.0758-0.35-0.2139-0.59-0.2699-0.2389-0.0559-0.4583-0.0838-0.6571-0.0838zm3.0019 0c-0.40194 0-0.72162 0.17142-0.9588 0.37052-0.23718 0.19938-0.35578 0.46889-0.35578 0.80894 0 0.4657 0.28233 0.80096 0.8469 1.0067l0.37317 0.14093c0.20775 0.0671 0.31197 0.16771 0.31197 0.30226 0 0.0716-0.03383 0.12856-0.10183 0.17101-0.06789 0.0426-0.16542 0.0638-0.29147 0.0638-0.26672 0-0.58094-0.094-0.94203-0.28163-0.07654 0.0804-0.14334 0.19046-0.19978 0.329s-0.08718 0.26616-0.09144 0.38248c0.39289 0.21935 0.81945 0.35297 1.2806 0.35297 0.46116 0 0.81544-0.12232 1.0638-0.31942 0.24861-0.19698 0.3732-0.46328 0.3732-0.79881 0-0.50975-0.30038-0.87003-0.90142-1.0803l-0.421-0.1481c-0.17181-0.0627-0.25754-0.14759-0.25754-0.255 0-0.0627 0.02329-0.11406 0.07068-0.1544 0.04792-0.0405 0.1162-0.0605 0.20684-0.0605 0.25314 0 0.5691 0.085 0.94879 0.25512 0.08612-0.0627 0.15824-0.16891 0.21707-0.3189 0.05841-0.14985 0.08359-0.28746 0.07454-0.41282-0.15359-0.0758-0.35018-0.21386-0.58949-0.2699-0.23955-0.0559-0.45847-0.0838-0.65732-0.0838zm-6.1935 0.00088c-0.25755 0-0.48234 0.11659-0.67425 0.20615-0.19192 0.0894-0.35004 0.21243-0.47422 0.36908-0.12445 0.15677-0.21708 0.34125-0.27804 0.55379-0.060959 0.21255-0.091437 0.44411-0.091437 0.69459 0 0.25927 0.024757 0.49909 0.074536 0.71829 0.049644 0.21893 0.1344 0.40901 0.25408 0.57032 0.11978 0.16104 0.27563 0.28626 0.46768 0.37556 0.19205 0.0894 0.43043 0.15813 0.71499 0.15813 0.52398 0 0.96664-0.15172 1.3281-0.40658-0.036-0.2592-0.1284-0.4654-0.2768-0.6175-0.1846 0.0693-0.3479 0.119-0.4895 0.1495-0.1417 0.03-0.2667 0.0452-0.3746 0.0452-0.216 0-0.3715-0.055-0.4658-0.1659-0.0943-0.1106-0.146-0.2414-0.1551-0.4401h1.7619c0.0582-0.18819 0.08761-0.44253 0.08761-0.71551 0-0.20576-0.03276-0.39593-0.09824-0.57056-0.0654-0.1746-0.1592-0.3244-0.2811-0.4497-0.1221-0.1254-0.27-0.2238-0.4438-0.2954-0.1741-0.0715-0.3694-0.1792-0.5862-0.1792zm-0.00307 0.81695c0.14788 0 0.25887 0.0535 0.33273 0.16091 0.074015 0.1074 0.11099 0.32383 0.11099 0.48938l0.0001634 0.0741h-0.88773c0.0134-0.2283 0.0551-0.4726 0.1244-0.5733 0.0695-0.1007 0.1758-0.151 0.3194-0.151z"/>
</svg>