<?xml version="1.0" encoding="UTF-8" standalone="no"?>
<!-- Created with Inkscape (http://www.inkscape.org/) -->

<svg
   xmlns:dc="http://purl.org/dc/elements/1.1/"
   xmlns:cc="http://creativecommons.org/ns#"
   xmlns:rdf="http://www.w3.org/1999/02/22-rdf-syntax-ns#"
   xmlns:svg="http://www.w3.org/2000/svg"
   xmlns="http://www.w3.org/2000/svg"
   xmlns:xlink="http://www.w3.org/1999/xlink"
   xmlns:sodipodi="http://sodipodi.sourceforge.net/DTD/sodipodi-0.dtd"
   xmlns:inkscape="http://www.inkscape.org/namespaces/inkscape"
   version="1.1"
   width="16"
   height="16"
   id="svg3059"
   inkscape:version="0.91 r13725"
   sodipodi:docname="less.svg">
  <sodipodi:namedview
     pagecolor="#ffffff"
     bordercolor="#666666"
     borderopacity="1"
     objecttolerance="10"
     gridtolerance="10"
     guidetolerance="10"
     inkscape:pageopacity="0"
     inkscape:pageshadow="2"
     inkscape:window-width="1366"
     inkscape:window-height="705"
     id="namedview18"
     showgrid="false"
     inkscape:zoom="0.37150727"
     inkscape:cx="51.067797"
     inkscape:cy="8"
     inkscape:window-x="-8"
     inkscape:window-y="-8"
     inkscape:window-maximized="1"
     inkscape:current-layer="svg3059" />
  <defs
     id="defs3061">
    <linearGradient
       x1="464.315"
       y1="532.26703"
       x2="464.315"
       y2="108.459"
       id="SVGID_1_"
       gradientUnits="userSpaceOnUse"
       gradientTransform="matrix(1,0,0,-1,0.14,777.638)">
      <stop
         id="stop13"
         style="stop-color:#2a4f84;stop-opacity:1"
         offset="0.1497" />
      <stop
         id="stop15"
         style="stop-color:#294e82;stop-opacity:1"
         offset="0.38839999" />
      <stop
         id="stop17"
         style="stop-color:#172e4e;stop-opacity:1"
         offset="1" />
    </linearGradient>
    <linearGradient
       x1="464.315"
       y1="532.26703"
       x2="464.315"
       y2="108.459"
       id="linearGradient3057"
       xlink:href="#SVGID_1_"
       gradientUnits="userSpaceOnUse"
       gradientTransform="matrix(1,0,0,-1,19.71175,534.89105)" />
  </defs>
  <metadata
     id="metadata3064">
    <rdf:RDF>
      <cc:Work
         rdf:about="">
        <dc:format>image/svg+xml</dc:format>
        <dc:type
           rdf:resource="http://purl.org/dc/dcmitype/StillImage" />
        <dc:title></dc:title>
      </cc:Work>
    </rdf:RDF>
  </metadata>
  <path
     style="fill:#000000"
     d="m 13.606218,4.42886 0,0.0436 -10.1508577,0 c 0.117506,0.006 0.2062171,0.0254 0.2647114,0.0892 0.085405,0.0935 0.1521089,0.25564 0.1521089,0.48663 l 0,3.84145 c 0,0.20902 0.074554,0.31307 0.2724501,0.31307 l 0.1819912,0 c 0.05389,0.14853 0.0809,0.29642 0.0809,0.44468 0,0.14787 -0.00676,0.24422 -0.020257,0.28923 -0.2695162,0.0446 -0.5099199,0.0668 -0.721201,0.0668 -0.3055261,0 -0.5222381,-0.0744 -0.6505118,-0.22344 C 2.8874281,9.63076 2.8154171,9.3962 2.8154171,9.07559 l 0,-4.03145 3.9e-4,-0.57175 -0.1486624,0 0,-0.0429 -0.6241413,0 0,3e-5 -3.24e-5,0 0,6.5e-4 C 1.989716,4.42992 1.936528,4.42968 1.8958693,4.42978 l -3.25e-5,0 C 1.653262,4.42778 1.4545762,4.55919 1.2874331,4.69 l -3.26e-5,3e-5 -3.25e-5,4e-5 C 1.102298,4.83543 0.93991453,5.02883 0.88908167,5.28914 l -3.251e-5,1.3e-4 0,10e-5 c -0.028596,0.15067 -0.0224684,0.2812 -0.0224684,0.40657 l 0,0.99844 c 0,0.34188 -0.12620549,0.59144 -0.29599161,0.75505 l -1.951e-4,1.9e-4 -2.276e-4,2.3e-4 c -0.0878215,0.087 -0.29951558,0.18037 -0.54096588,0.26169 l -0.02919922,0.01 0,0.51443 0.03147533,0.009 C 0.24435867,8.30367 0.44842342,8.38521 0.552803,8.47785 l 1.3005e-4,10e-5 1.3007e-4,1.3e-4 c 0.18296192,0.15984 0.3133551,0.38639 0.31335505,0.6869 l 0,1.16598 c 0,0.39417 0.097278,0.70747 0.37835423,0.91906 l 0,3e-5 c 0.2761975,0.20779 0.5994532,0.31127 0.9646146,0.32126 l 7.478e-4,0 0.2827578,-0.002 0,-0.041 11.1136184,0 0,0.0403 0.255347,0.002 7.48e-4,-3e-5 c 0.365139,-0.01 0.68855,-0.11292 0.964777,-0.32087 0.280219,-0.21103 0.405343,-0.52293 0.405343,-0.91932 l 0,-1.16598 c 0,-0.30299 0.105039,-0.52827 0.286367,-0.68667 l 9.7e-5,-7e-5 9.8e-5,-9e-5 c 0.111398,-0.0984 0.238924,-0.17492 0.449271,-0.23308 l 0.03144,-0.009 0,-0.51443 -0.0292,-0.01 C 15.731928,7.63057 15.59739,7.54348 15.502084,7.44918 l -1.95e-4,-2.2e-4 -2.28e-4,-2e-4 C 15.333353,7.28697 15.232593,7.03794 15.232593,6.69374 l 0,-0.9984 c 0,-0.12791 -0.0061,-0.26581 -0.05059,-0.41116 l -3.3e-5,-10e-5 -3.2e-5,-9e-5 C 15.104808,5.03615 14.971706,4.83645 14.78479,4.68943 l -3.3e-5,-3e-5 -6.5e-5,-3e-5 C 14.617427,4.5587 14.418741,4.42717 14.176288,4.42915 c -0.147655,-2.5e-4 -0.274719,0.003 -0.526756,0 l -0.04331,-4.6e-4 z m 0.08574,0.0862 c 0.214469,0.002 0.350013,-2.3e-4 0.484583,0 l 2.28e-4,0 1.95e-4,0 c 0.210808,-0.002 0.391782,0.11461 0.554915,0.24205 0.172858,0.13599 0.295457,0.31887 0.368177,0.55254 0.04066,0.13284 0.04676,0.26076 0.04676,0.38586 l 0,0.9984 c 0,0.36091 0.107524,0.63601 0.295146,0.81654 0.100818,0.0997 0.243756,0.19015 0.472293,0.27082 l 0,0.39068 c -0.201731,0.0602 -0.338454,0.14104 -0.451743,0.24107 -0.199541,0.1744 -0.315533,0.42801 -0.315534,0.75109 l 0,1.16598 c 0,0.37882 -0.113154,0.6565 -0.371168,0.85081 -0.261465,0.19684 -0.564926,0.29418 -0.915353,0.30367 l -0.168204,-10e-4 0,-0.50819 c 0.168473,-0.0542 0.253184,-0.12001 0.324345,-0.18882 0.143643,-0.13002 0.25177,-0.34089 0.25177,-0.62655 l 0,-0.94065 c 0.005,-0.31808 0.03106,-0.56094 0.139265,-0.7292 l 3.3e-5,-7e-5 c 0.109342,-0.16934 0.328987,-0.32468 0.662705,-0.45961 l 0.09225,-0.0373 -0.09049,-0.0414 C 14.704865,7.78364 14.46355,7.56704 14.340947,7.30302 l 0,-3e-5 c -0.06915,-0.15051 -0.07274,-0.36663 -0.07274,-0.6442 l 0,-0.86326 c 0,-0.29448 -0.09644,-0.5058 -0.220718,-0.62925 l -3.3e-5,-3e-5 C 13.973876,5.09295 13.878414,5.0308 13.691961,4.98533 l 0,-0.46992 z m -11.5632152,2.6e-4 0.4526528,0 0,0.48556 -0.205695,-0.001 -0.00559,0.002 C 2.2128611,5.04408 2.0962987,5.09548 2.0244022,5.1671 1.8978606,5.29303 1.8309331,5.50472 1.8309331,5.79651 l 0,0.86323 c 0,0.27478 -0.029049,0.49017 -0.099986,0.64436 C 1.60834,7.56798 1.3671453,7.78446 0.99973114,7.95273 l -0.0905566,0.0415 0.092345,0.0373 c 0.3341264,0.1348 0.5537958,0.29044 0.6628352,0.45952 0.1099203,0.17084 0.1613965,0.41313 0.1665461,0.72877 l 0,0.94137 c 0,0.28261 0.079019,0.49415 0.2244241,0.62622 0.075197,0.0721 0.1809313,0.13547 0.3518215,0.18931 l 0,0.50816 -0.196038,10e-4 c -0.3501989,-0.01 -0.6533927,-0.10743 -0.9147679,-0.30406 l -3.25e-5,0 C 1.0397001,10.98863 0.95216051,10.71179 0.95216051,10.33127 l 0,-1.16598 c 0,-0.32558 -0.14438985,-0.57822 -0.34265183,-0.75145 C 0.48970622,8.30762 0.29252063,8.23124 0.08574368,8.17219 l 0,-0.38899 C 0.31836798,7.7036 0.52240796,7.61853 0.63041636,7.5116 0.81629121,7.33231 0.95232309,7.05809 0.95232309,6.69516 l 0,-0.99844 c 0,-0.128 -0.005503,-0.25107 0.0209727,-0.39058 C 1.0191356,5.07179 1.1650913,4.89592 1.3402694,4.75832 l 6.5e-5,-3e-5 C 1.503301,4.63074 1.6842067,4.51446 1.8951196,4.5163 l 2.6e-4,0 2.277e-4,0 c 0.052172,-1.3e-4 0.1176577,1.5e-4 0.1900225,5.6e-4 l 0.043083,2.2e-4 0,-0.001 3.25e-5,0 0,-6e-5 z m 7.2258955,1.95173 c 0.1976464,0 0.4159142,0.0278 0.6536657,0.0834 0.238285,0.0557 0.433577,0.19302 0.586456,0.26845 0.009,0.1247 -0.01603,0.26156 -0.07414,0.41061 C 10.46223,7.3787 10.390366,7.48434 10.304845,7.54671 9.9270323,7.37753 9.6127799,7.29295 9.3608774,7.29295 c -0.090016,0 -0.1582005,0.02 -0.2055976,0.0602 -0.046998,0.0401 -0.070429,0.0912 -0.070429,0.15357 0,0.10683 0.08538,0.19128 0.2562897,0.25363 l 0.4182837,0.14733 c 0.5978168,0.20915 0.8964618,0.5675 0.8964618,1.07451 0,0.33373 -0.123903,0.59861 -0.370778,0.79453 -0.247274,0.19605 -0.5998027,0.31771 -1.0583581,0.31771 -0.4582891,0 -0.8830949,-0.1329 -1.2737427,-0.35107 0.00423,-0.11571 0.034823,-0.24264 0.091077,-0.38044 0.056137,-0.13779 0.122306,-0.24728 0.1987042,-0.32724 0.3595491,0.18665 0.671952,0.28013 0.9371063,0.28013 0.1254935,0 0.2225228,-0.021 0.2897811,-0.0634 0.067391,-0.0422 0.1012543,-0.0989 0.1012543,-0.17009 0,-0.13383 -0.1036623,-0.23393 -0.3102986,-0.30064 L 8.8897235,8.6415 C 8.3280496,8.43685 8.0471407,8.10338 8.0471407,7.64018 c 0,-0.33822 0.117944,-0.60629 0.3540973,-0.80461 C 8.6370085,6.63755 8.9548471,6.46704 9.3546347,6.46704 Z m 2.9857997,0 c 0.197779,0 0.415528,0.0278 0.653795,0.0834 0.238018,0.0557 0.433563,0.19302 0.586326,0.26845 0.009,0.1247 -0.01603,0.26156 -0.07414,0.41061 -0.05852,0.14919 -0.130251,0.25483 -0.215905,0.3172 -0.377663,-0.16918 -0.691921,-0.25376 -0.943707,-0.25376 -0.09015,0 -0.158065,0.02 -0.205728,0.0602 -0.04713,0.0401 -0.0703,0.0912 -0.0703,0.15357 0,0.10683 0.08527,0.19128 0.256159,0.25363 l 0.418414,0.14733 c 0.597817,0.20915 0.896592,0.5675 0.896592,1.07451 0,0.33373 -0.123927,0.59861 -0.371201,0.79453 -0.247025,0.19605 -0.599409,0.31771 -1.058098,0.31771 -0.458688,0 -0.882961,-0.1329 -1.273742,-0.35107 0.0042,-0.11571 0.03481,-0.24264 0.09095,-0.38044 0.05614,-0.13779 0.122573,-0.24728 0.198705,-0.32724 0.359149,0.18665 0.671688,0.28013 0.936976,0.28013 0.125377,0 0.222386,-0.021 0.289911,-0.0634 0.06764,-0.0422 0.101287,-0.0989 0.101287,-0.17009 0,-0.13383 -0.103663,-0.23393 -0.310299,-0.30064 L 11.875265,8.6415 C 11.313724,8.43685 11.03291,8.10338 11.03291,7.64018 c 0,-0.33822 0.117966,-0.60629 0.35387,-0.80461 0.235903,-0.19802 0.553869,-0.36853 0.953657,-0.36853 z m -6.1602552,8.8e-4 c 0.2156429,0 0.4099494,0.10723 0.5831063,0.17831 0.1728906,0.0712 0.319972,0.16906 0.44137,0.29375 0.1212648,0.1247 0.2145769,0.27365 0.2795711,0.44732 0.065127,0.17369 0.09771,0.36285 0.09771,0.5675 0,0.27152 -0.029257,0.5245 -0.087142,0.71168 l -1.7524733,0 c 0.00911,0.19764 0.060542,0.32775 0.1542876,0.43776 0.093845,0.11039 0.2484577,0.16508 0.4633181,0.16508 0.107347,0 0.2316553,-0.0151 0.3726314,-0.045 0.140843,-0.0303 0.3032801,-0.0797 0.486892,-0.14866 0.1476021,0.15132 0.2394737,0.35638 0.275084,0.61426 -0.3595325,0.2535 -0.7998191,0.4044 -1.3209881,0.4044 -0.2830344,0 -0.5201334,-0.0683 -0.7111537,-0.15728 C 5.2713758,9.84825 5.1163585,9.72368 4.9972246,9.56351 4.8781907,9.40305 4.7938896,9.21399 4.7445117,8.99624 4.6949997,8.77821 4.6703757,8.53968 4.6703757,8.2818 c 0,-0.24914 0.030314,-0.47945 0.090947,-0.69087 C 4.8219547,7.37954 4.9140912,7.19604 5.0378699,7.04012 5.1613822,6.88431 5.3186573,6.76198 5.5095445,6.67301 5.7004317,6.58391 5.9240191,6.46797 6.1801835,6.46797 Z m -0.00306,0.81257 c -0.1428241,0 -0.2485733,0.05 -0.3176796,0.15025 -0.068973,0.10008 -0.1104361,0.3431 -0.1237878,0.57027 l 0.8829674,0 -1.625e-4,-0.0737 c 0,-0.16466 -0.036773,-0.37993 -0.1103913,-0.48676 C 6.434601,7.33373 6.3242088,7.28052 6.1771228,7.28052 Z"
     id="path4184"
     inkscape:connector-curvature="0" />
</svg>
