<svg xmlns="http://www.w3.org/2000/svg" viewBox="0 0 16 16">
 <path d="m5.36 2.53c-1.8209 0-2.7824 1.4733-2.7824 2.6943 0 1.2524 0.0313 4.9591 0.0313 4.9591 0 1.1279 1.6452 1.1453 1.6452 0v-4.8658c-0.0157-0.59524 0.3464-1.0729 1.1561-1.0729h8.2208c1.1149 0 1.0813 1.6788 0 1.6788-1.4568 0.0165-2.5296 1.1274-2.5296 2.146l-0.0313 2.9334c0 1.1348 1.6454 1.0808 1.6454-0.0628l0.0223-2.2659c0-0.67524 0.30576-1.0808 1.0281-1.0808 0.97266 0 2.2345-0.98855 2.24-2.6336 0.0157-1.1912-0.81451-2.4142-2.4123-2.4299h-8.2338zm-4.5144 1.6885c-0.41263 0.00074-0.82514 0.30857-0.82514 0.91453l-0.0142 5.7559c0.0856 1.6184 1.237 2.5425 2.4921 2.5738l5.347-0.0515c1.2715 0 2.3015-1.0568 2.3015-2.4512 0-1.301-0.8539-2.4066-2.4679-2.451-1.1751 0-1.1592-1.6788 0-1.6788h2.4222c1.1017 0 1.0739-1.746 0-1.746l-2.5841 0.0313c-1.2707 0-2.4257 1.0724-2.4123 2.4587 0.0135 1.3863 0.96529 2.5892 2.4625 2.5892 1.1646 0 1.139 1.6698 0.0111 1.6698h-4.7494c-0.64282 0-1.1267-0.34991-1.1267-1.1355l-0.0313-5.5511c0-0.62241-0.41269-0.92877-0.82533-0.92802z"/>
</svg>