<?xml version="1.0" encoding="UTF-8" standalone="no"?>
<svg
   xmlns:dc="http://purl.org/dc/elements/1.1/"
   xmlns:cc="http://creativecommons.org/ns#"
   xmlns:rdf="http://www.w3.org/1999/02/22-rdf-syntax-ns#"
   xmlns:svg="http://www.w3.org/2000/svg"
   xmlns="http://www.w3.org/2000/svg"
   xmlns:sodipodi="http://sodipodi.sourceforge.net/DTD/sodipodi-0.dtd"
   xmlns:inkscape="http://www.inkscape.org/namespaces/inkscape"
   height="16"
   width="16"
   version="1.1"
   viewBox="0 0 16 16"
   id="svg2"
   inkscape:version="0.91 r13725"
   sodipodi:docname="lua-min.svg">
  <metadata
     id="metadata26">
    <rdf:RDF>
      <cc:Work
         rdf:about="">
        <dc:format>image/svg+xml</dc:format>
        <dc:type
           rdf:resource="http://purl.org/dc/dcmitype/StillImage" />
        <dc:title>Lua programming language logo</dc:title>
      </cc:Work>
    </rdf:RDF>
  </metadata>
  <defs
     id="defs24" />
  <sodipodi:namedview
     pagecolor="#ffffff"
     bordercolor="#666666"
     borderopacity="1"
     objecttolerance="10"
     gridtolerance="10"
     guidetolerance="10"
     inkscape:pageopacity="0"
     inkscape:pageshadow="2"
     inkscape:window-width="1366"
     inkscape:window-height="705"
     id="namedview22"
     showgrid="false"
     inkscape:zoom="33.625"
     inkscape:cx="8"
     inkscape:cy="8"
     inkscape:window-x="-8"
     inkscape:window-y="-8"
     inkscape:window-maximized="1"
     inkscape:current-layer="svg2" />
  <title
     id="title4">Lua programming language logo</title>
  <path
     style="color:#000000;font-style:normal;font-variant:normal;font-weight:normal;font-stretch:normal;font-size:medium;line-height:normal;font-family:sans-serif;text-indent:0;text-align:start;text-decoration:none;text-decoration-line:none;text-decoration-style:solid;text-decoration-color:#000000;letter-spacing:normal;word-spacing:normal;text-transform:none;direction:ltr;block-progression:tb;writing-mode:lr-tb;baseline-shift:baseline;text-anchor:start;white-space:normal;clip-rule:nonzero;display:inline;overflow:visible;visibility:visible;opacity:1;isolation:auto;mix-blend-mode:normal;color-interpolation:sRGB;color-interpolation-filters:linearRGB;solid-color:#000000;solid-opacity:1;fill:#000000;fill-opacity:1;fill-rule:nonzero;stroke:none;stroke-width:10.59700012;stroke-linecap:butt;stroke-linejoin:miter;stroke-miterlimit:4;stroke-dasharray:39.8522;stroke-dashoffset:0;stroke-opacity:1;color-rendering:auto;image-rendering:auto;shape-rendering:auto;text-rendering:auto;enable-background:accumulate"
     d="m 7.721841,0.0012 -0.08062,0.003 -5.07e-4,4e-5 -5.08e-4,3e-5 -0.08729,0.004 -4.73e-4,3e-5 -5.08e-4,4e-5 -0.08722,0.005 -4.74e-4,3e-5 -5.07e-4,4e-5 -0.08712,0.006 -5.07e-4,4e-5 -5.08e-4,3e-5 -0.08702,0.007 -5.07e-4,4e-5 -5.08e-4,3e-5 -0.08692,0.008 -5.08e-4,3e-5 -5.08e-4,7e-5 -0.08681,0.009 -5.08e-4,3e-5 -5.07e-4,7e-5 -0.08526,0.01 0.02136,0.1824 0.08424,-0.01 10e-4,-10e-5 0.08482,-0.009 5.41e-4,-4e-5 4.74e-4,-6e-5 0.0859,-0.008 0.08502,-0.007 0.001,-6e-5 0.08509,-0.006 5.41e-4,-3e-5 4.74e-4,-4e-5 0.08519,-0.005 0.001,-7e-5 0.08522,-0.004 0.08065,-0.003 -0.0073,-0.18348 z m 0.698469,0.006 -0.0089,0.18341 0.01516,7.5e-4 0.08651,0.005 6.43e-4,3e-5 3.73e-4,3e-5 0.08546,0.006 10e-4,7e-5 0.08543,0.007 10e-4,10e-5 0.08539,0.008 6.09e-4,7e-5 4.07e-4,3e-5 0.08532,0.009 10e-4,10e-5 0.08529,0.01 0.08624,0.0109 5.75e-4,7e-5 4.4e-4,7e-5 0.05818,0.008 0.02518,-0.18188 -0.0592,-0.008 -5.07e-4,-7e-5 -5.08e-4,-7e-5 -0.08725,-0.0111 -5.07e-4,-7e-5 -5.08e-4,-3e-5 -0.08732,-0.0101 -5.08e-4,-7e-5 -5.08e-4,-3e-5 -0.08735,-0.009 -5.08e-4,-7e-5 -5.07e-4,-3e-5 -0.08742,-0.008 -5.08e-4,-3e-5 -5.07e-4,-7e-5 -0.08749,-0.007 -5.08e-4,-4e-5 -5.07e-4,-3e-5 -0.08746,-0.006 -5.08e-4,-3e-5 -5.07e-4,0 -0.08752,-0.005 -5.07e-4,-3e-5 -5.08e-4,-4e-5 -0.01618,-7.8e-4 z m 5.698864,0.081 A 1.7928453,1.7928453 0 0 0 12.326313,1.88102 1.7928453,1.7928453 0 0 0 14.119174,3.67389 1.7928453,1.7928453 0 0 0 15.912002,1.88102 1.7928453,1.7928453 0 0 0 14.119174,0.0882 Z m -7.781544,0.0825 -0.0091,0.002 -5.07e-4,1e-4 -4.74e-4,1.1e-4 -0.08533,0.0187 -5.07e-4,10e-5 -5.08e-4,1.4e-4 -0.08512,0.0196 -4.74e-4,10e-5 -5.08e-4,1.4e-4 -0.08492,0.0205 -4.74e-4,1.1e-4 -5.08e-4,1.3e-4 -0.08472,0.0215 -4.74e-4,1.4e-4 -5.07e-4,10e-5 -0.08448,0.0224 -4.73e-4,1.3e-4 -5.08e-4,1.4e-4 -0.08424,0.0233 -5.08e-4,1.4e-4 -4.74e-4,1.3e-4 -0.084,0.0243 -5.08e-4,1.4e-4 -4.74e-4,1.4e-4 -0.06654,0.02 0.05293,0.17586 0.06559,-0.0198 9.47e-4,-2.7e-4 0.08208,-0.0238 9.81e-4,-2.7e-4 0.08231,-0.0228 1.02e-4,-3e-5 8.8e-4,-2.4e-4 0.0835,-0.0221 0.08275,-0.021 9.81e-4,-2.4e-4 0.08295,-0.0201 3.4e-5,0 9.48e-4,-2.3e-4 0.08414,-0.0194 0.08336,-0.0183 9.82e-4,-2e-4 0.0082,-0.002 -0.03726,-0.17982 z m 3.464861,0.0307 -0.04133,0.1789 0.0421,0.01 2.03e-4,6e-5 8.12e-4,1.7e-4 0.08516,0.0207 0.084,0.0214 9.81e-4,2.7e-4 0.08485,0.0227 0.08367,0.0234 0.08451,0.0246 0.08431,0.0256 5.42e-4,1.7e-4 4.4e-4,1.4e-4 0.08411,0.0266 0.02149,0.007 0.05733,-0.17444 -0.02247,-0.007 -5.07e-4,-1.7e-4 -4.74e-4,-1.7e-4 -0.08512,-0.0269 -5.08e-4,-1.3e-4 -4.74e-4,-1.7e-4 -0.08532,-0.0259 -4.74e-4,-1.4e-4 -5.08e-4,-1.7e-4 -0.08549,-0.0249 -5.08e-4,-1.3e-4 -5.08e-4,-1.4e-4 -0.08566,-0.0239 -5.07e-4,-1.7e-4 -5.08e-4,-1.4e-4 -0.08583,-0.0229 -5.08e-4,-1.4e-4 -5.08e-4,-10e-5 -0.086,-0.0219 -5.08e-4,-1.3e-4 -4.73e-4,-1.4e-4 -0.08617,-0.0209 -5.08e-4,-1.3e-4 -5.07e-4,-10e-5 -0.04312,-0.01 z m -4.799895,0.37612 -0.02654,0.0106 -4.74e-4,1.7e-4 -4.74e-4,2e-4 -0.0812,0.0336 -4.4e-4,2.1e-4 -4.74e-4,2e-4 -0.08086,0.0345 -4.74e-4,2e-4 -4.74e-4,2.1e-4 -0.08048,0.0354 -4.74e-4,2e-4 -4.74e-4,2e-4 -0.08015,0.0363 -4.74e-4,2.1e-4 -4.73e-4,2e-4 -0.07981,0.0373 -4.74e-4,2.1e-4 -4.4e-4,2.3e-4 -0.07944,0.0381 -4.74e-4,2.3e-4 -4.74e-4,2.1e-4 -0.07906,0.0391 -4.4e-4,2.4e-4 -4.74e-4,2.3e-4 -0.04092,0.0208 0.08319,0.16371 0.04001,-0.0203 9.14e-4,-4.7e-4 0.07724,-0.0381 8.46e-4,-4.1e-4 6.8e-5,-3e-5 0.07761,-0.0373 9.14e-4,-4.4e-4 0.07889,-0.0368 0,-4e-5 0.07828,-0.0355 9.48e-4,-4e-4 0.07862,-0.0346 8.12e-4,-3.4e-4 1.36e-4,-7e-5 0.07896,-0.0337 9.48e-4,-4.1e-4 0.07927,-0.0328 9.48e-4,-3.7e-4 0.02562,-0.0103 -0.0683,-0.17045 z m 6.1264,0.0557 -0.07104,0.16933 0.0028,0.001 6.09e-4,2.7e-4 3.39e-4,1.4e-4 0.08103,0.0351 9.81e-4,4.4e-4 0.08075,0.0361 9.48e-4,4.4e-4 0.08048,0.0371 2.36e-4,1.4e-4 7.11e-4,3e-4 0.08018,0.0381 9.48e-4,4.4e-4 0.07988,0.0391 7.45e-4,3.7e-4 2.03e-4,10e-5 0.07957,0.04 9.48e-4,4.7e-4 0.07927,0.041 9.48e-4,5.1e-4 0.04349,0.0232 0.08631,-0.16212 -0.04444,-0.0237 -4.74e-4,-2.4e-4 -4.73e-4,-2.3e-4 -0.08113,-0.042 -4.74e-4,-2.7e-4 -4.74e-4,-2.3e-4 -0.08147,-0.041 -4.74e-4,-2.4e-4 -4.73e-4,-2.4e-4 -0.08177,-0.04 -4.74e-4,-2.3e-4 -5.08e-4,-2.1e-4 -0.08207,-0.039 -4.74e-4,-2e-4 -4.74e-4,-2.4e-4 -0.08238,-0.0379 -4.74e-4,-2.3e-4 -5.08e-4,-2.1e-4 -0.08265,-0.037 -4.74e-4,-2e-4 -5.08e-4,-2e-4 -0.08295,-0.036 -4.74e-4,-2e-4 -4.74e-4,-2e-4 -0.0038,-0.002 z m -7.370593,0.57703 -0.05148,0.0323 -4.4e-4,2.7e-4 -4.4e-4,3e-4 -0.0749,0.0482 -4.4e-4,2.7e-4 -4.06e-4,2.7e-4 -0.07443,0.0491 -4.4e-4,2.7e-4 -4.39e-4,3.1e-4 -0.07395,0.0499 -4.4e-4,3.1e-4 -4.06e-4,2.7e-4 -0.07348,0.0509 -4.4e-4,3e-4 -4.07e-4,3.1e-4 -0.07297,0.0518 -4.4e-4,3e-4 -4.07e-4,3.1e-4 -0.0725,0.0527 -4.39e-4,3e-4 -4.07e-4,3.1e-4 -0.07195,0.0535 -4.4e-4,3.1e-4 -4.06e-4,3.3e-4 -0.0034,0.003 0.111284,0.14604 0.0026,-0.002 8.46e-4,-6.1e-4 0.0703,-0.0523 8.46e-4,-6.1e-4 0.07077,-0.0514 3.04e-4,-2.4e-4 5.42e-4,-3.7e-4 0.07128,-0.0506 8.8e-4,-6.1e-4 0.07175,-0.0496 0.07307,-0.0494 8.46e-4,-5.7e-4 0.0727,-0.0479 3.05e-4,-2e-4 5.75e-4,-3.8e-4 0.07314,-0.047 8.8e-4,-5.7e-4 0.0506,-0.0317 -0.09758,-0.15558 z M 7.998257,1.88106 A 6.1207315,6.1207315 0 0 0 1.877509,8.00181 6.1207315,6.1207315 0 0 0 7.998257,14.12256 6.1207315,6.1207315 0 0 0 14.119005,8.00181 6.1207315,6.1207315 0 0 0 7.998257,1.88106 Z m -5.353945,0.16886 -0.02065,0.0186 -4.06e-4,3.4e-4 -3.73e-4,3.3e-4 -0.06705,0.0616 -4.06e-4,3.7e-4 -3.73e-4,3.4e-4 -0.06644,0.0624 -4.07e-4,3.8e-4 -3.72e-4,3.7e-4 -0.06586,0.0633 -3.72e-4,3.7e-4 -3.73e-4,3.7e-4 -0.06525,0.0642 -3.72e-4,3.7e-4 -3.72e-4,3.7e-4 -0.06464,0.0651 -3.72e-4,3.7e-4 -3.73e-4,3.7e-4 -0.064,0.066 -3.72e-4,3.7e-4 -3.72e-4,4.1e-4 -0.06336,0.0668 -3.72e-4,4e-4 -3.72e-4,3.8e-4 -0.01496,0.0162 0.134671,0.12483 0.01428,-0.0154 7.11e-4,-7.8e-4 0.06194,-0.0653 0.06326,-0.0652 7.44e-4,-7.4e-4 0.0639,-0.0643 0.06373,-0.0627 7.44e-4,-7.1e-4 0.06434,-0.0619 2.36e-4,-2e-4 5.08e-4,-5.1e-4 0.06492,-0.061 7.78e-4,-7.1e-4 0.06549,-0.0602 2.03e-4,-1.6e-4 L 2.747074,2.2045 2.766944,2.1867 2.644322,2.05 Z m -0.951633,1.02051 -0.0175,0.0223 -3.39e-4,4e-4 -3.04e-4,4.1e-4 -0.05608,0.0731 -3.39e-4,4.1e-4 -3.04e-4,4.4e-4 -0.05513,0.0735 -3.05e-4,4.1e-4 -3.05e-4,4.4e-4 -0.05415,0.074 -3.39e-4,4.4e-4 -3.04e-4,4.1e-4 -0.05317,0.0745 -3.04e-4,4.4e-4 -3.05e-4,4.4e-4 -0.05222,0.0749 -3.05e-4,4.4e-4 -3.05e-4,4.4e-4 -0.05124,0.0754 -3.04e-4,4.4e-4 -3.05e-4,4.4e-4 -0.05026,0.0759 -3.05e-4,4.4e-4 -2.71e-4,4.4e-4 -0.01171,0.018 0.154234,0.0997 0.0111,-0.0172 2.71e-4,-4.1e-4 3.04e-4,-4.7e-4 0.04911,-0.0741 5.75e-4,-8.8e-4 0.05009,-0.0737 0.05161,-0.0741 6.09e-4,-8.8e-4 0.05195,-0.0727 0.05351,-0.0732 6.43e-4,-8.5e-4 0.05381,-0.0718 3.72e-4,-5.1e-4 2.71e-4,-3.4e-4 0.0548,-0.0714 6.43e-4,-8.4e-4 0.01685,-0.0214 -0.144351,-0.11348 z m 8.840975,0.6035 a 1.792672,1.792672 0 0 1 1.792659,1.79265 1.792672,1.792672 0 0 1 -1.792659,1.7927 1.792672,1.792672 0 0 1 -1.792692,-1.7927 1.792672,1.792672 0 0 1 1.792692,-1.79265 z m -9.602092,0.56586 -0.0049,0.009 -2.37e-4,4.4e-4 -2.37e-4,4.7e-4 -0.04163,0.0795 -2.37e-4,4.4e-4 -2.37e-4,4.8e-4 -0.04065,0.0798 -2.37e-4,4.4e-4 -2.37e-4,4.7e-4 -0.03967,0.0802 -2.37e-4,4.8e-4 -2.37e-4,4.7e-4 -0.03872,0.0805 -2.03e-4,4.8e-4 -2.37e-4,4.7e-4 -0.03774,0.0809 -2.37e-4,4.7e-4 -2.03e-4,4.8e-4 -0.03679,0.0812 -2.04e-4,4.7e-4 -2.36e-4,4.8e-4 -0.03581,0.0815 -2.03e-4,4.7e-4 -2.03e-4,4.7e-4 -0.02149,0.0504 0.168923,0.072 0.02108,-0.0494 6.8e-5,-1.3e-4 3.39e-4,-8.1e-4 0.035,-0.0796 4.06e-4,-9.5e-4 0.03594,-0.0793 3.72e-4,-7.8e-4 6.8e-5,-1.7e-4 0.03686,-0.079 4.39e-4,-9.5e-4 0.03781,-0.0786 4.74e-4,-9.5e-4 0.03875,-0.0783 1.69e-4,-3.4e-4 3.05e-4,-6.1e-4 0.0397,-0.078 4.74e-4,-9.5e-4 0.04065,-0.0776 4.73e-4,-9.2e-4 0.0044,-0.008 -0.16168,-0.087 z m 14.199862,0.1282 -0.164083,0.0824 0.04122,0.0821 6.8e-5,1.3e-4 4.06e-4,8.2e-4 0.03973,0.0815 4.74e-4,9.5e-4 0.03869,0.0817 4.73e-4,9.8e-4 0.03764,0.0819 3.72e-4,8.2e-4 6.8e-5,1.6e-4 0.03665,0.0822 4.06e-4,9.4e-4 0.03561,0.0824 0.035,0.0837 1.35e-4,3e-4 2.71e-4,6.8e-4 0.01618,0.04 0.170243,-0.0689 -0.01658,-0.041 -2.03e-4,-5.1e-4 -2.04e-4,-4.7e-4 -0.0354,-0.0847 -2.03e-4,-4.7e-4 -2.03e-4,-5.1e-4 -0.03645,-0.0844 -2.03e-4,-5e-4 -2.37e-4,-4.8e-4 -0.0375,-0.0841 -2.03e-4,-5.1e-4 -2.37e-4,-4.7e-4 -0.03855,-0.0839 -2.03e-4,-5.1e-4 -2.37e-4,-4.7e-4 -0.0396,-0.0836 -2.37e-4,-4.8e-4 -2.37e-4,-4.7e-4 -0.04065,-0.0834 -2.37e-4,-4.7e-4 -2.37e-4,-4.8e-4 -0.04173,-0.0831 z m -14.745518,1.15674 -0.01594,0.0492 -1.36e-4,5.1e-4 -1.69e-4,4.7e-4 -0.0262,0.0842 -1.7e-4,5.1e-4 -1.35e-4,4.7e-4 -0.02525,0.0844 -1.35e-4,5.1e-4 -1.35e-4,4.7e-4 -0.02427,0.0847 -1.69e-4,5.1e-4 -1.35e-4,4.7e-4 -0.02329,0.0849 -1.35e-4,5.1e-4 -1.36e-4,4.8e-4 -0.02237,0.085 -1.36e-4,4.7e-4 -1.01e-4,5.1e-4 -0.02139,0.0852 -1.35e-4,5.1e-4 -1.02e-4,5.1e-4 -0.02044,0.0854 -1.36e-4,5.1e-4 -1.01e-4,5.1e-4 -0.0051,0.0223 0.179076,0.0407 0.0048,-0.0213 2.37e-4,-9.8e-4 0.01994,-0.0834 3.4e-5,-2e-4 2.03e-4,-7.8e-4 0.02092,-0.0833 2.37e-4,-9.8e-4 0.02183,-0.0831 1.01e-4,-3.3e-4 1.7e-4,-6.8e-4 0.02278,-0.0829 3.4e-5,-1.1e-4 2.37e-4,-8.8e-4 0.02373,-0.0827 0.02491,-0.0834 3.4e-5,0 0.02589,-0.0832 3.04e-4,-9.8e-4 0.0156,-0.0483 -0.17471,-0.0565 z m 15.268904,0.13667 -0.175793,0.053 0.02366,0.0786 3.4e-5,10e-5 2.7e-4,9.2e-4 0.02471,0.0856 0.02342,0.0847 2.03e-4,8.2e-4 6.7e-5,2e-4 0.02241,0.0849 2.71e-4,0.001 0.02142,0.085 2.37e-4,0.001 0.02044,0.0851 1.35e-4,5.8e-4 1.01e-4,4.4e-4 0.01943,0.0852 2.37e-4,0.001 0.01428,0.0662 0.179482,-0.0388 -0.01452,-0.0672 -1.01e-4,-5.1e-4 -1.02e-4,-5e-4 -0.0199,-0.0873 -1.35e-4,-5e-4 -1.02e-4,-5.1e-4 -0.02092,-0.0871 -1.36e-4,-5.1e-4 -1.01e-4,-5.1e-4 -0.02193,-0.087 -1.35e-4,-5.1e-4 -1.36e-4,-5.1e-4 -0.02295,-0.0869 -1.69e-4,-5e-4 -1.36e-4,-5.1e-4 -0.024,-0.0868 -1.36e-4,-5e-4 -1.35e-4,-4.8e-4 -0.02501,-0.0866 -1.69e-4,-5e-4 -1.35e-4,-5.1e-4 -0.02396,-0.0796 z m -15.582178,1.22341 -0.01012,0.0743 -6.8e-5,5e-4 -6.8e-5,5.1e-4 -0.01083,0.0868 -3.4e-5,4.7e-4 -6.8e-5,5.1e-4 -0.0099,0.0869 -3.4e-5,4.8e-4 -6.7e-5,5e-4 -0.0089,0.087 -3.4e-5,5.1e-4 -6.7e-5,5.1e-4 -0.0079,0.087 -6.8e-5,5.1e-4 -3.4e-5,5.1e-4 -0.007,0.0871 -3.4e-5,5.1e-4 -3.3e-5,5.1e-4 -0.006,0.0871 -6.8e-5,5e-4 0,5.1e-4 -0.0051,0.0872 -3.4e-5,5.1e-4 -3.4e-5,5.1e-4 -1.69e-4,0.004 0.183442,0.009 1.35e-4,-0.003 0.005,-0.0862 6.7e-5,-7.8e-4 0,-2.3e-4 0.0059,-0.0851 6.8e-5,-0.001 0.0068,-0.0851 0.0079,-0.086 6.8e-5,-8.1e-4 3.4e-5,-2.1e-4 0.0088,-0.0859 -3.3e-5,0 0.0098,-0.0859 0.01056,-0.0847 1.35e-4,-9.9e-4 0.01,-0.0733 -0.181954,-0.0247 z m 15.872538,0.14107 -0.182258,0.0224 0.0049,0.04 0.0097,0.0869 1.01e-4,10e-4 0.0086,0.0859 0,4e-5 1.01e-4,9.8e-4 0.0077,0.087 0.0067,0.086 -3.4e-5,0 0.0058,0.087 6.8e-5,10e-4 0.0047,0.086 0.0039,0.087 3.4e-5,9.5e-4 0,6e-5 9.81e-4,0.0303 0.183544,-0.006 -0.001,-0.0313 0,-5.1e-4 -3.4e-5,-5.1e-4 -0.0039,-0.088 -3.4e-5,-5.1e-4 -3.4e-5,-5.1e-4 -0.0048,-0.088 -3.4e-5,-5.1e-4 -3.4e-5,-5e-4 -0.0059,-0.088 -3.4e-5,-5e-4 -3.4e-5,-5.1e-4 -0.0068,-0.088 -3.4e-5,-5.4e-4 -6.8e-5,-5.1e-4 -0.0078,-0.088 -3.4e-5,-5e-4 -6.8e-5,-5.1e-4 -0.0088,-0.088 -6.7e-5,-5.1e-4 -3.4e-5,-5e-4 -0.0098,-0.088 -3.4e-5,-5.1e-4 -6.8e-5,-5e-4 -0.005,-0.041 z M 0.183578,8.27203 0,8.27703 l 1.35e-4,0.004 0,5.1e-4 3.4e-5,4.8e-4 0.0036,0.0872 3.4e-5,5e-4 0,5.1e-4 0.0045,0.0872 3.4e-5,5e-4 3.4e-5,5.1e-4 0.0055,0.0871 3.4e-5,5.1e-4 3.3e-5,5.1e-4 0.0064,0.087 3.4e-5,5e-4 6.8e-5,5.1e-4 0.0074,0.087 3.4e-5,5.1e-4 6.8e-5,5e-4 0.0084,0.0869 3.4e-5,5.1e-4 6.8e-5,5e-4 0.0093,0.0869 3.4e-5,5.1e-4 6.8e-5,5.1e-4 0.0089,0.0751 0.18236,-0.0216 -0.0088,-0.0741 -0.0092,-0.0859 -3.4e-5,-3.4e-4 -6.8e-5,-6.4e-4 -0.0082,-0.0859 -0.0073,-0.086 -0.0063,-0.085 -3.4e-5,-6.8e-4 -3.4e-5,-3.4e-4 -0.0053,-0.0851 -6.8e-5,-10e-4 -0.0045,-0.0862 -0.0035,-0.0852 0,-5.4e-4 -3.4e-5,-4.7e-4 -6.7e-5,-0.003 z m 15.62638,0.1385 -0.0038,0.0672 -6.8e-5,9.5e-4 0,7e-5 -0.0058,0.0854 -6.7e-5,10e-4 -0.0067,0.0853 -0.0077,0.0862 -1.01e-4,9.5e-4 0,7e-5 -0.0086,0.085 -1.02e-4,10e-4 -0.0096,0.0859 -0.01039,0.0848 -1.36e-4,9.5e-4 0,7e-5 -0.01134,0.0847 -3.4e-5,2.7e-4 -1.01e-4,7.1e-4 -0.0013,0.009 0.181751,0.0264 0.0014,-0.01 6.8e-5,-5.1e-4 6.8e-5,-5.1e-4 0.01161,-0.0866 6.7e-5,-5.1e-4 6.8e-5,-4.7e-4 0.01066,-0.0868 6.8e-5,-5.1e-4 6.8e-5,-4.7e-4 0.0097,-0.087 6.7e-5,-5.1e-4 6.8e-5,-4.7e-4 0.0087,-0.0871 6.8e-5,-4.8e-4 3.4e-5,-5.1e-4 0.0078,-0.0872 3.4e-5,-5.1e-4 6.8e-5,-5.1e-4 0.0068,-0.0873 6.8e-5,-5.1e-4 3.4e-5,-5.1e-4 0.0059,-0.0874 3.4e-5,-5.1e-4 3.4e-5,-5e-4 0.0038,-0.0683 -0.18334,-0.0103 z m -15.460537,1.21465 -0.179754,0.0376 0.0043,0.0207 1.01e-4,5.1e-4 1.02e-4,4.7e-4 0.01889,0.0856 1.36e-4,5.1e-4 1.01e-4,5.1e-4 0.01983,0.0854 1.35e-4,4.7e-4 1.02e-4,5.1e-4 0.02081,0.0852 1.01e-4,5.1e-4 1.35e-4,5.1e-4 0.02176,0.085 1.02e-4,5e-4 1.35e-4,5.1e-4 0.02271,0.0848 1.36e-4,4.7e-4 1.35e-4,5.1e-4 0.02366,0.0847 1.35e-4,4.7e-4 1.7e-4,5.1e-4 0.0246,0.0844 1.36e-4,5.1e-4 1.69e-4,4.7e-4 0.01594,0.0525 0.175726,-0.0534 -0.01567,-0.0516 -3.04e-4,-9.8e-4 -0.02403,-0.0824 -0.02342,-0.0837 -1.01e-4,-3.4e-4 -1.69e-4,-6.5e-4 -0.02217,-0.0829 -2.71e-4,-9.8e-4 -0.02122,-0.0831 -0.02058,-0.0842 -6.8e-5,-2.3e-4 -1.69e-4,-7.5e-4 -0.01936,-0.0834 -2.36e-4,-10e-4 -0.01845,-0.0836 -2.03e-4,-9.8e-4 -0.0041,-0.0197 z m 15.270528,0.13534 -0.01953,0.0824 -1.02e-4,4.1e-4 -1.35e-4,5.7e-4 -0.02078,0.0837 -0.02142,0.0825 -2.7e-4,9.8e-4 -0.02234,0.0823 -1.01e-4,3.3e-4 -1.69e-4,6.5e-4 -0.02356,0.083 3.4e-5,0 -0.02417,0.0818 -3.04e-4,9.9e-4 -0.02505,0.0815 -3.04e-4,9.5e-4 -0.02433,0.0762 0.174913,0.0559 0.02464,-0.0772 1.69e-4,-4.7e-4 1.35e-4,-4.7e-4 0.02566,-0.0835 1.35e-4,-5e-4 1.7e-4,-4.8e-4 0.02471,-0.0837 1.35e-4,-4.8e-4 1.36e-4,-5e-4 0.02383,-0.084 1.35e-4,-5.1e-4 1.36e-4,-4.7e-4 0.02288,-0.0842 1.69e-4,-5e-4 1.02e-4,-4.8e-4 0.02197,-0.0845 1.35e-4,-4.7e-4 1.02e-4,-5.1e-4 0.02102,-0.0847 1.35e-4,-4.7e-4 1.01e-4,-5.1e-4 0.01973,-0.0834 -0.178704,-0.0422 z m -14.872472,1.16832 -0.170243,0.0689 0.01838,0.0454 1.7e-4,4.7e-4 2.03e-4,4.8e-4 0.03418,0.0818 2.03e-4,4.8e-4 2.03e-4,4.7e-4 0.03513,0.0815 2.03e-4,4.7e-4 2.03e-4,4.8e-4 0.03608,0.0812 2.03e-4,4.8e-4 2.37e-4,4.7e-4 0.03703,0.0809 2.03e-4,4.7e-4 2.37e-4,4.8e-4 0.03797,0.0805 2.37e-4,4.8e-4 2.03e-4,4.7e-4 0.03896,0.0802 2.37e-4,4.8e-4 2.37e-4,4.4e-4 0.03987,0.0798 2.37e-4,4.7e-4 2.37e-4,4.7e-4 0.0087,0.0169 0.163305,-0.084 -0.0082,-0.0159 -4.74e-4,-9.5e-4 -0.03896,-0.0779 -4.74e-4,-9.5e-4 -0.03804,-0.0783 -4.4e-4,-9.5e-4 -0.03709,-0.0786 -2.37e-4,-5.1e-4 -2.03e-4,-4.4e-4 -0.03618,-0.079 -4.06e-4,-9.2e-4 -0.03527,-0.0793 -4.06e-4,-9.4e-4 -0.03469,-0.0806 -3.4e-5,0 -0.03337,-0.0799 -3.72e-4,-9.5e-4 -0.01797,-0.0445 z m 14.451232,0.12935 -0.0054,0.0129 -3.04e-4,6.8e-4 -1.02e-4,2.7e-4 -0.03391,0.0785 -3.72e-4,8.4e-4 -3.4e-5,7e-5 -0.03483,0.0781 -0.03611,0.0787 -4.4e-4,9.2e-4 -0.03655,0.0774 -3.05e-4,6.1e-4 -1.35e-4,3.1e-4 -0.03743,0.077 -4.4e-4,9.1e-4 -0.03831,0.0766 -0.03963,0.0772 -4.39e-4,8.8e-4 -0.0286,0.0542 0.162391,0.0857 0.02907,-0.0551 2.37e-4,-4.4e-4 2.37e-4,-4.4e-4 0.04007,-0.078 2.37e-4,-4.7e-4 2.37e-4,-4.4e-4 0.03919,-0.0785 2.37e-4,-4.4e-4 2.36e-4,-4.7e-4 0.03831,-0.0788 2.36e-4,-4.7e-4 2.04e-4,-4.4e-4 0.03743,-0.0792 2.03e-4,-4.8e-4 2.37e-4,-4.4e-4 0.03652,-0.0796 2.03e-4,-4.7e-4 2.03e-4,-4.8e-4 0.03564,-0.0799 2.03e-4,-4.7e-4 2.03e-4,-4.8e-4 0.03476,-0.0803 2.03e-4,-4.8e-4 2.03e-4,-4.7e-4 0.0058,-0.0138 -0.169362,-0.071 z m -13.831793,1.08566 -0.156129,0.0967 0.0046,0.007 3.05e-4,4.4e-4 2.71e-4,4.4e-4 0.04847,0.0763 3.05e-4,4.4e-4 2.71e-4,4.4e-4 0.04941,0.0759 3.05e-4,4.4e-4 3.04e-4,4.4e-4 0.05036,0.0754 3.05e-4,4.4e-4 3.05e-4,4.4e-4 0.05131,0.075 3.05e-4,4.4e-4 3.05e-4,4.4e-4 0.05229,0.0745 3.04e-4,4.4e-4 3.05e-4,4.4e-4 0.05324,0.074 3.05e-4,4.4e-4 3.04e-4,4.1e-4 0.05419,0.0736 3.38e-4,4.4e-4 3.05e-4,4.1e-4 0.02755,0.0365 0.146585,-0.11061 -0.02691,-0.0357 -6.44e-4,-8.5e-4 -0.05354,-0.0727 -0.05202,-0.0723 -6.09e-4,-8.8e-4 -0.05107,-0.0728 -3.38e-4,-4.7e-4 -2.71e-4,-4.1e-4 -0.05012,-0.0732 -6.09e-4,-8.8e-4 -0.04921,-0.0737 -5.08e-4,-7.4e-4 -6.8e-5,-1.4e-4 -0.04826,-0.0741 -5.76e-4,-8.8e-4 -0.04735,-0.0745 -2.03e-4,-3.1e-4 -3.72e-4,-6e-4 -0.004,-0.007 z m 13.192554,0.11826 -0.02081,0.0322 -2.37e-4,3.4e-4 -3.39e-4,5.4e-4 -0.04772,0.0719 -5.75e-4,8.8e-4 -0.04857,0.0714 -5.76e-4,8.4e-4 -0.04941,0.0709 -6.09e-4,8.5e-4 -0.05023,0.0704 -2.37e-4,3e-4 -3.72e-4,5.4e-4 -0.05172,0.0707 3.4e-5,0 -0.05195,0.0694 -6.8e-5,7e-5 -5.41e-4,7.4e-4 -0.05277,0.0689 -6.43e-4,8.1e-4 -0.01861,0.0237 0.14452,0.11328 0.01926,-0.0245 3.38e-4,-4.1e-4 3.05e-4,-4e-4 0.05402,-0.0705 3.05e-4,-4e-4 3.04e-4,-4.4e-4 0.05317,-0.071 3.04e-4,-4.1e-4 3.05e-4,-4.4e-4 0.05232,-0.0716 3.05e-4,-4.1e-4 3.04e-4,-4.4e-4 0.05145,-0.0721 2.71e-4,-4.1e-4 3.05e-4,-4.4e-4 0.0506,-0.0726 3.04e-4,-4.4e-4 2.71e-4,-4e-4 0.04972,-0.0731 3.04e-4,-4.4e-4 2.71e-4,-4e-4 0.04887,-0.0736 2.71e-4,-4.4e-4 3.04e-4,-4e-4 0.02136,-0.033 -0.154098,-0.0998 z m -12.371327,0.97031 -0.137142,0.12209 9.81e-4,0.001 3.73e-4,3.7e-4 3.38e-4,4e-4 0.06261,0.0687 3.72e-4,4.1e-4 3.39e-4,4e-4 0.06326,0.0678 3.72e-4,3.7e-4 3.39e-4,4.1e-4 0.0639,0.0669 3.39e-4,4.1e-4 3.72e-4,3.7e-4 0.06451,0.066 3.73e-4,4.1e-4 3.72e-4,3.7e-4 0.06512,0.0652 3.72e-4,3.7e-4 3.72e-4,3.8e-4 0.06573,0.0643 3.72e-4,3.7e-4 4.06e-4,3.4e-4 0.0663,0.0634 4.06e-4,3.7e-4 3.72e-4,3.4e-4 0.03127,0.0292 0.125296,-0.1342 -0.03046,-0.0285 -7.78e-4,-7.1e-4 -0.06478,-0.0619 0,-3e-5 -0.06498,-0.0635 -7.1e-4,-7.1e-4 -3.4e-5,-3e-5 -0.06363,-0.0637 -7.44e-4,-7.8e-4 -0.06302,-0.0645 -6.43e-4,-6.8e-4 -1.02e-4,-10e-5 -0.06241,-0.0654 -7.11e-4,-7.8e-4 -0.0618,-0.0663 -6.43e-4,-7.1e-4 -6.7e-5,-7e-5 -0.06119,-0.0671 -7.11e-4,-8.2e-4 -3.04e-4,-3.4e-4 z m 11.532399,0.10371 -0.05584,0.0593 -5.07e-4,5.1e-4 -2.37e-4,2.7e-4 -0.06099,0.0633 -7.11e-4,7.4e-4 -0.0618,0.0626 -4.4e-4,4.4e-4 -3.05e-4,3.1e-4 -0.06261,0.062 -7.45e-4,7.4e-4 -0.06343,0.0614 -4.06e-4,4e-4 -3.73e-4,3.4e-4 -0.0642,0.0607 -7.79e-4,7.5e-4 -0.06505,0.0601 -4.4e-4,3.7e-4 -3.38e-4,3.4e-4 -0.0483,0.0436 0.12313,0.13626 0.04908,-0.0444 4.06e-4,-3.4e-4 3.72e-4,-3.7e-4 0.06661,-0.0616 3.73e-4,-3.7e-4 3.72e-4,-3.7e-4 0.06576,-0.0622 3.72e-4,-3.7e-4 4.06e-4,-3.7e-4 0.06492,-0.0629 3.72e-4,-3.4e-4 3.72e-4,-3.7e-4 0.0641,-0.0635 3.72e-4,-3.7e-4 3.72e-4,-3.7e-4 0.06329,-0.0641 3.72e-4,-3.7e-4 3.73e-4,-3.7e-4 0.06245,-0.0648 3.38e-4,-3.8e-4 3.72e-4,-3.7e-4 0.05659,-0.0601 -0.133656,-0.12594 z m -10.536666,0.8264 -0.112468,0.14516 0.06681,0.0518 4.4e-4,3e-4 4.06e-4,3.4e-4 0.07185,0.0544 4.06e-4,3.4e-4 4.4e-4,3e-4 0.07236,0.0535 4.06e-4,3e-4 4.4e-4,3.1e-4 0.07287,0.0526 4.06e-4,3e-4 4.4e-4,3.1e-4 0.07334,0.0516 4.4e-4,3.1e-4 4.06e-4,3e-4 0.07385,0.0507 4.4e-4,3e-4 4.06e-4,3.1e-4 0.07432,0.0498 4.4e-4,3e-4 4.4e-4,2.7e-4 0.05632,0.0369 0.100555,-0.15365 -0.05547,-0.0363 -8.47e-4,-5.8e-4 -0.0726,-0.0487 -4.74e-4,-3.4e-4 -3.72e-4,-2.4e-4 -0.07212,-0.0496 -8.46e-4,-5.8e-4 -0.07165,-0.0505 -7.78e-4,-5.8e-4 -6.8e-5,-3e-5 -0.07118,-0.0513 -8.46e-4,-6e-4 -0.07067,-0.0522 -8.47e-4,-6.4e-4 -0.07016,-0.0531 -1.36e-4,-1.1e-4 -7.1e-4,-5.4e-4 -0.066,-0.0511 z m 9.52269,0.0854 -0.05297,0.0396 -8.46e-4,6.5e-4 -0.07301,0.0533 -0.07459,0.0532 -8.8e-4,6.1e-4 -0.07544,0.0525 -0.07514,0.051 -8.8e-4,6.1e-4 -0.07554,0.05 -0.07683,0.0496 -8.8e-4,5.8e-4 -0.05585,0.0351 0.09778,0.15541 0.05673,-0.0357 4.74e-4,-2.7e-4 4.4e-4,-3e-4 0.07771,-0.0502 4.74e-4,-3.1e-4 4.4e-4,-2.7e-4 0.0773,-0.0512 4.4e-4,-3.1e-4 4.4e-4,-3e-4 0.0769,-0.0522 4.4e-4,-3.1e-4 4.41e-4,-3e-4 0.07629,-0.0531 4.4e-4,-3.1e-4 4.4e-4,-3e-4 0.07551,-0.0539 4.06e-4,-3e-4 4.4e-4,-3.1e-4 0.0747,-0.0546 4.4e-4,-3e-4 4.07e-4,-3.4e-4 0.05381,-0.0403 -0.110032,-0.14699 z m -8.379323,0.65809 -0.08627,0.16209 0.0376,0.02 4.73e-4,2.4e-4 4.4e-4,2.4e-4 0.07859,0.0407 4.73e-4,2.4e-4 4.4e-4,2.4e-4 0.07896,0.0398 4.74e-4,2.3e-4 4.73e-4,2.1e-4 0.07933,0.0388 4.4e-4,2.4e-4 4.74e-4,2.3e-4 0.07971,0.0379 4.4e-4,2.4e-4 4.74e-4,2e-4 0.08004,0.037 4.74e-4,2e-4 4.74e-4,2e-4 0.08042,0.0361 4.4e-4,2.4e-4 4.74e-4,2e-4 0.08075,0.0352 4.74e-4,2e-4 4.74e-4,1.7e-4 0.02769,0.0117 0.07145,-0.16916 -0.02677,-0.0113 -4.4e-4,-2.1e-4 -5.07e-4,-2e-4 -0.07886,-0.0344 -6.1e-4,-2.7e-4 -3.04e-4,-1.4e-4 -0.07947,-0.0357 -0.07822,-0.0362 -9.14e-4,-4.4e-4 -0.07876,-0.0375 0,4e-5 -0.07751,-0.038 -9.14e-4,-4.4e-4 -0.07713,-0.0388 -9.14e-4,-4.8e-4 -0.07764,-0.0402 -0.03672,-0.0195 z m 7.223196,0.0649 -0.05818,0.0295 -4.74e-4,2.3e-4 -4.74e-4,2.4e-4 -0.07944,0.0391 -9.48e-4,4.7e-4 -0.07977,0.0382 -9.47e-4,4.4e-4 -0.08004,0.0372 -3.4e-5,0 -9.13e-4,4.4e-4 -0.08133,0.0366 0,4e-5 -0.08062,0.0352 -5.75e-4,2.3e-4 -3.73e-4,1.7e-4 -0.08092,0.0343 -9.48e-4,4.1e-4 -0.07531,0.0309 0.06965,0.16991 0.07629,-0.0313 4.74e-4,-2e-4 4.74e-4,-2e-4 0.08285,-0.0351 4.74e-4,-2e-4 4.74e-4,-2.1e-4 0.08255,-0.0361 4.74e-4,-2e-4 5.07e-4,-2e-4 0.08225,-0.0371 4.74e-4,-2e-4 4.74e-4,-2.4e-4 0.08197,-0.0381 4.74e-4,-2.1e-4 4.74e-4,-2.3e-4 0.08167,-0.0391 4.74e-4,-2.4e-4 4.74e-4,-2.4e-4 0.08133,-0.0401 4.74e-4,-2.4e-4 4.74e-4,-2.3e-4 0.05913,-0.03 -0.08306,-0.16378 z m -5.968477,0.46771 -0.05615,0.17481 0.06617,0.0213 4.74e-4,1.7e-4 4.74e-4,1.3e-4 0.0837,0.0259 4.74e-4,1.7e-4 4.74e-4,1.4e-4 0.08394,0.0249 4.74e-4,1.7e-4 4.74e-4,1.3e-4 0.08417,0.024 4.73e-4,1.3e-4 5.08e-4,1.4e-4 0.08438,0.0231 5.08e-4,1.3e-4 4.73e-4,1.4e-4 0.08461,0.0221 4.74e-4,1.4e-4 5.07e-4,10e-5 0.08482,0.0212 4.74e-4,1.4e-4 5.08e-4,1.3e-4 0.08502,0.0202 5.08e-4,1.3e-4 4.74e-4,1.4e-4 0.0085,0.002 0.04051,-0.17911 -0.0075,-0.002 -9.81e-4,-2.7e-4 -0.08306,-0.0197 -3.05e-4,-10e-5 -6.76e-4,-1.7e-4 -0.08289,-0.0207 -9.81e-4,-2.4e-4 -0.08265,-0.0216 -9.82e-4,-2.7e-4 -0.08241,-0.0225 -2.37e-4,-7e-5 -7.45e-4,-2e-4 -0.08221,-0.0234 -9.82e-4,-2.7e-4 -0.08197,-0.0244 -9.47e-4,-2.7e-4 -0.08174,-0.0253 -1.02e-4,-4e-5 -8.8e-4,-2.7e-4 -0.06519,-0.021 z m 4.704248,0.0435 -0.02975,0.009 0,3e-5 -0.08323,0.0245 -9.82e-4,2.7e-4 -0.0834,0.0236 -5.42e-4,1.4e-4 -4.39e-4,1.3e-4 -0.08458,0.0229 0,4e-5 -0.08373,0.0216 -0.08488,0.021 -10e-4,2.3e-4 -0.08404,0.0197 -1.35e-4,4e-5 -8.8e-4,2e-4 -0.08519,0.019 -0.03767,0.008 0.03797,0.17969 0.03865,-0.008 5.07e-4,-10e-5 5.08e-4,-1.1e-4 0.0862,-0.0192 5.07e-4,-10e-5 5.08e-4,-1.4e-4 0.08603,-0.0202 5.08e-4,-10e-5 5.07e-4,-1.4e-4 0.0859,-0.0212 4.74e-4,-1.3e-4 5.08e-4,-10e-5 0.08573,-0.0222 5.08e-4,-10e-5 5.08e-4,-1.7e-4 0.08556,-0.0232 5.08e-4,-1.4e-4 4.73e-4,-1.3e-4 0.08539,-0.0241 5.08e-4,-1.7e-4 4.74e-4,-1.4e-4 0.08522,-0.0251 4.74e-4,-1.3e-4 5.07e-4,-1.4e-4 0.02975,-0.009 -0.05395,-0.17552 z m -3.375949,0.26332 -0.02464,0.18198 0.08576,0.0116 5.07e-4,7e-5 5.08e-4,7e-5 0.08661,0.0108 5.07e-4,3e-5 5.08e-4,7e-5 0.08671,0.01 5.08e-4,3e-5 5.07e-4,7e-5 0.08681,0.009 5.08e-4,3e-5 5.07e-4,3e-5 0.08692,0.008 5.07e-4,4e-5 5.08e-4,3e-5 0.08702,0.007 5.08e-4,7e-5 5.08e-4,3e-5 0.08708,0.006 5.08e-4,4e-5 5.08e-4,0 0.08018,0.005 0.01056,-0.1833 -0.07916,-0.005 -8.12e-4,-7e-5 -2.04e-4,0 -0.08505,-0.006 -10e-4,-6e-5 -0.08502,-0.007 -0.0859,-0.008 -8.12e-4,-7e-5 -2.03e-4,-3e-5 -0.08583,-0.009 0,3e-5 -0.08471,-0.01 -0.08563,-0.0106 -9.81e-4,-1.3e-4 -0.08478,-0.0115 z m 2.042573,0.0193 -0.0614,0.007 -0.08519,0.009 -7.44e-4,7e-5 -2.71e-4,3e-5 -0.08526,0.008 -0.001,10e-5 -0.08631,0.007 -0.08532,0.006 0,-3e-5 -0.08637,0.006 -0.001,6e-5 -0.08539,0.004 -0.08641,0.004 -7.78e-4,4e-5 -2.37e-4,0 -0.01449,4.4e-4 0.0056,0.18354 0.01547,-4.7e-4 5.07e-4,-4e-5 5.08e-4,0 0.08742,-0.004 5.08e-4,0 5.07e-4,-4e-5 0.08742,-0.005 5.08e-4,0 5.08e-4,-3e-5 0.08739,-0.006 5.07e-4,-3e-5 5.08e-4,-4e-5 0.08736,-0.007 5.08e-4,-3e-5 5.07e-4,-4e-5 0.08729,-0.008 5.07e-4,-3e-5 5.08e-4,-7e-5 0.08729,-0.008 5.07e-4,-7e-5 5.08e-4,-3e-5 0.08722,-0.009 5.07e-4,-6e-5 5.08e-4,-7e-5 0.0614,-0.007 -0.0218,-0.18232 z"
     id="path6"
     inkscape:connector-curvature="0" />
</svg>
