<svg xmlns="http://www.w3.org/2000/svg" viewBox="0 0 16 16">
 <path d="m7.7218 0.0012-0.08062 0.003-0.000507 0.00004-0.000508 0.00003-0.08729 0.004-0.000473 0.00003-0.000508 0.00004-0.08722 0.005-0.000474 0.00003-0.000507 0.00004-0.08712 0.006-0.000507 0.00004-0.000508 0.00003-0.08702 0.007-0.000507 0.00004-0.000508 0.00003-0.08692 0.008-0.000508 0.00003-0.000508 0.00007-0.08681 0.009-0.000508 0.00003-0.000507 0.00007-0.08526 0.01 0.02136 0.1824 0.08424-0.01 0.001-0.0001 0.08482-0.009 0.000541-0.00004 0.000474-0.00006 0.0859-0.008 0.08502-0.007 0.001-0.00006 0.08509-0.006 0.000541-0.00003 0.000474-0.00004 0.08519-0.005 0.001-0.00007 0.08522-0.004 0.08065-0.003-0.0073-0.18348zm0.69847 0.006-0.0089 0.18341 0.01516 0.00075 0.08651 0.005 0.000643 0.00003 0.000373 0.00003 0.08546 0.006 0.001 0.00007 0.08543 0.007 0.001 0.0001 0.08539 0.008 0.000609 0.00007 0.000407 0.00003 0.08532 0.009 0.001 0.0001 0.08529 0.01 0.08624 0.0109 0.000575 0.00007 0.00044 0.00007 0.05818 0.008 0.02518-0.18188-0.0592-0.008-0.000507-0.00007-0.000508-0.00007-0.08725-0.0111-0.000507-0.00007-0.000508-0.00003-0.08732-0.0101-0.000508-0.00007-0.000508-0.00003-0.08735-0.009-0.000508-0.00007-0.000507-0.00003-0.08742-0.008-0.000508-0.00003-0.000507-0.00007-0.08749-0.007-0.000508-0.00004-0.000507-0.00003-0.08746-0.006-0.000508-0.00003h-0.000507l-0.08752-0.005-0.000507-0.00003-0.000508-0.00004-0.01618-0.00078zm5.6989 0.081a1.7928 1.7928 0 0 0 -1.793 1.7928 1.7928 1.7928 0 0 0 1.793 1.7929 1.7928 1.7928 0 0 0 1.793 -1.7929 1.7928 1.7928 0 0 0 -1.793 -1.7928zm-7.7815 0.0825-0.0091 0.002-0.000507 0.0001-0.000474 0.00011-0.08533 0.0187-0.000507 0.0001-0.000508 0.00014-0.08512 0.0196-0.000474 0.0001-0.000508 0.00014-0.08492 0.0205-0.000474 0.00011-0.000508 0.00013-0.08472 0.0215-0.000474 0.00014-0.000507 0.0001-0.08448 0.0224-0.000473 0.00013-0.000508 0.00014-0.08424 0.0233-0.000508 0.00014-0.000474 0.00013-0.084 0.0243-0.000508 0.00014-0.000474 0.00014-0.06654 0.02 0.05293 0.17586 0.06559-0.0198 0.000947-0.00027 0.08208-0.0238 0.000981-0.00027 0.08231-0.0228 0.000102-0.00003 0.00088-0.00024 0.0835-0.0221 0.08275-0.021 0.000981-0.00024 0.08295-0.0201h0.000034l0.000948-0.00023 0.08414-0.0194 0.08336-0.0183 0.000982-0.0002 0.0082-0.002-0.03726-0.17982zm3.4649 0.0307-0.04133 0.1789 0.0421 0.01 0.000203 0.00006 0.000812 0.00017 0.08516 0.0207 0.084 0.0214 0.000981 0.00027 0.08485 0.0227 0.08367 0.0234 0.08451 0.0246 0.08431 0.0256 0.000542 0.00017 0.00044 0.00014 0.08411 0.0266 0.02149 0.007 0.05733-0.17444-0.02247-0.007-0.000507-0.00017-0.000474-0.00017-0.08512-0.0269-0.000508-0.00013-0.000474-0.00017-0.08532-0.0259-0.000474-0.00014-0.000508-0.00017-0.08549-0.0249-0.000508-0.00013-0.000508-0.00014-0.08566-0.0239-0.000507-0.00017-0.000508-0.00014-0.08583-0.0229-0.000508-0.00014-0.000508-0.0001-0.086-0.0219-0.000508-0.00013-0.000473-0.00014-0.08617-0.0209-0.000508-0.00013-0.000507-0.0001-0.04312-0.01zm-4.7999 0.37612-0.02654 0.0106-0.000474 0.00017-0.000474 0.0002-0.0812 0.0336-0.00044 0.00021-0.000474 0.0002-0.08086 0.0345-0.000474 0.0002-0.000474 0.00021-0.08048 0.0354-0.000474 0.0002-0.000474 0.0002-0.08015 0.0363-0.000474 0.00021-0.000473 0.0002-0.07981 0.0373-0.000474 0.00021-0.00044 0.00023-0.07944 0.0381-0.000474 0.00023-0.000474 0.00021-0.07906 0.0391-0.00044 0.00024-0.000474 0.00023-0.04092 0.0208 0.08319 0.16371 0.04001-0.0203 0.000914-0.00047 0.07724-0.0381 0.000846-0.00041 0.000068-0.00003 0.07761-0.0373 0.000914-0.00044 0.07889-0.0368v-0.00004l0.07828-0.0355 0.000948-0.0004 0.07862-0.0346 0.000812-0.00034 0.000136-0.00007 0.07896-0.0337 0.000948-0.00041 0.07927-0.0328 0.000948-0.00037 0.02562-0.0103-0.0683-0.17045zm6.1264 0.0557-0.07104 0.16933 0.0028 0.001 0.000609 0.00027 0.000339 0.00014 0.08103 0.0351 0.000981 0.00044 0.08075 0.0361 0.000948 0.00044 0.08048 0.0371 0.000236 0.00014 0.000711 0.0003 0.08018 0.0381 0.000948 0.00044 0.07988 0.0391 0.000745 0.00037 0.000203 0.0001 0.07957 0.04 0.000948 0.00047 0.07927 0.041 0.000948 0.00051 0.04349 0.0232 0.08631-0.16212-0.04444-0.0237-0.000474-0.00024-0.000473-0.00023-0.08113-0.042-0.000474-0.00027-0.000474-0.00023-0.08147-0.041-0.000474-0.00024-0.000473-0.00024-0.08177-0.04-0.000474-0.00023-0.000508-0.00021-0.08207-0.039-0.000474-0.0002-0.000474-0.00024-0.08238-0.0379-0.000474-0.00023-0.000508-0.00021-0.08265-0.037-0.000474-0.0002-0.000508-0.0002-0.08295-0.036-0.000474-0.0002-0.000474-0.0002-0.0038-0.002zm-7.3706 0.57703-0.05148 0.0323-0.00044 0.00027-0.00044 0.0003-0.0749 0.0482-0.00044 0.00027-0.000406 0.00027-0.07443 0.0491-0.00044 0.00027-0.000439 0.00031-0.07395 0.0499-0.00044 0.00031-0.000406 0.00027-0.07348 0.0509-0.00044 0.0003-0.000407 0.00031-0.07297 0.0518-0.00044 0.0003-0.000407 0.00031-0.0725 0.0527-0.000439 0.0003-0.000407 0.00031-0.07195 0.0535-0.00044 0.00031-0.000406 0.00033-0.0034 0.003 0.11128 0.14604 0.0026-0.002 0.000846-0.00061 0.0703-0.0523 0.000846-0.00061 0.07077-0.0514 0.000304-0.00024 0.000542-0.00037 0.07128-0.0506 0.00088-0.00061 0.07175-0.0496 0.07307-0.0494 0.000846-0.00057 0.0727-0.0479 0.000305-0.0002 0.000575-0.00038 0.07314-0.047 0.00088-0.00057 0.0506-0.0317-0.09758-0.15558zm4.2399 0.6709a6.1207 6.1207 0 0 0 -6.1208 6.1207 6.1207 6.1207 0 0 0 6.1208 6.1212 6.1207 6.1207 0 0 0 6.1207 -6.1212 6.1207 6.1207 0 0 0 -6.1207 -6.1207zm-5.3539 0.16886-0.02065 0.0186-0.000406 0.00034-0.000373 0.00033-0.06705 0.0616-0.000406 0.00037-0.000373 0.00034-0.06644 0.0624-0.000407 0.00038-0.000372 0.00037-0.06586 0.0633-0.000372 0.00037-0.000373 0.00037-0.06525 0.0642-0.000372 0.00037-0.000372 0.00037-0.06464 0.0651-0.000372 0.00037-0.000373 0.00037-0.064 0.066-0.000372 0.00037-0.000372 0.00041-0.06336 0.0668-0.000372 0.0004-0.000372 0.00038-0.01496 0.0162 0.13467 0.12483 0.01428-0.0154 0.000711-0.00078 0.06194-0.0653 0.06326-0.0652 0.000744-0.00074 0.0639-0.0643 0.06373-0.0627 0.000744-0.00071 0.06434-0.0619 0.000236-0.0002 0.000508-0.00051 0.06492-0.061 0.000778-0.00071 0.06549-0.0602 0.000203-0.00016l0.001-0.0008 0.0198-0.0178-0.1226-0.1367zm-0.95163 1.0205-0.0175 0.0223-0.000339 0.0004-0.000304 0.00041-0.05608 0.0731-0.000339 0.00041-0.000304 0.00044-0.05513 0.0735-0.000305 0.00041-0.000305 0.00044-0.05415 0.074-0.000339 0.00044-0.000304 0.00041-0.05317 0.0745-0.000304 0.00044-0.000305 0.00044-0.05222 0.0749-0.000305 0.00044-0.000305 0.00044-0.05124 0.0754-0.000304 0.00044-0.000305 0.00044-0.05026 0.0759-0.000305 0.00044-0.000271 0.00044-0.01171 0.018 0.15423 0.0997 0.0111-0.0172 0.000271-0.00041 0.000304-0.00047 0.04911-0.0741 0.000575-0.00088 0.05009-0.0737 0.05161-0.0741 0.000609-0.00088 0.05195-0.0727 0.05351-0.0732 0.000643-0.00085 0.05381-0.0718 0.000372-0.00051 0.000271-0.00034 0.0548-0.0714 0.000643-0.00084 0.01685-0.0214-0.14435-0.11348zm8.841 0.6035a1.7927 1.7927 0 0 1 1.7927 1.7926 1.7927 1.7927 0 0 1 -1.7927 1.7927 1.7927 1.7927 0 0 1 -1.7927 -1.7927 1.7927 1.7927 0 0 1 1.7927 -1.7926zm-9.6021 0.56586-0.0049 0.009-0.000237 0.00044-0.000237 0.00047-0.04163 0.0795-0.000237 0.00044-0.000237 0.00048-0.04065 0.0798-0.000237 0.00044-0.000237 0.00047-0.03967 0.0802-0.000237 0.00048-0.000237 0.00047-0.03872 0.0805-0.000203 0.00048-0.000237 0.00047-0.03774 0.0809-0.000237 0.00047-0.000203 0.00048-0.03679 0.0812-0.000204 0.00047-0.000236 0.00048-0.03581 0.0815-0.000203 0.00047-0.000203 0.00047-0.02149 0.0504 0.16892 0.072 0.02108-0.0494 0.000068-0.00013 0.000339-0.00081 0.035-0.0796 0.000406-0.00095 0.03594-0.0793 0.000372-0.00078 0.000068-0.00017 0.03686-0.079 0.000439-0.00095 0.03781-0.0786 0.000474-0.00095 0.03875-0.0783 0.000169-0.00034 0.000305-0.00061 0.0397-0.078 0.000474-0.00095 0.04065-0.0776 0.000473-0.00092 0.0044-0.008-0.16168-0.087zm14.2 0.1282-0.16408 0.0824 0.04122 0.0821 0.000068 0.00013 0.000406 0.00082 0.03973 0.0815 0.000474 0.00095 0.03869 0.0817 0.000473 0.00098 0.03764 0.0819 0.000372 0.00082 0.000068 0.00016 0.03665 0.0822 0.000406 0.00094 0.03561 0.0824 0.035 0.0837 0.000135 0.0003 0.000271 0.00068 0.01618 0.04 0.17024-0.0689-0.01658-0.041-0.000203-0.00051-0.000204-0.00047-0.0354-0.0847-0.000203-0.00047-0.000203-0.00051-0.03645-0.0844-0.000203-0.0005-0.000237-0.00048-0.0375-0.0841-0.000203-0.00051-0.000237-0.00047-0.03855-0.0839-0.000203-0.00051-0.000237-0.00047-0.0396-0.0836-0.000237-0.00048-0.000237-0.00047-0.04065-0.0834-0.000237-0.00047-0.000237-0.00048-0.04173-0.0831zm-14.746 1.1567-0.01594 0.0492-0.000136 0.00051-0.000169 0.00047-0.0262 0.0842-0.00017 0.00051-0.000135 0.00047-0.02525 0.0844-0.000135 0.00051-0.000135 0.00047-0.02427 0.0847-0.000169 0.00051-0.000135 0.00047-0.02329 0.0849-0.000135 0.00051-0.000136 0.00048-0.02237 0.085-0.000136 0.00047-0.000101 0.00051-0.02139 0.0852-0.000135 0.00051-0.000102 0.00051-0.02044 0.0854-0.000136 0.00051-0.000101 0.00051-0.0051 0.0223 0.17908 0.0407 0.0048-0.0213 0.000237-0.00098 0.01994-0.0834 0.000034-0.0002 0.000203-0.00078 0.02092-0.0833 0.000237-0.00098 0.02183-0.0831 0.000101-0.00033 0.00017-0.00068 0.02278-0.0829 0.000034-0.00011 0.000237-0.00088 0.02373-0.0827 0.02491-0.0834h0.000034l0.02589-0.0832 0.000304-0.00098 0.0156-0.0483-0.17471-0.0565zm15.269 0.13667-0.17579 0.053 0.02366 0.0786 0.000034 0.0001 0.00027 0.00092 0.02471 0.0856 0.02342 0.0847 0.000203 0.00082 0.000067 0.0002 0.02241 0.0849 0.000271 0.001 0.02142 0.085 0.000237 0.001 0.02044 0.0851 0.000135 0.00058 0.000101 0.00044 0.01943 0.0852 0.000237 0.001 0.01428 0.0662 0.17948-0.0388-0.01452-0.0672-0.000101-0.00051-0.000102-0.0005-0.0199-0.0873-0.000135-0.0005-0.000102-0.00051-0.02092-0.0871-0.000136-0.00051-0.000101-0.00051-0.02193-0.087-0.000135-0.00051-0.000136-0.00051-0.02295-0.0869-0.000169-0.0005-0.000136-0.00051-0.024-0.0868-0.000136-0.0005-0.000135-0.00048-0.02501-0.0866-0.000169-0.0005-0.000135-0.00051-0.02396-0.0796zm-15.582 1.2234-0.01012 0.0743-0.000068 0.0005-0.000068 0.00051-0.01083 0.0868-0.000034 0.00047-0.000068 0.00051-0.0099 0.0869-0.000034 0.00048-0.000067 0.0005-0.0089 0.087-0.000034 0.00051-0.000067 0.00051-0.0079 0.087-0.000068 0.00051-0.000034 0.00051-0.007 0.0871-0.000034 0.00051-0.000033 0.00051-0.006 0.0871-0.000068 0.0005v0.00051l-0.0051 0.0872-0.000034 0.00051-0.000034 0.00051-0.000169 0.004 0.18344 0.009 0.000135-0.003 0.005-0.0862 0.000067-0.00078v-0.00023l0.0059-0.0851 0.000068-0.001 0.0068-0.0851 0.0079-0.086 0.000068-0.00081 0.000034-0.00021 0.0088-0.0859h-0.000033l0.0098-0.0859 0.01056-0.0847 0.000135-0.00099 0.01-0.0733-0.18195-0.0247zm15.873 0.14107-0.18226 0.0224 0.0049 0.04 0.0097 0.0869 0.000101 0.001 0.0086 0.0859v0.00004l0.000101 0.00098 0.0077 0.087 0.0067 0.086h-0.000034l0.0058 0.087 0.000068 0.001 0.0047 0.086 0.0039 0.087 0.000034 0.00095v0.00006l0.000981 0.0303 0.18354-0.006-0.001-0.0313v-0.00051l-0.000034-0.00051-0.0039-0.088-0.000034-0.00051-0.000034-0.00051-0.0048-0.088-0.000034-0.00051-0.000034-0.0005-0.0059-0.088-0.000034-0.0005-0.000034-0.00051-0.0068-0.088-0.000034-0.00054-0.000068-0.00051-0.0078-0.088-0.000034-0.0005-0.000068-0.00051-0.0088-0.088-0.000067-0.00051-0.000034-0.0005-0.0098-0.088-0.000034-0.00051-0.000068-0.0005-0.005-0.041zm-15.762 1.246-0.18358 0.005l0.000135 0.004v0.00051l0.000034 0.00048 0.0036 0.0872 0.000034 0.0005v0.00051l0.0045 0.0872 0.000034 0.0005 0.000034 0.00051 0.0055 0.0871 0.000034 0.00051 0.000033 0.00051 0.0064 0.087 0.000034 0.0005 0.000068 0.00051 0.0074 0.087 0.000034 0.00051 0.000068 0.0005 0.0084 0.0869 0.000034 0.00051 0.000068 0.0005 0.0093 0.0869 0.000034 0.00051 0.000068 0.00051 0.0089 0.0751 0.18236-0.0216-0.0088-0.0741-0.0092-0.0859-0.000034-0.00034-0.000068-0.00064-0.0082-0.0859-0.0073-0.086-0.0063-0.085-0.000034-0.00068-0.000034-0.00034-0.0053-0.0851-0.000068-0.001-0.0045-0.0862-0.0035-0.0852v-0.00054l-0.000034-0.00047-0.000067-0.003zm15.626 0.1385-0.0038 0.0672-0.000068 0.00095v0.00007l-0.0058 0.0854-0.000067 0.001-0.0067 0.0853-0.0077 0.0862-0.000101 0.00095v0.00007l-0.0086 0.085-0.000102 0.001-0.0096 0.0859-0.01039 0.0848-0.000136 0.00095v0.00007l-0.01134 0.0847-0.000034 0.00027-0.000101 0.00071-0.0013 0.009 0.18175 0.0264 0.0014-0.01 0.000068-0.00051 0.000068-0.00051 0.01161-0.0866 0.000067-0.00051 0.000068-0.00047 0.01066-0.0868 0.000068-0.00051 0.000068-0.00047 0.0097-0.087 0.000067-0.00051 0.000068-0.00047 0.0087-0.0871 0.000068-0.00048 0.000034-0.00051 0.0078-0.0872 0.000034-0.00051 0.000068-0.00051 0.0068-0.0873 0.000068-0.00051 0.000034-0.00051 0.0059-0.0874 0.000034-0.00051 0.000034-0.0005 0.0038-0.0683-0.18334-0.0103zm-15.461 1.2146-0.17975 0.0376 0.0043 0.0207 0.000101 0.00051 0.000102 0.00047 0.01889 0.0856 0.000136 0.00051 0.000101 0.00051 0.01983 0.0854 0.000135 0.00047 0.000102 0.00051 0.02081 0.0852 0.000101 0.00051 0.000135 0.00051 0.02176 0.085 0.000102 0.0005 0.000135 0.00051 0.02271 0.0848 0.000136 0.00047 0.000135 0.00051 0.02366 0.0847 0.000135 0.00047 0.00017 0.00051 0.0246 0.0844 0.000136 0.00051 0.000169 0.00047 0.01594 0.0525 0.17573-0.0534-0.01567-0.0516-0.000304-0.00098-0.02403-0.0824-0.02342-0.0837-0.000101-0.00034-0.000169-0.00065-0.02217-0.0829-0.000271-0.00098-0.02122-0.0831-0.02058-0.0842-0.000068-0.00023-0.000169-0.00075-0.01936-0.0834-0.000236-0.001-0.01845-0.0836-0.000203-0.00098-0.0041-0.0197zm15.271 0.13534-0.01953 0.0824-0.000102 0.00041-0.000135 0.00057-0.02078 0.0837-0.02142 0.0825-0.00027 0.00098-0.02234 0.0823-0.000101 0.00033-0.000169 0.00065-0.02356 0.083h0.000034l-0.02417 0.0818-0.000304 0.00099-0.02505 0.0815-0.000304 0.00095-0.02433 0.0762 0.17491 0.0559 0.02464-0.0772 0.000169-0.00047 0.000135-0.00047 0.02566-0.0835 0.000135-0.0005 0.00017-0.00048 0.02471-0.0837 0.000135-0.00048 0.000136-0.0005 0.02383-0.084 0.000135-0.00051 0.000136-0.00047 0.02288-0.0842 0.000169-0.0005 0.000102-0.00048 0.02197-0.0845 0.000135-0.00047 0.000102-0.00051 0.02102-0.0847 0.000135-0.00047 0.000101-0.00051 0.01973-0.0834-0.1787-0.0422zm-14.872 1.1683-0.17024 0.0689 0.01838 0.0454 0.00017 0.00047 0.000203 0.00048 0.03418 0.0818 0.000203 0.00048 0.000203 0.00047 0.03513 0.0815 0.000203 0.00047 0.000203 0.00048 0.03608 0.0812 0.000203 0.00048 0.000237 0.00047 0.03703 0.0809 0.000203 0.00047 0.000237 0.00048 0.03797 0.0805 0.000237 0.00048 0.000203 0.00047 0.03896 0.0802 0.000237 0.00048 0.000237 0.00044 0.03987 0.0798 0.000237 0.00047 0.000237 0.00047 0.0087 0.0169 0.1633-0.084-0.0082-0.0159-0.000474-0.00095-0.03896-0.0779-0.000474-0.00095-0.03804-0.0783-0.00044-0.00095-0.03709-0.0786-0.000237-0.00051-0.000203-0.00044-0.03618-0.079-0.000406-0.00092-0.03527-0.0793-0.000406-0.00094-0.03469-0.0806h-0.000034l-0.03337-0.0799-0.000372-0.00095-0.01797-0.0445zm14.451 0.12935-0.0054 0.0129-0.000304 0.00068-0.000102 0.00027-0.03391 0.0785-0.000372 0.00084-0.000034 0.00007-0.03483 0.0781-0.03611 0.0787-0.00044 0.00092-0.03655 0.0774-0.000305 0.00061-0.000135 0.00031-0.03743 0.077-0.00044 0.00091-0.03831 0.0766-0.03963 0.0772-0.000439 0.00088-0.0286 0.0542 0.16239 0.0857 0.02907-0.0551 0.000237-0.00044 0.000237-0.00044 0.04007-0.078 0.000237-0.00047 0.000237-0.00044 0.03919-0.0785 0.000237-0.00044 0.000236-0.00047 0.03831-0.0788 0.000236-0.00047 0.000204-0.00044 0.03743-0.0792 0.000203-0.00048 0.000237-0.00044 0.03652-0.0796 0.000203-0.00047 0.000203-0.00048 0.03564-0.0799 0.000203-0.00047 0.000203-0.00048 0.03476-0.0803 0.000203-0.00048 0.000203-0.00047 0.0058-0.0138-0.16936-0.071zm-13.832 1.0857-0.15613 0.0967 0.0046 0.007 0.000305 0.00044 0.000271 0.00044 0.04847 0.0763 0.000305 0.00044 0.000271 0.00044 0.04941 0.0759 0.000305 0.00044 0.000304 0.00044 0.05036 0.0754 0.000305 0.00044 0.000305 0.00044 0.05131 0.075 0.000305 0.00044 0.000305 0.00044 0.05229 0.0745 0.000304 0.00044 0.000305 0.00044 0.05324 0.074 0.000305 0.00044 0.000304 0.00041 0.05419 0.0736 0.000338 0.00044 0.000305 0.00041 0.02755 0.0365 0.14658-0.11061-0.02691-0.0357-0.000644-0.00085-0.05354-0.0727-0.05202-0.0723-0.000609-0.00088-0.05107-0.0728-0.000338-0.00047-0.000271-0.00041-0.05012-0.0732-0.000609-0.00088-0.04921-0.0737-0.000508-0.00074-0.000068-0.00014-0.04826-0.0741-0.000576-0.00088-0.04735-0.0745-0.000203-0.00031-0.000372-0.0006-0.004-0.007zm13.193 0.11826-0.02081 0.0322-0.000237 0.00034-0.000339 0.00054-0.04772 0.0719-0.000575 0.00088-0.04857 0.0714-0.000576 0.00084-0.04941 0.0709-0.000609 0.00085-0.05023 0.0704-0.000237 0.0003-0.000372 0.00054-0.05172 0.0707h0.000034l-0.05195 0.0694-0.000068 0.00007-0.000541 0.00074-0.05277 0.0689-0.000643 0.00081-0.01861 0.0237 0.14452 0.11328 0.01926-0.0245 0.000338-0.00041 0.000305-0.0004 0.05402-0.0705 0.000305-0.0004 0.000304-0.00044 0.05317-0.071 0.000304-0.00041 0.000305-0.00044 0.05232-0.0716 0.000305-0.00041 0.000304-0.00044 0.05145-0.0721 0.000271-0.00041 0.000305-0.00044 0.0506-0.0726 0.000304-0.00044 0.000271-0.0004 0.04972-0.0731 0.000304-0.00044 0.000271-0.0004 0.04887-0.0736 0.000271-0.00044 0.000304-0.0004 0.02136-0.033-0.1541-0.0998zm-12.371 0.97031-0.13714 0.12209 0.000981 0.001 0.000373 0.00037 0.000338 0.0004 0.06261 0.0687 0.000372 0.00041 0.000339 0.0004 0.06326 0.0678 0.000372 0.00037 0.000339 0.00041 0.0639 0.0669 0.000339 0.00041 0.000372 0.00037 0.06451 0.066 0.000373 0.00041 0.000372 0.00037 0.06512 0.0652 0.000372 0.00037 0.000372 0.00038 0.06573 0.0643 0.000372 0.00037 0.000406 0.00034 0.0663 0.0634 0.000406 0.00037 0.000372 0.00034 0.03127 0.0292 0.1253-0.1342-0.03046-0.0285-0.000778-0.00071-0.06478-0.0619v-0.00003l-0.06498-0.0635-0.00071-0.00071-0.000034-0.00003-0.06363-0.0637-0.000744-0.00078-0.06302-0.0645-0.000643-0.00068-0.000102-0.0001-0.06241-0.0654-0.000711-0.00078-0.0618-0.0663-0.000643-0.00071-0.000067-0.00007-0.06119-0.0671-0.000711-0.00082-0.000304-0.00034zm11.532 0.10371-0.05584 0.0593-0.000507 0.00051-0.000237 0.00027-0.06099 0.0633-0.000711 0.00074-0.0618 0.0626-0.00044 0.00044-0.000305 0.00031-0.06261 0.062-0.000745 0.00074-0.06343 0.0614-0.000406 0.0004-0.000373 0.00034-0.0642 0.0607-0.000779 0.00075-0.06505 0.0601-0.00044 0.00037-0.000338 0.00034-0.0483 0.0436 0.12313 0.13626 0.04908-0.0444 0.000406-0.00034 0.000372-0.00037 0.06661-0.0616 0.000373-0.00037 0.000372-0.00037 0.06576-0.0622 0.000372-0.00037 0.000406-0.00037 0.06492-0.0629 0.000372-0.00034 0.000372-0.00037 0.0641-0.0635 0.000372-0.00037 0.000372-0.00037 0.06329-0.0641 0.000372-0.00037 0.000373-0.00037 0.06245-0.0648 0.000338-0.00038 0.000372-0.00037 0.05659-0.0601-0.13366-0.12594zm-10.537 0.8264-0.11247 0.14516 0.06681 0.0518 0.00044 0.0003 0.000406 0.00034 0.07185 0.0544 0.000406 0.00034 0.00044 0.0003 0.07236 0.0535 0.000406 0.0003 0.00044 0.00031 0.07287 0.0526 0.000406 0.0003 0.00044 0.00031 0.07334 0.0516 0.00044 0.00031 0.000406 0.0003 0.07385 0.0507 0.00044 0.0003 0.000406 0.00031 0.07432 0.0498 0.00044 0.0003 0.00044 0.00027 0.05632 0.0369 0.10056-0.15365-0.05547-0.0363-0.000847-0.00058-0.0726-0.0487-0.000474-0.00034-0.000372-0.00024-0.07212-0.0496-0.000846-0.00058-0.07165-0.0505-0.000778-0.00058-0.000068-0.00003-0.07118-0.0513-0.000846-0.0006-0.07067-0.0522-0.000847-0.00064-0.07016-0.0531-0.000136-0.00011-0.00071-0.00054-0.066-0.0511zm9.5227 0.0854-0.05297 0.0396-0.000846 0.00065-0.07301 0.0533-0.07459 0.0532-0.00088 0.00061-0.07544 0.0525-0.07514 0.051-0.00088 0.00061-0.07554 0.05-0.07683 0.0496-0.00088 0.00058-0.05585 0.0351 0.09778 0.15541 0.05673-0.0357 0.000474-0.00027 0.00044-0.0003 0.07771-0.0502 0.000474-0.00031 0.00044-0.00027 0.0773-0.0512 0.00044-0.00031 0.00044-0.0003 0.0769-0.0522 0.00044-0.00031 0.000441-0.0003 0.07629-0.0531 0.00044-0.00031 0.00044-0.0003 0.07551-0.0539 0.000406-0.0003 0.00044-0.00031 0.0747-0.0546 0.00044-0.0003 0.000407-0.00034 0.05381-0.0403-0.11003-0.14699zm-8.3793 0.65809-0.08627 0.16209 0.0376 0.02 0.000473 0.00024 0.00044 0.00024 0.07859 0.0407 0.000473 0.00024 0.00044 0.00024 0.07896 0.0398 0.000474 0.00023 0.000473 0.00021 0.07933 0.0388 0.00044 0.00024 0.000474 0.00023 0.07971 0.0379 0.00044 0.00024 0.000474 0.0002 0.08004 0.037 0.000474 0.0002 0.000474 0.0002 0.08042 0.0361 0.00044 0.00024 0.000474 0.0002 0.08075 0.0352 0.000474 0.0002 0.000474 0.00017 0.02769 0.0117 0.07145-0.16916-0.02677-0.0113-0.00044-0.00021-0.000507-0.0002-0.07886-0.0344-0.00061-0.00027-0.000304-0.00014-0.07947-0.0357-0.07822-0.0362-0.000914-0.00044-0.07876-0.0375v0.00004l-0.07751-0.038-0.000914-0.00044-0.07713-0.0388-0.000914-0.00048-0.07764-0.0402-0.03672-0.0195zm7.2232 0.0649-0.05818 0.0295-0.000474 0.00023-0.000474 0.00024-0.07944 0.0391-0.000948 0.00047-0.07977 0.0382-0.000947 0.00044-0.08004 0.0372h-0.000034l-0.000913 0.00044-0.08133 0.0366v0.00004l-0.08062 0.0352-0.000575 0.00023-0.000373 0.00017-0.08092 0.0343-0.000948 0.00041-0.07531 0.0309 0.06965 0.16991 0.07629-0.0313 0.000474-0.0002 0.000474-0.0002 0.08285-0.0351 0.000474-0.0002 0.000474-0.00021 0.08255-0.0361 0.000474-0.0002 0.000507-0.0002 0.08225-0.0371 0.000474-0.0002 0.000474-0.00024 0.08197-0.0381 0.000474-0.00021 0.000474-0.00023 0.08167-0.0391 0.000474-0.00024 0.000474-0.00024 0.08133-0.0401 0.000474-0.00024 0.000474-0.00023 0.05913-0.03-0.08306-0.16378zm-5.9685 0.46771-0.05615 0.17481 0.06617 0.0213 0.000474 0.00017 0.000474 0.00013 0.0837 0.0259 0.000474 0.00017 0.000474 0.00014 0.08394 0.0249 0.000474 0.00017 0.000474 0.00013 0.08417 0.024 0.000473 0.00013 0.000508 0.00014 0.08438 0.0231 0.000508 0.00013 0.000473 0.00014 0.08461 0.0221 0.000474 0.00014 0.000507 0.0001 0.08482 0.0212 0.000474 0.00014 0.000508 0.00013 0.08502 0.0202 0.000508 0.00013 0.000474 0.00014 0.0085 0.002 0.04051-0.17911-0.0075-0.002-0.000981-0.00027-0.08306-0.0197-0.000305-0.0001-0.000676-0.00017-0.08289-0.0207-0.000981-0.00024-0.08265-0.0216-0.000982-0.00027-0.08241-0.0225-0.000237-0.00007-0.000745-0.0002-0.08221-0.0234-0.000982-0.00027-0.08197-0.0244-0.000947-0.00027-0.08174-0.0253-0.000102-0.00004-0.00088-0.00027-0.06519-0.021zm4.7042 0.0435-0.02975 0.009v0.00003l-0.08323 0.0245-0.000982 0.00027-0.0834 0.0236-0.000542 0.00014-0.000439 0.00013-0.08458 0.0229v0.00004l-0.08373 0.0216-0.08488 0.021-0.001 0.00023-0.08404 0.0197-0.000135 0.00004-0.00088 0.0002-0.08519 0.019-0.03767 0.008 0.03797 0.17969 0.03865-0.008 0.000507-0.0001 0.000508-0.00011 0.0862-0.0192 0.000507-0.0001 0.000508-0.00014 0.08603-0.0202 0.000508-0.0001 0.000507-0.00014 0.0859-0.0212 0.000474-0.00013 0.000508-0.0001 0.08573-0.0222 0.000508-0.0001 0.000508-0.00017 0.08556-0.0232 0.000508-0.00014 0.000473-0.00013 0.08539-0.0241 0.000508-0.00017 0.000474-0.00014 0.08522-0.0251 0.000474-0.00013 0.000507-0.00014 0.02975-0.009-0.05395-0.17552zm-3.3759 0.26332-0.02464 0.18198 0.08576 0.0116 0.000507 0.00007 0.000508 0.00007 0.08661 0.0108 0.000507 0.00003 0.000508 0.00007 0.08671 0.01 0.000508 0.00003 0.000507 0.00007 0.08681 0.009 0.000508 0.00003 0.000507 0.00003 0.08692 0.008 0.000507 0.00004 0.000508 0.00003 0.08702 0.007 0.000508 0.00007 0.000508 0.00003 0.08708 0.006 0.000508 0.00004h0.000508l0.08018 0.005 0.01056-0.1833-0.07916-0.005-0.000812-0.00007h-0.000204l-0.08505-0.006-0.001-0.00006-0.08502-0.007-0.0859-0.008-0.000812-0.00007-0.000203-0.00003-0.08583-0.009v0.00003l-0.08471-0.01-0.08563-0.0106-0.000981-0.00013-0.08478-0.0115zm2.0426 0.0193-0.0614 0.007-0.08519 0.009-0.000744 0.00007-0.000271 0.00003-0.08526 0.008-0.001 0.0001-0.08631 0.007-0.08532 0.006v-0.00003l-0.08637 0.006-0.001 0.00006-0.08539 0.004-0.08641 0.004-0.000778 0.00004h-0.000237l-0.01449 0.00044 0.0056 0.18354 0.01547-0.00047 0.000507-0.00004h0.000508l0.08742-0.004h0.000508l0.000507-0.00004 0.08742-0.005h0.000508l0.000508-0.00003 0.08739-0.006 0.000507-0.00003 0.000508-0.00004 0.08736-0.007 0.000508-0.00003 0.000507-0.00004 0.08729-0.008 0.000507-0.00003 0.000508-0.00007 0.08729-0.008 0.000507-0.00007 0.000508-0.00003 0.08722-0.009 0.000507-0.00006 0.000508-0.00007 0.0614-0.007-0.0218-0.18232z"/>
</svg>