<svg xmlns="http://www.w3.org/2000/svg" viewBox="0 0 16 16">
 <path d="m7.722 0-0.080621 0.0031816-0.0005078 0.00003466-0.0005077 0.00003466-0.087289 0.0043998-0.0004731 0.00003466-0.0005078 0.00003466-0.087221 0.0053815-0.0004748 0.00003466-0.0005078 0.00003466-0.08712 0.0063292-0.0005078 0.00003466-0.0005077 0.00003466-0.087018 0.0073105-0.0005077 0.00003466-0.0005078 0.00003466-0.086916 0.0082583-0.0005077 0.00003465-0.0005078 0.00006932-0.086815 0.009206-0.0005078 0.00003466-0.0005077 0.00006931-0.085258 0.0099846 0.021357 0.18239 0.084242-0.009883 0.00102-0.00010397 0.084818-0.009003 0.0005407-0.00003466 0.0004731-0.00006931 0.085901-0.008123 0.085021-0.007141 0.00102-0.00006931 0.085089-0.006194 0.0005406-0.00003465 0.0004748-0.00003466 0.08519-0.005246 0.00102-0.00006932 0.085224-0.004298 0.080655-0.003215l-0.0073-0.1835zm0.69848 0.0060246-0.00894 0.18341 0.015163 0.00074514 0.08651 0.005178 0.0006429 0.00003466 0.0003725 0.00003465 0.085461 0.006058 0.00102 0.00006932 0.085427 0.007006 0.00102 0.00010397 0.085393 0.007954 0.00061 0.00006932 0.0004055 0.00003466 0.085326 0.008935 0.00102 0.00010397 0.085292 0.009883 0.086239 0.010932 0.0005753 0.00006931 0.0004402 0.00006932 0.058181 0.008055 0.025182-0.18189-0.059197-0.0081907-0.0005077-0.00006931-0.0005077-0.00006932-0.087255-0.011101-0.0005077-0.00006931-0.0005077-0.00003466-0.087323-0.01012-0.0005078-0.00006931-0.0005077-0.00003466-0.087356-0.0091382-0.0005078-0.00006932-0.0005077-0.00003466-0.087424-0.0081567-0.0005077-0.00003466-0.0005077-0.00006932-0.087492-0.0071754-0.0005077-0.00003466-0.0005077-0.00003466-0.087458-0.0062275-0.0005078-0.00003466h-0.0005077l-0.087526-0.0052461-0.0005078-0.00003466-0.0005077-0.00003466-0.016178-0.00077806zm5.6985 0.080992a1.7929 1.7928 0 0 0 -1.793 1.7928 1.7929 1.7928 0 0 0 1.793 1.7929 1.7929 1.7928 0 0 0 1.793 -1.7929 1.7929 1.7928 0 0 0 -1.793 -1.7928zm-7.7817 0.082481-0.00914 0.001895-0.0005077 0.00010397-0.0004731 0.00010398-0.085326 0.018683-0.0005077 0.00010398-0.0005078 0.00013863-0.085122 0.019596-0.0004749 0.00010397-0.0005077 0.00013863-0.084919 0.020544-0.0004748 0.00010398-0.0005077 0.00013863-0.084716 0.021492-0.0004731 0.00013863-0.0005077 0.00010397-0.084479 0.02244-0.0004731 0.00013863-0.0005078 0.00013863-0.084243 0.023353-0.0005078 0.00013863-0.0004748 0.00013863-0.084005 0.024301-0.0005078 0.00013863-0.0004731 0.00013863-0.066541 0.020036 0.052935 0.17586 0.065594-0.019766 0.0009479-0.00027033 0.082077-0.02376 0.0009808-0.00027033 0.082313-0.022812 0.000104-0.00003465 0.0008803-0.00023741 0.083498-0.022135 0.082753-0.021018 0.0009808-0.0002374 0.082957-0.02007h0.0000346l0.0009479-0.0002374 0.084141-0.01936 0.083363-0.018243 0.0009808-0.00020274 0.00816-0.001693-0.037264-0.17982zm3.4649 0.030698-0.041326 0.17891 0.042104 0.009714 0.0002028 0.00006931 0.0008127 0.00017329 0.085157 0.020714 0.084006 0.02139 0.0009808 0.00027033 0.084852 0.022676 0.08367 0.023353 0.08451 0.024606 0.08431 0.025587 0.00054 0.00017329 0.000441 0.00013863 0.08411 0.026602 0.02149 0.00704 0.05734-0.17444-0.02247-0.007378-0.000508-0.00017328-0.000473-0.00017329-0.08512-0.026907-0.000508-0.00013864-0.000473-0.00017328-0.08533-0.025892-0.000473-0.00013863-0.000507-0.00017329-0.08549-0.02491-0.000508-0.00013863-0.000508-0.00013863-0.08566-0.023895-0.000508-0.00017329-0.000507-0.00013863-0.08583-0.022913-0.000508-0.00013863-0.000507-0.00010397-0.086003-0.021932-0.0005077-0.00013863-0.0004731-0.00013863-0.086172-0.020916-0.0005077-0.00013863-0.0005077-0.00010398-0.04312-0.009951zm-4.8 0.37612-0.026535 0.010627-0.0004749 0.00017329-0.0004731 0.00020274-0.081196 0.033575-0.0004402 0.00020275-0.0004731 0.00020275-0.080858 0.034488-0.0004731 0.00020275-0.0004748 0.00020275-0.080486 0.035402-0.000473 0.00020275-0.0004731 0.00020275-0.080147 0.03635-0.0004749 0.00020274-0.000473 0.00020275-0.079809 0.037264-0.0004731 0.00020275-0.0004401 0.00023741-0.079437 0.038144-0.0004731 0.0002374-0.000473 0.00020275-0.079064 0.039092-0.0004401 0.0002374-0.0004731 0.00023741-0.04092 0.020781 0.083193 0.16371 0.040006-0.020341 0.0009133-0.0004731 0.077236-0.038144 0.0008457-0.0004055 0.0000693-0.00003465 0.077609-0.037298 0.0009133-0.00044015 0.078895-0.03679v-0.00003466l0.078286-0.03547 0.0009479-0.00040549 0.078624-0.03459 0.0008127-0.00033791 0.0001386-0.00006932 0.078963-0.033676 0.0009479-0.00040549 0.079267-0.032796 0.0009479-0.00037257 0.025621-0.010255-0.068301-0.17045zm6.1265 0.055676-0.07104 0.16933 0.0028 0.001185 0.00061 0.00027033 0.000338 0.00013863 0.08103 0.035098 0.000981 0.00044015 0.08076 0.036079 0.000948 0.00044015 0.08049 0.037061 0.000237 0.00013863 0.000711 0.00030498 0.08018 0.038076 0.000947 0.00044015 0.07988 0.039058 0.000745 0.00037257 0.000203 0.00010397 0.07957 0.040039 0.000948 0.0004731 0.07927 0.041021 0.000948 0.0005078 0.04349 0.023184 0.08631-0.16212-0.04444-0.023658-0.000473-0.0002374-0.000473-0.00023741-0.08113-0.042002-0.000475-0.00027033-0.000473-0.0002374-0.08147-0.040987-0.000473-0.00023741-0.000473-0.0002374-0.08177-0.039972-0.000473-0.0002374-0.000507-0.00020275-0.08208-0.03899-0.000473-0.00020275-0.000473-0.0002374-0.08238-0.037941-0.000473-0.00023741-0.000508-0.00020275-0.08265-0.036959-0.000474-0.00020274-0.000508-0.00020275-0.08296-0.035944-0.000474-0.00020275-0.000473-0.00020275-0.0038-0.001591zm-7.3707 0.57703-0.05148 0.032289-0.0004402 0.0002703-0.0004402 0.000305-0.074901 0.048162-0.0004402 0.0002703-0.0004055 0.0002703-0.074427 0.049076-0.0004402 0.0002703-0.0004401 0.000305-0.073953 0.049956-0.0004402 0.000305-0.0004055 0.0002703-0.07348 0.05087-0.0004401 0.000305-0.0004055 0.000305-0.072972 0.05175-0.0004402 0.000305-0.0004055 0.0003049-0.072498 0.052664-0.0004401 0.000305-0.0004055 0.000305-0.071956 0.053544-0.0004402 0.000305-0.0004055 0.0003379-0.00342 0.00261 0.11129 0.14604 0.00257-0.00196 0.0008456-0.0006099 0.070298-0.052325 0.0008456-0.0006099 0.070772-0.051411 0.000305-0.0002374 0.0005407-0.0003726 0.07128-0.050565 0.0008803-0.00061 0.071753-0.049651 0.073074-0.049381 0.0008456-0.0005753 0.072701-0.047925 0.000305-0.0002028 0.0005753-0.0003726 0.073141-0.047011 0.0008804-0.0005753 0.0506-0.031713-0.097578-0.15559zm4.2401 0.6708a6.1208 6.1207 0 0 0 -6.1209 6.1208 6.1208 6.1207 0 0 0 6.1209 6.1204 6.1208 6.1207 0 0 0 6.1206 -6.1204 6.1208 6.1207 0 0 0 -6.1206 -6.1208zm-5.354 0.16885-0.020646 0.018547-0.0004055 0.000338-0.0003726 0.0003379-0.067049 0.061565-0.0004055 0.0003725-0.0003726 0.0003379-0.066439 0.062445-0.0004055 0.0003726-0.0003726 0.0003725-0.065864 0.063291-0.0003726 0.0003726-0.0003726 0.0003726-0.065255 0.064205-0.0003725 0.0003726-0.0003726 0.0003725-0.064646 0.065085-0.0003726 0.0003726-0.0003725 0.0003726-0.064003 0.065965-0.0003726 0.0003726-0.0003726 0.0004055-0.06336 0.066811-0.0003726 0.0004055-0.0003726 0.0003726-0.01496 0.016178 0.13467 0.12482 0.014283-0.0154 0.0007105-0.0007781 0.061938-0.065288 0.063258-0.06522 0.0007451-0.0007452 0.063901-0.06434 0.063732-0.062716 0.0007452-0.0007105 0.064341-0.061869 0.0002374-0.0002028 0.0005077-0.0005077 0.064916-0.060989 0.0007781-0.0007105 0.065492-0.060143 0.0002028-0.0001733 0.0005753-0.0005407l0.0203-0.018-0.1227-0.1367zm-0.95165 1.0205-0.017498 0.02227-0.0003379 0.0004055-0.000305 0.0004055-0.056083 0.073072-0.0003379 0.0004055-0.000305 0.0004402-0.055135 0.073546-0.000305 0.0004055-0.000305 0.0004402-0.054153 0.07402-0.0003385 0.0004401-0.0003046 0.0004055-0.053172 0.074494-0.0003047 0.0004401-0.0003046 0.0004402-0.052224 0.074934-0.0003046 0.0004402-0.0003047 0.0004402-0.051243 0.075408-0.0003047 0.0004401-0.0003046 0.0004402-0.050261 0.075848-0.0003046 0.0004402-0.0002709 0.0004402-0.011711 0.01804 0.15424 0.099743 0.011102-0.017193 0.0002707-0.0004055 0.0003046-0.0004731 0.049111-0.074088 0.0005753-0.0008803 0.050092-0.073648 0.051615-0.074088 0.0006099-0.0008803 0.051954-0.072734 0.053511-0.073174 0.0006429-0.0008456 0.053815-0.071854 0.0003726-0.0005077 0.0002703-0.000338 0.054797-0.07138 0.0006429-0.0008456 0.016855-0.021424l-0.1446-0.1128zm8.8412 0.6036a1.7927 1.7927 0 0 1 1.792 1.7927 1.7927 1.7927 0 0 1 -1.792 1.7927 1.7927 1.7927 0 0 1 -1.7929 -1.7927 1.7927 1.7927 0 0 1 1.7929 -1.7927zm-9.6022 0.56586-0.004942 0.00917-0.00023689 0.0004401-0.00023689 0.0004748-0.04163 0.079469-0.00023689 0.0004401-0.00023689 0.0004731-0.040649 0.079841-0.00023689 0.0004401-0.00023689 0.0004748-0.039668 0.08018-0.00023689 0.0004731-0.00023689 0.0004731-0.03872 0.080484-0.0002031 0.0004731-0.00023689 0.0004748-0.037738 0.080857-0.00023689 0.0004748-0.0002031 0.0004731-0.03679 0.081161-0.00020309 0.0004748-0.00023689 0.0004731-0.035809 0.0815-0.0002031 0.0004748-0.00020309 0.0004731-0.021492 0.050396 0.16893 0.071989 0.021086-0.049414 0.00006758-0.0001386 0.00033844-0.0008127 0.034997-0.079604 0.00040619-0.0009479 0.035944-0.079266 0.00037223-0.0007781 0.00006759-0.0001732 0.036858-0.078961 0.00043998-0.0009479 0.037806-0.078623 0.00047378-0.0009479 0.038754-0.078284 0.0001698-0.0003379 0.0003046-0.0006082 0.039701-0.077946 0.0004738-0.0009479 0.040649-0.077608 0.0004738-0.0009133 0.00443-0.00826-0.16168-0.087017zm14.2 0.12821-0.16408 0.082414 0.04122 0.082109 0.000069 0.0001387 0.000406 0.0008127 0.03974 0.081466 0.000473 0.0009479 0.03869 0.081703 0.000473 0.0009808 0.03764 0.08194 0.000372 0.0008127 0.000069 0.0001733 0.03665 0.08221 0.000406 0.0009479 0.03561 0.082448 0.035 0.083666 0.000138 0.000305 0.000271 0.0006776 0.01618 0.040039 0.17024-0.06891-0.01658-0.040987-0.000203-0.0005078-0.000203-0.000473-0.0354-0.084648-0.000203-0.0004731-0.000202-0.0005077-0.03645-0.084377-0.000203-0.0005077-0.000238-0.0004731-0.0375-0.08414-0.000203-0.0005077-0.000237-0.0004731-0.03855-0.083869-0.000202-0.0005078-0.000238-0.000473-0.0396-0.083632-0.000237-0.0004731-0.000237-0.000473-0.04065-0.083361-0.000237-0.0004731l-0.001-0.0002-0.041-0.083zm-14.746 1.1567-0.01594 0.0492l-0.00013516 0.0005077-0.00016983 0.0004731-0.026197 0.084208-0.00016982 0.0005077-0.00013517 0.0004748-0.025249 0.08441-0.00013517 0.0005077-0.00013516 0.0004731-0.024268 0.084647-0.00016983 0.0005078-0.00013517 0.0004748-0.023286 0.08485-0.00013516 0.0005078-0.00013517 0.000473-0.022372 0.085054-0.00013517 0.0004731-0.00010224 0.0005078-0.021391 0.085223-0.00013516 0.0005077-0.00010224 0.0005078-0.020443 0.085392-0.00013517 0.0005077-0.00010224 0.0005077-0.005077 0.022304 0.17908 0.040716 0.00484-0.021323 0.00023688-0.0009808 0.019935-0.083429 0.00003466-0.0002028 0.0002031-0.000778 0.020917-0.08326 0.00023689-0.0009808 0.021831-0.083057 0.00010224-0.0003379 0.00016983-0.0006775 0.022778-0.082854 0.00003466-0.0001039 0.00023689-0.0008804 0.023726-0.082684 0.024911-0.083429h0.00003466l0.025892-0.083192 0.00030465-0.0009808 0.015603-0.048264-0.17471-0.056522zm15.269 0.13667-0.1758 0.052968 0.02366 0.078555 0.000034 0.000104 0.000271 0.0009132 0.02471 0.085561 0.02342 0.084715 0.000203 0.0008127 0.000069 0.0002028 0.02241 0.08485 0.00027 0.00102 0.02143 0.084952 0.000237 0.00102 0.02044 0.085088 0.000139 0.0005753 0.000104 0.0004401 0.01943 0.085223 0.000238 0.00102 0.01428 0.066168 0.17948-0.038787-0.01452-0.067183-0.000104-0.0005078-0.000104-0.0005077-0.0199-0.087254-0.000139-0.0005078-0.000104-0.0005077-0.02092-0.087118-0.000138-0.0005077-0.000104-0.0005078-0.02193-0.087016-0.000138-0.0005078-0.000139-0.0005077-0.02295-0.086847-0.000174-0.0005078-0.000138-0.0005077-0.024-0.086746-0.000139-0.0005077-0.000138-0.0004731-0.02501-0.086577-0.000174-0.0005077-0.000138-0.0005077-0.02396-0.079571zm-15.582 1.2234-0.01012 0.074325-0.00006759 0.0005077-0.00006758 0.0005078-0.010831 0.08678-0.00003466 0.0004749-0.00006759 0.0005077-0.009883 0.086881-0.00003466 0.0004731-0.00006759 0.0005077-0.0089015 0.086949-0.00003466 0.0005077-0.00006758 0.0005077-0.0079199 0.086983-0.00006758 0.0005077-0.00003466 0.0005078-0.0069723 0.087084-0.00003466 0.0005077-0.00003466 0.0005078-0.0060246 0.087118-0.00006758 0.0005077v0.0005077l-0.0050769 0.087152-0.00003466 0.0005078-0.00003466 0.0005077-0.00016982 0.00396 0.18345 0.00863 0.00013516-0.00294 0.004975-0.08617 0.00006758-0.0007781v-0.0002374l0.005889-0.085088 0.00006759-0.00102 0.006837-0.085054 0.007852-0.086001 0.00006759-0.0008128 0.00003465-0.0002027 0.0088-0.085934h-0.00003466l0.009781-0.085866 0.01056-0.084749 0.00013517-0.0009808 0.009985-0.073343-0.18196-0.024741zm15.873 0.14107-0.18226 0.022406 0.0049 0.039971 0.0097 0.086949 0.000104 0.00102 0.0086 0.085934v0.0000346l0.000103 0.0009808 0.0077 0.086983 0.0067 0.085967h-0.000035l0.0058 0.086983 0.000069 0.00102 0.0047 0.085967 0.0039 0.086983 0.000035 0.0009479v0.0000693l0.00098 0.030258 0.18355-0.00602-0.001-0.031307v-0.0005077l-0.000035-0.0005078-0.0039-0.087998-0.000035-0.0005077-0.000035-0.0005078-0.0048-0.087998-0.000034-0.0005078-0.000035-0.0005077-0.0059-0.088032-0.000035-0.0005078-0.000035-0.0005077-0.0068-0.087998-0.000034-0.0005407-0.00007-0.0005077-0.0078-0.087998-0.000035-0.0005077-0.000069-0.0005077-0.0088-0.087998-0.000069-0.0005077-0.000035-0.0005078-0.0098-0.087964-0.000035-0.0005078-0.000069-0.0005077-0.005-0.040987zm-12.101 0.020476h0.51233v3.5642h1.9831v0.4517l0.0001039 0.00007h-2.4956v-4.016zm7.1748 1.0466c0.71063 0 1.0852 0.27544 1.0852 0.78775v1.6085c0 0.14323 0.08813 0.22585 0.24789 0.22585 0.02754 0 0.04959 0.000018 0.09917-0.011v0.34705c-0.14874 0.03856-0.22034 0.04958-0.31399 0.04958-0.22587 0-0.4242-0.15973-0.47378-0.38008-0.2534 0.26993-0.61146 0.42415-0.98055 0.42415-0.58394 0-0.94752-0.30849-0.94752-0.83182 0-0.35257 0.17076-0.61148 0.50681-0.7492 0.17627-0.07162 0.27543-0.093636 0.92548-0.17627 0.36359-0.044067 0.47926-0.1267 0.47926-0.3195v-0.1212c0-0.27544-0.23137-0.4297-0.64453-0.4297-0.42969 0-0.63903 0.15976-0.6776 0.51232h-0.46274c0.027-0.6665 0.4567-0.9364 1.1567-0.9364zm-4.2233 0.082549h0.45722v1.9998c0 0.34704 0.23136 0.56742 0.59494 0.56742 0.47927 0 0.78776-0.38561 0.78776-0.97505v-1.5921h0.45722v2.8866h-0.41312v-0.44622c-0.26994 0.3801-0.53989 0.52884-0.96407 0.52884-0.56191 0-0.91997-0.30849-0.91997-0.78775v-2.1815zm-6.6131 0.0965-0.18358 0.0055l0.00013517 0.00376v0.0005077l0.000034658 0.0004731 0.0035538 0.08722 0.00003466 0.0005078v0.0005077l0.0045354 0.087186 0.00003466 0.0005077 0.00003465 0.0005077 0.0054831 0.087118 0.00003466 0.0005077 0.00003466 0.0005078 0.0064307 0.087051 0.00003466 0.0005077 0.00006758 0.0005078 0.0073784 0.087017 0.00003466 0.0005077 0.00006759 0.0005078 0.0083599 0.086915 0.00003466 0.0005077 0.00006758 0.0005077 0.0093076 0.086848 0.00003466 0.0005077 0.00006758 0.0005077 0.0089015 0.075103 0.18236-0.021593-0.008766-0.074088-0.00924-0.085866-0.00003466-0.0003379-0.00006758-0.0006429-0.008225-0.085933-0.007311-0.086035-0.006295-0.085054-0.00003465-0.0006776-0.00003466-0.0003379-0.005348-0.085087-0.00006758-0.00102-0.004468-0.08617-0.003486-0.085189v-0.0005407l-0.00003466-0.000473-0.00006758-0.00274zm15.627 0.1385-0.0038 0.067251-0.000069 0.0009479v0.0000693l-0.0058 0.085392-0.000069 0.00102-0.0067 0.085257-0.0077 0.086171-0.000104 0.0009479v0.0000693l-0.0086 0.08502-0.000104 0.00102-0.0096 0.0859-0.01039 0.084783-0.000138 0.0009479v0.0000693l-0.01134 0.084647-0.000035 0.0002703-0.000104 0.0007105-0.0013 0.00863 0.18175 0.0264 0.0014-0.00961 0.00007-0.0005078 0.000069-0.0005077 0.01161-0.086644 0.00007-0.0005077 0.000069-0.0004731 0.01066-0.086814 0.00007-0.0005077 0.000069-0.0004731 0.0097-0.086949 0.000069-0.0005077 0.00007-0.0004731 0.0087-0.087084 0.000069-0.0004731 0.000035-0.0005077 0.0078-0.087186 0.000035-0.0005077 0.000069-0.0005078 0.0068-0.087287 0.00007-0.0005077 0.000034-0.0005077 0.0059-0.087389 0.000034-0.0005077 0.000035-0.0005078 0.0038-0.068266-0.18334-0.010289zm-15.462 1.2147-0.17976 0.0376l0.004332 0.02068 0.00010224 0.0005078 0.00010224 0.000473 0.018886 0.085595 0.00013517 0.0005077 0.00010224 0.0005078 0.019834 0.085426 0.00013517 0.0004749 0.00010224 0.0005077 0.020815 0.085223 0.00010224 0.0005078 0.00013517 0.0005077 0.021763 0.085019 0.00010224 0.000508 0.00013517 0.000508 0.022711 0.08485 0.00013516 0.000474 0.00013517 0.000507 0.023658 0.08465 0.00013517 0.000473 0.00016982 0.000507 0.024606 0.08441 0.00013516 0.000508 0.00016983 0.000475 0.015941 0.05253 0.17573-0.05337-0.015671-0.05155-0.00030465-0.000981-0.024031-0.08245-0.023421-0.08367-0.00010224-0.000338-0.00016982-0.000643-0.022169-0.082888-0.00027085-0.0009808-0.021221-0.083091-0.020578-0.084241-0.00006758-0.0002374-0.00016983-0.0007451-0.01936-0.083429-0.00023689-0.00102-0.018446-0.083598-0.0002031-0.0009808-0.004129-0.019732zm11.299 0.0102c-0.15425 0.071615-0.2534 0.09368-0.73818 0.15978-0.49029 0.071603-0.69411 0.20382-0.69411 0.5068 0 0.31401 0.20932 0.4407 0.56739 0.4407 0.44622 0 0.8649-0.26443 0.8649-0.67758v-0.4297zm3.9725 0.12509-0.01953 0.082448-0.000104 0.0004055-0.000139 0.0005753-0.02078 0.083734-0.02143 0.082549-0.00027 0.00098-0.02234 0.08228-0.000104 0.000338-0.000174 0.000643-0.02356 0.08302h0.000034l-0.02417 0.0818-0.000305 0.000981-0.02505 0.08153-0.000305 0.000948-0.02433 0.07622 0.17492 0.05588 0.02464-0.0772 0.000174-0.000473 0.000138-0.000473 0.02566-0.08346 0.000139-0.000508 0.000173-0.000473 0.02471-0.08373 0.000138-0.000474 0.000139-0.000508 0.02383-0.08397 0.000138-0.000508 0.000139-0.000474 0.02288-0.08424 0.000173-0.000507 0.000104-0.000475 0.02197-0.084512 0.000139-0.0004731 0.000104-0.0005077 0.02102-0.084715 0.000139-0.000473 0.000104-0.0005078 0.01973-0.083429-0.17871-0.042239zm-14.873 1.1683-0.17025 0.06888 0.018378 0.04542 0.00016983 0.000473 0.00020309 0.000474 0.034184 0.0818 0.00020309 0.000473 0.0002031 0.000475 0.035132 0.0815 0.00020309 0.000475 0.0002031 0.000473 0.03608 0.0812 0.0002031 0.000473 0.00023689 0.000473 0.037028 0.08086 0.0002031 0.000473 0.00023689 0.000475 0.037975 0.08052 0.00023689 0.000473 0.0002031 0.000473 0.038957 0.08018 0.00023689 0.000475 0.00023689 0.00044 0.03987 0.07984 0.00023689 0.000473 0.00023688 0.000475 0.008698 0.01689 0.16331-0.08397-0.00819-0.01594-0.0004738-0.000948-0.038957-0.07795-0.00047378-0.000948-0.038043-0.07832-0.00043999-0.000948-0.037095-0.07862-0.00023689-0.000508-0.0002031-0.00044-0.036181-0.079-0.00040619-0.000913-0.035268-0.0793-0.0004062-0.000948-0.034692-0.08055h-0.00003466l-0.033372-0.07991-0.00037223-0.000948-0.017972-0.04447zm14.451 0.12936-0.0054 0.01286-0.000305 0.000678-0.000104 0.00027-0.03391 0.07845-0.000372 0.000845-0.000035 0.00007-0.03483 0.07812-0.03611 0.07869-0.00044 0.000913-0.03655 0.0774-0.000305 0.00061-0.000138 0.000305-0.03743 0.077-0.00044 0.000913-0.03831 0.07663-0.03963 0.07717-0.00044 0.00088-0.0286 0.05415 0.16239 0.08573 0.02907-0.05507 0.000238-0.00044 0.000237-0.00044 0.04007-0.07805 0.000237-0.000473 0.000238-0.000441 0.03919-0.07845 0.000238-0.00044 0.000237-0.000475 0.03831-0.07883 0.000237-0.000473 0.000203-0.00044 0.03743-0.07923 0.000203-0.000473 0.000238-0.00044 0.03652-0.0796 0.000203-0.000474 0.000203-0.000474 0.03564-0.07994 0.000202-0.000473 0.000203-0.000473 0.03476-0.08032 0.000203-0.000473 0.000202-0.000473 0.0058-0.01381-0.16936-0.07101zm-13.832 1.0857-0.15613 0.0967 0.0046 0.0074 0.0003047 0.00044 0.0002708 0.00044 0.048467 0.07629 0.0003047 0.000441 0.0002708 0.00044 0.049415 0.07588 0.0003047 0.00044 0.0003046 0.000441 0.050363 0.07541 0.0003046 0.00044 0.0003047 0.00044 0.05131 0.07497 0.0003047 0.00044 0.0003046 0.000441 0.052292 0.07449 0.0003047 0.000441 0.0003046 0.00044 0.05324 0.07402 0.0003046 0.00044 0.0003047 0.000405 0.054187 0.07358 0.0003379 0.00044 0.000305 0.000406 0.027551 0.03652 0.14659-0.11061-0.026907-0.03567-0.0006429-0.000845-0.053544-0.07273-0.052021-0.07229-0.00061-0.00088-0.051074-0.07277-0.0003379-0.000475-0.0002704-0.000406-0.050126-0.07321-0.0006093-0.000881-0.049212-0.07368-0.0005078-0.000745-0.0000676-0.000139-0.048264-0.07409-0.0005753-0.00088-0.047351-0.07453-0.0002031-0.000305-0.0003722-0.00061-0.00403-0.0065zm13.193 0.11826-0.02082 0.03215-0.000238 0.000338-0.000338 0.000541-0.04772 0.07185-0.000576 0.00088-0.04857 0.07138-0.000575 0.000846-0.04941 0.07094-0.00061 0.000845-0.05023 0.0704-0.000238 0.000305-0.000372 0.000541-0.05172 0.07074h0.000035l-0.05195 0.06942-0.000069 0.000069-0.000541 0.000745-0.05277 0.06891-0.000643 0.000813-0.01862 0.02373 0.14452 0.11328 0.01926-0.02454 0.000338-0.000406 0.000305-0.000405 0.05402-0.07053 0.000305-0.000406 0.000305-0.00044 0.05317-0.07104 0.000305-0.000405 0.000305-0.00044 0.05232-0.07158 0.000305-0.000406 0.000305-0.00044 0.05145-0.07209 0.000271-0.000405 0.000305-0.00044 0.0506-0.0726 0.000305-0.00044 0.000271-0.000406 0.04972-0.07311 0.000305-0.00044 0.000271-0.000405 0.04887-0.07361 0.00027-0.00044 0.000305-0.000406 0.02136-0.03303-0.1541-0.09984zm-12.372 0.97032-0.13714 0.12208 0.0009808 0.0012 0.0003726 0.000373 0.0003379 0.000405 0.062615 0.06871 0.0003726 0.000406 0.0003379 0.000405 0.063258 0.06783 0.0003726 0.000372 0.0003379 0.000406 0.063901 0.06691 0.0003379 0.000406 0.0003726 0.000372 0.06451 0.06603 0.0003726 0.000405 0.0003726 0.000373 0.06512 0.06515 0.0003725 0.000373 0.0003726 0.000373 0.065729 0.06427 0.0003725 0.000372 0.0004055 0.000338 0.066304 0.06339 0.0004055 0.000372 0.0003726 0.000338 0.031274 0.02918 0.1253-0.1342-0.030461-0.02846-0.0007781-0.000711-0.064781-0.0619v-0.000035l-0.064984-0.06349-0.0007105-0.00071-0.0000346-0.000035-0.06363-0.06366-0.0007452-0.000778-0.063021-0.06451-0.000643-0.000678-0.0001039-0.000104-0.062412-0.06539-0.0007105-0.000778-0.061803-0.06627-0.000643-0.00071-0.0000693-0.00007-0.061193-0.06715-0.0007105-0.000813-0.000305-0.000338zm11.533 0.1037-0.05585 0.0593-0.000508 0.000507-0.000237 0.000271-0.06099 0.06326-0.00071 0.000745-0.0618 0.06265-0.00044 0.00044-0.000305 0.000305-0.06262 0.06204-0.000745 0.000745-0.06343 0.0614-0.000405 0.000405-0.000373 0.000338-0.06421 0.06075-0.000778 0.000745-0.06505 0.06014-0.00044 0.000373-0.000338 0.000338-0.0483 0.04363 0.12313 0.13626 0.04908-0.04437 0.000405-0.000338 0.000373-0.000373 0.06661-0.06156 0.000372-0.000372 0.000373-0.000373 0.06576-0.06221 0.000372-0.000372 0.000406-0.000373 0.06492-0.06288 0.000373-0.000337 0.000372-0.000373 0.0641-0.06353 0.000373-0.000373 0.000373-0.000372 0.06329-0.06414 0.000373-0.000373 0.000373-0.000372 0.06245-0.06478 0.000338-0.000372 0.000373-0.000373 0.05659-0.06007-0.13366-0.12594zm-10.537 0.8264-0.11247 0.14516 0.066812 0.05178 0.0004402 0.000305 0.0004055 0.000338 0.071855 0.05436 0.0004055 0.000338 0.0004402 0.000305 0.072363 0.05348 0.0004055 0.000305 0.0004402 0.000305 0.07287 0.05256 0.0004055 0.000305 0.0004402 0.000305 0.073344 0.05165 0.0004402 0.000305 0.0004055 0.000305 0.073852 0.05073 0.0004401 0.000305 0.0004055 0.000305 0.074326 0.04982 0.0004401 0.000305 0.0004402 0.00027 0.05632 0.03689 0.10056-0.15366-0.055474-0.03632-0.0008457-0.000575-0.0726-0.04867-0.0004731-0.000338-0.0003726-0.000237-0.072126-0.04958-0.0008457-0.000575-0.071652-0.05046-0.0007781-0.000575-0.0000693-0.000035-0.071178-0.05134-0.0008457-0.00061-0.07067-0.05222-0.0008457-0.000643-0.070163-0.0531-0.0001386-0.000104-0.0007105-0.000541-0.066-0.05114zm9.5228 0.08536-0.05297 0.03963-0.000846 0.000643-0.07301 0.05331-0.0746 0.05324-0.00088 0.00061-0.07544 0.05246-0.07514 0.051-0.00088 0.00061-0.07554 0.04999-0.07683 0.04962-0.00088 0.000575-0.05585 0.0351 0.09778 0.15542 0.05673-0.03567 0.000473-0.00027 0.00044-0.000305 0.07771-0.05016 0.000473-0.000305 0.00044-0.00027 0.0773-0.05117 0.000441-0.000305 0.00044-0.000305 0.0769-0.05219 0.00044-0.000305 0.00044-0.000305 0.07629-0.05307 0.00044-0.000305 0.00044-0.000305 0.07551-0.05385 0.000406-0.000305 0.00044-0.000305 0.0747-0.05459 0.00044-0.000305 0.000406-0.000338 0.05382-0.04028-0.11003-0.14699zm-8.3794 0.65809-0.086273 0.16209 0.037603 0.02004 0.0004731 0.000237 0.0004401 0.000238 0.07859 0.04072 0.0004731 0.000237 0.0004401 0.000238 0.078963 0.03977 0.0004748 0.000238 0.0004731 0.000202 0.079335 0.03885 0.0004402 0.000237 0.0004748 0.000238 0.079707 0.03791 0.0004402 0.000237 0.0004731 0.000203 0.080046 0.03703 0.0004731 0.000202 0.0004731 0.000203 0.080418 0.03608 0.0004402 0.000238 0.0004731 0.000203 0.080756 0.03516 0.0004731 0.000203 0.000473 0.000173 0.027686 0.01171 0.071449-0.16916-0.026772-0.01131-0.0004402-0.000202-0.0005077-0.000203-0.078861-0.03435-0.00061-0.00027-0.000305-0.000139-0.07947-0.03567-0.078218-0.03615-0.0009133-0.00044-0.07876-0.0375v0.000035l-0.077507-0.03798-0.0009133-0.00044-0.077135-0.03885-0.0009133-0.000473-0.077643-0.04024-0.036723-0.01953zm7.2233 0.06488-0.05818 0.02951-0.000475 0.000237-0.000473 0.000237-0.07944 0.03913-0.000948 0.000475-0.07977 0.03818-0.000948 0.00044-0.08005 0.0372h-0.000034l-0.000914 0.00044-0.08133 0.03662v0.000035l-0.08062 0.0352-0.000575 0.000238-0.000373 0.000173-0.08093 0.03425-0.000948 0.000405-0.07531 0.0309 0.06965 0.1699 0.07629-0.03127 0.000473-0.000203 0.000473-0.000203 0.08286-0.0351 0.000473-0.000203 0.000473-0.000203 0.08255-0.03608 0.000473-0.000203 0.000507-0.000203 0.08225-0.03709 0.000473-0.000203 0.000475-0.000237 0.08197-0.03808 0.000473-0.000203 0.000473-0.000238 0.08167-0.03906 0.000475-0.000238 0.000473-0.000237 0.08133-0.04007 0.000473-0.000238 0.000475-0.000237 0.05913-0.02999-0.08306-0.16378zm-5.9686 0.46771-0.05615 0.17481 0.066169 0.02125 0.0004749 0.000173 0.000473 0.000139 0.083701 0.02586 0.0004731 0.000173 0.0004748 0.000139 0.083938 0.02491 0.0004731 0.000174 0.0004748 0.000138 0.084175 0.024 0.0004731 0.000138 0.0005077 0.000139 0.084378 0.02305 0.0005078 0.000138 0.0004731 0.000139 0.084615 0.0221 0.0004748 0.000139 0.0005078 0.000104 0.084818 0.02115 0.0004748 0.000139 0.0005077 0.000138 0.085021 0.02021 0.0005077 0.000138 0.0004748 0.000139 0.00853 0.0019 0.040514-0.17911-0.00751-0.0017-0.0009808-0.00027-0.083058-0.01973-0.000305-0.000104-0.0006775-0.000173-0.082889-0.02068-0.0009808-0.000237-0.082652-0.02159-0.0009808-0.00027-0.082415-0.02251-0.0002374-0.00007-0.0007452-0.000203-0.082212-0.02342-0.0009808-0.00027-0.081975-0.02437-0.0009479-0.00027-0.081738-0.02528-0.000104-0.000034-0.0008803-0.000271-0.065187-0.02095zm4.7043 0.04352-0.02975 0.0092v0.000035l-0.08323 0.02454-0.000981 0.000271-0.0834 0.02359-0.000541 0.000138-0.00044 0.000139-0.08458 0.02288v0.000034l-0.083735 0.02163-0.084886 0.02095-0.00102 0.000237-0.084039 0.01973-0.0001387 0.000035-0.0008803 0.000203-0.08519 0.01899-0.037671 0.008 0.037975 0.17968 0.038652-0.0082 0.0005078-0.000104 0.0005077-0.000104 0.086206-0.01922 0.0005078-0.000104 0.0005077-0.000138 0.086036-0.02021 0.0005077-0.000104 0.0005078-0.000139 0.085901-0.02119 0.0004731-0.000139 0.0005078-0.000104 0.085732-0.0222 0.000507-0.000104 0.000508-0.000173 0.08556-0.02318 0.000508-0.000138 0.000473-0.000139 0.08539-0.02413 0.000508-0.000173 0.000473-0.000139 0.08522-0.02515 0.000475-0.000139 0.000507-0.000138 0.02975-0.0092-0.05395-0.17552zm-3.376 0.26332-0.02464 0.18199 0.085766 0.01161 0.0005077 0.00007 0.0005077 0.000069 0.086612 0.01076 0.0005077 0.000034 0.0005078 0.00007 0.086713 0.0098 0.0005078 0.000035 0.0005077 0.000069 0.086815 0.0089 0.0005077 0.000035 0.0005077 0.000035 0.086917 0.0079 0.0005078 0.000035 0.0005077 0.000035 0.087018 0.0069 0.0005077 0.000069 0.0005078 0.000035 0.087086 0.006 0.0005077 0.000034h0.0005077l0.080181 0.0046 0.01056-0.18331-0.079166-0.0046-0.0008128-0.000069h-0.0002027l-0.085055-0.0059-0.00102-0.000069-0.085021-0.0068-0.085901-0.0078-0.0008127-0.00007-0.0002028-0.000034-0.085833-0.0088v0.000035l-0.084716-0.0096-0.08563-0.01063-0.0009808-0.000139-0.084784-0.01147zm2.0426 0.01929-0.061397 0.0073-0.08519 0.0092-0.0007452 0.00007-0.0002703 0.000034-0.085258 0.0083-0.00102 0.000104-0.086307 0.0074-0.085326 0.0064v-0.000035l-0.086375 0.0055-0.00102 0.000069-0.085393 0.0045-0.086409 0.0036-0.0007781 0.000035h-0.0002374l-0.014486 0.00044 0.00562 0.18354 0.015468-0.000475 0.0005077-0.000034h0.0005078l0.087424-0.0037h0.0005078l0.0005077-0.000034 0.087424-0.0046h0.0005078l0.0005077-0.000034 0.08739-0.0056 0.0005077-0.000034 0.0005078-0.000035 0.087356-0.0065 0.0005077-0.000035 0.0005078-0.000034 0.087289-0.0075 0.0005077-0.000035 0.0005077-0.000069 0.087289-0.0085 0.0005077-0.00007 0.0005077-0.000034 0.087221-0.0094 0.0005077-0.00007 0.0005078-0.000069 0.061396-0.0073-0.021797-0.18233z"/>
</svg>