<?xml version="1.0" encoding="UTF-8" standalone="no"?>
<svg
   xmlns:dc="http://purl.org/dc/elements/1.1/"
   xmlns:cc="http://creativecommons.org/ns#"
   xmlns:rdf="http://www.w3.org/1999/02/22-rdf-syntax-ns#"
   xmlns:svg="http://www.w3.org/2000/svg"
   xmlns="http://www.w3.org/2000/svg"
   xmlns:sodipodi="http://sodipodi.sourceforge.net/DTD/sodipodi-0.dtd"
   xmlns:inkscape="http://www.inkscape.org/namespaces/inkscape"
   height="16"
   width="16"
   version="1.1"
   viewBox="0 0 16 16"
   id="svg2"
   inkscape:version="0.91 r13725"
   sodipodi:docname="lua.svg">
  <metadata
     id="metadata26">
    <rdf:RDF>
      <cc:Work
         rdf:about="">
        <dc:format>image/svg+xml</dc:format>
        <dc:type
           rdf:resource="http://purl.org/dc/dcmitype/StillImage" />
        <dc:title>Lua programming language logo</dc:title>
      </cc:Work>
    </rdf:RDF>
  </metadata>
  <defs
     id="defs24" />
  <sodipodi:namedview
     pagecolor="#ffffff"
     bordercolor="#666666"
     borderopacity="1"
     objecttolerance="10"
     gridtolerance="10"
     guidetolerance="10"
     inkscape:pageopacity="0"
     inkscape:pageshadow="2"
     inkscape:window-width="1366"
     inkscape:window-height="705"
     id="namedview22"
     showgrid="false"
     inkscape:zoom="0.25186766"
     inkscape:cx="287.84958"
     inkscape:cy="468.5"
     inkscape:window-x="-8"
     inkscape:window-y="-8"
     inkscape:window-maximized="1"
     inkscape:current-layer="svg2" />
  <title
     id="title4">Lua programming language logo</title>
  <path
     style="color:#000000;font-style:normal;font-variant:normal;font-weight:normal;font-stretch:normal;font-size:medium;line-height:normal;font-family:sans-serif;text-indent:0;text-align:start;text-decoration:none;text-decoration-line:none;text-decoration-style:solid;text-decoration-color:#000000;letter-spacing:normal;word-spacing:normal;text-transform:none;direction:ltr;block-progression:tb;writing-mode:lr-tb;baseline-shift:baseline;text-anchor:start;white-space:normal;clip-rule:nonzero;display:inline;overflow:visible;visibility:visible;opacity:1;isolation:auto;mix-blend-mode:normal;color-interpolation:sRGB;color-interpolation-filters:linearRGB;solid-color:#000000;solid-opacity:1;fill:#000000;fill-opacity:1;fill-rule:nonzero;stroke:none;stroke-width:10.59700012;stroke-linecap:butt;stroke-linejoin:miter;stroke-miterlimit:4;stroke-dasharray:39.8522;stroke-dashoffset:0;stroke-opacity:1;color-rendering:auto;image-rendering:auto;shape-rendering:auto;text-rendering:auto;enable-background:accumulate"
     d="m 7.7219527,0 -0.080621,0.00318158 -5.078e-4,3.466e-5 -5.077e-4,3.466e-5 -0.087289,0.00439979 -4.731e-4,3.466e-5 -5.078e-4,3.466e-5 -0.087221,0.00538148 -4.748e-4,3.466e-5 -5.078e-4,3.466e-5 -0.08712,0.0063292 -5.078e-4,3.466e-5 -5.077e-4,3.466e-5 -0.087018,0.0073105 -5.077e-4,3.466e-5 -5.078e-4,3.466e-5 -0.086916,0.0082583 -5.077e-4,3.465e-5 -5.078e-4,6.932e-5 -0.086815,0.009206 -5.078e-4,3.466e-5 -5.077e-4,6.931e-5 -0.085258,0.0099846 0.021357,0.18239308 0.084242,-0.009883 0.00102,-1.0397e-4 0.084818,-0.009003 5.407e-4,-3.466e-5 4.731e-4,-6.931e-5 0.085901,-0.008123 0.085021,-0.007141 0.00102,-6.931e-5 0.085089,-0.006194 5.406e-4,-3.465e-5 4.748e-4,-3.466e-5 0.08519,-0.005246 0.00102,-6.932e-5 0.085224,-0.004298 0.080655,-0.003215 L 7.7219599,3.2924846e-6 Z m 0.6984788,0.00602455 -0.00894,0.18340838 0.015163,7.4514e-4 0.08651,0.005178 6.429e-4,3.466e-5 3.725e-4,3.465e-5 0.085461,0.006058 0.00102,6.932e-5 0.085427,0.007006 0.00102,1.0397e-4 0.085393,0.007954 6.1e-4,6.932e-5 4.055e-4,3.466e-5 0.085326,0.008935 0.00102,1.0397e-4 0.085292,0.009883 0.086239,0.0109321 5.753e-4,6.931e-5 4.402e-4,6.932e-5 0.058181,0.008055 0.025182,-0.18188535 -0.059197,-0.0081907 -5.077e-4,-6.931e-5 -5.077e-4,-6.932e-5 -0.087255,-0.01110122 -5.077e-4,-6.931e-5 -5.077e-4,-3.466e-5 -0.087323,-0.01011989 -5.078e-4,-6.931e-5 -5.077e-4,-3.466e-5 -0.087356,-0.0091382 -5.078e-4,-6.932e-5 -5.077e-4,-3.466e-5 -0.087424,-0.0081567 -5.077e-4,-3.466e-5 -5.077e-4,-6.932e-5 -0.087492,-0.0071754 -5.077e-4,-3.466e-5 -5.077e-4,-3.466e-5 -0.087458,-0.0062275 -5.078e-4,-3.466e-5 -5.077e-4,0 -0.087526,-0.00524614 -5.078e-4,-3.466e-5 -5.077e-4,-3.466e-5 -0.016178,-7.7806e-4 z M 14.119378,0.08701673 A 1.7928712,1.7928446 0 0 0 12.326491,1.8798436 1.7928712,1.7928446 0 0 0 14.119378,3.6727045 1.7928712,1.7928446 0 0 0 15.912232,1.8798436 1.7928712,1.7928446 0 0 0 14.119378,0.08701673 Z m -7.7816569,0.08248125 -0.00914,0.001895 -5.077e-4,1.0397e-4 -4.731e-4,1.0398e-4 -0.085326,0.0186826 -5.077e-4,1.0398e-4 -5.078e-4,1.3863e-4 -0.085122,0.0195965 -4.749e-4,1.0397e-4 -5.077e-4,1.3863e-4 -0.084919,0.0205442 -4.748e-4,1.0398e-4 -5.077e-4,1.3863e-4 -0.084716,0.0214918 -4.731e-4,1.3863e-4 -5.077e-4,1.0397e-4 -0.084479,0.0224397 -4.731e-4,1.3863e-4 -5.078e-4,1.3863e-4 -0.084243,0.0233534 -5.078e-4,1.3863e-4 -4.748e-4,1.3863e-4 -0.084005,0.024301 -5.078e-4,1.3863e-4 -4.731e-4,1.3863e-4 -0.066541,0.0200365 0.052935,0.17586097 0.065594,-0.0197657 9.479e-4,-2.7033e-4 0.082077,-0.0237596 9.808e-4,-2.7033e-4 0.082313,-0.0228117 1.04e-4,-3.465e-5 8.803e-4,-2.3741e-4 0.083498,-0.022135 0.082753,-0.021018 9.808e-4,-2.374e-4 0.082957,-0.0200703 3.46e-5,0 9.479e-4,-2.374e-4 0.084141,-0.0193596 0.083363,-0.0182426 9.808e-4,-2.0274e-4 0.00816,-0.001693 -0.037264,-0.17982096 z m 3.4649112,0.0306979 -0.041326,0.17890703 0.042104,0.009714 2.028e-4,6.931e-5 8.127e-4,1.7329e-4 0.085157,0.0207135 0.084006,0.0213902 9.808e-4,2.7033e-4 0.084852,0.0226764 0.08367,0.0233534 0.08451,0.0246056 0.08431,0.0255871 5.4e-4,1.7329e-4 4.41e-4,1.3863e-4 0.08411,0.0266024 0.02149,0.00704 0.05734,-0.17443931 -0.02247,-0.007378 -5.08e-4,-1.7328e-4 -4.73e-4,-1.7329e-4 -0.08512,-0.026907 -5.08e-4,-1.3864e-4 -4.73e-4,-1.7328e-4 -0.08533,-0.0258918 -4.73e-4,-1.3863e-4 -5.07e-4,-1.7329e-4 -0.08549,-0.0249102 -5.08e-4,-1.3863e-4 -5.08e-4,-1.3863e-4 -0.08566,-0.0238949 -5.08e-4,-1.7329e-4 -5.07e-4,-1.3863e-4 -0.08583,-0.0229133 -5.08e-4,-1.3863e-4 -5.07e-4,-1.0397e-4 -0.086003,-0.0219319 -5.077e-4,-1.3863e-4 -4.731e-4,-1.3863e-4 -0.086172,-0.0209165 -5.077e-4,-1.3863e-4 -5.077e-4,-1.0398e-4 -0.04312,-0.009951 z m -4.7999644,0.37612444 -0.026535,0.0106274 -4.749e-4,1.7329e-4 -4.731e-4,2.0274e-4 -0.081196,0.0335747 -4.402e-4,2.0275e-4 -4.731e-4,2.0275e-4 -0.080858,0.0344884 -4.731e-4,2.0275e-4 -4.748e-4,2.0275e-4 -0.080486,0.0354024 -4.73e-4,2.0275e-4 -4.731e-4,2.0275e-4 -0.080147,0.0363501 -4.749e-4,2.0274e-4 -4.73e-4,2.0275e-4 -0.079809,0.0372638 -4.731e-4,2.0275e-4 -4.401e-4,2.3741e-4 -0.079437,0.0381438 -4.731e-4,2.374e-4 -4.73e-4,2.0275e-4 -0.079064,0.0390915 -4.401e-4,2.374e-4 -4.731e-4,2.3741e-4 -0.04092,0.0207811 0.083193,0.16371033 0.040006,-0.020341 9.133e-4,-4.731e-4 0.077236,-0.0381439 8.457e-4,-4.055e-4 6.93e-5,-3.465e-5 0.077609,-0.0372976 9.133e-4,-4.4015e-4 0.078895,-0.03679 0,-3.466e-5 0.078286,-0.0354699 9.479e-4,-4.0549e-4 0.078624,-0.0345902 8.127e-4,-3.3791e-4 1.386e-4,-6.932e-5 0.078963,-0.0336762 9.479e-4,-4.0549e-4 0.079267,-0.0327963 9.479e-4,-3.7257e-4 0.025621,-0.0102552 -0.068301,-0.1704457 z m 6.1264891,0.0556757 -0.07104,0.16932868 0.0028,0.001185 6.1e-4,2.7033e-4 3.38e-4,1.3863e-4 0.08103,0.0350977 9.81e-4,4.4015e-4 0.08076,0.0360792 9.48e-4,4.4015e-4 0.08049,0.0370609 2.37e-4,1.3863e-4 7.11e-4,3.0498e-4 0.08018,0.038076 9.47e-4,4.4015e-4 0.07988,0.0390577 7.45e-4,3.7257e-4 2.03e-4,1.0397e-4 0.07957,0.040039 9.48e-4,4.731e-4 0.07927,0.041021 9.48e-4,5.078e-4 0.04349,0.023184 0.08631,-0.16211971 -0.04444,-0.0236579 -4.73e-4,-2.374e-4 -4.73e-4,-2.3741e-4 -0.08113,-0.0420022 -4.75e-4,-2.7033e-4 -4.73e-4,-2.374e-4 -0.08147,-0.0409869 -4.73e-4,-2.3741e-4 -4.73e-4,-2.374e-4 -0.08177,-0.0399715 -4.73e-4,-2.374e-4 -5.07e-4,-2.0275e-4 -0.08208,-0.0389899 -4.73e-4,-2.0275e-4 -4.73e-4,-2.374e-4 -0.08238,-0.0379407 -4.73e-4,-2.3741e-4 -5.08e-4,-2.0275e-4 -0.08265,-0.0369592 -4.74e-4,-2.0274e-4 -5.08e-4,-2.0275e-4 -0.08296,-0.0359439 -4.74e-4,-2.0275e-4 -4.73e-4,-2.0275e-4 -0.0038,-0.001591 z m -7.3707,0.57703103 -0.05148,0.032289 -4.402e-4,2.703e-4 -4.402e-4,3.05e-4 -0.074901,0.048162 -4.402e-4,2.703e-4 -4.055e-4,2.703e-4 -0.074427,0.049076 -4.402e-4,2.703e-4 -4.401e-4,3.05e-4 -0.073953,0.049956 -4.402e-4,3.05e-4 -4.055e-4,2.703e-4 -0.07348,0.05087 -4.401e-4,3.05e-4 -4.055e-4,3.05e-4 -0.072972,0.05175 -4.402e-4,3.05e-4 -4.055e-4,3.049e-4 -0.072498,0.052664 -4.401e-4,3.05e-4 -4.055e-4,3.05e-4 -0.071956,0.053544 -4.402e-4,3.05e-4 -4.055e-4,3.379e-4 -0.00342,0.00261 0.1112855,0.146043 0.00257,-0.00196 8.456e-4,-6.099e-4 0.070298,-0.052325 8.456e-4,-6.099e-4 0.070772,-0.051411 3.05e-4,-2.374e-4 5.407e-4,-3.726e-4 0.07128,-0.050565 8.803e-4,-6.1e-4 0.071753,-0.049651 0.073074,-0.049381 8.456e-4,-5.753e-4 0.072701,-0.047925 3.05e-4,-2.028e-4 5.753e-4,-3.726e-4 0.073141,-0.047011 8.804e-4,-5.753e-4 0.0506,-0.031713 -0.097578,-0.1555876 z M 7.9983725,1.8798436 A 6.1208199,6.1207288 0 0 0 1.8775361,8.0005889 6.1208199,6.1207288 0 0 0 7.9983725,14.121334 6.1208199,6.1207288 0 0 0 14.119209,8.0005889 6.1208199,6.1207288 0 0 0 7.9983725,1.8798436 Z m -5.3540226,0.1688549 -0.020646,0.018547 -4.055e-4,3.38e-4 -3.726e-4,3.379e-4 -0.067049,0.061565 -4.055e-4,3.725e-4 -3.726e-4,3.379e-4 -0.066439,0.062445 -4.055e-4,3.726e-4 -3.726e-4,3.725e-4 -0.065864,0.063291 -3.726e-4,3.726e-4 -3.726e-4,3.726e-4 -0.065255,0.064205 -3.725e-4,3.726e-4 -3.726e-4,3.725e-4 -0.064646,0.065085 -3.726e-4,3.726e-4 -3.725e-4,3.726e-4 -0.064003,0.065965 -3.726e-4,3.726e-4 -3.726e-4,4.055e-4 -0.06336,0.066811 -3.726e-4,4.055e-4 -3.726e-4,3.726e-4 -0.01496,0.016178 0.1346729,0.1248219 0.014283,-0.0154 7.105e-4,-7.781e-4 0.061938,-0.065288 0.063258,-0.06522 7.451e-4,-7.452e-4 0.063901,-0.06434 0.063732,-0.062716 7.452e-4,-7.105e-4 0.064341,-0.061869 2.374e-4,-2.028e-4 5.077e-4,-5.077e-4 0.064916,-0.060989 7.781e-4,-7.105e-4 0.065492,-0.060143 2.028e-4,-1.733e-4 5.753e-4,-5.407e-4 L 2.7669718,2.185398 2.644348,2.0486961 Z m -0.9516464,1.0205079 -0.017498,0.02227 -3.379e-4,4.055e-4 -3.05e-4,4.055e-4 -0.056083,0.073072 -3.379e-4,4.055e-4 -3.05e-4,4.402e-4 -0.055135,0.073546 -3.05e-4,4.055e-4 -3.05e-4,4.402e-4 -0.054153,0.07402 -3.385e-4,4.401e-4 -3.046e-4,4.055e-4 -0.053172,0.074494 -3.047e-4,4.401e-4 -3.046e-4,4.402e-4 -0.052224,0.074934 -3.046e-4,4.402e-4 -3.047e-4,4.402e-4 -0.051243,0.075408 -3.047e-4,4.401e-4 -3.046e-4,4.402e-4 -0.050261,0.075848 -3.046e-4,4.402e-4 -2.709e-4,4.402e-4 -0.011711,0.01804 0.154236,0.099743 0.011102,-0.017193 2.707e-4,-4.055e-4 3.046e-4,-4.731e-4 0.049111,-0.074088 5.753e-4,-8.803e-4 0.050092,-0.073648 0.051615,-0.074088 6.099e-4,-8.803e-4 0.051954,-0.072734 0.053511,-0.073174 6.429e-4,-8.456e-4 0.053815,-0.071854 3.726e-4,-5.077e-4 2.703e-4,-3.38e-4 0.054797,-0.07138 6.429e-4,-8.456e-4 0.016855,-0.021424 L 1.6927056,3.0692067 Z M 10.533806,3.6727045 A 1.7926979,1.7926713 0 0 1 12.326491,5.4653622 1.7926979,1.7926713 0 0 1 10.533806,7.2580537 1.7926979,1.7926713 0 0 1 8.7410881,5.4653622 1.7926979,1.7926713 0 0 1 10.533806,3.6727045 Z m -9.60223016,0.565862 -0.004942,0.00917 -2.3689e-4,4.401e-4 -2.3689e-4,4.748e-4 -0.0416305,0.079469 -2.3689e-4,4.401e-4 -2.3689e-4,4.731e-4 -0.040649,0.079841 -2.3689e-4,4.401e-4 -2.3689e-4,4.748e-4 -0.0396675,0.08018 -2.3689e-4,4.731e-4 -2.3689e-4,4.731e-4 -0.0387198,0.080484 -2.031e-4,4.731e-4 -2.3689e-4,4.748e-4 -0.0377382,0.080857 -2.3689e-4,4.748e-4 -2.031e-4,4.731e-4 -0.0367905,0.081161 -2.0309e-4,4.748e-4 -2.3689e-4,4.731e-4 -0.035809,0.0815 -2.031e-4,4.748e-4 -2.0309e-4,4.731e-4 -0.0214922,0.050396 0.16892512,0.071989 0.021086,-0.049414 6.758e-5,-1.386e-4 3.3844e-4,-8.127e-4 0.0349967,-0.079604 4.0619e-4,-9.479e-4 0.0359444,-0.079266 3.7223e-4,-7.781e-4 6.759e-5,-1.732e-4 0.0368582,-0.078961 4.3998e-4,-9.479e-4 0.0378059,-0.078623 4.7378e-4,-9.479e-4 0.0387537,-0.078284 1.698e-4,-3.379e-4 3.046e-4,-6.082e-4 0.039701,-0.077946 4.738e-4,-9.479e-4 0.040649,-0.077608 4.738e-4,-9.133e-4 0.00443,-0.00826 -0.16168213,-0.087017 z m 14.20006716,0.1282064 -0.164085,0.082414 0.04122,0.082109 6.9e-5,1.387e-4 4.06e-4,8.127e-4 0.03974,0.081466 4.73e-4,9.479e-4 0.03869,0.081703 4.73e-4,9.808e-4 0.03764,0.08194 3.72e-4,8.127e-4 6.9e-5,1.733e-4 0.03665,0.08221 4.06e-4,9.479e-4 0.03561,0.082448 0.035,0.083666 1.38e-4,3.05e-4 2.71e-4,6.776e-4 0.01618,0.040039 0.170245,-0.06891 -0.01658,-0.040987 -2.03e-4,-5.078e-4 -2.03e-4,-4.73e-4 -0.0354,-0.084648 -2.03e-4,-4.731e-4 -2.02e-4,-5.077e-4 -0.03645,-0.084377 -2.03e-4,-5.077e-4 -2.38e-4,-4.731e-4 -0.0375,-0.08414 -2.03e-4,-5.077e-4 -2.37e-4,-4.731e-4 -0.03855,-0.083869 -2.02e-4,-5.078e-4 -2.38e-4,-4.73e-4 -0.0396,-0.083632 -2.37e-4,-4.731e-4 -2.37e-4,-4.73e-4 -0.04065,-0.083361 -2.37e-4,-4.731e-4 L 15.1734,4.449845 15.13167,4.3667883 Z M 0.3859115,5.5235087 0.36997,5.5727199 l -1.3516e-4,5.077e-4 -1.6983e-4,4.731e-4 -0.0261968,0.084208 -1.6982e-4,5.077e-4 -1.3517e-4,4.748e-4 -0.0252491,0.08441 -1.3517e-4,5.077e-4 -1.3516e-4,4.731e-4 -0.0242675,0.084647 -1.6983e-4,5.078e-4 -1.3517e-4,4.748e-4 -0.023286,0.08485 -1.3516e-4,5.078e-4 -1.3517e-4,4.73e-4 -0.0223722,0.085054 -1.3517e-4,4.731e-4 -1.0224e-4,5.078e-4 -0.0213906,0.085223 -1.3516e-4,5.077e-4 -1.0224e-4,5.078e-4 -0.020443,0.085392 -1.3517e-4,5.077e-4 -1.0224e-4,5.077e-4 -0.005077,0.022304 0.17907891,0.040716 0.00484,-0.021323 2.3688e-4,-9.808e-4 0.0199353,-0.083429 3.466e-5,-2.028e-4 2.031e-4,-7.78e-4 0.0209168,-0.08326 2.3689e-4,-9.808e-4 0.0218306,-0.083057 1.0224e-4,-3.379e-4 1.6983e-4,-6.775e-4 0.0227783,-0.082854 3.466e-5,-1.039e-4 2.3689e-4,-8.804e-4 0.023726,-0.082684 0.0249106,-0.083429 3.466e-5,0 0.0258922,-0.083192 3.0465e-4,-9.808e-4 0.015603,-0.048264 -0.17471277,-0.056522 z m 15.2691245,0.1366679 -0.175795,0.052968 0.02366,0.078555 3.4e-5,1.04e-4 2.71e-4,9.132e-4 0.02471,0.085561 0.02342,0.084715 2.03e-4,8.127e-4 6.9e-5,2.028e-4 0.02241,0.08485 2.7e-4,0.00102 0.02143,0.084952 2.37e-4,0.00102 0.02044,0.085088 1.39e-4,5.753e-4 1.04e-4,4.401e-4 0.01943,0.085223 2.38e-4,0.00102 0.01428,0.066168 0.179485,-0.038787 -0.01452,-0.067183 -1.04e-4,-5.078e-4 -1.04e-4,-5.077e-4 -0.0199,-0.087254 -1.39e-4,-5.078e-4 -1.04e-4,-5.077e-4 -0.02092,-0.087118 -1.38e-4,-5.077e-4 -1.04e-4,-5.078e-4 -0.02193,-0.087016 -1.38e-4,-5.078e-4 -1.39e-4,-5.077e-4 -0.02295,-0.086847 -1.74e-4,-5.078e-4 -1.38e-4,-5.077e-4 -0.024,-0.086746 -1.39e-4,-5.077e-4 -1.38e-4,-4.731e-4 -0.02501,-0.086577 -1.74e-4,-5.077e-4 -1.38e-4,-5.077e-4 -0.02396,-0.079571 z m -15.58240259,1.2234112 -0.01011994,0.074325 -6.759e-5,5.077e-4 -6.758e-5,5.078e-4 -0.0108307,0.08678 -3.466e-5,4.749e-4 -6.759e-5,5.077e-4 -0.009883,0.086881 -3.466e-5,4.731e-4 -6.759e-5,5.077e-4 -0.0089015,0.086949 -3.466e-5,5.077e-4 -6.758e-5,5.077e-4 -0.0079199,0.086983 -6.758e-5,5.077e-4 -3.466e-5,5.078e-4 -0.0069723,0.087084 -3.466e-5,5.077e-4 -3.466e-5,5.078e-4 -0.0060246,0.087118 -6.758e-5,5.077e-4 0,5.077e-4 -0.0050769,0.087152 -3.466e-5,5.078e-4 -3.466e-5,5.077e-4 -1.6982e-4,0.00396 0.18344504,0.00863 1.3516e-4,-0.00294 0.004975,-0.08617 6.758e-5,-7.781e-4 0,-2.374e-4 0.005889,-0.085088 6.759e-5,-0.00102 0.006837,-0.085054 0.007852,-0.086001 6.759e-5,-8.128e-4 3.465e-5,-2.027e-4 0.0088,-0.085934 -3.466e-5,0 0.009781,-0.085866 0.0105599,-0.084749 1.3517e-4,-9.808e-4 0.009985,-0.073343 -0.18195581,-0.024741 z m 15.87276759,0.1410678 -0.182261,0.022406 0.0049,0.039971 0.0097,0.086949 1.04e-4,0.00102 0.0086,0.085934 0,3.46e-5 1.03e-4,9.808e-4 0.0077,0.086983 0.0067,0.085967 -3.5e-5,0 0.0058,0.086983 6.9e-5,0.00102 0.0047,0.085967 0.0039,0.086983 3.5e-5,9.479e-4 0,6.93e-5 9.8e-4,0.030258 0.183547,-0.00602 -10e-4,-0.031307 0,-5.077e-4 -3.5e-5,-5.078e-4 -0.0039,-0.087998 -3.5e-5,-5.077e-4 -3.5e-5,-5.078e-4 -0.0048,-0.087998 -3.4e-5,-5.078e-4 -3.5e-5,-5.077e-4 -0.0059,-0.088032 -3.5e-5,-5.078e-4 -3.5e-5,-5.077e-4 -0.0068,-0.087998 -3.4e-5,-5.407e-4 -7e-5,-5.077e-4 -0.0078,-0.087998 -3.5e-5,-5.077e-4 -6.9e-5,-5.077e-4 -0.0088,-0.087998 -6.9e-5,-5.077e-4 -3.5e-5,-5.078e-4 -0.0098,-0.087964 -3.5e-5,-5.078e-4 -6.9e-5,-5.077e-4 -0.005,-0.040987 z m -12.1005353,0.020476 0.5123261,0 0,3.564196 1.9831355,0 0,0.451701 1.039e-4,7e-5 -2.495563,0 0,-4.0159652 z m 7.1747993,1.0466366 c 0.710633,0 1.085236,0.275442 1.085236,0.7877526 l 0,1.6085388 c 0,0.143233 0.08813,0.22585 0.247888,0.22585 0.02754,0 0.04959,1.8e-5 0.09917,-0.011 l 0,0.347051 c -0.148738,0.03856 -0.220339,0.04958 -0.313989,0.04958 -0.225868,0 -0.424197,-0.15973 -0.473776,-0.380084 -0.253404,0.26993 -0.611458,0.424151 -0.980551,0.424151 -0.583939,0 -0.947517,-0.308487 -0.947517,-0.831819 0,-0.3525734 0.1707628,-0.6114836 0.506809,-0.7492031 0.176272,-0.07162 0.275434,-0.093636 0.925484,-0.176267 0.363586,-0.044067 0.479258,-0.1267 0.479258,-0.3195009 l 0,-0.1212006 c 0,-0.2754406 -0.231367,-0.4297018 -0.644528,-0.4297018 -0.429693,0 -0.639033,0.1597626 -0.677596,0.5123184 l -0.4627417,0 C 9.8903473,8.3616832 10.320037,8.0917686 11.019666,8.0917686 Z m -4.2232636,0.082549 0.457225,0 0,1.9997584 c 0,0.347045 0.2313616,0.567418 0.594944,0.567418 0.4792716,0 0.7877643,-0.385612 0.7877643,-0.975053 l 0,-1.5920557 0.457225,0 0,2.8866097 -0.4131236,0 0,-0.446218 c -0.2699359,0.380105 -0.5398857,0.528835 -0.964068,0.528835 -0.5619142,0 -0.9199667,-0.308488 -0.9199667,-0.787752 l 0,-2.1815424 z M 0.18358041,8.2708109 0,8.276294 l 1.3516717e-4,0.00376 0,5.077e-4 3.465825e-5,4.731e-4 0.003553825,0.08722 3.466e-5,5.078e-4 0,5.077e-4 0.00453536,0.087186 3.466e-5,5.077e-4 3.465e-5,5.077e-4 0.00548306,0.087118 3.466e-5,5.077e-4 3.466e-5,5.078e-4 0.0064307,0.087051 3.466e-5,5.077e-4 6.758e-5,5.078e-4 0.0073784,0.087017 3.466e-5,5.077e-4 6.759e-5,5.078e-4 0.0083599,0.086915 3.466e-5,5.077e-4 6.758e-5,5.077e-4 0.0093076,0.086848 3.466e-5,5.077e-4 6.758e-5,5.077e-4 0.0089015,0.075103 0.18236197,-0.021593 -0.008766,-0.074088 -0.00924,-0.085866 -3.466e-5,-3.379e-4 -6.758e-5,-6.429e-4 -0.008225,-0.085933 -0.007311,-0.086035 -0.006295,-0.085054 -3.465e-5,-6.776e-4 -3.466e-5,-3.379e-4 -0.005348,-0.085087 -6.758e-5,-0.00102 -0.004468,-0.08617 -0.003486,-0.085189 0,-5.407e-4 -3.466e-5,-4.73e-4 -6.758e-5,-0.00274 z m 15.62660559,0.1384956 -0.0038,0.067251 -6.9e-5,9.479e-4 0,6.93e-5 -0.0058,0.085392 -6.9e-5,0.00102 -0.0067,0.085257 -0.0077,0.086171 -1.04e-4,9.479e-4 0,6.93e-5 -0.0086,0.08502 -1.04e-4,0.00102 -0.0096,0.0859 -0.01039,0.084783 -1.38e-4,9.479e-4 0,6.93e-5 -0.01134,0.084647 -3.5e-5,2.703e-4 -1.04e-4,7.105e-4 -0.0013,0.00863 0.181752,0.0264 0.0014,-0.00961 7e-5,-5.078e-4 6.9e-5,-5.077e-4 0.01161,-0.086644 7e-5,-5.077e-4 6.9e-5,-4.731e-4 0.01066,-0.086814 7e-5,-5.077e-4 6.9e-5,-4.731e-4 0.0097,-0.086949 6.9e-5,-5.077e-4 7e-5,-4.731e-4 0.0087,-0.087084 6.9e-5,-4.731e-4 3.5e-5,-5.077e-4 0.0078,-0.087186 3.5e-5,-5.077e-4 6.9e-5,-5.078e-4 0.0068,-0.087287 7e-5,-5.077e-4 3.4e-5,-5.077e-4 0.0059,-0.087389 3.4e-5,-5.077e-4 3.5e-5,-5.078e-4 0.0038,-0.068266 -0.183343,-0.010289 z M 0.34942556,9.6239518 0.16966974,9.661554 l 0.004332,0.02068 1.0224e-4,5.078e-4 1.0224e-4,4.73e-4 0.018886,0.085595 1.3517e-4,5.077e-4 1.0224e-4,5.078e-4 0.0198337,0.085426 1.3517e-4,4.749e-4 1.0224e-4,5.077e-4 0.0208153,0.085223 1.0224e-4,5.078e-4 1.3517e-4,5.077e-4 0.021763,0.085019 1.0224e-4,5.08e-4 1.3517e-4,5.08e-4 0.0227106,0.08485 1.3516e-4,4.74e-4 1.3517e-4,5.07e-4 0.0236583,0.08465 1.3517e-4,4.73e-4 1.6982e-4,5.07e-4 0.024606,0.08441 1.3516e-4,5.08e-4 1.6983e-4,4.75e-4 0.0159414,0.05253 0.17572816,-0.05337 -0.0156707,-0.05155 -3.0465e-4,-9.81e-4 -0.0240306,-0.08245 -0.0234214,-0.08367 -1.0224e-4,-3.38e-4 -1.6982e-4,-6.43e-4 -0.0221691,-0.082888 -2.7085e-4,-9.808e-4 -0.0212214,-0.083091 -0.0205783,-0.084241 -6.758e-5,-2.374e-4 -1.6983e-4,-7.451e-4 -0.0193599,-0.083429 -2.3689e-4,-0.00102 -0.018446,-0.083598 -2.031e-4,-9.808e-4 -0.004129,-0.019732 z M 11.647676,9.6342068 c -0.154246,0.071615 -0.253398,0.09368 -0.73818,0.1597845 -0.490293,0.071603 -0.694112,0.2038237 -0.694112,0.5068017 0,0.314006 0.209321,0.440701 0.567393,0.440701 0.446225,0 0.864899,-0.26443 0.864899,-0.677585 l 0,-0.4297022 z m 3.972499,0.1250928 -0.01953,0.082448 -1.04e-4,4.055e-4 -1.39e-4,5.753e-4 -0.02078,0.083734 -0.02143,0.082549 -2.7e-4,9.8e-4 -0.02234,0.08228 -1.04e-4,3.38e-4 -1.74e-4,6.43e-4 -0.02356,0.08302 3.4e-5,0 -0.02417,0.0818 -3.05e-4,9.81e-4 -0.02505,0.08153 -3.05e-4,9.48e-4 -0.02433,0.07622 0.174915,0.05588 0.02464,-0.0772 1.74e-4,-4.73e-4 1.38e-4,-4.73e-4 0.02566,-0.08346 1.39e-4,-5.08e-4 1.73e-4,-4.73e-4 0.02471,-0.08373 1.38e-4,-4.74e-4 1.39e-4,-5.08e-4 0.02383,-0.08397 1.38e-4,-5.08e-4 1.39e-4,-4.74e-4 0.02288,-0.08424 1.73e-4,-5.07e-4 1.04e-4,-4.75e-4 0.02197,-0.084512 1.39e-4,-4.731e-4 1.04e-4,-5.077e-4 0.02102,-0.084715 1.39e-4,-4.73e-4 1.04e-4,-5.078e-4 0.01973,-0.083429 -0.178707,-0.042239 z m -14.87268726,1.1683114 -0.17024512,0.06888 0.0183783,0.04542 1.6983e-4,4.73e-4 2.0309e-4,4.74e-4 0.0341844,0.0818 2.0309e-4,4.73e-4 2.031e-4,4.75e-4 0.0351321,0.0815 2.0309e-4,4.75e-4 2.031e-4,4.73e-4 0.0360798,0.0812 2.031e-4,4.73e-4 2.3689e-4,4.73e-4 0.0370275,0.08086 2.031e-4,4.73e-4 2.3689e-4,4.75e-4 0.0379751,0.08052 2.3689e-4,4.73e-4 2.031e-4,4.73e-4 0.0389567,0.08018 2.3689e-4,4.75e-4 2.3689e-4,4.4e-4 0.0398705,0.07984 2.3689e-4,4.73e-4 2.3688e-4,4.75e-4 0.008698,0.01689 0.16330666,-0.08397 -0.00819,-0.01594 -4.738e-4,-9.48e-4 -0.0389567,-0.07795 -4.7378e-4,-9.48e-4 -0.0380428,-0.07832 -4.3999e-4,-9.48e-4 -0.0370952,-0.07862 -2.3689e-4,-5.08e-4 -2.031e-4,-4.4e-4 -0.0361813,-0.079 -4.0619e-4,-9.13e-4 -0.0352675,-0.0793 -4.062e-4,-9.48e-4 -0.0346921,-0.08055 -3.466e-5,0 -0.0333721,-0.07991 -3.7223e-4,-9.48e-4 -0.0179722,-0.04447 z m 14.45144026,0.129357 -0.0054,0.01286 -3.05e-4,6.78e-4 -1.04e-4,2.7e-4 -0.03391,0.07845 -3.72e-4,8.45e-4 -3.5e-5,7e-5 -0.03483,0.07812 -0.03611,0.07869 -4.4e-4,9.13e-4 -0.03655,0.0774 -3.05e-4,6.1e-4 -1.38e-4,3.05e-4 -0.03743,0.077 -4.4e-4,9.13e-4 -0.03831,0.07663 -0.03963,0.07717 -4.4e-4,8.8e-4 -0.0286,0.05415 0.162393,0.08573 0.02907,-0.05507 2.38e-4,-4.4e-4 2.37e-4,-4.4e-4 0.04007,-0.07805 2.37e-4,-4.73e-4 2.38e-4,-4.41e-4 0.03919,-0.07845 2.38e-4,-4.4e-4 2.37e-4,-4.75e-4 0.03831,-0.07883 2.37e-4,-4.73e-4 2.03e-4,-4.4e-4 0.03743,-0.07923 2.03e-4,-4.73e-4 2.38e-4,-4.4e-4 0.03652,-0.0796 2.03e-4,-4.74e-4 2.03e-4,-4.74e-4 0.03564,-0.07994 2.02e-4,-4.73e-4 2.03e-4,-4.73e-4 0.03476,-0.08032 2.03e-4,-4.73e-4 2.02e-4,-4.73e-4 0.0058,-0.01381 -0.169365,-0.07101 z m -13.8319917,1.08566 -0.1561314,0.0967 0.0046,0.0074 3.047e-4,4.4e-4 2.708e-4,4.4e-4 0.048467,0.07629 3.047e-4,4.41e-4 2.708e-4,4.4e-4 0.049415,0.07588 3.047e-4,4.4e-4 3.046e-4,4.41e-4 0.050363,0.07541 3.046e-4,4.4e-4 3.047e-4,4.4e-4 0.05131,0.07497 3.047e-4,4.4e-4 3.046e-4,4.41e-4 0.052292,0.07449 3.047e-4,4.41e-4 3.046e-4,4.4e-4 0.05324,0.07402 3.046e-4,4.4e-4 3.047e-4,4.05e-4 0.054187,0.07358 3.379e-4,4.4e-4 3.05e-4,4.06e-4 0.027551,0.03652 0.1465867,-0.110607 -0.026907,-0.03567 -6.429e-4,-8.45e-4 -0.053544,-0.07273 -0.052021,-0.07229 -6.1e-4,-8.8e-4 -0.051074,-0.07277 -3.379e-4,-4.75e-4 -2.704e-4,-4.06e-4 -0.050126,-0.07321 -6.093e-4,-8.81e-4 -0.049212,-0.07368 -5.078e-4,-7.45e-4 -6.76e-5,-1.39e-4 -0.048264,-0.07409 -5.753e-4,-8.8e-4 -0.047351,-0.07453 -2.031e-4,-3.05e-4 -3.722e-4,-6.1e-4 -0.00403,-0.0065 z m 13.1927437,0.118256 -0.02082,0.03215 -2.38e-4,3.38e-4 -3.38e-4,5.41e-4 -0.04772,0.07185 -5.76e-4,8.8e-4 -0.04857,0.07138 -5.75e-4,8.46e-4 -0.04941,0.07094 -6.1e-4,8.45e-4 -0.05023,0.0704 -2.38e-4,3.05e-4 -3.72e-4,5.41e-4 -0.05172,0.07074 3.5e-5,0 -0.05195,0.06942 -6.9e-5,6.9e-5 -5.41e-4,7.45e-4 -0.05277,0.06891 -6.43e-4,8.13e-4 -0.01862,0.02373 0.144522,0.11328 0.01926,-0.02454 3.38e-4,-4.06e-4 3.05e-4,-4.05e-4 0.05402,-0.07053 3.05e-4,-4.06e-4 3.05e-4,-4.4e-4 0.05317,-0.07104 3.05e-4,-4.05e-4 3.05e-4,-4.4e-4 0.05232,-0.07158 3.05e-4,-4.06e-4 3.05e-4,-4.4e-4 0.05145,-0.07209 2.71e-4,-4.05e-4 3.05e-4,-4.4e-4 0.0506,-0.0726 3.05e-4,-4.4e-4 2.71e-4,-4.06e-4 0.04972,-0.07311 3.05e-4,-4.4e-4 2.71e-4,-4.05e-4 0.04887,-0.07361 2.7e-4,-4.4e-4 3.05e-4,-4.06e-4 0.02136,-0.03303 -0.1541,-0.09984 z m -12.3715058,0.970315 -0.1371437,0.122081 9.808e-4,0.0012 3.726e-4,3.73e-4 3.379e-4,4.05e-4 0.062615,0.06871 3.726e-4,4.06e-4 3.379e-4,4.05e-4 0.063258,0.06783 3.726e-4,3.72e-4 3.379e-4,4.06e-4 0.063901,0.06691 3.379e-4,4.06e-4 3.726e-4,3.72e-4 0.06451,0.06603 3.726e-4,4.05e-4 3.726e-4,3.73e-4 0.06512,0.06515 3.725e-4,3.73e-4 3.726e-4,3.73e-4 0.065729,0.06427 3.725e-4,3.72e-4 4.055e-4,3.38e-4 0.066304,0.06339 4.055e-4,3.72e-4 3.726e-4,3.38e-4 0.031274,0.02918 0.1252977,-0.134197 -0.030461,-0.02846 -7.781e-4,-7.11e-4 -0.064781,-0.0619 0,-3.5e-5 -0.064984,-0.06349 -7.105e-4,-7.1e-4 -3.46e-5,-3.5e-5 -0.06363,-0.06366 -7.452e-4,-7.78e-4 -0.063021,-0.06451 -6.43e-4,-6.78e-4 -1.039e-4,-1.04e-4 -0.062412,-0.06539 -7.105e-4,-7.78e-4 -0.061803,-0.06627 -6.43e-4,-7.1e-4 -6.93e-5,-7e-5 -0.061193,-0.06715 -7.105e-4,-8.13e-4 -3.05e-4,-3.38e-4 z m 11.5325668,0.103702 -0.05585,0.0593 -5.08e-4,5.07e-4 -2.37e-4,2.71e-4 -0.06099,0.06326 -7.1e-4,7.45e-4 -0.0618,0.06265 -4.4e-4,4.4e-4 -3.05e-4,3.05e-4 -0.06262,0.06204 -7.45e-4,7.45e-4 -0.06343,0.0614 -4.05e-4,4.05e-4 -3.73e-4,3.38e-4 -0.06421,0.06075 -7.78e-4,7.45e-4 -0.06505,0.06014 -4.4e-4,3.73e-4 -3.38e-4,3.38e-4 -0.0483,0.04363 0.123132,0.136262 0.04908,-0.04437 4.05e-4,-3.38e-4 3.73e-4,-3.73e-4 0.06661,-0.06156 3.72e-4,-3.72e-4 3.73e-4,-3.73e-4 0.06576,-0.06221 3.72e-4,-3.72e-4 4.06e-4,-3.73e-4 0.06492,-0.06288 3.73e-4,-3.37e-4 3.72e-4,-3.73e-4 0.0641,-0.06353 3.73e-4,-3.73e-4 3.73e-4,-3.72e-4 0.06329,-0.06414 3.73e-4,-3.73e-4 3.73e-4,-3.72e-4 0.06245,-0.06478 3.38e-4,-3.72e-4 3.73e-4,-3.73e-4 0.05659,-0.06007 -0.133657,-0.125939 z m -10.536819,0.826405 -0.11247,0.145163 0.066812,0.05178 4.402e-4,3.05e-4 4.055e-4,3.38e-4 0.071855,0.05436 4.055e-4,3.38e-4 4.402e-4,3.05e-4 0.072363,0.05348 4.055e-4,3.05e-4 4.402e-4,3.05e-4 0.07287,0.05256 4.055e-4,3.05e-4 4.402e-4,3.05e-4 0.073344,0.05165 4.402e-4,3.05e-4 4.055e-4,3.05e-4 0.073852,0.05073 4.401e-4,3.05e-4 4.055e-4,3.05e-4 0.074326,0.04982 4.401e-4,3.05e-4 4.402e-4,2.7e-4 0.05632,0.03689 0.1005564,-0.153659 -0.055474,-0.03632 -8.457e-4,-5.75e-4 -0.0726,-0.04867 -4.731e-4,-3.38e-4 -3.726e-4,-2.37e-4 -0.072126,-0.04958 -8.457e-4,-5.75e-4 -0.071652,-0.05046 -7.781e-4,-5.75e-4 -6.93e-5,-3.5e-5 -0.071178,-0.05134 -8.457e-4,-6.1e-4 -0.07067,-0.05222 -8.457e-4,-6.43e-4 -0.070163,-0.0531 -1.386e-4,-1.04e-4 -7.105e-4,-5.41e-4 -0.066,-0.05114 z m 9.522828,0.08536 -0.05297,0.03963 -8.46e-4,6.43e-4 -0.07301,0.05331 -0.0746,0.05324 -8.8e-4,6.1e-4 -0.07544,0.05246 -0.07514,0.051 -8.8e-4,6.1e-4 -0.07554,0.04999 -0.07683,0.04962 -8.8e-4,5.75e-4 -0.05585,0.0351 0.09778,0.155418 0.05673,-0.03567 4.73e-4,-2.7e-4 4.4e-4,-3.05e-4 0.07771,-0.05016 4.73e-4,-3.05e-4 4.4e-4,-2.7e-4 0.0773,-0.05117 4.41e-4,-3.05e-4 4.4e-4,-3.05e-4 0.0769,-0.05219 4.4e-4,-3.05e-4 4.4e-4,-3.05e-4 0.07629,-0.05307 4.4e-4,-3.05e-4 4.4e-4,-3.05e-4 0.07551,-0.05385 4.06e-4,-3.05e-4 4.4e-4,-3.05e-4 0.0747,-0.05459 4.4e-4,-3.05e-4 4.06e-4,-3.38e-4 0.05382,-0.04028 -0.110033,-0.146991 z m -8.3794442,0.658091 -0.086273,0.162086 0.037603,0.02004 4.731e-4,2.37e-4 4.401e-4,2.38e-4 0.07859,0.04072 4.731e-4,2.37e-4 4.401e-4,2.38e-4 0.078963,0.03977 4.748e-4,2.38e-4 4.731e-4,2.02e-4 0.079335,0.03885 4.402e-4,2.37e-4 4.748e-4,2.38e-4 0.079707,0.03791 4.402e-4,2.37e-4 4.731e-4,2.03e-4 0.080046,0.03703 4.731e-4,2.02e-4 4.731e-4,2.03e-4 0.080418,0.03608 4.402e-4,2.38e-4 4.731e-4,2.03e-4 0.080756,0.03516 4.731e-4,2.03e-4 4.73e-4,1.73e-4 0.027686,0.01171 0.071449,-0.169159 -0.026772,-0.01131 -4.402e-4,-2.02e-4 -5.077e-4,-2.03e-4 -0.078861,-0.03435 -6.1e-4,-2.7e-4 -3.05e-4,-1.39e-4 -0.07947,-0.03567 -0.078218,-0.03615 -9.133e-4,-4.4e-4 -0.07876,-0.0375 0,3.5e-5 -0.077507,-0.03798 -9.133e-4,-4.4e-4 -0.077135,-0.03885 -9.133e-4,-4.73e-4 -0.077643,-0.04024 -0.036723,-0.01953 z m 7.2233002,0.06488 -0.05818,0.02951 -4.75e-4,2.37e-4 -4.73e-4,2.37e-4 -0.07944,0.03913 -9.48e-4,4.75e-4 -0.07977,0.03818 -9.48e-4,4.4e-4 -0.08005,0.0372 -3.4e-5,0 -9.14e-4,4.4e-4 -0.08133,0.03662 0,3.5e-5 -0.08062,0.0352 -5.75e-4,2.38e-4 -3.73e-4,1.73e-4 -0.08093,0.03425 -9.48e-4,4.05e-4 -0.07531,0.0309 0.06965,0.169904 0.07629,-0.03127 4.73e-4,-2.03e-4 4.73e-4,-2.03e-4 0.08286,-0.0351 4.73e-4,-2.03e-4 4.73e-4,-2.03e-4 0.08255,-0.03608 4.73e-4,-2.03e-4 5.07e-4,-2.03e-4 0.08225,-0.03709 4.73e-4,-2.03e-4 4.75e-4,-2.37e-4 0.08197,-0.03808 4.73e-4,-2.03e-4 4.73e-4,-2.38e-4 0.08167,-0.03906 4.75e-4,-2.38e-4 4.73e-4,-2.37e-4 0.08133,-0.04007 4.73e-4,-2.38e-4 4.75e-4,-2.37e-4 0.05913,-0.02999 -0.08306,-0.163778 z m -5.9685633,0.467711 -0.05615,0.174811 0.066169,0.02125 4.749e-4,1.73e-4 4.73e-4,1.39e-4 0.083701,0.02586 4.731e-4,1.73e-4 4.748e-4,1.39e-4 0.083938,0.02491 4.731e-4,1.74e-4 4.748e-4,1.38e-4 0.084175,0.024 4.731e-4,1.38e-4 5.077e-4,1.39e-4 0.084378,0.02305 5.078e-4,1.38e-4 4.731e-4,1.39e-4 0.084615,0.0221 4.748e-4,1.39e-4 5.078e-4,1.04e-4 0.084818,0.02115 4.748e-4,1.39e-4 5.077e-4,1.38e-4 0.085021,0.02021 5.077e-4,1.38e-4 4.748e-4,1.39e-4 0.00853,0.0019 0.040514,-0.17911 -0.00751,-0.0017 -9.808e-4,-2.7e-4 -0.083058,-0.01973 -3.05e-4,-1.04e-4 -6.775e-4,-1.73e-4 -0.082889,-0.02068 -9.808e-4,-2.37e-4 -0.082652,-0.02159 -9.808e-4,-2.7e-4 -0.082415,-0.02251 -2.374e-4,-7e-5 -7.452e-4,-2.03e-4 -0.082212,-0.02342 -9.808e-4,-2.7e-4 -0.081975,-0.02437 -9.479e-4,-2.7e-4 -0.081738,-0.02528 -1.04e-4,-3.4e-5 -8.803e-4,-2.71e-4 -0.065187,-0.02095 z m 4.7043163,0.04352 -0.02975,0.0092 0,3.5e-5 -0.08323,0.02454 -9.81e-4,2.71e-4 -0.0834,0.02359 -5.41e-4,1.38e-4 -4.4e-4,1.39e-4 -0.08458,0.02288 0,3.4e-5 -0.083735,0.02163 -0.084886,0.02095 -0.00102,2.37e-4 -0.084039,0.01973 -1.387e-4,3.5e-5 -8.803e-4,2.03e-4 -0.08519,0.01899 -0.037671,0.008 0.037975,0.179685 0.038652,-0.0082 5.078e-4,-1.04e-4 5.077e-4,-1.04e-4 0.086206,-0.01922 5.078e-4,-1.04e-4 5.077e-4,-1.38e-4 0.086036,-0.02021 5.077e-4,-1.04e-4 5.078e-4,-1.39e-4 0.085901,-0.02119 4.731e-4,-1.39e-4 5.078e-4,-1.04e-4 0.085732,-0.0222 5.07e-4,-1.04e-4 5.08e-4,-1.73e-4 0.08556,-0.02318 5.08e-4,-1.38e-4 4.73e-4,-1.39e-4 0.08539,-0.02413 5.08e-4,-1.73e-4 4.73e-4,-1.39e-4 0.08522,-0.02515 4.75e-4,-1.39e-4 5.07e-4,-1.38e-4 0.02975,-0.0092 -0.05395,-0.175523 z m -3.3759983,0.263317 -0.02464,0.181987 0.085766,0.01161 5.077e-4,7e-5 5.077e-4,6.9e-5 0.086612,0.01076 5.077e-4,3.4e-5 5.078e-4,7e-5 0.086713,0.0098 5.078e-4,3.5e-5 5.077e-4,6.9e-5 0.086815,0.0089 5.077e-4,3.5e-5 5.077e-4,3.5e-5 0.086917,0.0079 5.078e-4,3.5e-5 5.077e-4,3.5e-5 0.087018,0.0069 5.077e-4,6.9e-5 5.078e-4,3.5e-5 0.087086,0.006 5.077e-4,3.4e-5 5.077e-4,0 0.080181,0.0046 0.01056,-0.183307 -0.079166,-0.0046 -8.128e-4,-6.9e-5 -2.027e-4,0 -0.085055,-0.0059 -0.00102,-6.9e-5 -0.085021,-0.0068 -0.085901,-0.0078 -8.127e-4,-7e-5 -2.028e-4,-3.4e-5 -0.085833,-0.0088 0,3.5e-5 -0.084716,-0.0096 -0.08563,-0.01063 -9.808e-4,-1.39e-4 -0.084784,-0.01147 z m 2.042603,0.01929 -0.061397,0.0073 -0.08519,0.0092 -7.452e-4,7e-5 -2.703e-4,3.4e-5 -0.085258,0.0083 -0.00102,1.04e-4 -0.086307,0.0074 -0.085326,0.0064 0,-3.5e-5 -0.086375,0.0055 -0.00102,6.9e-5 -0.085393,0.0045 -0.086409,0.0036 -7.781e-4,3.5e-5 -2.374e-4,0 -0.014486,4.4e-4 0.00562,0.183544 0.015468,-4.75e-4 5.077e-4,-3.4e-5 5.078e-4,0 0.087424,-0.0037 5.078e-4,0 5.077e-4,-3.4e-5 0.087424,-0.0046 5.078e-4,0 5.077e-4,-3.4e-5 0.08739,-0.0056 5.077e-4,-3.4e-5 5.078e-4,-3.5e-5 0.087356,-0.0065 5.077e-4,-3.5e-5 5.078e-4,-3.4e-5 0.087289,-0.0075 5.077e-4,-3.5e-5 5.077e-4,-6.9e-5 0.087289,-0.0085 5.077e-4,-7e-5 5.077e-4,-3.4e-5 0.087221,-0.0094 5.077e-4,-7e-5 5.078e-4,-6.9e-5 0.061396,-0.0073 -0.021797,-0.182326 z"
     id="path6"
     inkscape:connector-curvature="0" />
</svg>
