<svg xmlns="http://www.w3.org/2000/svg" viewBox="0 0 16 16">
 <path d="m15.647 2.6874c-0.24728 0.008-0.16917 0.0798-0.7035 0.21133-0.53957 0.13278-1.1986 0.0928-1.7796 0.33645-1.7345 0.72742-2.0825 3.2136-3.6593 4.1042-1.1786 0.66575-2.3678 0.71885-3.4369 1.0539-0.70258 0.22032-1.4712 0.67214-2.1077 1.2207-0.49411 0.42595-0.50701 0.80047-1.0233 1.3347-0.55222 0.57143-2.1947 0.01-2.9391 0.88424 0.2398 0.24247 0.34493 0.31039 0.81751 0.24748-0.0978 0.18544-0.67459 0.34172-0.56169 0.61452 0.11879 0.28704 1.5131 0.48162 2.7806-0.28363 0.59029-0.35638 1.0605-0.87007 1.9798-0.99268 1.1897-0.15856 2.5601 0.1017 3.9374 0.30031-0.20421 0.60889-0.61421 1.0138-0.94264 1.4988-0.1017 0.10953 0.20428 0.12181 0.55335 0.0556 0.62793-0.15527 1.0805-0.28029 1.5544-0.55613 0.5822-0.33892 0.67042-1.2079 1.3848-1.3959 0.398 0.61173 1.4805 0.75624 2.1522 0.26694-0.5894-0.16684-0.7523-1.4214-0.55334-1.9742 0.18846-0.52329 0.37467-1.3604 0.56446-2.0521 0.20377-0.74289 0.27894-1.6792 0.52554-2.0577 0.37102-0.56934 0.78136-0.76618 1.1373-1.0872 0.35592-0.32104 0.68082-0.63345 0.67013-1.3681-0.003-0.23661-0.12529-0.36867-0.35036-0.36148zm-0.48661 0.43656c0.0594 0.20261 0.15412 0.29648 0.55613 0.33368-0.0587 0.50967-0.40017 0.78638-0.78136 1.0538-0.33545 0.23527-0.70092 0.46392-0.93707 0.83141-0.24194 0.37648-0.39787 1.6639-0.77301 2.9364-0.32425 1.0994-0.81328 2.1875-1.6684 2.6638-0.0893-0.22485 0.0109-0.63939-0.16684-0.7758-0.11496 0.3279-0.2426 0.64073-0.39485 0.93152-0.50176 0.95902-1.2444 1.6771-2.4859 1.8964 0.58905-0.79709 1.1501-1.6209 1.1623-2.9947-0.41456 0.0897-0.40546 1.0674-0.83141 1.3291-0.27308 0.0297-0.55021 0.0306-0.82863 0.0139-1.1434-0.0685-2.3144-0.41271-3.384-0.0695-0.7283 0.23375-1.3242 0.78638-1.9409 1.0538-0.72483 0.31437-1.2746 0.4435-2.1772 0.31422-0.11461-0.15439 0.66087-0.35441 0.61452-0.6896-0.35326-0.0391-0.55771 0.0478-0.86478-0.0918 0.0339-0.0625 0.0819-0.11516 0.14459-0.1585 0.5628-0.38955 2.1637-0.0916 2.5916-0.51163 0.2636-0.259 0.4346-0.531 0.614-0.795 0.1739-0.256 0.3544-0.5042 0.6284-0.7283 0.1012-0.0828 0.2114-0.1649 0.3281-0.2447 0.4669-0.3195 1.0444-0.6094 1.6128-0.8092 0.7743-0.2722 1.5605-0.2936 2.3858-0.6089 0.50986-0.19486 1.0635-0.43622 1.5154-0.77301 0.10731-0.0801 0.20922-0.16435 0.30309-0.25582 1.2905-1.258 1.5458-3.4775 3.5592-3.6843 0.24345-0.025 0.44143-0.0167 0.62286-0.0222 0.2091-0.006 0.39378-0.0311 0.59505-0.14459zm-0.0945 0.13069c-0.012-0.00043-0.0322 0.009-0.0612 0.0361-0.17511 0.17938-0.52225 0.58417-0.64789 0.95931-0.0323 0.10233 0.0308 0.0714 0.0528 0.006 0.12458-0.38511 0.52132-0.80921 0.64233-0.93708 0.0295-0.0343 0.0339-0.0632 0.0139-0.0639zm0.0528 0.0862c-0.0119 0.001-0.0307 0.0138-0.0556 0.0445-0.14815 0.20225-0.43435 0.50903-0.50607 0.89814-0.0175 0.1058 0.0404 0.0682 0.0528 0 0.0693-0.3989 0.40141-0.73228 0.50329-0.8759 0.0244-0.0381 0.0254-0.0688 0.006-0.0667zm0.064 0.0806c-0.0118 0.002-0.0306 0.0174-0.0528 0.05-0.13063 0.21417-0.30323 0.46-0.34202 0.85365-0.009 0.10687 0.049 0.0636 0.0556-0.006 0.0356-0.40326 0.24981-0.6797 0.33924-0.83141 0.0212-0.04 0.0196-0.0705 0-0.0667zm0.0695 0.0584c-0.0116 0.003-0.0279 0.0211-0.0473 0.0556-0.11122 0.22477-0.21575 0.3941-0.21967 0.7897 0.00089 0.10713 0.0522 0.0611 0.0528-0.008 0-0.40477 0.14664-0.61123 0.22245-0.77023 0.0176-0.0417 0.0109-0.0722-0.008-0.0667zm-1.3597 0.19464c-0.34683 0.009-0.55289 0.15907-0.62008 0.44769 0.285 0.24745 0.88266 0.0502 0.77579-0.44212-0.0554-0.005-0.10617-0.007-0.15571-0.006zm-1.1846 6.5512c0.024 0.38457 0.24781 1.1493 0.4449 1.3347-0.386 0.0939-1.0529-0.0614-1.2235-0.33368 0.0876-0.39311 0.54518-0.75401 0.77858-1.001z"/>
</svg>