<?xml version="1.0" encoding="UTF-8" standalone="no"?>
<!-- Generator: Adobe Illustrator 19.1.0, SVG Export Plug-In . SVG Version: 6.00 Build 0)  -->

<svg
   xmlns:dc="http://purl.org/dc/elements/1.1/"
   xmlns:cc="http://creativecommons.org/ns#"
   xmlns:rdf="http://www.w3.org/1999/02/22-rdf-syntax-ns#"
   xmlns:svg="http://www.w3.org/2000/svg"
   xmlns="http://www.w3.org/2000/svg"
   xmlns:sodipodi="http://sodipodi.sourceforge.net/DTD/sodipodi-0.dtd"
   xmlns:inkscape="http://www.inkscape.org/namespaces/inkscape"
   version="1.1"
   id="Layer_1"
   x="0px"
   y="0px"
   viewBox="0 0 16 16"
   xml:space="preserve"
   inkscape:version="0.91 r13725"
   sodipodi:docname="mongodb.svg"
   width="16"
   height="16"><metadata
     id="metadata33"><rdf:RDF><cc:Work
         rdf:about=""><dc:format>image/svg+xml</dc:format><dc:type
           rdf:resource="http://purl.org/dc/dcmitype/StillImage" /><dc:title></dc:title></cc:Work></rdf:RDF></metadata><defs
     id="defs31" /><sodipodi:namedview
     pagecolor="#ffffff"
     bordercolor="#666666"
     borderopacity="1"
     objecttolerance="10"
     gridtolerance="10"
     guidetolerance="10"
     inkscape:pageopacity="0"
     inkscape:pageshadow="2"
     inkscape:window-width="1366"
     inkscape:window-height="705"
     id="namedview29"
     showgrid="false"
     inkscape:zoom="0.944"
     inkscape:cx="-14.300847"
     inkscape:cy="125"
     inkscape:window-x="-8"
     inkscape:window-y="-8"
     inkscape:window-maximized="1"
     inkscape:current-layer="Layer_1" /><style
     type="text/css"
     id="style3">
	.st0{fill:#DAF4CC;}
	.st1{fill:#6AAF4E;stroke:#424242;stroke-width:1.779;stroke-miterlimit:10;}
	.st2{fill:#FFFFFF;stroke:#424242;stroke-width:1.779;stroke-miterlimit:10;}
	.st3{fill:#424242;}
	.st4{fill:#FFFFFF;stroke:#424242;stroke-width:1.7265;stroke-miterlimit:10;}
	.st5{fill:none;stroke:#424242;stroke-width:2;stroke-miterlimit:10;}
	.st6{fill:#FFFFFF;stroke:#424242;stroke-width:2;stroke-miterlimit:10;}
	.st7{fill:#87D05F;}
	.st8{fill:#67B145;}
	.st9{fill:none;stroke:#424242;stroke-width:7;stroke-miterlimit:10;}
	.st10{fill:#FFFFFF;}
	.st11{fill:#6AAF4E;stroke:#6AAF4E;stroke-miterlimit:10;}
	.st12{fill:#424242;stroke:#424242;stroke-miterlimit:10;}
	.st13{fill:#6AAF4E;}
	.st14{fill:none;stroke:#6AAF4E;stroke-width:5;stroke-miterlimit:10;}
	.st15{fill:#FFFFFF;stroke:#6AAF4E;stroke-width:5;stroke-miterlimit:10;}
	.st16{fill:#68B245;}
	.st17{fill:none;stroke:#68B245;stroke-width:5;stroke-miterlimit:10;}
	.st18{fill:none;stroke:#6AAF4E;stroke-width:5;stroke-linecap:square;stroke-linejoin:round;stroke-miterlimit:10;}
	.st19{display:none;}
	.st20{display:inline;fill:none;stroke:#6AAF4E;stroke-width:4.1715;stroke-miterlimit:10;}
	.st21{display:inline;fill:none;stroke:#6AAF4E;stroke-width:4;stroke-miterlimit:10;}
	.st22{display:inline;fill:#6AAF4E;}
	.st23{fill:none;stroke:#6AAF4E;stroke-width:4.2239;stroke-miterlimit:10;}
	.st24{fill:#4BA647;}
</style><g
     class="st19"
     id="g9"
     style="display:none"
     transform="translate(0,-234)"><polygon
       class="st20"
       points="88.5,177.9 108.7,162.2 115.3,189 134.7,117.4 105.9,108.7 "
       id="polygon11"
       style="display:inline;fill:none;stroke:#6aaf4e;stroke-width:4.17150021;stroke-miterlimit:10" /><polygon
       class="st20"
       points="162.9,174.7 142.7,159.1 136.1,185.9 116.7,114.3 145.5,105.6 "
       id="polygon13"
       style="display:inline;fill:none;stroke:#6aaf4e;stroke-width:4.17150021;stroke-miterlimit:10" /><polygon
       class="st21"
       points="163.6,88.1 156.1,96.8 154.5,108.1 143.5,111.4 136,120 125,116.8 114,120 106.5,111.4 95.5,108.2 93.9,96.8 86.4,88.1 91.1,77.7 89.5,66.4 99.1,59.8 103.9,49 115.4,49 125,42.8 134.6,49 146.1,49 150.9,59.8 160.5,66.2 158.9,77.6 "
       id="polygon15"
       style="display:inline;fill:none;stroke:#6aaf4e;stroke-width:4;stroke-miterlimit:10" /><circle
       class="st22"
       cx="125"
       cy="82.099998"
       r="27.1"
       id="circle17"
       style="display:inline;fill:#6aaf4e" /></g><path
     style="fill:#000000"
     d="m 7.9285227,-1.2e-4 c -0.02008,0.33125 -0.04015,0.45158 -0.351321,0.78283 -0.481811,0.3714 -2.961133,2.44925 -3.161888,6.6651 -0.190717,3.93479 2.850757,6.28362 3.252267,6.57472 l 0.110376,0.0602 c 0.03011,0.0201 -0.04007,-7.92981 0.180758,-7.92981 0.120453,0 0.271058,6.48438 0.341322,7.87963 -7.02e-4,0.002 10e-4,0.003 0.0043,0.003 -0.197661,0.10722 -0.337271,0.10708 -0.516199,0.0474 l 0.150567,1.7968 0.371318,0.12037 c -0.01003,0 0.01999,-1.11243 0,-1.9654 0.06696,-0.0101 0.496051,-0.2086 0.843209,-0.57403 C 10.177081,12.53722 12.114364,10.18831 11.461911,6.35389 10.618741,2.63993 8.6311897,1.42548 8.4203977,0.95371 8.1895307,0.62246 7.9487027,0.04011 7.9487027,0.04011 l 0,0.0102 c -0.01004,-0.0201 -0.01016,-0.0401 -0.02019,-0.0502 z m 1.234721,13.46057 c 0,0.01 -0.01004,0.01 0,0 z"
     id="path23"
     inkscape:connector-curvature="0" /></svg>