<svg xmlns="http://www.w3.org/2000/svg" viewBox="0 0 16 16">
 <path d="m7.9285-0c-0.02 0.33125-0.04015 0.45158-0.35132 0.78283-0.48181 0.3714-2.9611 2.4492-3.1619 6.6651-0.19072 3.9348 2.8508 6.2836 3.2523 6.5747l0.11038 0.0602c0.03011 0.0201-0.04-7.9298 0.18076-7.9298 0.12045 0 0.27106 6.4844 0.34132 7.8796-0 0.002 0.001 0.003 0.0043 0.003-0.19766 0.10722-0.33727 0.10708-0.5162 0.0474l0.15057 1.7968 0.37132 0.12037c-0.01003 0 0.02-1.1124 0-1.9654 0.06696-0.0101 0.49605-0.2086 0.84321-0.57403 1.0237-0.924 2.9607-3.273 2.3087-7.1071-0.843-3.714-2.8308-4.9284-3.0416-5.4-0.2309-0.33124-0.4717-0.91359-0.4717-0.91359v0.0102c-0.01-0.0201-0.01016-0.0401-0.02019-0.0502zm1.2347 13.461c0 0.01-0.01 0.01 0 0z"/>
</svg>