<svg xmlns="http://www.w3.org/2000/svg" viewBox="0 0 16 16">
 <path d="m8.0217 4.8c-0.48257 0-0.96957 0.096232-1.4237 0.31438-0.83535 0.40071-1.4777 1.1839-1.705 2.0796-0.040507 0.15952-0.068321 0.28248-0.070309 0.30071-0.00199 0.018237-0.00265 0.039922-0.00391 0.048817-0.1486-0.0038-0.3111 0.0166-0.418 0.0742-0.2013 0.1131-0.3065 0.3229-0.3066 0.6132-0.0000599 0.25204 0.066353 0.37386 0.24217 0.43545 0.15739 0.055399 0.35148 0.024225 0.51364-0.041006 0.014001 0.065814 0.023866 0.13506 0.054684 0.23823 0.030818 0.10316 0.09387 0.3106 0.18358 0.49794 0.45769 0.95559 1.3031 1.6037 2.3514 1.8023 0.33465 0.06299 0.96393 0.04107 1.3085-0.04491 0.67527-0.16916 1.278-0.54207 1.703-1.0545 0.25396-0.30623 0.27634-0.366 0.05273-0.14255-0.33618 0.33622-0.70758 0.55615-1.1835 0.70101-0.25099 0.07599-0.33481 0.08591-0.748 0.08591-0.41321 0-0.49702-0.0099-0.748-0.08591-0.3216-0.098-0.5335-0.2-0.8046-0.383-0.4577-0.3105-0.8591-0.839-1.0293-1.3589l-0.01953-0.062485c-0.00583-0.031482-0.01561-0.097637-0.023436-0.13864 0.036011-0.00698 0.066458-0.0072 0.10742-0.019527 0.281-0.0829 0.4391-0.3199 0.4433-0.6638 0.002-0.1682-0.0109-0.2335-0.0625-0.3027-0.089-0.1195-0.2787-0.1822-0.4882-0.1621-0.016508 0-0.031022 0.0054-0.046872 0.00781 0.00913-0.059032 0.012447-0.11821 0.027342-0.17574 0.27365-1.001 0.92299-1.6857 1.8964-1.982 0.25099-0.075983 0.3348-0.085919 0.748-0.085919s0.49702 0.00994 0.748 0.085919c0.4759 0.1449 0.8475 0.3649 1.1835 0.701 0.224 0.2236 0.201 0.1636-0.053-0.1425-0.6067-0.7317-1.508-1.1311-2.4293-1.1404zm1.0546 1.8668c-0.010506 0.0009497-0.033082 0.015876-0.070309 0.05077-0.12328 0.11587-0.18815 0.31955-0.17187 0.5448 0.015999 0.22115 0.082959 0.3312 0.25194 0.42178 0.060597 0.032992 0.1295 0.099715 0.15429 0.1484 0.072696 0.14287 0.16658 0.22916 0.44333 0.41202 0.29589 0.19556 0.36762 0.28627 0.3906 0.49012 0.0348 0.30893-0.18512 0.49041-0.61911 0.5116-0.2251 0.011-0.2761 0.0005-0.4023-0.0645-0.1826-0.0979-0.2891-0.2508-0.2891-0.4159 0-0.32473 0.29727-0.54184 0.61325-0.44717 0.14134 0.041991 0.18944 0.11075 0.18944 0.26752 0 0.14357-0.099759 0.24869-0.23436 0.24799-0.127-0.0005-0.1591-0.0205-0.2245-0.1425-0.046697-0.08698-0.051531-0.091371-0.052731-0.025385-0.002 0.08798 0.096256 0.19286 0.20702 0.22065 0.2388 0.06 0.4565-0.2453 0.3359-0.4706-0.0789-0.1474-0.416-0.2093-0.6055-0.1113-0.13639 0.070984-0.25068 0.22279-0.27538 0.36906-0.017399 0.10288-0.00646 0.16291 0.052731 0.28119 0.089695 0.17866 0.19331 0.26015 0.40232 0.31634 0.38493 0.10338 0.84393-0.00142 1.08-0.23237 0.20699-0.20635 0.26338-0.46842 0.15038-0.70297-0.057-0.11747-0.13742-0.19673-0.3574-0.35929-0.15669-0.11497-0.28544-0.21777-0.28514-0.22846 0.00029-0.010997 0.077468-0.053738 0.16991-0.093729 0.12956-0.055988 0.20431-0.06672 0.32811-0.052722 0.12674 0.013997 0.18265 0.0001248 0.26366-0.046864 0.22-0.1382 0.291-0.3929 0.164-0.58-0.123-0.1807-0.261-0.2417-0.539-0.2402-0.51742 0-0.91962 0.34425-0.9394 0.79865-0.004 0.080982-0.011678 0.14645-0.017577 0.14645-0.073996 0-0.21631-0.12575-0.26561-0.23432-0.099894-0.21985-0.068165-0.48155 0.082027-0.66001 0.061945-0.073663 0.083548-0.11634 0.070309-0.11911zm1.1445 0.11716c0.09909 0.0009998 0.19426 0.016918 0.2617 0.044911 0.12133 0.050988 0.24003 0.21574 0.24022 0.33391 0.00019 0.12387-0.09782 0.29224-0.20116 0.34563-0.09689 0.049989-0.29502 0.073046-0.33006 0.039054-0.0103-0.01 0.0179-0.072656 0.0625-0.13864 0.15304-0.22545 0.13824-0.44313-0.0332-0.48622-0.11176-0.027993-0.24506 0.076233-0.28123 0.2187-0.022099 0.08698-0.013137 0.14369 0.03906 0.26166l0.066404 0.15036-0.11913 0.060533c-0.2147 0.1082-0.2498 0.1099-0.3225 0.0175-0.1932-0.2454-0.0593-0.6404 0.2676-0.7889 0.0887-0.04 0.2218-0.0586 0.3498-0.0566v-0.00195zm3.2693 0.097635c-0.0496 0-0.1001 0.023167-0.15233 0.076155-0.09549 0.094979-0.10152 0.1875-0.01562 0.27338 0.09269 0.092979 0.23833 0.082497 0.32029-0.021479 0.0762-0.096979 0.06359-0.18825-0.03711-0.27533-0.0392-0.033992-0.07668-0.051722-0.11523-0.052722zm-12.191 0.00976c-0.37315 0-0.60972 0.17213-0.67379 0.51356-0.013499 0.071984-0.009234 0.11911 0.009765 0.11911 0.017399 0 0.039979-0.055135 0.050778-0.12302 0.067296-0.42101 0.45155-0.55298 1.0956-0.37492 0.15878 0.04399 0.33844 0.081013 0.40037 0.082013 0.25102 0.01 0.25531-0.012897-0.17968 0.74983-0.5202 0.9129-0.6217 1.0468-0.894 1.1754-0.16692 0.079-0.5521 0.0857-0.69917 0.0117-0.22688-0.1145-0.34373-0.2835-0.34373-0.494 0-0.071984-0.015502-0.12888-0.033201-0.12888-0.056097 0-0.034342 0.23145 0.035154 0.37492 0.075597 0.1561 0.19874 0.2542 0.39451 0.3183 0.08159 0.027 0.216 0.0393 0.34568 0.0313 0.47686-0.031 0.73206-0.2907 1.2343-1.2517 0.0516-0.099 0.1017-0.1795 0.1114-0.1796 0.010002 0 0.043216 0.3138 0.074214 0.69711 0.030998 0.38341 0.061556 0.70203 0.068357 0.70883 0.027798 0.027993 0.098577-0.05541 0.56442-0.66977 0.26798-0.35362 0.49242-0.63827 0.49802-0.63267 0.006 0.01-0.032283 0.15204-0.08398 0.3261-0.14199 0.47749-0.12343 0.71887 0.068356 0.86114 0.15549 0.11537 0.46168 0.097681 0.50388-0.02929 0.009-0.026995-0.01893-0.023323-0.082027 0.013669-0.1259 0.072-0.1904 0.04-0.2149-0.1074-0.0285-0.1722 0.0187-0.3845 0.2461-1.1072l0.1992-0.6307 0.1289-0.0645c0.0947-0.0479 0.113-0.0654 0.0644-0.0664-0.2073-0.01-0.6996 0.5-1.3944 1.4333-0.0949 0.1274-0.1765 0.2284-0.1797 0.2246-0.003 0-0.029592-0.31749-0.05859-0.69711-0.0752-0.9862-0.04-0.8857-0.3164-0.91-0.1277-0.011-0.3246-0.0499-0.4394-0.0859-0.1855-0.057-0.3539-0.0859-0.5-0.0879zm8.8569 0.085919c0.14602 0 0.19587 0.16902 0.10351 0.34758-0.0247 0.047989-0.07353 0.11396-0.10937 0.14645-0.063 0.057987-0.06623 0.056924-0.11523-0.039053-0.10189-0.19656-0.03289-0.45498 0.12109-0.45498zm5.5466 0.14059c-0.03009 0.0008999-0.09768 0.00972-0.17382 0.011716-0.12394 0.010997-0.18358 0.03154-0.18358 0.060533 0 0.022995-0.01606 0.114-0.03515 0.20308-0.0301 0.14047-0.04406 0.16207-0.11132 0.16207-0.0427 0-0.07812 0.0152-0.07812 0.033196s0.02914 0.031243 0.06445 0.031243c0.0769 0 0.07672 0.010313 0.01562 0.35344-0.0862 0.48929-0.05643 0.63635 0.14452 0.71664 0.07739 0.030993 0.28386-0.0006404 0.36912-0.056628 0.0861-0.055988 0.20888-0.27017 0.20702-0.36125-0.00064-0.031993-0.03703 0.018724-0.08203 0.1113-0.08569 0.17726-0.22081 0.27952-0.31834 0.24213-0.0461-0.017996-0.0518-0.05081-0.0332-0.23237 0.012-0.11647 0.04762-0.3342 0.07812-0.48427l0.05469-0.27338 0.20116-0.00977c0.24524-0.011997 0.23358-0.070297-0.01367-0.070297-0.0961 0-0.17411-0.010435-0.17382-0.023432 0.000289-0.012997 0.02197-0.11097 0.04687-0.21675s0.04216-0.19492 0.03906-0.19722c-0.000769-0.0005998-0.0078-0.0002999-0.01758 0zm-8.8491 0.40421v0.00195c-0.064096-0.0007999-0.12847 0.018543-0.17968 0.060533-0.084195 0.069984-0.06194 0.086372 0.035154 0.025385 0.034298-0.020995 0.069121-0.030478 0.078121-0.021479 0.009 0.01-0.019652 0.21388-0.06445 0.45693-0.076096 0.41321-0.078192 0.44874-0.029295 0.52332 0.028698 0.043991 0.084392 0.091302 0.12304 0.1074 0.11434 0.045989 0.20253 0.035742 0.28319-0.031243 0.084195-0.069984 0.061939-0.086371-0.035154-0.025385-0.034298 0.020995-0.070221 0.031431-0.078121 0.023432-0.008-0.01 0.012821-0.15303 0.044919-0.32219 0.092995-0.48939 0.23624-0.72566 0.4238-0.69906 0.10161 0.013997 0.10912 0.12535 0.03906 0.54675-0.053197 0.31993-0.054303 0.34735-0.00391 0.42373 0.066096 0.10088 0.24229 0.13915 0.37693 0.083966 0.052697-0.021995 0.095698-0.052347 0.095698-0.068344 0-0.037992-0.021602-0.035274-0.095698 0.011716-0.034298 0.020995-0.070021 0.031431-0.078121 0.023432-0.008-0.01 0.016134-0.19086 0.052732-0.40811 0.062901-0.37301 0.064373-0.40152 0.013676-0.50769-0.1108-0.2328-0.4348-0.2659-0.6212-0.0645l-0.1015 0.1094-0.0332-0.0937c-0.034-0.098-0.1393-0.1551-0.2461-0.1563zm5.9176 0.00195c-0.0362 0-0.12271 0.056088-0.1914 0.12497-0.12447 0.12447-0.12504 0.12445-0.14452 0.046864-0.0399-0.15886-0.3531-0.22145-0.46091-0.091777-0.0477 0.056987-0.0218 0.060752 0.0625 0.00977 0.0343-0.020995 0.07002-0.031431 0.07812-0.023432 0.008 0.01-0.02673 0.24519-0.07812 0.52723-0.0514 0.28194-0.09375 0.52524-0.09375 0.53894 0 0.013997 0.07691 0.023432 0.17186 0.023432h0.17187l0.05664-0.29681c0.09299-0.49559 0.26831-0.79279 0.46482-0.79279 0.19913 0 0.2133 0.17116 0.03711 0.4374-0.13508 0.20405-0.18799 0.33196-0.13671 0.33196 0.0177 0 0.04269-0.033258 0.05469-0.07225 0.0121-0.039991 0.05435-0.11494 0.09375-0.16793 0.25363-0.34022 0.2165-0.59362-0.08593-0.59362v-0.00195zm1.1757 0c-0.0889 0-0.23827 0.064048-0.23827 0.10154 0 0.036992 0.0222 0.034273 0.0957-0.011716 0.03429-0.020996 0.06847-0.033383 0.07617-0.025385 0.008 0.01-0.04962 0.34763-0.12694 0.75374-0.07729 0.40601-0.14043 0.74835-0.14062 0.76155-0.00019 0.012997 0.07798 0.025385 0.17382 0.025385h0.17382l0.0332-0.16988c0.018-0.092979 0.03667-0.19708 0.04297-0.23237 0.007-0.037992 0.03148-0.058768 0.05859-0.050769 0.465 0.13237 0.87022-0.18711 0.87495-0.6893 0.002-0.23865-0.05804-0.34954-0.22655-0.41983-0.15277-0.063985-0.31457-0.031103-0.43357 0.087871-0.10664 0.10658-0.12109 0.11125-0.12109 0.046864 0-0.064985-0.15373-0.17769-0.24217-0.17769zm-2.5545 0.00977c-0.0991 0-0.20518 0.027072-0.30662 0.080061-0.26615 0.13747-0.42213 0.55186-0.31444 0.8338 0.0528 0.13817 0.10898 0.18749 0.26952 0.23628 0.22908 0.069984 0.47543-0.0001687 0.63082-0.16793 0.10723-0.11867 0.13857-0.18746 0.08593-0.18746-0.0139 0-0.05188 0.0446-0.08398 0.099587-0.12078 0.20445-0.40306 0.28834-0.53317 0.15817-0.0495-0.049989-0.06445-0.10793-0.06445-0.2519 0-0.51368 0.30262-0.88629 0.55075-0.67954l0.07422 0.062485h-0.08203c-0.17993 0-0.26659 0.24622-0.12695 0.35929 0.09779 0.078983 0.18174 0.074452 0.27538-0.019527 0.09569-0.095979 0.09957-0.19119 0.01367-0.33196-0.0774-0.12697-0.22351-0.19346-0.38865-0.19136zm1.9472 0.025385c-0.1391 0-0.24217 0.013247-0.24217 0.031243s0.02991 0.033195 0.0664 0.033195c0.0481 0 0.06288 0.013685 0.05078 0.054675-0.0565 0.19096-0.14621 0.7902-0.1289 0.85918 0.0114 0.04499 0.05703 0.10368 0.10351 0.12888 0.11892 0.064985 0.24146 0.058362 0.33006-0.015621 0.0842-0.069984 0.06194-0.086371-0.03515-0.025385-0.0343 0.020995-0.06982 0.031431-0.07812 0.023432-0.008-0.01 0.02858-0.24012 0.08007-0.51356 0.0516-0.27354 0.09365-0.51499 0.09375-0.53699 0.00009-0.027993-0.06897-0.039053-0.24022-0.039053zm-8.5737 0.031243h0.00195c0.021166 0.0001606 0.023343 0.010125 0.037107 0.017574v0.048817c-0.00679 0.022727 0.00297 0.081618 0 0.11911-0.012384 0.18291-0.019219 0.37101 0.00391 0.60143-0.038639 0.098104-0.081756 0.19072-0.13281 0.22651-0.16819 0.11777-0.24413 0.035026-0.24413-0.25971 0-0.39558 0.15764-0.75154 0.33397-0.75374zm1.2714 0c0.10713 0 0.12695 0.046318 0.12695 0.29876 0 0.25934-0.083725 0.54849-0.19335 0.66587-0.012583 0.013462-0.024703 0.013651-0.039059 0.025385-0.0456-0.25128-0.084925-0.54948-0.052731-0.908 0.046917-0.050063 0.099232-0.082013 0.15819-0.082013zm8.4761 0c0.0191 0.0004999 0.03603 0.00962 0.05273 0.015621 0.0473 0.029993 0.05678 0.083247 0.05468 0.32219-0.003 0.30493-0.06897 0.51608-0.20311 0.65024-0.0791 0.078983-0.23434 0.088558-0.29295 0.017574-0.0596-0.071984 0.02052-0.55785 0.12694-0.76741 0.0767-0.15107 0.17891-0.24033 0.2617-0.23823z"/>
</svg>