<?xml version="1.0" encoding="UTF-8" standalone="no"?>
<svg
   xmlns:dc="http://purl.org/dc/elements/1.1/"
   xmlns:cc="http://creativecommons.org/ns#"
   xmlns:rdf="http://www.w3.org/1999/02/22-rdf-syntax-ns#"
   xmlns:svg="http://www.w3.org/2000/svg"
   xmlns="http://www.w3.org/2000/svg"
   xmlns:sodipodi="http://sodipodi.sourceforge.net/DTD/sodipodi-0.dtd"
   xmlns:inkscape="http://www.inkscape.org/namespaces/inkscape"
   width="16pt"
   height="16pt"
   viewBox="0 0 16 16"
   id="svg2"
   version="1.1"
   inkscape:version="0.91 r13725"
   sodipodi:docname="mysql.svg">
  <metadata
     id="metadata40">
    <rdf:RDF>
      <cc:Work
         rdf:about="">
        <dc:format>image/svg+xml</dc:format>
        <dc:type
           rdf:resource="http://purl.org/dc/dcmitype/StillImage" />
        <dc:title></dc:title>
      </cc:Work>
    </rdf:RDF>
  </metadata>
  <defs
     id="defs38" />
  <sodipodi:namedview
     pagecolor="#ffffff"
     bordercolor="#666666"
     borderopacity="1"
     objecttolerance="10"
     gridtolerance="10"
     guidetolerance="10"
     inkscape:pageopacity="0"
     inkscape:pageshadow="2"
     inkscape:window-width="1366"
     inkscape:window-height="705"
     id="namedview36"
     showgrid="false"
     inkscape:zoom="0.86751918"
     inkscape:cx="339.47376"
     inkscape:cy="257.16686"
     inkscape:window-x="-8"
     inkscape:window-y="-8"
     inkscape:window-maximized="1"
     inkscape:current-layer="svg2" />
  <path
     style="fill:#000000;fill-rule:nonzero;stroke:none;stroke-width:0.87088001;stroke-linecap:butt;stroke-linejoin:miter;stroke-dasharray:none"
     d="m 2.3632773,1.721218 c -0.30481,-0.005 -0.5708,0.10946 -0.70911,0.44681 -0.23289,0.56784 0.34794,1.12195 0.55571,1.40966 0.14585,0.20186 0.33266,0.42822 0.43686,0.65522 0.0685,0.14918 0.0804,0.29873 0.13903,0.45662 0.14435,0.38887 0.2699,0.81199 0.45662,1.1714 0.0944,0.18183 0.19827,0.37331 0.31759,0.53595 0.0731,0.0998 0.19854,0.14373 0.21836,0.29783 -0.1226,0.17154 -0.12956,0.43788 -0.19846,0.65521 -0.31028,0.97839 -0.19334,2.19446 0.25802,2.91856 0.13851,0.22227 0.46471,0.69901 0.91324,0.51618 0.39236,-0.15983 0.30471,-0.65501 0.41696,-1.09193 0.0254,-0.0991 0.01,-0.17193 0.0596,-0.23826 l 0,0.0199 c 0.11914,0.23823 0.23825,0.47646 0.35739,0.71464 0.26447,0.42597 0.73385,0.87117 1.1316,1.17154 0.20627,0.15576 0.36878,0.42508 0.63546,0.51619 l 0,-0.0199 -0.0199,0 c -0.0517,-0.0806 -0.13262,-0.11395 -0.1986,-0.1787 -0.15541,-0.15231 -0.3281,-0.34167 -0.45662,-0.51619 -0.36176,-0.49115 -0.68154,-1.02878 -0.97281,-1.58835 -0.13913,-0.26716 -0.26001,-0.56199 -0.37729,-0.83392 -0.0452,-0.10485 -0.0447,-0.26326 -0.13889,-0.31758 -0.12843,0.19926 -0.31763,0.36036 -0.41696,0.59565 -0.15885,0.37608 -0.1793,0.83468 -0.23812,1.31029 -0.0349,0.0125 -0.0194,0.004 -0.0398,0.0198 -0.2765,-0.0667 -0.3737,-0.35134 -0.47639,-0.59552 -0.25995,-0.61759 -0.30833,-1.61202 -0.0796,-2.3229 0.0592,-0.1839 0.32676,-0.76324 0.2185,-0.93314 -0.0517,-0.16956 -0.22229,-0.2675 -0.31773,-0.39706 -0.11808,-0.16014 -0.236,-0.37105 -0.31773,-0.55598 -0.21272,-0.48155 -0.31199,-1.02203 -0.53595,-1.50876 -0.10702,-0.2327 -0.28803,-0.46825 -0.43671,-0.67512 -0.16461,-0.22915 -0.34898,-0.39794 -0.47653,-0.67511 -0.0454,-0.0985 -0.10697,-0.25603 -0.0397,-0.35726 0.0214,-0.0683 0.0516,-0.0968 0.11913,-0.11913 0.11516,-0.0888 0.43591,0.0295 0.55585,0.0793 0.31842,0.13224 0.58399,0.25823 0.85368,0.43686 0.12949,0.0859 0.26048,0.25187 0.41695,0.29782 l 0.1787,0 c 0.2795,0.0643 0.59257,0.0199 0.85367,0.0992 0.46153,0.14028 0.87509,0.35847 1.25073,0.59566 1.14436,0.72254 2.07994,1.75101 2.71996,2.97798 0.10296,0.19754 0.1476,0.38624 0.23826,0.59579 0.183,0.42255 0.41348,0.85727 0.59551,1.27049 0.18168,0.41228 0.3587897,0.82845 0.6155597,1.17154 0.13506,0.18035 0.65638,0.27705 0.89334,0.37715 0.1661,0.0702 0.4383,0.14331 0.59565,0.23813 0.30055,0.18132 0.59168,0.39722 0.87357,0.59579 0.1409,0.0992 0.57407,0.3169 0.59565,0.49628 -0.69821,-0.0189 -1.23163,0.046 -1.68758,0.23826 -0.12958,0.0547 -0.33625,0.0561 -0.35739,0.2185 0.0712,0.0747 0.0823,0.18611 0.13889,0.27792 0.10888,0.17619 0.29277,0.41226 0.45676,0.53609 0.1792,0.13524 0.36387,0.27995 0.55599,0.39705 0.34168,0.20839 0.7231,0.32735 1.05213,0.53609 0.19388,0.12303 0.38656,0.27795 0.57575,0.41682 0.0935,0.0686 0.15639,0.17537 0.27792,0.21836 l 0,-0.0198 c -0.0639,-0.0813 -0.0804,-0.19315 -0.13903,-0.27806 l -0.25802,-0.25802 c -0.25235,-0.33496 -0.57271,-0.62919 -0.91324,-0.87358 -0.27154,-0.19494 -0.8794,-0.45818 -0.99271,-0.77421 -0.007,-0.007 -0.0132,-0.0133 -0.0199,-0.0199 0.19256,-0.0217 0.41796,-0.0914 0.59565,-0.13903 0.29852,-0.08 0.56533,-0.0593 0.87358,-0.13889 0.13895,-0.0397 0.27791,-0.0795 0.41696,-0.11913 l 0,-0.0795 c -0.15585,-0.15992 -0.26695,-0.37148 -0.43686,-0.51618 -0.44455,-0.37857 -0.92978,-0.7568 -1.42943,-1.07218 -0.27711,-0.17491 -0.61959,-0.28863 -0.91324,-0.43685 -0.0988,-0.0498 -0.27235,-0.0757 -0.33763,-0.1588 -0.15425,-0.19668 -0.23828,-0.4459 -0.35725,-0.67498 -0.24925,-0.4799 -0.4940097,-1.00402 -0.7147797,-1.50889 -0.15063,-0.3443 -0.24894,-0.68396 -0.43672,-0.99284 -0.90148,-1.48213 -1.87184,-2.37674 -3.37504,-3.25605 -0.31983,-0.187 -0.70501,-0.26077 -1.11197,-0.35725 -0.21829,-0.0132 -0.4367,-0.0266 -0.65508,-0.0398 -0.13329,-0.0557 -0.27199,-0.2188 -0.39705,-0.29783 -0.31124,-0.19662 -0.92693,-0.53755 -1.43496,-0.54604 z m 2.14974,2.1543 c -0.14559,-0.003 -0.24851,0.0159 -0.35739,0.0397 l 0,0.0199 0.0199,0 c 0.0694,0.14268 0.1919,0.23447 0.27778,0.35739 0.0662,0.13898 0.13235,0.27792 0.1986,0.41681 0.007,-0.007 0.0134,-0.0132 0.0199,-0.0198 0.12295,-0.0866 0.17918,-0.22518 0.17856,-0.43672 -0.0493,-0.0518 -0.0565,-0.11698 -0.0992,-0.17883 -0.0568,-0.0824 -0.16657,-0.12919 -0.23812,-0.19846 z"
     id="path26"
     inkscape:connector-curvature="0" />
</svg>
