<svg xmlns="http://www.w3.org/2000/svg" viewBox="0 0 16 16">
 <path d="m0.9541 0.1502c-0.38102-0.00626-0.71351 0.13684-0.88639 0.5586-0.29112 0.7099 0.43492 1.4027 0.69464 1.7624 0.18231 0.2524 0.41585 0.5354 0.54605 0.8192 0.0856 0.1865 0.1005 0.3735 0.1738 0.5709 0.1804 0.4861 0.3374 1.0151 0.5708 1.4645 0.118 0.2273 0.2478 0.4667 0.397 0.67 0.0914 0.1248 0.2482 0.1797 0.2729 0.3724-0.1532 0.2144-0.1619 0.5474-0.248 0.8191-0.3879 1.2232-0.2417 2.7436 0.3225 3.6487 0.17314 0.27788 0.58089 0.87391 1.1416 0.64534 0.49045-0.19982 0.38089-0.8189 0.5212-1.3651 0.03175-0.1239 0.0125-0.21495 0.0745-0.29788v0.024879c0.1489 0.2977 0.2977 0.5957 0.4467 0.8937 0.33059 0.53255 0.91732 1.0891 1.4145 1.4646 0.25784 0.19473 0.46098 0.53144 0.79433 0.64535v-0.02487h-0.024875c-0.0646-0.101-0.1657-0.142-0.2482-0.223-0.1943-0.191-0.4101-0.428-0.5708-0.646-0.4522-0.614-0.8519-1.286-1.216-1.9856-0.1739-0.334-0.325-0.7026-0.4716-1.0426-0.0565-0.1311-0.0559-0.3291-0.1736-0.397-0.1606 0.2491-0.3971 0.4505-0.5212 0.7446-0.1986 0.4702-0.2242 1.0436-0.2977 1.6386-0.043625 0.01563-0.02425 0.005-0.04975 0.02476-0.3456-0.084-0.4671-0.44-0.5954-0.745-0.325-0.7723-0.3854-2.0155-0.0995-2.9043 0.074-0.2299 0.4084-0.9542 0.2731-1.1666-0.0646-0.212-0.2779-0.3345-0.3972-0.4964-0.1476-0.2002-0.295-0.4639-0.3971-0.6951-0.2659-0.6021-0.39-1.2777-0.67-1.8863-0.1338-0.291-0.36-0.5855-0.5459-0.8441-0.20573-0.2865-0.43619-0.4975-0.59563-0.844-0.05675-0.1232-0.13371-0.3201-0.04962-0.44668 0.02675-0.08539 0.0645-0.12102 0.14891-0.14894 0.14395-0.11101 0.54484 0.03689 0.69484 0.09915 0.398 0.16537 0.73 0.32287 1.0671 0.54617 0.1618 0.1074 0.3256 0.3149 0.5212 0.3723h0.22338c0.34938 0.080388 0.74072 0.024879 1.0671 0.12402 0.57691 0.17538 1.0939 0.44816 1.5634 0.7447 1.4305 0.90333 2.5999 2.1891 3.4 3.7231 0.1287 0.24697 0.1845 0.48288 0.29783 0.74486 0.22875 0.52828 0.51685 1.0718 0.74439 1.5884 0.2271 0.51544 0.44849 1.0357 0.76945 1.4646 0.16883 0.22548 0.82048 0.34637 1.1167 0.47152 0.20763 0.08776 0.54788 0.17917 0.74456 0.29771 0.37569 0.22669 0.7396 0.49661 1.092 0.74486 0.17612 0.12402 0.71759 0.39619 0.74456 0.62046-0.87277-0.02362-1.5395 0.05751-2.1095 0.29788-0.16198 0.06838-0.42031 0.07013-0.44674 0.27317 0.089 0.09339 0.10288 0.23268 0.17361 0.34746 0.1361 0.22028 0.36596 0.51541 0.57095 0.67023 0.224 0.16908 0.45484 0.35 0.69499 0.4964 0.4271 0.26053 0.90388 0.40926 1.3151 0.67023 0.24235 0.15381 0.4832 0.3475 0.71969 0.52111 0.115 0.088 0.194 0.221 0.346 0.275v-0.02475c-0.07987-0.10164-0.1005-0.24148-0.17379-0.34763l-0.32253-0.32258c-0.31544-0.41877-0.71589-0.78662-1.1416-1.0922-0.33943-0.24372-1.0993-0.57282-1.2409-0.96793-0.0088-0.0087-0.0165-0.01662-0.02488-0.02488 0.2407-0.02712 0.52245-0.11427 0.74456-0.17382 0.37315-0.10002 0.70666-0.07414 1.092-0.17364 0.17369-0.04963 0.34739-0.0994 0.5212-0.14894v-0.0994c-0.194-0.2-0.333-0.464-0.545-0.645-0.556-0.473-1.162-0.946-1.787-1.341-0.346-0.218-0.774-0.36-1.141-0.5457-0.124-0.0623-0.341-0.0946-0.422-0.1985-0.193-0.2459-0.298-0.5575-0.447-0.8439-0.311-0.6-0.617-1.2552-0.893-1.8864-0.189-0.4305-0.3115-0.8551-0.5463-1.2413-1.1268-1.8529-2.3397-2.9714-4.2187-4.0707-0.3998-0.2338-0.8813-0.326-1.39-0.4466-0.2729-0.0165-0.5459-0.0333-0.8189-0.0498-0.1666-0.0696-0.34-0.27355-0.4963-0.37235-0.389-0.24582-1.1587-0.67205-1.7938-0.68267zm2.6871 2.6933c-0.18199-0.00375-0.31064 0.019878-0.44674 0.049633v0.024879h0.024875c0.08675 0.17838 0.23988 0.29314 0.34723 0.44681 0.08275 0.17375 0.16544 0.34746 0.24825 0.5211 0.00875-0.00875 0.01675-0.016503 0.024875-0.024754 0.1536-0.1083 0.2239-0.2815 0.2231-0.546-0.0616-0.0648-0.0706-0.1462-0.124-0.2236-0.071-0.103-0.2082-0.1615-0.2976-0.2481z"/>
</svg>