<svg xmlns="http://www.w3.org/2000/svg" viewBox="0 0 16 16">
 <path d="M 0.95409679,0.15019506 C 0.57308299,0.14394401 0.24059428,0.28704333 0.06770618,0.70880288 -0.22340742,1.418724 0.50263269,2.1115423 0.76234609,2.4712287 0.94465929,2.7235968 1.1781726,3.0065951 1.3084231,3.2903936 1.3940481,3.4769004 1.4089234,3.6638698 1.4822112,3.861266 1.6626493,4.3474365 1.8195874,4.8764268 2.0529882,5.325766 2.1709886,5.5530923 2.3008266,5.7924832 2.4499771,5.9958178 2.5413521,6.1205892 2.698153,6.1755111 2.7229281,6.3681689 2.5696776,6.5826305 2.5609775,6.9156124 2.4748522,7.1873212 2.0870008,8.4105175 2.2331764,9.9309146 2.7973784,10.836194 c 0.1731381,0.277885 0.5808895,0.873912 1.1415541,0.645335 0.4904518,-0.199822 0.3808889,-0.818902 0.5212019,-1.365108 0.03175,-0.1238959 0.0125,-0.214949 0.0745,-0.2978756 l 0,0.024879 C 4.68356,10.141263 4.832448,10.439102 4.9813735,10.736877 c 0.3305887,0.532553 0.9173158,1.089148 1.414505,1.464625 0.2578385,0.194734 0.4609767,0.531441 0.7943279,0.645348 l 0,-0.02487 -0.024875,0 C 7.1007063,12.721203 6.9995559,12.679509 6.9170806,12.598558 6.7228174,12.408138 6.5069541,12.171397 6.3463036,11.95321 5.894102,11.339167 5.4943755,10.66699 5.1302868,9.9673708 4.9563736,9.6333637 4.8052731,9.2647633 4.6586726,8.9247928 4.6021724,8.7937079 4.6027974,8.5956616 4.4850595,8.52775 4.3245214,8.7768676 4.0880206,8.9782769 3.9638576,9.2724396 3.7652944,9.7426199 3.7397318,10.315968 3.6662066,10.910594 c -0.043625,0.01563 -0.02425,0.005 -0.04975,0.02476 C 3.2708301,10.85196 3.1493296,10.496098 3.0209667,10.190821 2.696028,9.4187022 2.6355528,8.1754775 2.9214663,7.2867007 2.9954666,7.0567865 3.3299178,6.3324878 3.1945923,6.1200766 3.1299671,5.9080904 2.9167288,5.7856445 2.7974284,5.6236668 2.6498278,5.4234577 2.5024273,5.1597751 2.4002645,4.9285732 2.1343635,4.3265329 2.0102756,3.6508551 1.7303246,3.0422512 1.5965491,2.7513266 1.3702858,2.4568387 1.1844351,2.1982071 0.97867189,1.9117207 0.74820859,1.7006972 0.58877049,1.3541755 0.53202029,1.2310296 0.45505759,1.0340834 0.53914539,0.90752429 c 0.02675,-0.0853896 0.0645,-0.12102066 0.148913,-0.14893792 C 0.83200889,0.64756742 1.2329478,0.79546763 1.3828733,0.85772824 1.7808998,1.0230565 2.1128634,1.1805708 2.4499771,1.4038964 2.6118402,1.5112898 2.7755783,1.7187877 2.9711665,1.776235 l 0.2233758,0 c 0.3493763,0.080388 0.7407152,0.024879 1.0670914,0.1240212 0.5769145,0.1753799 1.0938664,0.448164 1.5633805,0.7447021 1.4305051,0.9033293 2.5998847,2.1891238 3.4000117,3.7231355 0.128701,0.2469672 0.184501,0.4828825 0.297826,0.7448647 0.228751,0.5282777 0.5168521,1.0717704 0.7443911,1.5883961 0.2271,0.515438 0.448489,1.0357393 0.769452,1.4646254 0.168826,0.225476 0.820478,0.346371 1.116679,0.471518 0.207626,0.08776 0.547877,0.179168 0.744565,0.297713 0.375689,0.226688 0.739603,0.49661 1.091967,0.744865 0.176125,0.124021 0.71759,0.396192 0.744565,0.620456 -0.872766,-0.02362 -1.539506,0.05751 -2.109508,0.297876 -0.161975,0.06838 -0.420314,0.07013 -0.446739,0.273171 0.089,0.09339 0.102876,0.232677 0.173613,0.347459 0.136101,0.220275 0.365964,0.515413 0.570953,0.670227 0.224,0.16908 0.454839,0.349998 0.694989,0.496397 0.427102,0.260533 0.903879,0.409258 1.31513,0.670227 0.242351,0.153814 0.483202,0.347497 0.71969,0.521114 C 15.769475,15.662768 15.848087,15.796253 16,15.85 l 0,-0.02475 c -0.07987,-0.101642 -0.1005,-0.241478 -0.173788,-0.347634 l -0.322526,-0.32258 c -0.315438,-0.418772 -0.71589,-0.786623 -1.141554,-1.092162 -0.339426,-0.243716 -1.099254,-0.572822 -1.240892,-0.967927 -0.0088,-0.0087 -0.0165,-0.01662 -0.02488,-0.02488 0.240701,-0.02712 0.522452,-0.11427 0.744565,-0.173817 0.373152,-0.100017 0.706665,-0.07414 1.091979,-0.173643 0.173688,-0.04963 0.347389,-0.0994 0.521202,-0.148938 l 0,-0.0994 C 15.259298,12.274339 15.120422,12.009844 14.908034,11.828939 14.352345,11.355645 13.745805,10.882777 13.121278,10.48846 12.774889,10.269785 12.346787,10.127611 11.979724,9.942304 11.856223,9.8800434 11.639285,9.8476629 11.557685,9.7437701 11.364871,9.4978781 11.259834,9.1862999 11.111121,8.899901 10.799557,8.2999237 10.493606,7.6446868 10.217642,7.013454 10.029354,6.5830056 9.9064659,6.1583581 9.6717399,5.7721922 8.5448859,3.9192509 7.3319821,2.80081 5.4529754,1.7014973 5.0531865,1.4677074 4.5717098,1.3754792 4.0629705,1.2548585 3.790107,1.2383558 3.5170934,1.2216029 3.2441175,1.2051001 3.0775044,1.1354632 2.9041287,0.9315534 2.7478032,0.83274903 2.3587518,0.58693207 1.5891366,0.16069681 0.95404679,0.15008254 Z M 3.6412315,2.8435298 c -0.1819883,-0.00375 -0.3106387,0.019878 -0.4467392,0.049633 l 0,0.024879 0.024875,0 c 0.08675,0.1783804 0.2398758,0.2931375 0.3472263,0.4468138 0.08275,0.1737546 0.1654381,0.3474593 0.2482509,0.5211014 0.00875,-0.00875 0.01675,-0.016503 0.024875,-0.024754 C 3.9934077,3.7529351 4.0636955,3.5796804 4.0629205,3.3152103 4.0012952,3.2504493 3.9922952,3.1689604 3.93892,3.0916346 3.8679198,2.988617 3.7307068,2.9301195 3.641269,2.8435173 Z"/>
</svg>