<svg xmlns="http://www.w3.org/2000/svg" viewBox="0 0 16 16">
 <path d="m8 0c-0.22833 0.00012-0.45675 0.0572-0.6551 0.17073-1.9869 1.122-3.9738 2.2444-5.9611 3.366-0.38672 0.20815-0.64754 0.63305-0.64341 1.0741v6.7793c-0.002752 0.44969 0.27142 0.87875 0.66812 1.0842 0.57079 0.31068 1.1254 0.65298 1.7065 0.94302 0.67126 0.33752 1.5112 0.41219 2.1907 0.0602 0.55152-0.29177 0.79647-0.94067 0.79578-1.5369 0.00447-2.2374 0.0007486-4.4748 0.00178-6.7122 0.013074-0.0994-0.059864-0.20575-0.16583-0.20334-0.25391-0.004-0.50825-0.002-0.76217-0.00078-0.095992-0.009-0.18953 0.0723-0.18231 0.17106-0.00344 2.223 0.0006378 4.4466-0.00211 6.6699 0.0055 0.30759-0.19745 0.60317-0.48715 0.70708-0.32823 0.12283-0.69393 0.0275-0.99189-0.13278-0.52882-0.29864-1.058-0.59627-1.5864-0.89595-0.071908-0.0341-0.11462-0.10907-0.10774-0.1882 0-2.2367 0.0003441-4.4734 0-6.7098-0.00963-0.0901 0.044691-0.17131 0.12554-0.20813 1.9804-1.1154 3.9598-2.2336 5.9402-3.3497 0.070876-0.0482 0.1624-0.0478 0.23328 0.00033 1.9804 1.1158 3.9601 2.2329 5.9409 3.3483 0.0812 0.0368 0.13313 0.11944 0.12488 0.20924-0.000344 2.2364 0.000708 4.4731-0.000668 6.7095 0.0058 0.0791-0.03404 0.1558-0.10629 0.19055-1.9501 1.1027-3.903 2.201-5.8535 3.3033-0.09324 0.052-0.20368 0.13553-0.31275 0.0726-0.51127-0.28936-1.0163-0.59005-1.5259-0.88215-0.055393-0.0354-0.12595-0.0506-0.18375-0.011-0.22845 0.12317-0.45688 0.2502-0.70563 0.32933-0.11044 0.0447-0.24639 0.0574-0.32243 0.15994 0.086014 0.11801 0.22334 0.17582 0.34513 0.24841 0.59591 0.34509 1.1929 0.68886 1.7888 1.0343 0.39223 0.25048 0.91927 0.26828 1.3242 0.0367 1.9873-1.1206 3.9738-2.2425 5.9615-3.3631 0.39567-0.20643 0.67132-0.63379 0.66857-1.0838v-6.7793c0.0038-0.43214-0.24702-0.84953-0.62204-1.0608-1.9938-1.1275-3.9887-2.2526-5.9828-3.3793-0.19818-0.11406-0.42644-0.17086-0.65477-0.17073zm1.7368 4.8448c-0.22106-0.00096-0.44155 0.008-0.65822 0.022-0.62618 0.0633-1.2847 0.24008-1.7409 0.6994-0.46792 0.46172-0.56973 1.2074-0.34747 1.8102 0.1593 0.42594 0.56016 0.70285 0.97475 0.84942 1.0212 0.36883 2.1403 0.25047 3.1714 0.57664 0.20093 0.0681 0.43491 0.17236 0.4965 0.39599 0.05677 0.26493-0.0055 0.57287-0.2157 0.75694-0.39842 0.32273-0.94652 0.32925-1.4347 0.35092-0.58937-0.009-1.2351 0.0135-1.7498-0.31853-0.26664-0.18132-0.38159-0.50238-0.42839-0.80825-0.00516-0.0953-0.080151-0.18263-0.1813-0.1754-0.25323-0.003-0.50649-0.002-0.75972-0.00034-0.088423-0.008-0.18027 0.0567-0.18509 0.14892-0.020299 0.54636 0.18408 1.1124 0.60246 1.4757 0.48925 0.43179 1.1488 0.59832 1.7825 0.67057 0.67401 0.0657 1.3628 0.0619 2.0265-0.086 0.49888-0.11629 0.99911-0.33029 1.3425-0.72355 0.42354-0.4779 0.5069-1.1894 0.31698-1.7847-0.14519-0.44418-0.56021-0.72902-0.98443-0.87558-1.0246-0.35954-2.1314-0.33239-3.176-0.60558-0.18132-0.0571-0.40285-0.11898-0.4837-0.31096-0.085671-0.26733-0.012771-0.59938 0.22738-0.76384 0.31275-0.2171 0.70986-0.24906 1.079-0.26867 0.50576-0.005 1.0435-0.0165 1.5073 0.21569 0.30208 0.15483 0.47723 0.47266 0.54948 0.79367 0.01342 0.0943 0.07531 0.19278 0.18197 0.18865 0.2515 0.005 0.50298 0.001 0.75449 0.002 0.08636 0.006 0.18103-0.0437 0.19789-0.13423-0.01067-0.67091-0.34544-1.3576-0.94926-1.6848-0.58498-0.32023-1.2533-0.41303-1.9164-0.41592z"/>
</svg>