<?xml version="1.0" encoding="UTF-8" standalone="no"?>
<svg
   xmlns:dc="http://purl.org/dc/elements/1.1/"
   xmlns:cc="http://creativecommons.org/ns#"
   xmlns:rdf="http://www.w3.org/1999/02/22-rdf-syntax-ns#"
   xmlns:svg="http://www.w3.org/2000/svg"
   xmlns="http://www.w3.org/2000/svg"
   xmlns:sodipodi="http://sodipodi.sourceforge.net/DTD/sodipodi-0.dtd"
   xmlns:inkscape="http://www.inkscape.org/namespaces/inkscape"
   width="16"
   height="16"
   viewBox="0 0 16 16"
   version="1.1"
   preserveAspectRatio="xMinYMin meet"
   id="svg2"
   inkscape:version="0.91 r13725"
   sodipodi:docname="nodejs.svg">
  <metadata
     id="metadata14">
    <rdf:RDF>
      <cc:Work
         rdf:about="">
        <dc:format>image/svg+xml</dc:format>
        <dc:type
           rdf:resource="http://purl.org/dc/dcmitype/StillImage" />
        <dc:title></dc:title>
      </cc:Work>
    </rdf:RDF>
  </metadata>
  <defs
     id="defs12" />
  <sodipodi:namedview
     pagecolor="#ffffff"
     bordercolor="#666666"
     borderopacity="1"
     objecttolerance="10"
     gridtolerance="10"
     guidetolerance="10"
     inkscape:pageopacity="0"
     inkscape:pageshadow="2"
     inkscape:window-width="1366"
     inkscape:window-height="705"
     id="namedview10"
     showgrid="false"
     inkscape:zoom="0.83687943"
     inkscape:cx="199.09746"
     inkscape:cy="141"
     inkscape:window-x="-8"
     inkscape:window-y="-8"
     inkscape:window-maximized="1"
     inkscape:current-layer="g4" />
  <g
     id="g4"
     style="fill:#8cc84b"
     transform="translate(0,-266)">
    <path
       style="fill:#000000"
       d="m 8.0000011,265.99999 c -0.2283251,1.2e-4 -0.4567505,0.0572 -0.6550994,0.17073 -1.9869327,1.12197 -3.9738404,2.24435 -5.961117,3.36598 -0.38672075,0.20815 -0.64754202,0.63305 -0.64341333,1.07414 l 0,6.77926 c -0.002752,0.44969 0.27142303,0.87875 0.66812143,1.08416 0.5707916,0.31068 1.1254179,0.65298 1.7065311,0.94302 0.6712563,0.33752 1.5111633,0.41219 2.190677,0.0602 0.5515244,-0.29177 0.7964683,-0.94067 0.7957802,-1.53692 0.00447,-2.2374 7.486e-4,-4.47475 0.00178,-6.71215 0.013074,-0.0994 -0.059864,-0.20575 -0.1658339,-0.20334 -0.2539146,-0.004 -0.5082537,-0.002 -0.7621682,-7.8e-4 -0.095992,-0.009 -0.1895312,0.0723 -0.182306,0.17106 -0.00344,2.22296 6.378e-4,4.44656 -0.00211,6.66986 0.0055,0.30759 -0.1974545,0.60317 -0.487151,0.70708 -0.3282309,0.12283 -0.6939332,0.0275 -0.9918871,-0.13278 -0.5288165,-0.29864 -1.0579681,-0.59627 -1.5864406,-0.89595 -0.071908,-0.0341 -0.1146175,-0.10907 -0.1077364,-0.1882 0,-2.23672 3.441e-4,-4.47345 0,-6.70982 -0.00963,-0.0901 0.044691,-0.17131 0.1255441,-0.20813 1.9803954,-1.11543 3.9597973,-2.23361 5.9401925,-3.34973 0.070876,-0.0482 0.1624048,-0.0478 0.233281,3.3e-4 1.9803945,1.11578 3.9601205,2.23286 5.9408595,3.34829 0.0812,0.0368 0.133134,0.11944 0.124877,0.20924 -3.44e-4,2.23637 7.08e-4,4.47311 -6.68e-4,6.70948 0.0058,0.0791 -0.03404,0.1558 -0.10629,0.19055 -1.950118,1.1027 -3.903029,2.20096 -5.853491,3.30332 -0.09324,0.052 -0.203681,0.13553 -0.3127471,0.0726 -0.5112698,-0.28936 -1.0163455,-0.59005 -1.5258946,-0.88215 -0.055393,-0.0354 -0.1259512,-0.0506 -0.1837528,-0.011 -0.2284543,0.12317 -0.4568753,0.2502 -0.7056289,0.32933 -0.1104425,0.0447 -0.2463933,0.0574 -0.3224301,0.15994 0.086014,0.11801 0.2233385,0.17582 0.3451349,0.24841 0.5959077,0.34509 1.1928726,0.68886 1.7887804,1.03429 0.3922257,0.25048 0.9192666,0.26828 1.3242226,0.0367 1.9872766,-1.12059 3.9738296,-2.24249 5.9614506,-3.36309 0.395666,-0.20643 0.671319,-0.63379 0.668566,-1.08382 l 0,-6.77926 c 0.0038,-0.43214 -0.247021,-0.84953 -0.622044,-1.06079 -1.993813,-1.12747 -3.988662,-2.25255 -5.9828196,-3.37933 -0.1981768,-0.11406 -0.4264403,-0.17086 -0.6547654,-0.17073 z m 1.7368043,4.84479 c -0.2210572,-9.6e-4 -0.4415458,0.008 -0.6582164,0.022 -0.6261843,0.0633 -1.2847016,0.24008 -1.740922,0.6994 -0.4679183,0.46172 -0.5697331,1.20736 -0.3474718,1.81015 0.1592986,0.42594 0.5601574,0.70285 0.9747473,0.84942 1.0211629,0.36883 2.1402935,0.25047 3.1714335,0.57664 0.20093,0.0681 0.434914,0.17236 0.4965,0.39599 0.05677,0.26493 -0.0055,0.57287 -0.215695,0.75694 -0.398419,0.32273 -0.946524,0.32925 -1.4347414,0.35092 -0.5893706,-0.009 -1.2351159,0.0135 -1.7498259,-0.31853 -0.2666444,-0.18132 -0.3815936,-0.50238 -0.4283858,-0.80825 -0.00516,-0.0953 -0.080151,-0.18263 -0.1813043,-0.1754 -0.2532262,-0.003 -0.5064934,-0.002 -0.7597196,-3.4e-4 -0.088423,-0.008 -0.1802717,0.0567 -0.1850886,0.14892 -0.020299,0.54636 0.1840817,1.11238 0.6024559,1.4757 0.4892499,0.43179 1.1487935,0.59832 1.7825476,0.67057 0.6740085,0.0657 1.3628251,0.0619 2.0265121,-0.086 0.498884,-0.11629 0.999106,-0.33029 1.342475,-0.72355 0.423536,-0.4779 0.506897,-1.18944 0.316977,-1.78466 -0.145192,-0.44418 -0.560207,-0.72902 -0.98443,-0.87558 -1.024603,-0.35954 -2.1314386,-0.33239 -3.1759971,-0.60558 -0.1813185,-0.0571 -0.4028476,-0.11898 -0.4837007,-0.31096 -0.085671,-0.26733 -0.012771,-0.59938 0.2273814,-0.76384 0.3127482,-0.2171 0.7098598,-0.24906 1.0790336,-0.26867 0.5057645,-0.005 1.0435178,-0.0165 1.5073068,0.21569 0.302083,0.15483 0.477226,0.47266 0.549478,0.79367 0.01342,0.0943 0.07531,0.19278 0.181973,0.18865 0.251505,0.005 0.502982,10e-4 0.754488,0.002 0.08636,0.006 0.181029,-0.0437 0.197888,-0.13423 -0.01067,-0.67091 -0.345439,-1.35763 -0.94926,-1.68483 -0.584984,-0.32023 -1.253268,-0.41303 -1.9164386,-0.41592 z"
       id="path6"
       inkscape:connector-curvature="0" />
  </g>
</svg>
