<svg xmlns="http://www.w3.org/2000/svg" viewBox="0 0 16 16">
 <path d="m2.0156 0c-1.1127 0-2.0156 0.90241-2.0156 2.0156v4.3985c0.2884-0.1043 0.70399-0.718 0.83398-0.8672 0.22742-0.261 0.26762-0.5931 0.38082-0.8028 0.258-0.4774 0.3023-0.8066 0.8887-0.8066 0.27333 0 0.38347 0.062447 0.56836 0.31055 0.1286 0.1726 0.3491 0.4921 0.4531 0.7051 0.12004 0.24588 0.31633 0.57931 0.40234 0.64648 0.063692 0.049871 0.12649 0.087242 0.18555 0.10938 0.095104 0.035664 0.17469-0.031387 0.23828-0.082031 0.0812-0.0646 0.1163-0.1953 0.1914-0.371 0.1084-0.2536 0.2258-0.5581 0.2929-0.6641 0.1163-0.1833 0.1557-0.4005 0.2813-0.5059 0.1852-0.1553 0.4276-0.1665 0.4941-0.1797 0.372-0.0734 0.5414 0.1805 0.7246 0.3438 0.11994 0.10709 0.28207 0.32225 0.39844 0.61133 0.090948 0.22577 0.20744 0.43407 0.25586 0.56445 0.046779 0.12584 0.16204 0.32849 0.23047 0.57031 0.062146 0.21959 0.22976 0.38781 0.29297 0.49219 0 0 0.095286 0.27182 0.68359 0.51953 0.12758 0.053737 0.3852 0.13935 0.53906 0.19531 0.25564 0.092881 0.50504 0.080759 0.82031 0.042969 0.22481 0 0.34511-0.32527 0.44727-0.58594 0.060406-0.15406 0.11877-0.59535 0.1582-0.7207 0.0382-0.122-0.0507-0.2154 0.0254-0.3223 0.0889-0.1248 0.142-0.1323 0.1934-0.2949 0.1105-0.3484 0.7475-0.3653 1.1055-0.3653 0.29865 0 0.26094 0.28862 0.76758 0.18945 0.29014-0.056927 0.56893 0.037568 0.87695 0.11914 0.25941 0.068815 0.50426 0.14729 0.65039 0.31836 0.09462 0.11076 0.32895 0.66577 0.08984 0.68945 0.023 0.028125 0.03902 0.079683 0.08203 0.10742-0.05325 0.20934-0.28532 0.060072-0.41406 0.033203-0.17349-0.035954-0.29513 0.00498-0.46484 0.080078-0.29014 0.12922-0.71406 0.11372-0.9668 0.32422-0.21447 0.17842-0.21442 0.57762-0.31445 0.80078 0 0-0.27848 0.7151-0.88477 1.1523-0.156 0.1122-0.459 0.3805-1.1193 0.4825-0.2964 0.0458-0.5727 0.0503-0.877 0.0352-0.1489-0.0072-0.2901-0.0157-0.4394-0.0176-0.088-0.0007-0.3818-0.0087-0.3672 0.0195l-0.033203 0.082031c0.00512 0.026965 0.014582 0.093137 0.017578 0.10938 0.012081 0.066205 0.017018 0.11889 0.019531 0.17969 0.00454 0.12516-0.010288 0.25649-0.00391 0.38281 0.013241 0.26202 0.10882 0.50129 0.12109 0.76562 0.013434 0.2943 0.15996 0.60533 0.30078 0.8457 0.053447 0.09153 0.13445 0.10215 0.16992 0.21484 0.041559 0.12912 0.00323 0.26472 0.023437 0.40234 0.079253 0.5336 0.23238 1.0926 0.47266 1.5742 0.00164 0.004 0.00383 0.0081 0.00586 0.01172 0.29672-0.04987 0.59298-0.15587 0.97852-0.21289 0.7069-0.10487 1.6908-0.05218 2.3223-0.11133 1.598-0.15 2.465 0.656 3.9 0.326v-11.845c0-1.1139-0.902-2.016-2.016-2.016zm-0.7617 8.9043c-0.1268 0.0207-0.2493 0.0655-0.32812 0.1934-0.06437 0.1042-0.0863 0.282-0.13086 0.4023-0.05171 0.1396-0.14251 0.2713-0.2207 0.4043-0.14382 0.2437-0.40214 0.4637-0.51367 0.7007-0.022426 0.049-0.041897 0.104-0.06055 0.161v2.7188c0.13009 0.02223 0.26565 0.04915 0.41797 0.08984 1.1241 0.3 1.3994 0.32525 2.502 0.19922l0.10352-0.01367c0.084376-0.17571 0.14842-0.7739 0.20312-0.95898 0.042623-0.14188 0.10082-0.25551 0.12305-0.40039 0.020973-0.13763-0.00178-0.26751-0.013672-0.39258-0.0307-0.314 0.2298-0.427 0.3535-0.696 0.1115-0.243 0.1752-0.52 0.2675-0.769 0.0886-0.239 0.2272-0.5751 0.4629-0.6953-0.0287-0.0336-0.4934-0.0502-0.6172-0.0625-0.138-0.0141-0.2663-0.0296-0.4004-0.0567-0.2503-0.0505-0.5229-0.0991-0.7695-0.1582-0.1497-0.0362-0.6495-0.2139-0.7578-0.2637-0.2541-0.1171-0.4225-0.4351-0.6211-0.4023zm4.6211 0.6621c-0.59198 0.1182-0.77624 0.69824-1.0547 1.1582-0.15406 0.25438-0.31611 0.47157-0.4375 0.74219-0.11211 0.24887-0.10298 0.52459-0.29492 0.73828-0.19688 0.2194-0.32542 0.45285-0.42188 0.73633-0.018267 0.05383-0.068653 0.61995-0.125 0.75391l0.87891-0.0625c0.81979 0.05586 0.58364 0.36921 1.8633 0.30078l2.0195-0.0625c-0.0628-0.184-0.1484-0.398-0.1816-0.468-0.0564-0.117-0.1272-0.346-0.1738-0.447-0.0444-0.094-0.1786-0.341-0.2461-0.42-0.1469-0.172-0.1814-0.185-0.2246-0.402-0.0751-0.378-0.2755-1.064-0.5098-1.537-0.121-0.244-0.3216-0.448-0.5059-0.6253-0.1608-0.1553-0.5227-0.4173-0.5859-0.4043z"/>
</svg>