<svg xmlns="http://www.w3.org/2000/svg" viewBox="0 0 16 16">
 <path d="m15.286 7.8846s-0.25499-0.30341-0.29061-0.68715c-0.03566-0.38404 0.14282-0.25002 0.14282-0.25002s-0.07158-0.50905-0.42876-0.94652c-0.35692-0.43751-0.74096-0.95532-0.91065-1.6429-0.16968-0.68749-0.48189-1.089-0.69625-1.3659-0.2144-0.27688-0.30375-0.82155-0.42876-1.0178-0.12501-0.19663-0.14282-1.2813-1.0444-1.7791-0.90185-0.49781-2.5447 0.07373-3.0268 0.4128-0.48223 0.33941-0.9197 1.3216-1.5 1.7235-0.58033 0.40156-1.0535 0.41061-1.5178 1.2053-0.46404 0.79431-0.56252 1.2497-0.54004 1.7141 0 0-0.33503 0.04029-0.37499-0.1472-0.0403-0.18749 0.09377-0.81718 0.18749-1.0047 0 0 0.09377 0.08059 0.08034 0.16093 0 0 0.28126-0.57596 0.10716-0.92408 0 0 0.09377 0.02 0.14063 0.06686 0 0 0.11377-0.54244 0.11377-0.89713 0-0.35503-0.13406-0.62968-0.36842-0.79036 0 0 0.1744-0.22749-0.02-0.47524 0 0-0.08691-0.19912-0.31469-0.4344-0.22749-0.23532-0.40189-0.36939-0.63625-0.36248 0 0 0.04034-0.0872 0.08067-0.14063 0 0-0.1944 0.02278-0.26126 0.11183 0 0-0.10716-0.06497-0.1272-0.21903 0 0-0.18749 0.05343-0.20783 0.18749 0 0-0.4128-0.14063-0.58905 0.30808 0 0 0.0669 0.02657 0.08691 0.07343 0 0-0.06034 0.1341-0.32126 0.15406-0.26126 0.02008-1.0113 0-1.2387 0.08029-0.22783 0.08038-0.32156 0.16093-0.32156 0.25469 0 0-0.11377 0.05352-0.16754 0.30126 0 0-0.1781 0.08691-0.1781 0.24097s0.09781 0.10939 0.09781 0.10939-0.1072 0.30594 0.26779 0.32589c0 0 0.06034 0.1541 0.38189 0.1541 0.32126 0 0.55566 0.05347 0.68968 0.25436 0 0-0.10716 0.40189-0.52905 0.76998 0 0 0.09377 0.01347 0.18749 0.0069 0 0-0.36846 0.30783-0.46223 0.75659 0 0 0.12754-0.1272 0.20097-0.12063 0 0-0.46189 1.279 0.18093 2.5447 0 0 0.06029-0.1272 0.08686-0.14063 0 0-0.02657 0.42876 0.23436 0.76349 0 0 0.0203-0.18749 0.12063-0.25444 0 0 0.4013 0.72968 0.81347 1.0578 0.41187 0.32812 1.0416 0.48219 1.1822 0.81692 0 0 0.22097-0.24686 0.22097-0.40783 0 0 0.06029 0.15339 0.04 0.31406 0 0 0.24783-0.12029 0.32812-0.18724 0.08034-0.0672 0.42876-0.30804 0.47562 0.08034 0.04686 0.38817-0.34375 1.165 0.01347 2.1293 0 0-0.12501 0.17566-0.12501 0.40909 0 0.23377 0.1784 0.34972 0.1784 0.45688 0 0.1072-0.0803 0.30379-0.0803 0.50909s0.18749 0.53343 0.01781 1.2666c-0.16968 0.73305-0.24097 0.92968-0.33941 1.0547-0.09811 0.12501-0.48219 0.33932-0.41061 0.69654 0 0-0.90155 0.11596-0.8928 0.42846 0.0091 0.3125 0.46434 0.40994 1.0088 0.40994 0.54471 0 0.6869-0.11528 0.70501-0.31183 0.01844-0.19629-0.12535-0.23225 0-0.34812 0.12564-0.11596 0.25937-0.25002 0.24156-0.74096-0.01781-0.49128 0.22316-0.94652 0.22316-0.94652s-0.04471-0.41975 0.09844-0.67848c0.14278-0.25903 0.52657-0.76779 0.26783-1.5447 0 0 0.07124 0.0269 0.16059 0.03566 0 0-0.15183-0.42846 0.12501-0.94631 0.27688-0.51777 0.4197-1.5715 0.4197-1.5715s0.63376 0.05377 0.91061 0c0 0-0.60716 1.2725-0.54467 2.2306 0 0-0.15187 0.15347-0.15187 0.32316 0 0.16935 0.08939 0.3837 0.24122 0.53562 0.15192 0.15158 0.65191 0.45528 0.92846 0.7856 0.27688 0.3304 0.46438 0.69625 0.54467 0.79469 0 0-0.25874 0.16972-0.18749 0.43751 0 0-0.25903 0.08034-0.23217 0.30345 0 0-0.37503 0.0091-0.57128 0.17878-0.19655 0.1693-0.29465 0.39276-0.11621 0.46404 0.17874 0.07154 0.83941 0.07154 1.0625 0.07154 0.22311 0 0.48219-0.16964 0.5-0.2856 0.01781-0.11629-0.08034-0.40189-0.08034-0.40189s0.1341 0.01785 0.18749-0.14286c0 0 0.25002 0.92846 0.63376 0.90155 0 0 0.05373-0.0087 0.06248-0.08905 0 0 0.17874 0.04442 0.26813-0.04467 0.08905-0.08939 0.30345-1.3481-0.45528-1.3663 0 0 0.05343-0.12501-0.08939-0.21406-0.14282-0.08931 1.25-1.8481 1.4106-2 0 0-0.19655-1.5712 0.19655-2.3303 0.3928-0.75878 0.71406-1.2769 0.71406-1.2769s0.08034 1.6875 0.84816 2.9822c0 0 0.14282 0.19659 0.10716 0.43751-0.03562 0.24097-0.13373 0.36594-0.13373 0.66968 0 0.30345 0.22312 1.1072 0.0087 1.9822-0.04282 0.17532-0.47309 0.69629-0.32122 1.1247 0 0-0.35714 0.20568-0.35714 0.47343 0 0.26783 0.16055 0.3213 0.27684 0.3213 0.11592 0 0.17844-0.11596 0.24092-0.11596s0.15187 0.16968 0.43751 0.16968 0.53562-0.23221 0.53562-0.36623c0-0.13381-0.23217-0.35722-0.23217-0.35722s0.15183-0.14278 0.15183-0.32122c0-0.17878-0.24092-0.47309-0.24092-0.84812s0.0781-1.1032 0.22312-1.4197c0.29002-0.63406 0.25878-1.1384 0.08939-1.2722 0 0 0.08905-0.40623 0.08905-0.83503 0-0.42846-0.33031-1.5759-0.05347-2.7319 0 0 0.33031-0.48219 0.40189-1.2412 0 0 0.59814 1.2144 0.15158 2.0625-0.44623 0.84816-0.35714 0.83945-0.36594 1.0981-0.0091 0.25903 0.12501 0.61629 0.12501 0.61629l0.40657-0.41095s-0.005-0.28564 0.19158-0.49099c0.19655-0.2053 0.33937-0.76278 0.25002-0.9168 0 0 0.0981 0.06876 0.14278 0.10434 0 0 0.07158-0.26779-0.06248-0.66054-0.000084-0.000084 0.14366-0.07171 0.29962 0.0086zm-5.3623 4.0174c-0.16968 0.26779-0.68749 1.1072-0.68749 1.1072s-0.53596-0.30341-0.70534-0.64282c-0.16964-0.33937-0.3125-0.55343-0.38404-0.6072 0 0 0.21874-0.29436 0.27221-0.60686 0 0 0.09596 0.0075 0.14968 0.19937 0.32442-0.40812 0.53659-0.84939 0.59596-1.3157 0 0 0.08034 0.08034 0.15187 0.1072 0 0 0.0088-0.32156 0.12501-0.55343 0.11592-0.23221 0.36594-0.52686 0.40185-0.97347h0.16063s-0.13406 1 0 1.8572c0.13373 0.85726 0.08905 1.1607-0.08034 1.4285z"/>
</svg>