<?xml version="1.0" encoding="UTF-8" standalone="no"?>
<svg
   xmlns:dc="http://purl.org/dc/elements/1.1/"
   xmlns:cc="http://creativecommons.org/ns#"
   xmlns:rdf="http://www.w3.org/1999/02/22-rdf-syntax-ns#"
   xmlns:svg="http://www.w3.org/2000/svg"
   xmlns="http://www.w3.org/2000/svg"
   xmlns:sodipodi="http://sodipodi.sourceforge.net/DTD/sodipodi-0.dtd"
   xmlns:inkscape="http://www.inkscape.org/namespaces/inkscape"
   width="16"
   height="16"
   viewBox="0 0 16 16"
   id="svg2"
   version="1.1"
   inkscape:version="0.91 r13725"
   sodipodi:docname="perl.svg">
  <metadata
     id="metadata10">
    <rdf:RDF>
      <cc:Work
         rdf:about="">
        <dc:format>image/svg+xml</dc:format>
        <dc:type
           rdf:resource="http://purl.org/dc/dcmitype/StillImage" />
        <dc:title></dc:title>
      </cc:Work>
    </rdf:RDF>
  </metadata>
  <defs
     id="defs8" />
  <sodipodi:namedview
     pagecolor="#ffffff"
     bordercolor="#666666"
     borderopacity="1"
     objecttolerance="10"
     gridtolerance="10"
     guidetolerance="10"
     inkscape:pageopacity="0"
     inkscape:pageshadow="2"
     inkscape:window-width="1366"
     inkscape:window-height="705"
     id="namedview6"
     showgrid="false"
     inkscape:zoom="0.4609375"
     inkscape:cx="385.08475"
     inkscape:cy="256"
     inkscape:window-x="-8"
     inkscape:window-y="-8"
     inkscape:window-maximized="1"
     inkscape:current-layer="svg2" />
  <path
     d="m 15.285607,7.8845876 c 0,0 -0.254989,-0.303409 -0.29061,-0.687154 -0.03566,-0.384041 0.142821,-0.25002 0.142821,-0.25002 0,0 -0.07158,-0.509051 -0.428756,-0.946523 -0.356925,-0.437513 -0.740965,-0.955322 -0.910649,-1.642855 -0.169683,-0.687492 -0.481892,-1.089048 -0.696249,-1.365931 -0.214399,-0.276883 -0.303746,-0.821554 -0.428756,-1.017764 -0.12501,-0.196631 -0.142821,-1.28130003 -1.044417,-1.77910803 -0.901848,-0.497808 -2.544704,0.07373 -3.026849,0.412798 -0.48223,0.339409 -0.919702,1.32159403 -1.499994,1.72348703 -0.580334,0.401556 -1.053469,0.410609 -1.517804,1.205342 -0.46404,0.794313 -0.562523,1.249679 -0.540039,1.714056 0,0 -0.33503,0.04029 -0.374988,-0.1472 -0.0403,-0.187493 0.09377,-0.817175 0.187494,-1.004669 0,0 0.09377,0.08059 0.08034,0.160926 0,0 0.281262,-0.575956 0.107158,-0.92408 0,0 0.09377,0.02 0.140631,0.06686 0,0 0.113768,-0.54244 0.113768,-0.897133 0,-0.35503 -0.134063,-0.629682 -0.36842,-0.790355 0,0 0.174399,-0.227493 -0.02,-0.47524 0,0 -0.08691,-0.199115 -0.314693,-0.43439803 -0.227494,-0.235325 -0.401893,-0.369388 -0.63625,-0.362482 0,0 0.04034,-0.0872 0.08067,-0.140631 0,0 -0.194399,0.02278 -0.261262,0.111831 0,0 -0.107157,-0.06497 -0.127199,-0.219031 0,0 -0.187494,0.05343 -0.207831,0.187494 0,0 -0.412798,-0.140631 -0.58905,0.308083 0,0 0.0669,0.02657 0.08691,0.07343 0,0 -0.06034,0.134105 -0.321262,0.154063 -0.261262,0.02008 -1.011279,0 -1.238731,0.08029 -0.227831,0.08038 -0.321556,0.16092603 -0.321556,0.25469403 0,0 -0.113768,0.05352 -0.167537,0.301261 0,0 -0.178104,0.08691 -0.178104,0.240968 0,0.154062 0.09781,0.109389 0.09781,0.109389 0,0 -0.107199,0.305935 0.267788,0.325893 0,0 0.06034,0.154105 0.381893,0.154105 0.321262,0 0.555661,0.05347 0.689682,0.254356 0,0 -0.107158,0.401893 -0.529051,0.769976 0,0 0.09377,0.01347 0.187494,0.0069 0,0 -0.368461,0.30783 -0.462229,0.756586 0,0 0.127536,-0.127199 0.200967,-0.120631 0,0 -0.461892,1.279026 0.180926,2.544705 0,0 0.06029,-0.1272 0.08686,-0.140631 0,0 -0.02657,0.428756 0.234357,0.763491 0,0 0.0203,-0.187494 0.120631,-0.254441 0,0 0.401304,0.729681 0.81347,1.057806 0.411872,0.328125 1.041554,0.482187 1.182185,0.816923 0,0 0.220967,-0.246862 0.220967,-0.40783 0,0 0.06029,0.153389 0.04,0.314062 0,0 0.24783,-0.120294 0.328125,-0.187242 0.08034,-0.0672 0.428756,-0.30804 0.475619,0.08034 0.04686,0.388167 -0.343746,1.165005 0.01347,2.1293384 0,0 -0.12501,0.175662 -0.12501,0.409093 0,0.233767 0.1784,0.349725 0.1784,0.456882 0,0.1072 -0.0803,0.303788 -0.0803,0.509092 0,0.205305 0.187494,0.53343 0.01781,1.266605 -0.169684,0.73305 -0.240968,0.92968 -0.339409,1.05469 -0.09811,0.12501 -0.482188,0.339325 -0.410609,0.696545 0,0 -0.901554,0.115957 -0.892796,0.428461 0.0091,0.312504 0.464335,0.409935 1.008753,0.409935 0.544714,0 0.686903,-0.115284 0.705008,-0.31183 0.01844,-0.196294 -0.125347,-0.232252 0,-0.348125 0.125641,-0.115957 0.259367,-0.25002 0.241557,-0.740965 -0.01781,-0.491282 0.223156,-0.946522 0.223156,-0.946522 0,0 -0.04471,-0.419746 0.09844,-0.678481 0.142778,-0.259031 0.526566,-0.767786 0.267831,-1.544709 0,0 0.07124,0.0269 0.160588,0.03566 0,0 -0.151831,-0.428462 0.12501,-0.946312 0.276883,-0.517766 0.419704,-1.5715304 0.419704,-1.5715304 0,0 0.633765,0.05377 0.910606,0 0,0 -0.607155,1.2725424 -0.544671,2.2306434 0,0 -0.151873,0.153473 -0.151873,0.323156 0,0.169347 0.08939,0.383704 0.24122,0.535619 0.151915,0.151578 0.651913,0.455282 0.928459,0.785597 0.276883,0.330398 0.464377,0.696249 0.544671,0.794691 0,0 -0.258736,0.169725 -0.187494,0.437514 0,0 -0.25903,0.08034 -0.232167,0.303451 0,0 -0.37503,0.0091 -0.571282,0.178778 -0.196546,0.169305 -0.294651,0.392756 -0.11621,0.46404 0.178736,0.07154 0.839407,0.07154 1.06248,0.07154 0.223114,0 0.482187,-0.169642 0.499997,-0.285599 0.01781,-0.116294 -0.08034,-0.401893 -0.08034,-0.401893 0,0 0.134105,0.01785 0.187494,-0.142863 0,0 0.25002,0.928459 0.633765,0.901554 0,0 0.05373,-0.0087 0.06248,-0.08905 0,0 0.178736,0.04442 0.268126,-0.04467 0.08905,-0.08939 0.303451,-1.348121 -0.455283,-1.366268 0,0 0.05343,-0.12501 -0.08939,-0.214062 -0.14282,-0.08931 1.250016,-1.848118 1.410605,-1.999991 0,0 -0.196547,-1.5712364 0.196546,-2.3303484 0.392798,-0.758776 0.71406,-1.276878 0.71406,-1.276878 0,0 0.08034,1.687529 0.848165,2.9822184 0,0 0.14282,0.196588 0.107157,0.437514 -0.03562,0.240967 -0.133726,0.365935 -0.133726,0.669681 0,0.303451 0.223115,1.107195 0.0087,1.982181 -0.04282,0.175325 -0.473092,0.696291 -0.321219,1.124668 0,0 -0.357136,0.205684 -0.357136,0.47343 0,0.26783 0.160547,0.321304 0.276841,0.321304 0.115915,0 0.178441,-0.115958 0.240925,-0.115958 0.06248,0 0.151873,0.169684 0.437514,0.169684 0.285641,0 0.535619,-0.23221 0.535619,-0.36623 0,-0.13381 -0.232167,-0.35722 -0.232167,-0.35722 0,0 0.15183,-0.142778 0.15183,-0.321219 0,-0.178778 -0.240925,-0.473093 -0.240925,-0.848123 0,-0.37503 0.0781,-1.103153 0.223115,-1.419741 0.29002,-0.63406 0.258778,-1.138437 0.08939,-1.272163 0,0 0.08905,-0.406229 0.08905,-0.835028 0,-0.428461 -0.330314,-1.5759084 -0.05347,-2.7319034 0,0 0.330314,-0.482188 0.401893,-1.241216 0,0 0.598145,1.214437 0.151578,2.062475 -0.44623,0.848165 -0.357135,0.839449 -0.365935,1.098143 -0.0091,0.25903 0.12501,0.6162924 0.12501,0.6162924 l 0.406566,-0.4109464 c 0,0 -0.005,-0.285641 0.191579,-0.490987 0.196546,-0.205304 0.339366,-0.762776 0.25002,-0.916796 0,0 0.0981,0.06876 0.142778,0.104336 0,0 0.07158,-0.267788 -0.06248,-0.660544 -8.4e-5,-8.4e-5 0.143662,-0.07171 0.29962,0.0086 z M 9.923694,11.902465 c -0.169684,0.267789 -0.687492,1.107153 -0.687492,1.107153 0,0 -0.535956,-0.303409 -0.705344,-0.642818 -0.169642,-0.339367 -0.312504,-0.553429 -0.384041,-0.607197 0,0 0.218736,-0.294357 0.27221,-0.606861 0,0 0.09596,0.0075 0.149683,0.199368 0.32442,-0.408125 0.536587,-0.849386 0.595955,-1.315658 0,0 0.08034,0.08034 0.151873,0.1072 0,0 0.0088,-0.3215564 0.12501,-0.5534294 0.115916,-0.23221 0.365936,-0.526861 0.401851,-0.973469 l 0.160631,0 c 0,0 -0.134063,1.000037 0,1.8571704 0.133726,0.85726 0.08905,1.160669 -0.08034,1.428541 z"
     id="path4"
     style="fill:#000000"
     inkscape:connector-curvature="0" />
</svg>
