<svg xmlns="http://www.w3.org/2000/svg" viewBox="0 0 16 16">
 <path d="m3.0391 2.2421c-0.9775 0.0006-1.902 0.4096-2.4841 1.2031-1.0327 1.4107-0.58074 3.4907 0.99419 4.6427 0.55966 0.4099 1.1882 0.649 1.8125 0.7236-0.13538 0.072-0.26769 0.1544-0.39544 0.2481-1.2599 0.9211-1.6203 2.582-0.79647 3.7079 0.82608 1.1281 2.5175 1.2851 3.7774 0.3619 0.69843-0.5106 1.1204-1.2483 1.2171-1.9968 0.0832 0.023 0.16824 0.044 0.25485 0.061v0.6564a0.096701 0.096701 0 0 0 0.014 0.05l0.36743 0.6094 0.16579-0.1-0.35343-0.5864v-0.5976c0.14361 0.019 0.29078 0.029 0.4408 0.029h0.18316v0.6026a0.096701 0.096701 0 0 0 0.014 0.05l0.36743 0.6094 0.16579-0.1-0.35343-0.5864v-0.592c0.20456-0.023 0.40219-0.065 0.58979-0.1233 0.0849 0.764 0.50908 1.5221 1.2205 2.0444 1.2599 0.9211 2.9513 0.7641 3.7774-0.364 0.82617-1.126 0.4657-2.7891-0.79199-3.7102-0.0952-0.07-0.19278-0.1335-0.29238-0.191 0.52896-0.1044 1.0534-0.3279 1.528-0.6755 1.5636-1.1453 2.0134-3.2097 0.98523-4.6136-0.57709-0.7885-1.4953-1.1952-2.4667-1.1964-0.75556-0.001-1.5434 0.2433-2.2276 0.7444-1.2755 0.9361-1.8093 2.4824-1.4048 3.7813-0.10182 0.034-0.19798 0.081-0.2851 0.14-0.1856-0.061-0.38119-0.1051-0.58419-0.1311 0.0287-0.5795-0.14566-1.1737 0.0773-1.6254a0.11287 0.11287 0 0 0 0.003 -0.01l0.1305-0.3108 0.0863 0.1445-0.0605 0.012 0.0437 0.2218 0.21732-0.043a0.11287 0.11287 0 0 0 0.075 -0.1686l-0.2823-0.475a0.11287 0.11287 0 0 0 -0.10418 -0.055 0.11287 0.11287 0 0 0 -0.0969 0.069l-0.21452 0.5114-0.003 0.01c-0.26864 0.5518-0.0776 1.1806-0.0969 1.6977-0.066 0-0.1328-0.01-0.19996-0.01-0.0718 0-0.14296 0-0.2134 0.01-0.0198-0.5176 0.16958-1.1468-0.0991-1.6988l-0.003-0.01-0.21452-0.5114a0.11287 0.11287 0 0 0 -0.10698 -0.069 0.11287 0.11287 0 0 0 -0.0941 0.055l-0.2823 0.475a0.11287 0.11287 0 0 0 0.0751 0.1686l0.21732 0.043 0.0437-0.2218-0.0605-0.012 0.0863-0.1445 0.1305 0.3108a0.11287 0.11287 0 0 0 0.003 0.01c0.22336 0.4526 0.0502 1.0477 0.0795 1.6277-0.22856 0.03-0.44773 0.084-0.65365 0.158-0.0945-0.07-0.20012-0.1263-0.31366-0.1652 0.49098-1.334-0.0372-2.9669-1.3672-3.9398-0.68898-0.505-1.4813-0.7516-2.2416-0.7511zm-0.22124 0.6262a0.24159 0.24159 0 0 1 0.0213 0 0.24159 0.24159 0 0 1 0.0241 0c0.36619 0.049 0.71688 0.089 1.0541 0.2397 0.33725 0.1503 0.64515 0.4172 0.90009 0.8603a0.24159 0.24159 0 0 1 0.0308 0.1473c-0.0218 0.1944 0.003 0.5841-0.0448 0.9875-0.0478 0.4033-0.1787 0.8533-0.56291 1.1505a0.24159 0.24159 0 0 1 -0.0308 0.02l-0.88777 0.4929c0.46513 0.2714 0.9702 0.5377 1.4176 0.8357l-0.005 0.01c0.0294 0.018 0.0585 0.037 0.0874 0.056l-0.004 0.01c0.22076 0.1526 0.34898 0.3359 0.28958 0.4369-0.0595 0.1047-0.29794 0.081-0.54947-0.046h-0.003c-0.0215-0.014-0.0433-0.028-0.0655-0.042-0.005 0-0.0101-0.01-0.0151-0.01-0.003 0-0.007 0-0.0106-0.01-0.009 0-0.0174-0.01-0.0258-0.016-0.002-0.001-0.003 0-0.005 0-0.40436-0.2341-0.91527-0.3776-1.4132-0.545-0.54938-0.1848-1.101-0.4034-1.4305-0.8956a0.24159 0.24159 0 0 1 -0.00056 -0.0006c-0.1969-0.2953-0.48658-0.6543-0.67325-1.044-0.0933-0.1949-0.16271-0.4013-0.16803-0.62-0.005-0.21 0.06-0.4299 0.20444-0.6189l-0.00056-0.0006c0.35608-0.5651 0.80864-1.0265 1.3627-1.2199 0.14029-0.086 0.29871-0.1496 0.48001-0.1781a0.24159 0.24159 0 0 1 0.0241 0zm10.417 0.2554c0.0916-0.0002 0.18379 0 0.27613 0.01 0.36938 0.025 0.73741 0.1067 1.0547 0.2839 0.31728 0.1773 0.58246 0.4599 0.70238 0.8469l-0.002 0.0006c0.10423 0.2314 0.11965 0.4328 0.0218 0.5013-0.12169 0.084-0.36955-0.058-0.58531-0.3243l-0.0196 0.01c-0.006-0.019-0.0124-0.038-0.019-0.057-0.0131-0.017-0.0265-0.035-0.0392-0.053-0.0654-0.092-0.11807-0.1861-0.15739-0.275-0.0587-0.061-0.12495-0.1113-0.19828-0.1529-0.18736-0.1065-0.42916-0.1547-0.69173-0.1524-0.52514 0.01-1.1244 0.2233-1.4081 0.4134a0.24159 0.24159 0 0 1 -0.00056 0.0005c-0.0802 0.053-0.12817 0.085-0.18204 0.1199l1.1269 0.471a0.24159 0.24159 0 0 1 0.0549 0.032c0.72127 0.5573 0.86028 1.547 0.61388 2.3435a0.24159 0.24159 0 0 1 0 0.0006c-0.0995 0.3197-0.26787 0.5483-0.50802 0.6559-0.24001 0.1075-0.49653 0.119-0.85584 0.1663-0.0002 0.0001-0.00035 0-0.00056 0-0.3546 0.047-0.63104 0.1119-0.92362 0.078-0.24059-0.028-0.47048-0.1434-0.68669-0.359-0.0755-0.2424-0.22958-0.4505-0.43184-0.5948-0.13743-0.251-0.24793-0.5304-0.31534-0.8161-0.11054-0.4684-0.11145-0.9663 0.14899-1.3566 0.00011-0.0002-0.0001-0.0004 0-0.0006 0.54418-0.8151 0.48294-0.77 1.4064-1.3857 0.00021-0.0001 0.00036-0.0004 0.00056-0.0005 0.36863-0.2467 0.9772-0.3997 1.6182-0.4011zm-10.36 0.3108c-0.12448 0-0.24425 0.021-0.36015 0.057-0.091 0.063-0.17516 0.1459-0.26269 0.2476-0.18731 0.2176-0.3723 0.5166-0.62004 0.82-0.00028 0.0004-0.00027 0.0008-0.00056 0.001-0.10589 0.1312-0.14403 0.2229-0.15403 0.2851-0.01 0.062-0.00075 0.1084 0.0375 0.1848 0.0766 0.153 0.29604 0.3792 0.51754 0.7102a0.24159 0.24159 0 0 1 0.00056 0.0006c0.18041 0.2703 0.4723 0.508 0.81496 0.7349l0.99083-0.7898a0.24159 0.24159 0 0 1 0.003 0c0.49676-0.3842 0.43332-0.9702 0.47945-1.496-0.0727-0.1916-0.24118-0.3521-0.49346-0.4811-0.26426-0.1352-0.60879-0.2255-0.95274-0.2717zm2.2248 0.3983c0.26503 0.013 0.52011 0.1038 0.7315 0.2783 0.58027 0.475 0.61388 1.3913 0.0739 2.0478-0.46516 0.5679-1.2053 0.7534-1.7722 0.4856 0.45932 0.022 0.94788-0.1888 1.2882-0.6043 0.53994-0.6565 0.50634-1.575-0.0739-2.05-0.0772-0.063-0.16028-0.1158-0.24757-0.1574zm-2.0758 0.086c0.53322 0 0.96563 0.4234 0.96563 0.9477 0 0.5242-0.4324 0.9477-0.96563 0.9477-0.53322 0-0.96563-0.4235-0.96563-0.9477 0-0.5243 0.4324-0.9477 0.96563-0.9477zm0.12434 0.6413c-0.10565-0.001-0.21186 0.033-0.2991 0.1047-0.20164 0.1636-0.22852 0.4616-0.0605 0.6654 0.16803 0.2039 0.46601 0.2353 0.66541 0.072 0.1994-0.1635 0.22628-0.4615 0.0583-0.6654-0.0933-0.1147-0.22824-0.1749-0.36407-0.1764zm8.3759 0.042c-0.24151 0.1771-0.29072 0.2842-0.64804 0.8194-0.16686 0.2508-0.20665 0.5352-0.15011 0.8413 0.0565 0.3061 0.21576 0.627 0.43912 0.9023a0.24159 0.24159 0 0 1 0 0.0006c0.10527 0.1302 0.18573 0.1988 0.24197 0.2313 0.0562 0.033 0.0884 0.038 0.15235 0.036 0.12788 0 0.37583-0.091 0.76679-0.1428 0.36537-0.048 0.57702-0.086 0.67549-0.14 0.0985-0.054 0.15064-0.1227 0.23188-0.3859 0.0824-0.2672-0.005-0.5522-0.2106-0.8537-0.20469-0.3001-0.52035-0.5924-0.81608-0.8211l-0.69005-0.4772 0.007-0.011zm2.1043 0.034c0.43098 0.01 0.8779 0.2159 1.1958 0.6043 0.53546 0.652 0.5041 1.5638-0.0717 2.0366-0.29159 0.2394-0.66648 0.3192-1.0351 0.2554 0.20086-0.037 0.39156-0.1207 0.55563-0.2554 0.57355-0.4727 0.60716-1.3846 0.0717-2.0366-0.2654-0.3231-0.6205-0.5218-0.98131-0.5825 0.0869-0.016 0.17535-0.023 0.26493-0.022zm-1.7727 0.6895c0.46825 0 0.84688 0.3853 0.84688 0.8625 0 0.4773-0.37863 0.8626-0.84688 0.8626-0.47049 0-0.84912-0.3853-0.84912-0.8626 0-0.4772 0.37863-0.8625 0.84912-0.8625zm-0.0325 0.5192c-0.0977 0-0.19436 0.037-0.27445 0.1036-0.19716 0.1613-0.2218 0.4593-0.056 0.6609 0.16579 0.2039 0.46153 0.2353 0.66093 0.074 0.19716-0.1635 0.2218-0.4592 0.056-0.6631-0.0984-0.1197-0.24361-0.1802-0.38647-0.1753zm-3.7695 1.1633c0.32235 0 0.63059 0.047 0.91522 0.1327-0.25136 0.211-0.41168 0.5269-0.41168 0.88 0 0.6327 0.51746 1.1499 1.1521 1.1499 0.36514 0 0.69051-0.1716 0.90121-0.4375 0.0242 0.1137 0.0375 0.2304 0.0375 0.3495 0 1.1471-1.1605 2.0746-2.5944 2.0746s-2.5944-0.9275-2.5944-2.0746c0-0.08 0.006-0.1587 0.0168-0.2363 0.20695 0.2004 0.48836 0.3243 0.79872 0.3243 0.63468 0 1.1521-0.5172 1.1521-1.1499 0-0.3372-0.14597-0.6404-0.37807-0.8508 0.30895-0.104 0.64851-0.1619 1.0048-0.1619zm-1.7789 0.088c0.51271 0 0.92698 0.4123 0.92698 0.9247 0 0.51-0.41456 0.9248-0.92698 0.9248s-0.92474-0.4145-0.92474-0.9248c0-0.5127 0.41203-0.9247 0.92474-0.9247zm3.4346 0c0.51271 0 0.92474 0.412 0.92474 0.9247 0 0.5103-0.41232 0.9248-0.92474 0.9248s-0.92698-0.4148-0.92698-0.9248c0-0.5124 0.41427-0.9247 0.92698-0.9247zm0.0381 0.3467c-0.28902 0-0.51978 0.2308-0.51978 0.5175 0 0.2846 0.23076 0.5176 0.51978 0.5176 0.28678 0 0.51754-0.233 0.51754-0.5176 0-0.2867-0.23076-0.5175-0.51754-0.5175zm-3.4413 0.054c-0.28678 0-0.51978 0.233-0.51978 0.5198s0.233 0.5198 0.51978 0.5198 0.51754-0.233 0.51754-0.5198-0.23076-0.5198-0.51754-0.5198zm0.71918 2.1166c-0.036 0.248 0.11718 0.4621 0.3159 0.6105s0.45625 0.2502 0.71414 0.2935c0.25788 0.043 0.51922 0.032 0.72366-0.092 0.19898-0.1215 0.30633-0.3732 0.24645-0.6772v-0.053h-0.29014v0.061a0.14489 0.14489 0 0 0 0.004 0.032c0.0532 0.236-0.002 0.3237-0.11146 0.3904-0.10929 0.067-0.31082 0.09-0.52482 0.054-0.21401-0.036-0.43726-0.1266-0.58867-0.2397-0.15142-0.1131-0.21774-0.2295-0.2022-0.3366l-0.28678-0.041zm-2.6174 0.1428c0.0149-0.0001 0.03-0.0003 0.0448 0 0.28446 0.01 0.55815 0.097 0.78247 0.2812 0.59596 0.4907 0.61612 1.4518 0.0426 2.1486-0.57131 0.699-1.519 0.8671-2.1172 0.3764-0.59596-0.4907-0.61612-1.4518-0.0448-2.1508 0.34727-0.4219 0.83122-0.6499 1.2922-0.6553zm7.2176 0c0.4741-0.01 0.97851 0.2199 1.337 0.6554 0.57131 0.699 0.55115 1.6602-0.0448 2.1508-0.5982 0.4906-1.5459 0.3226-2.1194-0.3764-0.57131-0.6968-0.55115-1.6602 0.0448-2.1486 0.22432-0.184 0.49801-0.2756 0.78247-0.2812zm-6.9113 0.4818c-0.008 0-0.0156 0.0002-0.0235 0.0005-0.24293 0.01-0.52146 0.158-0.73318 0.4168-0.32262 0.392-0.36519 0.8894-0.0963 1.109 0.26885 0.2218 0.7483 0.083 1.0709-0.3092 0.32038-0.3943 0.36295-0.8917 0.0963-1.1112-0.0874-0.072-0.19614-0.1058-0.31422-0.1059zm6.5633 0.065c-0.1136 0-0.21746 0.036-0.30078 0.1053-0.27109 0.2195-0.22852 0.7169 0.0941 1.109 0.32038 0.3898 0.79984 0.5287 1.0687 0.3092 0.26885-0.2218 0.22628-0.7192-0.0941-1.109-0.2218-0.2696-0.51798-0.4192-0.76791-0.4145z"/>
</svg>