<svg xmlns="http://www.w3.org/2000/svg" viewBox="0 0 16 16">
 <path d="m4.1598 2.5693c-0.33705-0.007-0.59477 0.133-0.66605 0.17978-0.2795 0.18362-0.62109 0.49827-0.8906 0.76427-2.7124 0.44305-2.5974 1.8406-2.6031 3.7335v5.2902c0 0.44747 0.39096 0.62797 0.8733 0.62797 0.48227 0 0.87375-0.1805 0.87375-0.62797 0 0 0.11124-1.5116 0.20725-2.4311 0.045745-0.71152 0.26664-1.0943 0.61405-1.2587v-0.1429c0.14008-0.0561 0.29469-0.0834 0.46228-0.087 0.045358-0.00097 0.091919 0.00018 0.13914 0.003 0.132-0.0139 0.26223-0.075 0.38108-0.18116 0.31575-0.2817 0.51843-0.83298 0.53039-1.439-0.16949-0.007-0.33189-0.0924-0.44653-0.23864-0.029838-0.0379-0.021761-0.0917 0.01785-0.1201 0.039618-0.0285 0.09609-0.0207 0.12569 0.0171 0.09503 0.12108 0.2324 0.18387 0.36763 0.16806 0.13871-0.0164 0.25698-0.1144 0.3246-0.26821 0.019361-0.0437 0.071727-0.0642 0.11754-0.0459 0.045527 0.0186 0.067195 0.0685 0.048059 0.11232-0.079025 0.17965-0.21339 0.30407-0.37669 0.35298 0.00116 0.006 0.00177 0.0118 0.00165 0.0179-0.011187 0.65433-0.23628 1.2555-0.5876 1.5692-0.043552 0.0389-0.088671 0.0727-0.13493 0.10188 0.26323 0.0502 0.54888 0.13692 0.85096 0.24451v-0.0461c0-0.0711 0.060294-0.1288 0.13466-0.1288 0.074343 0 0.13466 0.0577 0.13466 0.1288v3.162c0.10971-0.21559 0.26151-0.39124 0.43674-0.39124 0.03418 0 0.067348 0.007 0.099596 0.0196 0.098697-0.17383 0.21725-0.29559 0.34868-0.29559 0.20043 0 0.37089 0.28139 0.48571 0.60344 0.28127 0.0103 0.46713 0.698 0.46713 0.97802 0 0.20937-0.09706 0.39196-0.24057 0.48855 0.030257 0.00054 0.06066 0.001 0.090533 0.001 0.77026 0 1.6883-0.16993 1.6883-0.97985v-2.3562c0-0.0711 0.06039-0.1288 0.13466-0.1288s0.13466 0.0577 0.13466 0.1288v0.18189l0.03936 0.0201c0.28762 0.0454 0.56861 0.0648 0.83796 0.0483 0.23924-0.0147 0.53528-0.0364 0.78066-0.0659l0.0047 0.25879c-0.22895 0.0272-0.52177 0.0491-0.76802 0.0643-0.08024 0.005-0.16135 0.007-0.24304 0.006v0.70221c0.0067-0.0217 0.01345-0.0435 0.0206-0.0644 0.06935-0.20283 0.18585-0.44424 0.34758-0.44424 0.17479 0 0.31252 0.29735 0.39399 0.60243 0.12143 0.0948 0.20548 0.34447 0.24945 0.55794v-1.5603-0.27417c0-0.0711 0.06032-0.12889 0.13466-0.12889 0.05393 0 0.10006 0.0305 0.12157 0.0743 0.0036 0.007 0.0063 0.015 0.0085 0.023 0.000323 0.001 0.000903 0.002 0.0012 0.004 0.0022 0.009 0.0034 0.0184 0.0034 0.028v1.8066c0.10972-0.21538 0.26151-0.39079 0.43665-0.39079 0.03409 0 0.06724 0.007 0.09941 0.0194 0.09871-0.17397 0.21731-0.29586 0.34886-0.29586 0.20053 0 0.37091 0.28151 0.48571 0.60362 0.28124 0.0101 0.46722 0.698 0.46722 0.97792 0 0.20897-0.09673 0.39124-0.23965 0.48801 0.02991 0.00069 0.0601 0.002 0.08962 0.002 0.77001 0 1.6879-0.16985 1.6879-0.97967v-3.7362-0.0858-0.0611c0-0.0712 0.06038-0.1287 0.13484-0.1287 0.0036 0 0.0069 0.00074 0.01044 0.001 0.15129-0.33523 0.23306-0.71519 0.23306-1.1441 0-2.1856-1.386-3.9572-4.3522-3.9572 0 0-0.6614-0.007-2.7339 0.0465 0.21502 0.38338 0.3544 0.89554 0.41495 1.5344 0.03248 0.34399 0.04982 0.70519 0.02179 1.0499h0.02902c0.06281 0 0.16489 0.008 0.22702 0.0172 0 0 0.45453 0.0125 0.63264 0.24899 0.14181 0.18888 0.20317 0.42534 0.14079 0.74321-0.02553 0.13103-0.06907 0.25084-0.13008 0.35921-0.06101 0.10874-0.14108 0.20797-0.23956 0.29787-0.11785 0.10923-0.24832 0.18718-0.39225 0.23343-0.14362 0.0465-0.32681 0.0697-0.54943 0.0697h-0.39033c-0.062938 0-0.12386 0.05-0.13594 0.11113l-0.096117 0.49103c-0.012139 0.061-0.073154 0.11104-0.13603 0.11104h-0.36067c-0.062763 0-0.10442-0.05-0.092364-0.11104l0.16926-0.86415c-0.040142 0.008-0.081127 0.0159-0.12358 0.0223-0.20429 0.0311-0.34817 0.10134-0.42786 0.20871-0.096175 0.12967-0.069441 0.27952-0.069113 0.28076 0.013329 0.0696-0.034348 0.13709-0.10701 0.15031-0.072569 0.0133-0.14265-0.0314-0.15727-0.10061-0.00228-0.0103-0.050899-0.25376 0.11031-0.475 0.12278-0.169 0.32753-0.27608 0.60884-0.31856 0.99226-0.15035 1.3511-0.89848 1.1996-2.5022-0.095123-1.0034-0.39808-1.6839-0.8765-1.9682-0.45955-0.27298-0.93835-0.10106-0.9587-0.0936-0.65055 0.24094-1.7018 0.95548-1.7124 0.96246-0.060498 0.0413-0.14475 0.0278-0.18784-0.0301-0.043235-0.0579-0.02905-0.13835 0.031398-0.1796 0.036223-0.0247 0.74184-0.50402 1.371-0.81608-0.1972-0.11016-0.38805-0.15272-0.55849-0.15635zm11.187 1.5056c-0.07812-0.005-0.17147 0.01-0.26052 0.0521-0.09574 0.0453-0.20245 0.12193-0.29256 0.20001 0.26295-0.0511 0.53892-0.0765 0.67584-0.0775h0.000183c0.01524-0.00009 0.02999 0.00053 0.04495 0.00082 0.0053-0.0105 0.0095-0.0207 0.01199-0.03 0.0081-0.0298 0.0045-0.0547-0.01099-0.0763-0.02789-0.0387-0.09077-0.0639-0.16889-0.069zm0.12468 0.43244c-0.31277 0.002-0.80565 0.093-0.99486 0.17411 0.19062 0.0782 0.68606 0.16257 0.99926 0.16047 0.25044-0.002 0.43593-0.0716 0.50192-0.13603 0.01637-0.0159 0.02224-0.0281 0.02224-0.0343-0.000328-0.0433-0.18268-0.1665-0.52856-0.16422zm-2.3433 0.11076c0.06698 0.0766 0.10718 0.12292 0.13402 0.15343h0.91422c-0.01684-0.0269-0.02688-0.0558-0.02719-0.0872l0.02993-0.0662h-1.051zm-11.018 0.0654c0.21373-0.00017 0.41602 0.0368 0.56471 0.0901 0.057833 0.0207 0.078632 0.0635 0.046777 0.0954-0.03188 0.0323-0.10478 0.0413-0.16248 0.0205-0.2896-0.10367-0.8987-0.003-1.1695 0.36195-0.047512 0.0639-0.14171 0.0799-0.20999 0.0351-0.068553-0.0448-0.085276-0.13299-0.037715-0.19708 0.2241-0.30241 0.61201-0.40571 0.96822-0.40599zm12.651 0.34127c0.11884 0.0931 0.29591 0.19905 0.44104 0.24706 0.18993 0.0631 0.37769 0.0202 0.41816-0.0602 0.0041-0.008 0.01613-0.0321-0.0017-0.0733-0.0059-0.0136-0.01501-0.0283-0.02728-0.0435-0.03729 0.003-0.07519 0.005-0.11369 0.005-0.007 0-0.37114-0.0106-0.71649-0.075zm-5.6864 0.13978h0.35618c0.06288 0 0.10435 0.05 0.09227 0.11104l-0.09612 0.49102c-0.01202 0.0612 0.02983 0.11095 0.09246 0.11095h0.2922c0.06275 0 0.16528 0.005 0.22766 0.0117 0 0 0.42599 0.005 0.56426 0.15846 0.11262 0.12498 0.1616 0.29714 0.11186 0.55098l-0.22263 1.1373c-0.01189 0.0611-0.07313 0.11113-0.13594 0.11113h-0.36534c-0.06281 0-0.10447-0.05-0.09246-0.11113l0.18912-0.96474c0.01195-0.0611 0.02542-0.16194 0.03003-0.22418 0 0 0.0084-0.11417-0.03762-0.16313-0.04582-0.0491-0.14367-0.0736-0.2932-0.0736h-0.35289c-0.06288 0-0.12374 0.0499-0.13594 0.11104l-0.25723 1.3146c-0.01201 0.0611-0.07312 0.11113-0.13594 0.11113h-0.35618c-0.06281 0-0.10441-0.05-0.09245-0.11113l0.48214-2.4604c0.01195-0.061 0.073-0.11104 0.13575-0.11104zm-6.5518 0.28808c0.034495-0.00026 0.054555 0.006 0.053734 0.0213-0.024366 0.0909-0.19725 0.20636-0.41193 0.33183-0.069107 0.039-0.11891 0.084-0.16322 0.11781-0.23411 0.17919-0.30811 0.43945-0.14994 0.58696-0.013714-0.006 0.016122 0.0321 0.00348 0.0251-0.24904-0.13695-0.29069-0.54367-0.061424-0.78294 0.1599-0.16707 0.57983-0.29898 0.7293-0.30007zm8.8403 0.42493h0.90433c0.06275 0 0.16489 0.008 0.22702 0.0172 0 0 0.45051 0.019 0.63273 0.24899 0.14686 0.18524 0.2032 0.42534 0.14088 0.74321-0.02571 0.13103-0.0691 0.25084-0.13017 0.35921-0.06119 0.10874-0.14086 0.20797-0.23965 0.29787-0.11766 0.10923-0.24839 0.18718-0.39188 0.23343-0.14399 0.0465-0.32696 0.0697-0.54952 0.0697h-0.39051c-0.06263 0-0.12383 0.05-0.13585 0.11113l-0.09612 0.49103c-0.01189 0.061-0.07331 0.11104-0.13594 0.11104h-0.36067c-0.06288 0-0.10444-0.05-0.09236-0.11104l0.48187-2.4604c0.01189-0.0612 0.07316-0.11131 0.13585-0.11131zm-9.0003 0.052c0.18444-0.005 0.3346 0.10989 0.35124 0.28213 0.00377 0.0391 0.0001219 0.0781-0.00943 0.11598-0.0002812-0.0371-0.00753-0.0756-0.022702-0.11397-0.059315-0.14985-0.21684-0.23681-0.35042-0.19507-0.071591 0.022-0.12058 0.077-0.14344 0.14555l0.18665 0.0916-0.17155 0.12276c0.063493 0.14117 0.21362 0.22225 0.34328 0.18226-0.055651 0.043-0.12188 0.0752-0.19462 0.0904-0.2199 0.0464-0.41275-0.076-0.43235-0.27261-0.018844-0.19666 0.14339-0.39348 0.3625-0.43949 0.027461-0.006 0.054482-0.009 0.08083-0.01zm0.18162 0.21988c0.033237-0.005 0.072372 0.0351 0.086597 0.0905 0.014343 0.0547-0.00109 0.10338-0.03506 0.10856-0.033604 0.005-0.072662-0.0352-0.087055-0.0904-0.013964-0.0546 0.00179-0.10316 0.035518-0.10866zm9.3247 0.1515c-0.06275 0-0.12386 0.0502-0.13594 0.11132l-0.17631 0.90039c-0.01189 0.0611 0.0294 0.11113 0.09227 0.11113h0.12999c0.06294 0 0.16534-0.005 0.22766-0.0123 0 0 0.3008-0.0322 0.41715-0.12083 0.11635-0.0887 0.19451-0.23705 0.23535-0.44471 0.03897-0.19925 0.02117-0.34006-0.05309-0.422-0.07477-0.0819-0.22387-0.12303-0.44754-0.12303h-0.28954zm-4.59 0.00046c-0.09127 0.4114-0.27695 0.77305-0.62 1.0162-0.00887 0.0588 0.031898 0.10619 0.092913 0.10619h0.1298c0.062689 0 0.16519-0.005 0.22775-0.0123 0 0 0.3008-0.0322 0.41697-0.12083 0.11616-0.0887 0.19463-0.23705 0.23553-0.44471 0.03891-0.19925 0.021-0.34006-0.05346-0.422-0.07255-0.0796-0.21594-0.12033-0.42951-0.12257zm-3.8992 2.6016v2.3672c0.083564-0.26944 0.21108-0.50887 0.36781-0.50887 0.17482 0 0.31254 0.29739 0.39399 0.60252 0.1195 0.0932 0.20298 0.33679 0.24753 0.54805v-2.7252c-0.36611-0.13383-0.7082-0.23763-1.0093-0.28378zm0.36781 1.9443c-0.18166 0-0.38612 0.67477-0.38612 1.0343 0 0.28056 0.14547 0.51233 0.33339 0.54952-0.027738-0.0695-0.043665-0.14817-0.043665-0.23169 0-0.21748 0.13714-0.87311 0.38703-0.87458-0.076252-0.25622-0.1868-0.47757-0.29064-0.47757zm5.576 0.0404c-0.08049 0-0.18102 0.14766-0.26226 0.3852-0.07302 0.21328-0.12413 0.48018-0.12413 0.64893 0 0.28086 0.14565 0.51291 0.33394 0.54989-0.02776-0.0695-0.04376-0.14837-0.04376-0.23206 0-0.21741 0.13712-0.87293 0.38685-0.87439-0.07627-0.25621-0.18685-0.47757-0.29064-0.47757zm1.7977 0.46549c-0.28462 0-0.55098 0.87825-0.55098 1.2774 0 0.3811 0.24706 0.69141 0.55098 0.69141 0.06303 0 0.12329-0.0142 0.17969-0.0389-0.10598-0.10308-0.17374-0.25945-0.17374-0.43445 0-0.25429 0.15349-0.84542 0.39253-0.95916-0.10352-0.29027-0.24809-0.53634-0.39848-0.53633zm-7.0822 0.0576c-0.13713 0-0.29815 0.52142-0.29815 0.78872 0 0.23087 0.13364 0.41889 0.29815 0.41889 0.16409 0 0.29778-0.18802 0.29778-0.41889 0-0.2673-0.16063-0.78872-0.29778-0.78872zm1.5044 0.0345c-0.28452 0-0.55107 0.87863-0.55107 1.2778 0 0.19522 0.065241 0.37144 0.16944 0.49725 0.15997 0.0787 0.34686 0.12973 0.54274 0.16221 0.00615-0.002 0.012428-0.004 0.018491-0.007-0.10596-0.1031-0.17374-0.25947-0.17374-0.43436 0-0.25444 0.15356-0.84552 0.39253-0.95916-0.10351-0.29041-0.24804-0.53662-0.39838-0.53662zm4.0716 0.006c-0.13714 0-0.29787 0.52123-0.29787 0.78853 0 0.23094 0.13352 0.41898 0.29787 0.41898 0.16416 0 0.29778-0.18804 0.29778-0.41898 0-0.2673-0.16082-0.78853-0.29778-0.78853zm1.0579 0.17842c-0.27392 0-0.5302 0.65859-0.5302 0.95788 0 0.2618 0.2041 0.47806 0.46649 0.50859-0.08049-0.1299-0.1288-0.29075-0.1288-0.46539 0-0.24169 0.09603-0.67666 0.25128-0.99065-0.01945-0.007-0.03903-0.0104-0.05877-0.0104zm-5.5778 0.092c-0.17242 0-0.33778 0.26109-0.43674 0.5292v0.20029c0 0.30604 0.13115 0.52061 0.33577 0.66925-0.05771-0.11636-0.091632-0.25181-0.091632-0.39719 0-0.2419 0.09625-0.67715 0.25164-0.99111-0.019528-0.007-0.039238-0.0104-0.059043-0.0104zm6.5056 0.23471c-0.18047 0-0.38374 0.58215-0.38374 0.89243 0 0.26249 0.1722 0.47601 0.38374 0.47601 0.21141 0 0.38374-0.21352 0.38374-0.47601 0-0.31028-0.20333-0.89243-0.38374-0.89243zm-5.5779 0.0922c-0.18017 0-0.38374 0.58226-0.38374 0.89261 0 0.26254 0.17223 0.47573 0.38374 0.47573 0.21175 0 0.38374-0.21319 0.38374-0.47573 0-0.31035-0.20312-0.89261-0.38374-0.89261zm-1.6337 0.36625c-0.062221 0.17081-0.1956 0.28954-0.35005 0.28954-0.11943 0-0.22629-0.0707-0.29751-0.18152-0.055977-0.001-0.10951-0.0154-0.15928-0.0404 0.19483 0.23637 0.51801 0.37998 0.91156 0.45257-0.000089-0.00018-0.0001856-0.00037-0.0002746-0.00055-0.00756-0.0156-0.014583-0.0315-0.021329-0.0476-0.00124-0.003-0.00254-0.006-0.00375-0.009-0.00601-0.0147-0.011509-0.0297-0.016843-0.0448-0.0018-0.005-0.00368-0.0102-0.0054-0.0153-0.00452-0.0135-0.00874-0.0271-0.012724-0.0409-0.0021-0.007-0.00409-0.0146-0.00604-0.0219-0.00344-0.0129-0.00673-0.026-0.0097-0.0392-0.00188-0.008-0.00352-0.0168-0.00522-0.0252-0.00249-0.0124-0.00496-0.0248-0.00705-0.0374-0.00155-0.009-0.00279-0.0188-0.00412-0.0282-0.00179-0.0128-0.00365-0.0255-0.00503-0.0385-0.00116-0.0108-0.00187-0.0219-0.00275-0.0329-0.000868-0.0109-0.00198-0.0218-0.00256-0.0329-0.00123-0.023-0.00192-0.0463-0.00192-0.0699v-0.0363zm5.5808 0.0275c-0.06004 0.17777-0.19636 0.30227-0.35481 0.30227-0.11933 0-0.22616-0.0706-0.29732-0.18134-0.05612-0.00097-0.10975-0.0154-0.15965-0.0405 0.20972 0.25437 0.56778 0.40152 1.0026 0.46804-0.000188-0.00028-0.000376-0.00055-0.00055-0.00082-0.01362-0.0187-0.02652-0.0379-0.03872-0.0575-0.001-0.002-0.0019-0.003-0.0029-0.005-0.01094-0.0178-0.02126-0.0359-0.03103-0.0543-0.0021-0.004-0.004-0.008-0.006-0.0118-0.0088-0.0171-0.01712-0.0346-0.0249-0.0523-0.0016-0.004-0.0032-0.007-0.0048-0.0112-0.0075-0.0177-0.01454-0.0356-0.02105-0.0538-0.0017-0.005-0.0034-0.01-0.005-0.0144-0.006-0.0175-0.01142-0.0353-0.01648-0.0534-0.0015-0.005-0.0029-0.0103-0.0043-0.0156-0.0051-0.0192-0.0096-0.0388-0.01364-0.0586-0.000773-0.004-0.0016-0.008-0.0024-0.0113-0.0043-0.0221-0.0079-0.0445-0.01089-0.0672-0.000235-0.002-0.000507-0.004-0.000732-0.005-0.0032-0.0251-0.0057-0.0504-0.0073-0.0763z"/>
</svg>