<?xml version="1.0" encoding="UTF-8" standalone="no"?>
<svg
   xmlns:dc="http://purl.org/dc/elements/1.1/"
   xmlns:cc="http://creativecommons.org/ns#"
   xmlns:rdf="http://www.w3.org/1999/02/22-rdf-syntax-ns#"
   xmlns:svg="http://www.w3.org/2000/svg"
   xmlns="http://www.w3.org/2000/svg"
   xmlns:sodipodi="http://sodipodi.sourceforge.net/DTD/sodipodi-0.dtd"
   xmlns:inkscape="http://www.inkscape.org/namespaces/inkscape"
   viewBox="0 0 16 16"
   height="16"
   width="16"
   xml:space="preserve"
   id="svg2"
   version="1.1"
   inkscape:version="0.91 r13725"
   sodipodi:docname="php-elephpant.svg"><sodipodi:namedview
     pagecolor="#ffffff"
     bordercolor="#666666"
     borderopacity="1"
     objecttolerance="10"
     gridtolerance="10"
     guidetolerance="10"
     inkscape:pageopacity="0"
     inkscape:pageshadow="2"
     inkscape:window-width="1366"
     inkscape:window-height="705"
     id="namedview194"
     showgrid="false"
     inkscape:zoom="1.1208333"
     inkscape:cx="183.91141"
     inkscape:cy="74.220568"
     inkscape:window-x="-8"
     inkscape:window-y="-8"
     inkscape:window-maximized="1"
     inkscape:current-layer="svg2"
     showguides="false" /><metadata
     id="metadata8"><rdf:RDF><cc:Work
         rdf:about=""><dc:format>image/svg+xml</dc:format><dc:type
           rdf:resource="http://purl.org/dc/dcmitype/StillImage" /><dc:title></dc:title></cc:Work></rdf:RDF></metadata><defs
     id="defs6"><clipPath
       id="clipPath20"
       clipPathUnits="userSpaceOnUse"><path
         id="path18"
         d="m 366.672,2445.95 c 0,0 127.719,141.37 216.176,199.96 28.183,18.65 237.797,128.95 372.402,-250.67 73.64,-207.85 74.87,-362.68 -92.516,-428.71 -100.234,-39.55 -64.41,-113.59 -64.41,-113.59"
         inkscape:connector-curvature="0" /></clipPath><linearGradient
       id="linearGradient26"
       spreadMethod="pad"
       gradientTransform="matrix(115.66757,85.49955,-86.20082,114.72658,141.10098,85.258913)"
       gradientUnits="userSpaceOnUse"
       y2="0"
       x2="1"
       y1="0"
       x1="0"><stop
         id="stop22"
         offset="0"
         style="stop-opacity:1;stop-color:#8c9bd6" /><stop
         id="stop24"
         offset="1"
         style="stop-opacity:1;stop-color:#505e9b" /></linearGradient><clipPath
       id="clipPath38"
       clipPathUnits="userSpaceOnUse"><path
         id="path36"
         d="m 2084.18,2364.09 268.24,0 c 22.51,0 40.74,-14.93 40.74,-33.29 l 0,0 c 0,-18.37 -18.23,-33.27 -40.74,-33.27 l -210.54,0 z"
         inkscape:connector-curvature="0" /></clipPath><linearGradient
       id="linearGradient44"
       spreadMethod="pad"
       gradientTransform="matrix(116.62923,86.210441,-86.917542,115.68041,216.74994,-13.077518)"
       gradientUnits="userSpaceOnUse"
       y2="0"
       x2="1"
       y1="0"
       x1="0"><stop
         id="stop40"
         offset="0"
         style="stop-opacity:1;stop-color:#808fd0" /><stop
         id="stop42"
         offset="1"
         style="stop-opacity:1;stop-color:#505e9b" /></linearGradient><clipPath
       id="clipPath68"
       clipPathUnits="userSpaceOnUse"><path
         id="path66"
         d="m 1150.12,1702.08 0,-535.82 c 0,-132.12 -131.1,-179.471 -292.784,-179.471 l 0,0 c -161.711,0 -292.746,47.351 -292.746,179.471 l 0,542.14"
         inkscape:connector-curvature="0" /></clipPath><linearGradient
       id="linearGradient74"
       spreadMethod="pad"
       gradientTransform="matrix(115.16032,85.124606,-85.822801,114.22345,88.76354,152.82519)"
       gradientUnits="userSpaceOnUse"
       y2="0"
       x2="1"
       y1="0"
       x1="0"><stop
         id="stop70"
         offset="0"
         style="stop-opacity:1;stop-color:#8c9bd6" /><stop
         id="stop72"
         offset="1"
         style="stop-opacity:1;stop-color:#505e9b" /></linearGradient><clipPath
       id="clipPath98"
       clipPathUnits="userSpaceOnUse"><path
         id="path96"
         d="m 2045.81,1695.54 0,-535.81 c 0,-132.14 -131.09,-179.468 -292.78,-179.468 l 0,0 c -161.7,0 -292.79,47.328 -292.79,179.468 l 0,542.13"
         inkscape:connector-curvature="0" /></clipPath><linearGradient
       id="linearGradient104"
       spreadMethod="pad"
       gradientTransform="matrix(115.15912,85.123815,-85.822004,114.22227,132.0944,97.778555)"
       gradientUnits="userSpaceOnUse"
       y2="0"
       x2="1"
       y1="0"
       x1="0"><stop
         id="stop100"
         offset="0"
         style="stop-opacity:1;stop-color:#8c9bd6" /><stop
         id="stop102"
         offset="1"
         style="stop-opacity:1;stop-color:#505e9b" /></linearGradient><clipPath
       id="clipPath128"
       clipPathUnits="userSpaceOnUse"><path
         id="path126"
         d="m 903.801,2433.88 c 114.029,-185.4 101.879,-342.02 -50.055,-424.12 -90.965,-49.18 -40.887,-114.04 -40.887,-114.04"
         inkscape:connector-curvature="0" /></clipPath><linearGradient
       id="linearGradient134"
       spreadMethod="pad"
       gradientTransform="matrix(111.78511,82.629768,-83.3075,110.8757,138.05663,87.756781)"
       gradientUnits="userSpaceOnUse"
       y2="0"
       x2="1"
       y1="0"
       x1="0"><stop
         id="stop130"
         offset="0"
         style="stop-opacity:1;stop-color:#808fd0" /><stop
         id="stop132"
         offset="1"
         style="stop-opacity:1;stop-color:#505e9b" /></linearGradient><clipPath
       id="clipPath146"
       clipPathUnits="userSpaceOnUse"><path
         id="path144"
         d="m 1569.91,2565.32 c 0,0 -189.32,2.23 -881.043,-20.69 C -2.81641,2521.72 22.7109,2273.69 21.6367,1917.49 l 0,-856.76 c 0,-72.468 62.793,-101.699 140.2733,-101.699 77.469,0 140.356,29.231 140.356,101.699 0,0 17.863,244.81 33.285,393.73 34.5,541.01 687.579,-88.96 1162.329,-59.56 431.41,26.74 771.15,175.65 771.15,529.54 0,353.97 -222.65,640.88 -699.12,640.88 z"
         inkscape:connector-curvature="0" /></clipPath><linearGradient
       id="linearGradient152"
       spreadMethod="pad"
       gradientTransform="matrix(116.25227,85.931802,-86.636618,115.30652,118.8288,115.10949)"
       gradientUnits="userSpaceOnUse"
       y2="0"
       x2="1"
       y1="0"
       x1="0"><stop
         id="stop148"
         offset="0"
         style="stop-opacity:1;stop-color:#8c9bd6" /><stop
         id="stop150"
         offset="1"
         style="stop-opacity:1;stop-color:#505e9b" /></linearGradient><clipPath
       id="clipPath164"
       clipPathUnits="userSpaceOnUse"><path
         id="path162"
         d="m 40.5078,1894 c 0.7383,-80.46 -10.5781,-783.24 33.8086,-825.44 -13.9453,31.12 16.5625,711.97 16.1719,754.76 l -0.4102,25.04 c 0,11.92 0,23.67 0,35.37 -17.1093,6.32 -33.7148,14.09 -49.7461,22.98 z"
         inkscape:connector-curvature="0" /></clipPath><linearGradient
       id="linearGradient170"
       spreadMethod="pad"
       gradientTransform="matrix(76.971498,111.26935,-112.18199,76.345311,-40.400615,86.553958)"
       gradientUnits="userSpaceOnUse"
       y2="0"
       x2="1"
       y1="0"
       x1="0"><stop
         id="stop166"
         offset="0"
         style="stop-opacity:1;stop-color:#fafafd" /><stop
         id="stop168"
         offset="1"
         style="stop-opacity:1;stop-color:#8892d2" /></linearGradient><clipPath
       id="clipPath180"
       clipPathUnits="userSpaceOnUse"><path
         id="path178"
         d="m 1569.65,2541.75 c 0,0 -185.21,2.18 -862.005,-20.24 C 30.8789,2499.09 41.2656,2249.73 41.2656,1914.49 l 0.1406,-12.4 c 15.6641,-8.89 31.8985,-16.66 48.5586,-22.99 0.1563,317.27 13.6482,550.06 666.4062,571.68 676.769,22.42 862.039,20.24 862.039,20.24 258.82,0 437,-87.38 547.94,-223.71 -102.14,176.42 -295.52,294.44 -596.7,294.44 z"
         inkscape:connector-curvature="0" /></clipPath><linearGradient
       id="linearGradient186"
       spreadMethod="pad"
       gradientTransform="matrix(89.689327,129.65424,-130.71767,88.959677,86.33152,-5.4995975)"
       gradientUnits="userSpaceOnUse"
       y2="0"
       x2="1"
       y1="0"
       x1="0"><stop
         id="stop182"
         offset="0"
         style="stop-opacity:1;stop-color:#fafafd" /><stop
         id="stop184"
         offset="1"
         style="stop-opacity:1;stop-color:#8892d2" /></linearGradient><clipPath
       id="clipPath196"
       clipPathUnits="userSpaceOnUse"><path
         id="path194"
         d="m 1333.93,1456.26 0,-381.58 c 0,-132.121 -131.13,-179.571 -292.82,-179.571 l 0,0 c -161.696,0 -292.755,47.45 -292.755,179.571 l 0,580.79"
         inkscape:connector-curvature="0" /></clipPath><linearGradient
       id="linearGradient202"
       spreadMethod="pad"
       gradientTransform="matrix(115.10041,85.08034,-85.778172,114.16404,86.937201,155.65901)"
       gradientUnits="userSpaceOnUse"
       y2="0"
       x2="1"
       y1="0"
       x1="0"><stop
         id="stop198"
         offset="0"
         style="stop-opacity:1;stop-color:#8c9bd6" /><stop
         id="stop200"
         offset="1"
         style="stop-opacity:1;stop-color:#505e9b" /></linearGradient><clipPath
       id="clipPath232"
       clipPathUnits="userSpaceOnUse"><path
         id="path230"
         d="m 2229.92,1718.48 0,-628.88 c 0,-132.112 -131.12,-179.53 -292.81,-179.53 l 0,0 c -161.71,0 -292.75,47.418 -292.75,179.53 l 0,361.33"
         inkscape:connector-curvature="0" /></clipPath><linearGradient
       id="linearGradient238"
       spreadMethod="pad"
       gradientTransform="matrix(115.50048,85.376105,-86.076363,114.56085,139.01297,87.925414)"
       gradientUnits="userSpaceOnUse"
       y2="0"
       x2="1"
       y1="0"
       x1="0"><stop
         id="stop234"
         offset="0"
         style="stop-opacity:1;stop-color:#8c9bd6" /><stop
         id="stop236"
         offset="1"
         style="stop-opacity:1;stop-color:#505e9b" /></linearGradient><clipPath
       id="clipPath298"
       clipPathUnits="userSpaceOnUse"><path
         id="path296"
         d="m 571.879,2500.55 c 0,0 171.527,117.93 279.867,158.35 34.531,12.89 283.674,78.71 324.064,-351.49 22.08,-235.55 -17.68,-398.24 -210.83,-427.71 -115.589,-17.66 -97.691,-103.81 -97.691,-103.81"
         inkscape:connector-curvature="0" /></clipPath><linearGradient
       id="linearGradient304"
       spreadMethod="pad"
       gradientTransform="matrix(115.32316,85.24502,-85.944203,114.38497,145.9079,79.040592)"
       gradientUnits="userSpaceOnUse"
       y2="0"
       x2="1"
       y1="0"
       x1="0"><stop
         id="stop300"
         offset="0"
         style="stop-opacity:1;stop-color:#8c9bd6" /><stop
         id="stop302"
         offset="1"
         style="stop-opacity:1;stop-color:#505e9b" /></linearGradient><clipPath
       id="clipPath316"
       clipPathUnits="userSpaceOnUse"><path
         id="path314"
         d="m 747.344,2531.75 c 194.211,121.45 302.026,59.35 302.026,59.35 -84.444,77.21 -179.436,51.62 -200.444,43.74 -107.969,-40.42 -316.485,-189.8 -316.485,-189.8 0,0 -28.195,-50.01 27.989,-39.16 0,0 122.211,85.38 186.914,125.87 z"
         inkscape:connector-curvature="0" /></clipPath><linearGradient
       id="linearGradient322"
       spreadMethod="pad"
       gradientTransform="matrix(91.663102,132.50822,-133.59505,90.917394,84.158243,-4.1294588)"
       gradientUnits="userSpaceOnUse"
       y2="0"
       x2="1"
       y1="0"
       x1="0"><stop
         id="stop318"
         offset="0"
         style="stop-opacity:1;stop-color:#fafafd" /><stop
         id="stop320"
         offset="1"
         style="stop-opacity:1;stop-color:#8892d2" /></linearGradient></defs><path
     style="fill:#000000;fill-opacity:1;fill-rule:nonzero;stroke:none"
     d="m 4.159786,2.5693167 c -0.3370527,-0.007 -0.5947729,0.133 -0.6660488,0.17978 -0.2795014,0.18362 -0.6210866,0.49827 -0.8905976,0.76427 -2.71238233,0.44305 -2.59738243,1.84061 -2.603137625,3.73348 l 0,5.2902203 c 0,0.44747 0.390956395,0.62797 0.873296495,0.62797 0.48226973,0 0.87375423,-0.1805 0.87375423,-0.62797 0,0 0.1112408,-1.5116 0.2072477,-2.43113 0.045745,-0.7115203 0.2666373,-1.0943203 0.6140538,-1.2586803 l 0,-0.1429 c 0.1400767,-0.0561 0.2946919,-0.0834 0.4622796,-0.087 0.045358,-9.7e-4 0.091919,1.8e-4 0.1391415,0.003 0.1319982,-0.0139 0.2622264,-0.075 0.3810832,-0.18116 0.3157498,-0.2817 0.5184284,-0.83298 0.5303857,-1.43902 -0.1694882,-0.007 -0.3318908,-0.0924 -0.4465346,-0.23864 -0.029838,-0.0379 -0.021761,-0.0917 0.01785,-0.1201 0.039618,-0.0285 0.09609,-0.0207 0.1256851,0.0171 0.09503,0.12108 0.2324003,0.18387 0.3676267,0.16806 0.1387128,-0.0164 0.2569769,-0.1144 0.3246027,-0.26821 0.019361,-0.0437 0.071727,-0.0642 0.1175379,-0.0459 0.045527,0.0186 0.067195,0.0685 0.048059,0.11232 -0.079025,0.17965 -0.2133898,0.30407 -0.3766891,0.35298 0.00116,0.006 0.00177,0.0118 0.00165,0.0179 -0.011187,0.65433 -0.2362786,1.25551 -0.5875985,1.56919 -0.043552,0.0389 -0.088671,0.0727 -0.1349308,0.10188 0.2632323,0.0502 0.5488771,0.13692 0.8509607,0.24451 l 0,-0.0461 c 0,-0.0711 0.060294,-0.1288 0.1346561,-0.1288 0.074343,0 0.1346562,0.0577 0.1346562,0.1288 l 0,3.1619903 c 0.1097127,-0.21559 0.261513,-0.39124 0.4367398,-0.39124 0.03418,0 0.067348,0.007 0.099596,0.0196 0.098697,-0.17383 0.2172455,-0.29559 0.3486776,-0.29559 0.2004342,0 0.3708869,0.28139 0.4857139,0.60344 0.2812678,0.0103 0.4671314,0.698 0.4671314,0.97802 0,0.20937 -0.09706,0.39196 -0.2405683,0.48855 0.030257,5.4e-4 0.06066,10e-4 0.090533,10e-4 0.7702601,0 1.6882821,-0.16993 1.6882821,-0.97985 l 0,-2.35616 c 0,-0.0711 0.06039,-0.1288003 0.134656,-0.1288003 0.07427,0 0.134656,0.0577 0.134656,0.1288003 l 0,0.18189 0.03936,0.0201 c 0.287621,0.0454 0.568612,0.0648 0.837961,0.0483 0.239238,-0.0147 0.535276,-0.0364 0.780658,-0.0659 l 0.0047,0.25879 c -0.228948,0.0272 -0.521774,0.0491 -0.768025,0.0643 -0.08024,0.005 -0.161349,0.007 -0.243039,0.006 l 0,0.70221 c 0.0067,-0.0217 0.01345,-0.0435 0.0206,-0.0644 0.06935,-0.20283 0.185846,-0.44424 0.34758,-0.44424 0.174794,0 0.312519,0.29735 0.39399,0.60243 0.12143,0.0948 0.205481,0.34447 0.249448,0.55794 l 0,-1.56031 0,-0.27417 c 0,-0.0711 0.06032,-0.1288903 0.1346559,-0.1288903 0.05393,0 0.100062,0.0305 0.121566,0.0743 0.0036,0.007 0.0063,0.015 0.0085,0.023 3.23e-4,10e-4 9.03e-4,0.002 0.0012,0.004 0.0022,0.009 0.0034,0.0184 0.0034,0.028 l 0,1.80656 c 0.109724,-0.21538 0.261509,-0.39079 0.436648,-0.39079 0.03409,0 0.06724,0.007 0.09941,0.0194 0.09871,-0.17397 0.217309,-0.29586 0.348861,-0.29586 0.200532,0 0.370913,0.28151 0.485714,0.60362 0.281244,0.0101 0.467223,0.698 0.467223,0.97792 0,0.20897 -0.09673,0.39124 -0.239653,0.48801 0.02991,6.9e-4 0.0601,0.002 0.08962,0.002 0.77001,0 1.687915,-0.16985 1.687915,-0.97967 l 0,-3.7362303 0,-0.0858 0,-0.0611 c 0,-0.0712 0.06038,-0.1287 0.134839,-0.1287 0.0036,0 0.0069,7.4e-4 0.01044,10e-4 0.15129,-0.33523 0.233062,-0.71519 0.233062,-1.14407 0,-2.18565 -1.38602,-3.95721 -4.3522019,-3.95721 0,0 -0.6613951,-0.007 -2.7339482,0.0465 0.2150225,0.38338 0.3543981,0.89554 0.4149521,1.5344 0.03248,0.34399 0.04982,0.70519 0.02179,1.04988 l 0.02902,0 c 0.06281,0 0.164892,0.008 0.227021,0.0172 0,0 0.45453,0.0125 0.632636,0.24899 0.141811,0.18888 0.203167,0.42534 0.14079,0.74321 -0.02553,0.13103 -0.06907,0.25084 -0.130079,0.35921 -0.06101,0.10874 -0.141078,0.20797 -0.2395619,0.29787 -0.1178451,0.10923 -0.2483211,0.18718 -0.3922511,0.23343 -0.143618,0.0465 -0.326809,0.0697 -0.5494258,0.0697 l -0.3903286,0 c -0.062938,0 -0.1238604,0.05 -0.1359377,0.11113 l -0.096117,0.49103 c -0.012139,0.061 -0.073154,0.11104 -0.1360295,0.11104 l -0.3606695,0 c -0.062763,0 -0.1044226,-0.05 -0.092364,-0.11104 l 0.1692585,-0.86415 c -0.040142,0.008 -0.081127,0.0159 -0.1235798,0.0223 -0.20429,0.0311 -0.3481705,0.10134 -0.4278605,0.20871 -0.096175,0.12967 -0.069441,0.27952 -0.069113,0.28076 0.013329,0.0696 -0.034348,0.13709 -0.1070107,0.15031 -0.072569,0.0133 -0.1426493,-0.0314 -0.1572667,-0.10061 -0.00228,-0.0103 -0.050899,-0.25376 0.1103065,-0.475 0.1227751,-0.169 0.3275324,-0.27608 0.6088358,-0.31856 0.992261,-0.15035 1.3511,-0.89848 1.1996383,-2.50217 -0.095123,-1.00344 -0.3980839,-1.68387 -0.8765004,-1.96821 -0.459547,-0.27298 -0.9383534,-0.10106 -0.9587038,-0.0936 -0.6505466,0.24094 -1.7018235,0.95548 -1.7123568,0.96246 -0.060498,0.0413 -0.1447494,0.0278 -0.1878411,-0.0301 -0.043235,-0.0579 -0.02905,-0.13835 0.031398,-0.1796 0.036223,-0.0247 0.7418382,-0.50402 1.3710023,-0.81608 -0.1971952,-0.11016 -0.3880463,-0.15272 -0.5584887,-0.15635 z m 11.186983,1.50556 c -0.07812,-0.005 -0.171471,0.01 -0.260524,0.0521 -0.09574,0.0453 -0.202451,0.12193 -0.292564,0.20001 0.262952,-0.0511 0.53892,-0.0765 0.675844,-0.0775 l 1.83e-4,0 c 0.01524,-9e-5 0.02999,5.3e-4 0.04495,8.2e-4 0.0053,-0.0105 0.0095,-0.0207 0.01199,-0.03 0.0081,-0.0298 0.0045,-0.0547 -0.01099,-0.0763 -0.02789,-0.0387 -0.09077,-0.0639 -0.168892,-0.069 z m 0.124678,0.43244 c -0.312769,0.002 -0.805647,0.093 -0.994862,0.17411 0.190619,0.0782 0.68606,0.16257 0.999256,0.16047 0.250445,-0.002 0.435928,-0.0716 0.501917,-0.13603 0.01637,-0.0159 0.02224,-0.0281 0.02224,-0.0343 -3.28e-4,-0.0433 -0.182676,-0.1665 -0.528555,-0.16422 z m -2.343254,0.11076 c 0.06698,0.0766 0.107184,0.12292 0.134015,0.15343 l 0.914215,0 c -0.01684,-0.0269 -0.02688,-0.0558 -0.02719,-0.0872 l 0.02993,-0.0662 -1.050977,0 z m -11.0179991,0.0654 c 0.2137286,-1.7e-4 0.4160181,0.0368 0.5647134,0.0901 0.057833,0.0207 0.078632,0.0635 0.046777,0.0954 -0.03188,0.0323 -0.1047817,0.0413 -0.1624844,0.0205 -0.2896021,-0.10367 -0.8986951,-0.003 -1.1695215,0.36195 -0.047512,0.0639 -0.1417084,0.0799 -0.209994,0.0351 -0.068553,-0.0448 -0.085276,-0.13299 -0.037715,-0.19708 0.224104,-0.30241 0.6120097,-0.40571 0.968224,-0.40599 z m 12.6509901,0.34127 c 0.118839,0.0931 0.295906,0.19905 0.441043,0.24706 0.189934,0.0631 0.377692,0.0202 0.418156,-0.0602 0.0041,-0.008 0.01613,-0.0321 -0.0017,-0.0733 -0.0059,-0.0136 -0.01501,-0.0283 -0.02728,-0.0435 -0.03729,0.003 -0.07519,0.005 -0.113693,0.005 -0.007,0 -0.371139,-0.0106 -0.716488,-0.075 z m -5.6864049,0.13978 0.356184,0 c 0.06288,0 0.104351,0.05 0.09227,0.11104 l -0.09612,0.49102 c -0.01202,0.0612 0.02983,0.11095 0.09246,0.11095 l 0.292197,0 c 0.06275,0 0.165283,0.005 0.2276609,0.0117 0,0 0.425991,0.005 0.564256,0.15846 0.112616,0.12498 0.161603,0.29714 0.111862,0.55098 l -0.222626,1.1373 c -0.01189,0.0611 -0.07313,0.11113 -0.135938,0.11113 l -0.3653379,0 c -0.06281,0 -0.104471,-0.05 -0.09246,-0.11113 l 0.1891229,-0.96474 c 0.01195,-0.0611 0.02542,-0.16194 0.03003,-0.22418 0,0 0.0084,-0.11417 -0.03762,-0.16313 -0.04582,-0.0491 -0.1436719,-0.0736 -0.2932049,-0.0736 l -0.352888,0 c -0.06288,0 -0.123736,0.0499 -0.135938,0.11104 l -0.257229,1.31461 c -0.01201,0.0611 -0.07312,0.11113 -0.135937,0.11113 l -0.356185,0 c -0.06281,0 -0.104408,-0.05 -0.09245,-0.11113 l 0.482144,-2.46042 c 0.01195,-0.061 0.073,-0.11104 0.135754,-0.11104 z m -6.551829,0.28808 c 0.034495,-2.6e-4 0.054555,0.006 0.053734,0.0213 -0.024366,0.0909 -0.1972519,0.20636 -0.4119322,0.33183 -0.069107,0.039 -0.1189111,0.084 -0.1632168,0.11781 -0.2341096,0.17919 -0.3081102,0.43945 -0.1499434,0.58696 -0.013714,-0.006 0.016122,0.0321 0.00348,0.0251 -0.2490379,-0.13695 -0.29069,-0.54367 -0.061424,-0.78294 0.159901,-0.16707 0.5798266,-0.29898 0.7293033,-0.30007 z m 8.8403419,0.42493 0.904329,0 c 0.06275,0 0.164891,0.008 0.22702,0.0172 0,0 0.450513,0.019 0.632728,0.24899 0.146856,0.18524 0.203197,0.42534 0.140881,0.74321 -0.02571,0.13103 -0.0691,0.25084 -0.130171,0.35921 -0.06119,0.10874 -0.140857,0.20797 -0.239653,0.29787 -0.117659,0.10923 -0.248391,0.18718 -0.391885,0.23343 -0.143992,0.0465 -0.326962,0.0697 -0.549517,0.0697 l -0.390512,0 c -0.06263,0 -0.123831,0.05 -0.135846,0.11113 l -0.09612,0.49103 c -0.01189,0.061 -0.07331,0.11104 -0.135938,0.11104 l -0.360669,0 c -0.06288,0 -0.104442,-0.05 -0.09236,-0.11104 l 0.481869,-2.46043 c 0.01189,-0.0612 0.07316,-0.11131 0.135846,-0.11131 z m -9.0002632,0.052 c 0.1844398,-0.005 0.3345999,0.10989 0.3512409,0.28213 0.00377,0.0391 1.219e-4,0.0781 -0.00943,0.11598 -2.812e-4,-0.0371 -0.00753,-0.0756 -0.022702,-0.11397 -0.059315,-0.14985 -0.2168402,-0.23681 -0.350417,-0.19507 -0.071591,0.022 -0.1205846,0.077 -0.143444,0.14555 l 0.1866511,0.0916 -0.1715469,0.12276 c 0.063493,0.14117 0.2136247,0.22225 0.3432769,0.18226 -0.055651,0.043 -0.1218764,0.0752 -0.1946151,0.0904 -0.2199034,0.0464 -0.4127485,-0.076 -0.4323459,-0.27261 -0.018844,-0.19666 0.1433939,-0.39348 0.3625004,-0.43949 0.027461,-0.006 0.054482,-0.009 0.08083,-0.01 z m 0.1816164,0.21988 c 0.033237,-0.005 0.072372,0.0351 0.086597,0.0905 0.014343,0.0547 -0.00109,0.10338 -0.03506,0.10856 -0.033604,0.005 -0.072662,-0.0352 -0.087055,-0.0904 -0.013964,-0.0546 0.00179,-0.10316 0.035518,-0.10866 z m 9.3246828,0.1515 c -0.06275,0 -0.123861,0.0502 -0.135938,0.11132 l -0.176307,0.90039 c -0.01189,0.0611 0.0294,0.11113 0.09227,0.11113 l 0.129988,0 c 0.06294,0 0.165345,-0.005 0.227661,-0.0123 0,0 0.300798,-0.0322 0.41715,-0.12083 0.116351,-0.0887 0.194513,-0.23705 0.235351,-0.44471 0.03897,-0.19925 0.02117,-0.34006 -0.05309,-0.422 -0.07477,-0.0819 -0.223868,-0.12303 -0.447541,-0.12303 l -0.289543,0 z m -4.5900239,4.6e-4 c -0.09127,0.4114 -0.2769543,0.77305 -0.6200044,1.01619 -0.00887,0.0588 0.031898,0.10619 0.092913,0.10619 l 0.1298044,0 c 0.062689,0 0.1651884,-0.005 0.227753,-0.0123 0,0 0.300803,-0.0322 0.416967,-0.12083 0.116165,-0.0887 0.194634,-0.23705 0.235533,-0.44471 0.03891,-0.19925 0.021,-0.34006 -0.05346,-0.422 -0.07255,-0.0796 -0.21594,-0.12033 -0.429509,-0.12257 z m -3.8991686,2.60158 0,2.3672403 c 0.083564,-0.26944 0.2110765,-0.50887 0.3678097,-0.50887 0.1748232,0 0.3125361,0.29739 0.3939904,0.60252 0.1195001,0.0932 0.2029791,0.33679 0.2475256,0.54805 l 0,-2.7251603 c -0.3661065,-0.13383 -0.7081984,-0.23763 -1.0093257,-0.28378 z m 0.3678097,1.9443203 c -0.181655,0 -0.3861178,0.67477 -0.3861179,1.03432 0,0.28056 0.145473,0.51233 0.3333906,0.54952 -0.027738,-0.0695 -0.043665,-0.14817 -0.043665,-0.23169 0,-0.21748 0.1371397,-0.87311 0.3870333,-0.87458 -0.076252,-0.25622 -0.1868019,-0.47757 -0.2906412,-0.47757 z m 5.5760079,0.0404 c -0.08049,0 -0.181024,0.14766 -0.262264,0.3852 -0.07302,0.21328 -0.124129,0.48018 -0.124129,0.64893 0,0.28086 0.145646,0.51291 0.33394,0.54989 -0.02776,-0.0695 -0.04376,-0.14837 -0.04376,-0.23206 0,-0.21741 0.137122,-0.87293 0.386851,-0.87439 -0.07627,-0.25621 -0.186854,-0.47757 -0.290641,-0.47757 z m 1.7976719,0.46549 c -0.284622,0 -0.550982,0.87825 -0.550982,1.27744 0,0.3811 0.247061,0.69141 0.550982,0.69141 0.06303,0 0.123289,-0.0142 0.179694,-0.0389 -0.105978,-0.10308 -0.173744,-0.25945 -0.173744,-0.43445 0,-0.25429 0.153493,-0.84542 0.392526,-0.95916 -0.103517,-0.29027 -0.248086,-0.53634 -0.398476,-0.53633 z m -7.0822148,0.0576 c -0.1371252,0 -0.2981474,0.52142 -0.2981474,0.78872 0,0.23087 0.133637,0.41889 0.2981474,0.41889 0.1640934,0 0.2977813,-0.18802 0.2977813,-0.41889 0,-0.2673 -0.1606311,-0.78872 -0.2977813,-0.78872 z m 1.5043768,0.0345 c -0.2845157,0 -0.5510738,0.87863 -0.5510738,1.27782 0,0.19522 0.065241,0.37144 0.1694413,0.49725 0.1599677,0.0787 0.3468583,0.12973 0.5427438,0.16221 0.00615,-0.002 0.012428,-0.004 0.018491,-0.007 -0.1059585,-0.1031 -0.1737438,-0.25947 -0.1737438,-0.43436 0,-0.25444 0.1535622,-0.84552 0.3925257,-0.95916 -0.103511,-0.29041 -0.2480392,-0.53662 -0.3983843,-0.53662 z m 4.0716311,0.006 c -0.137145,0 -0.297873,0.52123 -0.297873,0.78853 0,0.23094 0.133524,0.41898 0.297873,0.41898 0.164161,0 0.297781,-0.18804 0.297781,-0.41898 0,-0.2673 -0.160824,-0.78853 -0.297781,-0.78853 z m 1.0579329,0.17842 c -0.273915,0 -0.530203,0.65859 -0.530203,0.95788 0,0.2618 0.204105,0.47806 0.466491,0.50859 -0.08049,-0.1299 -0.128798,-0.29075 -0.128798,-0.46539 0,-0.24169 0.09603,-0.67666 0.251279,-0.99065 -0.01945,-0.007 -0.03903,-0.0104 -0.05877,-0.0104 z m -5.5778377,0.092 c -0.1724184,0 -0.337784,0.26109 -0.4367398,0.5292 l 0,0.20029 c 0,0.30604 0.1311514,0.52061 0.3357704,0.66925 -0.05771,-0.11636 -0.091632,-0.25181 -0.091632,-0.39719 0,-0.2419 0.09625,-0.67715 0.2516448,-0.99111 -0.019528,-0.007 -0.039238,-0.0104 -0.059043,-0.0104 z m 6.5056007,0.23471 c -0.180472,0 -0.383738,0.58215 -0.383738,0.89243 0,0.26249 0.172202,0.47601 0.383738,0.47601 0.211412,0 0.383738,-0.21352 0.383738,-0.47601 0,-0.31028 -0.203328,-0.89243 -0.383738,-0.89243 z m -5.5779291,0.0922 c -0.1801672,0 -0.3837378,0.58226 -0.3837378,0.89261 0,0.26254 0.1722262,0.47573 0.3837378,0.47573 0.2117483,0 0.3837378,-0.21319 0.3837378,-0.47573 0,-0.31035 -0.203116,-0.89261 -0.3837378,-0.89261 z m -1.6337237,0.36625 c -0.062221,0.17081 -0.195601,0.28954 -0.350051,0.28954 -0.1194315,0 -0.2262852,-0.0707 -0.2975066,-0.18152 -0.055977,-10e-4 -0.1095056,-0.0154 -0.1592805,-0.0404 0.1948328,0.23637 0.5180109,0.37998 0.9115604,0.45257 -8.9e-5,-1.8e-4 -1.856e-4,-3.7e-4 -2.746e-4,-5.5e-4 -0.00756,-0.0156 -0.014583,-0.0315 -0.021329,-0.0476 -0.00124,-0.003 -0.00254,-0.006 -0.00375,-0.009 -0.00601,-0.0147 -0.011509,-0.0297 -0.016843,-0.0448 -0.0018,-0.005 -0.00368,-0.0102 -0.0054,-0.0153 -0.00452,-0.0135 -0.00874,-0.0271 -0.012724,-0.0409 -0.0021,-0.007 -0.00409,-0.0146 -0.00604,-0.0219 -0.00344,-0.0129 -0.00673,-0.026 -0.0097,-0.0392 -0.00188,-0.008 -0.00352,-0.0168 -0.00522,-0.0252 -0.00249,-0.0124 -0.00496,-0.0248 -0.00705,-0.0374 -0.00155,-0.009 -0.00279,-0.0188 -0.00412,-0.0282 -0.00179,-0.0128 -0.00365,-0.0255 -0.00503,-0.0385 -0.00116,-0.0108 -0.00187,-0.0219 -0.00275,-0.0329 -8.68e-4,-0.0109 -0.00198,-0.0218 -0.00256,-0.0329 -0.00123,-0.023 -0.00192,-0.0463 -0.00192,-0.0699 l 0,-0.0363 z m 5.5807669,0.0275 c -0.06004,0.17777 -0.19636,0.30227 -0.35481,0.30227 -0.119327,0 -0.226162,-0.0706 -0.297324,-0.18134 -0.05612,-9.7e-4 -0.109754,-0.0154 -0.159647,-0.0405 0.209724,0.25437 0.567779,0.40152 1.0025519,0.46804 -1.88e-4,-2.8e-4 -3.76e-4,-5.5e-4 -5.5e-4,-8.2e-4 -0.01362,-0.0187 -0.02652,-0.0379 -0.03872,-0.0575 -10e-4,-0.002 -0.0019,-0.003 -0.0029,-0.005 -0.01094,-0.0178 -0.02126,-0.0359 -0.03103,-0.0543 -0.0021,-0.004 -0.004,-0.008 -0.006,-0.0118 -0.0088,-0.0171 -0.01712,-0.0346 -0.0249,-0.0523 -0.0016,-0.004 -0.0032,-0.007 -0.0048,-0.0112 -0.0075,-0.0177 -0.01454,-0.0356 -0.02105,-0.0538 -0.0017,-0.005 -0.0034,-0.01 -0.005,-0.0144 -0.006,-0.0175 -0.01142,-0.0353 -0.01648,-0.0534 -0.0015,-0.005 -0.0029,-0.0103 -0.0043,-0.0156 -0.0051,-0.0192 -0.0096,-0.0388 -0.01364,-0.0586 -7.73e-4,-0.004 -0.0016,-0.008 -0.0024,-0.0113 -0.0043,-0.0221 -0.0079,-0.0445 -0.01089,-0.0672 -2.35e-4,-0.002 -5.07e-4,-0.004 -7.32e-4,-0.005 -0.0032,-0.0251 -0.0057,-0.0504 -0.0073,-0.0763 z"
     id="path240"
     inkscape:connector-curvature="0" /></svg>