<svg xmlns="http://www.w3.org/2000/svg" viewBox="0 0 16 16">
 <path d="m8 3.8597a8.0503 4.1906 0 0 0 -8.0503 4.1906 8.0503 4.1906 0 0 0 8.0503 4.1907 8.0503 4.1906 0 0 0 8.05 -4.1907 8.0503 4.1906 0 0 0 -8.05 -4.1906zm-0.99246 1.0476h1.0476l-0.22053 1.1579h0.99246c0.88222 0.0551 1.2131 0.49623 1.1028 1.0476l-0.38602 2.2607h-1.1028l0.38602-2.0401c0.05514-0.27569 0.05512-0.44117-0.33086-0.44117h-0.82708l-0.49623 2.4812h-1.0476l0.88225-4.4663zm-3.9149 1.1579h2.0401c0.88222 0.0551 1.3234 0.49632 1.3234 1.2683 0 1.3233-1.0477 2.0952-1.985 2.0401h-0.99257l-0.22053 1.1579h-1.0476l0.88225-4.4663zm7.3886 0h2.0402c0.88222 0.0551 1.3233 0.49632 1.3233 1.2683 0 1.3233-1.0477 2.0952-1.985 2.0401h-0.99246l-0.22064 1.1579h-1.0476l0.88225-4.4663zm-6.5064 0.82709-0.2757 1.6542h0.6616c0.49625-0.0551 0.93743-0.22058 0.99257-1.158 0-0.33083-0.27574-0.49622-0.66171-0.49622h-0.71676zm7.3886 0-0.2757 1.6542h0.6616c0.49625-0.0551 0.93743-0.22058 0.99257-1.158 0-0.33083-0.27574-0.49622-0.66171-0.49622h-0.71676z"/>
</svg>