<?xml version="1.0" encoding="UTF-8" standalone="no"?>
<svg
   xmlns:dc="http://purl.org/dc/elements/1.1/"
   xmlns:cc="http://creativecommons.org/ns#"
   xmlns:rdf="http://www.w3.org/1999/02/22-rdf-syntax-ns#"
   xmlns:svg="http://www.w3.org/2000/svg"
   xmlns="http://www.w3.org/2000/svg"
   xmlns:xlink="http://www.w3.org/1999/xlink"
   xmlns:sodipodi="http://sodipodi.sourceforge.net/DTD/sodipodi-0.dtd"
   xmlns:inkscape="http://www.inkscape.org/namespaces/inkscape"
   version="1.1"
   width="16"
   height="16"
   viewBox="0 0 16 16.100629"
   id="svg2943"
   inkscape:version="0.91 r13725"
   sodipodi:docname="php.svg">
  <metadata
     id="metadata15">
    <rdf:RDF>
      <cc:Work
         rdf:about="">
        <dc:format>image/svg+xml</dc:format>
        <dc:type
           rdf:resource="http://purl.org/dc/dcmitype/StillImage" />
        <dc:title></dc:title>
      </cc:Work>
    </rdf:RDF>
  </metadata>
  <sodipodi:namedview
     pagecolor="#ffffff"
     bordercolor="#666666"
     borderopacity="1"
     objecttolerance="10"
     gridtolerance="10"
     guidetolerance="10"
     inkscape:pageopacity="0"
     inkscape:pageshadow="2"
     inkscape:window-width="1366"
     inkscape:window-height="705"
     id="namedview13"
     showgrid="false"
     inkscape:zoom="1.4133333"
     inkscape:cx="192.09906"
     inkscape:cy="79.5"
     inkscape:window-x="-8"
     inkscape:window-y="-8"
     inkscape:window-maximized="1"
     inkscape:current-layer="svg2943" />
  <defs
     id="defs2945">
    <linearGradient
       x1="150"
       y1="84"
       x2="299"
       y2="84"
       id="linearGradient3798"
       gradientUnits="userSpaceOnUse">
      <stop
         id="stop3800"
         style="stop-color:#dddce9;stop-opacity:1"
         offset="0" />
      <stop
         id="stop3802"
         style="stop-color:#5664a3;stop-opacity:1"
         offset="0.37" />
      <stop
         id="stop3804"
         style="stop-color:#000000;stop-opacity:1"
         offset="1" />
    </linearGradient>
    <radialGradient
       cx="77.914261"
       cy="-48.544521"
       r="146"
       fx="77.914261"
       fy="-48.544521"
       id="radialGradient3870"
       xlink:href="#linearGradient3798"
       gradientUnits="userSpaceOnUse"
       gradientTransform="matrix(1.5089497,0,0,1.3582164,-39.028917,76.957747)" />
  </defs>
  <path
     style="fill:#000000;stroke:none;stroke-width:5.5"
     d="M 8.0000005,3.8597304 A 8.050293,4.1905631 0 0 0 -0.05031455,8.0503204 8.050293,4.1905631 0 0 0 8.0000005,12.2409 8.050293,4.1905631 0 0 0 16.050315,8.0503204 8.050293,4.1905631 0 0 0 8.0000005,3.8597304 Z m -0.992459,1.04762 1.047619,0 -0.220534,1.15794 0.992458,0 c 0.882224,0.0551 1.2130585,0.49623 1.10278,1.04762 l -0.386016,2.26072 -1.10278,0 0.386016,-2.04008 c 0.05514,-0.27569 0.05512,-0.44117 -0.330855,-0.44117 l -0.827085,0 -0.496229,2.48125 -1.04762,0 0.882246,-4.46628 z m -3.9148901,1.15794 2.0400777,0 c 0.8822244,0.0551 1.3234224,0.49632 1.3234224,1.26826 0,1.32334 -1.0476625,2.09522 -1.9850253,2.04008 l -0.9925669,0 -0.2205344,1.1579396 -1.0476191,0 0.8822456,-4.4662796 z m 7.3886036,0 2.040186,0 c 0.882224,0.0551 1.323314,0.49632 1.323314,1.26826 0,1.32334 -1.047662,2.09522 -1.985025,2.04008 l -0.992459,0 -0.220642,1.1579396 -1.0476195,0 0.8822455,-4.4662796 z m -6.5063581,0.82709 -0.275695,1.65417 0.6616029,0 c 0.4962509,-0.0551 0.9374279,-0.22058 0.9925669,-1.15795 0,-0.33083 -0.2757383,-0.49622 -0.6617112,-0.49622 l -0.7167636,0 z m 7.3886041,0 -0.275695,1.65417 0.661603,0 c 0.496251,-0.0551 0.937428,-0.22058 0.992567,-1.15795 0,-0.33083 -0.275739,-0.49622 -0.661712,-0.49622 l -0.716763,0 z"
     id="ellipse3860"
     inkscape:connector-curvature="0" />
</svg>
