<svg xmlns="http://www.w3.org/2000/svg" viewBox="0 0 16 16">
 <path d="m11.391 0c-0.54541 0-1.0221 0.075-1.3781 0.1516-0.18987 0.041-0.34527 0.082-0.45932 0.1163-0.0129 0-0.02 0.01-0.0318 0.01-0.35355-0.062-0.73455-0.1-1.1498-0.1067h-0.00017c-0.78531-0.013-1.4604 0.1775-2.0038 0.4957-0.53657-0.1863-1.6481-0.5074-2.8207-0.4437-0.81485 0.044-1.7069 0.2929-2.366 0.9896-0.6591 0.6966-1.0069 1.7751-0.93358 3.2417 0.0202 0.4047 0.13492 1.0649 0.32638 1.9194 0.19145 0.8545 0.45954 1.8552 0.79513 2.768 0.33559 0.9129 0.70293 1.7332 1.2769 2.291 0.28696 0.2789 0.68131 0.5142 1.1474 0.4944 0.32674-0.014 0.62286-0.1546 0.87803-0.3649 0.12361 0.1612 0.25517 0.2323 0.37524 0.298 0.15219 0.083 0.30029 0.1386 0.45359 0.1769 0.27535 0.069 0.74622 0.1611 1.2985 0.067 0.189-0.032 0.388-0.093 0.58642-0.1816 0.007 0.2169 0.0133 0.4412 0.0219 0.6551 0.0277 0.6902 0.0444 1.3281 0.25179 1.8877v0.0001c0.0336 0.091 0.12463 0.5618 0.48453 0.9776 0.35991 0.4157 1.066 0.6752 1.8695 0.503 0.56604-0.1213 1.2873-0.3402 1.7657-1.0213 0.47338-0.674 0.68695-1.6396 0.72891-3.2066 0.0106-0.084 0.0236-0.1569 0.0366-0.2239l0.11239 0.01 0.0141 0.0006c0.60462 0.028 1.2607-0.059 1.8086-0.3135 0.48529-0.2252 0.85241-0.4524 1.1196-0.8554 0.0668-0.1008 0.1401-0.2211 0.16002-0.4291 0.0199-0.208-0.0989-0.533-0.29712-0.6837-0.39649-0.3013-0.64594-0.1869-0.91369-0.1316h0.00006c-0.35342 0.073-0.60537 0.094-0.8012 0.098 0.77071-1.2984 1.3238-2.6769 1.6389-3.897 0.18611-0.7206 0.29098-1.3841 0.29992-1.9649 0.009-0.5807-0.0386-1.0949-0.38647-1.5395-1.0871-1.3891-2.6156-1.7731-3.7982-1.7872-0.037-0.0004-0.0736-0.0005-0.10997-0.0003zm-0.0318 0.4259c1.1187-0.01 2.5487 0.3042 3.5747 1.6151a0.22406 0.22406 0 0 0 0 0.0001c0.23074 0.2949 0.29935 0.7261 0.29116 1.2564-0.008 0.5303-0.10638 1.1652-0.28577 1.8597-0.34817 1.348-1.0033 2.919-1.9291 4.3275 0.0231 0.017 0.0558 0.036 0.10267 0.056 0.19288 0.08 0.63408 0.1487 1.5134-0.033 0.22128-0.046 0.38365-0.078 0.55194 0.05 0.0841 0.064 0.13091 0.1917 0.12199 0.2843-0.009 0.093-0.0451 0.1602-0.0875 0.2241-0.0788 0.1188-0.19396 0.2346-0.33739 0.3446 0.0201 0 0.019 0.01-0.007 0-0.16382 0.1247-0.36406 0.2419-0.59086 0.3472l-0.00006 0.0001c-0.38107 0.1769-0.92643 0.2696-1.4111 0.2749-0.24234 0-0.46636-0.016-0.65646-0.075-0.002-0.0007-0.005 0-0.007 0-0.081 0.7519-0.25321 2.1379-0.35654 2.7366h0.00006c-0.0885 0.5134-0.24206 0.9209-0.53621 1.2267-0.29415 0.3057-0.70883 0.4897-1.268 0.6096-0.6917 0.1482-1.1965-0.011-1.5217-0.2854-0.32519-0.2739-0.47389-0.6361-0.56288-0.8585a0.22406 0.22406 0 0 0 -0.00006 -0.0001c-0.0615-0.1538-0.0937-0.352-0.12418-0.6172-0.0305-0.2653-0.0532-0.59-0.0689-0.9561-0.0214-0.4997-0.0294-1.0766-0.0245-1.6766-0.32593 0.2943-0.69138 0.4433-1.0297 0.5011-0.4591 0.079-0.86952 0-1.1143-0.06-0.11417-0.028-0.235-0.074-0.34716-0.1352-0.11218-0.061-0.2207-0.1302-0.29341-0.265-0.0364-0.067-0.0586-0.1619-0.0374-0.2542 0.0213-0.092 0.0792-0.1671 0.14525-0.2209 0.13216-0.1078 0.30659-0.1672 0.57046-0.2216a0.22406 0.22406 0 0 0 0.00006 0c0.47876-0.099 0.64584-0.1658 0.7484-0.2475 0.089-0.071 0.17026-0.1988 0.35733-0.4181-0.00044-0.01-0.00088-0.015-0.001-0.022-0.31699-0.01-0.61828-0.093-0.88786-0.2384-0.16472 0.1746-0.66551 0.7123-1.2325 1.3944a0.22406 0.22406 0 0 0 -0.00006 0.0001c-0.26112 0.3139-0.55104 0.493-0.8563 0.506-0.30525 0.013-0.58182-0.1403-0.81619-0.3681-0.46874-0.4556-0.8431-1.2388-1.1686-2.1243-0.32553-0.8855-0.59031-1.8716-0.7785-2.7116-0.1882-0.8399-0.29973-1.5176-0.31604-1.8438-0.0694-1.3883 0.25479-2.3237 0.81198-2.914 0.55718-0.5902 1.3214-0.8135 2.0658-0.8561 0.093-0.01 0.18603-0.01 0.27864-0.01 1.1605 0 2.2553 0.3725 2.585 0.4963 0.4946-0.3358 1.1326-0.544 1.9279-0.531 0.40371 0.01 0.7778 0.058 1.1237 0.1442 0.004 0 0.007 0 0.01-0.01 0.006 0 0.0113 0 0.0166-0.01 0.0215-0.01 0.0509-0.018 0.093-0.032 0.0842-0.027 0.21469-0.065 0.38282-0.1044 0.33625-0.079 0.82237-0.1622 1.3817-0.1674zm0.10177 0.448c-0.0327-0.0002-0.0653-0.0002-0.0976 0.0001-0.44133 0-0.83719 0.062-1.1376 0.1238 0.83296 0.3674 1.459 0.9381 1.9015 1.5038 0.36382 0.4652 0.60813 0.9268 0.7552 1.2802 0.0735 0.1767 0.12265 0.3253 0.15075 0.4409 0.014 0.058 0.0234 0.1055 0.0262 0.1574 0.001 0.026 0.003 0.052-0.008 0.096-0.00034 0.001-0.00086 0-0.001 0 0.0213 0.5884-0.12728 0.9819-0.14513 1.5413a0.22406 0.22406 0 0 1 0 0.0001c-0.0131 0.4041 0.0902 0.8786 0.1157 1.3967 0.024 0.4873-0.0315 1.0228-0.34884 1.5486 0.0259 0.032 0.0518 0.064 0.0768 0.095 0.83545-1.3168 1.4355-2.7755 1.7562-4.0174 0.17267-0.6685 0.2642-1.2747 0.27161-1.7546 0.007-0.4799-0.0825-0.8282-0.19607-0.9734-0.89485-1.1434-2.1054-1.4349-3.12-1.4433zm-3.1938 0.1703c-0.78826 0-1.3533 0.2404-1.7818 0.5971-0.44228 0.3682-0.73847 0.8726-0.93352 1.3895-0.22667 0.6006-0.31301 1.207-0.34592 1.611 0.004 0 0.008 0 0.0121-0.01 0.23818-0.1327 0.55099-0.2668 0.88573-0.3441 0.16737-0.039 0.34111-0.064 0.51391-0.064 0.1728 0.0001 0.34467 0.026 0.50818 0.089 0.32703 0.1263 0.59712 0.4253 0.69493 0.8775 0.46943 2.1709-0.14596 2.9785-0.3726 3.5882l-0.00005 0.0001c-0.0949 0.2559-0.17685 0.4831-0.2236 0.673 0.0296-0.01 0.0591-0.013 0.0883-0.015 0.16004-0.014 0.2857 0.041 0.36025 0.072a0.22406 0.22406 0 0 0 0.00006 0c0.22791 0.094 0.38527 0.2931 0.46942 0.5202 0.0228 0.061 0.0396 0.1267 0.0492 0.1938a0.22406 0.22406 0 0 1 0.0113 0.08c-0.0248 0.8852-0.0216 1.7743 0.009 2.4921 0.0154 0.3589 0.0378 0.6752 0.0664 0.9241 0.0286 0.249 0.0695 0.438 0.0951 0.502v0.0001c0.0853 0.2131 0.21012 0.4923 0.43556 0.6822 0.22546 0.19 0.5484 0.3165 1.1391 0.19h-0.00005c0.51218-0.1098 0.82814-0.2629 1.039-0.4821 0.21091-0.2192 0.33689-0.5245 0.41753-0.9922 0.12034-0.6973 0.36163-2.7135 0.39209-3.1071-0.014-0.2904 0.0294-0.5128 0.12211-0.6828 0.095-0.1741 0.24128-0.2796 0.36838-0.3369 0.0626-0.028 0.1218-0.048 0.17086-0.062-0.0383-0.055-0.0922-0.1278-0.16209-0.2161-0.13566-0.1713-0.30828-0.4042-0.44371-0.7326-0.0145-0.035-0.0827-0.1628-0.17147-0.3221-0.0888-0.1592-0.20101-0.3598-0.31823-0.5848-0.23446-0.4499-0.48992-0.9954-0.62237-1.5265-0.13245-0.531-0.15191-1.0799 0.1872-1.4679 0.30155-0.345 0.82971-0.4872 1.6246-0.4056-0.0218-0.065-0.0493-0.1393-0.0837-0.2219-0.13246-0.3183-0.3595-0.7481-0.69443-1.1763-0.66986-0.8564-1.7544-1.7055-3.4302-1.733-0.0259-0.0004-0.0516-0.0006-0.077-0.0005zm-4.415 0.035c-0.0889-0.0002-0.17792 0-0.26662 0.01-0.67342 0.039-1.31 0.234-1.7656 0.7165-0.45553 0.4826-0.75584 1.2741-0.69033 2.584 0.0124 0.2478 0.1209 0.9429 0.30582 1.7682 0.18493 0.8254 0.44632 1.7968 0.76177 2.6549s0.69685 1.6044 1.0604 1.9577c0.18177 0.1767 0.34051 0.2478 0.48487 0.2417 0.14437-0.01 0.31841-0.09 0.53082-0.3449v0.0001c0.51259-0.6167 0.98673-1.1329 1.2036-1.3649-0.56044-0.4801-0.89301-1.2575-0.77507-2.1009 0.0688-0.4922 0.078-0.9529 0.0699-1.3171-0.008-0.3586-0.0337-0.6038-0.0336-0.7506l-0.00012-0.01v-0.0004c-0.001-0.042-0.0248-1.1399 0.39462-2.2512 0.18768-0.4973 0.46616-1.0014 0.88359-1.4104-0.45509-0.1481-1.3046-0.3806-2.164-0.3825zm8.3457 3.5212c-0.51109-0.01-0.79091 0.1133-0.93268 0.2755-0.18902 0.2163-0.2066 0.5964-0.0898 1.0646 0.11679 0.4683 0.35795 0.9923 0.58496 1.428 0.1135 0.2178 0.22318 0.4139 0.31222 0.5736 0.089 0.1597 0.15454 0.273 0.19433 0.3694 0.0373 0.09 0.0776 0.1708 0.11924 0.2448 0.17663-0.3708 0.20631-0.7359 0.18759-1.1155-0.0231-0.4682-0.13178-0.9476-0.11604-1.433v-0.0001-0.0001c0.0182-0.5698 0.13784-0.9352 0.14648-1.3762-0.14916-0.019-0.28461-0.029-0.4063-0.031zm-5.5825 0.076c-0.12974 0-0.2698 0.018-0.41091 0.05-0.28222 0.065-0.56503 0.1856-0.76845 0.2989-0.10171 0.057-0.18424 0.1122-0.23275 0.1516-0.008 0.01-0.008 0.01-0.0143 0.013 0.003 0.097 0.0228 0.3335 0.0307 0.681 0.009 0.3802-0.00071 0.8646-0.0741 1.3892-0.15921 1.1385 0.66547 2.0816 1.6362 2.0852 0.0566-0.2339 0.1535-0.4707 0.24634-0.7209a0.22406 0.22406 0 0 1 0.00006 -0.0001c0.27102-0.7293 0.80371-1.261 0.35468-3.3376-0.0734-0.3391-0.2186-0.477-0.41838-0.5542-0.0999-0.039-0.21932-0.056-0.34906-0.057zm5.3109 0.1738c0.12517 0 0.21763 0.038 0.22534 0.093v0.0001c0.0101 0.073-0.13422 0.2688-0.32267 0.2949-0.18829 0.026-0.34931-0.1266-0.35963-0.1998-0.01-0.073 0.13441-0.154 0.32273-0.1803 0.0471-0.01 0.0925-0.01 0.13423-0.01zm-5.2801 0.1494c0.0417-0.001 0.0871 0 0.13413 0.01 0.18853 0.026 0.33293 0.107 0.32272 0.1802-0.0102 0.073-0.17126 0.2261-0.3594 0.1999-0.18846-0.026-0.33302-0.2218-0.32267-0.2951h0.00006c0.007-0.055 0.1-0.09 0.22517-0.093zm6.0736 4.8216c-0.00048 0.0001-0.001 0.0005-0.002 0.0006-0.0983 0.035-0.17895 0.049-0.24657 0.08-0.0676 0.03-0.11585 0.064-0.15906 0.1429-0.0419 0.077-0.0782 0.2123-0.0676 0.4438 0.0118 0.01 0.0437 0.029 0.0982 0.046 0.1145 0.036 0.30585 0.057 0.51857 0.055 0.42544-0.01 0.94897-0.1042 1.2273-0.2333 0.26497-0.123 0.49043-0.2858 0.62754-0.4097-0.92877 0.1917-1.4539 0.141-1.7752 0.01-0.0924-0.038-0.16267-0.085-0.22168-0.1326zm-5.3543 0.063c-0.005-0.0002-0.009 0-0.0137 0.0004-0.0355 0-0.0869 0.014-0.18557 0.1249a0.22406 0.22406 0 0 1 -0.00011 0.0002c-0.23239 0.2596-0.31297 0.4231-0.50453 0.5757-0.19156 0.1527-0.44045 0.2337-0.93723 0.336-0.15873 0.033-0.24882 0.068-0.30852 0.096 0.0156 0.012 0.0278 0.023 0.0482 0.034 0.0722 0.04 0.16578 0.075 0.24084 0.094a0.22406 0.22406 0 0 0 0.00006 0c0.21416 0.054 0.56408 0.1154 0.92998 0.053 0.3659-0.063 0.74644-0.2376 1.0715-0.6927a0.22406 0.22406 0 0 0 0.00006 0c0.0558-0.078 0.0621-0.1946 0.016-0.3191s-0.1487-0.2321-0.2209-0.2621c-0.0616-0.025-0.10292-0.039-0.13603-0.039z"/>
</svg>