<svg xmlns="http://www.w3.org/2000/svg" viewBox="0 0 16 16">
 <path id="circle15" d="m4.699 3.2188c-0.36176-0.0094-1.254 0.10068-2.0127 0.45658-0.83668 0.4121-2.7473 2.4977-2.6849 2.6351 0.06244 0.13736 0.97404 0.89907 1.2488 1.1988 0.17483 0.18732 0.69941 1.9731 1.1615 1.6734 0.32468-0.21229 0.1498-1.9106 0.57439-3.3093 0.42458-1.3986 1.8732-2.61 1.8732-2.61 0.02185-0.02498-0.03966-0.04151-0.16024-0.04463zm6.6019 0c-0.12058 0.0031-0.1821 0.01966-0.16024 0.04463 0 0 1.4486 1.2114 1.8732 2.61 0.42458 1.3986 0.24971 3.097 0.57439 3.3093 0.46205 0.29971 0.98663-1.4861 1.1615-1.6734 0.27473-0.29971 1.1863-1.0614 1.2488-1.1988 0.06244-0.13736-1.8482-2.223-2.6849-2.6351-0.75863-0.3559-1.6509-0.46595-2.0127-0.45658zm-6.679 2.5922a1.0989 1.0989 0 0 0 -1.0988 1.0988 1.0989 1.0989 0 0 0 1.0988 1.099 1.0989 1.0989 0 0 0 0.27122 -0.03488c0.2383-0.25224 0.51828-0.49466 0.76024-0.68878a1.0989 1.0989 0 0 0 0.067561 -0.37536 1.0989 1.0989 0 0 0 -1.099 -1.0988zm6.8809 0a1.0989 1.0989 0 0 0 -1.099 1.0988 1.0989 1.0989 0 0 0 0.10707 0.47024c0.20273 0.16737 0.42052 0.35896 0.61512 0.56122a1.0989 1.0989 0 0 0 0.37683 0.06756 1.0989 1.0989 0 0 0 1.0988 -1.099 1.0989 1.0989 0 0 0 -1.0988 -1.0988zm-6.5936 0.32463a0.28722 0.28722 0 0 1 0.28732 0.28707 0.28722 0.28722 0 0 1 -0.28732 0.28732 0.28722 0.28722 0 0 1 -0.28732 -0.28732 0.28722 0.28722 0 0 1 0.28732 -0.28707zm6.3063 0a0.28722 0.28722 0 0 1 0.28732 0.28707 0.28722 0.28722 0 0 1 -0.28732 0.28732 0.28722 0.28722 0 0 1 -0.28732 -0.28732 0.28722 0.28722 0 0 1 0.28732 -0.28707zm-3.1219 0.61195c-0.54647 0.0096-0.9371 0.28398-1.0332 0.54097-0.82418 0.23792-1.453 0.7462-1.889 1.2822-0.62439 0.76175-0.57439 1.0613-0.57439 1.7856 0 2.6224 0.92419 1.8734 1.5361 2.198 0.62439 0.31219 1.2738 0.21219 1.9356 0.21219h0.012439c0.67434 0 1.3112 0.08732 1.9356-0.22488 0.6119-0.31219 1.5358 0.46219 1.5358-2.1602 0.01249-0.72429 0.05-1.049-0.57439-1.8107-0.42823-0.52637-1.0424-1.0259-1.8449-1.269-0.083023-0.26806-0.47942-0.55414-1.0398-0.55414zm0.17634 0.40414a0.18731 0.0999 75.54 0 1 0.13366 0.15805 0.18731 0.0999 75.54 0 1 -0.05 0.20634 0.18731 0.0999 75.54 0 1 -0.14341 -0.15658 0.18731 0.0999 75.54 0 1 0.05 -0.20634 0.18731 0.0999 75.54 0 1 0.00976 -0.0015zm-0.46414 0.0022a0.099903 0.18732 17.235 0 1 0.017073 0.0024 0.099903 0.18732 17.235 0 1 0.04 0.20854 0.099903 0.18732 17.235 0 1 -0.15098 0.14927 0.099903 0.18732 17.235 0 1 -0.04 -0.20854 0.099903 0.18732 17.235 0 1 0.1339 -0.15171zm0.25024 0.3178s0.024976 0.1498 0.12488 0.19976c0.1 0.06244 0.56195-0.08732 0.56195-0.08732-0.22478 0.14985-0.64927 0.16224-0.64927 0.21219 0.012488 0.04995 0.01239 0.14985 0.024878 0.24976 0 0.25263 0.015657 0.9137-0.017805 1.1005 0.5498 0.01663 1.379 0.746 1.379 1.6595v0.04976c-0.0128-0.8868-1.0617-1.6109-1.3989-1.6109-0.33717 0-1.3863 0.7241-1.3988 1.6107v-0.04976c0-0.8971 0.82188-1.6355 1.3717-1.6588-0.035279-0.18184-0.035366-0.82319-0.035366-1.1012 0-0.08741 0.012439-0.21229 0.012439-0.24976 0-0.03746-0.69927-0.21219-0.69927-0.21219s0.52453 0.13727 0.61195 0.08732c0.074927-0.04995 0.11219-0.19976 0.11219-0.19976zm-2.0354 0.88658a0.1 0.1 0 0 1 0.099756 0.1 0.1 0.1 0 0 1 -0.099756 0.1 0.1 0.1 0 0 1 -0.1 -0.1 0.1 0.1 0 0 1 0.1 -0.1zm0.7617 0a0.1 0.1 0 0 1 0.1 0.1 0.1 0.1 0 0 1 -0.1 0.1 0.1 0.1 0 0 1 -0.1 -0.1 0.1 0.1 0 0 1 0.1 -0.1zm2.4351 0a0.1 0.1 0 0 1 0.1 0.1 0.1 0.1 0 0 1 -0.1 0.1 0.1 0.1 0 0 1 -0.1 -0.1 0.1 0.1 0 0 1 0.1 -0.1zm0.7617 0a0.1 0.1 0 0 1 0.099998 0.1 0.1 0.1 0 0 1 -0.099998 0.1 0.1 0.1 0 0 1 -0.099756 -0.1 0.1 0.1 0 0 1 0.099756 -0.1zm-3.7712 0.59951a0.1 0.1 0 0 1 0.099756 0.1 0.1 0.1 0 0 1 -0.099756 0.09976 0.1 0.1 0 0 1 -0.1 -0.09976 0.1 0.1 0 0 1 0.1 -0.1zm3.5839 0a0.1 0.1 0 0 1 0.1 0.1 0.1 0.1 0 0 1 -0.1 0.09976 0.1 0.1 0 0 1 -0.099756 -0.09976 0.1 0.1 0 0 1 0.099756 -0.1z"/>
</svg>