<svg xmlns="http://www.w3.org/2000/svg" viewBox="0 0 16 16">
 <path d="m7.7574 0.0025521c-0.2579 0.0050049-0.5621 0.015406-0.6739 0.025416-1.5454 0.12642-2.5086 0.5541-2.836 1.2571-0.049719 0.10703-0.0718 0.18081-0.082035 0.36364-0.00916 0.16358-0.0097 0.40918-0.00781 0.9306v0.037145c0.0000352 0.00968-0.0000357 0.00774 0 0.017595l0.00391 0.95211v0.054741l1.9376 0.00978c1.0658 0.002 1.9415 0.013685 1.9435 0.013685 0.00151 0.0379 0.00391 0.096655 0.00391 0.21114 0.0000221 0.00381-0.0000194 0.00393 0 0.00782-0.0001923 0.21395-0.00557 0.25811-0.027345 0.26784-0.014101 0.01001-1.314 0.010376-2.8888 0.00978-2.8555-0.001-2.8634-0.00175-3.0256 0.031281-0.7403 0.1507-1.2875 0.6039-1.6545 1.3666-0.2847 0.5917-0.4244 1.2859-0.4473 2.2229-0.00031968 0.01309 0.002223 0.024103 0.0019532 0.037145-0.00018267 0.00692-0.0017834 0.012604-0.0019532 0.01955-0.036722 1.5036 0.25464 2.7011 0.83403 3.4194 0.30592 0.37917 0.73822 0.64524 1.1778 0.72532l0.00195-0.0059c0.086384 0.01802 0.29704 0.0176 0.86333 0.0176h0.75004v-0.05474l0.00977-1.0714c0.0002471-0.03052-0.0002338-0.02576 0-0.05474 0.00465-0.57472 0.0091-0.84377 0.019532-1.0303 0.011964-0.18483 0.033177-0.25933 0.078129-0.42424 0.20001-0.73372 0.6914-1.2572 1.3614-1.4467 0.34492-0.092491 0.19781-0.090651 2.6583-0.10166 2.4776-0.011011 2.3075-0.00428 2.6818-0.10948 0.57643-0.16216 1.0102-0.49929 1.2462-0.96775 0.06816-0.13533 0.1496-0.38799 0.1836-0.56696 0.000645-0.0034-0.000617-0.051296 0-0.054742 0.02565-0.13533 0.02919-0.36457 0.0293-2.174v-2.0802-0.054741l-0.03516-0.12512c-0.047-0.1647-0.171-0.4122-0.269-0.5421-0.044-0.057-0.138-0.16159-0.211-0.23066-0.66-0.62501-1.9146-0.93726-3.6256-0.90323zm-2.0235 1.2942c0.096909-0.013043 0.19845-0.00562 0.29884 0.025416 0.25068 0.077496 0.43637 0.29211 0.4844 0.5611 0.0001117 0.0006252-0.0001101 0.00133 0 0.00195 0.00451 0.055205 0.00799 0.10975-0.00195 0.16422-0.0398 0.2179-0.1891 0.4197-0.4024 0.52v0.00195c-0.0934 0.0431-0.126 0.0529-0.2637 0.0529-0.1263 0.003-0.1724-0.0014-0.2461-0.0274-0.2474-0.0875-0.42-0.2954-0.4649-0.5357-0.011547-0.061801-0.00607-0.12681 0-0.19159 0.055571-0.31118 0.30501-0.5337 0.59573-0.57282zm6.6957 2.7625-0.0098 1.1183c-0.0098 1.2031-0.0065 1.1669-0.09767 1.5093-0.12146 0.45605-0.39346 0.88002-0.7227 1.1281-0.27558 0.2076-0.57013 0.32371-1.0176 0.40078-0.0764 0.013013-0.73878 0.017361-2.34 0.027371l-2.2364 0.00978-0.1797 0.041056c-0.8131 0.1848-1.3314 0.6087-1.5511 1.2668-0.1208 0.3605-0.1232 0.4078-0.1172 2.6722l0.00391 1.9785 0.037111 0.1173c0.30642 1.0093 1.5093 1.5868 3.4553 1.6579l0.00195 0.0059c0.37663 0.01301 0.87473 0.0084 1.2266-0.01565 1.0459-0.07027 1.839-0.28193 2.3595-0.62757 0.17136-0.11381 0.42278-0.36657 0.50589-0.50831 0.0807-0.13753 0.1384-0.29698 0.1543-0.43011 0.006-0.05505 0.0079-0.52895 0.0039-1.0538l-0.0078-0.95406-1.9376-0.0098-1.9396-0.0098v-0.26588-0.26589l2.924-0.0098c3.2439-0.0093 2.9673-0.0013 3.297-0.11339 0.57719-0.19609 1.0343-0.61668 1.3438-1.2395 0.15349-0.3089 0.2555-0.60886 0.334-0.97752 0.07985-0.37527 0.08025-0.38502 0.08008-1.5288-0.00018-1.1752-0.002-1.1933-0.10157-1.654-0.258-1.1986-0.865-1.9916-1.703-2.2256l-0.15626-0.044966h-0.80473-0.80473zm-2.092 9.3117c0.30012 0.04985 0.53321 0.28442 0.58401 0.58651 0.06158 0.36626-0.20462 0.73073-0.57816 0.79179-0.05592 0.005-0.11211 0.01654-0.12501 0.01565-0.348-0.025-0.6151-0.26-0.6744-0.592-0.0815-0.457 0.3349-0.878 0.7934-0.802z"/>
</svg>