<?xml version="1.0" encoding="UTF-8" standalone="no"?>
<!-- Created with Inkscape (http://www.inkscape.org/) -->

<svg
   xmlns:dc="http://purl.org/dc/elements/1.1/"
   xmlns:cc="http://creativecommons.org/ns#"
   xmlns:rdf="http://www.w3.org/1999/02/22-rdf-syntax-ns#"
   xmlns:svg="http://www.w3.org/2000/svg"
   xmlns="http://www.w3.org/2000/svg"
   xmlns:sodipodi="http://sodipodi.sourceforge.net/DTD/sodipodi-0.dtd"
   xmlns:inkscape="http://www.inkscape.org/namespaces/inkscape"
   width="16"
   height="16"
   id="svg2"
   version="1.1"
   inkscape:version="0.91 r13725"
   sodipodi:docname="python.svg">
  <defs
     id="defs4" />
  <sodipodi:namedview
     id="base"
     pagecolor="#ffffff"
     bordercolor="#666666"
     borderopacity="1.0"
     inkscape:pageopacity="0.0"
     inkscape:pageshadow="2"
     inkscape:zoom="0.35"
     inkscape:cx="-112.14286"
     inkscape:cy="495.71429"
     inkscape:document-units="px"
     inkscape:current-layer="layer1"
     showgrid="false"
     inkscape:window-width="1366"
     inkscape:window-height="705"
     inkscape:window-x="-8"
     inkscape:window-y="-8"
     inkscape:window-maximized="1" />
  <metadata
     id="metadata7">
    <rdf:RDF>
      <cc:Work
         rdf:about="">
        <dc:format>image/svg+xml</dc:format>
        <dc:type
           rdf:resource="http://purl.org/dc/dcmitype/StillImage" />
        <dc:title></dc:title>
      </cc:Work>
    </rdf:RDF>
  </metadata>
  <g
     inkscape:label="Layer 1"
     inkscape:groupmode="layer"
     id="layer1"
     transform="translate(0,-1036.3622)">
    <path
       inkscape:connector-curvature="0"
       id="path2997"
       d="m 7.6552436,1052.3428 c -1.94589,-0.071 -3.15029,-0.6478 -3.45673,-1.6561 l -0.0356,-0.1172 -0.005,-1.9769 c -0.006,-2.2625 -0.004,-2.3084 0.11673,-2.6686 0.21976,-0.6574 0.73946,-1.0813 1.55221,-1.266 l 0.17972,-0.041 2.2347,-0.01 c 1.60109,-0.01 2.2649404,-0.015 2.3413104,-0.028 0.44748,-0.077 0.74103,-0.1927 1.01662,-0.4001 0.32922,-0.2478 0.60097,-0.6719 0.72242,-1.1275 0.0912,-0.3421 0.0888,-0.3048 0.0986,-1.5067 l 0.009,-1.1173 0.80481,0 0.8048,0 0.15628,0.044 c 0.8373,0.2338 1.44521,1.0271 1.70402,2.2237 0.0996,0.4602 0.10059,0.4773 0.10077,1.6513 1.7e-4,1.1427 -3.5e-4,1.1526 -0.0802,1.5275 -0.0785,0.3683 -0.18117,0.6681 -0.33465,0.9767 -0.30953,0.6222 -0.76594,1.0434 -1.34308,1.2393 -0.3297,0.112 -0.0537,0.1026 -3.29737,0.1119 l -2.9223104,0.01 0,0.2657 0,0.2656 1.93779,0.01 1.9377904,0.01 0.008,0.9533 c 0.004,0.5243 0.002,0.9982 -0.004,1.0532 -0.0159,0.133 -0.0724,0.2909 -0.1531,0.4283 -0.0831,0.1416 -0.33554,0.3948 -0.50689,0.5085 -0.52043,0.3453 -1.3139104,0.5559 -2.3597204,0.6261 -0.35188,0.024 -0.85019,0.03 -1.22675,0.017 z m 2.6879004,-1.2353 c 0.37351,-0.061 0.64088,-0.4261 0.5793,-0.792 -0.0508,-0.3018 -0.28382,-0.5352 -0.58393,-0.585 -0.4581404,-0.076 -0.8747804,0.3448 -0.7932504,0.801 0.0593,0.3318 0.32538,0.5655 0.6728604,0.5908 0.0129,9e-4 0.0691,-0.01 0.12502,-0.015 z m -8.3265804,-2.8197 c -0.43955,-0.08 -0.8724,-0.3463 -1.17828,-0.7251 -0.57936,-0.7176 -0.87184,-1.914 -0.83512,-3.4161 0.0229,-0.936 0.16282,-1.6309 0.44749,-2.222 0.36695,-0.7619 0.91522,-1.2137 1.65536,-1.3642 0.16211,-0.033 0.17024,-0.033 3.02557,-0.032 1.57466,6e-4 2.87456,-0 2.88868,-0.01 0.0224,-0.01 0.0257,-0.043 0.0257,-0.2739 0,-0.1451 -0.002,-0.2656 -0.004,-0.2677 -0.002,-0 -0.87591,-0.01 -1.9417,-0.012 l -1.93778,-0.01 -0.004,-1.0071 c -0.004,-1.1031 -0.005,-1.0903 0.0892,-1.2929 0.32739,-0.7023 1.29179,-1.129 2.83718,-1.2553 0.11174,-0.01 0.41413,-0.021 0.67198,-0.026 1.71093,-0.034 2.9659804,0.2794 3.6256904,0.9038 0.0731,0.069 0.16833,0.1725 0.21166,0.2295 0.0985,0.1297 0.22114,0.3773 0.2681,0.5413 l 0.0358,0.125 0,2.0784 c 0,1.9401 -0.002,2.0883 -0.0283,2.2269 -0.034,0.1788 -0.11583,0.4301 -0.18399,0.5653 -0.23599,0.468 -0.6708,0.8052 -1.24718,0.9672 -0.37427,0.1051 -0.20428,0.098 -2.6818004,0.109 -2.46039,0.011 -2.31172,0.01 -2.65665,0.1024 -0.66996,0.1893 -1.16213,0.7111 -1.36208,1.4441 -0.0899,0.3295 -0.0879,0.2987 -0.0977,1.508 l -0.009,1.1252 -0.75011,0 c -0.56626,0 -0.77815,-0 -0.86453,-0.018 z m 4.09607,-9.3488 c 0.28439,-0.1336 0.45566,-0.4468 0.40417,-0.7391 -0.0475,-0.2696 -0.23263,-0.4848 -0.48388,-0.5624 -0.40154,-0.124 -0.82052,0.1319 -0.89461,0.5464 -0.0602,0.3372 0.13474,0.6654 0.46454,0.782 0.0737,0.026 0.12109,0.031 0.24743,0.028 0.13765,-0 0.16892,-0.011 0.26235,-0.054 z"
       style="fill:#000000" />
    <path
       inkscape:connector-curvature="0"
       id="path2995"
       d="m 2.0165636,1048.2878 c -0.43955,-0.08 -0.8724,-0.3463 -1.17828,-0.7251 -0.57936,-0.7176 -0.87184,-1.914 -0.83512,-3.4161 0.0229,-0.936 0.16282,-1.6309 0.44749,-2.222 0.36695,-0.7619 0.91522,-1.2137 1.65536,-1.3642 0.16211,-0.033 0.17024,-0.033 3.02557,-0.032 1.57466,6e-4 2.87456,-0 2.88868,-0.01 0.0224,-0.01 0.0257,-0.043 0.0257,-0.2739 0,-0.1451 -0.002,-0.2656 -0.004,-0.2677 -0.002,-0 -0.87591,-0.01 -1.9417,-0.012 l -1.93778,-0.01 -0.004,-1.0071 c -0.004,-1.1031 -0.005,-1.0903 0.0892,-1.2929 0.32739,-0.7023 1.29179,-1.129 2.83718,-1.2553 0.11174,-0.01 0.41413,-0.021 0.67198,-0.026 1.71093,-0.034 2.9659804,0.2794 3.6256904,0.9038 0.0731,0.069 0.16833,0.1725 0.21166,0.2295 0.0985,0.1297 0.22114,0.3773 0.2681,0.5413 l 0.0358,0.125 0,2.0784 c 0,1.9401 -0.002,2.0883 -0.0283,2.2269 -0.034,0.1788 -0.11583,0.4301 -0.18399,0.5653 -0.23599,0.468 -0.6708,0.8052 -1.24718,0.9672 -0.37427,0.1051 -0.20428,0.098 -2.6818004,0.109 -2.46039,0.011 -2.31172,0.01 -2.65665,0.1024 -0.66996,0.1893 -1.16213,0.7111 -1.36208,1.4441 -0.0899,0.3295 -0.0879,0.2987 -0.0977,1.508 l -0.009,1.1252 -0.75011,0 c -0.56626,0 -0.77815,-0 -0.86453,-0.018 z m 4.09607,-9.3488 c 0.28439,-0.1336 0.45566,-0.4468 0.40417,-0.7391 -0.0475,-0.2696 -0.23263,-0.4848 -0.48388,-0.5624 -0.40154,-0.124 -0.82052,0.1319 -0.89461,0.5464 -0.0602,0.3372 0.13474,0.6654 0.46454,0.782 0.0737,0.026 0.12109,0.031 0.24743,0.028 0.13765,-0 0.16892,-0.011 0.26235,-0.054 z"
       style="fill:#000000" />
  </g>
</svg>
