<svg xmlns="http://www.w3.org/2000/svg" viewBox="0 0 16 16">
 <path d="m8 1.8308c-4.4183 0-8 2.3988-8 5.3578 0 2.5321 2.6229 4.6537 6.1483 5.2133v-1.6536c-1.7976-0.63636-3.0045-1.8131-3.0045-3.1599 0-2.0229 2.7224-3.6628 6.0807-3.6628s5.8366 1.122 5.8366 3.6628c0 1.21-0.56201 2.0978-1.5129 2.6962 0.03747 0.0319 0.07504 0.0667 0.11224 0.10627l0.000043 0.00004c0.13346 0.14176 0.21381 0.28678 0.24399 0.34635l0.02739 0.0462c1.286-0.9501 2.069-2.2109 2.069-3.5943 0-2.959-3.582-5.3578-8-5.3578zm-1.4079 3.3269v9.0105l2.7292-0.001-0.000564-3.5274h0.73279c0.14988 0 0.21452 0.0437 0.36611 0.16641 0.18172 0.14714 0.47705 0.65456 0.47705 0.65456l1.4423 2.7084 3.0842-0.001-1.9082-3.2173s-0.05818-0.12843-0.17751-0.25517c-0.12182-0.1294-0.29069-0.22796-0.3883-0.27736-0.28131-0.14234-0.7655-0.28845-0.7655-0.28845s2.3853-0.17677 2.3853-2.5517-2.4962-2.4199-2.4962-2.4199h-5.4806zm2.7522 1.9535 1.6522 0.001s0.7655-0.0415 0.7655 0.75115c0 0.777-0.7655 0.77938-0.7655 0.77938l-1.653 0.00052 0.000824-1.5321zm0.84932 4.1066c-0.14099 0.01-0.28403 0.0177-0.42899 0.0232l0.000173 1.1744c0.3522-0.0531 0.69556-0.12176 1.0285-0.20485l-0.28243-0.53036c-0.002-0.003-0.06706-0.11503-0.15411-0.24598-0.05127-0.0771-0.11688-0.15949-0.16312-0.21638z"/>
</svg>