<?xml version="1.0" encoding="UTF-8" standalone="no"?>
<svg
   xmlns:dc="http://purl.org/dc/elements/1.1/"
   xmlns:cc="http://creativecommons.org/ns#"
   xmlns:rdf="http://www.w3.org/1999/02/22-rdf-syntax-ns#"
   xmlns:svg="http://www.w3.org/2000/svg"
   xmlns="http://www.w3.org/2000/svg"
   xmlns:sodipodi="http://sodipodi.sourceforge.net/DTD/sodipodi-0.dtd"
   xmlns:inkscape="http://www.inkscape.org/namespaces/inkscape"
   preserveAspectRatio="xMidYMid"
   width="16"
   height="16"
   viewBox="0 0 16 16"
   id="svg2"
   version="1.1"
   inkscape:version="0.91 r13725"
   sodipodi:docname="r.svg">
  <metadata
     id="metadata22">
    <rdf:RDF>
      <cc:Work
         rdf:about="">
        <dc:format>image/svg+xml</dc:format>
        <dc:type
           rdf:resource="http://purl.org/dc/dcmitype/StillImage" />
        <dc:title></dc:title>
      </cc:Work>
    </rdf:RDF>
  </metadata>
  <sodipodi:namedview
     pagecolor="#ffffff"
     bordercolor="#666666"
     borderopacity="1"
     objecttolerance="10"
     gridtolerance="10"
     guidetolerance="10"
     inkscape:pageopacity="0"
     inkscape:pageshadow="2"
     inkscape:window-width="1366"
     inkscape:window-height="705"
     id="namedview20"
     showgrid="false"
     inkscape:zoom="0.42067736"
     inkscape:cx="362"
     inkscape:cy="280.5"
     inkscape:window-x="-8"
     inkscape:window-y="-8"
     inkscape:window-maximized="1"
     inkscape:current-layer="svg2" />
  <defs
     id="defs4">
    <linearGradient
       id="gradientFill-1"
       x1="0.7414425"
       x2="590.86261"
       y1="3.6658268"
       y2="593.78699"
       gradientUnits="userSpaceOnUse"
       spreadMethod="pad"
       gradientTransform="scale(1.2219423,0.81836924)">
      <stop
         offset="0"
         stop-color="rgb(203,206,208)"
         stop-opacity="1"
         id="stop7" />
      <stop
         offset="1"
         stop-color="rgb(132,131,139)"
         stop-opacity="1"
         id="stop9" />
    </linearGradient>
    <linearGradient
       id="gradientFill-2"
       x1="0"
       x2="1"
       y1="0"
       y2="1"
       gradientUnits="objectBoundingBox"
       spreadMethod="pad">
      <stop
         offset="0"
         stop-color="rgb(39,109,195)"
         stop-opacity="1"
         id="stop12" />
      <stop
         offset="1"
         stop-color="rgb(22,92,170)"
         stop-opacity="1"
         id="stop14" />
    </linearGradient>
  </defs>
  <path
     style="fill:#000000"
     d="m 7.9999994,1.830835 c -4.4182658,0 -7.9999999,2.39877 -7.9999999,5.35783 0,2.53213 2.6229297,4.65371 6.148299,5.21326 l 0,-1.65361 c -1.797585,-0.63636 -3.0044637,-1.81314 -3.0044637,-3.15991 0,-2.02293 2.7224173,-3.66284 6.0806937,-3.66284 3.3582545,0 5.8366185,1.12197 5.8366185,3.66284 0,1.21001 -0.562014,2.09784 -1.512936,2.69625 0.03747,0.0319 0.07504,0.0667 0.112243,0.10627 l 4.3e-5,4e-5 c 0.133458,0.14176 0.213809,0.28678 0.243987,0.34635 l 0.02739,0.0462 C 15.21703,9.832905 16,8.572085 16,7.188715 16,4.229655 12.418289,1.830885 8.0000004,1.830885 Z m -1.4079306,3.32689 0,9.01049 2.7291877,-10e-4 -5.64e-4,-3.52741 0.7327855,0 c 0.149883,0 0.214518,0.0437 0.36611,0.16641 0.181724,0.14714 0.477053,0.65456 0.477053,0.65456 l 1.442254,2.70839 3.084204,-10e-4 -1.908213,-3.21733 c 0,0 -0.05818,-0.12843 -0.177508,-0.25517 -0.121815,-0.1294 -0.290692,-0.22796 -0.388299,-0.27736 -0.281306,-0.14234 -0.765504,-0.28845 -0.765504,-0.28845 0,0 2.385266,-0.17677 2.385266,-2.55168 0,-2.3749 -2.496209,-2.41993 -2.496209,-2.41993 l -5.4805632,0 z m 2.7521997,1.95346 1.6522215,0.001 c 0,0 0.765503,-0.0415 0.765503,0.75115 0,0.777 -0.765503,0.77938 -0.765503,0.77938 l -1.6530455,5.2e-4 8.24e-4,-1.53209 z m 0.8493165,4.10665 c -0.140988,0.01 -0.2840325,0.0177 -0.4289915,0.0232 l 1.73e-4,1.17439 c 0.3521985,-0.0531 0.6955585,-0.12176 1.0284725,-0.20485 l -0.282426,-0.53036 c -0.002,-0.003 -0.06706,-0.11503 -0.154107,-0.24598 -0.05127,-0.0771 -0.116879,-0.15949 -0.16312,-0.21638 z"
     id="path16"
     inkscape:connector-curvature="0" />
</svg>
