<svg xmlns="http://www.w3.org/2000/svg" viewBox="0 0 16 16">
 <path d="m8 0c-0.9611 0-1.8826 0.1697-2.7363 0.4804 3.2478 1.7036 7.5439 7.2621 9.0311 12.457 1.068-1.4 1.705-3.1 1.705-4.9 0-4.4182-3.5817-8-8-8zm-5.2715 1.9828c-1.6723 1.4-2.7285 3.6-2.7285 6 0 2.0171 0.74681 3.8596 1.9786 5.2668 1.0859-3.2626 3.1274-6.4072 4.8756-8.1637-1.248-1.3444-2.6455-2.4122-4.1257-3.1203zm5.5998 4.9343c-1.7319 1.8665-3.4578 5.134-4.0824 8.1486 1.1196 0.596 2.3972 0.9343 3.7541 0.9343 1.395 0 2.7063-0.3573 3.8481-0.985-0.65813-3.0409-1.9004-5.826-3.5198-8.0979z"/>
</svg>