<?xml version="1.0" encoding="UTF-8" standalone="no"?>
<!-- Created with Inkscape (http://www.inkscape.org/) -->

<svg
   xmlns:dc="http://purl.org/dc/elements/1.1/"
   xmlns:cc="http://creativecommons.org/ns#"
   xmlns:rdf="http://www.w3.org/1999/02/22-rdf-syntax-ns#"
   xmlns:svg="http://www.w3.org/2000/svg"
   xmlns="http://www.w3.org/2000/svg"
   xmlns:sodipodi="http://sodipodi.sourceforge.net/DTD/sodipodi-0.dtd"
   xmlns:inkscape="http://www.inkscape.org/namespaces/inkscape"
   width="16"
   height="16"
   viewBox="0 0 16 16"
   id="svg3349"
   version="1.1"
   inkscape:version="0.91 r13725"
   sodipodi:docname="racket1.svg">
  <defs
     id="defs3351" />
  <sodipodi:namedview
     id="base"
     pagecolor="#ffffff"
     bordercolor="#666666"
     borderopacity="1.0"
     inkscape:pageopacity="0.0"
     inkscape:pageshadow="2"
     inkscape:zoom="0.35"
     inkscape:cx="375"
     inkscape:cy="520"
     inkscape:document-units="px"
     inkscape:current-layer="layer1"
     showgrid="false"
     units="px"
     inkscape:window-width="1366"
     inkscape:window-height="705"
     inkscape:window-x="-8"
     inkscape:window-y="-8"
     inkscape:window-maximized="1" />
  <metadata
     id="metadata3354">
    <rdf:RDF>
      <cc:Work
         rdf:about="">
        <dc:format>image/svg+xml</dc:format>
        <dc:type
           rdf:resource="http://purl.org/dc/dcmitype/StillImage" />
        <dc:title></dc:title>
      </cc:Work>
    </rdf:RDF>
  </metadata>
  <g
     inkscape:label="Camada 1"
     inkscape:groupmode="layer"
     id="layer1"
     transform="translate(0,-1036.3622)">
    <path
       d="m 8.00003,1036.3622 c -0.9611,0 -1.88258,0.1697 -2.73627,0.4804 3.24782,1.7036 7.54392,7.2621 9.03108,12.4572 C 15.36297,1047.94 16,1046.2255 16,1044.3622 c 0,-4.4182 -3.58167,-8 -7.99997,-8 z m -5.27147,1.9828 C 1.05622,1039.8113 0,1041.9633 0,1044.3622 c 0,2.0171 0.74681,3.8596 1.97865,5.2668 1.08592,-3.2626 3.12745,-6.4072 4.87562,-8.1637 -1.24796,-1.3444 -2.64553,-2.4122 -4.12571,-3.1203 z m 5.59978,4.9343 c -1.73191,1.8665 -3.45777,5.134 -4.08237,8.1486 1.11956,0.596 2.39721,0.9343 3.75406,0.9343 1.39497,0 2.70631,-0.3573 3.84808,-0.985 -0.65813,-3.0409 -1.90044,-5.826 -3.51977,-8.0979 z"
       id="blue-piece"
       style="fill:#000000"
       inkscape:connector-curvature="0" />
  </g>
</svg>
