<?xml version="1.0" encoding="UTF-8" standalone="no"?>
<!-- Generator: Adobe Illustrator 19.2.1, SVG Export Plug-In . SVG Version: 6.00 Build 0)  -->

<svg
   xmlns:dc="http://purl.org/dc/elements/1.1/"
   xmlns:cc="http://creativecommons.org/ns#"
   xmlns:rdf="http://www.w3.org/1999/02/22-rdf-syntax-ns#"
   xmlns:svg="http://www.w3.org/2000/svg"
   xmlns="http://www.w3.org/2000/svg"
   xmlns:sodipodi="http://sodipodi.sourceforge.net/DTD/sodipodi-0.dtd"
   xmlns:inkscape="http://www.inkscape.org/namespaces/inkscape"
   version="1.1"
   id="Layer_1"
   x="0px"
   y="0px"
   viewBox="0 0 16 16"
   xml:space="preserve"
   inkscape:version="0.91 r13725"
   sodipodi:docname="rails.svg"
   width="16"
   height="16"><metadata
     id="metadata37"><rdf:RDF><cc:Work
         rdf:about=""><dc:format>image/svg+xml</dc:format><dc:type
           rdf:resource="http://purl.org/dc/dcmitype/StillImage" /><dc:title></dc:title></cc:Work></rdf:RDF></metadata><defs
     id="defs35" /><sodipodi:namedview
     pagecolor="#ffffff"
     bordercolor="#666666"
     borderopacity="1"
     objecttolerance="10"
     gridtolerance="10"
     guidetolerance="10"
     inkscape:pageopacity="0"
     inkscape:pageshadow="2"
     inkscape:window-width="1366"
     inkscape:window-height="705"
     id="namedview33"
     showgrid="false"
     inkscape:zoom="2.3137255"
     inkscape:cx="51"
     inkscape:cy="51"
     inkscape:window-x="-8"
     inkscape:window-y="-8"
     inkscape:window-maximized="1"
     inkscape:current-layer="Layer_1" /><style
     type="text/css"
     id="style3">
	.st0{fill:#9E0D6A;}
</style><path
     style="fill:#000000"
     d="m 11.197456,0 -1.007897,0.111653 0.09623,1.053838 1.055697,-0.06362 L 11.197457,4e-6 Z M 7.5823396,0.638728 6.5425758,1.245332 7.1343162,2.267358 8.17408,1.708471 7.5823396,0.638728 Z m 6.7184734,0.686445 -0.208078,0.399204 0.895734,0.542981 0.192144,-0.446922 -0.8798,-0.495263 z M 11.207141,1.356984 C 8.7928456,1.404546 6.9743526,2.970021 6.9743526,2.970021 1.8875085,7.968064 1.8555158,16 1.8555158,16 l 7.5823394,0 C 6.7824587,9.692565 9.5178361,5.189661 9.5178361,5.189661 11.933287,1.724564 15.500539,3.848271 15.500539,3.848271 16.252369,4.055857 15.932316,3.576937 15.932316,3.576937 14.318683,1.846384 12.655717,1.328447 11.20714,1.356984 Z M 4.2709046,3.193638 3.3433028,4.215664 4.3508863,5.125726 5.2788004,4.167635 4.2709046,3.193638 Z m 9.5500174,0.383299 0,0.574792 0.943847,0.01591 0,-0.527075 -0.943847,-0.06362 z m -2.19169,0.271334 0,0.814315 0.623921,0.271647 0,-0.814628 -0.623921,-0.271334 z m -1.6315036,1.325484 0,1.005809 0.7679496,0.33527 0,-0.989903 L 9.9977284,5.173755 Z M 1.6955521,7.137655 1.1997274,8.46314 2.5113043,8.958091 3.0393094,7.680636 1.6955521,7.137655 Z m 7.1183824,0.07984 0,1.21352 0.9438483,0.431329 0,-1.229738 -0.9438483,-0.415111 z m -0.2399454,2.858368 0,0.910062 1.0719437,0.367393 0,-0.862344 -1.0719437,-0.415111 z M 0.06404792,11.960235 0,13.684613 l 1.5996365,0.12787 0.064048,-1.772407 -1.59963658,-0.07984 z m 9.03794668,1.660443 0.4158425,1.13399 1.3756249,0 -0.495825,-1.13399 -1.2956424,0 z"
     id="polygon7"
     inkscape:connector-curvature="0" /></svg>