<svg xmlns="http://www.w3.org/2000/svg" viewBox="0 0 16 16">
 <path d="m11.197 0-1.0079 0.11165 0.09623 1.0538 1.0557-0.06362l-0.144-1.1018zm-3.6147 0.63873-1.0397 0.60657 0.5917 1.0221 1.0398-0.5589-0.5918-1.0698zm6.7185 0.68644-0.20808 0.3992 0.89573 0.54298 0.19214-0.44692-0.8798-0.49526zm-3.094 0.0318c-2.4142 0.0475-4.2326 1.613-4.2326 1.613-5.0869 4.9981-5.1189 13.03-5.1189 13.03h7.5823c-2.6553-6.3074 0.08-10.81 0.08-10.81 2.4152-3.4654 5.9832-1.3417 5.9832-1.3417 0.751 0.2076 0.431-0.2714 0.431-0.2714-1.613-1.7305-3.276-2.2485-4.725-2.2199zm-6.9361 1.8366-0.9276 1.0221 1.0076 0.91 0.9279-0.9581-1.0079-0.974zm9.55 0.3833v0.57479l0.94385 0.01591v-0.52708l-0.94385-0.06362zm-2.1917 0.27133v0.81432l0.62392 0.27165v-0.81463l-0.62392-0.27133zm-1.6315 1.3255v1.0058l0.76795 0.33527v-0.9899l-0.7673-0.3511zm-8.3019 1.964-0.4959 1.3254 1.3116 0.495 0.528-1.2775-1.3437-0.5429zm7.1184 0.07984v1.2135l0.94385 0.43133v-1.2297l-0.94385-0.41511zm-0.23995 2.8584v0.91006l1.0719 0.36739v-0.86234l-1.0719-0.41511zm-8.51 1.884-0.064048 1.725l1.5996 0.12787 0.064048-1.7724-1.5996-0.07984zm9.0379 1.6604 0.41584 1.134h1.3756l-0.49582-1.134h-1.2956z"/>
</svg>