<?xml version="1.0" encoding="UTF-8" standalone="no"?>
<svg
   xmlns:dc="http://purl.org/dc/elements/1.1/"
   xmlns:cc="http://creativecommons.org/ns#"
   xmlns:rdf="http://www.w3.org/1999/02/22-rdf-syntax-ns#"
   xmlns:svg="http://www.w3.org/2000/svg"
   xmlns="http://www.w3.org/2000/svg"
   xmlns:sodipodi="http://sodipodi.sourceforge.net/DTD/sodipodi-0.dtd"
   xmlns:inkscape="http://www.inkscape.org/namespaces/inkscape"
   version="1.1"
   id="Layer_2"
   x="0px"
   y="0px"
   width="16"
   height="16"
   viewBox="0 0 16 16"
   enable-background="new 0 0 600 600"
   xml:space="preserve"
   inkscape:version="0.91 r13725"
   sodipodi:docname="reactjs.svg"><metadata
     id="metadata17"><rdf:RDF><cc:Work
         rdf:about=""><dc:format>image/svg+xml</dc:format><dc:type
           rdf:resource="http://purl.org/dc/dcmitype/StillImage" /><dc:title></dc:title></cc:Work></rdf:RDF></metadata><defs
     id="defs15" /><sodipodi:namedview
     pagecolor="#ffffff"
     bordercolor="#666666"
     borderopacity="1"
     objecttolerance="10"
     gridtolerance="10"
     guidetolerance="10"
     inkscape:pageopacity="0"
     inkscape:pageshadow="2"
     inkscape:window-width="1366"
     inkscape:window-height="705"
     id="namedview13"
     showgrid="false"
     inkscape:zoom="0.39333333"
     inkscape:cx="300"
     inkscape:cy="300"
     inkscape:window-x="-8"
     inkscape:window-y="-8"
     inkscape:window-maximized="1"
     inkscape:current-layer="Layer_2" /><path
     d="m 11.268735,0.88121936 c -0.01722,-1.14e-4 -0.03453,-2e-5 -0.0519,3.34e-4 -0.277907,0.0057 -0.574098,0.07233 -0.87709,0.18372804 -0.6059855,0.222795 -1.2643495,0.636061 -1.9339605,1.218793 -0.13242,0.115241 -0.265379,0.237238 -0.39844,0.365343 -0.08831,-0.08441 -0.176681,-0.166231 -0.265051,-0.244693 -0.708923,-0.629472 -1.406179,-1.072004 -2.044542,-1.310296 -0.319181,-0.11914504 -0.629867,-0.19040804 -0.920199,-0.19746704 -0.290332,-0.0071 -0.560284,0.05006 -0.797992,0.18767704 -0.45931,0.265893 -0.710401,0.78922 -0.820019,1.425494 -0.109618,0.636276 -0.08034,1.413027 0.09011,2.284173 0.03385,0.173034 0.07337,0.349919 0.118146,0.529992 -0.205038,0.05827 -0.402856,0.120324 -0.592069,0.186288 -0.828537,0.288868 -1.499534,0.651614 -1.981463,1.063933 C 0.3123365,6.9868374 5e-7,7.4647614 5e-7,7.9868294 c 0,0.538537 0.328312,1.035306 0.836095,1.470161 0.507783,0.434855 1.216478,0.8206236 2.089597,1.1190576 l 0,-5.7e-5 c 0.140015,0.04786 0.284419,0.09293 0.432482,0.135502 -0.04826,0.194608 -0.09021,0.385204 -0.125489,0.570987 -0.163682,0.862051 -0.184671,1.624556 -0.06825,2.248017 0.116419,0.623461 0.374396,1.132805 0.826639,1.393621 0.466521,0.269026 1.060892,0.232811 1.691269,0.01018 0.630377,-0.222631 1.318567,-0.643889 2.013281,-1.251166 0.111569,-0.09752 0.222905,-0.200274 0.333915,-0.307438 0.144662,0.139185 0.28898,0.270893 0.432482,0.394379 0.665107,0.572342 1.315254,0.971301 1.9135455,1.181803 0.598291,0.210501 1.168422,0.241369 1.620236,-0.02019 0.46607,-0.269812 0.731508,-0.802828 0.853449,-1.460148 0.121942,-0.657321 0.100689,-1.463949 -0.07849,-2.369112 -0.0278,-0.140462 -0.05986,-0.283131 -0.09573,-0.427643 0.100946,-0.0299 0.20022,-0.06078 0.297314,-0.09295 C 13.872291,10.283655 14.60464,9.9019674 15.130695,9.4688944 15.656752,9.0358224 16,8.5361714 16,7.9868304 c 0,-0.530715 -0.327123,-1.010234 -0.822856,-1.423881 -0.495734,-0.413646 -1.182578,-0.777437 -2.021903,-1.066381 -0.165806,-0.05708 -0.337729,-0.111204 -0.514973,-0.162424 0.02897,-0.118459 0.05568,-0.235665 0.07949,-0.351215 0.191291,-0.928549 0.226502,-1.753621 0.114142,-2.425682 -0.11236,-0.672061 -0.373781,-1.219095 -0.849668,-1.493523 -0.215505,-0.12427604 -0.457147,-0.18061904 -0.7155,-0.18250504 z m -0.04923,0.68768904 c 0.179287,-0.0045 0.321786,0.02843 0.423249,0.08694 0.214692,0.123806 0.423846,0.457057 0.516976,1.014094 0.09313,0.557037 0.06876,1.309924 -0.10947,2.175093 -0.02144,0.104081 -0.04564,0.210183 -0.07192,0.317728 -0.660203,-0.152558 -1.3798,-0.266996 -2.1389375,-0.338031 -0.436406,-0.621881 -0.891258,-1.191345 -1.352458,-1.687876 0.123324,-0.118744 0.246018,-0.231417 0.367568,-0.337197 0.621949,-0.541254 1.2239585,-0.910087 1.7210835,-1.092859 0.248563,-0.09139 0.464625,-0.133378 0.643912,-0.137893 z m -6.5169895,0.01574 c 0.02266,-5.46e-4 0.04596,-4.61e-4 0.06987,2.28e-4 0.191233,0.0055 0.421801,0.05116 0.686353,0.149909 0.529104,0.197507 1.169188,0.594576 1.829719,1.181079 0.07962,0.0707 0.159646,0.144746 0.239854,0.221387 -0.462544,0.49635 -0.921759,1.063309 -1.363028,1.686374 -0.756084,0.06985 -1.475274,0.182204 -2.134876,0.331912 -0.04188,-0.168132 -0.07868,-0.33256 -0.10997,-0.492501 -0.158319,-0.809137 -0.177201,-1.514893 -0.08727,-2.036865 0.08993,-0.521972 0.286097,-0.832598 0.48883,-0.949959 0.09383,-0.05432 0.221872,-0.08773 0.380528,-0.09156 z m 3.305164,2.041872 c 0.315009,0.341639 0.630406,0.723277 0.940169,1.135801 -0.311411,-0.01459 -0.627715,-0.02219 -0.947845,-0.02219 -0.31713,0 -0.631206,0.0074 -0.940948,0.02175 0.312789,-0.412181 0.631232,-0.792633 0.948624,-1.135356 z m -0.0077,1.797123 c 0.497563,0 0.985685,0.01919 1.458702,0.0554 0.265811,0.391981 0.524689,0.803667 0.7719035,1.230696 0.248071,0.428504 0.478343,0.858296 0.688578,1.283596 -0.208376,0.429945 -0.437666,0.863904 -0.686464,1.295332 -0.2473105,0.428846 -0.5046405,0.8429476 -0.7680655,1.2374266 -0.476429,0.03426 -0.966758,0.0524 -1.464654,0.0524 -0.492653,0 -0.977618,-0.01584 -1.448801,-0.04667 -0.270023,-0.393901 -0.532397,-0.8086236 -0.781805,-1.2394296 -0.249099,-0.430286 -0.476873,-0.86201 -0.682404,-1.289214 0.205587,-0.428521 0.432806,-0.860721 0.680235,-1.289769 0.248306,-0.430568 0.508474,-0.843402 0.775853,-1.234702 0.47386,-0.03597 0.96171,-0.05507 1.456922,-0.05507 z m -2.33518,0.143011 c -0.167176,0.261012 -0.330739,0.529658 -0.489721,0.805334 -0.158487,0.274823 -0.30902,0.550729 -0.451394,0.826305 -0.200001,-0.474742 -0.369993,-0.938594 -0.508076,-1.382941 0.453127,-0.101204 0.939525,-0.18491 1.449191,-0.248698 z m 4.6709715,0.0011 c 0.513592,0.06507 1.002487,0.150856 1.458146,0.25465 -0.138133,0.441901 -0.310528,0.904024 -0.512248,1.3766 -0.146114,-0.277101 -0.299192,-0.554728 -0.459571,-0.831756 -0.157885,-0.272725 -0.320436,-0.539296 -0.486327,-0.799494 z m -6.7844885,0.415239 c 0.198895,0.647787 0.460457,1.327854 0.779414,2.020344 -0.322807,0.702076 -0.588271,1.392964 -0.78937,2.0493806 -0.135876,-0.039 -0.267626,-0.0801 -0.394547,-0.1234866 -0.808501,-0.276346 -1.447032,-0.63252 -1.866097,-0.991399 -0.419065,-0.358878 -0.597187,-0.707608 -0.597187,-0.951015 0,-0.236692 0.162784,-0.557311 0.555079,-0.892943 0.392296,-0.335633 0.994575,-0.67026 1.762191,-0.937888 0.174701,-0.0609 0.358696,-0.118607 0.550517,-0.172993 z m 8.9061815,0.01001 c 0.164308,0.04747 0.323044,0.0974 0.475258,0.149798 0.779582,0.268377 1.399845,0.605614 1.806523,0.944952 0.406678,0.339338 0.577219,0.664809 0.577219,0.899062 0,0.247838 -0.184194,0.595457 -0.620216,0.954408 -0.436021,0.358953 -1.100389,0.713962 -1.93891,0.991789 -0.08732,0.02893 -0.176941,0.05685 -0.268334,0.08394 -0.205613,-0.6521826 -0.480729,-1.3341126 -0.810007,-2.0267976 0.317157,-0.682644 0.580353,-1.355121 0.778468,-1.997149 z m -4.4574845,0.565035 a 1.4287485,1.4287485 0 0 0 -1.428776,1.428776 1.4287485,1.4287485 0 0 0 1.428776,1.42872 1.4287485,1.4287485 0 0 0 1.42872,-1.42872 1.4287485,1.4287485 0 0 0 -1.42872,-1.428776 z m 3.2884755,2.224988 c 0.211969,0.483417 0.392925,0.955449 0.537224,1.4065256 -0.463988,0.105609 -0.965219,0.190402 -1.491688,0.253704 0.167018,-0.264857 0.330995,-0.5360126 0.490833,-0.8131766 0.162495,-0.281775 0.316983,-0.5646 0.463631,-0.847053 z m -6.5639915,0.02486 c 0.142708,0.27533 0.293819,0.551363 0.453341,0.826917 0.162416,0.280545 0.329982,0.5544016 0.501457,0.8207416 -0.519525,-0.05808 -1.014111,-0.136849 -1.473109,-0.23646 0.140448,-0.4526476 0.314216,-0.9265576 0.518311,-1.4111986 z m 7.2892275,2.0407026 c 0.03261,0.131345 0.06157,0.260313 0.08655,0.386537 0.165915,0.838173 0.177565,1.569264 0.07693,2.111735 -0.100635,0.542472 -0.313206,0.871334 -0.523873,0.993291 -0.204845,0.118587 -0.563906,0.138308 -1.050917,-0.03304 -0.487012,-0.17135 -1.0783505,-0.524889 -1.6945505,-1.055145 -0.132487,-0.114007 -0.266581,-0.236495 -0.401722,-0.366678 0.458676,-0.501151 0.908434,-1.076157 1.340778,-1.702561 0.7680065,-0.0679 1.4986875,-0.179347 2.1668045,-0.334138 z m -7.9926575,0.03076 c 0.666464,0.147727 1.39309,0.250412 2.155735,0.311943 0.444663,0.626066 0.907934,1.197457 1.373485,1.696665 -0.101806,0.09837 -0.203362,0.192119 -0.304489,0.280515 -0.643298,0.562333 -1.270822,0.93755 -1.79106,1.121283 -0.520204,0.183721 -0.911291,0.163801 -1.122173,0.04222 l -5.7e-5,0 c -0.205029,-0.118266 -0.401412,-0.419514 -0.496172,-0.926986 -0.09477,-0.507502 -0.08379,-1.196369 0.06786,-1.995035 0.03257,-0.17154 0.07164,-0.348707 0.116868,-0.530604 z m 4.943756,0.361171 c -0.30904,0.41975 -0.623537,0.807596 -0.938277,1.154546 -0.321404,-0.347125 -0.644612,-0.733559 -0.961974,-1.151542 0.308285,0.012 0.620318,0.01847 0.935441,0.01847 0.325073,0 0.647056,-0.0074 0.96481,-0.02147 z"
     id="circle5"
     style="fill:#000000"
     inkscape:connector-curvature="0" /></svg>