<svg xmlns="http://www.w3.org/2000/svg" viewBox="0 0 16 16">
 <path d="m11.269 0.88122c-0.01722-0.000114-0.03453-0.00002-0.0519 0.000334-0.27791 0.0057-0.5741 0.07233-0.87709 0.18373-0.60599 0.2228-1.2643 0.63606-1.934 1.2188-0.13242 0.11524-0.26538 0.23724-0.39844 0.36534-0.08831-0.08441-0.17668-0.16623-0.26505-0.24469-0.70892-0.62947-1.4062-1.072-2.0445-1.3103-0.31918-0.11915-0.62987-0.19041-0.9202-0.19747-0.29033-0.0071-0.56028 0.05006-0.79799 0.18768-0.45931 0.26589-0.7104 0.78922-0.82002 1.4255s-0.08034 1.413 0.09011 2.2842c0.03385 0.17303 0.07337 0.34992 0.11815 0.52999-0.20504 0.05827-0.40286 0.12032-0.59207 0.18629-0.82854 0.28887-1.4995 0.65161-1.9815 1.0639-0.48266 0.4123-0.795 0.8903-0.795 1.4123 0 0.53854 0.32831 1.0353 0.8361 1.4702 0.50778 0.43486 1.2165 0.82062 2.0896 1.1191v-0.000057c0.14002 0.04786 0.28442 0.09293 0.43248 0.1355-0.04826 0.19461-0.09021 0.3852-0.12549 0.57099-0.16368 0.86205-0.18467 1.6246-0.06825 2.248 0.11642 0.62346 0.3744 1.1328 0.82664 1.3936 0.46652 0.26903 1.0609 0.23281 1.6913 0.01018 0.63038-0.22263 1.3186-0.64389 2.0133-1.2512 0.11157-0.09752 0.2229-0.20027 0.33392-0.30744 0.14466 0.13918 0.28898 0.27089 0.43248 0.39438 0.66511 0.57234 1.3153 0.9713 1.9135 1.1818 0.59829 0.2105 1.1684 0.24137 1.6202-0.02019 0.46607-0.26981 0.73151-0.80283 0.85345-1.4601 0.12194-0.65732 0.10069-1.4639-0.07849-2.3691-0.0278-0.14046-0.05986-0.28313-0.09573-0.42764 0.10095-0.0299 0.20022-0.06078 0.29731-0.09295 0.899-0.298 1.632-0.68 2.158-1.1131s0.869-0.9327 0.869-1.4821c0-0.53072-0.32712-1.0102-0.82286-1.4239-0.49573-0.41365-1.1826-0.77744-2.0219-1.0664-0.16581-0.05708-0.33773-0.1112-0.51497-0.16242 0.02897-0.11846 0.05568-0.23566 0.07949-0.35122 0.19129-0.92855 0.2265-1.7536 0.11414-2.4257-0.11236-0.67206-0.37378-1.2191-0.84967-1.4935-0.2155-0.12428-0.45715-0.18062-0.7155-0.18251zm-0.04923 0.68769c0.17929-0.0045 0.32179 0.02843 0.42325 0.08694 0.21469 0.12381 0.42385 0.45706 0.51698 1.0141s0.06876 1.3099-0.10947 2.1751c-0.02144 0.10408-0.04564 0.21018-0.07192 0.31773-0.6602-0.15256-1.3798-0.267-2.1389-0.33803-0.43641-0.62188-0.89126-1.1913-1.3525-1.6879 0.12332-0.11874 0.24602-0.23142 0.36757-0.3372 0.62195-0.54125 1.224-0.91009 1.7211-1.0929 0.24856-0.09139 0.46462-0.13338 0.64391-0.13789zm-6.517 0.01574c0.02266-0.000546 0.04596-0.000461 0.06987 0.000228 0.19123 0.0055 0.4218 0.05116 0.68635 0.14991 0.5291 0.19751 1.1692 0.59458 1.8297 1.1811 0.07962 0.0707 0.15965 0.14475 0.23985 0.22139-0.46254 0.49635-0.92176 1.0633-1.363 1.6864-0.75608 0.06985-1.4753 0.1822-2.1349 0.33191-0.04188-0.16813-0.07868-0.33256-0.10997-0.4925-0.15832-0.80914-0.1772-1.5149-0.08727-2.0369 0.08993-0.52197 0.2861-0.8326 0.48883-0.94996 0.09383-0.05432 0.22187-0.08773 0.38053-0.09156zm3.3052 2.0419c0.31501 0.34164 0.63041 0.72328 0.94017 1.1358-0.31141-0.01459-0.62772-0.02219-0.94784-0.02219-0.31713 0-0.63121 0.0074-0.94095 0.02175 0.31279-0.41218 0.63123-0.79263 0.94862-1.1354zm-0.0077 1.7971c0.49756 0 0.98568 0.01919 1.4587 0.0554 0.26581 0.39198 0.52469 0.80367 0.7719 1.2307 0.24807 0.4285 0.47834 0.8583 0.68858 1.2836-0.20838 0.42994-0.43767 0.8639-0.68646 1.2953-0.24731 0.42885-0.50464 0.84295-0.76807 1.2374-0.47643 0.03426-0.96676 0.0524-1.4647 0.0524-0.49265 0-0.97762-0.01584-1.4488-0.04667-0.27002-0.3939-0.5324-0.80862-0.7818-1.2394-0.2491-0.43029-0.47687-0.86201-0.6824-1.2892 0.20559-0.42852 0.43281-0.86072 0.68024-1.2898 0.24831-0.43057 0.50847-0.8434 0.77585-1.2347 0.47386-0.03597 0.96171-0.05507 1.4569-0.05507zm-2.3352 0.14301c-0.16718 0.26101-0.33074 0.52966-0.48972 0.80533-0.15849 0.27482-0.30902 0.55073-0.45139 0.8263-0.2-0.47474-0.36999-0.93859-0.50808-1.3829 0.45313-0.1012 0.93952-0.18491 1.4492-0.2487zm4.671 0.0011c0.51359 0.06507 1.0025 0.15086 1.4581 0.25465-0.13813 0.4419-0.31053 0.90402-0.51225 1.3766-0.14611-0.2771-0.29919-0.55473-0.45957-0.83176-0.15788-0.27272-0.32044-0.5393-0.48633-0.79949zm-6.7845 0.41524c0.1989 0.64779 0.46046 1.3279 0.77941 2.0203-0.32281 0.70208-0.58827 1.393-0.78937 2.0494-0.13588-0.039-0.26763-0.0801-0.39455-0.12349-0.8085-0.27635-1.447-0.63252-1.8661-0.9914-0.41906-0.35888-0.59719-0.70761-0.59719-0.95102 0-0.23669 0.16278-0.55731 0.55508-0.89294s0.99458-0.67026 1.7622-0.93789c0.1747-0.0609 0.3587-0.11861 0.55052-0.17299zm8.9062 0.01001c0.16431 0.04747 0.32304 0.0974 0.47526 0.1498 0.77958 0.26838 1.3998 0.60561 1.8065 0.94495 0.40668 0.33934 0.57722 0.66481 0.57722 0.89906 0 0.24784-0.18419 0.59546-0.62022 0.95441-0.43602 0.35895-1.1004 0.71396-1.9389 0.99179-0.08732 0.02893-0.17694 0.05685-0.26833 0.08394-0.20561-0.65218-0.48073-1.3341-0.81001-2.0268 0.31716-0.68264 0.58035-1.3551 0.77847-1.9971zm-4.4575 0.56504a1.4287 1.4287 0 0 0 -1.4288 1.4288 1.4287 1.4287 0 0 0 1.4288 1.4287 1.4287 1.4287 0 0 0 1.4287 -1.4287 1.4287 1.4287 0 0 0 -1.4287 -1.4288zm3.2885 2.225c0.21197 0.48342 0.39292 0.95545 0.53722 1.4065-0.46399 0.10561-0.96522 0.1904-1.4917 0.2537 0.16702-0.26486 0.331-0.53601 0.49083-0.81318 0.1625-0.28178 0.31698-0.5646 0.46363-0.84705zm-6.564 0.02486c0.14271 0.27533 0.29382 0.55136 0.45334 0.82692 0.16242 0.28054 0.32998 0.5544 0.50146 0.82074-0.51952-0.05808-1.0141-0.13685-1.4731-0.23646 0.14045-0.45265 0.31422-0.92656 0.51831-1.4112zm7.2892 2.0407c0.03261 0.13134 0.06157 0.26031 0.08655 0.38654 0.16592 0.83817 0.17756 1.5693 0.07693 2.1117-0.10064 0.54247-0.31321 0.87133-0.52387 0.99329-0.20484 0.11859-0.56391 0.13831-1.0509-0.03304-0.48701-0.17135-1.0784-0.52489-1.6946-1.0551-0.13249-0.11401-0.26658-0.2365-0.40172-0.36668 0.45868-0.50115 0.90843-1.0762 1.3408-1.7026 0.76801-0.0679 1.4987-0.17935 2.1668-0.33414zm-7.9927 0.03076c0.66646 0.14773 1.3931 0.25041 2.1557 0.31194 0.44466 0.62607 0.90793 1.1975 1.3735 1.6967-0.10181 0.09837-0.20336 0.19212-0.30449 0.28052-0.6433 0.56233-1.2708 0.93755-1.7911 1.1213-0.5202 0.18372-0.91129 0.1638-1.1222 0.04222h-0.000057c-0.20503-0.11827-0.40141-0.41951-0.49617-0.92699-0.09477-0.5075-0.08379-1.1964 0.06786-1.995 0.03257-0.17154 0.07164-0.34871 0.11687-0.5306zm4.9438 0.36117c-0.30904 0.41975-0.62354 0.8076-0.93828 1.1545-0.3214-0.34712-0.64461-0.73356-0.96197-1.1515 0.30828 0.012 0.62032 0.01847 0.93544 0.01847 0.32507 0 0.64706-0.0074 0.96481-0.02147z"/>
</svg>