<svg xmlns="http://www.w3.org/2000/svg" viewBox="0 0 16 16">
 <path d="m13.377 0.10224c-0.08658-0.00079-0.17493 0.0127-0.26328 0.019-0.59322 0.0337-1.1864 0.0715-1.7754 0.10518-0.62266 0.0379-1.2453 0.0757-1.8722 0.11357-0.0084 0-0.01264 0.004-0.03788 0.008 0.02945 0.021 0.05054 0.0379 0.07157 0.0547 0.48383 0.34079 0.97185 0.68581 1.4557 1.0224 0.05469 0.0379 0.0673 0.0673 0.04626 0.1304-0.42072 1.3211-0.83725 2.6379-1.258 3.959-0.01262 0.0379-0.03783 0.0799-0.07149 0.10937-1.4851 1.38-2.9703 2.7599-4.4596 4.1399-0.04628 0.0421-0.10939 0.0715-0.16829 0.0883-1.2916 0.2903-2.5875 0.57637-3.8791 0.86667-0.02524 0.004-0.05042 0.008-0.07987 0.0127-0.22719-0.63529-0.45862-1.2705-0.6858-1.9016h-0.01265c-0.01683 0.14725-0.03364 0.2945-0.04626 0.44176-0.04628 0.45437-0.09253 0.91296-0.1346 1.3673-0.04207 0.44176-0.08834 0.8835-0.13041 1.3295-0.02104 0.21878-0.04207 0.44173-0.06311 0.6605 0 0.0126-0.0084 0.0253-0.01265 0.0337v0.18932c0.01683 0.14305 0.02942 0.29025 0.05045 0.4333 0.05469 0.42913 0.1683 0.84569 0.37446 1.2286 0.37865 0.69418 0.9761 1.0896 1.7376 1.2537 0.28609 0.0589 0.58056 0.0758 0.87086 0.11364 0.04207 0.004 0.07995 0.0126 0.12202 0.0168h0.18932c0.09256-0.008 0.1851-0.0211 0.27766-0.0295 0.50486-0.0337 1.0097-0.0673 1.5104-0.10099 0.57639-0.0379 1.1528-0.0799 1.7291-0.11775 0.50486-0.0337 1.0097-0.0673 1.5104-0.10099 0.57639-0.0379 1.1528-0.08 1.7291-0.11783 0.50486-0.0337 1.0055-0.0673 1.5104-0.10091 0.57638-0.0379 1.1528-0.08 1.7291-0.11784 0.42493-0.0295 0.8457-0.0547 1.2706-0.0841 0.15567-0.0126 0.3113-0.0211 0.47117-0.0337 0.01262-0.15567 0.02526-0.30713 0.03788-0.46279 0.04207-0.5259 0.07995-1.0475 0.12202-1.5734 0.03366-0.43755 0.06725-0.87513 0.10091-1.3169 0.03366-0.44176 0.06732-0.88353 0.10518-1.3211 0.02945-0.36602 0.05469-0.73203 0.08414-1.0981 0.03366-0.44596 0.06731-0.89196 0.10518-1.3379 0.02945-0.36182 0.05469-0.72778 0.08414-1.0896 0.03366-0.45017 0.07152-0.9046 0.10518-1.3548 0.03366-0.43754 0.06733-0.87087 0.10099-1.3084 0.02524-0.31133 0.06316-0.62263 0.07157-0.93396-0.0084-0.39969-0.03371-0.7994-0.13468-1.1907-0.25664-0.99711-0.91294-1.5945-1.8764-1.8806-0.1725-0.0505-0.34499-0.0926-0.5259-0.11783-0.0284-0.004-0.05709-0.006-0.08595-0.006zm0.1046 0.41538c0.01236 0.00013 0.0245 0.001 0.03607 0.003 0.49224 0.0926 0.95079 0.26079 1.3336 0.60158 0.28609 0.25664 0.4754 0.57223 0.5932 0.95508-1.3-0.26085-2.5832-0.51333-3.8664-0.76576v-0.021l0.08842-0.0379c0.56797-0.23981 1.1359-0.47962 1.7039-0.71522 0.03471-0.0126 0.0741-0.0204 0.11118-0.0201zm-5.0422 0.0267c-0.21254 0.002-0.42448 0.0325-0.63511 0.0775-0.61004 0.13464-1.178 0.37451-1.7208 0.67743-1.4389 0.79937-2.6631 1.8553-3.6939 3.1301-0.56376 0.69418-1.0434 1.4473-1.38 2.2804-0.19774 0.48803-0.33658 0.99285-0.35761 1.5272 0.01683 0.15146 0.02947 0.30297 0.05892 0.45022 0.10518 0.58059 0.49221 0.98024 1.0602 1.1022 0.34499 0.0757 0.68998 0.0421 1.0308-0.0294 0.5848-0.12621 1.1318-0.35762 1.6493-0.64792 1.7712-0.9929 3.2353-2.3266 4.3922-3.9926 0.43755-0.63108 0.7994-1.3042 1.0224-2.0489 0.13042-0.45017 0.20612-0.90453 0.11356-1.3715-0.1178-0.58059-0.45433-0.96349-1.0433-1.1023-0.16566-0.0387-0.33134-0.054-0.49665-0.0523zm2.92 1.1924c0.02945 0.021 0.05045 0.0379 0.07149 0.0547 1.3169 1.0812 2.638 2.1625 3.959 3.2395 0.07152 0.0589 0.04206 0.1178 0.04626 0.18932-1.7628 0.10939-3.513 0.21879-5.2842 0.33239 0.40389-1.2748 0.80354-2.5412 1.2074-3.816zm-1.2664 4.0558c1.3463 0.83723 2.6884 1.6702 4.0347 2.5033-0.22719 0.49224-2.1457 2.8694-2.6463 3.269-0.47121-1.9185-0.9382-3.837-1.4094-5.7597 0.0084-0.004 0.01262-0.008 0.02104-0.0127zm4.3082 2.844c0.0084 0 0.01262 0.004 0.02104 0.004l0.34077 6.1215-0.02104 0.0126c-1.0055-0.93821-2.0111-1.8764-3.025-2.823 0.53852-0.48383 1.035-1.0014 1.4894-1.5483 0.45438-0.55115 0.86249-1.1317 1.1949-1.767zm-9.0329 1.5651c1.9269 0.57218 3.8328 1.1359 5.7555 1.7081-1.0602 0.97186-2.1668 1.8596-3.4163 2.5664-0.77833-1.422-1.5524-2.8398-2.3392-4.2745zm-0.3618 0.0631c-0.56376 1.7376-1.1318 3.4752-1.6955 5.2127-0.0084 0-0.01262 0.004-0.02104 0.004-0.7026-1.4515-1.4093-2.8988-2.1204-4.3629 1.279-0.28609 2.5495-0.56792 3.8369-0.85401zm-4.0852 1.0266-0.21882 2.8399c-0.0042 0-0.0083 0.004-0.01676 0.004-0.01262-0.0252-0.02528-0.0463-0.03369-0.0716-0.16829-0.42493-0.23981-0.86664-0.25243-1.3168 0-0.0463 0.0042-0.0968 0.02104-0.13887 0.15567-0.42913 0.31132-0.85407 0.46698-1.279 0.0042-0.0126 0.01265-0.0252 0.03369-0.0378z"/>
</svg>