<?xml version="1.0" encoding="UTF-8" standalone="no"?>
<!-- Generator: Adobe Illustrator 20.0.0, SVG Export Plug-In . SVG Version: 6.00 Build 0)  -->

<svg
   xmlns:dc="http://purl.org/dc/elements/1.1/"
   xmlns:cc="http://creativecommons.org/ns#"
   xmlns:rdf="http://www.w3.org/1999/02/22-rdf-syntax-ns#"
   xmlns:svg="http://www.w3.org/2000/svg"
   xmlns="http://www.w3.org/2000/svg"
   xmlns:sodipodi="http://sodipodi.sourceforge.net/DTD/sodipodi-0.dtd"
   xmlns:inkscape="http://www.inkscape.org/namespaces/inkscape"
   version="1.1"
   id="Camada_1"
   x="0px"
   y="0px"
   viewBox="0 0 16 16"
   xml:space="preserve"
   inkscape:version="0.91 r13725"
   sodipodi:docname="ruby1.svg"
   width="16"
   height="16"><metadata
     id="metadata13"><rdf:RDF><cc:Work
         rdf:about=""><dc:format>image/svg+xml</dc:format><dc:type
           rdf:resource="http://purl.org/dc/dcmitype/StillImage" /><dc:title></dc:title></cc:Work></rdf:RDF></metadata><defs
     id="defs11" /><sodipodi:namedview
     pagecolor="#ffffff"
     bordercolor="#666666"
     borderopacity="1"
     objecttolerance="10"
     gridtolerance="10"
     guidetolerance="10"
     inkscape:pageopacity="0"
     inkscape:pageshadow="2"
     inkscape:window-width="1366"
     inkscape:window-height="705"
     id="namedview9"
     showgrid="false"
     inkscape:zoom="0.4609375"
     inkscape:cx="-29.288136"
     inkscape:cy="256"
     inkscape:window-x="-8"
     inkscape:window-y="-8"
     inkscape:window-maximized="1"
     inkscape:current-layer="Camada_1" /><path
     d="m 13.377076,0.102235 c -0.08658,-7.9e-4 -0.174927,0.0127 -0.263278,0.019 -0.593215,0.0337 -1.186397,0.0715 -1.775404,0.10518 -0.622665,0.0379 -1.24533,0.0757 -1.8722025,0.11357 -0.0084,0 -0.01264,0.004 -0.03788,0.008 0.02945,0.021 0.05054,0.0379 0.07157,0.0547 0.483827,0.34079 0.9718455,0.68581 1.4556725,1.02239 0.05469,0.0379 0.0673,0.0673 0.04626,0.1304 -0.42072,1.32106 -0.837248,2.6379 -1.2579675,3.95896 -0.01262,0.0379 -0.03783,0.0799 -0.07149,0.10937 -1.48514,1.37996 -2.97028,2.75993 -4.459627,4.1399 -0.04628,0.0421 -0.109388,0.0715 -0.168288,0.0883 -1.29161,0.2903 -2.587475,0.57637 -3.879085,0.86667 -0.02524,0.004 -0.05042,0.008 -0.07987,0.0127 -0.227188,-0.63529 -0.458617,-1.27054 -0.685805,-1.90162 l -0.01265,0 c -0.01683,0.14725 -0.03364,0.2945 -0.04626,0.44176 -0.04628,0.45437 -0.09253,0.91296 -0.134597,1.36733 -0.04207,0.44176 -0.08834,0.8835 -0.130407,1.32946 -0.02104,0.21878 -0.04207,0.44173 -0.06311,0.6605 0,0.0126 -0.0084,0.0253 -0.01265,0.0337 l 0,0.18932 c 0.01683,0.14305 0.02942,0.29025 0.05045,0.4333 0.05469,0.42913 0.168305,0.84569 0.374457,1.22855 0.378648,0.69418 0.976103,1.08961 1.737605,1.25369 0.28609,0.0589 0.580561,0.0758 0.870857,0.11364 0.04207,0.004 0.07995,0.0126 0.122025,0.0168 l 0.189324,0 c 0.09256,-0.008 0.1851,-0.0211 0.277659,-0.0295 0.504863,-0.0337 1.009743,-0.0673 1.510399,-0.10099 0.576386,-0.0379 1.152756,-0.0799 1.729142,-0.11775 0.504863,-0.0337 1.009743,-0.0673 1.510399,-0.10099 0.576386,-0.0379 1.152756,-0.08 1.7291415,-0.11783 0.504863,-0.0337 1.005536,-0.0673 1.5104,-0.10091 0.576385,-0.0379 1.152755,-0.08 1.729141,-0.11784 0.424927,-0.0295 0.845695,-0.0547 1.270622,-0.0841 0.155667,-0.0126 0.3113,-0.0211 0.471173,-0.0337 0.01262,-0.15567 0.02526,-0.30713 0.03788,-0.46279 0.04207,-0.5259 0.07995,-1.04753 0.122025,-1.57343 0.03366,-0.43755 0.06725,-0.87513 0.100907,-1.31688 0.03366,-0.44176 0.06732,-0.88353 0.10518,-1.32108 0.02945,-0.36602 0.05469,-0.73203 0.08414,-1.09806 0.03366,-0.44596 0.06731,-0.89196 0.10518,-1.33792 0.02945,-0.36182 0.05469,-0.72778 0.08414,-1.0896 0.03366,-0.45017 0.07152,-0.9046 0.10518,-1.35477 0.03366,-0.43754 0.06733,-0.87087 0.100989,-1.30842 0.02524,-0.31133 0.06316,-0.62263 0.07157,-0.93396 -0.0084,-0.39969 -0.03371,-0.7994 -0.13468,-1.19067 -0.256638,-0.99711 -0.912945,-1.5945 -1.876393,-1.88059 -0.172495,-0.0505 -0.34499,-0.0926 -0.525899,-0.11783 -0.0284,-0.004 -0.05709,-0.006 -0.08595,-0.006 z m 0.104605,0.41538 c 0.01236,1.3e-4 0.0245,0.001 0.03607,0.003 0.492242,0.0926 0.950794,0.26079 1.333649,0.60158 0.286089,0.25664 0.475396,0.57223 0.593198,0.95508 -1.300024,-0.26085 -2.583235,-0.51333 -3.86643,-0.76576 l 0,-0.021 0.08842,-0.0379 c 0.567971,-0.23981 1.135943,-0.47962 1.703914,-0.71522 0.03471,-0.0126 0.0741,-0.0204 0.111179,-0.0201 z m -5.0422255,0.0267 c -0.212537,0.002 -0.424483,0.0325 -0.635106,0.0775 -0.610043,0.13464 -1.178031,0.37451 -1.72076,0.67743 -1.438861,0.79937 -2.663106,1.85531 -3.693869,3.13009 -0.563764,0.69418 -1.043417,1.44732 -1.379993,2.28035 -0.197738,0.48803 -0.336576,0.99285 -0.357612,1.52716 0.01683,0.15146 0.02947,0.30297 0.05892,0.45022 0.10518,0.58059 0.492209,0.98024 1.06018,1.10225 0.34499,0.0757 0.68998,0.0421 1.030763,-0.0294 0.584801,-0.12621 1.131785,-0.35762 1.64927,-0.64792 1.77123,-0.9929 3.235269,-2.3266 4.392248,-3.99265 0.437548,-0.63108 0.7994,-1.30419 1.022381,-2.04887 0.130423,-0.45017 0.2061195,-0.90453 0.113562,-1.37153 -0.117802,-0.58059 -0.454328,-0.96349 -1.043336,-1.10233 -0.165658,-0.0387 -0.33134,-0.054 -0.496646,-0.0523 z m 2.9199745,1.19239 c 0.02945,0.021 0.05045,0.0379 0.07149,0.0547 1.316853,1.08125 2.637978,2.1625 3.959038,3.23954 0.07152,0.0589 0.04206,0.1178 0.04626,0.18932 -1.762815,0.10939 -3.512992,0.21879 -5.284222,0.33239 0.403891,-1.27478 0.803542,-2.5412 1.207433,-3.81598 z m -1.26635,4.05576 c 1.346303,0.83723 2.688415,1.67025 4.034718,2.50328 -0.227189,0.49224 -2.145687,2.86935 -2.646343,3.26904 -0.471206,-1.91848 -0.938205,-3.83698 -1.409411,-5.75967 0.0084,-0.004 0.01262,-0.008 0.02104,-0.0127 z m 4.308185,2.84404 c 0.0084,0 0.01262,0.004 0.02104,0.004 l 0.340767,6.12147 -0.02104,0.0126 c -1.00552,-0.93821 -2.011056,-1.87639 -3.024991,-2.82301 0.538522,-0.48383 1.034987,-1.00135 1.489364,-1.54828 0.454377,-0.55115 0.862492,-1.13174 1.19486,-1.76703 z m -9.0328985,1.56513 c 1.926896,0.57218 3.832789,1.13593 5.7554765,1.70811 -1.060213,0.97186 -2.1667545,1.85958 -3.4162915,2.56638 -0.778332,-1.42203 -1.552439,-2.83984 -2.339185,-4.27449 z m -0.361803,0.0631 c -0.563764,1.73757 -1.131768,3.47516 -1.695532,5.21273 -0.0084,0 -0.01262,0.004 -0.02104,0.004 -0.702602,-1.45148 -1.409345,-2.89881 -2.120362,-4.36291 1.278988,-0.28609 2.549528,-0.56792 3.83693,-0.85401 z m -4.085171,1.02657 -0.218823,2.83986 c -0.0042,0 -0.0083,0.004 -0.01676,0.004 -0.01262,-0.0252 -0.02528,-0.0463 -0.03369,-0.0716 -0.168287,-0.42493 -0.23981,-0.86664 -0.252431,-1.31681 0,-0.0463 0.0042,-0.0968 0.02104,-0.13887 0.155666,-0.42913 0.311316,-0.85407 0.466982,-1.279 0.0042,-0.0126 0.01265,-0.0252 0.03369,-0.0378 z"
     id="path5"
     inkscape:connector-curvature="0" /></svg>