<svg xmlns="http://www.w3.org/2000/svg" viewBox="0 0 16 16">
 <path d="m8 0c-0.0774 0-0.15472 0.034-0.19664 0.1022l-0.4163 0.6724-0.19605 0.019-0.53913-0.5782c-0.10925-0.1169-0.32981-0.073-0.38581 0.077l-0.27614 0.7387-0.19037 0.058-0.64043-0.4608c-0.13006-0.094-0.338-0.01-0.3637 0.1506l-0.12701 0.7791-0.17483 0.094-0.71814-0.3275c-0.14597-0.067-0.33336 0.059-0.32724 0.2187l0.0275 0.7905-0.15181 0.1246-0.76954-0.1814c-0.15638-0.036-0.31525 0.1222-0.27853 0.2785l0.1814 0.7699-0.12462 0.1515-0.79046-0.027c-0.15943-0.01-0.28516 0.181-0.21876 0.3272l0.32754 0.7185-0.0938 0.1748-0.77881 0.1267c-0.15821 0.026-0.24396 0.2336-0.15062 0.3637l0.46083 0.6398-0.058 0.1907-0.73876 0.2764c-0.14995 0.056-0.19371 0.2763-0.0765 0.3859l0.57797 0.5391-0.0191 0.1957-0.67241 0.4163c-0.13619 0.084-0.13619 0.3095 0 0.3933l0.67241 0.4163 0.0191 0.1958-0.57797 0.5391c-0.11721 0.1092-0.0734 0.3295 0.0765 0.3858l0.73876 0.2761 0.058 0.1907-0.46083 0.6401c-0.0936 0.1304-0.008 0.338 0.15062 0.3634l0.77881 0.1268 0.0938 0.1751-0.32754 0.7181c-0.0667 0.146 0.0593 0.3337 0.21876 0.3273l0.79016-0.027 0.12492 0.1518-0.1814 0.7701c-0.0367 0.1561 0.12215 0.3144 0.27853 0.2776l0.76954-0.1811 0.15181 0.1244-0.0275 0.7907c-0.006 0.1601 0.18127 0.2852 0.32724 0.2185l0.71814-0.3273 0.17483 0.094 0.12701 0.7785c0.0257 0.1585 0.23364 0.2443 0.3637 0.1509l0.64014-0.4611 0.19066 0.058 0.27614 0.7385c0.056 0.1499 0.27656 0.194 0.38581 0.077l0.53913-0.5777 0.19605 0.019 0.416 0.6724c0.0839 0.1356 0.30943 0.1359 0.39358 0l0.416-0.6724 0.19605-0.019 0.53882 0.5777c0.10925 0.1175 0.32982 0.073 0.38582-0.077l0.27614-0.7385 0.19066-0.058 0.64014 0.4611c0.13006 0.093 0.3377 0.01 0.3634-0.1509l0.12701-0.7785 0.17513-0.094 0.71814 0.3273c0.14597 0.067 0.33305-0.058 0.32724-0.2185l-0.0278-0.7907 0.15181-0.1244 0.76984 0.1811c0.15638 0.037 0.31495-0.1215 0.27823-0.2776l-0.1814-0.7701 0.12462-0.1518 0.79046 0.027c0.15943 0.01 0.28547-0.1813 0.21846-0.3273l-0.32724-0.7181 0.0935-0.1751 0.7788-0.1268c0.15852-0.025 0.24457-0.233 0.15062-0.3634l-0.46053-0.6401 0.0577-0.1907 0.73876-0.2761c0.15025-0.056 0.19402-0.2766 0.0765-0.3858l-0.57767-0.5391 0.0191-0.1958 0.67241-0.4163c0.13619-0.084 0.13619-0.3091 0-0.3933l-0.67241-0.4163-0.0191-0.1957 0.57797-0.5391c0.11751-0.1096 0.0735-0.3299-0.0768-0.3859l-0.73846-0.2764-0.058-0.1907 0.46083-0.6398c0.0939-0.1301 0.008-0.3377-0.15062-0.3637l-0.77881-0.1267-0.0935-0.1748 0.32724-0.7185c0.067-0.1462-0.0575-0.3333-0.21845-0.3272l-0.79046 0.027-0.12492-0.1515 0.1817-0.7699c0.0367-0.1563-0.12215-0.3152-0.27853-0.2785l-0.76984 0.1814-0.15181-0.1246 0.0278-0.7905c0.006-0.16-0.18127-0.2851-0.32724-0.2187l-0.71814 0.3275-0.17483-0.094-0.12701-0.7791c-0.0257-0.1579-0.23364-0.2442-0.3637-0.1506l-0.64014 0.4608-0.19036-0.058-0.27614-0.7387c-0.056-0.1506-0.27687-0.194-0.38612-0.077l-0.53882 0.5782-0.19575-0.019-0.4163-0.6724c-0.0421-0.068-0.11929-0.1022-0.19664-0.1022zm-0.012 1.4097a0.47556 0.47556 0 0 1 0.0003 0 0.47556 0.47556 0 0 1 0.46173 0.4755 0.47562 0.47562 0 0 1 -0.95124 0 0.47556 0.47556 0 0 1 0.48922 -0.4755zm1.0902 0.7833a5.855 5.855 0 0 1 4.0082 2.8546l-0.56094 1.2668c-0.0969 0.2193 0.002 0.4758 0.22055 0.5729l1.08 0.4797a5.855 5.855 0 0 1 0.0126 1.0167h-0.60099c-0.0601 0-0.0843 0.039-0.0843 0.098v0.2758c0 0.6494-0.36619 0.7907-0.68706 0.8266-0.30555 0.034-0.64408-0.128-0.68585-0.315-0.18025-1.0138-0.4808-1.2304-0.95513-1.6045 0.58863-0.3738 1.2011-0.9253 1.2011-1.6634 0-0.797-0.54624-1.2989-0.91867-1.545-0.52253-0.3445-1.1012-0.4137-1.2573-0.4137h-6.2125a5.855 5.855 0 0 1 3.2757 -1.8486l0.73219 0.7683c0.16555 0.1734 0.43973 0.1798 0.61294 0.014l0.81945-0.7836zm-6.7633 3.5225a0.47556 0.47556 0 0 1 0.00031 0 0.47556 0.47556 0 0 1 0.46172 0.4755 0.47562 0.47562 0 0 1 -0.95124 0 0.47556 0.47556 0 0 1 0.48922 -0.4755zm11.346 0.022a0.47556 0.47556 0 0 1 0.00031 0 0.47556 0.47556 0 0 1 0.46172 0.4755 0.47562 0.47562 0 0 1 -0.95124 0 0.47556 0.47556 0 0 1 0.48922 -0.4755zm-10.449 0.077h0.82991v3.7401h-1.6742a5.855 5.855 0 0 1 -0.18947 -2.2351l1.0242-0.4551c0.21881-0.097 0.31772-0.3536 0.22055-0.5729l-0.21099-0.477zm3.4616 0.039h1.976c0.10206 0 0.72083 0.1178 0.72083 0.5804 0 0.384-0.47469 0.5218-0.86487 0.5218l-1.832 0.0003v-1.1025zm-0.00031 2.6867h1.5137c0.13817 0 0.73859 0.04 0.93062 0.8072 0.0601 0.2361 0.19243 1.0042 0.28271 1.2501 0.09 0.2757 0.45601 0.8266 0.84634 0.8266h2.4706a5.855 5.855 0 0 1 -0.54212 0.6276l-1.0059-0.2164c-0.23426-0.05-0.46473 0.099-0.51491 0.3335l-0.23849 1.1141a5.855 5.855 0 0 1 -4.8829 -0.023l-0.23848-1.1141c-0.0502-0.2344-0.28052-0.3835-0.51462-0.3332l-0.98352 0.211a5.855 5.855 0 0 1 -0.50834 -0.5992h4.7849c0.0542 0 0.0903-0.01 0.0903-0.059v-1.6927c0-0.049-0.0361-0.059-0.0903-0.059h-1.3995v-1.0732zm-2.2082 3.8761a0.47556 0.47556 0 0 1 0.00031 0 0.47556 0.47556 0 0 1 0.46172 0.4754 0.47562 0.47562 0 0 1 -0.95124 0 0.47556 0.47556 0 0 1 0.48922 -0.4754zm7.0463 0.022a0.47556 0.47556 0 0 1 0.0003 0 0.47556 0.47556 0 0 1 0.46173 0.4754 0.47562 0.47562 0 0 1 -0.95125 0 0.47556 0.47556 0 0 1 0.48922 -0.4754z"/>
</svg>