<?xml version="1.0" encoding="UTF-8" standalone="no"?>
<!-- Created with Inkscape (http://www.inkscape.org/) -->

<svg
   xmlns:dc="http://purl.org/dc/elements/1.1/"
   xmlns:cc="http://creativecommons.org/ns#"
   xmlns:rdf="http://www.w3.org/1999/02/22-rdf-syntax-ns#"
   xmlns:svg="http://www.w3.org/2000/svg"
   xmlns="http://www.w3.org/2000/svg"
   xmlns:sodipodi="http://sodipodi.sourceforge.net/DTD/sodipodi-0.dtd"
   xmlns:inkscape="http://www.inkscape.org/namespaces/inkscape"
   width="16"
   height="16"
   viewBox="0 0 16 16"
   id="svg3364"
   version="1.1"
   inkscape:version="0.91 r13725"
   sodipodi:docname="rust.svg">
  <defs
     id="defs3366" />
  <sodipodi:namedview
     id="base"
     pagecolor="#ffffff"
     bordercolor="#666666"
     borderopacity="1.0"
     inkscape:pageopacity="0.0"
     inkscape:pageshadow="2"
     inkscape:zoom="33.625"
     inkscape:cx="8"
     inkscape:cy="8"
     inkscape:document-units="px"
     inkscape:current-layer="layer1"
     showgrid="false"
     units="px"
     inkscape:window-width="1366"
     inkscape:window-height="705"
     inkscape:window-x="-8"
     inkscape:window-y="-8"
     inkscape:window-maximized="1" />
  <metadata
     id="metadata3369">
    <rdf:RDF>
      <cc:Work
         rdf:about="">
        <dc:format>image/svg+xml</dc:format>
        <dc:type
           rdf:resource="http://purl.org/dc/dcmitype/StillImage" />
        <dc:title></dc:title>
      </cc:Work>
    </rdf:RDF>
  </metadata>
  <g
     inkscape:label="Camada 1"
     inkscape:groupmode="layer"
     id="layer1"
     transform="translate(0,-1036.3622)">
    <path
       inkscape:connector-curvature="0"
       d="m 8.0004125,1036.3623 c -0.0774,0 -0.15472,0.034 -0.19664,0.1022 l -0.4163,0.6724 -0.19605,0.019 -0.53913,-0.5782 c -0.10925,-0.1169 -0.32981,-0.073 -0.38581,0.077 l -0.27614,0.7387 -0.19037,0.058 -0.64043,-0.4608 c -0.13006,-0.094 -0.338,-0.01 -0.3637,0.1506 l -0.12701,0.7791 -0.17483,0.094 -0.71814,-0.3275 c -0.14597,-0.067 -0.33336,0.059 -0.32724,0.2187 l 0.0275,0.7905 -0.15181,0.1246 -0.76954,-0.1814 c -0.15638,-0.036 -0.31525,0.1222 -0.27853,0.2785 l 0.1814,0.7699 -0.12462,0.1515 -0.79046,-0.027 c -0.15943,-0.01 -0.28516,0.181 -0.21876,0.3272 l 0.32754,0.7185 -0.0938,0.1748 -0.77881,0.1267 c -0.15821,0.026 -0.24396,0.2336 -0.15062,0.3637 l 0.46083,0.6398 -0.058,0.1907 -0.73876,0.2764 c -0.14995,0.056 -0.19371,0.2763 -0.0765,0.3859 l 0.57797,0.5391 -0.0191,0.1957 -0.67241,0.4163 c -0.13619,0.084 -0.13619,0.3095 0,0.3933 l 0.67241,0.4163 0.0191,0.1958 -0.57797,0.5391 c -0.11721,0.1092 -0.0734,0.3295 0.0765,0.3858 l 0.73876,0.2761 0.058,0.1907 -0.46083,0.6401 c -0.0936,0.1304 -0.008,0.338 0.15062,0.3634 l 0.77881,0.1268 0.0938,0.1751 -0.32754,0.7181 c -0.0667,0.146 0.0593,0.3337 0.21876,0.3273 l 0.79016,-0.027 0.12492,0.1518 -0.1814,0.7701 c -0.0367,0.1561 0.12215,0.3144 0.27853,0.2776 l 0.76954,-0.1811 0.15181,0.1244 -0.0275,0.7907 c -0.006,0.1601 0.18127,0.2852 0.32724,0.2185 l 0.71814,-0.3273 0.17483,0.094 0.12701,0.7785 c 0.0257,0.1585 0.23364,0.2443 0.3637,0.1509 l 0.64014,-0.4611 0.19066,0.058 0.27614,0.7385 c 0.056,0.1499 0.27656,0.194 0.38581,0.077 l 0.53913,-0.5777 0.19605,0.019 0.416,0.6724 c 0.0839,0.1356 0.30943,0.1359 0.39358,0 l 0.416,-0.6724 0.19605,-0.019 0.53882,0.5777 c 0.10925,0.1175 0.32982,0.073 0.38582,-0.077 l 0.2761405,-0.7385 0.190659,-0.058 0.64014,0.4611 c 0.13006,0.093 0.3377,0.01 0.3634,-0.1509 l 0.12701,-0.7785 0.17513,-0.094 0.71814,0.3273 c 0.14597,0.067 0.33305,-0.058 0.327241,-0.2185 l -0.0278,-0.7907 0.151811,-0.1244 0.769839,0.1811 c 0.156381,0.037 0.31495,-0.1215 0.27823,-0.2776 l -0.1814,-0.7701 0.12462,-0.1518 0.79046,0.027 c 0.15943,0.01 0.28547,-0.1813 0.21846,-0.3273 l -0.32724,-0.7181 0.0935,-0.1751 0.7788,-0.1268 c 0.15852,-0.025 0.24457,-0.233 0.15062,-0.3634 l -0.46053,-0.6401 0.0577,-0.1907 0.73876,-0.2761 c 0.150251,-0.056 0.194021,-0.2766 0.0765,-0.3858 l -0.57767,-0.5391 0.0191,-0.1958 0.67241,-0.4163 c 0.13619,-0.084 0.13619,-0.3091 0,-0.3933 l -0.67241,-0.4163 -0.0191,-0.1957 0.57797,-0.5391 c 0.11751,-0.1096 0.0735,-0.3299 -0.0768,-0.3859 l -0.738459,-0.2764 -0.058,-0.1907 0.46083,-0.6398 c 0.0939,-0.1301 0.008,-0.3377 -0.150621,-0.3637 l -0.77881,-0.1267 -0.0935,-0.1748 0.32724,-0.7185 c 0.067,-0.1462 -0.0575,-0.3333 -0.21845,-0.3272 l -0.79046,0.027 -0.12492,-0.1515 0.1817,-0.7699 c 0.0367,-0.1563 -0.122149,-0.3152 -0.27853,-0.2785 l -0.769839,0.1814 -0.151811,-0.1246 0.0278,-0.7905 c 0.006,-0.16 -0.18127,-0.2851 -0.327241,-0.2187 l -0.71814,0.3275 -0.17483,-0.094 -0.127009,-0.7791 c -0.0257,-0.1579 -0.23364,-0.2442 -0.3637,-0.1506 l -0.64014,0.4608 -0.19036,-0.058 -0.2761405,-0.7387 c -0.056,-0.1506 -0.27687,-0.194 -0.38612,-0.077 l -0.53882,0.5782 -0.19575,-0.019 -0.4163,-0.6724 c -0.0421,-0.068 -0.11929,-0.1022 -0.19664,-0.1022 z m -0.012,1.4097 a 0.47555921,0.47555839 0 0 1 3e-4,0 0.47555921,0.47555839 0 0 1 0.46173,0.4755 0.47562042,0.4756196 0 0 1 -0.95124,0 0.47555921,0.47555839 0 0 1 0.48922,-0.4755 z m 1.0902,0.7833 a 5.8549785,5.8549684 0 0 1 4.0081795,2.8546 l -0.56094,1.2668 c -0.0969,0.2193 0.002,0.4758 0.22055,0.5729 l 1.08005,0.4797 a 5.8549785,5.8549684 0 0 1 0.0126,1.0167 l -0.60099,0 c -0.0601,0 -0.0843,0.039 -0.0843,0.098 l 0,0.2758 c 0,0.6494 -0.36619,0.7907 -0.68706,0.8266 -0.305549,0.034 -0.644079,-0.128 -0.68585,-0.315 -0.18025,-1.0138 -0.4808,-1.2304 -0.95513,-1.6045 0.588631,-0.3738 1.20108,-0.9253 1.20108,-1.6634 0,-0.797 -0.54624,-1.2989 -0.91867,-1.545 -0.52253,-0.3445 -1.10119,-0.4137 -1.2572595,-0.4137 l -6.2125,0 a 5.8549785,5.8549684 0 0 1 3.2757,-1.8486 l 0.73219,0.7683 c 0.16555,0.1734 0.43973,0.1798 0.61294,0.014 l 0.81945,-0.7836 z m -6.76328,3.5225 a 0.47555921,0.47555839 0 0 1 3.1e-4,0 0.47555921,0.47555839 0 0 1 0.46172,0.4755 0.47562011,0.47561929 0 0 1 -0.95124,0 0.47555921,0.47555839 0 0 1 0.48922,-0.4755 z m 11.3461495,0.022 a 0.47555921,0.47555839 0 0 1 3.1e-4,0 0.47555921,0.47555839 0 0 1 0.461721,0.4755 0.47562042,0.4756196 0 0 1 -0.95124,0 0.47555921,0.47555839 0 0 1 0.48922,-0.4755 z m -10.4492995,0.077 0.82991,0 0,3.7401 -1.67416,0 a 5.8549785,5.8549684 0 0 1 -0.18947,-2.2351 l 1.02416,-0.4551 c 0.21881,-0.097 0.31772,-0.3536 0.22055,-0.5729 l -0.21099,-0.477 z m 3.46159,0.039 1.97599,0 c 0.10206,0 0.72083,0.1178 0.72083,0.5804 0,0.384 -0.47469,0.5218 -0.86487,0.5218 l -1.83195,3e-4 0,-1.1025 z m -3.1e-4,2.6867 1.51368,0 c 0.13817,0 0.73859,0.04 0.93062,0.8072 0.0601,0.2361 0.19243,1.0042 0.28271,1.2501 0.09,0.2757 0.45601,0.8266 0.8463395,0.8266 l 2.4706,0 a 5.8549785,5.8549684 0 0 1 -0.54212,0.6276 l -1.00593,-0.2164 c -0.23426,-0.05 -0.464729,0.099 -0.51491,0.3335 l -0.23849,1.1141 a 5.8549785,5.8549684 0 0 1 -4.8829095,-0.023 l -0.23848,-1.1141 c -0.0502,-0.2344 -0.28052,-0.3835 -0.51462,-0.3332 l -0.98352,0.211 a 5.8549785,5.8549684 0 0 1 -0.50834,-0.5992 l 4.78489,0 c 0.0542,0 0.0903,-0.01 0.0903,-0.059 l 0,-1.6927 c 0,-0.049 -0.0361,-0.059 -0.0903,-0.059 l -1.39952,0 0,-1.0732 z m -2.2082,3.8761 a 0.47555921,0.47555839 0 0 1 3.1e-4,0 0.47555921,0.47555839 0 0 1 0.46172,0.4754 0.47562019,0.47561937 0 0 1 -0.95124,0 0.47555921,0.47555839 0 0 1 0.48922,-0.4754 z m 7.0462995,0.022 a 0.47555921,0.47555839 0 0 1 3e-4,0 0.47555921,0.47555839 0 0 1 0.46173,0.4754 0.475625,0.47562418 0 0 1 -0.95125,0 0.47555921,0.47555839 0 0 1 0.48922,-0.4754 z"
       id="path4"
       style="fill:#000000" />
  </g>
</svg>
