<?xml version="1.0" encoding="UTF-8" standalone="no"?>
<svg
   xmlns:dc="http://purl.org/dc/elements/1.1/"
   xmlns:cc="http://creativecommons.org/ns#"
   xmlns:rdf="http://www.w3.org/1999/02/22-rdf-syntax-ns#"
   xmlns:svg="http://www.w3.org/2000/svg"
   xmlns="http://www.w3.org/2000/svg"
   xmlns:sodipodi="http://sodipodi.sourceforge.net/DTD/sodipodi-0.dtd"
   xmlns:inkscape="http://www.inkscape.org/namespaces/inkscape"
   width="16"
   height="16"
   viewBox="0 0 16 16"
   id="svg2"
   version="1.1"
   inkscape:version="0.91 r13725"
   sodipodi:docname="sass.svg">
  <metadata
     id="metadata10">
    <rdf:RDF>
      <cc:Work
         rdf:about="">
        <dc:format>image/svg+xml</dc:format>
        <dc:type
           rdf:resource="http://purl.org/dc/dcmitype/StillImage" />
        <dc:title></dc:title>
      </cc:Work>
    </rdf:RDF>
  </metadata>
  <defs
     id="defs8" />
  <sodipodi:namedview
     pagecolor="#ffffff"
     bordercolor="#666666"
     borderopacity="1"
     objecttolerance="10"
     gridtolerance="10"
     guidetolerance="10"
     inkscape:pageopacity="0"
     inkscape:pageshadow="2"
     inkscape:window-width="1366"
     inkscape:window-height="705"
     id="namedview6"
     showgrid="false"
     inkscape:zoom="0.61458333"
     inkscape:cx="352.81356"
     inkscape:cy="192"
     inkscape:window-x="-8"
     inkscape:window-y="-8"
     inkscape:window-maximized="1"
     inkscape:current-layer="svg2" />
  <path
     d="m 13.773576,8.8903916 c -0.559424,0.003 -1.043841,0.13751 -1.450126,0.33753 -0.150013,-0.2969 -0.300026,-0.5563 -0.325029,-0.75006 -0.02813,-0.22502 -0.0625,-0.36254 -0.02813,-0.63131 0.03438,-0.26877 0.190642,-0.65006 0.190642,-0.68131 -0.0031,-0.0281 -0.03438,-0.16564 -0.356282,-0.16876 -0.321903,-0.003 -0.600052,0.0625 -0.631305,0.14688 -0.03125,0.0844 -0.09376,0.27815 -0.134386,0.47817 -0.05626,0.29378 -0.643807,1.33449 -0.97821,1.88141 -0.109385,-0.21251 -0.2031432,-0.40003 -0.2218948,-0.55004 -0.028128,-0.22502 -0.062505,-0.36253 -0.028128,-0.63131 0.034378,-0.26877 0.1906418,-0.65006 0.1906418,-0.68131 -0.00313,-0.0281 -0.034378,-0.16564 -0.3562812,-0.16876 -0.3219031,-0.003 -0.6000524,0.0625 -0.6313051,0.14689 -0.031253,0.0844 -0.065631,0.2844 -0.1343868,0.47816 -0.065631,0.19377 -0.8469489,1.9314204 -1.0500917,2.3845904 -0.103134,0.23127 -0.1937669,0.41566 -0.2593976,0.54067 -0.065631,0.12501 -0.00313,0.009 -0.00938,0.0219 -0.056255,0.10626 -0.087508,0.16564 -0.087508,0.16564 l 0,0.003 c -0.043754,0.0781 -0.090633,0.15314 -0.1125098,0.15314 -0.015626,0 -0.046879,-0.2094 0.00625,-0.49692 0.1156351,-0.60318 0.3969096,-1.5438904 0.3937843,-1.5782604 0,-0.0156 0.05313,-0.18127 -0.1812658,-0.26565 -0.2281449,-0.0844 -0.309402,0.0562 -0.3281536,0.0562 -0.018752,0 -0.034378,0.05 -0.034378,0.05 0,0 0.2531471,-1.05947 -0.4844173,-1.05947 -0.4625404,0 -1.1000961,0.50317 -1.4157486,0.96258 -0.2000175,0.10939 -0.6250546,0.34066 -1.0750939,0.58756 -0.17189,0.0937 -0.3500305,0.19376 -0.5187953,0.28439 l -0.034378,-0.0375 c -0.893828,-0.95321 -2.5470973,-1.62827 -2.4783413,-2.90963 0.025002,-0.46566 0.1875163,-1.6939 3.1752772,-3.18153 2.4470886,-1.21885 4.4066347,-0.88445 4.7472894,-0.14063 0.4844173,1.06259 -1.0469664,3.03776 -3.5909385,3.32216 -0.9688346,0.10939 -1.478254,-0.26565 -1.6063902,-0.40628 -0.1343868,-0.14689 -0.1531384,-0.15314 -0.2031428,-0.12501 -0.081257,0.0437 -0.031253,0.17501 0,0.25314 0.075007,0.1969 0.3875339,0.54693 0.9188303,0.72194 0.4656656,0.15314 1.6032649,0.23752 2.978385,-0.29377 1.5407595,-0.59693 2.7439883,-2.25333 2.3908333,-3.63782 -0.359406,-1.4095 -2.6971101,-1.87204 -4.906678,-1.0876 -1.3157398,0.46879 -2.7408642,1.20011 -3.7659537,2.15957 -1.21885646,1.1376 -1.41262338,2.13143 -1.33136629,2.54397 0.28439983,1.472 2.31270189,2.43146 3.12527289,3.1409004 -0.040629,0.0219 -0.078132,0.0438 -0.1125098,0.0625 -0.4062855,0.20002 -1.9532956,1.00947 -2.34082943,1.86579 -0.43753819,0.96884 0.068756,1.66577 0.40628543,1.75953 1.0438412,0.29065 2.1126845,-0.23127 2.69086,-1.09072 0.5750502,-0.85945 0.5062942,-1.97517 0.240646,-2.48459 l -0.00938,-0.0188 0.3187778,-0.18752 c 0.206268,-0.12189 0.4094107,-0.2344004 0.5875513,-0.3312804 -0.1000087,0.2719004 -0.17189,0.5938004 -0.2093933,1.0625904 -0.043754,0.55005 0.1812658,1.26261 0.4781668,1.54389 0.1312614,0.12188 0.2875251,0.12501 0.3844085,0.12501 0.34378,0 0.5000437,-0.2844 0.6719337,-0.62506 0.2125185,-0.41566 0.4000349,-0.89695 0.4000349,-0.89695 0,0 -0.2343955,1.30324 0.4062855,1.30324 0.2343954,0 0.4687909,-0.30315 0.5750502,-0.45941 l 0,0.003 c 0,0 0.00625,-0.009 0.018752,-0.0312 0.025002,-0.0375 0.037503,-0.0594 0.037503,-0.0594 l 0,-0.006 c 0.093758,-0.16252 0.3031515,-0.53442 0.6156787,-1.1501 0.4031602,-0.7938204 0.7906941,-1.7876604 0.7906941,-1.7876604 0,0 0.037503,0.24377 0.1531383,0.64381 0.068756,0.23752 0.2187691,0.49692 0.3344042,0.7500604 -0.093758,0.13126 -0.1500131,0.20627 -0.1500131,0.20627 l 0.00313,0.003 c -0.075007,0.1 -0.1593889,0.20626 -0.2468965,0.31252 -0.3187779,0.38129 -0.7000612,0.8157 -0.7500655,0.94071 -0.05938,0.14689 -0.046879,0.25627 0.068756,0.34378 0.084382,0.0625 0.2343954,0.075 0.3937844,0.0625 0.2875251,-0.0188 0.4875425,-0.0906 0.5875513,-0.13439 0.1562636,-0.0563 0.3344042,-0.14064 0.5062942,-0.26565 0.3125264,-0.23127 0.5031684,-0.55942 0.4844164,-0.99696 -0.0094,-0.24065 -0.08751,-0.47817 -0.184391,-0.7031904 0.02813,-0.0406 0.05625,-0.0813 0.08438,-0.12501 0.493793,-0.72194 0.875076,-1.51576 0.875076,-1.51576 0,0 0.0375,0.24378 0.153138,0.64381 0.05938,0.20314 0.178141,0.42504 0.2844,0.64381 -0.46254,0.3781504 -0.75319,0.8156904 -0.853199,1.1032204 -0.184391,0.53129 -0.04063,0.77194 0.23127,0.82819 0.121886,0.025 0.296901,-0.0312 0.428162,-0.0875 0.162515,-0.0531 0.359407,-0.14377 0.540673,-0.27815 0.312527,-0.23127 0.612553,-0.55318 0.596927,-0.98759 -0.0094,-0.20002 -0.06251,-0.3969104 -0.134387,-0.5844204 0.393784,-0.16252 0.903204,-0.25628 1.550135,-0.17814 1.390747,0.16251 1.665771,1.0313404 1.612641,1.3938704 -0.05313,0.36253 -0.34378,0.56255 -0.440663,0.62505 -0.09688,0.0594 -0.128137,0.0813 -0.118761,0.12501 0.0125,0.0656 0.05626,0.0625 0.140638,0.05 0.115635,-0.0188 0.731313,-0.2969 0.756316,-0.96571 0.0375,-0.8594504 -0.778193,-1.7970304 -2.225195,-1.7876604 z M 3.0476403,12.506332 c -0.4594151,0.50317 -1.1063466,0.69381 -1.3813706,0.5313 -0.2969009,-0.17189 -0.1812658,-0.91258 0.3844086,-1.447 0.34378,-0.32503 0.790694,-0.62506 1.0844696,-0.80945 0.065631,-0.0406 0.1656395,-0.10001 0.2843999,-0.17189 0.018752,-0.0125 0.031253,-0.0187 0.031253,-0.0187 0.021877,-0.0125 0.046879,-0.0281 0.071881,-0.0438 0.2093932,0.76256 0.00938,1.43137 -0.4750415,1.95954 z m 3.3596683,-2.28457 c -0.1593889,0.39066 -0.4969184,1.39387 -0.7000611,1.33761 -0.1750153,-0.0469 -0.2812746,-0.80632 -0.034378,-1.55638 0.1250109,-0.3781604 0.3906591,-0.8282004 0.5469227,-1.0032104 0.2531471,-0.28128 0.5281711,-0.37504 0.5969271,-0.2594 0.081257,0.15001 -0.309402,1.23761 -0.4094107,1.4813804 z m 2.772117,1.32511 c -0.068756,0.0344 -0.1312614,0.0594 -0.1593889,0.0406 -0.021877,-0.0125 0.028128,-0.0594 0.028128,-0.0594 0,0 0.3469052,-0.37191 0.4844172,-0.5438 0.078132,-0.1 0.1718901,-0.21564 0.2718988,-0.3469 l 0,0.0375 c 0,0.45004 -0.4312877,0.75007 -0.6250546,0.87195 z m 2.1376864,-0.48754 c -0.05,-0.0375 -0.04375,-0.15314 0.125011,-0.51567 0.06563,-0.14376 0.215644,-0.38441 0.475041,-0.6125504 0.03125,0.0938 0.05001,0.1843904 0.04688,0.2687704 -0.0031,0.56255 -0.40316,0.77194 -0.646931,0.85945 z"
     id="path4"
     style="fill:#000000"
     inkscape:connector-curvature="0" />
</svg>
