<svg xmlns="http://www.w3.org/2000/svg" viewBox="0 0 16 16">
 <path d="m13.774 8.8904c-0.55942 0.003-1.0438 0.13751-1.4501 0.33753-0.15001-0.2969-0.30003-0.5563-0.32503-0.75006-0.02813-0.22502-0.0625-0.36254-0.02813-0.63131 0.03438-0.26877 0.19064-0.65006 0.19064-0.68131-0.0031-0.0281-0.03438-0.16564-0.35628-0.16876-0.3219-0.003-0.60005 0.0625-0.6313 0.14688-0.03125 0.0844-0.09376 0.27815-0.13439 0.47817-0.05626 0.29378-0.64381 1.3345-0.97821 1.8814-0.10938-0.21251-0.20314-0.40003-0.22189-0.55004-0.028128-0.22502-0.062505-0.36253-0.028128-0.63131 0.034378-0.26877 0.19064-0.65006 0.19064-0.68131-0.00313-0.0281-0.034378-0.16564-0.35628-0.16876-0.3219-0.003-0.60005 0.0625-0.63131 0.14689-0.031253 0.0844-0.065631 0.2844-0.13439 0.47816-0.065631 0.19377-0.84695 1.9314-1.0501 2.3846-0.10313 0.23127-0.19377 0.41566-0.2594 0.54067-0.065631 0.12501-0.00313 0.009-0.00938 0.0219-0.056255 0.10626-0.087508 0.16564-0.087508 0.16564v0.003c-0.043754 0.0781-0.090633 0.15314-0.11251 0.15314-0.015626 0-0.046879-0.2094 0.00625-0.49692 0.11564-0.60318 0.39691-1.5439 0.39378-1.5783 0-0.0156 0.05313-0.18127-0.18127-0.26565-0.22814-0.0844-0.3094 0.0562-0.32815 0.0562-0.018752 0-0.034378 0.05-0.034378 0.05s0.25315-1.0595-0.48442-1.0595c-0.46254 0-1.1001 0.50317-1.4157 0.96258-0.20002 0.10939-0.62505 0.34066-1.0751 0.58756-0.17189 0.0937-0.35003 0.19376-0.5188 0.28439l-0.034378-0.0375c-0.89383-0.95321-2.5471-1.6283-2.4783-2.9096 0.025002-0.46566 0.18752-1.6939 3.1753-3.1815 2.4471-1.2188 4.4066-0.88445 4.7473-0.14063 0.48442 1.0626-1.047 3.0378-3.5909 3.3222-0.96883 0.10939-1.4783-0.26565-1.6064-0.40628-0.13439-0.14689-0.15314-0.15314-0.20314-0.12501-0.081257 0.0437-0.031253 0.17501 0 0.25314 0.075007 0.1969 0.38753 0.54693 0.91883 0.72194 0.46567 0.15314 1.6033 0.23752 2.9784-0.29377 1.5408-0.59693 2.744-2.2533 2.3908-3.6378-0.35941-1.4095-2.6971-1.872-4.9067-1.0876-1.3157 0.46879-2.7409 1.2001-3.766 2.1596-1.2189 1.1376-1.4126 2.1314-1.3314 2.544 0.2844 1.472 2.3127 2.4315 3.1253 3.1409-0.040629 0.0219-0.078132 0.0438-0.11251 0.0625-0.40629 0.20002-1.9533 1.0095-2.3408 1.8658-0.43754 0.96884 0.068756 1.6658 0.40629 1.7595 1.0438 0.29065 2.1127-0.23127 2.6909-1.0907 0.57505-0.85945 0.50629-1.9752 0.24065-2.4846l-0.00938-0.0188 0.31878-0.18752c0.20627-0.12189 0.40941-0.2344 0.58755-0.33128-0.10001 0.2719-0.17189 0.5938-0.20939 1.0626-0.043754 0.55005 0.18127 1.2626 0.47817 1.5439 0.13126 0.12188 0.28753 0.12501 0.38441 0.12501 0.34378 0 0.50004-0.2844 0.67193-0.62506 0.21252-0.41566 0.40003-0.89695 0.40003-0.89695s-0.2344 1.3032 0.40629 1.3032c0.2344 0 0.46879-0.30315 0.57505-0.45941v0.003s0.00625-0.009 0.018752-0.0312c0.025002-0.0375 0.037503-0.0594 0.037503-0.0594v-0.006c0.093758-0.16252 0.30315-0.53442 0.61568-1.1501 0.40316-0.79382 0.79069-1.7877 0.79069-1.7877s0.037503 0.24377 0.15314 0.64381c0.068756 0.23752 0.21877 0.49692 0.3344 0.75006-0.093758 0.13126-0.15001 0.20627-0.15001 0.20627l0.00313 0.003c-0.075007 0.1-0.15939 0.20626-0.2469 0.31252-0.31878 0.38129-0.70006 0.8157-0.75007 0.94071-0.05938 0.14689-0.046879 0.25627 0.068756 0.34378 0.084382 0.0625 0.2344 0.075 0.39378 0.0625 0.28753-0.0188 0.48754-0.0906 0.58755-0.13439 0.15626-0.0563 0.3344-0.14064 0.50629-0.26565 0.31253-0.23127 0.50317-0.55942 0.48442-0.99696-0.0094-0.24065-0.08751-0.47817-0.18439-0.70319 0.02813-0.0406 0.05625-0.0813 0.08438-0.12501 0.49379-0.72194 0.87508-1.5158 0.87508-1.5158s0.0375 0.24378 0.15314 0.64381c0.05938 0.20314 0.17814 0.42504 0.2844 0.64381-0.46254 0.37815-0.75319 0.81569-0.8532 1.1032-0.18439 0.53129-0.04063 0.77194 0.23127 0.82819 0.12189 0.025 0.2969-0.0312 0.42816-0.0875 0.16252-0.0531 0.35941-0.14377 0.54067-0.27815 0.31253-0.23127 0.61255-0.55318 0.59693-0.98759-0.0094-0.20002-0.06251-0.39691-0.13439-0.58442 0.39378-0.16252 0.9032-0.25628 1.5501-0.17814 1.3907 0.16251 1.6658 1.0313 1.6126 1.3939-0.05313 0.36253-0.34378 0.56255-0.44066 0.62505-0.09688 0.0594-0.12814 0.0813-0.11876 0.12501 0.0125 0.0656 0.05626 0.0625 0.14064 0.05 0.11564-0.0188 0.73131-0.2969 0.75632-0.96571 0.0375-0.85945-0.77819-1.797-2.2252-1.7877zm-10.726 3.6156c-0.45942 0.50317-1.1063 0.69381-1.3814 0.5313-0.2969-0.17189-0.18127-0.91258 0.38441-1.447 0.34378-0.32503 0.79069-0.62506 1.0845-0.80945 0.065631-0.0406 0.16564-0.10001 0.2844-0.17189 0.018752-0.0125 0.031253-0.0187 0.031253-0.0187 0.021877-0.0125 0.046879-0.0281 0.071881-0.0438 0.20939 0.76256 0.00938 1.4314-0.47504 1.9595zm3.3597-2.2846c-0.15939 0.39066-0.49692 1.3939-0.70006 1.3376-0.17502-0.0469-0.28127-0.80632-0.034378-1.5564 0.12501-0.37816 0.39066-0.8282 0.54692-1.0032 0.25315-0.28128 0.52817-0.37504 0.59693-0.2594 0.081257 0.15001-0.3094 1.2376-0.40941 1.4814zm2.7721 1.3251c-0.068756 0.0344-0.13126 0.0594-0.15939 0.0406-0.021877-0.0125 0.028128-0.0594 0.028128-0.0594s0.34691-0.37191 0.48442-0.5438c0.078132-0.1 0.17189-0.21564 0.2719-0.3469v0.0375c0 0.45004-0.43129 0.75007-0.62505 0.87195zm2.1377-0.48754c-0.05-0.0375-0.04375-0.15314 0.12501-0.51567 0.06563-0.14376 0.21564-0.38441 0.47504-0.61255 0.03125 0.0938 0.05001 0.18439 0.04688 0.26877-0.0031 0.56255-0.40316 0.77194-0.64693 0.85945z"/>
</svg>