<?xml version="1.0" encoding="UTF-8" standalone="no"?>
<svg
   xmlns:dc="http://purl.org/dc/elements/1.1/"
   xmlns:cc="http://creativecommons.org/ns#"
   xmlns:rdf="http://www.w3.org/1999/02/22-rdf-syntax-ns#"
   xmlns:svg="http://www.w3.org/2000/svg"
   xmlns="http://www.w3.org/2000/svg"
   xmlns:sodipodi="http://sodipodi.sourceforge.net/DTD/sodipodi-0.dtd"
   xmlns:inkscape="http://www.inkscape.org/namespaces/inkscape"
   width="16"
   height="16"
   viewBox="0 0 16 16"
   id="svg2"
   version="1.1"
   inkscape:version="0.91 r13725"
   sodipodi:docname="scala.svg">
  <metadata
     id="metadata12">
    <rdf:RDF>
      <cc:Work
         rdf:about="">
        <dc:format>image/svg+xml</dc:format>
        <dc:type
           rdf:resource="http://purl.org/dc/dcmitype/StillImage" />
        <dc:title></dc:title>
      </cc:Work>
    </rdf:RDF>
  </metadata>
  <defs
     id="defs10" />
  <sodipodi:namedview
     pagecolor="#ffffff"
     bordercolor="#666666"
     borderopacity="1"
     objecttolerance="10"
     gridtolerance="10"
     guidetolerance="10"
     inkscape:pageopacity="0"
     inkscape:pageshadow="2"
     inkscape:window-width="786"
     inkscape:window-height="480"
     id="namedview8"
     showgrid="false"
     inkscape:zoom="0.4609375"
     inkscape:cx="256"
     inkscape:cy="256"
     inkscape:window-x="0"
     inkscape:window-y="0"
     inkscape:window-maximized="0"
     inkscape:current-layer="svg2" />
  <g
     id="g4"
     style="clip-rule:evenodd;fill:#000000;fill-rule:evenodd"
     transform="matrix(0.04210526,0,0,0.04210526,-2.7790106,-2.7789466)">
    <path
       d="m 372.498,66 0,87.907 c 0,0 0,16.164 -53.61,27.198 -53.611,11.042 -171.479,27.593 -179.354,32.714 l 0,-90.663 c 0,0 -2.375,-3.546 36.656,-8.667 C 215.212,109.36 358.701,95.96 372.498,66 Z m 0,116.095 0,87.9 c 0,0 0,16.162 -53.61,27.196 -53.611,11.042 -171.479,27.593 -179.354,32.723 l 0,-90.663 c 0,0 -2.375,-3.555 36.656,-8.676 39.022,-5.121 182.511,-18.529 196.308,-48.48 z m 0,116.086 0,87.9 c 0,0 0,16.162 -53.61,27.205 C 265.276,424.32 147.409,440.879 139.533,446 l 0,-90.663 c 0,0 -2.375,-3.545 36.656,-8.674 39.023,-5.121 182.512,-18.522 196.309,-48.482 z"
       id="path6"
       style="fill:#000000"
       inkscape:connector-curvature="0" />
  </g>
</svg>
