<svg xmlns="http://www.w3.org/2000/svg" viewBox="0 0 16 16">
 <path d="m12.905 5.6e-7v3.7013s0 0.68059-2.2573 1.1452c-2.2575 0.465-7.2203 1.1618-7.5519 1.3775v-3.8174s-0.1-0.14931 1.5434-0.36493c1.643-0.216 7.6845-0.7802 8.2655-2.0417zm0 4.8882v3.7011s0 0.68051-2.2573 1.1451c-2.2575 0.4646-7.2203 1.1616-7.5519 1.3776v-3.8174s-0.1-0.14968 1.5434-0.36531c1.643-0.21562 7.6847-0.78017 8.2656-2.0413zm0 4.8878v3.7011s0 0.6805-2.2573 1.1455c-2.2573 0.46459-7.2202 1.1618-7.5518 1.3774v-3.8174s-0.1-0.14926 1.5434-0.36522c1.6431-0.21562 7.6847-0.77987 8.2656-2.0413z"/>
</svg>