<svg xmlns="http://www.w3.org/2000/svg" viewBox="0 0 16 16">
 <path d="m8-0.00015c-0.4041 0.0245-0.9315 0.15132-1.2383 0.35742-0.6367 1.3509-0.5491 3.6228-0.4512 5.1211 0.2695 2.5668 0.6254 5.0195 1.1153 7.3655 0.3794-0.016 0.7601-0.018 1.1484 0 0.4899-2.346 0.8458-4.7987 1.1153-7.3655 0.0979-1.4983 0.1855-3.7702-0.4512-5.1211-0.3068-0.20611-0.8342-0.33289-1.2383-0.35743zm-1.6855 0.33008c-0.638-0.04889-1.3288 0.30956-1.6211 0.61719-1.139 1.1636-1.0032 3.8605-0.4278 5.8222 0.7243 2.2467 1.6002 4.0587 2.586 6.1257 0.1353-0.022 0.3189-0.037 0.5-0.047-0.4833-2.111-0.7962-4.16-1.0684-6.1939-0.1751-1.3085-0.2332-2.5721-0.1953-3.75 0.0296-0.9205 0.1431-1.7704 0.4961-2.5274-0.0877-0.02489-0.1784-0.03982-0.2695-0.0468zm3.371 0c-0.0911 0.00698-0.1818 0.02191-0.2695 0.04687 0.353 0.75695 0.4665 1.6068 0.4961 2.5274 0.0379 1.1778-0.0202 2.4414-0.1953 3.7499-0.2722 2.0339-0.5851 4.0849-1.0684 6.1959 0.1613 0.006 0.3349 0.02 0.5 0.045 0.9856-2.067 1.8616-3.879 2.5856-6.1257 0.576-1.9617 0.712-4.6586-0.427-5.8222-0.293-0.30766-0.983-0.66611-1.6215-0.61722zm-5.3222 0.82427c-0.5915 0.2673-1.0577 0.7617-1.4492 1.3047-0.3806 0.508-0.7134 1.3112-0.7071 1.9668 0.0091 0.9324 0.2409 1.9428 0.6328 2.9199 0.9112 1.9935 2.3531 3.9043 3.8223 5.6133 0.004-0.034 0.1353-0.056 0.1387-0.057-1.0323-1.946-1.9577-3.8801-2.6621-5.9586-0.2815-1.0643-0.4567-1.9419-0.4707-2.8223-0.0182-1.1388 0.0982-2.0926 0.6953-2.9668zm7.2737 0c0.597 0.8742 0.713 1.828 0.695 2.9668-0.014 0.8804-0.189 1.758-0.471 2.8223-0.711 2.0988-1.618 3.9936-2.6618 5.9586 0.0348 0.008 0.1292 0.024 0.1387 0.057 1.4691-1.709 2.9111-3.6198 3.8221-5.6133 0.392-0.9771 0.624-1.9875 0.633-2.9199 0.006-0.6556-0.326-1.4588-0.707-1.9668-0.392-0.543-0.858-1.0374-1.449-1.3047zm-3.635 11.731c-0.6975 0-1.2676 0.061-1.2676 0.136 0 0.076 0.5701 0.137 1.2676 0.137 0.6974 0 1.2656-0.061 1.2656-0.137 0-0.075-0.5682-0.136-1.2656-0.136zm-1.0723 1.345v1.77h0.4961v-0.172h-0.1836v-1.426h0.1836v-0.172h-0.4961zm0.916 0-0.0019 1.77h0.3144v-1.77h-0.3125zm0.7305 0v0.172h0.1836v1.426h-0.1836v0.172h0.4961v-1.77h-0.4961z"/>
</svg>