<?xml version="1.0" encoding="UTF-8" standalone="no"?>
<!-- Created with Inkscape (http://www.inkscape.org/) -->

<svg
   xmlns:dc="http://purl.org/dc/elements/1.1/"
   xmlns:cc="http://creativecommons.org/ns#"
   xmlns:rdf="http://www.w3.org/1999/02/22-rdf-syntax-ns#"
   xmlns:svg="http://www.w3.org/2000/svg"
   xmlns="http://www.w3.org/2000/svg"
   xmlns:sodipodi="http://sodipodi.sourceforge.net/DTD/sodipodi-0.dtd"
   xmlns:inkscape="http://www.inkscape.org/namespaces/inkscape"
   id="svg3004"
   version="1.1"
   inkscape:version="0.91 r13725"
   width="16"
   height="16"
   xml:space="preserve"
   sodipodi:docname="smalltalk.svg"><metadata
     id="metadata3010"><rdf:RDF><cc:Work
         rdf:about=""><dc:format>image/svg+xml</dc:format><dc:type
           rdf:resource="http://purl.org/dc/dcmitype/StillImage" /><dc:title></dc:title></cc:Work></rdf:RDF></metadata><defs
     id="defs3008" /><sodipodi:namedview
     pagecolor="#ffffff"
     bordercolor="#666666"
     borderopacity="1"
     objecttolerance="10"
     gridtolerance="10"
     guidetolerance="10"
     inkscape:pageopacity="0"
     inkscape:pageshadow="2"
     inkscape:window-width="1366"
     inkscape:window-height="705"
     id="namedview3006"
     showgrid="false"
     fit-margin-top="0"
     fit-margin-left="0"
     fit-margin-right="0"
     fit-margin-bottom="0"
     inkscape:zoom="33.625"
     inkscape:cx="8"
     inkscape:cy="8"
     inkscape:window-x="-8"
     inkscape:window-y="-8"
     inkscape:window-maximized="1"
     inkscape:current-layer="g3012" /><g
     id="g3012"
     inkscape:groupmode="layer"
     inkscape:label="esug-Logo-Version3-13092006"
     transform="matrix(1.25,0,0,-1.25,-91.155929,223.59175)"><path
       style="fill:#000000;fill-opacity:1;fill-rule:evenodd;stroke:none"
       d="M 8 0 C 7.5958563 0.0245 7.0684725 0.15132188 6.7617188 0.35742188 C 6.1249525 1.7083469 6.2126119 3.9802406 6.3105469 5.4785156 C 6.5799531 8.0452781 6.9359437 10.49815 7.4257812 12.84375 C 7.805165 12.82825 8.1858663 12.826112 8.5742188 12.84375 C 9.0640562 10.498138 9.4200469 8.0452781 9.6894531 5.4785156 C 9.7874156 3.9802406 9.8750475 1.7083469 9.2382812 0.35742188 C 8.9315275 0.15132188 8.4041012 0.0245375 8 0 z M 6.3144531 0.33007812 C 5.676474 0.28119177 4.9856564 0.6396375 4.6933594 0.94726562 C 3.5544369 2.1109406 3.690155 4.8077687 4.265625 6.7695312 C 4.9898975 9.0161937 5.8658487 10.828344 6.8515625 12.894531 C 6.9868875 12.872781 7.1705362 12.858281 7.3515625 12.847656 C 6.8683425 10.736869 6.5553744 8.6882219 6.2832031 6.6542969 C 6.1081019 5.3457844 6.0499819 4.0822094 6.0878906 2.9042969 C 6.1174656 1.9838344 6.2310444 1.1339406 6.5839844 0.37695312 C 6.4963217 0.35198594 6.405593 0.33706189 6.3144531 0.33007812 z M 9.6855469 0.33007812 C 9.5944063 0.33706189 9.5036783 0.35198594 9.4160156 0.37695312 C 9.7689556 1.1339406 9.8825344 1.9838344 9.9121094 2.9042969 C 9.9500444 4.0822094 9.8918981 5.3457844 9.7167969 6.6542969 C 9.4446256 8.6882219 9.1316662 10.738809 8.6484375 12.849609 C 8.8096987 12.856234 8.9833325 12.870031 9.1484375 12.894531 C 10.134177 10.828381 11.010103 9.0161937 11.734375 6.7695312 C 12.309845 4.8077687 12.445537 2.1109406 11.306641 0.94726562 C 11.014342 0.6396375 10.323531 0.28119177 9.6855469 0.33007812 z M 4.3632812 1.1542969 C 3.7718375 1.4216469 3.305595 1.9159594 2.9140625 2.4589844 C 2.533495 2.9669594 2.2006563 3.7701688 2.2070312 4.4257812 C 2.2161375 5.3581813 2.4478637 6.3686281 2.8398438 7.3457031 C 3.75101 9.3391781 5.1928994 11.249659 6.6621094 12.958984 C 6.6661269 12.925359 6.7974062 12.903119 6.8007812 12.902344 C 5.7684948 10.95644 4.8430957 9.0219475 4.1386719 6.9433594 C 3.8572219 5.8790844 3.6819813 5.0014562 3.6679688 4.1210938 C 3.6498262 2.9822563 3.7661613 2.0284594 4.3632812 1.1542969 z M 11.636719 1.1542969 C 12.233839 2.0284594 12.350174 2.9822563 12.332031 4.1210938 C 12.318044 5.0014562 12.142777 5.8790844 11.861328 6.9433594 C 11.150014 9.0422344 10.24349 10.937194 9.1992188 12.902344 C 9.2340188 12.909844 9.3283619 12.925609 9.3378906 12.958984 C 10.807102 11.249659 12.248964 9.3391781 13.160156 7.3457031 C 13.55211 6.3686281 13.783862 5.3581813 13.792969 4.4257812 C 13.799344 3.7701688 13.466505 2.9669594 13.085938 2.4589844 C 12.694405 1.9159594 12.228162 1.4216469 11.636719 1.1542969 z M 8.0019531 12.884766 C 7.3045231 12.884766 6.734375 12.946097 6.734375 13.021484 C 6.734375 13.096859 7.3045231 13.158203 8.0019531 13.158203 C 8.6993844 13.158203 9.2675781 13.096859 9.2675781 13.021484 C 9.2675781 12.946109 8.6993844 12.884766 8.0019531 12.884766 z M 6.9296875 14.230469 L 6.9296875 16 L 7.4257812 16 L 7.4257812 15.828125 L 7.2421875 15.828125 L 7.2421875 14.402344 L 7.4257812 14.402344 L 7.4257812 14.230469 L 6.9296875 14.230469 z M 7.8457031 14.230469 L 7.84375 16 L 8.1582031 16 L 8.1582031 14.230469 L 7.8457031 14.230469 z M 8.5761719 14.230469 L 8.5761719 14.402344 L 8.7597656 14.402344 L 8.7597656 15.828125 L 8.5761719 15.828125 L 8.5761719 16 L 9.0722656 16 L 9.0722656 14.230469 L 8.5761719 14.230469 z "
       transform="matrix(0.8,0,0,-0.8,72.924743,178.8734)"
       id="path3048" /></g></svg>