<svg xmlns="http://www.w3.org/2000/svg" viewBox="0 0 16 16">
 <path d="m 8,-1.5e-4 c -0.4041,0.0245 -0.9315,0.15132 -1.2383,0.35742 -0.6367,1.35090005 -0.5491,3.62280005 -0.4512,5.12110005 0.2695,2.5667999 0.6254,5.0194999 1.1153,7.3654999 0.3794,-0.016 0.7601,-0.018 1.1484,0 0.4899002,-2.346 0.8458002,-4.7987 1.1153002,-7.3654999 0.0979,-1.4983 0.1855,-3.7702 -0.4512,-5.12110005 -0.3068002,-0.20608 -0.8342002,-0.33286 -1.2383002,-0.3574 z m -1.6855,0.33008 c -0.638,-0.04889 -1.3288,0.30956 -1.6211,0.61719 -1.139,1.16360005 -1.0032,3.86050005 -0.4278,5.82219995 0.7243,2.2467 1.6002,4.0585 2.586,6.1255 0.1353,-0.022 0.3189,-0.037 0.5,-0.047 -0.4833,-2.111 -0.7962,-4.1598 -1.0684,-6.1937001 -0.1751,-1.3084999 -0.2332,-2.5720998 -0.1953,-3.7499998 0.0296,-0.9205001 0.1431,-1.7704001 0.4961,-2.52740005 -0.0877,-0.02491 -0.1784,-0.03984 -0.2695,-0.04682 z m 3.3710002,0 c -0.0911,0.00698 -0.1818,0.02191 -0.2695,0.04687 0.353,0.75695005 0.4665,1.60680005 0.4961,2.52740005 0.0379,1.1778 -0.0202,2.4414 -0.1953,3.7498999 -0.2722,2.0339 -0.5851,4.0847 -1.0684002,6.1957 0.1613,0.006 0.3349002,0.02 0.5000002,0.045 0.9855998,-2.067 1.8615998,-3.8788 2.5855998,-6.1255 0.576,-1.9616999 0.712,-4.6585999 -0.427,-5.82219995 -0.293,-0.30766 -0.983,-0.66611 -1.6214998,-0.61722 z M 4.363304,1.1541501 c -0.5915,0.2673 -1.0577,0.7617 -1.4492,1.3047 -0.3806,0.508 -0.7134,1.3112 -0.7071,1.9668 0.0091,0.9324 0.2409,1.9427999 0.6328,2.9198999 0.9112,1.9935 2.3531,3.9043 3.8223,5.6133 0.004,-0.034 0.1353,-0.056 0.1387,-0.057 -1.0323,-1.946 -1.9577,-3.8801 -2.6621,-5.9586 -0.2815,-1.0643 -0.4567,-1.9418999 -0.4707,-2.8222999 -0.0182,-1.1388 0.0982,-2.0926 0.6953,-2.9668 z m 7.2737,0 c 0.597,0.8742 0.713,1.828 0.695,2.9668 -0.014,0.8804 -0.189,1.7579999 -0.471,2.8222999 -0.711,2.0988 -1.618,3.9936 -2.6617998,5.9586 0.0348,0.008 0.1292,0.024 0.1387,0.057 1.4690998,-1.709 2.9110998,-3.6198 3.8220998,-5.6133 0.392,-0.9771 0.624,-1.9874999 0.633,-2.9198999 0.006,-0.6556 -0.326,-1.4588 -0.707,-1.9668 -0.392,-0.543 -0.858,-1.0374 -1.449,-1.3047 z m -3.635,11.7309999 c -0.6975,0 -1.2676,0.061 -1.2676,0.136 0,0.076 0.5701,0.137 1.2676,0.137 0.6974,0 1.2656002,-0.061 1.2656002,-0.137 0,-0.075 -0.5682002,-0.136 -1.2656002,-0.136 z m -1.0723,1.345 0,1.77 0.4961,0 0,-0.172 -0.1836,0 0,-1.426 0.1836,0 0,-0.172 -0.4961,0 z m 0.916,0 -0.0019,1.77 0.3144,0 0,-1.77 -0.3125,0 z m 0.7305,0 0,0.172 0.1836,0 0,1.426 -0.1836,0 0,0.172 0.4961002,0 0,-1.77 -0.4961002,0 z"/>
</svg>