<svg xmlns="http://www.w3.org/2000/svg" viewBox="0 0 16 16">
 <path d="m11.846 3.0853c-0.36262 0.003-0.84744 0.26224-1.2026 0.79625-0.99682 1.4932-1.9163 3.5397-2.0343 4.4755-0.11392 0.9358 0.56559 1.005 1.0254 0.7771 0.52079-0.26039 1.2938-1.8716 1.8024-2.7544 0.03662-0.0651 0.1017-0.0123 0.06508 0.0325-1.2857 2.2133-0.74046 2.4697-0.23188 2.4371 0.67947-0.0407 1.306-1.0172 1.4444-1.2369 0.05696-0.0855 0.08953-0.0162 0.05698 0.0448-0.03255 0.10172-0.15056 0.28068-0.26041 0.5248-0.15461 0.34583 0.0081 0.48013 0.1424 0.54116 0.21157 0.10172 0.7893 0.0366 0.87882-0.31739-0.57775-0.0122 0.80563-2.7381 0.94803-2.905-0.38652-0.22377-0.98463 0.0203-1.2572 0.55738-0.58182 1.1514-1.0701 2.0791-1.3752 2.0954-0.59402 0.0326 0.68355-2.5673 0.89105-2.6487-0.12613-0.18308-0.93578-0.1058-1.3874 0.59401-0.16275 0.25226-1.1555 2.0099-1.3996 2.2988-0.43128 0.51265-0.46384 0.0732-0.34178-0.43945 0.040687-0.17495 0.10987-0.39866 0.19938-0.64685 0.2854-0.6429 0.5904-0.8464 0.7774-1.0539 1.2572-1.3956 1.9774-2.5266 1.6926-2.9701-0.08671-0.13566-0.24315-0.204-0.43309-0.20224zm0.02408 0.423c0.18182 0.006 0.28362 0.37452-0.19318 1.1056-0.35804 0.55334-0.76488 1.0619-1.2084 1.5095v0.004c-0.11392 0.12613-0.21566 0.23196-0.26041 0.29299-0.03255 0.0407-0.06915 0.0326-0.04474-0.0244 0.04476-0.10172 0.0732-0.13021 0.15051-0.3011 0.44755-0.98462 1.0091-2.0221 1.3956-2.5063 0.05251-0.0552 0.10969-0.082 0.1606-0.0803zm-6.0097 0.5766c-0.3096-0.005-0.6827 0.145-0.9288 0.5086-0.1587 0.236-0.3174 0.5208-0.4679 0.8301-0.9928 0.1546-1.8431 0.3295-2.2744 0.4922-0.4475 0.1709-0.3987 0.7121-0.1261 0.6103 0.5655-0.2115 1.3305-0.4312 2.1808-0.6265-0.5411 1.2206-0.9643 2.6609-1.066 3.2468-0.2523 1.4236 0.6306 1.4156 1.0619 0.8546 0.4679-0.6146 1.4444-2.7751 1.595-3.0029 0.044755-0.0773 0.10574-0.0366 0.073188 0.0326-1.0904 2.1767-0.99678 3.0189-0.11388 2.8318 0.39873-0.0854 1.0863-0.76896 1.2653-1.1229 0.036618-0.0854 0.11394-0.0773 0.097664-0.0407-0.69167 1.7943-1.5705 3.2468-2.1604 3.7025-0.53706 0.41094-0.93582-0.48015 0.96424-1.7577 0.28074-0.19123 0.15056-0.45156-0.1668-0.36205-0.98055 0.15461-3.7879 1.0456-5.0207 1.9-0.093579 0.0651-0.17905 0.11796-0.17498 0.25222 0.004069 0.0773 0.13833 0.0489 0.20343 0.008 1.5949-0.95614 2.901-1.3305 4.3983-1.6438 0.020343 0.008 0.04474 0.0122 0.065083 0.004 0.069167-0.0163 0.065099 0.0204 0.020343 0.0489-0.10172 0.057-0.20342 0.10979-0.22783 0.11792-1.009 0.39466-1.6193 1.2654-1.4037 1.7088 0.18309 0.38246 1.1717 0.24415 1.6396-0.008 1.1474-0.623 1.9815-1.843 2.5511-3.5278 0.4964-1.4932 1.1229-3.1858 1.2694-3.2346-0.297-0.236-1.1311 0.1587-1.3671 0.7445-0.297 0.7446-0.7364 1.831-1.1677 2.307-0.4557 0.5005-0.5004 0.1139-0.4557-0.175 0.1058-0.6794 0.769-2.254 1.1311-2.6975-0.1342-0.1994-1.0131-0.1708-1.6234 0.7772-0.22785 0.35805-0.74862 1.5501-1.3264 2.49-0.12613 0.20343-0.28481 0.0611-0.16275-0.41498 0.13833-0.54927 0.54515-2.0588 1.07-3.2468 1.3752-0.2726 2.8359-0.46383 3.9548-0.4679 0.15054-0.0407 0.25226-0.17495 0-0.18309-0.96427-0.0326-2.4128 0.0813-3.7676 0.25223 0.26039-0.52079 0.54116-0.93575 0.82597-1.1107-0.096631-0.061-0.22425-0.0954-0.36499-0.0977zm9.5772 1.2972c-0.6862 0.004-1.207 0.78258-0.88772 1.555 0.15868 0.39059 0.39876 0.77712 0.25636 1.1189-0.11799 0.29294-0.27262 0.41502-0.4435 0.4435-0.24005 0.0407-0.17492-0.71202 0.23601-0.9358 0.03662-0.0203 0.08951-0.11802 0.04069-0.17498-0.52079-0.0285-0.81375 0.21971-0.97243 0.54927-0.45976 0.96427 1.0415 1.2288 1.778 0.28075 0.29294-0.37838 0.30513-0.75267 0.0244-1.4321-0.17902-0.43127-0.45156-0.7527-0.28068-1.0375 0.18309-0.30108 0.62247-0.0407 0.29291 0.36213l0.07327 0.0407c0.42721 0.0244 0.60212-0.54522 0.27662-0.68762-0.13414-0.0572-0.26684-0.083-0.39391-0.0822zm-12.852 1.451c-0.82111 0.002-1.3953 0.9309-1.0482 1.9755 0.18309 0.5452 0.43938 1.123 0.23188 1.5827-0.17902 0.39467-0.52484 0.62656-0.75676 0.6347-0.48417 0.0244-0.16278-1.0863 0.39463-1.363 0.048824-0.0244 0.11802-0.057 0.052924-0.13835-0.6876-0.0773-1.0904 0.24008-1.3223 0.68357-0.6754 1.2898 1.2816 1.7658 2.3272 0.52082 0.415-0.49638 0.46383-1.0091 0.1424-1.9612-0.20343-0.60216-0.5411-1.066-0.29291-1.4403 0.26446-0.39873 0.82589-0.0122 0.35799 0.52082l0.093611 0.0651c0.56148 0.0651 0.83818-0.70384 0.4191-0.92355-0.2075-0.10833-0.41016-0.15729-0.59965-0.15687zm11.459 2.4379c-2.0041 0.0107-4.6032 0.28223-5.9367 0.63621-0.52893 0.13833-0.38249 0.41907-0.11395 0.36618 0.00407 0 0.11799-0.0285 0.12206-0.0285 1.4607-0.28481 5.0045-0.53301 7.0714-0.13835 0.24819 0.0448 0.99274-0.69981 0.59401-0.7527-0.46688-0.061-1.0688-0.0865-1.7368-0.0829z"/>
</svg>