<svg xmlns="http://www.w3.org/2000/svg" viewBox="0 0 16 16">
 <path d="m14.671 10.9c0-0.09 0.0451-0.1805 0.0451-0.2257 0.9028-3.5209-1.2639-7.6738-4.9203-9.8405 1.5799 2.1667 2.3021 4.7848 1.6702 7.087-0.0451 0.2257-0.13542 0.4062-0.18056 0.5868-0.0903-0.045-0.18056-0.09-0.31598-0.1806 0 0-3.6112-2.257-7.5384-6.1841-0.0903-0.09 2.0764 3.1598 4.6043 5.7779-1.1736-0.6771-4.4689-3.0244-6.5002-4.9203 0.27084 0.4063 0.54168 0.8125 0.9028 1.2188 1.7153 2.2119 3.9723 4.9203 6.6807 6.9967-1.8959 1.1736-4.6043 1.2639-7.2675 0-0.6771-0.316-1.2639-0.6771-1.8507-1.1285 1.1285 1.7 2.889 3.3 5.0105 4.2 2.5278 1.0834 5.0557 0.9931 6.9064 0 0.76738-0.4965 2.8438-1.2639 3.882 0.7674 0.18056 0.4062 0.6771-1.9862-1.1285-4.2432z"/>
</svg>