<?xml version="1.0" encoding="UTF-8" standalone="no"?>
<!-- Created with Inkscape (http://www.inkscape.org/) -->

<svg
   xmlns:dc="http://purl.org/dc/elements/1.1/"
   xmlns:cc="http://creativecommons.org/ns#"
   xmlns:rdf="http://www.w3.org/1999/02/22-rdf-syntax-ns#"
   xmlns:svg="http://www.w3.org/2000/svg"
   xmlns="http://www.w3.org/2000/svg"
   xmlns:sodipodi="http://sodipodi.sourceforge.net/DTD/sodipodi-0.dtd"
   xmlns:inkscape="http://www.inkscape.org/namespaces/inkscape"
   width="16"
   height="16"
   viewBox="0 0 16 16"
   id="svg3369"
   version="1.1"
   inkscape:version="0.91 r13725"
   sodipodi:docname="swift.svg">
  <defs
     id="defs3371" />
  <sodipodi:namedview
     id="base"
     pagecolor="#ffffff"
     bordercolor="#666666"
     borderopacity="1.0"
     inkscape:pageopacity="0.0"
     inkscape:pageshadow="2"
     inkscape:zoom="33.625"
     inkscape:cx="8"
     inkscape:cy="8"
     inkscape:document-units="px"
     inkscape:current-layer="layer1"
     showgrid="false"
     units="px"
     inkscape:window-width="1366"
     inkscape:window-height="705"
     inkscape:window-x="-8"
     inkscape:window-y="-8"
     inkscape:window-maximized="1" />
  <metadata
     id="metadata3374">
    <rdf:RDF>
      <cc:Work
         rdf:about="">
        <dc:format>image/svg+xml</dc:format>
        <dc:type
           rdf:resource="http://purl.org/dc/dcmitype/StillImage" />
        <dc:title></dc:title>
      </cc:Work>
    </rdf:RDF>
  </metadata>
  <g
     inkscape:label="Camada 1"
     inkscape:groupmode="layer"
     id="layer1"
     transform="translate(0,-1036.3622)">
    <path
       inkscape:connector-curvature="0"
       class="st2"
       d="m 14.670548,1047.251 c 0,0 0,0 0,0 0,-0.09 0.0451,-0.1805 0.0451,-0.2257 0.9028,-3.5209 -1.26393,-7.6738 -4.9202701,-9.8405 1.5799001,2.1667 2.3021401,4.7848 1.6701801,7.087 -0.0451,0.2257 -0.13542,0.4062 -0.18056,0.5868 -0.0903,-0.045 -0.18056,-0.09 -0.31598,-0.1806 0,0 -3.6112001,-2.257 -7.5383801,-6.1841 -0.0903,-0.09 2.07644,3.1598 4.60428,5.7779 -1.17364,-0.6771 -4.46886,-3.0244 -6.50016,-4.9203 0.27084,0.4063 0.54168,0.8125 0.9028,1.2188 1.71532,2.2119 3.97232,4.9203 6.68072,6.9967 -1.89588,1.1736 -4.60428,1.2639 -7.26754,0 -0.6771,-0.316 -1.26392003,-0.6771 -1.8507400296569,-1.1285 C 1.1284979,1048.2441 2.8889579,1049.824 5.0105379,1050.7268 c 2.52784,1.0834 5.0556801,0.9931 6.9064201,0 l 0,0 c 0.76738,-0.4965 2.84383,-1.2639 3.88205,0.7674 0.18056,0.4062 0.6771,-1.9862 -1.1285,-4.2432 z"
       id="path26"
       style="fill:#000000" />
  </g>
</svg>
