<?xml version="1.0" encoding="UTF-8" standalone="no"?>
<!-- Generator: Adobe Illustrator 19.1.0, SVG Export Plug-In . SVG Version: 6.00 Build 0)  -->

<svg
   xmlns:dc="http://purl.org/dc/elements/1.1/"
   xmlns:cc="http://creativecommons.org/ns#"
   xmlns:rdf="http://www.w3.org/1999/02/22-rdf-syntax-ns#"
   xmlns:svg="http://www.w3.org/2000/svg"
   xmlns="http://www.w3.org/2000/svg"
   xmlns:sodipodi="http://sodipodi.sourceforge.net/DTD/sodipodi-0.dtd"
   xmlns:inkscape="http://www.inkscape.org/namespaces/inkscape"
   version="1.1"
   id="Layer_1"
   x="0px"
   y="0px"
   width="16"
   height="16"
   viewBox="-105 40.9 16 16"
   xml:space="preserve"
   inkscape:version="0.91 r13725"
   sodipodi:docname="swift.svg"><metadata
     id="metadata13"><rdf:RDF><cc:Work
         rdf:about=""><dc:format>image/svg+xml</dc:format><dc:type
           rdf:resource="http://purl.org/dc/dcmitype/StillImage" /><dc:title>Swift logo</dc:title></cc:Work></rdf:RDF></metadata><defs
     id="defs11" /><sodipodi:namedview
     pagecolor="#ffffff"
     bordercolor="#666666"
     borderopacity="1"
     objecttolerance="10"
     gridtolerance="10"
     guidetolerance="10"
     inkscape:pageopacity="0"
     inkscape:pageshadow="2"
     inkscape:window-width="786"
     inkscape:window-height="480"
     id="namedview9"
     showgrid="false"
     inkscape:zoom="0.69411765"
     inkscape:cx="258.05085"
     inkscape:cy="170"
     inkscape:window-x="0"
     inkscape:window-y="0"
     inkscape:window-maximized="0"
     inkscape:current-layer="Layer_1" /><style
     type="text/css"
     id="style3">
	.st0{fill:#AFAFD6;}
</style><title
     id="title5">Swift logo</title><path
     class="st0"
     d="m -95.149308,41.835547 c 6.797603,4.398448 4.719169,9.929831 4.719169,9.929831 0,0 0.733075,0.833039 1.099613,1.866008 0.366537,1.032969 0.362372,2.29919 0.295729,2.332511 -0.06664,0.03332 -0.924674,-1.432828 -2.428311,-1.432828 -1.503636,0 -2.265867,1.432828 -4.931594,1.432828 -6.002048,0 -8.605298,-4.923263 -8.605298,-4.923263 0,0 2.64074,1.890999 5.406427,1.824356 2.765691,-0.06664 3.532087,-0.866361 3.532087,-0.866361 0,0 -1.237064,-1.032969 -3.36548,-3.115568 -2.128414,-2.082599 -4.131874,-4.948255 -4.131874,-4.948255 0,0 3.2072,2.544936 4.24017,3.290506 1.032969,0.745571 2.057607,1.424498 2.057607,1.424498 0,0 -0.999647,-1.074621 -1.6994,-1.936817 -0.699754,-0.862196 -2.499117,-3.47794 -2.499117,-3.47794 0,0 2.757359,2.490788 4.011083,3.47794 1.253725,0.987152 3.652879,2.653231 3.652879,2.653231 0,0 1.445323,-3.298836 -1.35369,-7.530677 z"
     id="path7"
     style="fill:#000000"
     inkscape:connector-curvature="0" /></svg>