<svg xmlns="http://www.w3.org/2000/svg" viewBox="0 0 16 16">
 <path d="m11.73 0-0.0321 0.006c-1.1899 0.20755-2.3548 0.64475-2.8656 1.6907l-0.21535-0.37591-0.0189-0.034-0.0283 0.0283c-0.58598 0.56071-1.215 1.287-1.6793 2.0005-0.43582 0.66973-0.72489 1.3252-0.69327 1.8267l-0.30414-0.37969-0.0302-0.0378-0.0208 0.0435c-0.37018 0.79967-0.74378 1.7835-0.96718 2.6862-0.21181 0.85589-0.28766 1.635-0.0907 2.1252l-0.50059-0.29091-0.0416-0.0246-0.004 0.0491c-0.0942 1.4276 0.4859 2.1092 1.1523 2.7674l-0.55538 0.1379-0.11145 0.0283 0.11145 0.0302c0.31884 0.0864 0.62113 0.18368 0.83117 0.34569 0.21005 0.16201 0.33072 0.38481 0.29469 0.7405v0.002 1.5414 0.009l0.006 0.008 0.69516 0.9974 0.0548 0.0793v-0.0963-2.3499c0.092-0.39557 0.19997-0.66783 0.35514-0.84817s0.35708-0.27294 0.64605-0.30791l0.10389-0.0132-0.0944-0.0435-0.36647-0.17379c0.87382-0.52613 1.8524-1.8158 2.11-3.0413l0.0113-0.0491-0.0472 0.0132-0.45336 0.12279c0.40277-0.37818 0.80851-1.1275 1.1939-2.0005 0.4087-0.92591 0.79029-1.9745 1.1032-2.8128l0.017-0.0453-0.0472 0.004-0.34946 0.0246c0.43203-0.45856 0.67216-1.2158 0.78961-2.0156 0.12224-0.83243 0.11366-1.7089 0.0453-2.3348l-0.004-0.0321zm-0.32869 0.50059c0.0231 1.4104-0.0188 2.8056-1.2392 4.1313l-0.0453 0.051h0.068l0.4987 0.008c-0.81034 1.6857-1.3376 3.3666-2.503 5.0456l-0.0416 0.0605 0.0718-0.0132 0.61582-0.11712c-0.43625 1.1068-1.1822 1.8396-1.991 2.0855-0.22261-3.1173 1.333-5.8688 2.6541-8.612 0.001-0.003 0.003-0.005 0.004-0.008l-0.0491-0.034c-2.1632 2.4188-3.138 5.8302-3.506 8.6442-0.73315-0.4139-0.9775-0.96192-1.226-1.7077l0.51192 0.21535 0.0529 0.0227-0.0113-0.0567c-0.38907-1.73 0.21498-2.9718 0.80094-4.6035l0.42126 0.28147 0.0491 0.034-0.002-0.0586c-0.033-1.3257 0.85965-2.6566 2.0439-3.8442l0.16435 0.44014 0.0227 0.0586 0.0321-0.0548 0.3608-0.60071 0.002-0.004c0.59553-0.82026 1.2251-1.0873 2.2404-1.3639z"/>
</svg>