<?xml version="1.0" encoding="UTF-8" standalone="no"?>
<!-- Created with Inkscape (http://www.inkscape.org/) -->

<svg
   xmlns:dc="http://purl.org/dc/elements/1.1/"
   xmlns:cc="http://creativecommons.org/ns#"
   xmlns:rdf="http://www.w3.org/1999/02/22-rdf-syntax-ns#"
   xmlns:svg="http://www.w3.org/2000/svg"
   xmlns="http://www.w3.org/2000/svg"
   xmlns:sodipodi="http://sodipodi.sourceforge.net/DTD/sodipodi-0.dtd"
   xmlns:inkscape="http://www.inkscape.org/namespaces/inkscape"
   width="16"
   height="16"
   id="svg2309"
   sodipodi:version="0.32"
   inkscape:version="0.91 r13725"
   sodipodi:modified="true"
   version="1.0"
   sodipodi:docname="tcl.svg">
  <defs
     id="defs2311" />
  <sodipodi:namedview
     id="base"
     pagecolor="#ffffff"
     bordercolor="#666666"
     borderopacity="1.0"
     gridtolerance="10000"
     guidetolerance="10"
     objecttolerance="10"
     inkscape:pageopacity="0.0"
     inkscape:pageshadow="2"
     inkscape:zoom="33.625"
     inkscape:cx="8"
     inkscape:cy="8"
     inkscape:document-units="px"
     inkscape:current-layer="layer1"
     inkscape:window-width="1366"
     inkscape:window-height="705"
     inkscape:window-x="-8"
     inkscape:window-y="-8"
     showgrid="false"
     inkscape:window-maximized="1" />
  <metadata
     id="metadata2314">
    <rdf:RDF>
      <cc:Work
         rdf:about="">
        <dc:format>image/svg+xml</dc:format>
        <dc:type
           rdf:resource="http://purl.org/dc/dcmitype/StillImage" />
        <dc:title></dc:title>
      </cc:Work>
    </rdf:RDF>
  </metadata>
  <g
     inkscape:label="Layer 1"
     inkscape:groupmode="layer"
     id="layer1"
     transform="translate(-311.79308,-614.42022)">
    <path
       inkscape:connector-curvature="0"
       id="path2177"
       d="m 323.51746,614.42008 -0.0321,0.006 c -1.1899,0.20755 -2.3548,0.64475 -2.86564,1.69067 l -0.21535,-0.37591 -0.0189,-0.034 -0.0283,0.0283 c -0.58598,0.56071 -1.21505,1.28698 -1.67934,2.00047 -0.43582,0.66973 -0.72489,1.32522 -0.69327,1.82668 l -0.30414,-0.37969 -0.0302,-0.0378 -0.0208,0.0435 c -0.37018,0.79967 -0.74378,1.78348 -0.96718,2.68618 -0.21181,0.85589 -0.28766,1.63496 -0.0907,2.12515 l -0.50059,-0.29091 -0.0416,-0.0246 -0.004,0.0491 c -0.0942,1.42762 0.4859,2.10925 1.15231,2.76741 l -0.55538,0.1379 -0.11145,0.0283 0.11145,0.0302 c 0.31884,0.0864 0.62113,0.18368 0.83117,0.34569 0.21005,0.16201 0.33072,0.38481 0.29469,0.7405 l 0,0.002 0,1.54144 0,0.009 0.006,0.008 0.69516,0.9974 0.0548,0.0793 0,-0.0963 0,-2.34994 c 0.092,-0.39557 0.19997,-0.66783 0.35514,-0.84817 0.15517,-0.18034 0.35708,-0.27294 0.64605,-0.30791 l 0.10389,-0.0132 -0.0944,-0.0435 -0.36647,-0.17379 c 0.87382,-0.52613 1.85245,-1.81584 2.11004,-3.04132 l 0.0113,-0.0491 -0.0472,0.0132 -0.45336,0.12279 c 0.40277,-0.37818 0.80851,-1.12746 1.19386,-2.00047 0.4087,-0.92591 0.79029,-1.97454 1.10319,-2.81275 l 0.017,-0.0453 -0.0472,0.004 -0.34946,0.0246 c 0.43203,-0.45856 0.67216,-1.2158 0.78961,-2.01559 0.12224,-0.83243 0.11366,-1.70894 0.0453,-2.33483 l -0.004,-0.0321 z m -0.32869,0.50059 c 0.0231,1.4104 -0.0188,2.80557 -1.2392,4.13129 l -0.0453,0.051 0.068,0 0.4987,0.008 c -0.81034,1.6857 -1.33758,3.36661 -2.50295,5.04557 l -0.0416,0.0605 0.0718,-0.0132 0.61582,-0.11712 c -0.43625,1.10683 -1.18223,1.83962 -1.99102,2.08548 -0.22261,-3.11726 1.33303,-5.86878 2.65407,-8.61205 0.001,-0.003 0.003,-0.005 0.004,-0.008 l -0.0491,-0.034 c -2.16319,2.41876 -3.13796,5.8302 -3.50602,8.64415 -0.73315,-0.4139 -0.9775,-0.96192 -1.22597,-1.70767 l 0.51192,0.21535 0.0529,0.0227 -0.0113,-0.0567 c -0.38907,-1.73002 0.21498,-2.9718 0.80094,-4.60354 l 0.42126,0.28147 0.0491,0.034 -0.002,-0.0586 c -0.033,-1.32571 0.85965,-2.65659 2.04392,-3.84416 l 0.16435,0.44014 0.0227,0.0586 0.0321,-0.0548 0.3608,-0.60071 0.002,-0.004 c 0.59553,-0.82026 1.22514,-1.08728 2.24038,-1.36388 z"
       style="display:inline;fill:#000000;fill-opacity:1;fill-rule:evenodd;stroke:none;stroke-width:1px;stroke-linecap:butt;stroke-linejoin:miter;stroke-opacity:1" />
  </g>
</svg>
