<svg xmlns="http://www.w3.org/2000/svg" viewBox="0 0 16 16">
 <path d="m0,8v8h16v-16h-16v8zm12.894-0.6375c0.40635,0.10159,0.71619,0.2819,1.0006,0.57651,0.1473,0.15746,0.36571,0.44444,0.38349,0.51301,0.0051,0.0203-0.69079,0.48762-1.1124,0.74921-0.01524,0.0102-0.07619-0.0559-0.14476-0.15746-0.20571-0.29968-0.42159-0.42921-0.75175-0.45206-0.48508-0.033-0.79746,0.22095-0.79492,0.64508,0,0.12444,0.01778,0.19809,0.06857,0.29968,0.10667,0.22095,0.30476,0.35301,0.92698,0.62222,1.1454,0.4927,1.6356,0.81778,1.9403,1.28,0.34032,0.51556,0.41651,1.3384,0.1854,1.9505-0.25397,0.66539-0.88381,1.1175-1.7702,1.2673-0.27429,0.0482-0.92444,0.0406-1.219-0.0127-0.642-0.114-1.252-0.432-1.6276-0.848-0.1473-0.163-0.4343-0.587-0.4165-0.618,0.00762-0.0102,0.073651-0.0508,0.1473-0.094,0.071111-0.0406,0.34032-0.19555,0.59429-0.34285l0.45968-0.26667,0.09651,0.14222c0.1346,0.20572,0.42921,0.48762,0.60698,0.58159,0.51048,0.26921,1.2114,0.23111,1.5568-0.0787,0.1473-0.1346,0.20825-0.27429,0.20825-0.48,0-0.1854-0.02286-0.26667-0.11936-0.40635-0.12444-0.17778-0.37841-0.32762-1.0997-0.64-0.8254-0.35555-1.181-0.57651-1.506-0.92698-0.18794-0.20318-0.36572-0.52826-0.43936-0.8-0.06095-0.22604-0.076191-0.79238-0.02794-1.021,0.17016-0.79746,0.77206-1.3536,1.6406-1.5187,0.2819-0.0533,0.93714-0.033,1.214,0.0356zm-3.7562,0.66794,0.00508,0.65523h-2.0826v5.9175h-1.473v-5.9173h-2.0826v-0.64254c0-0.35555,0.00762-0.65269,0.017778-0.66031,0.00762-0.0102,1.2749-0.0152,2.8114-0.0127l2.7962,0.008,0.00762,0.6527z"/>
 </svg>